<svg xmlns="http://www.w3.org/2000/svg" width="700" height="300" version="1.1" viewBox="0 0 185.21 79.375"><g transform="matrix(.97096 0 0 .90174 2.5135 3.4947)"><rect width="183.48" height="79.563" x="1.304" y=".603" fill="#2c233d" stroke="#2c233d" stroke-width="2.244" ry="4.819"/><g stroke-width=".635"><text x="33.136" y="59.443" fill="#000" font-family="sans-serif" font-size="18.097" transform="scale(.9637 1.0377)" style="line-height:1.25" xml:space="preserve"><tspan x="33.136" y="59.443" fill="#fff" stroke-width=".635" font-family="Lato" font-size="18.097">Official Partner</tspan></text><path fill="#ff8d4e" d="m96.42 39.252h-6.6489l-3.379-5.3988 3.3245-5.3695z"/><path fill="#92929a" d="m96.393 15.867h-6.6217l-3.27 4.812 3.27 4.9293z"/><path fill="#fff" d="m88.79 27.075-7.6299-11.179h-6.6489l7.6299 11.179-7.6299 12.206h6.6489zm-39.703-2.582 8.8562-8.685h2.5887v23.444h-5.7497v-12.03l-5.6952 5.5748-5.7224-5.5748v12.03h-5.7224v-23.473h2.5615zm15.641-8.685h5.7224v23.444h-5.7224z"/><path fill="#ff8d4e" d="m100.67 15.808h5.6952v23.444h-5.7224zm9.2104 0h17.14v6.103h-5.7769v17.341h-5.7224v-17.311h-5.6407z"/><path fill="#ff8a4b" d="m28.542 33.061-1.09 6.5724h-2.2345q-0.29975 0-0.59949-0.17605-0.2725-0.17605-0.4905-0.44012-0.19075-0.29341-0.2725-0.64551-0.0545-0.38144 0-0.79221l0.79024-4.5186h-2.5615l-0.76299 4.7533q-0.0545 0.4988-0.2725 0.8509-0.218 0.32275-0.4905 0.52814-0.2725 0.23473-0.65399 0.32275-0.327 0.11736-0.70849 0.11736h-2.1255l1.09-6.5724h-1.3625q-0.73574 0-1.0355-0.44012-0.29975-0.46946-0.13625-1.5844l0.24525-1.5844h2.725l0.65399-3.9317h-3.1065l0.3815-2.0832q0.13625-0.76287 0.5995-1.1443 0.4905-0.3521 1.4987-0.3521h1.0355l0.81749-4.8707q0.13625-0.79222 0.68124-1.2323 0.57224-0.44012 1.3352-0.44012h2.18l-1.09 6.5431h2.5615l1.09-6.5431h2.1255q0.3815 0 0.68124 0.14671 0.29975 0.11736 0.4905 0.3521 0.218 0.20539 0.327 0.52814 0.08175 0.29341 0 0.67485l-0.76299 4.8413h2.9975l-0.35425 2.0832q-0.13625 0.79221-0.62674 1.1737-0.46325 0.32275-1.4715 0.32275h-0.98099l-0.65399 3.9317h1.6895q0.73574 0 1.0355 0.46946 0.29975 0.44012 0.13625 1.5257l-0.2725 1.6138zm-6.0767-3.609h2.5615l0.70849-3.9317h-2.5615z" font-size="85" font-weight="900" letter-spacing="0" word-spacing="0"/></g><g fill="#fff" stroke-width="2.763" aria-label="23"><path d="m463.14 15.91q5.9682 0 10.721 1.7684 4.8078 1.7131 8.1787 4.8078t5.1393 7.405q1.8236 4.2551 1.8236 9.3945 0 4.4209-1.271 8.1787-1.2158 3.7578-3.371 7.184-2.1552 3.371-5.0288 6.5761-2.8183 3.1499-6.0235 6.4103l-15.75 16.136q3.0394-0.88418 5.9682-1.3815 2.9841-0.55262 5.5814-0.55262h15.031q2.7631 0 4.3657 1.5473 1.6026 1.4921 1.6026 3.9788v9.9471h-56.588v-5.5262q0-1.6026 0.66314-3.4262 0.66314-1.8236 2.321-3.3157l23.21-23.376q2.9841-2.9841 5.1946-5.6919 2.2105-2.7078 3.6473-5.3051 1.4368-2.6526 2.1552-5.2498 0.7184-2.6526 0.7184-5.5814 0-4.8078-2.321-7.3498-2.2657-2.5973-6.963-2.5973-3.813 0-6.4656 2.0447-2.5973 1.9894-3.592 4.9735-1.1605 3.0394-3.0394 4.0341t-5.3604 0.44209l-9.0629-1.6026q0.88418-6.0235 3.371-10.5 2.542-4.4762 6.2446-7.4603 3.7578-2.9841 8.5655-4.4209 4.8078-1.4921 10.334-1.4921z" transform="matrix(.27341 0 0 .29243 13.118 11.24)"/><path d="m527.68 15.91q5.9682 0 10.61 1.7131 4.642 1.6578 7.8471 4.5314t4.863 6.6866q1.6578 3.7578 1.6578 7.9577 0 3.813-0.77366 6.7419-0.77366 2.8736-2.321 5.0288-1.4921 2.0999-3.7578 3.592-2.2105 1.4921-5.0841 2.4868 13.373 4.642 13.373 18.181 0 6.4103-2.321 11.163-2.321 4.7525-6.2446 7.9024-3.8683 3.1499-9.0076 4.7525-5.1393 1.5473-10.721 1.5473-5.7472 0-10.223-1.2158-4.4762-1.271-7.9577-3.8683-3.4815-2.6526-6.134-6.7419-2.5973-4.0894-4.5314-9.726l7.6261-3.0946q2.9841-1.1605 5.5262-0.60788t3.6473 2.542q2.4868 4.5867 5.2498 6.6866 2.8183 2.0447 6.5761 2.0447 2.8736 0 4.9735-0.93944 2.1552-0.99471 3.5367-2.4868 1.4368-1.5473 2.1552-3.4815 0.7184-1.9342 0.7184-3.9236 0-2.5973-0.38683-4.642-0.33157-2.0999-1.9894-3.592-1.6578-1.4921-5.0288-2.2657-3.3157-0.82892-9.2839-0.82892v-11.826q5.0288 0 8.1234-0.77366 3.0946-0.77366 4.7525-2.0999 1.7131-1.3815 2.2657-3.3157 0.55261-1.9342 0.55261-4.2551 0-4.7525-2.321-7.2945-2.2657-2.5973-6.963-2.5973-3.813 0-6.4656 2.0447-2.5973 1.9894-3.592 4.9735-1.1605 3.0394-3.0394 4.0341-1.8789 0.99471-5.3604 0.44209l-9.0629-1.6026q0.88419-6.0235 3.371-10.5 2.542-4.4762 6.2446-7.4603 3.7578-2.9841 8.5655-4.4209 4.8078-1.4921 10.334-1.4921z" transform="matrix(.27341 0 0 .29243 13.118 11.24)"/></g></g></svg>