<svg xmlns="http://www.w3.org/2000/svg" id="svg18" width="580" height="200" version="1.1" viewBox="0 0 580 200"><metadata id="metadata24"/><path id="path2" d="M 324.41,97.656 H 300 L 287.627,79.278 299.794,61.09 Z" style="fill:#ff8d4e"/><path id="path4" d="M 324.31,17.97 H 299.9 l -12.088,16.42 12.263,16.78 z" style="fill:#92929a"/><path id="path6" d="m 296.425,56.234 -27.97,-38.142 h -24.41 l 27.872,38.142 -27.97,41.544 h 24.41 z m -145.708,-8.83 32.468,-29.626 h 9.474 V 97.7 H 171.577 V 56.675 L 150.717,75.75 129.742,56.78 V 97.7 H 108.665 V 17.78 h 9.475 z m 57.34,-29.627 h 20.972 V 97.7 h -20.973 z" style="fill:#2c233d"/><path id="path8" d="m 339.91,17.777 h 20.97 V 97.7 h -20.97 z m 33.925,10e-4 h 62.832 v 20.86 H 415.51 V 97.7 H 394.566 V 38.638 h -20.73 z" style="fill:#ff8d4e"/><path style="font-weight:900;font-size:85px;font-family:Lato;letter-spacing:0;word-spacing:0;fill:#ff8a4b;stroke-width:.75" id="path10" d="m 75.27,76.58 -3.966,22.385 h -8.16 q -1.19,0 -2.266,-0.567 -1.02,-0.567 -1.757,-1.53 -0.68,-0.963 -0.962,-2.21 -0.284,-1.247 0,-2.663 l 2.72,-15.414 h -9.35 L 48.75,92.846 q -0.282,1.643 -1.076,2.833 -0.736,1.133 -1.813,1.87 -1.02,0.737 -2.322,1.077 -1.247,0.34 -2.607,0.34 h -7.82 L 37.08,76.58 h -4.99 q -2.662,0 -3.796,-1.53 -1.133,-1.585 -0.51,-5.325 l 0.907,-5.44 h 10.03 L 41.1,50.91 H 29.825 l 1.36,-7.14 q 0.51,-2.605 2.21,-3.852 1.757,-1.247 5.497,-1.247 h 3.854 L 45.69,22.07 q 0.51,-2.663 2.55,-4.137 2.098,-1.53 4.818,-1.53 h 8.046 l -3.966,22.27 h 9.406 L 70.51,16.4 h 7.82 q 1.36,0 2.438,0.455 1.133,0.453 1.87,1.246 0.793,0.738 1.133,1.815 0.34,1.02 0.114,2.266 l -2.946,16.49 H 91.93 l -1.36,7.14 q -0.51,2.665 -2.266,3.91 -1.7,1.19 -5.44,1.19 h -3.57 l -2.38,13.375 h 6.177 q 2.664,0 3.798,1.586 1.133,1.53 0.51,5.27 l -0.907,5.44 z M 53.115,64.286 h 9.407 L 64.9,50.91 h -9.406 z" font-size="85" font-weight="900" letter-spacing="0" word-spacing="0"/><g style="font-weight:900;font-size:80.5059967px;line-height:1.25;font-family:sans-serif;letter-spacing:0;word-spacing:0;fill:#2b233c;stroke-width:.83899999" id="g16" font-size="80.506" font-weight="900" letter-spacing="0" transform="translate(2,-2)" word-spacing="0"><path style="font-family:Lato" id="path12" d="m 446.88,88.302 h 14.763 V 48.145 q 0,-2.95 0.158,-6.174 l -8.698,7.486 q -1.16,0.93 -2.32,1.148 -1.107,0.163 -2.11,0 -1,-0.22 -1.792,-0.71 -0.79,-0.547 -1.16,-1.093 L 440.554,41.7 464.491,20.884 h 13.497 v 67.42 h 12.653 v 12.238 h -43.76 z"/><path id="path14" d="m 526.975,101.414 q -6.116,0 -11.177,-1.694 -5.062,-1.693 -8.7,-4.753 -3.585,-3.114 -5.588,-7.485 -1.95,-4.37 -1.95,-9.725 0,-3.223 0.684,-6.064 0.738,-2.896 2.267,-5.245 1.583,-2.404 4.008,-4.262 2.478,-1.857 5.958,-3.114 -5.272,-2.46 -7.856,-6.83 -2.53,-4.37 -2.53,-10.49 0,-4.643 1.845,-8.577 1.845,-3.988 5.167,-6.884 3.32,-2.895 7.856,-4.534 4.587,-1.693 10.017,-1.693 5.43,0 9.965,1.693 4.587,1.64 7.908,4.535 3.322,2.897 5.167,6.885 1.845,3.934 1.845,8.578 0,6.12 -2.583,10.49 -2.584,4.37 -7.803,6.83 3.427,1.256 5.852,3.113 2.478,1.858 4.007,4.262 1.582,2.35 2.32,5.245 0.738,2.84 0.738,6.064 0,5.354 -2.002,9.725 -1.95,4.37 -5.59,7.485 -3.584,3.06 -8.646,4.753 -5.06,1.694 -11.177,1.694 z m 0,-12.785 q 2.742,0 4.745,-0.875 2.004,-0.874 3.27,-2.35 1.317,-1.53 1.897,-3.55 0.633,-2.076 0.633,-4.426 0,-2.57 -0.528,-4.7 -0.527,-2.13 -1.74,-3.605 -1.212,-1.53 -3.268,-2.35 -2.004,-0.874 -5.01,-0.874 -3.004,0 -5.06,0.875 -2.004,0.82 -3.217,2.35 -1.212,1.475 -1.74,3.606 -0.527,2.13 -0.527,4.7 0,2.35 0.58,4.425 0.633,2.02 1.898,3.55 1.318,1.476 3.27,2.35 2.003,0.874 4.797,0.874 z m 0,-35.623 q 2.742,0 4.48,-0.928 1.74,-0.93 2.743,-2.46 1.002,-1.53 1.37,-3.497 0.37,-1.966 0.37,-4.043 0,-1.857 -0.475,-3.605 -0.474,-1.75 -1.58,-3.06 -1.056,-1.366 -2.796,-2.185 -1.687,-0.82 -4.112,-0.82 -2.478,0 -4.165,0.82 -1.687,0.82 -2.794,2.185 -1.055,1.31 -1.53,3.06 -0.474,1.748 -0.474,3.605 0,2.077 0.37,4.043 0.368,1.967 1.37,3.497 1.002,1.53 2.742,2.46 1.74,0.927 4.48,0.927 z"/></g><text style="font-style:normal;font-weight:400;font-size:40px;line-height:1.25;font-family:sans-serif;letter-spacing:0;word-spacing:0;fill:#2b233c;fill-opacity:1;stroke:none" id="text852" x="102.375" y="169.173" xml:space="preserve"><tspan id="tspan850" x="102.375" y="169.173" style="font-style:normal;font-variant:normal;font-weight:100;font-stretch:normal;font-size:48px;font-family:Lato;-inkscape-font-specification:'Lato Thin';fill:#2b233c;fill-opacity:1">Official Partner</tspan></text><path id="path2-3" d="m 278.58268,137.96588 c 8.83347,0 15.98819,-6.98441 15.98819,-15.60761 0,-8.62321 -7.15472,-15.60761 -15.98819,-15.60761 -8.83348,0 -15.98819,6.9844 -15.98819,15.60761 0,8.6232 7.15471,15.60761 15.98819,15.60761 z m 0,7.80381 c -10.67212,0 -31.97638,5.22855 -31.97638,15.60761 v 7.8038 h 63.95276 v -7.8038 c 0,-10.37906 -21.30427,-15.60761 -31.97638,-15.60761 z" style="stroke-width:3.94918871;fill:#ff8d4e;fill-opacity:1"/><path style="fill:none;stroke:#000;stroke-width:1px;stroke-linecap:butt;stroke-linejoin:miter;stroke-opacity:1" id="path860" d="m 262.979,148.24147 10.65617,13.70079 8.3727,0.38057 11.41733,-14.84252"/><text style="font-style:normal;font-weight:400;font-size:40px;line-height:1.25;font-family:sans-serif;letter-spacing:0;word-spacing:0;fill:#92929a;fill-opacity:1;stroke:none" id="text864" x="224.541" y="191.627" xml:space="preserve"><tspan id="tspan862" x="224.541" y="191.627" style="font-style:normal;font-variant:normal;font-weight:300;font-stretch:normal;font-size:21.33333397px;font-family:Lato;-inkscape-font-specification:'Lato Light';fill:#92929a;fill-opacity:1">tour de cou</tspan></text></svg>