<svg xmlns="http://www.w3.org/2000/svg" id="svg18" width="580" height="200" version="1.1" viewBox="0 0 580 200"><metadata id="metadata24"/><path id="path2" d="M 324.41,97.656 H 300 L 287.627,79.278 299.794,61.09 Z" style="fill:#ff8d4e"/><path id="path4" d="M 324.31,17.97 H 299.9 l -12.088,16.42 12.263,16.78 z" style="fill:#92929a"/><path id="path6" d="m 296.425,56.234 -27.97,-38.142 h -24.41 l 27.872,38.142 -27.97,41.544 h 24.41 z m -145.708,-8.83 32.468,-29.626 h 9.474 V 97.7 H 171.577 V 56.675 L 150.717,75.75 129.742,56.78 V 97.7 H 108.665 V 17.78 h 9.475 z m 57.34,-29.627 h 20.972 V 97.7 h -20.973 z" style="fill:#2c233d"/><path id="path8" d="m 339.91,17.777 h 20.97 V 97.7 h -20.97 z m 33.925,10e-4 h 62.832 v 20.86 H 415.51 V 97.7 H 394.566 V 38.638 h -20.73 z" style="fill:#ff8d4e"/><path style="font-weight:900;font-size:85px;font-family:Lato;letter-spacing:0;word-spacing:0;fill:#ff8a4b;stroke-width:.75" id="path10" d="m 75.27,76.58 -3.966,22.385 h -8.16 q -1.19,0 -2.266,-0.567 -1.02,-0.567 -1.757,-1.53 -0.68,-0.963 -0.962,-2.21 -0.284,-1.247 0,-2.663 l 2.72,-15.414 h -9.35 L 48.75,92.846 q -0.282,1.643 -1.076,2.833 -0.736,1.133 -1.813,1.87 -1.02,0.737 -2.322,1.077 -1.247,0.34 -2.607,0.34 h -7.82 L 37.08,76.58 h -4.99 q -2.662,0 -3.796,-1.53 -1.133,-1.585 -0.51,-5.325 l 0.907,-5.44 h 10.03 L 41.1,50.91 H 29.825 l 1.36,-7.14 q 0.51,-2.605 2.21,-3.852 1.757,-1.247 5.497,-1.247 h 3.854 L 45.69,22.07 q 0.51,-2.663 2.55,-4.137 2.098,-1.53 4.818,-1.53 h 8.046 l -3.966,22.27 h 9.406 L 70.51,16.4 h 7.82 q 1.36,0 2.438,0.455 1.133,0.453 1.87,1.246 0.793,0.738 1.133,1.815 0.34,1.02 0.114,2.266 l -2.946,16.49 H 91.93 l -1.36,7.14 q -0.51,2.665 -2.266,3.91 -1.7,1.19 -5.44,1.19 h -3.57 l -2.38,13.375 h 6.177 q 2.664,0 3.798,1.586 1.133,1.53 0.51,5.27 l -0.907,5.44 z M 53.115,64.286 h 9.407 L 64.9,50.91 h -9.406 z" font-size="85" font-weight="900" letter-spacing="0" word-spacing="0"/><g style="font-weight:900;font-size:80.5059967px;line-height:1.25;font-family:sans-serif;letter-spacing:0;word-spacing:0;fill:#2b233c;stroke-width:.83899999" id="g16" font-size="80.506" font-weight="900" letter-spacing="0" transform="translate(2,-2)" word-spacing="0"><path style="font-family:Lato" id="path12" d="m 446.88,88.302 h 14.763 V 48.145 q 0,-2.95 0.158,-6.174 l -8.698,7.486 q -1.16,0.93 -2.32,1.148 -1.107,0.163 -2.11,0 -1,-0.22 -1.792,-0.71 -0.79,-0.547 -1.16,-1.093 L 440.554,41.7 464.491,20.884 h 13.497 v 67.42 h 12.653 v 12.238 h -43.76 z"/><path id="path14" d="m 526.975,101.414 q -6.116,0 -11.177,-1.694 -5.062,-1.693 -8.7,-4.753 -3.585,-3.114 -5.588,-7.485 -1.95,-4.37 -1.95,-9.725 0,-3.223 0.684,-6.064 0.738,-2.896 2.267,-5.245 1.583,-2.404 4.008,-4.262 2.478,-1.857 5.958,-3.114 -5.272,-2.46 -7.856,-6.83 -2.53,-4.37 -2.53,-10.49 0,-4.643 1.845,-8.577 1.845,-3.988 5.167,-6.884 3.32,-2.895 7.856,-4.534 4.587,-1.693 10.017,-1.693 5.43,0 9.965,1.693 4.587,1.64 7.908,4.535 3.322,2.897 5.167,6.885 1.845,3.934 1.845,8.578 0,6.12 -2.583,10.49 -2.584,4.37 -7.803,6.83 3.427,1.256 5.852,3.113 2.478,1.858 4.007,4.262 1.582,2.35 2.32,5.245 0.738,2.84 0.738,6.064 0,5.354 -2.002,9.725 -1.95,4.37 -5.59,7.485 -3.584,3.06 -8.646,4.753 -5.06,1.694 -11.177,1.694 z m 0,-12.785 q 2.742,0 4.745,-0.875 2.004,-0.874 3.27,-2.35 1.317,-1.53 1.897,-3.55 0.633,-2.076 0.633,-4.426 0,-2.57 -0.528,-4.7 -0.527,-2.13 -1.74,-3.605 -1.212,-1.53 -3.268,-2.35 -2.004,-0.874 -5.01,-0.874 -3.004,0 -5.06,0.875 -2.004,0.82 -3.217,2.35 -1.212,1.475 -1.74,3.606 -0.527,2.13 -0.527,4.7 0,2.35 0.58,4.425 0.633,2.02 1.898,3.55 1.318,1.476 3.27,2.35 2.003,0.874 4.797,0.874 z m 0,-35.623 q 2.742,0 4.48,-0.928 1.74,-0.93 2.743,-2.46 1.002,-1.53 1.37,-3.497 0.37,-1.966 0.37,-4.043 0,-1.857 -0.475,-3.605 -0.474,-1.75 -1.58,-3.06 -1.056,-1.366 -2.796,-2.185 -1.687,-0.82 -4.112,-0.82 -2.478,0 -4.165,0.82 -1.687,0.82 -2.794,2.185 -1.055,1.31 -1.53,3.06 -0.474,1.748 -0.474,3.605 0,2.077 0.37,4.043 0.368,1.967 1.37,3.497 1.002,1.53 2.742,2.46 1.74,0.927 4.48,0.927 z"/></g><g style="font-style:normal;font-weight:400;font-size:40px;line-height:1.25;font-family:sans-serif;letter-spacing:0;word-spacing:0;fill:#2b233c;fill-opacity:1;stroke:none" id="text852" aria-label="Official Partner"><path style="font-style:normal;font-variant:normal;font-weight:100;font-stretch:normal;font-size:48px;font-family:Lato;-inkscape-font-specification:'Lato Thin';fill:#2b233c;fill-opacity:1" id="path899" d="m 136.71934,152.37322 q 0,3.984 -1.152,7.152 -1.128,3.168 -3.192,5.4 -2.04,2.208 -4.896,3.408 -2.856,1.176 -6.312,1.176 -3.432,0 -6.288,-1.176 -2.832,-1.2 -4.896,-3.408 -2.04,-2.232 -3.192,-5.4 -1.128,-3.168 -1.128,-7.152 0,-3.96 1.128,-7.128 1.152,-3.192 3.192,-5.424 2.064,-2.232 4.896,-3.432 2.856,-1.2 6.288,-1.2 3.456,0 6.312,1.2 2.856,1.176 4.896,3.408 2.064,2.232 3.192,5.424 1.152,3.168 1.152,7.152 z m -0.624,0 q 0,-3.912 -1.104,-7.008 -1.08,-3.096 -3.048,-5.256 -1.968,-2.16 -4.728,-3.288 -2.736,-1.152 -6.048,-1.152 -3.264,0 -6,1.152 -2.736,1.128 -4.728,3.288 -1.968,2.16 -3.096,5.256 -1.104,3.096 -1.104,7.008 0,3.912 1.104,7.008 1.128,3.072 3.096,5.232 1.992,2.136 4.728,3.288 2.736,1.128 6,1.128 3.312,0 6.048,-1.128 2.76,-1.152 4.728,-3.288 1.968,-2.16 3.048,-5.232 1.104,-3.096 1.104,-7.008 z"/><path style="font-style:normal;font-variant:normal;font-weight:100;font-stretch:normal;font-size:48px;font-family:Lato;-inkscape-font-specification:'Lato Thin';fill:#2b233c;fill-opacity:1" id="path901" d="m 145.72909,169.17322 v -22.032 l -3.936,-0.096 q -0.288,0 -0.288,-0.192 v -0.192 h 4.224 v -3.36 q 0,-2.016 0.48,-3.48 0.48,-1.488 1.32,-2.448 0.84,-0.96 2.016,-1.416 1.176,-0.48 2.592,-0.48 0.696,0 1.44,0.144 0.744,0.12 1.248,0.384 l -0.048,0.192 q -0.048,0.168 -0.192,0.144 -0.144,-0.024 -0.456,-0.096 -0.288,-0.096 -0.792,-0.192 -0.48,-0.096 -1.2,-0.096 -1.248,0 -2.328,0.408 -1.056,0.384 -1.848,1.272 -0.768,0.864 -1.224,2.28 -0.432,1.392 -0.432,3.384 v 3.36 h 13.584 v -2.64 q 0,-2.184 0.6,-3.864 0.624,-1.704 1.728,-2.832 1.104,-1.152 2.64,-1.728 1.536,-0.6 3.384,-0.6 0.696,0 1.44,0.144 0.744,0.12 1.248,0.384 l -0.048,0.192 q -0.048,0.144 -0.192,0.12 -0.12,-0.024 -0.432,-0.096 -0.288,-0.072 -0.792,-0.168 -0.48,-0.096 -1.224,-0.096 -1.704,0 -3.12,0.528 -1.416,0.504 -2.472,1.56 -1.032,1.056 -1.608,2.664 -0.576,1.608 -0.576,3.792 v 2.64 h 13.392 v 22.512 h -0.576 v -22.032 h -12.816 v 22.032 h -0.576 v -22.032 h -13.584 v 22.032 z"/><path style="font-style:normal;font-variant:normal;font-weight:100;font-stretch:normal;font-size:48px;font-family:Lato;-inkscape-font-specification:'Lato Thin';fill:#2b233c;fill-opacity:1" id="path903" d="m 198.32209,147.86122 q -0.096,0.096 -0.192,0.096 -0.144,0 -0.552,-0.336 -0.384,-0.36 -1.152,-0.768 -0.744,-0.408 -1.896,-0.744 -1.128,-0.36 -2.736,-0.36 -2.28,0 -4.08,0.816 -1.8,0.816 -3.048,2.328 -1.248,1.512 -1.92,3.672 -0.648,2.16 -0.648,4.848 0,2.784 0.648,4.944 0.672,2.136 1.896,3.624 1.224,1.464 2.928,2.232 1.728,0.768 3.84,0.768 1.872,0 3.168,-0.432 1.296,-0.432 2.136,-0.96 0.84,-0.528 1.272,-0.96 0.432,-0.432 0.576,-0.432 0.096,0 0.192,0.096 l 0.096,0.096 q -0.36,0.528 -1.056,1.08 -0.696,0.528 -1.656,0.984 -0.96,0.432 -2.16,0.72 -1.2,0.288 -2.568,0.288 -2.28,0 -4.104,-0.816 -1.824,-0.816 -3.12,-2.352 -1.272,-1.56 -1.968,-3.792 -0.696,-2.232 -0.696,-5.088 0,-2.736 0.696,-4.968 0.696,-2.256 2.016,-3.84 1.32,-1.584 3.216,-2.448 1.92,-0.888 4.344,-0.888 2.136,0 3.792,0.696 1.68,0.672 2.88,1.752 z"/><path style="font-style:normal;font-variant:normal;font-weight:100;font-stretch:normal;font-size:48px;font-family:Lato;-inkscape-font-specification:'Lato Thin';fill:#2b233c;fill-opacity:1" id="path905" d="m 206.28034,145.65322 v 23.52 h -0.576 v -23.52 z m 1.056,-8.736 q 0,0.504 -0.432,0.912 -0.408,0.384 -0.912,0.384 -0.552,0 -0.96,-0.384 -0.384,-0.408 -0.384,-0.912 0,-0.552 0.384,-0.936 0.408,-0.408 0.96,-0.408 0.504,0 0.912,0.408 0.432,0.384 0.432,0.936 z"/><path style="font-style:normal;font-variant:normal;font-weight:100;font-stretch:normal;font-size:48px;font-family:Lato;-inkscape-font-specification:'Lato Thin';fill:#2b233c;fill-opacity:1" id="path907" d="m 229.46359,169.17322 q -0.336,0 -0.336,-0.384 l -0.144,-3.816 q -1.008,1.056 -2.016,1.92 -1.008,0.84 -2.136,1.44 -1.128,0.576 -2.424,0.888 -1.296,0.336 -2.88,0.336 -1.056,0 -2.136,-0.336 -1.08,-0.312 -1.944,-1.008 -0.864,-0.72 -1.416,-1.824 -0.552,-1.128 -0.552,-2.736 0,-1.584 0.936,-2.832 0.936,-1.272 2.832,-2.16 1.92,-0.888 4.824,-1.392 2.928,-0.528 6.912,-0.624 v -3.024 q 0,-1.848 -0.408,-3.312 -0.408,-1.464 -1.2,-2.472 -0.792,-1.008 -1.992,-1.536 -1.2,-0.552 -2.784,-0.552 -1.248,0 -2.256,0.264 -1.008,0.264 -1.8,0.648 -0.792,0.384 -1.392,0.84 -0.576,0.456 -1.008,0.84 -0.432,0.384 -0.696,0.648 -0.264,0.264 -0.384,0.264 -0.096,0 -0.24,-0.144 l -0.096,-0.096 q 1.728,-1.824 3.576,-2.784 1.848,-0.96 4.296,-0.96 1.8,0 3.096,0.576 1.32,0.576 2.184,1.656 0.864,1.08 1.272,2.64 0.408,1.536 0.408,3.48 v 15.552 z m -9.936,-0.096 q 1.656,0 3,-0.384 1.344,-0.384 2.472,-1.032 1.128,-0.648 2.088,-1.488 0.984,-0.864 1.896,-1.8 v -7.248 q -7.56,0.24 -11.256,1.896 -3.672,1.632 -3.672,4.632 0,1.416 0.456,2.448 0.48,1.008 1.248,1.68 0.768,0.648 1.752,0.984 0.984,0.312 2.016,0.312 z"/><path style="font-style:normal;font-variant:normal;font-weight:100;font-stretch:normal;font-size:48px;font-family:Lato;-inkscape-font-specification:'Lato Thin';fill:#2b233c;fill-opacity:1" id="path909" d="m 238.99909,134.61322 v 34.56 h -0.576 v -34.56 z"/><path style="font-style:normal;font-variant:normal;font-weight:100;font-stretch:normal;font-size:48px;font-family:Lato;-inkscape-font-specification:'Lato Thin';fill:#2b233c;fill-opacity:1" id="path911" d="m 318.33184,154.77322 v 14.4 h -0.576 v -33.6 h 7.584 q 5.496,0 8.424,2.376 2.952,2.376 2.952,7.224 0,2.088 -0.84,3.864 -0.816,1.752 -2.328,3.024 -1.512,1.272 -3.6,1.992 -2.088,0.72 -4.608,0.72 z m 0,-0.48 h 7.008 q 2.472,0 4.464,-0.696 1.992,-0.72 3.384,-1.944 1.416,-1.248 2.184,-2.904 0.768,-1.656 0.768,-3.576 0,-4.488 -2.712,-6.792 -2.688,-2.328 -8.088,-2.328 h -7.008 z"/><path style="font-style:normal;font-variant:normal;font-weight:100;font-stretch:normal;font-size:48px;font-family:Lato;-inkscape-font-specification:'Lato Thin';fill:#2b233c;fill-opacity:1" id="path913" d="m 356.58859,169.17322 q -0.336,0 -0.336,-0.384 l -0.144,-3.816 q -1.008,1.056 -2.016,1.92 -1.008,0.84 -2.136,1.44 -1.128,0.576 -2.424,0.888 -1.296,0.336 -2.88,0.336 -1.056,0 -2.136,-0.336 -1.08,-0.312 -1.944,-1.008 -0.864,-0.72 -1.416,-1.824 -0.552,-1.128 -0.552,-2.736 0,-1.584 0.936,-2.832 0.936,-1.272 2.832,-2.16 1.92,-0.888 4.824,-1.392 2.928,-0.528 6.912,-0.624 v -3.024 q 0,-1.848 -0.408,-3.312 -0.408,-1.464 -1.2,-2.472 -0.792,-1.008 -1.992,-1.536 -1.2,-0.552 -2.784,-0.552 -1.248,0 -2.256,0.264 -1.008,0.264 -1.8,0.648 -0.792,0.384 -1.392,0.84 -0.576,0.456 -1.008,0.84 -0.432,0.384 -0.696,0.648 -0.264,0.264 -0.384,0.264 -0.096,0 -0.24,-0.144 l -0.096,-0.096 q 1.728,-1.824 3.576,-2.784 1.848,-0.96 4.296,-0.96 1.8,0 3.096,0.576 1.32,0.576 2.184,1.656 0.864,1.08 1.272,2.64 0.408,1.536 0.408,3.48 v 15.552 z m -9.936,-0.096 q 1.656,0 3,-0.384 1.344,-0.384 2.472,-1.032 1.128,-0.648 2.088,-1.488 0.984,-0.864 1.896,-1.8 v -7.248 q -7.56,0.24 -11.256,1.896 -3.672,1.632 -3.672,4.632 0,1.416 0.456,2.448 0.48,1.008 1.248,1.68 0.768,0.648 1.752,0.984 0.984,0.312 2.016,0.312 z"/><path style="font-style:normal;font-variant:normal;font-weight:100;font-stretch:normal;font-size:48px;font-family:Lato;-inkscape-font-specification:'Lato Thin';fill:#2b233c;fill-opacity:1" id="path915" d="m 365.26009,169.17322 v -23.52 h 0.144 q 0.336,0 0.336,0.384 l 0.072,6.504 q 0.504,-1.728 1.2,-3.072 0.72,-1.368 1.68,-2.304 0.984,-0.936 2.232,-1.416 1.272,-0.48 2.88,-0.48 0.696,0 1.416,0.12 0.744,0.096 1.32,0.408 l -0.096,0.192 q -0.048,0.072 -0.096,0.144 -0.024,0.048 -0.144,0.048 -0.12,0 -0.312,-0.048 -0.192,-0.072 -0.48,-0.144 -0.264,-0.072 -0.672,-0.12 -0.384,-0.072 -0.936,-0.072 -1.584,0 -2.808,0.504 -1.224,0.504 -2.184,1.488 -0.96,0.984 -1.68,2.472 -0.72,1.488 -1.296,3.456 v 15.456 z"/><path style="font-style:normal;font-variant:normal;font-weight:100;font-stretch:normal;font-size:48px;font-family:Lato;-inkscape-font-specification:'Lato Thin';fill:#2b233c;fill-opacity:1" id="path917" d="m 387.49609,169.55722 q -2.064,0 -3.24,-1.128 -1.176,-1.128 -1.176,-3.72 v -17.568 h -3.888 q -0.336,0 -0.336,-0.24 v -0.144 l 4.224,-0.096 0.192,-9.456 q 0,-0.12 0.048,-0.216 0.072,-0.12 0.192,-0.12 h 0.144 v 9.792 h 8.016 v 0.48 h -8.016 v 17.568 q 0,1.2 0.288,2.04 0.312,0.816 0.84,1.344 0.528,0.504 1.224,0.744 0.696,0.24 1.488,0.24 1.008,0 1.752,-0.312 0.768,-0.312 1.296,-0.672 0.528,-0.36 0.84,-0.672 0.336,-0.312 0.48,-0.312 0.096,0 0.192,0.096 l 0.096,0.096 q -0.36,0.48 -0.888,0.912 -0.504,0.408 -1.128,0.72 -0.6,0.288 -1.296,0.456 -0.672,0.168 -1.344,0.168 z"/><path style="font-style:normal;font-variant:normal;font-weight:100;font-stretch:normal;font-size:48px;font-family:Lato;-inkscape-font-specification:'Lato Thin';fill:#2b233c;fill-opacity:1" id="path919" d="m 397.51009,169.17322 v -23.52 h 0.144 q 0.336,0 0.336,0.384 l 0.072,4.536 q 0.816,-1.2 1.824,-2.184 1.032,-0.984 2.208,-1.68 1.176,-0.696 2.472,-1.056 1.296,-0.384 2.688,-0.384 3.912,0 5.832,2.328 1.944,2.328 1.944,6.504 v 15.072 h -0.576 v -15.072 q 0,-1.968 -0.432,-3.504 -0.432,-1.56 -1.344,-2.64 -0.888,-1.08 -2.256,-1.632 -1.344,-0.576 -3.168,-0.576 -2.76,0 -5.088,1.488 -2.328,1.464 -4.08,4.056 v 17.88 z"/><path style="font-style:normal;font-variant:normal;font-weight:100;font-stretch:normal;font-size:48px;font-family:Lato;-inkscape-font-specification:'Lato Thin';fill:#2b233c;fill-opacity:1" id="path921" d="m 432.35659,145.26922 q 1.848,0 3.48,0.672 1.632,0.648 2.832,1.944 1.224,1.296 1.92,3.192 0.696,1.872 0.696,4.32 0,0.12 -0.096,0.192 -0.072,0.048 -0.192,0.048 h -18.288 q -0.048,0.336 -0.048,0.648 0,0.312 0,0.648 0,2.928 0.696,5.184 0.696,2.232 1.968,3.768 1.296,1.512 3.096,2.304 1.824,0.792 4.032,0.792 1.968,0 3.408,-0.432 1.44,-0.432 2.4,-0.96 0.96,-0.528 1.464,-0.96 0.504,-0.432 0.6,-0.432 0.096,0 0.192,0.096 l 0.096,0.096 q -0.408,0.504 -1.224,1.056 -0.792,0.528 -1.896,0.984 -1.08,0.456 -2.376,0.744 -1.296,0.288 -2.664,0.288 -2.424,0 -4.344,-0.84 -1.92,-0.864 -3.264,-2.472 -1.32,-1.608 -2.04,-3.936 -0.72,-2.328 -0.72,-5.28 0,-2.592 0.696,-4.728 0.696,-2.16 2.016,-3.696 1.32,-1.536 3.216,-2.376 1.92,-0.864 4.344,-0.864 z m 0,0.48 q -2.112,0 -3.816,0.696 -1.68,0.672 -2.904,1.92 -1.224,1.224 -1.968,2.976 -0.72,1.752 -0.936,3.864 h 18.024 q 0,-2.28 -0.648,-4.032 -0.648,-1.776 -1.8,-2.976 -1.128,-1.2 -2.664,-1.824 -1.536,-0.624 -3.288,-0.624 z"/><path style="font-style:normal;font-variant:normal;font-weight:100;font-stretch:normal;font-size:48px;font-family:Lato;-inkscape-font-specification:'Lato Thin';fill:#2b233c;fill-opacity:1" id="path923" d="m 448.32259,169.17322 v -23.52 h 0.144 q 0.336,0 0.336,0.384 l 0.072,6.504 q 0.504,-1.728 1.2,-3.072 0.72,-1.368 1.68,-2.304 0.984,-0.936 2.232,-1.416 1.272,-0.48 2.88,-0.48 0.696,0 1.416,0.12 0.744,0.096 1.32,0.408 l -0.096,0.192 q -0.048,0.072 -0.096,0.144 -0.024,0.048 -0.144,0.048 -0.12,0 -0.312,-0.048 -0.192,-0.072 -0.48,-0.144 -0.264,-0.072 -0.672,-0.12 -0.384,-0.072 -0.936,-0.072 -1.584,0 -2.808,0.504 -1.224,0.504 -2.184,1.488 -0.96,0.984 -1.68,2.472 -0.72,1.488 -1.296,3.456 v 15.456 z"/></g><path id="path2-3" d="m 278.58268,137.96588 c 8.83347,0 15.98819,-6.98441 15.98819,-15.60761 0,-8.62321 -7.15472,-15.60761 -15.98819,-15.60761 -8.83348,0 -15.98819,6.9844 -15.98819,15.60761 0,8.6232 7.15471,15.60761 15.98819,15.60761 z m 0,7.80381 c -10.67212,0 -31.97638,5.22855 -31.97638,15.60761 v 7.8038 h 63.95276 v -7.8038 c 0,-10.37906 -21.30427,-15.60761 -31.97638,-15.60761 z" style="stroke-width:3.94918871;fill:#ff8d4e;fill-opacity:1"/><path style="fill:none;stroke:#000;stroke-width:1px;stroke-linecap:butt;stroke-linejoin:miter;stroke-opacity:1" id="path860" d="m 262.979,148.24147 10.65617,13.70079 8.3727,0.38057 11.41733,-14.84252"/><g style="font-style:normal;font-weight:400;font-size:40px;line-height:1.25;font-family:sans-serif;letter-spacing:0;word-spacing:0;fill:#92929a;fill-opacity:1;stroke:none" id="text864" aria-label="tour de cou"><path style="font-style:normal;font-variant:normal;font-weight:300;font-stretch:normal;font-size:21.33333397px;font-family:Lato;-inkscape-font-specification:'Lato Light';fill:#92929a;fill-opacity:1" id="path926" d="m 229.19135,191.79797 q -1.07734,0 -1.68534,-0.59733 -0.59733,-0.59734 -0.59733,-1.84534 v -7.25333 h -1.52533 q -0.11734,0 -0.192,-0.064 -0.0747,-0.064 -0.0747,-0.18133 v -0.39467 l 1.81333,-0.128 0.256,-3.79733 q 0.0213,-0.096 0.0853,-0.17067 0.064,-0.0747 0.18133,-0.0747 h 0.48 v 4.05334 h 3.34933 v 0.75733 h -3.34933 v 7.2 q 0,0.43733 0.10667,0.75733 0.11733,0.30934 0.30933,0.512 0.20267,0.20267 0.46933,0.29867 0.26667,0.096 0.576,0.096 0.384,0 0.66134,-0.10667 0.27733,-0.11733 0.48,-0.24533 0.20266,-0.13867 0.33066,-0.24533 0.128,-0.11734 0.20267,-0.11734 0.0853,0 0.17067,0.10667 l 0.27733,0.448 q -0.40533,0.448 -1.03467,0.72533 -0.61866,0.26667 -1.29066,0.26667 z"/><path style="font-style:normal;font-variant:normal;font-weight:300;font-stretch:normal;font-size:21.33333397px;font-family:Lato;-inkscape-font-specification:'Lato Light';fill:#92929a;fill-opacity:1" id="path928" d="m 237.78435,180.8433 q 1.14133,0 2.03733,0.39467 0.90667,0.384 1.52533,1.09867 0.61867,0.71466 0.93867,1.728 0.33067,1.00266 0.33067,2.25066 0,1.248 -0.33067,2.25067 -0.32,1.00267 -0.93867,1.71733 -0.61866,0.71467 -1.52533,1.09867 -0.896,0.384 -2.03733,0.384 -1.14134,0 -2.048,-0.384 -0.896,-0.384 -1.52534,-1.09867 -0.61866,-0.71466 -0.94933,-1.71733 -0.32,-1.00267 -0.32,-2.25067 0,-1.248 0.32,-2.25066 0.33067,-1.01334 0.94933,-1.728 0.62934,-0.71467 1.52534,-1.09867 0.90666,-0.39467 2.048,-0.39467 z m 0,10.12267 q 0.94933,0 1.65333,-0.32 0.71467,-0.33067 1.184,-0.93867 0.48,-0.608 0.71467,-1.46133 0.23466,-0.864 0.23466,-1.93067 0,-1.056 -0.23466,-1.92 -0.23467,-0.864 -0.71467,-1.472 -0.46933,-0.61866 -1.184,-0.94933 -0.704,-0.33067 -1.65333,-0.33067 -0.94934,0 -1.664,0.33067 -0.704,0.33067 -1.184,0.94933 -0.46934,0.608 -0.71467,1.472 -0.23467,0.864 -0.23467,1.92 0,1.06667 0.23467,1.93067 0.24533,0.85333 0.71467,1.46133 0.48,0.608 1.184,0.93867 0.71466,0.32 1.664,0.32 z"/><path style="font-style:normal;font-variant:normal;font-weight:300;font-stretch:normal;font-size:21.33333397px;font-family:Lato;-inkscape-font-specification:'Lato Light';fill:#92929a;fill-opacity:1" id="path930" d="m 246.40501,181.01397 v 6.784 q 0,1.49333 0.68267,2.34667 0.68267,0.84266 2.08,0.84266 1.03467,0 1.93067,-0.52266 0.896,-0.53334 1.61066,-1.472 v -7.97867 h 1.024 v 10.61333 h -0.56533 q -0.26667,0 -0.30933,-0.27733 l -0.096,-1.57867 q -0.736,0.91734 -1.70667,1.472 -0.96,0.55467 -2.144,0.55467 -0.88533,0 -1.54667,-0.27733 -0.66133,-0.27734 -1.09866,-0.8 -0.43734,-0.52267 -0.66134,-1.25867 -0.224,-0.736 -0.224,-1.664 v -6.784 z"/><path style="font-style:normal;font-variant:normal;font-weight:300;font-stretch:normal;font-size:21.33333397px;font-family:Lato;-inkscape-font-specification:'Lato Light';fill:#92929a;fill-opacity:1" id="path932" d="m 257.20668,191.6273 v -10.61333 h 0.544 q 0.18133,0 0.256,0.0747 0.0747,0.0747 0.096,0.256 l 0.0747,2.22933 q 0.24533,-0.65067 0.55466,-1.152 0.32,-0.512 0.72534,-0.864 0.416,-0.352 0.91733,-0.53333 0.512,-0.192 1.13067,-0.192 0.33066,0 0.65066,0.064 0.32,0.0533 0.56534,0.20266 l -0.0853,0.704 q -0.0533,0.17067 -0.20266,0.17067 -0.128,0 -0.39467,-0.0747 -0.256,-0.0747 -0.68267,-0.0747 -0.61866,0 -1.09866,0.192 -0.48,0.192 -0.85334,0.56533 -0.37333,0.36267 -0.66133,0.91733 -0.27733,0.544 -0.512,1.25867 v 6.86933 z"/><path style="font-style:normal;font-variant:normal;font-weight:300;font-stretch:normal;font-size:21.33333397px;font-family:Lato;-inkscape-font-specification:'Lato Light';fill:#92929a;fill-opacity:1" id="path934" d="m 277.78301,191.6273 q -0.27733,0 -0.32,-0.27733 l -0.10666,-1.67467 q -0.704,0.96 -1.64267,1.52534 -0.93867,0.56533 -2.112,0.56533 -1.96267,0 -3.05067,-1.35467 -1.088,-1.35466 -1.088,-4.064 0,-1.16266 0.29867,-2.16533 0.30933,-1.01333 0.896,-1.74933 0.58667,-0.74667 1.44,-1.17334 0.864,-0.42666 1.984,-0.42666 1.07733,0 1.86667,0.40533 0.78933,0.39467 1.376,1.16267 v -6.29334 h 1.01333 v 15.52 z m -3.89333,-0.68266 q 1.04533,0 1.89867,-0.544 0.864,-0.544 1.536,-1.52534 v -5.568 q -0.608,-0.91733 -1.35467,-1.29066 -0.736,-0.384 -1.68533,-0.384 -0.93867,0 -1.64267,0.34133 -0.704,0.34133 -1.184,0.97067 -0.46933,0.61866 -0.71467,1.49333 -0.23466,0.864 -0.23466,1.90933 0,2.368 0.864,3.488 0.87466,1.10934 2.51733,1.10934 z"/><path style="font-style:normal;font-variant:normal;font-weight:300;font-stretch:normal;font-size:21.33333397px;font-family:Lato;-inkscape-font-specification:'Lato Light';fill:#92929a;fill-opacity:1" id="path936" d="m 285.98101,180.8433 q 0.896,0 1.664,0.30934 0.768,0.30933 1.33334,0.90666 0.56533,0.58667 0.88533,1.45067 0.33067,0.864 0.33067,1.984 0,0.23467 -0.064,0.32 -0.064,0.0853 -0.21334,0.0853 h -7.72266 v 0.20267 q 0,1.19467 0.27733,2.10133 0.27733,0.90667 0.78933,1.52534 0.512,0.608 1.23734,0.91733 0.72533,0.30933 1.62133,0.30933 0.8,0 1.38667,-0.17066 0.58666,-0.18134 0.98133,-0.39467 0.40533,-0.224 0.64,-0.39467 0.23467,-0.18133 0.34133,-0.18133 0.13867,0 0.21334,0.10667 l 0.27733,0.34133 q -0.256,0.32 -0.68267,0.59733 -0.416,0.27734 -0.93866,0.48 -0.512,0.192 -1.10934,0.30934 -0.58666,0.11733 -1.184,0.11733 -1.088,0 -1.984,-0.37333 -0.896,-0.384 -1.536,-1.10934 -0.64,-0.72533 -0.992,-1.77066 -0.34133,-1.056 -0.34133,-2.41067 0,-1.14133 0.32,-2.10133 0.33067,-0.97067 0.93867,-1.664 0.61866,-0.704 1.504,-1.09867 0.896,-0.39467 2.02666,-0.39467 z m 0.0107,0.75734 q -0.82133,0 -1.472,0.256 -0.65067,0.256 -1.13067,0.736 -0.46933,0.48 -0.768,1.152 -0.288,0.672 -0.384,1.504 h 7.04 q 0,-0.85334 -0.24533,-1.52534 -0.23467,-0.68266 -0.672,-1.152 -0.43733,-0.46933 -1.04533,-0.71466 -0.59734,-0.256 -1.32267,-0.256 z"/><path style="font-style:normal;font-variant:normal;font-weight:300;font-stretch:normal;font-size:21.33333397px;font-family:Lato;-inkscape-font-specification:'Lato Light';fill:#92929a;fill-opacity:1" id="path938" d="m 305.88435,182.43264 q -0.0533,0.0533 -0.10667,0.096 -0.0427,0.032 -0.128,0.032 -0.10666,0 -0.288,-0.13867 -0.18133,-0.14933 -0.49066,-0.32 -0.30934,-0.17067 -0.77867,-0.30933 -0.45867,-0.14934 -1.12,-0.14934 -0.91733,0 -1.632,0.33067 -0.704,0.32 -1.19467,0.928 -0.49066,0.608 -0.74666,1.472 -0.24534,0.864 -0.24534,1.94133 0,1.12 0.256,1.984 0.26667,0.864 0.74667,1.46134 0.48,0.58666 1.16267,0.896 0.68266,0.30933 1.51466,0.30933 0.768,0 1.28,-0.18133 0.52267,-0.18134 0.85334,-0.39467 0.34133,-0.21333 0.53333,-0.39467 0.192,-0.18133 0.32,-0.18133 0.128,0 0.21333,0.10667 l 0.26667,0.34133 q -0.24533,0.32 -0.61867,0.59733 -0.37333,0.27734 -0.84266,0.48 -0.46934,0.20267 -1.024,0.30934 -0.544,0.11733 -1.14134,0.11733 -1.01333,0 -1.856,-0.36267 -0.832,-0.37333 -1.44,-1.06666 -0.59733,-0.704 -0.93866,-1.71734 -0.33067,-1.01333 -0.33067,-2.304 0,-1.216 0.32,-2.21866 0.32,-1.00267 0.93867,-1.728 0.61866,-0.72534 1.504,-1.12 0.896,-0.40534 2.048,-0.40534 1.03466,0 1.83466,0.33067 0.8,0.33067 1.39734,0.896 z"/><path style="font-style:normal;font-variant:normal;font-weight:300;font-stretch:normal;font-size:21.33333397px;font-family:Lato;-inkscape-font-specification:'Lato Light';fill:#92929a;fill-opacity:1" id="path940" d="m 312.78435,180.8433 q 1.14134,0 2.03734,0.39467 0.90666,0.384 1.52533,1.09867 0.61867,0.71466 0.93867,1.728 0.33066,1.00266 0.33066,2.25066 0,1.248 -0.33066,2.25067 -0.32,1.00267 -0.93867,1.71733 -0.61867,0.71467 -1.52533,1.09867 -0.896,0.384 -2.03734,0.384 -1.14133,0 -2.048,-0.384 -0.896,-0.384 -1.52533,-1.09867 -0.61867,-0.71466 -0.94933,-1.71733 -0.32,-1.00267 -0.32,-2.25067 0,-1.248 0.32,-2.25066 0.33066,-1.01334 0.94933,-1.728 0.62933,-0.71467 1.52533,-1.09867 0.90667,-0.39467 2.048,-0.39467 z m 0,10.12267 q 0.94934,0 1.65334,-0.32 0.71466,-0.33067 1.184,-0.93867 0.48,-0.608 0.71466,-1.46133 0.23467,-0.864 0.23467,-1.93067 0,-1.056 -0.23467,-1.92 -0.23466,-0.864 -0.71466,-1.472 -0.46934,-0.61866 -1.184,-0.94933 -0.704,-0.33067 -1.65334,-0.33067 -0.94933,0 -1.664,0.33067 -0.704,0.33067 -1.184,0.94933 -0.46933,0.608 -0.71466,1.472 -0.23467,0.864 -0.23467,1.92 0,1.06667 0.23467,1.93067 0.24533,0.85333 0.71466,1.46133 0.48,0.608 1.184,0.93867 0.71467,0.32 1.664,0.32 z"/><path style="font-style:normal;font-variant:normal;font-weight:300;font-stretch:normal;font-size:21.33333397px;font-family:Lato;-inkscape-font-specification:'Lato Light';fill:#92929a;fill-opacity:1" id="path942" d="m 321.40502,181.01397 v 6.784 q 0,1.49333 0.68266,2.34667 0.68267,0.84266 2.08,0.84266 1.03467,0 1.93067,-0.52266 0.896,-0.53334 1.61067,-1.472 v -7.97867 h 1.024 v 10.61333 h -0.56534 q -0.26666,0 -0.30933,-0.27733 l -0.096,-1.57867 q -0.736,0.91734 -1.70667,1.472 -0.96,0.55467 -2.144,0.55467 -0.88533,0 -1.54666,-0.27733 -0.66134,-0.27734 -1.09867,-0.8 -0.43733,-0.52267 -0.66133,-1.25867 -0.224,-0.736 -0.224,-1.664 v -6.784 z"/></g></svg>