<svg xmlns="http://www.w3.org/2000/svg" id="svg18" width="580" height="180" version="1.1" viewBox="0 0 580 180"><metadata id="metadata24"/><path id="path2" d="M 324.41,99.656 H 300 L 287.627,81.278 299.794,63.09 Z" style="fill:#ff8d4e"/><path id="path4" d="M 324.31,19.97 H 299.9 l -12.088,16.42 12.263,16.78 z" style="fill:#92929a"/><path id="path6" d="m 296.425,58.234 -27.97,-38.142 h -24.41 l 27.872,38.142 -27.97,41.544 h 24.41 z m -145.708,-8.83 32.468,-29.626 h 9.474 V 99.7 H 171.577 V 58.675 L 150.717,77.75 129.742,58.78 V 99.7 H 108.665 V 19.78 h 9.475 z m 57.34,-29.627 h 20.972 V 99.7 h -20.973 z" style="fill:#2c233d"/><path id="path8" d="m 339.91,19.777 h 20.97 V 99.7 h -20.97 z m 33.925,10e-4 h 62.832 v 20.86 H 415.51 V 99.7 H 394.566 V 40.638 h -20.73 z" style="fill:#ff8d4e"/><path style="font-weight:900;font-size:85px;font-family:Lato;letter-spacing:0;word-spacing:0;fill:#ff8a4b;stroke-width:.75" id="path10" d="m 75.27,78.58 -3.966,22.385 h -8.16 q -1.19,0 -2.266,-0.567 -1.02,-0.567 -1.757,-1.53 -0.68,-0.963 -0.962,-2.21 -0.284,-1.247 0,-2.663 l 2.72,-15.414 h -9.35 L 48.75,94.846 q -0.282,1.643 -1.076,2.833 -0.736,1.133 -1.813,1.87 -1.02,0.737 -2.322,1.077 -1.247,0.34 -2.607,0.34 h -7.82 L 37.08,78.58 h -4.99 q -2.662,0 -3.796,-1.53 -1.133,-1.585 -0.51,-5.325 l 0.907,-5.44 h 10.03 L 41.1,52.91 H 29.825 l 1.36,-7.14 q 0.51,-2.605 2.21,-3.852 1.757,-1.247 5.497,-1.247 h 3.854 L 45.69,24.07 q 0.51,-2.663 2.55,-4.137 2.098,-1.53 4.818,-1.53 h 8.046 l -3.966,22.27 h 9.406 L 70.51,18.4 h 7.82 q 1.36,0 2.438,0.455 1.133,0.453 1.87,1.246 0.793,0.738 1.133,1.815 0.34,1.02 0.114,2.266 l -2.946,16.49 H 91.93 l -1.36,7.14 q -0.51,2.665 -2.266,3.91 -1.7,1.19 -5.44,1.19 h -3.57 l -2.38,13.375 h 6.177 q 2.664,0 3.798,1.586 1.133,1.53 0.51,5.27 l -0.907,5.44 z M 53.115,66.286 h 9.407 L 64.9,52.91 h -9.406 z" font-size="85" font-weight="900" letter-spacing="0" word-spacing="0"/><g style="font-weight:900;font-size:80.5059967px;line-height:1.25;font-family:sans-serif;letter-spacing:0;word-spacing:0;fill:#2b233c;stroke-width:.83899999" id="g16" font-size="80.506" font-weight="900" letter-spacing="0" transform="translate(2)" word-spacing="0"><path style="font-family:Lato" id="path12" d="m 446.88,88.302 h 14.763 V 48.145 q 0,-2.95 0.158,-6.174 l -8.698,7.486 q -1.16,0.93 -2.32,1.148 -1.107,0.163 -2.11,0 -1,-0.22 -1.792,-0.71 -0.79,-0.547 -1.16,-1.093 L 440.554,41.7 464.491,20.884 h 13.497 v 67.42 h 12.653 v 12.238 h -43.76 z"/><path id="path14" d="m 526.975,101.414 q -6.116,0 -11.177,-1.694 -5.062,-1.693 -8.7,-4.753 -3.585,-3.114 -5.588,-7.485 -1.95,-4.37 -1.95,-9.725 0,-3.223 0.684,-6.064 0.738,-2.896 2.267,-5.245 1.583,-2.404 4.008,-4.262 2.478,-1.857 5.958,-3.114 -5.272,-2.46 -7.856,-6.83 -2.53,-4.37 -2.53,-10.49 0,-4.643 1.845,-8.577 1.845,-3.988 5.167,-6.884 3.32,-2.895 7.856,-4.534 4.587,-1.693 10.017,-1.693 5.43,0 9.965,1.693 4.587,1.64 7.908,4.535 3.322,2.897 5.167,6.885 1.845,3.934 1.845,8.578 0,6.12 -2.583,10.49 -2.584,4.37 -7.803,6.83 3.427,1.256 5.852,3.113 2.478,1.858 4.007,4.262 1.582,2.35 2.32,5.245 0.738,2.84 0.738,6.064 0,5.354 -2.002,9.725 -1.95,4.37 -5.59,7.485 -3.584,3.06 -8.646,4.753 -5.06,1.694 -11.177,1.694 z m 0,-12.785 q 2.742,0 4.745,-0.875 2.004,-0.874 3.27,-2.35 1.317,-1.53 1.897,-3.55 0.633,-2.076 0.633,-4.426 0,-2.57 -0.528,-4.7 -0.527,-2.13 -1.74,-3.605 -1.212,-1.53 -3.268,-2.35 -2.004,-0.874 -5.01,-0.874 -3.004,0 -5.06,0.875 -2.004,0.82 -3.217,2.35 -1.212,1.475 -1.74,3.606 -0.527,2.13 -0.527,4.7 0,2.35 0.58,4.425 0.633,2.02 1.898,3.55 1.318,1.476 3.27,2.35 2.003,0.874 4.797,0.874 z m 0,-35.623 q 2.742,0 4.48,-0.928 1.74,-0.93 2.743,-2.46 1.002,-1.53 1.37,-3.497 0.37,-1.966 0.37,-4.043 0,-1.857 -0.475,-3.605 -0.474,-1.75 -1.58,-3.06 -1.056,-1.366 -2.796,-2.185 -1.687,-0.82 -4.112,-0.82 -2.478,0 -4.165,0.82 -1.687,0.82 -2.794,2.185 -1.055,1.31 -1.53,3.06 -0.474,1.748 -0.474,3.605 0,2.077 0.37,4.043 0.368,1.967 1.37,3.497 1.002,1.53 2.742,2.46 1.74,0.927 4.48,0.927 z"/></g><g style="font-style:normal;font-weight:400;font-size:40px;line-height:1.25;font-family:sans-serif;letter-spacing:0;word-spacing:0;fill:#2b233c;fill-opacity:1;stroke:none" id="text28" aria-label="Official Partner"><path style="font-style:normal;font-variant:normal;font-weight:100;font-stretch:normal;font-size:53.33333206px;font-family:Lato;-inkscape-font-specification:'Lato Thin';fill:#2b233c;fill-opacity:1" id="path16" d="m 157.75843,133.29136 q 0,4.42666 -1.28,7.94666 -1.25334,3.52 -3.54667,6 -2.26667,2.45334 -5.44,3.78667 -3.17333,1.30667 -7.01333,1.30667 -3.81334,0 -6.98667,-1.30667 -3.14667,-1.33333 -5.44,-3.78667 -2.26667,-2.48 -3.54667,-6 -1.25333,-3.52 -1.25333,-7.94666 0,-4.4 1.25333,-7.92 1.28,-3.54667 3.54667,-6.02667 2.29333,-2.48 5.44,-3.81333 3.17333,-1.33334 6.98667,-1.33334 3.84,0 7.01333,1.33334 3.17333,1.30666 5.44,3.78666 2.29333,2.48 3.54667,6.02667 1.28,3.52 1.28,7.94667 z m -0.69334,0 q 0,-4.34667 -1.22666,-7.78667 -1.2,-3.44 -3.38667,-5.84 -2.18667,-2.4 -5.25333,-3.65333 -3.04,-1.28 -6.72,-1.28 -3.62667,0 -6.66667,1.28 -3.04,1.25333 -5.25333,3.65333 -2.18667,2.4 -3.44,5.84 -1.22667,3.44 -1.22667,7.78667 0,4.34666 1.22667,7.78666 1.25333,3.41334 3.44,5.81334 2.21333,2.37333 5.25333,3.65333 3.04,1.25333 6.66667,1.25333 3.68,0 6.72,-1.25333 3.06666,-1.28 5.25333,-3.65333 2.18667,-2.4 3.38667,-5.81334 1.22666,-3.44 1.22666,-7.78666 z"/><path style="font-style:normal;font-variant:normal;font-weight:100;font-stretch:normal;font-size:53.33333206px;font-family:Lato;-inkscape-font-specification:'Lato Thin';fill:#2b233c;fill-opacity:1" id="path18" d="m 167.76926,151.95802 v -24.48 l -4.37333,-0.10666 q -0.32,0 -0.32,-0.21334 v -0.21333 h 4.69333 v -3.73333 q 0,-2.24 0.53333,-3.86667 0.53334,-1.65333 1.46667,-2.72 0.93333,-1.06667 2.24,-1.57333 1.30667,-0.53334 2.88,-0.53334 0.77333,0 1.6,0.16 0.82667,0.13334 1.38667,0.42667 l -0.0533,0.21333 q -0.0533,0.18667 -0.21333,0.16 -0.16,-0.0267 -0.50667,-0.10666 -0.32,-0.10667 -0.88,-0.21334 -0.53333,-0.10666 -1.33333,-0.10666 -1.38667,0 -2.58667,0.45333 -1.17333,0.42667 -2.05333,1.41333 -0.85333,0.96 -1.36,2.53334 -0.48,1.54666 -0.48,3.76 v 3.73333 h 15.09333 v -2.93333 q 0,-2.42667 0.66667,-4.29334 0.69333,-1.89333 1.92,-3.14666 1.22666,-1.28 2.93333,-1.92 1.70667,-0.66667 3.76,-0.66667 0.77333,0 1.6,0.16 0.82667,0.13333 1.38667,0.42667 l -0.0533,0.21333 q -0.0533,0.16 -0.21333,0.13333 -0.13333,-0.0267 -0.48,-0.10666 -0.32,-0.08 -0.88,-0.18667 -0.53333,-0.10667 -1.36,-0.10667 -1.89333,0 -3.46667,0.58667 -1.57333,0.56 -2.74666,1.73333 -1.14667,1.17334 -1.78667,2.96 -0.64,1.78667 -0.64,4.21334 v 2.93333 h 14.88 v 25.01333 h -0.64 v -24.48 h -14.24 v 24.48 h -0.64 v -24.48 h -15.09333 v 24.48 z"/><path style="font-style:normal;font-variant:normal;font-weight:100;font-stretch:normal;font-size:53.33333206px;font-family:Lato;-inkscape-font-specification:'Lato Thin';fill:#2b233c;fill-opacity:1" id="path20" d="m 226.20593,128.27802 q -0.10667,0.10667 -0.21334,0.10667 -0.16,0 -0.61333,-0.37333 -0.42667,-0.4 -1.28,-0.85334 -0.82667,-0.45333 -2.10667,-0.82666 -1.25333,-0.4 -3.04,-0.4 -2.53333,0 -4.53333,0.90666 -2,0.90667 -3.38667,2.58667 -1.38666,1.68 -2.13333,4.08 -0.72,2.4 -0.72,5.38667 0,3.09333 0.72,5.49333 0.74667,2.37333 2.10667,4.02667 1.36,1.62666 3.25333,2.48 1.92,0.85333 4.26667,0.85333 2.08,0 3.52,-0.48 1.44,-0.48 2.37333,-1.06667 0.93333,-0.58666 1.41333,-1.06666 0.48,-0.48 0.64,-0.48 0.10667,0 0.21334,0.10666 l 0.10666,0.10667 q -0.4,0.58667 -1.17333,1.2 -0.77333,0.58667 -1.84,1.09333 -1.06667,0.48 -2.4,0.8 -1.33333,0.32 -2.85333,0.32 -2.53334,0 -4.56,-0.90666 -2.02667,-0.90667 -3.46667,-2.61334 -1.41333,-1.73333 -2.18667,-4.21333 -0.77333,-2.48 -0.77333,-5.65333 0,-3.04 0.77333,-5.52 0.77334,-2.50667 2.24,-4.26667 1.46667,-1.76 3.57334,-2.72 2.13333,-0.98667 4.82666,-0.98667 2.37334,0 4.21334,0.77334 1.86666,0.74666 3.2,1.94666 z"/><path style="font-style:normal;font-variant:normal;font-weight:100;font-stretch:normal;font-size:53.33333206px;font-family:Lato;-inkscape-font-specification:'Lato Thin';fill:#2b233c;fill-opacity:1" id="path22" d="m 235.04842,125.82469 v 26.13333 h -0.64 v -26.13333 z m 1.17333,-9.70667 q 0,0.56 -0.48,1.01334 -0.45333,0.42666 -1.01333,0.42666 -0.61333,0 -1.06667,-0.42666 -0.42666,-0.45334 -0.42666,-1.01334 0,-0.61333 0.42666,-1.04 0.45334,-0.45333 1.06667,-0.45333 0.56,0 1.01333,0.45333 0.48,0.42667 0.48,1.04 z"/><path style="font-style:normal;font-variant:normal;font-weight:100;font-stretch:normal;font-size:53.33333206px;font-family:Lato;-inkscape-font-specification:'Lato Thin';fill:#2b233c;fill-opacity:1" id="path24" d="m 260.80759,151.95802 q -0.37333,0 -0.37333,-0.42666 l -0.16,-4.24 q -1.12,1.17333 -2.24,2.13333 -1.12,0.93333 -2.37334,1.6 -1.25333,0.64 -2.69333,0.98667 -1.44,0.37333 -3.2,0.37333 -1.17333,0 -2.37333,-0.37333 -1.2,-0.34667 -2.16,-1.12 -0.96,-0.8 -1.57334,-2.02667 -0.61333,-1.25333 -0.61333,-3.04 0,-1.76 1.04,-3.14667 1.04,-1.41333 3.14667,-2.4 2.13333,-0.98666 5.36,-1.54666 3.25333,-0.58667 7.68,-0.69334 v -3.36 q 0,-2.05333 -0.45334,-3.68 -0.45333,-1.62666 -1.33333,-2.74666 -0.88,-1.12 -2.21333,-1.70667 -1.33334,-0.61333 -3.09334,-0.61333 -1.38666,0 -2.50666,0.29333 -1.12,0.29333 -2,0.72 -0.88,0.42667 -1.54667,0.93333 -0.64,0.50667 -1.12,0.93334 -0.48,0.42666 -0.77333,0.72 -0.29334,0.29333 -0.42667,0.29333 -0.10667,0 -0.26667,-0.16 l -0.10666,-0.10667 q 1.92,-2.02666 3.97333,-3.09333 2.05333,-1.06667 4.77333,-1.06667 2,0 3.44,0.64 1.46667,0.64 2.42667,1.84 0.96,1.2 1.41333,2.93334 0.45334,1.70666 0.45334,3.86666 v 17.28 z m -11.04,-0.10666 q 1.84,0 3.33333,-0.42667 1.49334,-0.42667 2.74667,-1.14667 1.25333,-0.72 2.32,-1.65333 1.09333,-0.96 2.10667,-2 v -8.05333 q -8.4,0.26666 -12.50667,2.10666 -4.08,1.81334 -4.08,5.14667 0,1.57333 0.50667,2.72 0.53333,1.12 1.38666,1.86667 0.85334,0.72 1.94667,1.09333 1.09333,0.34667 2.24,0.34667 z"/><path style="font-style:normal;font-variant:normal;font-weight:100;font-stretch:normal;font-size:53.33333206px;font-family:Lato;-inkscape-font-specification:'Lato Thin';fill:#2b233c;fill-opacity:1" id="path26" d="m 271.40259,113.55802 v 38.4 h -0.64 v -38.4 z"/><path style="font-style:normal;font-variant:normal;font-weight:100;font-stretch:normal;font-size:53.33333206px;font-family:Lato;-inkscape-font-specification:'Lato Thin';fill:#2b233c;fill-opacity:1" id="path28" d="m 298.71675,135.95802 v 16 h -0.64 v -37.33333 h 8.42667 q 6.10666,0 9.36,2.64 3.28,2.64 3.28,8.02667 0,2.32 -0.93334,4.29333 -0.90666,1.94667 -2.58666,3.36 -1.68,1.41333 -4,2.21333 -2.32,0.8 -5.12,0.8 z m 0,-0.53333 h 7.78667 q 2.74666,0 4.96,-0.77333 2.21333,-0.8 3.76,-2.16 1.57333,-1.38667 2.42666,-3.22667 0.85334,-1.84 0.85334,-3.97333 0,-4.98667 -3.01334,-7.54667 -2.98666,-2.58667 -8.98666,-2.58667 h -7.78667 z"/><path style="font-style:normal;font-variant:normal;font-weight:100;font-stretch:normal;font-size:53.33333206px;font-family:Lato;-inkscape-font-specification:'Lato Thin';fill:#2b233c;fill-opacity:1" id="path30" d="m 341.22425,151.95802 q -0.37333,0 -0.37333,-0.42666 l -0.16,-4.24 q -1.12,1.17333 -2.24,2.13333 -1.12,0.93333 -2.37333,1.6 -1.25334,0.64 -2.69334,0.98667 -1.44,0.37333 -3.2,0.37333 -1.17333,0 -2.37333,-0.37333 -1.2,-0.34667 -2.16,-1.12 -0.96,-0.8 -1.57333,-2.02667 -0.61333,-1.25333 -0.61333,-3.04 0,-1.76 1.03999,-3.14667 1.04,-1.41333 3.14667,-2.4 2.13333,-0.98666 5.36,-1.54666 3.25333,-0.58667 7.68,-0.69334 v -3.36 q 0,-2.05333 -0.45333,-3.68 -0.45334,-1.62666 -1.33334,-2.74666 -0.88,-1.12 -2.21333,-1.70667 -1.33333,-0.61333 -3.09333,-0.61333 -1.38667,0 -2.50667,0.29333 -1.12,0.29333 -2,0.72 -0.88,0.42667 -1.54667,0.93333 -0.64,0.50667 -1.12,0.93334 -0.48,0.42666 -0.77333,0.72 -0.29333,0.29333 -0.42667,0.29333 -0.10666,0 -0.26666,-0.16 l -0.10667,-0.10667 q 1.92,-2.02666 3.97333,-3.09333 2.05334,-1.06667 4.77334,-1.06667 2,0 3.44,0.64 1.46666,0.64 2.42666,1.84 0.96,1.2 1.41334,2.93334 0.45333,1.70666 0.45333,3.86666 v 17.28 z m -11.04,-0.10666 q 1.84,0 3.33334,-0.42667 1.49333,-0.42667 2.74666,-1.14667 1.25334,-0.72 2.32,-1.65333 1.09334,-0.96 2.10667,-2 v -8.05333 q -8.4,0.26666 -12.50667,2.10666 -4.08,1.81334 -4.08,5.14667 0,1.57333 0.50667,2.72 0.53333,1.12 1.38667,1.86667 0.85333,0.72 1.94666,1.09333 1.09334,0.34667 2.24,0.34667 z"/><path style="font-style:normal;font-variant:normal;font-weight:100;font-stretch:normal;font-size:53.33333206px;font-family:Lato;-inkscape-font-specification:'Lato Thin';fill:#2b233c;fill-opacity:1" id="path32" d="m 350.85925,151.95802 v -26.13333 h 0.16 q 0.37333,0 0.37333,0.42667 l 0.08,7.22666 q 0.56,-1.92 1.33334,-3.41333 0.8,-1.52 1.86666,-2.56 1.09334,-1.04 2.48,-1.57333 1.41334,-0.53334 3.2,-0.53334 0.77334,0 1.57334,0.13334 0.82666,0.10666 1.46666,0.45333 l -0.10666,0.21333 q -0.0533,0.08 -0.10667,0.16 -0.0267,0.0533 -0.16,0.0533 -0.13333,0 -0.34667,-0.0533 -0.21333,-0.08 -0.53333,-0.16 -0.29333,-0.08 -0.74667,-0.13333 -0.42666,-0.08 -1.04,-0.08 -1.76,0 -3.12,0.56 -1.36,0.56 -2.42666,1.65333 -1.06667,1.09334 -1.86667,2.74667 -0.8,1.65333 -1.44,3.84 v 17.17333 z"/><path style="font-style:normal;font-variant:normal;font-weight:100;font-stretch:normal;font-size:53.33333206px;font-family:Lato;-inkscape-font-specification:'Lato Thin';fill:#2b233c;fill-opacity:1" id="path34" d="m 375.56591,152.38469 q -2.29333,0 -3.6,-1.25333 -1.30667,-1.25334 -1.30667,-4.13334 v -19.52 h -4.32 q -0.37333,0 -0.37333,-0.26666 v -0.16 l 4.69333,-0.10667 0.21334,-10.50667 q 0,-0.13333 0.0533,-0.24 0.08,-0.13333 0.21333,-0.13333 h 0.16 v 10.88 h 8.90667 v 0.53333 h -8.90667 v 19.52 q 0,1.33334 0.32,2.26667 0.34667,0.90667 0.93334,1.49333 0.58666,0.56 1.36,0.82667 0.77333,0.26667 1.65333,0.26667 1.12,0 1.94667,-0.34667 0.85333,-0.34667 1.44,-0.74667 0.58666,-0.4 0.93333,-0.74666 0.37333,-0.34667 0.53333,-0.34667 0.10667,0 0.21334,0.10667 l 0.10666,0.10666 q -0.4,0.53334 -0.98666,1.01334 -0.56,0.45333 -1.25334,0.8 -0.66666,0.32 -1.44,0.50666 -0.74666,0.18667 -1.49333,0.18667 z"/><path style="font-style:normal;font-variant:normal;font-weight:100;font-stretch:normal;font-size:53.33333206px;font-family:Lato;-inkscape-font-specification:'Lato Thin';fill:#2b233c;fill-opacity:1" id="path36" d="m 386.69259,151.95802 v -26.13333 h 0.16 q 0.37334,0 0.37334,0.42667 l 0.08,5.04 q 0.90666,-1.33334 2.02666,-2.42667 1.14667,-1.09333 2.45334,-1.86667 1.30666,-0.77333 2.74666,-1.17333 1.44,-0.42667 2.98667,-0.42667 4.34667,0 6.48,2.58667 2.16,2.58667 2.16,7.22667 v 16.74666 h -0.64 v -16.74666 q 0,-2.18667 -0.48,-3.89334 -0.48,-1.73333 -1.49333,-2.93333 -0.98667,-1.2 -2.50667,-1.81333 -1.49333,-0.64 -3.52,-0.64 -3.06667,0 -5.65333,1.65333 -2.58667,1.62667 -4.53334,4.50667 v 19.86666 z"/><path style="font-style:normal;font-variant:normal;font-weight:100;font-stretch:normal;font-size:53.33333206px;font-family:Lato;-inkscape-font-specification:'Lato Thin';fill:#2b233c;fill-opacity:1" id="path38" d="m 425.41091,125.39802 q 2.05333,0 3.86666,0.74667 1.81334,0.72 3.14667,2.16 1.36,1.44 2.13333,3.54667 0.77334,2.08 0.77334,4.8 0,0.13333 -0.10667,0.21333 -0.08,0.0533 -0.21333,0.0533 h -20.32 q -0.0533,0.37334 -0.0533,0.72 0,0.34667 0,0.72 0,3.25334 0.77334,5.76 0.77333,2.48 2.18666,4.18667 1.44,1.68 3.44,2.56 2.02667,0.88 4.48,0.88 2.18667,0 3.78667,-0.48 1.6,-0.48 2.66667,-1.06667 1.06666,-0.58666 1.62666,-1.06666 0.56,-0.48 0.66667,-0.48 0.10667,0 0.21333,0.10666 l 0.10667,0.10667 q -0.45333,0.56 -1.36,1.17333 -0.88,0.58667 -2.10667,1.09334 -1.2,0.50666 -2.64,0.82666 -1.44,0.32 -2.96,0.32 -2.69333,0 -4.82666,-0.93333 -2.13334,-0.96 -3.62667,-2.74667 -1.46667,-1.78666 -2.26667,-4.37333 -0.8,-2.58667 -0.8,-5.86667 0,-2.88 0.77334,-5.25333 0.77333,-2.4 2.24,-4.10667 1.46666,-1.70666 3.57333,-2.64 2.13333,-0.96 4.82667,-0.96 z m 0,0.53334 q -2.34667,0 -4.24,0.77333 -1.86667,0.74667 -3.22667,2.13333 -1.36,1.36 -2.18667,3.30667 -0.8,1.94667 -1.04,4.29333 h 20.02667 q 0,-2.53333 -0.72,-4.48 -0.72,-1.97333 -2,-3.30666 -1.25333,-1.33334 -2.96,-2.02667 -1.70667,-0.69333 -3.65333,-0.69333 z"/><path style="font-style:normal;font-variant:normal;font-weight:100;font-stretch:normal;font-size:53.33333206px;font-family:Lato;-inkscape-font-specification:'Lato Thin';fill:#2b233c;fill-opacity:1" id="path40" d="m 443.15091,151.95802 v -26.13333 h 0.16 q 0.37333,0 0.37333,0.42667 l 0.08,7.22666 q 0.56,-1.92 1.33333,-3.41333 0.8,-1.52 1.86667,-2.56 1.09333,-1.04 2.48,-1.57333 1.41333,-0.53334 3.2,-0.53334 0.77333,0 1.57333,0.13334 0.82667,0.10666 1.46667,0.45333 l -0.10667,0.21333 q -0.0533,0.08 -0.10666,0.16 -0.0267,0.0533 -0.16,0.0533 -0.13334,0 -0.34667,-0.0533 -0.21333,-0.08 -0.53333,-0.16 -0.29334,-0.08 -0.74667,-0.13333 -0.42667,-0.08 -1.04,-0.08 -1.76,0 -3.12,0.56 -1.36,0.56 -2.42667,1.65333 -1.06666,1.09334 -1.86666,2.74667 -0.8,1.65333 -1.44,3.84 v 17.17333 z"/></g></svg>