<svg xmlns="http://www.w3.org/2000/svg" xmlns:svg="http://www.w3.org/2000/svg" id="svg18" width="580" height="170" version="1.1" viewBox="0 0 580 170"><metadata id="metadata24"/><path id="path2" d="M 322.41,149.656 H 298 l -12.373,-18.378 12.167,-18.188 z" style="fill:#ff8d4e"/><path id="path4" d="M 322.31,69.97 H 297.9 l -12.088,16.42 12.263,16.78 z" style="fill:#92929a"/><path id="path6" d="m 294.425,108.234 -27.97,-38.142 h -24.41 l 27.872,38.142 -27.97,41.544 h 24.41 z m -145.708,-8.83 32.468,-29.626 h 9.474 V 149.7 h -21.082 v -41.025 l -20.86,19.075 -20.975,-18.97 V 149.7 H 106.665 V 69.78 h 9.475 z m 57.34,-29.627 h 20.972 V 149.7 h -20.973 z" style="fill:#2b233c;fill-opacity:1"/><path id="path8" d="m 337.91,69.777 h 20.97 V 149.7 h -20.97 z m 33.925,0.001 h 62.832 v 20.86 H 413.51 V 149.7 H 392.566 V 90.638 h -20.73 z" style="fill:#ff8d4e"/><path style="font-weight:900;font-size:85px;font-family:Lato;letter-spacing:0;word-spacing:0;fill:#ff8a4b;stroke-width:.75" id="path10" d="m 73.27,128.58 -3.966,22.385 h -8.16 q -1.19,0 -2.266,-0.567 -1.02,-0.567 -1.757,-1.53 -0.68,-0.963 -0.962,-2.21 -0.284,-1.247 0,-2.663 l 2.72,-15.414 h -9.35 l -2.779,16.265 q -0.282,1.643 -1.076,2.833 -0.736,1.133 -1.813,1.87 -1.02,0.737 -2.322,1.077 -1.247,0.34 -2.607,0.34 h -7.82 L 35.08,128.58 h -4.99 q -2.662,0 -3.796,-1.53 -1.133,-1.585 -0.51,-5.325 l 0.907,-5.44 h 10.03 L 39.1,102.91 H 27.825 l 1.36,-7.14 q 0.51,-2.605 2.21,-3.852 1.757,-1.247 5.497,-1.247 h 3.854 L 43.69,74.07 q 0.51,-2.663 2.55,-4.137 2.098,-1.53 4.818,-1.53 h 8.046 l -3.966,22.27 h 9.406 L 68.51,68.4 h 7.82 q 1.36,0 2.438,0.455 1.133,0.453 1.87,1.246 0.793,0.738 1.133,1.815 0.34,1.02 0.114,2.266 l -2.946,16.49 H 89.93 l -1.36,7.14 q -0.51,2.665 -2.266,3.91 -1.7,1.19 -5.44,1.19 h -3.57 l -2.38,13.375 h 6.177 q 2.664,0 3.798,1.586 1.133,1.53 0.51,5.27 l -0.907,5.44 z M 51.115,116.286 h 9.407 L 62.9,102.91 h -9.406 z" font-size="85" font-weight="900" letter-spacing="0" word-spacing="0"/><g style="font-weight:900;font-size:80.5059967px;line-height:1.25;font-family:sans-serif;letter-spacing:0;word-spacing:0;fill:#2b233c;fill-opacity:1;stroke-width:.83899999" id="g16" font-size="80.506" font-weight="900" letter-spacing="0" transform="translate(0,50)" word-spacing="0"><g style="font-style:normal;font-weight:400;font-size:106.36946869px;line-height:1.25;font-family:sans-serif;letter-spacing:0;word-spacing:0;fill:#2b233c;fill-opacity:1;stroke:none;stroke-width:2.23109961" id="text4539" aria-label="19" transform="scale(0.98223549,1.0180858)"><path style="font-style:normal;font-variant:normal;font-weight:900;font-stretch:normal;font-family:Lato;-inkscape-font-specification:'Lato Heavy';fill:#2b233c;fill-opacity:1;stroke-width:2.23109961" id="path4541" d="m 459.8538,85.052997 h 14.89173 v -39.09078 q 0,-2.871976 0.15955,-6.009875 l -8.77548,7.286309 q -1.17006,0.90414 -2.34013,1.116879 -1.11688,0.159554 -2.12739,0 -1.01051,-0.212739 -1.80828,-0.691401 -0.79777,-0.531848 -1.17006,-1.063695 l -5.21211,-6.914016 24.14587,-20.263383 h 13.6153 v 65.629962 h 12.76433 v 11.91338 H 459.8538 Z"/><path style="font-style:normal;font-variant:normal;font-weight:900;font-stretch:normal;font-family:Lato;-inkscape-font-specification:'Lato Heavy';fill:#2b233c;fill-opacity:1;stroke-width:2.23109961" id="path4543" d="m 542.8303,67.608404 q 0.74458,-0.904141 1.3828,-1.701912 0.6914,-0.850955 1.32962,-1.701911 -2.39331,1.276434 -5.2121,1.91465 -2.8188,0.638217 -5.90351,0.638217 -3.77612,0 -7.55223,-1.329618 -3.77612,-1.382803 -6.86083,-4.148409 -3.03153,-2.765607 -4.94618,-6.967201 -1.91465,-4.201594 -1.91465,-9.945545 0,-5.265289 1.91465,-9.945545 1.96783,-4.680257 5.53121,-8.190449 3.61656,-3.510193 8.61593,-5.531213 4.99936,-2.074204 11.16879,-2.074204 6.2758,0 11.22198,1.91465 4.94618,1.91465 8.35,5.371658 3.45701,3.457008 5.26529,8.243634 1.86147,4.733441 1.86147,10.477393 0,7.605417 -2.28695,13.615292 -2.28694,6.009875 -6.11624,11.328348 l -16.70001,23.720392 q -1.11688,1.542357 -3.40382,2.606052 -2.23376,1.063694 -5.10574,1.063694 h -15.21083 z m 8.50956,-24.464978 q 0,-2.818791 -0.85096,-4.94618 -0.79777,-2.180574 -2.28694,-3.616562 -1.43599,-1.435988 -3.5102,-2.180574 -2.0742,-0.744587 -4.5207,-0.744587 -2.49968,0 -4.46752,0.904141 -1.91465,0.850956 -3.29745,2.393313 -1.32962,1.542357 -2.0742,3.669747 -0.69141,2.074204 -0.69141,4.520702 0,11.594272 10.74332,11.594272 5.26529,0 8.08408,-3.137899 2.87198,-3.191084 2.87198,-8.456373 z"/></g></g><text style="font-style:normal;font-weight:400;font-size:40px;line-height:1.25;font-family:sans-serif;letter-spacing:0;word-spacing:0;fill:#000;fill-opacity:1;stroke:none" id="text822" x="141.608" y="49.672" xml:space="preserve"><tspan id="tspan820" x="141.608" y="49.672" style="font-style:normal;font-variant:normal;font-weight:400;font-stretch:normal;font-family:Lato;-inkscape-font-specification:Lato;fill:#141414;fill-opacity:1">Official Partner</tspan></text></svg>