<svg xmlns="http://www.w3.org/2000/svg" viewBox="0 0 210 70"><path fill="#ddd" stroke="#000" stroke-width=".2" d="M9.4 15.1l.7.1v-2.7l2.4-.1.3-.8H21l.2.8 5.3.1.3-.8 7.7-.1.3.7v.2h5.2l.2-.9H48l.3.8h5.3l.2-.8h7.8l.1.8h5.6l.1-.8h7.8l.4.9 5-.2.4-.7h8l.6.7h4.6l.6-1 7.5-.3.6 1.5h4.9l.5-1 7.7-.3.5 1.2h4.7l.6-1.3h7.8l.5 1.3h5.1l.4-1.2 7.4-.2.5 1.4 5.2.1.6-1.2h7.4l.6 1.3 5-.1.6-1.3 7.2.1.7 1.2h5.2l.5-1.2h7.3l.7 1.3h2.3l-.2 21.1h3v-2h17.7v-.9h-17.7L189.4 9h19.1l-1-1.4.8-1h-21.1v3.2H9.9V6.6H2l.9 1.2-1 1.3h5.7l.1 6.2h2.6"/><g stroke="#000" stroke-width=".5"><path fill="#e5ecf9" d="M-148.7 427.2h23.6l-.2 6.4-23.1-.2-.3-6.2" transform="matrix(.33157 0 0 .32854 62.2 -130.8)"/><path fill="none" d="M-148.4 430.8l11.3-.1-.1 1h-11.1M-125.4 431.6l-11.3.1v-1h11.2" transform="matrix(.33157 0 0 .32854 62.2 -130.8)"/></g><g stroke="#000" stroke-width=".5"><path fill="#e5ecf9" d="M-148.7 427.2h23.6l-.2 6.4-23.1-.2-.3-6.2" transform="matrix(.33157 0 0 .32854 75.9 -130.8)"/><path fill="none" d="M-148.4 430.8l11.3-.1-.1 1h-11.1M-125.4 431.6l-11.3.1v-1h11.2" transform="matrix(.33157 0 0 .32854 75.9 -130.8)"/></g><g stroke="#000" stroke-width=".5"><path fill="#e5ecf9" d="M-148.7 427.2h23.6l-.2 6.4-23.1-.2-.3-6.2" transform="matrix(.33157 0 0 .32854 89.5 -130.8)"/><path fill="none" d="M-148.4 430.8l11.3-.1-.1 1h-11.1M-125.4 431.6l-11.3.1v-1h11.2" transform="matrix(.33157 0 0 .32854 89.5 -130.8)"/></g><g stroke="#000" stroke-width=".5"><path fill="#e5ecf9" d="M-148.7 427.2h23.6l-.2 6.4-23.1-.2-.3-6.2" transform="matrix(.33157 0 0 .32854 103.1 -130.9)"/><path fill="none" d="M-148.4 430.8l11.3-.1-.1 1h-11.1M-125.4 431.6l-11.3.1v-1h11.2" transform="matrix(.33157 0 0 .32854 103.1 -130.9)"/></g><g stroke="#000" stroke-width=".5"><path fill="#e5ecf9" d="M-148.7 427.2h23.6l-.2 6.4-23.1-.2-.3-6.2" transform="matrix(.33157 0 0 .32854 116.8 -130.9)"/><path fill="none" d="M-148.4 430.8l11.3-.1-.1 1h-11.1M-125.4 431.6l-11.3.1v-1h11.2" transform="matrix(.33157 0 0 .32854 116.8 -130.9)"/></g><g stroke="#000" stroke-width=".5"><path fill="#e5ecf9" d="M-148.7 427.2h23.6l-.2 6.4-23.1-.2-.3-6.2" transform="matrix(.33157 0 0 .32854 130.2 -130.8)"/><path fill="none" d="M-148.4 430.8l11.3-.1-.1 1h-11.1M-125.4 431.6l-11.3.1v-1h11.2" transform="matrix(.33157 0 0 .32854 130.2 -130.8)"/></g><g stroke="#000" stroke-width=".5"><path fill="#e5ecf9" d="M-148.7 427.2h23.6l-.2 6.4-23.1-.2-.3-6.2" transform="matrix(.33157 0 0 .32854 143.9 -130.8)"/><path fill="none" d="M-148.4 430.8l11.3-.1-.1 1h-11.1M-125.4 431.6l-11.3.1v-1h11.2" transform="matrix(.33157 0 0 .32854 143.9 -130.8)"/></g><g stroke="#000" stroke-width=".5"><path fill="#e5ecf9" d="M-148.7 427.2h23.6l-.2 6.4-23.1-.2-.3-6.2" transform="matrix(.33157 0 0 .32854 157.6 -130.6)"/><path fill="none" d="M-148.4 430.8l11.3-.1-.1 1h-11.1M-125.4 431.6l-11.3.1v-1h11.2" transform="matrix(.33157 0 0 .32854 157.6 -130.6)"/></g><g stroke="#000" stroke-width=".5"><path fill="#e5ecf9" d="M-148.7 427.2h23.6l-.2 6.4-23.1-.2-.3-6.2" transform="matrix(.33157 0 0 .32854 171 -130.7)"/><path fill="none" d="M-148.4 430.8l11.3-.1-.1 1h-11.1M-125.4 431.6l-11.3.1v-1h11.2" transform="matrix(.33157 0 0 .32854 171 -130.7)"/></g><g stroke="#000" stroke-width=".5"><path fill="#e5ecf9" d="M-148.7 427.2h23.6l-.2 6.4-23.1-.2-.3-6.2" transform="matrix(.33157 0 0 .32854 184.6 -130.8)"/><path fill="none" d="M-148.4 430.8l11.3-.1-.1 1h-11.1M-125.4 431.6l-11.3.1v-1h11.2" transform="matrix(.33157 0 0 .32854 184.6 -130.8)"/></g><g stroke="#000" stroke-width=".5"><path fill="#e5ecf9" d="M-148.7 427.2h23.6l-.2 6.4-23.1-.2-.3-6.2" transform="matrix(.33157 0 0 .32854 225.6 -130.7)"/><path fill="none" d="M-148.4 430.8l11.3-.1-.1 1h-11.1M-125.4 431.6l-11.3.1v-1h11.2" transform="matrix(.33157 0 0 .32854 225.6 -130.7)"/></g><g stroke="#000" stroke-width=".5"><path fill="#e5ecf9" d="M-148.7 427.2h23.6l-.2 6.4-23.1-.2-.3-6.2" transform="matrix(.33157 0 0 .32854 211.9 -130.8)"/><path fill="none" d="M-148.4 430.8l11.3-.1-.1 1h-11.1M-125.4 431.6l-11.3.1v-1h11.2" transform="matrix(.33157 0 0 .32854 211.9 -130.8)"/></g><g stroke="#000" stroke-width=".5"><path fill="#e5ecf9" d="M-148.7 427.2h23.6l-.2 6.4-23.1-.2-.3-6.2" transform="matrix(.33157 0 0 .32854 198.2 -130.7)"/><path fill="none" d="M-148.4 430.8l11.3-.1-.1 1h-11.1M-125.4 431.6l-11.3.1v-1h11.2" transform="matrix(.33157 0 0 .32854 198.2 -130.7)"/></g><path fill="#ddd" stroke="#000" stroke-width=".2" d="M7.5 33.6h2.7L10 18.8H7.5zM7.4 39.8H10v13H7.4zM24.6 31.3a1 .8 0 0 1-1 .8 1 .8 0 0 1-.8-.8 1 .8 0 0 1 .9-.9 1 .8 0 0 1 .9.9zM24.5 42a1 .8 0 0 1-.9.9 1 .8 0 0 1-.9-.9 1 .8 0 0 1 1-.8 1 .8 0 0 1 .8.8zM38.2 31.3a1 .8 0 0 1-.9.8 1 .8 0 0 1-.9-.8 1 .8 0 0 1 1-.9 1 .8 0 0 1 .8.9zM38.2 42a1 .8 0 0 1-1 .9 1 .8 0 0 1-.8-.9 1 .8 0 0 1 .9-.8 1 .8 0 0 1 .9.8zM51.9 31.2a1 .8 0 0 1-1 .9 1 .8 0 0 1-.8-.9 1 .8 0 0 1 .9-.8 1 .8 0 0 1 .9.8zM51.8 42a1 .8 0 0 1-1 .9 1 .8 0 0 1-.8-.9 1 .8 0 0 1 .9-.8 1 .8 0 0 1 .9.8zM65.4 31.2a1 .8 0 0 1-.9.9 1 .8 0 0 1-.9-.9 1 .8 0 0 1 1-.8 1 .8 0 0 1 .8.8zM65.4 42a1 .8 0 0 1-1 .9 1 .8 0 0 1-.8-.9 1 .8 0 0 1 .9-.8 1 .8 0 0 1 .9.8zM79 31.3a1 .8 0 0 1-.8.8 1 .8 0 0 1-1-.8 1 .8 0 0 1 1-.9 1 .8 0 0 1 .9.9zM92.6 31.3a1 .8 0 0 1-.9.8 1 .8 0 0 1-.9-.8 1 .8 0 0 1 1-.9 1 .8 0 0 1 .8.9zM79 42a1 .8 0 0 1-1 .8 1 .8 0 0 1-.8-.8 1 .8 0 0 1 .9-.9 1 .8 0 0 1 .9.9zM92.6 42a1 .8 0 0 1-1 1 1 .8 0 0 1-.8-1 1 .8 0 0 1 .9-.8 1 .8 0 0 1 .9.9zM106.2 42a1 .8 0 0 1-1 .8 1 .8 0 0 1-.8-.8 1 .8 0 0 1 .9-.8 1 .8 0 0 1 .9.8zM106.3 31.2a1 .8 0 0 1-1 .8 1 .8 0 0 1-.8-.8 1 .8 0 0 1 .9-.8 1 .8 0 0 1 .9.8zM119.8 31.3a1 .8 0 0 1-.9.8 1 .8 0 0 1-.9-.8 1 .8 0 0 1 1-.8 1 .8 0 0 1 .8.8zM119.8 42a1 .8 0 0 1-1 .8 1 .8 0 0 1-.8-.8 1 .8 0 0 1 .9-.8 1 .8 0 0 1 .9.8zM133.4 31.3a1 .8 0 0 1-.9.8 1 .8 0 0 1-.9-.8 1 .8 0 0 1 1-.9 1 .8 0 0 1 .8.9zM133.4 42a1 .8 0 0 1-.9.8 1 .8 0 0 1-.9-.8 1 .8 0 0 1 1-.8 1 .8 0 0 1 .8.8zM147 31.3a1 .8 0 0 1-1 .9 1 .8 0 0 1-.9-.9 1 .8 0 0 1 1-.8 1 .8 0 0 1 .9.8zM147 42.1a1 .8 0 0 1-.9.8 1 .8 0 0 1-.9-.8 1 .8 0 0 1 1-.8 1 .8 0 0 1 .8.8zM160.6 31.2a1 .8 0 0 1-1 .9 1 .8 0 0 1-.8-.9 1 .8 0 0 1 .9-.8 1 .8 0 0 1 .9.8zM174.3 31.2a1 .8 0 0 1-.9.9 1 .8 0 0 1-1-.9 1 .8 0 0 1 1-.8 1 .8 0 0 1 1 .8zM160.6 42a1 .8 0 0 1-.9.9 1 .8 0 0 1-.9-.9 1 .8 0 0 1 1-.8 1 .8 0 0 1 .8.8zM174.2 42.1a1 .8 0 0 1-.9.9 1 .8 0 0 1-1-.9 1 .8 0 0 1 1-.8 1 .8 0 0 1 1 .8zM76.4 43.1h-.7V62l6-.2V43.1H76.9z"/><path fill="#ddd" stroke="#000" stroke-width=".2" d="M187.2 40l-.3 18.2V61l-2.4.1-.4.8h-8l-.3-.8-5.2-.1-.3.7-7.7.2-.3-.7V61H157l-.1.9-7.9-.1-.3-.7h-5.4l-.1.8h-7.8l-.2-.8h-5.5l-.1.7h-7.9l-.3-.8-5 .2-.5.7-7.9-.1-.6-.7h-4.6l-.6 1.1-7.5.3L94 61h-4.9l-.5 1-7.7.3-.5-1.2h-4.8l-.5 1.3h-7.8l-.5-1.3h-5.2l-.3 1.2-7.4.2-.5-1.4-5.3-.1-.5 1.1-7.4.1-.6-1.3h-5.1l-.5 1.4-7.2-.2-.7-1.1H21l-.5 1.2H13l-.6-1.3h-2.3l.1-21.2H7.5v24.8h-5l.7 1.3-.8 1 7.4.1v-3.3H187v3.3h21.4l-1.7-1.4 1.6-1h-19V40.8h18.1l-.9-.3.7-.6-20.1.1"/><g stroke="#000" stroke-width=".5"><path fill="#e5ecf9" d="M-148.7 427.2h23.6l-.2 6.4-23.1-.2-.3-6.2" transform="matrix(-.33157 0 0 -.32854 134.8 204.3)"/><path fill="none" d="M-148.4 430.8l11.3-.1-.1 1h-11.1M-125.4 431.6l-11.3.1v-1h11.2" transform="matrix(-.33157 0 0 -.32854 134.8 204.3)"/></g><g stroke="#000" stroke-width=".5"><path fill="#e5ecf9" d="M-148.7 427.2h23.6l-.2 6.4-23.1-.2-.3-6.2" transform="matrix(-.33157 0 0 -.32854 121.1 204.3)"/><path fill="none" d="M-148.4 430.8l11.3-.1-.1 1h-11.1M-125.4 431.6l-11.3.1v-1h11.2" transform="matrix(-.33157 0 0 -.32854 121.1 204.3)"/></g><g stroke="#000" stroke-width=".5"><path fill="#e5ecf9" d="M-148.7 427.2h23.6l-.2 6.4-23.1-.2-.3-6.2" transform="matrix(-.33157 0 0 -.32854 107.5 204.2)"/><path fill="none" d="M-148.4 430.8l11.3-.1-.1 1h-11.1M-125.4 431.6l-11.3.1v-1h11.2" transform="matrix(-.33157 0 0 -.32854 107.5 204.2)"/></g><g stroke="#000" stroke-width=".5"><path fill="#e5ecf9" d="M-148.7 427.2h23.6l-.2 6.4-23.1-.2-.3-6.2" transform="matrix(-.33157 0 0 -.32854 93.8 204.4)"/><path fill="none" d="M-148.4 430.8l11.3-.1-.1 1h-11.1M-125.4 431.6l-11.3.1v-1h11.2" transform="matrix(-.33157 0 0 -.32854 93.8 204.4)"/></g><g stroke="#000" stroke-width=".5"><path fill="#e5ecf9" d="M-148.7 427.2h23.6l-.2 6.4-23.1-.2-.3-6.2" transform="matrix(-.33157 0 0 -.32854 80.2 204.3)"/><path fill="none" d="M-148.4 430.8l11.3-.1-.1 1h-11.1M-125.4 431.6l-11.3.1v-1h11.2" transform="matrix(-.33157 0 0 -.32854 80.2 204.3)"/></g><g stroke="#000" stroke-width=".5"><path fill="#e5ecf9" d="M-148.7 427.2h23.6l-.2 6.4-23.1-.2-.3-6.2" transform="matrix(-.33157 0 0 -.32854 66.7 204.3)"/><path fill="none" d="M-148.4 430.8l11.3-.1-.1 1h-11.1M-125.4 431.6l-11.3.1v-1h11.2" transform="matrix(-.33157 0 0 -.32854 66.7 204.3)"/></g><g stroke="#000" stroke-width=".5"><path fill="#e5ecf9" d="M-148.7 427.2h23.6l-.2 6.4-23.1-.2-.3-6.2" transform="matrix(-.33157 0 0 -.32854 53.1 204.3)"/><path fill="none" d="M-148.4 430.8l11.3-.1-.1 1h-11.1M-125.4 431.6l-11.3.1v-1h11.2" transform="matrix(-.33157 0 0 -.32854 53.1 204.3)"/></g><g stroke="#000" stroke-width=".5"><path fill="#e5ecf9" d="M-148.7 427.2h23.6l-.2 6.4-23.1-.2-.3-6.2" transform="matrix(-.33157 0 0 -.32854 39.4 204)"/><path fill="none" d="M-148.4 430.8l11.3-.1-.1 1h-11.1M-125.4 431.6l-11.3.1v-1h11.2" transform="matrix(-.33157 0 0 -.32854 39.4 204)"/></g><g stroke="#000" stroke-width=".5"><path fill="#e5ecf9" d="M-148.7 427.2h23.6l-.2 6.4-23.1-.2-.3-6.2" transform="matrix(-.33157 0 0 -.32854 26 204.2)"/><path fill="none" d="M-148.4 430.8l11.3-.1-.1 1h-11.1M-125.4 431.6l-11.3.1v-1h11.2" transform="matrix(-.33157 0 0 -.32854 26 204.2)"/></g><g stroke="#000" stroke-width=".5"><path fill="#e5ecf9" d="M-148.7 427.2h23.6l-.2 6.4-23.1-.2-.3-6.2" transform="matrix(-.33157 0 0 -.32854 12.4 204.3)"/><path fill="none" d="M-148.4 430.8l11.3-.1-.1 1h-11.1M-125.4 431.6l-11.3.1v-1h11.2" transform="matrix(-.33157 0 0 -.32854 12.4 204.3)"/></g><g stroke="#000" stroke-width=".5"><path fill="#e5ecf9" d="M-148.7 427.2h23.6l-.2 6.4-23.1-.2-.3-6.2" transform="matrix(-.33157 0 0 -.32854 -28.6 204.2)"/><path fill="none" d="M-148.4 430.8l11.3-.1-.1 1h-11.1M-125.4 431.6l-11.3.1v-1h11.2" transform="matrix(-.33157 0 0 -.32854 -28.6 204.2)"/></g><g stroke="#000" stroke-width=".5"><path fill="#e5ecf9" d="M-148.7 427.2h23.6l-.2 6.4-23.1-.2-.3-6.2" transform="matrix(-.33157 0 0 -.32854 -15 204.3)"/><path fill="none" d="M-148.4 430.8l11.3-.1-.1 1h-11.1M-125.4 431.6l-11.3.1v-1h11.2" transform="matrix(-.33157 0 0 -.32854 -15 204.3)"/></g><g stroke="#000" stroke-width=".5"><path fill="#e5ecf9" d="M-148.7 427.2h23.6l-.2 6.4-23.1-.2-.3-6.2" transform="matrix(-.33157 0 0 -.32854 -1.3 204.2)"/><path fill="none" d="M-148.4 430.8l11.3-.1-.1 1h-11.1M-125.4 431.6l-11.3.1v-1h11.2" transform="matrix(-.33157 0 0 -.32854 -1.3 204.2)"/></g><path fill="#ddd" stroke="#000" stroke-width=".2" d="M174.7 12.7h10.9v10.7h-10.9zM161 12.7h10.8v10.7H161zM147.6 12.5h10.9v10.8h-10.9zM133.8 12.6h10.8v10.7h-10.8zM120.2 12.5H131v10.8h-10.8zM10.4 12.4h10.8V23H10.4zM10.4 50h10.8v10.7H10.4zM24.3 50H35v10.8H24.3zM38 49.9H49v10.7H38zM51.6 49.9h10.8v10.7H51.6zM24.5 12.5h10.8v10.7H24.5zM38.5 12.5h10.9v10.7H38.5zM53.3 12.4H64v10.7H53.3zM174.2 50.2H185V61h-10.8zM160.6 50.3h10.8V61h-10.8z"/><path fill="#aeaeae" d="M1.7 9.1h5.7v55.3H1.7z"/><path fill="#ff7f2a" stroke="#000" stroke-width=".1" d="M208.6 35.2l-13.5-.2v-2.6l-2.9 3.7 2.9 2.8v-2l13.5.1"/><path fill="#ddd" stroke="#000" stroke-width=".2" d="M121.2 43.8v-.6H88l.2 8H92v-3l26.4-.2v13h2.9l-.2-16.4V44z"/><path d="M103.5 48.3h8.8v.2h-8.8zM99.5 54.3h12.8v.2H99.5zM99.5 54.9h12.8v.2H99.5zM99.5 60.7h12.8v.2H99.5z"/><path fill="none" stroke="#000" stroke-width=".1" d="M99.8 55v5.8h1V55h1v5.8h1V55h1v6h1v-6h1v5.8h1.1V55h1v6l1-.1v-6h1v6h1v-6l1.1.1v5.8M112 48.4v6h-1v-6h-1v6H109v-6h-1v6h-1v-6h-1v6h-1v-6h-1.1v6"/><path d="M189.7 55v-8.7h.3V55zM195.8 59V46.3h.2V59zM196.4 59V46.3h.2V59zM202.2 59V46.3h.3V59z"/><path fill="none" stroke="#000" stroke-width=".3" d="M321.2 704.3v17.6h3v-17.6h3V722h3.1v-17.6h3v17.9h3l.2-18.3 2.7.2.2 17.8 3.3.2-.2-18h3.1l.2 18.1 3-.1v-18h3v18l3-.1v-17.9h3.2L358 722M358 684.2v18.2h-3.3l.2-18.2h-3v18.3h-3.3l.1-18.4h-3v18.3h-3.2l.1-18.3h-3.2v18.4l-3-.2v-18.1h-3.2l.1 18.3" transform="matrix(0 -.32854 .33157 0 -37 164.2)"/><g style="line-height:1.25;-inkscape-font-specification:'Eurostile Extended'" stroke-width=".1" aria-label="Vestiaire" font-family="Lato" font-size="3.3" font-weight="900" letter-spacing="0" word-spacing="0"><path d="M193.4 16.7H194v.1l.5 1.3v.2l.1.2v-.2l.1-.2.5-1.3.2-.1h.4l-1 2.3h-.5zM196.4 17.3h.3l.3.2.1.3v.5h-1l.1.3.3.1h.2l.1-.1h.2l.2.2-.2.1-.2.1h-.2-.5q-.2 0-.3-.2l-.2-.2v-.4-.3q0-.2.2-.3l.3-.2h.3zm0 .4h-.2l-.1.3h.6V18v-.1h-.1l-.2-.1zM198.5 17.7h-.2-.1-.2-.1v.2l.2.1h.1l.2.1.1.1v.1l.1.2v.2l-.2.2-.2.1h-.3-.2H197.4l-.1-.1.1-.2h.7v-.1-.1h-.2l-.1-.1-.2-.1h-.1l-.1-.2v-.2-.2l.1-.2.2-.1H198.5l.1.2zM198.8 19zm2-1.6V19h-.6v-1.3h-.7v.9H199.8l.2.3-.3.1H199.1v-.2l-.1-.2v-.9h-.2v-.3h.2l.1-.4.1-.1h.3v.5zm0-.5v.1l-.1.1h-.1l-.1.1h-.1-.1l-.1-.2V17v-.1-.1h.5v.2zM202.2 19h-.1v-.1h-.2l-.1.1h-.2-.5l-.1-.2v-.2-.2l.2-.1.3-.2h.5V18l-.1-.2h-.2-.1-.1-.1-.1-.1l-.2-.2.4-.2h.7l.2.1.1.2V19zm-.6-.3h.2l.2-.1v-.2h-.5V18.7h.1zM203.3 17.4V19h-.5v-1.6zm0-.5v.2h-.1l-.2.1h-.2V17v-.2-.1h.5v.2zM203.6 19v-1.6h.5v.2l.2-.2h.4v.4h-.1H204.2l-.1.2v1zM205.6 17.3h.3l.3.2.1.3v.5h-1l.1.3.3.1h.2l.1-.1h.2l.2.2-.2.1-.2.1h-.2-.5q-.2 0-.3-.2l-.2-.2v-.4-.3q0-.2.2-.3l.3-.2h.3zm0 .4h-.2l-.1.3h.6V18v-.1h-.1l-.2-.1z" style="-inkscape-font-specification:'Lato Heavy'"/></g><g style="line-height:1.25;-inkscape-font-specification:'Eurostile Extended'" stroke-width=".1" aria-label="Accès" font-family="Lato" font-size="3.3" font-weight="900" letter-spacing="0" word-spacing="0"><path d="M202 34.6h-.4-.1l-.1-.1-.1-.4h-1v.4h-.2v.1h-.5l1-2.4h.5zm-1.5-1h.6l-.2-.6V33l-.1-.2v.2l-.1.1zM203.3 33.3h-.1-.5l-.1.2v.6q.1.2.3.2h.1l.1-.1h.2l.2.1-.2.2h-.2l-.1.1h-.5q-.2 0-.3-.2l-.1-.3v-.3-.4l.1-.3.3-.1.4-.1h.3l.3.2zM205 33.3h-.1-.2-.1H204.3h-.1v.2l-.1.3v.3l.3.2h.2v-.1H205l.2.1-.2.2h-.2l-.2.1h-.4q-.2 0-.3-.2l-.2-.3v-.3-.4l.2-.3.3-.1.3-.1h.4l.2.2zM205.1 34.6zm.9-1.7h.3l.2.2.2.2v.5h-1v.4h.8l.2.1-.2.2h-.1l-.2.1h-.5q-.2 0-.3-.2l-.2-.3v-.4-.3q0-.2.2-.3l.2-.1.4-.1zm0 .3l-.3.1v.3h.6v-.2l-.2-.1h-.1zm-.1-1l.1.1.3.4h-.3-.1-.1l-.4-.5zM208 33.3H207.7 207.4v.2H207.7v.1h.2l.2.2v.5l-.1.2h-.2l-.3.1h-.2-.2l-.1-.1h-.1v-.3h.8V34l-.1-.1H207.3l-.1-.2h-.2v-.2-.2-.2-.2h.3l.3-.1H207.9l.2.1v.1z" style="-inkscape-font-specification:'Lato Heavy'"/></g><g style="line-height:1.25;-inkscape-font-specification:'Eurostile Extended'" stroke-width=".1" aria-label="principal" font-family="Lato" font-size="3.3" font-weight="900" letter-spacing="0" word-spacing="0"><path d="M197.3 39.9v-2.3h.3l.2.1v.1l.2-.1H198.6l.2.1v.3l.1.4v.3q0 .2-.2.3l-.2.2h-.7v.6zm.8-2v.1h-.1-.1V39h.4v-.2l.1-.2v-.3-.1h-.1l-.2-.1zM199.2 39.3v-1.7h.4V38l.2-.2h.5v.3h-.2-.1l-.2.1-.1.2v1zM201 37.6v1.7h-.5v-1.7zm0-.4v.2h-.2-.1-.1-.1v-.1l-.1-.1V37 37h.2l.1-.1h.2v.2h.1zM201.3 39.3v-1.7h.3l.2.1v.1l.2-.1h.5l.2.1.1.2v1.3h-.5v-1-.2l-.2-.1h-.1l-.2.1v1.2zM204.4 38v.1h-.1-.1l-.1-.1H203.8l-.1.1v.7q.1.2.3.2h.2v-.1h.2l.2.2-.2.1h-.2l-.1.1h-.5q-.2 0-.3-.2l-.1-.3-.1-.3V38l.2-.2q.1-.2.3-.2h.7l.3.2zM205.3 37.6v1.7h-.5v-1.7zm0-.4v.2h-.5v-.1-.1-.1-.1h.1l.1-.1h.2l.1.2zM205.7 39.9v-2.3h.3v.1l.1.1h.1l.2-.1h.5l.2.1.1.3v.7l-.1.3-.3.2h-.3-.2-.1v.6zm.8-2l-.1.1h-.1l-.1.2v.7h.4l.1-.2v-.2-.3-.1h-.1l-.1-.1zM208.7 39.3h-.1-.1V39l-.2.1-.2.1h-.2-.2-.1l-.1-.2v-.2-.2l.1-.2.3-.1h.5v-.1-.2l-.2-.1h-.2l-.2.1h-.2l-.1-.2q.1-.2.3-.2h.7l.2.1.2.2v1.3zm-.6-.3h.2l.1-.1v-.3h-.2l-.2.1-.1.2.2.1zM209.7 36.9v2.4h-.5V37z" style="-inkscape-font-specification:'Lato Heavy'"/></g><g style="line-height:1.25;-inkscape-font-specification:'Eurostile Extended'" stroke-width=".1" aria-label="Sortie" font-family="Lato" font-size="3.3" font-weight="900" letter-spacing="0" word-spacing="0"><path d="M86.6 52.6h-.1-.1-.1-.1-.4v.4h.4l.2.2h.2l.1.3v.5l-.1.3-.3.1h-.4H85.3l-.2-.2.2-.3H85.7l.1.1h.5v-.2-.2h-.1l-.2-.1h-.2l-.2-.1-.1-.2-.2-.1v-.3-.3l.2-.2.3-.2h.7l.2.1.1.1zM87.8 52.8h.4l.3.2.1.3v.7l-.1.3-.3.1h-.7l-.3-.1-.2-.3v-.4-.3q0-.2.2-.3l.3-.2h.3zm0 1.3l.3-.1v-.4-.3q-.1-.2-.3-.2-.2 0-.2.2l-.1.3v.4l.3.1zM89 54.5v-1.7H89.2v.1l.1.1.2-.2h.4v.4h-.1H89.5l-.1.2v1zM90 54.5zm2-1.7v1.7h-.5V53h-.7v.9l.1.1h.2l.2.2-.2.2h-.5l-.2-.1v-.2l-.1-.2v-.9h-.1-.1v-.3h.2l.1-.4.1-.1h.3v.5zm.1-.5v.2h-.2l-.1.1h-.1-.1v-.2h-.1v-.2l.2-.1H92v.1l.1.1zM93.1 52.8h.3q.2 0 .3.2l.1.2.1.3v.2h-1.1l.1.3.3.1h.2l.2-.1h.1l.2.2-.2.2h-.2-.2-.5l-.3-.1-.1-.3-.1-.4v-.3l.2-.3.3-.2h.3zm0 .3H93v.3h.5v-.2h-.1-.2z" style="-inkscape-font-specification:'Lato Heavy'"/></g><g style="line-height:1.25;-inkscape-font-specification:'Eurostile Extended'" stroke-width=".1" aria-label="lors des repas" font-family="Lato" font-size="2.8" font-weight="400" letter-spacing="0" word-spacing="0"><path d="M82.9 55v2.1h-.3v-2zM83.9 55.7h.3l.2.2.1.2v.6l-.1.2-.2.2h-.6l-.2-.2-.2-.2v-.3-.3l.2-.2.2-.2h.3zm0 1.2l.3-.1v-.4-.4l-.3-.1h-.2l-.1.1-.1.2V56.8l.4.1zM84.9 57.1v-1.4h.1l.1.3q0-.2.2-.3h.4v.2h-.1H85.2l-.1.2v1zM86.7 56h-.2v-.1H86V56.3h.2l.1.1h.2v.1l.2.1v.4h-.1l-.2.2H86l-.2-.1v-.1h.7v-.1-.2l-.2-.1h-.1-.2v-.2h-.2V56v-.2l.1-.1.2-.1h.5l.2.1zM88.8 57.1v-.2l-.3.2h-.4l-.2-.2-.1-.2v-.3-.3l.1-.2.2-.2h.5l.1.1v-.7h.3v2zm-.4-.2h.2l.1-.2V56l-.1-.1h-.2l-.3.1-.1.4v.4h.2l.2.1zM90 55.7h.2l.2.1.1.2v.4h-1v.2l.2.2h.1l.2.1h.4v-.1l.1.1v.1h-.2l-.2.1h-.4l-.2-.2-.1-.2v-.3-.3-.2l.3-.2h.3zm0 .2h-.3l-.1.3h.7v-.1-.1l-.2-.1H90zM91.7 56h-.1l-.2-.1H91V56.3h.2l.1.1h.1l.2.1v.5l-.2.2H91l-.2-.1v-.1h.7v-.1-.2l-.2-.1H91v-.2h-.2V56v-.2l.1-.1.2-.1h.5l.2.1zM92.8 57.1v-1.4h.2v.3l.2-.3h.4v.2H93.2h-.1v.2l-.1.1v.9zM94.4 55.7h.2l.2.1.1.2v.4h-1v.2l.2.2h.1l.2.1H94.7l.1-.1.1.1v.1h-.2l-.2.1h-.4l-.2-.2-.2-.2v-.3-.3l.2-.2.2-.2h.3zm0 .2H94l-.2.3h.8v-.1-.1l-.2-.1h-.1zM95.3 57.6v-2h.1V56l.3-.2h.5l.2.2v.2l.1.3v.3l-.2.2-.2.2h-.4l-.2-.1v.6zm.6-1.7h-.2l-.2.2v.7h.2l.1.1.3-.1.1-.4v-.2-.2l-.2-.1H96zM97.7 57.1v-.2l-.2.1h-.1l-.1.1H97 96.8v-.2-.2-.1l.1-.1.3-.1h.4v-.2-.2l-.3-.1h-.2-.1v.1h-.1l-.1-.1.2-.2h.6l.1.1.1.2V57zm-.5-.2H97.5l.1-.1v-.3h-.5l-.1.1V57h.1zM99 56h-.1l-.1-.1H98.5l-.1.2.1.1h.1l.2.1.2.1v.1l.1.2v.2H99q0 .2-.2.2h-.5l-.2-.1v-.1h.7v-.1-.2l-.1-.1h-.2-.1l-.1-.2h-.1V56v-.2-.1l.2-.1h.5l.2.1z" style="-inkscape-font-specification:Lato"/></g><g style="line-height:1.25;-inkscape-font-specification:'Eurostile Extended'" stroke-width=".1" aria-label="Stand" font-family="Lato" font-size="2.3" font-weight="400" letter-spacing="0" word-spacing="0"><path d="M14.1 14.9H14l-.1-.1h-.2-.1l-.2.1v.2l.2.1.2.1h.2l.1.2h.1v.5l-.1.1-.2.1h-.5l-.3-.1.1-.2h.1l.1.1h.5l.1-.1v-.1-.1l-.1-.1h-.1l-.2-.1h-.1l-.2-.2V15 15v-.2h.2l.2-.1h.3l.2.1zM14.8 16.3l-.2-.1V15.3h-.2V15h.1v-.4h.2v.4h.4v.2h-.4v.7l.2.1h.2l-.1.1h-.2zM16 16.3V16h-.1l-.1.1H15.5h-.1-.1V16l-.1-.1v-.2h.2l.2-.2h.3v-.1-.2h-.2-.1-.2-.1q0-.2.2-.2h.5l.1.2v1zm-.4-.2H15.9v-.4h-.4v.2h-.1v.1l.1.1h.1zM16.5 16.3V15h.1v.1h.2l.2-.1H17.3l.1.2v1h-.2v-.8-.2h-.4-.1v1zM18.6 16.3V16l-.2.1H18 17.8v-.3l-.1-.2v-.3l.1-.2.2-.1h.4l.1.1v-.7h.2v1.8zm-.4-.2h.2l.1-.2v-.5l-.1-.2h-.1l-.3.1V16l.2.1z" style="-inkscape-font-specification:Lato"/></g><g style="line-height:1.25;-inkscape-font-specification:'Eurostile Extended'"><path style="-inkscape-font-specification:'Lato Heavy'" stroke-width=".1" d="M17 19.9h-.5-.1l-.1-.1-.1-.5h-1v.5h-.7l1-2.3h.5zm-1.6-1h.6l-.2-.6v-.1l-.1-.2v.2l-.1.1z" aria-label="A" font-family="Lato" font-size="3.3" font-weight="900" letter-spacing="0" word-spacing="0"/></g><g style="line-height:1.25;-inkscape-font-specification:'Eurostile Extended'" stroke-width=".1" aria-label="Stand" font-family="Lato" font-size="2.3" font-weight="400" letter-spacing="0" word-spacing="0"><path d="M28.2 14.6H28 28h-.1l-.1-.1h-.2l-.1.2v.2l.2.1h.2l.1.1h.1l.1.2V16h-.3l-.2.1h-.3l-.2-.2v-.1h.2l.2.1H27.9l.1-.2v-.2l-.2-.1h-.2l-.1-.1-.1-.1-.1-.1v-.2-.2-.1l.2-.1h.7zM28.8 16h-.2v-1h-.2v-.1h.1l.1-.4h.2v.3h.3v.2h-.3V15.8h.2l.1.1H29l-.2.1zM30 16v-.2l-.1.1h-.1l-.1.1H29.4l-.2-.2v-.1-.1l.2-.1.2-.1h.4v-.2l-.1-.2h-.2-.1-.1-.2l.2-.2h.4l.1.1.1.2v.9zm-.4-.1h.2v-.1h.2v-.3h-.3-.2V15.8h.1zM30.5 16v-1.2h.1v.2l.2-.1.3-.1h.1l.2.1V16h-.2v-.8-.2H31h-.2l-.1.1v.9zM32.6 16v-.2l-.2.2H32l-.2-.1v-.2-.3-.2-.2l.2-.2h.4l.1.1v-.6h.3V16zm-.4-.2h.2l.1-.1V15 15H32V15.8l.1.1h.1z" style="-inkscape-font-specification:Lato"/></g><g style="line-height:1.25;-inkscape-font-specification:'Eurostile Extended'"><path style="-inkscape-font-specification:'Lato Heavy'" stroke-width=".1" d="M28.8 19.6v-2.3H30l.3.1.1.2V18.2l-.1.1h-.2l.3.3.1.3v.3l-.2.2-.3.2h-.4zm.5-1v.6H30l.1-.1V19v-.1-.1-.1h-.3zm0-.4h.6l.1-.1V18v-.2l-.2-.1h-.5z" aria-label="B" font-family="Lato" font-size="3.3" font-weight="900" letter-spacing="0" word-spacing="0"/></g><g style="line-height:1.25;-inkscape-font-specification:'Eurostile Extended'" stroke-width=".1" aria-label="Stand" font-family="Lato" font-size="2.3" font-weight="400" letter-spacing="0" word-spacing="0"><path d="M42 14.5H41.6h-.1-.2-.1v.2l.1.2H41.7l.1.1.1.1.1.1V15.8h-.2l-.3.1h-.3l-.2-.2v-.1H41.4l.1.1H41.7l.1-.1v-.2-.2h-.2-.1l-.2-.1-.1-.1-.1-.1v-.2-.2l.1-.1.2-.1H42zM42.7 16q-.2 0-.3-.2V15h-.2v-.1h.2v-.4h.2v.4h.3v.1h-.3V15.7h.2l.1.1-.2.1zM43.9 15.9l-.1-.2-.1.1h-.1l-.1.1h-.1-.2l-.1-.2v-.2l.1-.1.2-.1h.4v-.1-.3h-.5l-.1.1-.1-.1.2-.1H44V16zm-.5-.1h.2l.1-.1v-.3h-.2-.1l-.1.1v.2h.1zM44.3 15.9v-1.2h.1v.2l.3-.1h.4l.2.2V15.9H45v-.7-.3h-.3-.2l-.1.1v.9zM46.5 15.9h-.1v-.2l-.2.2h-.4l-.1-.1-.1-.2v-.3-.2-.2l.2-.1H46.4v-.6h.2v1.7zm-.4-.1l.1-.1.2-.1V15l-.2-.1h-.4V15.7l.1.1h.2z" style="-inkscape-font-specification:Lato"/></g><g style="line-height:1.25;-inkscape-font-specification:'Eurostile Extended'"><path style="-inkscape-font-specification:'Lato Heavy'" stroke-width=".1" d="M44.2 19h.1l.2.2-.3.3h-1l-.4-.3-.2-.4-.1-.5V18l.3-.4.4-.3H44l.2.1.2.1-.2.3h-.1H43.8v-.1h-.5l-.2.2-.1.2v.7l.1.2.2.1.3.1H44l.1-.2h.1z" aria-label="C" font-family="Lato" font-size="3.3" font-weight="900" letter-spacing="0" word-spacing="0"/></g><g style="line-height:1.25;-inkscape-font-specification:'Eurostile Extended'" stroke-width=".1" aria-label="Stand" font-family="Lato" font-size="2.3" font-weight="400" letter-spacing="0" word-spacing="0"><path d="M56.9 14.4h-.4-.1-.1l-.1.2.1.2H56.6l.1.1.2.1v.1l.1.2v.2l-.2.2h-.1l-.3.1h-.3l-.2-.2.1-.1h.1l.1.1h.4l.2-.1v-.2l-.1-.2h-.2-.1l-.2-.1v-.1l-.2-.1v-.2-.2l.1-.1.2-.1h.5l.2.1z" style="-inkscape-font-specification:Lato"/><path d="M57.6 15.8h-.2l-.1-.3v-.7H57v-.1h.2v-.4h.2v.4h.3v.1h-.3V15.6H57.8v.2h-.2zM58.8 15.8v-.1h-.2l-.2.1h-.1-.1-.1l-.1-.1v-.2-.1l.1-.1.3-.1h.3V15v-.2l-.2-.1h-.2-.1v.1H58v-.1l.1-.1h.5l.2.2V15.8zm-.4-.1h.1l.1-.1h.1v-.3h-.4l-.1.1v.2h.2zM59.2 15.8v-1.2h.2v.2l.2-.1h.5v.2l.1.2v.7H60v-.7-.2l-.3-.1h-.1l-.2.1v1zM61.4 15.8l-.1-.2-.2.2h-.4l-.1-.1-.1-.2v-.3-.2-.2l.3-.1h.4v-.6h.3v1.7zm-.4-.1h.2v-.8l-.2-.1h-.2l-.1.4v.4H61z" style="-inkscape-font-specification:Lato"/></g><g style="line-height:1.25;-inkscape-font-specification:'Eurostile Extended'"><path style="-inkscape-font-specification:'Lato Heavy'" stroke-width=".1" d="M59.7 18.2v.5l-.3.4-.4.2-.5.1h-1v-2.3H59l.4.3.2.4.1.4zm-.6 0V18l-.1-.2-.3-.2H58.1V19H58.7q.2 0 .3-.2v-.2l.1-.4z" aria-label="D" font-family="Lato" font-size="3.3" font-weight="900" letter-spacing="0" word-spacing="0"/></g><g style="line-height:1.25;-inkscape-font-specification:'Eurostile Extended'" stroke-width=".1" aria-label="Stand" font-family="Lato" font-size="2.3" font-weight="400" letter-spacing="0" word-spacing="0"><path d="M124 14.9h-.1l-.2-.1h-.1-.1-.1v.1l-.1.1v.1l.1.1h.1l.2.1h.1l.2.2.1.3v.2l-.2.1-.1.1h-.6l-.2-.1V16h.4l.1.1h.2l.2-.2v-.1-.1l-.1-.1h-.2l-.1-.1h-.2v-.1l-.2-.2V15 15l.1-.2h.2l.2-.1h.3l.2.2zM124.7 16.3l-.2-.1-.1-.2v-.7h-.2V15h.2v-.4h.2v.4h.3v.2h-.3v.7l.1.1h.2v.2h-.2zM126 16.3h-.1V16h-.2v.1h-.2-.1-.1-.1-.1V16v-.2h.1l.3-.2h.3v-.3h-.6l.1-.2h.5l.2.2v1zm-.5-.2h.2l.1-.1v-.3h-.2l-.2.1h-.1V16.2h.2zM126.3 16.3V15h.1l.1.2.2-.2h.5v.2l.1.2v.8h-.2v-.8-.2h-.3-.1l-.2.1v.9zM128.5 16.3l-.1-.2-.2.1h-.4-.1l-.1-.3v-.2-.3-.2h.3l.2-.1h.2v.1-.6h.3v1.7zm-.4-.2h.2v-.7-.1h-.4l-.1.4V16h.1l.2.1z" style="-inkscape-font-specification:Lato"/></g><g style="line-height:1.25;-inkscape-font-specification:'Eurostile Extended'"><path style="-inkscape-font-specification:'Lato Heavy'" stroke-width=".1" d="M125.2 19.9h-.6v-2.4h.6z" aria-label="I" font-family="Lato" font-size="3.3" font-weight="900" letter-spacing="0" word-spacing="0"/></g><g style="line-height:1.25;-inkscape-font-specification:'Eurostile Extended'" stroke-width=".1" aria-label="Stand" font-family="Lato" font-size="2.3" font-weight="400" letter-spacing="0" word-spacing="0"><path d="M137.4 14.8h-.1-.1l-.1-.1H136.8l-.1.1V15.1h.2l.2.1.1.1h.1l.1.2v.5l-.3.2h-.5l-.2-.2v-.1H136.8l.2.1h.2l.1-.2v-.1-.1-.1h-.2l-.2-.1h-.1l-.1-.1-.1-.2V15v-.2-.2h.2l.3-.1h.2l.2.2zM138 16.2h-.2v-1h-.2V15h.2v-.3h.2v.3h.3v.2h-.3V16H138.4l-.1.2h-.2zM139.3 16.2h-.1V16h-.1l-.1.1h-.1-.4v-.2-.2l.3-.1h.4v-.2l-.1-.2h-.2-.4l.2-.2h.4l.2.1v1.1zm-.5-.2h.2l.2-.1v-.3h-.3l-.1.1h-.1V16h.1zM139.7 16.2V15h.1v.2l.2-.2h.4l.2.1v1.1h-.1v-.8l-.1-.2h-.2-.2l-.1.1v.9zM141.8 16.2V16l-.2.1H141v-.3-.2-.3-.1l.2-.2h.4l.2.1v-.6h.2v1.7zm-.4-.2h.2l.2-.2v-.5l-.2-.1h-.4V16l.1.1h.1z" style="-inkscape-font-specification:Lato"/></g><g style="line-height:1.25;-inkscape-font-specification:'Eurostile Extended'"><path style="-inkscape-font-specification:'Lato Heavy'" stroke-width=".1" d="M139 19v.3l-.2.3-.3.2h-.7v-.3-.1h.5v-.1l.1-.1v-1.8h.6z" aria-label="J" font-family="Lato" font-size="3.3" font-weight="900" letter-spacing="0" word-spacing="0"/></g><g style="line-height:1.25;-inkscape-font-specification:'Eurostile Extended'" stroke-width=".1" aria-label="Stand" font-family="Lato" font-size="2.3" font-weight="400" letter-spacing="0" word-spacing="0"><path d="M151.2 14.6H150.8l-.1-.1h-.2l-.1.2v.2h.1l.1.1h.2l.1.1h.2v.8h-.2l-.3.1h-.3l-.2-.2v-.1H150.6l.1.1H151l.1-.2v-.2l-.2-.1h-.1l-.2-.1-.1-.1-.1-.1v-.2-.2l.1-.1.2-.1H151.2zM151.9 16h-.3v-1h-.2v-.1h.2v-.4h.2v.3h.3v.2h-.3V15.8h.2l.2.1h-.2l-.1.1zM153 16v-.2.1h-.2v.1h-.2H152.3v-.2-.1-.1l.1-.1.2-.1h.4v-.2-.2h-.6l.1-.2h.5v.1l.2.2v.9zm-.4-.1h.2l.1-.1v-.3h-.2-.1l-.1.1v.2h.1zM153.5 16v-1.2h.1l.1.2.2-.1.2-.1h.2v.1l.2.2v.9h-.2v-.8-.2h-.3-.1l-.2.1v.9zM155.7 16l-.1-.2-.2.2h-.4l-.1-.1-.1-.2v-.3-.2-.2l.2-.2h.4l.2.1v-.6h.2V16zm-.4-.2h.1l.2-.1V15l-.1-.1h-.5V15.8l.1.1h.2z" style="-inkscape-font-specification:Lato"/></g><g style="line-height:1.25;-inkscape-font-specification:'Eurostile Extended'"><path style="-inkscape-font-specification:'Lato Heavy'" stroke-width=".1" d="M152.4 18.2h.2l.6-.8v-.1h.7l-.7 1h-.2l.1.1.1.1.8 1.1h-.5-.2l-.6-1H152.3v1h-.6v-2.4h.6z" aria-label="K" font-family="Lato" font-size="3.3" font-weight="900" letter-spacing="0" word-spacing="0"/></g><g style="line-height:1.25;-inkscape-font-specification:'Eurostile Extended'" stroke-width=".1" aria-label="Stand" font-family="Lato" font-size="2.3" font-weight="400" letter-spacing="0" word-spacing="0"><path d="M164.6 14.9h-.1-.1l-.1-.1H164l-.1.1V15.2h.2l.1.1h.2l.1.2h.1v.5l-.1.1-.2.1h-.5l-.2-.1V16h.4v.1H164.4l.1-.2v-.1-.1-.1h-.2l-.2-.1h-.1l-.1-.1-.1-.2V15 15v-.2h.2l.3-.1h.2l.2.2zM165.2 16.3l-.2-.1V15.3h-.2V15h.1v-.4h.2v.4h.4v.2h-.4v.7l.2.1h.2l-.1.2h-.2zM166.5 16.3h-.1V16h-.1l-.1.1h-.1-.5V16v-.2h.2l.2-.2h.3v-.3h-.2-.1H165.7l.2-.2h.5l.1.2v1zm-.5-.2h.2l.1-.1v-.3h-.2l-.2.1V16.2h.1zM166.9 16.3V15h.1v.2l.2-.2H167.8V16.4h-.2v-.8-.2h-.4l-.1.1v.9zM169 16.3V16l-.2.1H168.2v-.3-.2-.3-.2h.2l.2-.1h.2l.1.1v-.6h.3v1.7zm-.4-.2h.2l.1-.2v-.5-.1h-.5V16h.1l.1.1z" style="-inkscape-font-specification:Lato"/></g><g style="line-height:1.25;-inkscape-font-specification:'Eurostile Extended'"><path style="-inkscape-font-specification:'Lato Heavy'" stroke-width=".1" d="M165.7 19.4h1v.5h-1.5v-2.4h.5z" aria-label="L" font-family="Lato" font-size="3.3" font-weight="900" letter-spacing="0" word-spacing="0"/></g><g style="line-height:1.25;-inkscape-font-specification:'Eurostile Extended'" stroke-width=".1" aria-label="Stand" font-family="Lato" font-size="2.3" font-weight="400" letter-spacing="0" word-spacing="0"><path d="M178.4 14.9h-.1l-.2-.1H177.8l-.1.1V15.2h.2l.2.1h.1l.1.2h.1v.6l-.3.1h-.5l-.2-.1V16h.4l.1.1h.2l.1-.2v-.1-.1-.1h-.2l-.1-.1h-.2l-.1-.1-.1-.2V15 15v-.2h.3l.2-.1h.2l.2.2zM179 16.3l-.2-.1V15.3h-.2V15h.2v-.4h.2v.4h.3v.2h-.3v.7l.1.1h.2v.2h-.2zM180.3 16.3l-.1-.2h-.1l-.1.1h-.1-.4V16v-.2h.1l.2-.2h.4v-.3h-.5-.2l.2-.2H180.3V16.4zm-.5-.2H180.1v-.4h-.2l-.1.1h-.1V16.2h.1zM180.7 16.3V15h.1v.2l.3-.2h.4l.2.2v1h-.2v-.8-.2h-.3-.2l-.1.1v.9zM182.9 16.3h-.1V16l-.2.1h-.4-.1l-.1-.3v-.2-.3-.2h.2l.2-.1h.2l.2.1v-.6h.2v1.7zm-.5-.2h.2l.2-.2v-.5l-.2-.1h-.4V16h.1l.1.1z" style="-inkscape-font-specification:Lato"/></g><g style="line-height:1.25;-inkscape-font-specification:'Eurostile Extended'"><path style="-inkscape-font-specification:'Lato Heavy'" stroke-width=".1" d="M180.2 18.8v.1l.2.2v-.2-.1l.7-1.2h.6v2.3h-.5v-1.4-.2l-.6 1.2-.1.1H180.2l-.7-1.3V20h-.5v-2.4h.5l.1.1.6 1.2z" aria-label="M" font-family="Lato" font-size="3.3" font-weight="900" letter-spacing="0" word-spacing="0"/></g><g style="line-height:1.25;-inkscape-font-specification:'Eurostile Extended'" stroke-width=".1" aria-label="Stand" font-family="Lato" font-size="2.3" font-weight="400" letter-spacing="0" word-spacing="0"><path d="M164 52.5h-.4-.1-.1l-.1.2.1.2H163.7l.1.1.2.1v.1l.1.2v.2l-.1.2h-.2l-.3.1h-.3l-.2-.2v-.1h.2l.1.1h.5v-.1-.2-.2h-.2-.1l-.2-.1V53l-.2-.1v-.2-.2l.1-.1.2-.1h.5l.2.1zM164.7 54q-.2 0-.2-.2l-.1-.2V53h-.2v-.1h.2v-.4h.2v.4h.3v.1h-.3V53.7H165v.2h-.2zM166 54l-.1-.1v-.2l-.2.1-.2.1h-.1-.1-.1l-.1-.1v-.2-.1l.1-.1.3-.1h.3v-.1-.3h-.4-.1v.1h-.1v-.1l.1-.1h.6v.2l.1.2v.7zm-.5-.2h.1l.1-.1h.1v-.3h-.4l-.1.1v.2h.2zM166.3 54v-1.3h.2v.2l.2-.1h.5v.2l.1.2v.7h-.2v-.7-.2l-.3-.1h-.1l-.2.1v1zM168.5 54V53.6l-.3.2h-.2-.2l-.1-.1-.1-.2v-.3-.2l.1-.2.2-.1h.5v-.6h.2v1.7zm-.4-.2h.2l.1-.2V53l-.1-.1h-.4l-.1.4v.4H168.2z" style="-inkscape-font-specification:Lato"/></g><g style="line-height:1.25;-inkscape-font-specification:'Eurostile Extended'"><path style="-inkscape-font-specification:'Lato Heavy'" stroke-width=".1" d="M167 56.3l-.1.5-.3.4q-.1.2-.4.3h-1l-.4-.3-.2-.4-.1-.5V56l.3-.4.4-.3h1l.4.3.3.4v.4zm-.6 0V56l-.2-.2-.2-.2h-.5l-.3.2v.2l-.1.3v.4l.1.2.3.2h.5l.2-.2.2-.2v-.4z" aria-label="O" font-family="Lato" font-size="3.3" font-weight="900" letter-spacing="0" word-spacing="0"/></g><g style="line-height:1.25;-inkscape-font-specification:'Eurostile Extended'" stroke-width=".1" aria-label="Stand" font-family="Lato" font-size="2.3" font-weight="400" letter-spacing="0" word-spacing="0"><path d="M178 52.4h-.2H177.5h-.1-.1V52.8l.2.1h.1l.2.1v.1l.2.1v.4l-.1.2h-.2l-.2.1h-.3q-.2 0-.3-.2l.1-.1h.1l.2.1h.4v-.1l.1-.2-.1-.2h-.2-.1l-.1-.1-.2-.1v-.1l-.1-.2v-.2l.1-.1.2-.1h.5l.2.1zM178.6 53.8h-.2l-.1-.3v-.7h-.1v-.1h.1v-.4h.2v.4h.4v.1h-.4V53.6H178.8v.2h-.2zM179.8 53.8v-.1h-.2l-.2.1h-.2-.1v-.1l-.1-.2v-.1l.1-.1.3-.1h.3V53v-.2l-.2-.1h-.2-.1v.1h-.1q0-.2.2-.2h.5v.2l.1.2v.7zm-.4-.1h.2v-.1h.1v-.3h-.4v.1l-.1.1v.1h.1zM180.2 53.8v-1.2h.2v.2l.2-.1h.5v.2l.1.2v.7h-.2v-.7-.2l-.2-.1h-.2l-.2.2v.8zM182.4 53.8v-.2l-.3.2h-.2-.2l-.1-.1v-.2l-.1-.3V53l.1-.2.2-.1h.5v-.6h.2v1.7zm-.4-.1h.2l.1-.2v-.6h-.1l-.2-.1-.2.1-.1.3v.4h.2z" style="-inkscape-font-specification:Lato"/></g><g style="line-height:1.25;-inkscape-font-specification:'Eurostile Extended'"><path style="-inkscape-font-specification:'Lato Heavy'" stroke-width=".1" d="M178.8 55h.1v.1h.1l1.2 1.5V55h.4v2.3h-.4l-1.2-1.5v1.5h-.4v-2.3h.2z" aria-label="N" font-family="Lato" font-size="3.3" font-weight="900" letter-spacing="0" word-spacing="0"/></g><g style="line-height:1.25;-inkscape-font-specification:'Eurostile Extended'" stroke-width=".1" aria-label="Stand" font-family="Lato" font-size="2.3" font-weight="400" letter-spacing="0" word-spacing="0"><path d="M14.2 52.2H14 14h-.1H13.6l-.1.1v.2l.2.2H14l.1.1.1.2V53.3l-.1.2-.2.1h-.5l-.2-.2v-.1h.2v.1h.5l.1-.1v-.1-.2h-.2l-.2-.1-.1-.1h-.1l-.1-.2v-.2-.2-.1l.2-.1h.5l.2.1zM14.8 53.7l-.2-.1v-1h-.2l.1-.1V52h.2v.4h.4v.1h-.4V53.4H15l.1.1-.1.1h-.2zM16 53.6v-.1h-.1l-.1.1h-.1-.4v-.1-.2-.2h.3l.3-.1v-.1-.2h-.2-.1H15.3q0-.2.2-.2h.5l.1.2V53.6zm-.4 0l.1-.1h.1l.1-.2v-.2h-.4v.4h.1zM16.5 53.6v-1.1h.1v.1l.2-.1H17.4v1.1h-.2V53v-.2h-.4-.1v1zM18.6 53.6v-.2l-.2.2H18l-.2-.1v-.2-.2-.3-.2l.2-.1h.5V52h.3v1.7zm-.4-.1h.2l.1-.2v-.6l-.2-.1-.3.1v.7h.2z" style="-inkscape-font-specification:Lato"/></g><g style="line-height:1.25;-inkscape-font-specification:'Eurostile Extended'"><path style="-inkscape-font-specification:'Lato Heavy'" stroke-width=".1" d="M16.3 54.9v.4h-1v.6h.8v.4h-.8v.5h1v.5h-1.5v-2.4z" aria-label="E" font-family="Lato" font-size="3.3" font-weight="900" letter-spacing="0" word-spacing="0"/></g><g style="line-height:1.25;-inkscape-font-specification:'Eurostile Extended'" stroke-width=".1" aria-label="Stand" font-family="Lato" font-size="2.3" font-weight="400" letter-spacing="0" word-spacing="0"><path d="M28 52.1h-.5l-.1.1V52.5h.2l.2.1h.1l.1.1.1.2v.5l-.3.1h-.5l-.2-.2h.7l.1-.1v-.1-.2h-.2l-.2-.1h-.1l-.1-.2h-.1v-.3-.1-.2l.2-.1h.5l.2.1zM28.7 53.6l-.2-.1v-1h-.2l.2-.1V52h.2v.4h.3v.1h-.3V53.4H29l-.1.1h-.2zM30 53.5h-.1v-.1h-.1l-.1.1h-.1H29.3l-.1-.1v-.1-.2-.1h.3l.4-.1v-.1l-.1-.2h-.2-.4q0-.2.2-.2H30v1.1zm-.5 0h.1l.1-.1.2-.1V53h-.3-.1l-.1.2v.2h.1zM30.4 53.5v-1.1h.1v.1l.2-.1H31.3v1.1h-.1v-.7l-.1-.2h-.2-.2-.1v1zM32.5 53.5v-.1l-.2.1H31.7v-.3-.2-.3-.2l.2-.1H32.5v-.6h.2v1.7zm-.4-.1h.2l.2-.2v-.6h-.2-.4V53.2l.1.2h.1z" style="-inkscape-font-specification:Lato"/></g><g style="line-height:1.25;-inkscape-font-specification:'Eurostile Extended'"><path style="-inkscape-font-specification:'Lato Heavy'" stroke-width=".1" d="M30.2 54.8v.4h-1v.6h.9v.4h-.8v1h-.6v-2.4z" aria-label="F" font-family="Lato" font-size="3.3" font-weight="900" letter-spacing="0" word-spacing="0"/></g><g style="line-height:1.25;-inkscape-font-specification:'Eurostile Extended'" stroke-width=".1" aria-label="Stand" font-family="Lato" font-size="2.3" font-weight="400" letter-spacing="0" word-spacing="0"><path d="M41.9 52H41.5h-.1-.2l-.1.1v.2l.1.1h.1l.2.1h.1l.2.2v.6l-.2.1H41l-.2-.1V53h.1l.2.1h.5V53v-.1-.1h-.2l-.1-.1h-.2l-.1-.2H41v-.3-.1l.1-.2h.2l.2-.1h.2l.2.1zM42.6 53.5l-.3-.1V52.5H42v-.2h.2v-.4h.2v.4h.3v.2h-.3v.7l.1.1H43l-.2.1h-.1zM43.8 53.5l-.1-.2-.2.1h-.2H43v-.1-.1-.2h.1l.2-.2h.4v-.1-.2H43l.1-.2h.5l.2.2v1zm-.5-.2H43.6v-.4h-.2-.1l-.1.2v.2h.1zM44.2 53.5v-1.2h.1l.1.1h.2l.2-.1h.2l.2.2v1H45v-.8-.2h-.3H44.4v1zM46.4 53.5l-.1-.2-.2.1h-.4-.1l-.1-.3V53v-.3-.2h.2l.3-.1h.1l.2.1v-.7h.2v1.8zm-.4-.2h.1l.2-.2v-.5l-.1-.1h-.5V53.2h.1l.2.1z" style="-inkscape-font-specification:Lato"/></g><g style="line-height:1.25;-inkscape-font-specification:'Eurostile Extended'"><path style="-inkscape-font-specification:'Lato Heavy'" stroke-width=".1" d="M44.5 56.8l-.4.2-.4.1h-.5l-.5-.3-.2-.4-.1-.5v-.5l.3-.4.4-.2.5-.1h.6l.2.2.1.1-.1.2-.1.1H44l-.2-.1h-.1-.5l-.2.1-.1.3v.6q0 .2.2.3l.2.1h.6v-.3h-.2-.1v-.4h.8v1z" aria-label="G" font-family="Lato" font-size="3.3" font-weight="900" letter-spacing="0" word-spacing="0"/></g><g style="line-height:1.25;-inkscape-font-specification:'Eurostile Extended'" stroke-width=".1" aria-label="Stand" font-family="Lato" font-size="2.3" font-weight="400" letter-spacing="0" word-spacing="0"><path d="M55.3 51.9h-.1l-.1-.1h-.4v.4h.2l.1.1h.2l.1.2h.1v.5l-.1.1-.2.1h-.5l-.2-.1V53h.4v.1H55.2l.1-.2v-.1-.1l-.1-.1H55l-.2-.1h-.1l-.1-.1-.1-.2V52 52v-.2h.2l.2-.1h.3l.2.2zM56 53.3h-.2v-1h-.2V52h.1v-.3h.2v.3h.4v.2h-.4v.7l.2.1h.2l-.1.2H56zM57.3 53.3h-.1V53H57l-.1.1h-.1-.4V53v-.2l.3-.1h.3v-.2-.2h-.2-.1H56.5l.2-.2h.4l.1.1.1.1v1zm-.5-.2H57.1v-.4H57l-.2.1V53.2h.1zM57.7 53.3V52h.1v.2l.2-.2h.4l.1.1.1.1v1h-.2v-.8-.2H58l-.1.1v.9zM59.8 53.3V53l-.2.1h-.3H59v-.3l-.1-.2v-.3l.1-.1.2-.2h.4l.1.1v-.6h.2v1.7zm-.4-.2h.2l.1-.2v-.5-.1h-.5v.8h.2z" style="-inkscape-font-specification:Lato"/></g><g style="line-height:1.25;-inkscape-font-specification:'Eurostile Extended'"><path style="-inkscape-font-specification:'Lato Heavy'" stroke-width=".1" d="M58 56.9h-.5v-1h-1v1H56v-2.4h.5v1h1v-1h.6z" aria-label="H" font-family="Lato" font-size="3.3" font-weight="900" letter-spacing="0" word-spacing="0"/></g><g style="line-height:1.25;-inkscape-font-specification:'Eurostile Extended'" stroke-width=".1" aria-label="Salon des symboles (répartition des sponsors)" font-family="Lato" font-size="6.5" font-weight="400" letter-spacing="0" word-spacing="0"><path d="M13.5 3.3H13h-.4v.2l.1.2h.2l.2.1h.2l.1.2.2.2v.5l-.2.3-.3.2h-.4-.4l-.2-.2L12 5l.2-.3H12.5l.2.1h.4v-.2-.1-.1h-.3l-.2-.1-.1-.1-.2-.1-.1-.2v-.3-.3l.1-.2.3-.1.3-.1h.4l.2.1.2.1zM15 5.2V5l-.1-.1h-.1l-.2.2h-.1-.2-.2L14 5l-.1-.2v-.2-.1l.1-.2.3-.1h.5V4 4h-.5-.2-.1v-.2l.3-.2H14.9q.2 0 .2.2l.2.2V5zm-.5-.3h.2l.1-.2v-.2h-.4V4.9h.1zM16.2 2.8v2.4h-.6V2.8zM17.3 3.5h.3l.3.2.2.3v.7q0 .2-.2.3l-.3.2H17l-.3-.2-.1-.3v-.4V4l.1-.3.3-.2h.4zm0 1.3h.2l.1-.5V4l-.3-.1H17v.8l.3.1zM18.4 5.2V3.5h.4v.2l.2-.1.2-.1h.4l.2.2.1.2V5h-.5v-1V4h-.2-.2-.1v1.3zM22.2 5.2V5L22 5H22l-.2.1-.3.1h-.2l-.2-.2-.1-.3v-.4V4l.1-.3.3-.2h.5l.1.1v-.8h.6v2.4zm-.5-.4h.2l.1-.1V4v-.1h-.2H21.5V4.8l.1.1h.1zM23.6 3.5h.4l.2.2.2.2v.5h-1.1l.1.3.3.1h.4v-.1h.2l.1.2-.2.2H24l-.1.1H23.3l-.2-.2q-.2-.1-.2-.3v-.4V4l.1-.3.3-.2h.3zm0 .3l-.2.1v.2h.6l-.1-.2h-.1-.1zM25.7 3.9h-.1-.1-.1H25.1V4l.1.1H25.5l.1.2h.1l.1.2v.4l-.1.2h-.2l-.3.1h-.4l-.1-.1-.2-.1.2-.2h.6v-.2H25l-.1-.1h-.2v-.2h-.2V4v-.2l.2-.2h.2l.3-.1H25.6l.1.1h.2zM28 3.9h-.1H27.6 27.3V4l.1.1H27.7l.1.2h.2V5L28 5h-.2l-.3.1h-.2-.2L27 5l-.1-.1v-.2h.8v-.2h-.1-.1l-.2-.1h-.1l-.2-.2V4v-.2-.2h.3l.3-.1H27.8l.2.1zM29 5.6v.1h-.5l.3-.7-.7-1.5h.6l.3.8v.2l.1-.2.3-.7.1-.1h.4zM30 5.2V3.5h.5v.2l.1-.1h.1l.1-.1h.4l.2.3v-.2h.2l.2-.1h.4l.2.1v.2l.1.3v1H32v-1q0-.2-.2-.2h-.2v1.2H31v-1V4h-.2-.1-.1v1.3zM32.9 5.2V2.8h.5v.9l.2-.2h.5l.2.2.1.3v.7l-.1.3-.3.1-.3.1h-.2V5h-.2-.1zm.8-1.3h-.2l-.1.1V4.8h.4l.1-.2v-.3-.2V4l-.1-.1h-.1zM35.5 3.5h.4l.2.2q.2.1.2.3v.7q0 .2-.2.3l-.2.2h-.7l-.3-.2-.2-.3v-.4V4q0-.2.2-.3l.3-.2h.3zm0 1.3h.3v-.5V4l-.3-.1h-.2l-.1.4v.4l.3.1zM37.1 2.8v2.4h-.5V2.8zM38.2 3.5h.3q.2 0 .3.2l.1.2v.5h-1l.1.3.3.1h.4v-.1h.1l.2.2-.2.2h-.2l-.2.1H38l-.3-.2-.1-.3-.1-.4V4l.2-.3.3-.2h.3zm0 .3L38 4l-.1.2h.6v-.2h-.1-.2zM40.3 3.9h-.1-.1-.1H39.7v.2h.4l.1.2h.1l.1.2v.4l-.1.2H40l-.3.1H39.4l-.2-.1V4.8H40v-.2h-.2l-.1-.1h-.2v-.2h-.2V4v-.2l.2-.2h.2l.3-.1H40.2l.1.1h.1z" font-size="3.3" font-weight="900" style="-inkscape-font-specification:'Lato Heavy'"/><path d="M41.7 4.2v.6l.3.7-.1.2-.2-.4-.2-.4v-.3-.4-.4-.4l.2-.4.2-.3h.1V3l-.2.6-.1.7zM42.4 5.2V3.5h.2V4l.3-.3h.4v.2h-.1-.1H42.8V4l-.1.1v1zM43.4 5.2zm.8-1.7h.3l.2.2.1.2v.4h-1v.5l.2.1H45l-.2.2H44.4l-.2.1H44l-.3-.2-.1-.3v-.4V4l.1-.2q.1-.2.3-.2h.3zm0 .2q-.2 0-.3.2l-.2.3h1l-.1-.2v-.1l-.2-.1h-.2zm.5-.9l-.4.5H44l.3-.4h.1zM45.2 5.7V3.5h.2l.1.1v.2l.3-.2h.5l.2.1.2.3v.7l-.2.3-.2.1-.3.1h-.3l-.2-.2v.7zm.8-2l-.3.1-.2.2v.8l.2.1H46.3l.1-.5V4l-.1-.2-.1-.1H46zM48.1 5.2L48 5h-.1l-.2.1h-.1l-.2.1h-.2l-.1-.1L47 5v-.2-.2l.2-.2h.3l.5-.1V4l-.1-.3H47.3l-.1.1H47v-.1q0-.2.2-.2h.8l.1.3V5zm-.6-.2h.2l.2-.1v-.5h-.3l-.2.1-.1.1V5h.2zM48.7 5.2V3.5h.2V4l.3-.3h.4v.2h-.2-.1-.1L49 4l-.1.1v1zM49.7 5.2zm.7 0l-.3-.1-.1-.3v-1h-.2v-.2h.2V3H50.4v.5h1.1v1.6h-.3V3.8h-.8v1.1h.4l.1.2h-.2l-.2.1zM51.5 3v.2h-.1-.2V3H51v-.2H51.5l.1.1zM51.8 5.2zm.6 0l-.3-.1V3.8h-.3v-.2h.2V3H52.4v.5h1.2v1.6h-.3V3.8h-.9v1.1h.4l.1.2h-.2l-.2.1zM53.5 3v.2H53.2V3v-.2H53.5V3zM54.6 3.5h.4l.2.2.2.3v.7q0 .2-.2.3L55 5l-.4.1h-.3L54 5l-.1-.3v-.3V4l.1-.3.3-.1h.3zm0 1.5q.3 0 .4-.2l.1-.4-.1-.5q-.1-.2-.4-.2h-.2l-.1.2-.1.2v.7l.4.2zM55.8 5.2V3.5h.2V3.8l.3-.2h.7l.1.3V5H57v-1l-.1-.3h-.5L56 4v1.2zM59.7 5.2h-.1v-.3l-.3.2-.3.1h-.3l-.2-.2v-.3l-.1-.3V4l.2-.2q0-.2.2-.2h.5l.2.1v-.9h.3v2.4zM59 5h.2l.2-.3V4l-.1-.1H59l-.3.1-.1.5v.4l.2.1h.2zM61 3.5h.2l.3.2.1.2v.4h-1.1v.3l.1.2.2.1H61.6l-.1.2h-.2-.1l-.2.1h-.3l-.3-.2-.1-.3-.1-.4V4l.2-.2.2-.2h.4zm0 .2l-.4.2-.1.3h.9V4l-.1-.1-.1-.1H61zM63 3.8h-.1-.1-.1-.2-.1-.1V4.2l.2.1h.1l.2.1h.1l.1.2V5.1h-.3l-.3.1h-.3L62 5V5h.4l.2.1h.2v-.2h.1v-.2h-.1l-.2-.1h-.1l-.2-.1-.1-.1-.1-.1V4v-.2-.1l.3-.1h.5l.2.1zM65.2 3.8h-.4-.2-.1V4l.1.1.1.1h.2l.2.1h.1v.2l.1.2v.2l-.1.2H65l-.3.1h-.3l-.2-.2V5h.4l.1.1h.2l.1-.2v-.2l-.2-.1h-.2l-.1-.1-.2-.1v-.1l-.1-.2v-.2l.1-.1.2-.1h.6l.2.1zM65.7 5.7V3.5h.2V3.8l.3-.2h.6l.2.1.1.3v.7L67 5l-.3.1-.3.1h-.2L66 5v.7zm.7-2l-.2.1-.2.2v.8l.2.1h.5q.2-.2.2-.5V4l-.2-.2v-.1h-.3zM68.2 3.5h.4l.2.2.2.3v.7q0 .2-.2.3l-.2.1-.4.1H68l-.3-.2-.1-.3v-.3V4l.1-.3.3-.1h.3zm0 1.5q.3 0 .4-.2l.1-.4-.1-.5q-.1-.2-.4-.2H68L68 4l-.1.2v.7l.4.2zM69.4 5.2V3.5h.2V3.8l.3-.2h.7l.1.3V5h-.2v-1l-.1-.3h-.5l-.2.2v1.2zM72.2 3.8H72 72h-.1-.2-.1-.1V4.2l.2.1h.1l.2.1h.1l.1.2V5.1h-.3l-.3.1h-.3l-.2-.2V5h.4l.2.1h.2v-.2h.1v-.2h-.1l-.2-.1h-.1l-.2-.1-.1-.1-.1-.1V4v-.2-.1l.3-.1h.5l.2.1zM73.3 3.5h.4l.2.2.2.3v.7q0 .2-.2.3l-.2.1-.4.1H73l-.2-.2q-.2-.1-.2-.3v-.3V4l.2-.3.2-.1h.3zm0 1.5q.3 0 .4-.2l.1-.4-.1-.5q-.1-.2-.4-.2h-.2L73 4l-.1.2v.7l.4.2zM74.5 5.2V3.5h.2V4l.3-.3h.4v.2h-.1-.1-.2l-.1.2-.1.1v1zM76.6 3.8h-.1-.2-.1-.1-.1-.1V4l.1.1.1.1h.2l.2.1h.1l.1.2V5l-.1.2h-.2l-.3.1h-.3l-.2-.2V5h.4l.1.1h.2l.1-.2v-.2l-.2-.1H76l-.1-.1-.2-.1v-.1l-.1-.2v-.2l.2-.1.1-.1h.6l.2.1zM77.3 4.2l-.1-.7-.3-.6v-.1l.2-.1.2.3.1.4.1.4v1.1l-.2.4-.2.4-.2-.1v-.1l.3-.7v-.6z" style="-inkscape-font-specification:Lato"/></g><path fill="#ddd" stroke="#000" stroke-width=".2" d="M70.3 20.3H115v6H70.3z"/><path fill="#ddd" stroke="#000" stroke-width=".1" d="M125.1 47.3h31.2v6H125z"/><g style="line-height:1.25;-inkscape-font-specification:'Eurostile Extended'" stroke-width=".1" aria-label="Repas + Café + Petit dej" font-family="Lato" font-size="3.3" font-weight="900" letter-spacing="0" word-spacing="0"><path d="M74.5 17v.8h-.6v-2.4h1.3l.3.2.1.2v.7l-.2.2h-.2l.1.2.6.9h-.5l-.2-.1-.4-.7h-.2zm0-.5h.5l.1-.2v-.1-.3H74.4z" style="-inkscape-font-specification:'Lato Heavy'"/><path d="M76.7 16l.3.1.2.2.2.2v.5h-1v.3l.3.1H77l.2-.1.2.2-.1.2H77l-.2.1h-.5l-.3-.2-.2-.3v-.4-.3q0-.2.2-.3l.2-.2h.4zm0 .4l-.2.1-.2.2h.7v-.2h-.2-.1zM77.7 18.3v-2.2h.4v.2h.2V16H79l.2.2.2.3v.7l-.2.3-.2.1-.3.1h-.2l-.2-.1v.6zm.8-1.8h-.2l-.1.1v.7l.1.1h.4v-.2-.3-.2-.1-.1h-.2zM80.7 17.8h-.1v-.1l-.1-.1h-.1l-.1.2H80h-.4l-.1-.1-.1-.2v-.2-.1l.2-.2.3-.1.4-.1v-.3h-.2-.2-.1-.1-.1l-.2-.2.4-.2H80.5q.2 0 .3.2v.2l.1.2v1zm-.6-.3h.2l.1-.2v-.2H80V17.5h.1zM82.3 16.5h-.1-.1-.1H81.7v.1l.1.1H82.1l.1.2h.1l.1.2v.4l-.1.1-.2.2h-.7l-.1-.1-.2-.1.2-.2h.6v-.2h-.2l-.1-.1h-.2v-.2l-.2-.1v-.2-.2l.2-.2h.2l.3-.1H82.2l.1.1h.2zM84.5 15.9v.6h.6v.4h-.6v.6H84V17h-.6v-.4h.6V16zM87.8 17.2l.3.2-.4.3-.5.1h-.5l-.3-.3-.3-.4v-.5-.5l.3-.4.4-.2.4-.1h.5l.2.2.2.1-.2.3h-.2-.1v-.1h-.2-.2-.2l-.2.1-.1.3v.6l.1.3.2.1h.7v-.1h.1zM89.4 17.8l-.2-.1v-.1h-.1l-.1.2h-.2H88.5l-.2-.1-.1-.2v-.2-.1l.2-.2.3-.1.5-.1-.1-.3h-.2-.1-.1-.1-.1-.1l-.2-.2.4-.2h.7l.2.2.1.2v1.2zm-.6-.3h.2l.2-.2v-.2h-.3-.2V17.5h.1zM90 17.8v-1.4h-.1V16h.2v-.4l.1-.2h.3l.2-.1h.2V15.7h-.2v.1h-.1V16.2h.4v.3h-.4v1.4zM91 17.8zM92 16h.3l.2.2.2.2v.5h-1.1q0 .2.2.3l.2.1h.4v-.1h.2l.1.2-.2.2h-.1l-.2.1H91.5l-.2-.2-.2-.3v-.4-.3l.1-.3q.2 0 .3-.2h.4zm0 .3l-.3.1v.2h.6l-.1-.2H92h-.1zm.6-1l-.4.4h-.5l.2-.3h.1l.1-.1zM94.6 15.9v.6h.6v.4h-.6v.6h-.4V17h-.6v-.4h.6V16zM96.9 17v.8h-.6v-2.4h1.3l.3.2.2.3v.6q0 .2-.2.3l-.3.1h-.4zm0-.4h.3l.3-.1v-.3-.2l-.1-.1h-.5zM99 16l.4.1.2.2.2.2v.5h-1.1l.1.3.3.1h.4v-.1h.2l.1.2-.2.2h-.2l-.1.1H98.7l-.2-.2q-.2-.1-.2-.3v-.4-.3l.1-.3.3-.2h.4zm0 .4l-.2.1v.2h.6l-.1-.2h-.1-.1zM100 17.8zm1.9-1.7v1.7h-.5v-1.4h-.7v1h.2l.2.3h-.2l-.2.1h-.3l-.1-.1-.1-.2v-1.1h-.2v-.2l.2-.1v-.4h.5v.4zm0-.5v.2l-.1.1h-.4v-.1-.2-.2h.4l.1.1v.1zM102.9 17.8h-.3l-.1-.1-.1-.2v-1.1h-.2v-.2l.2-.1v-.4h.5v.4h.4v.3h-.4v1h.2l.2.3h-.2l-.2.1zM105.5 17.8l-.1-.1v-.1h-.2l-.1.1h-.1l-.2.1h-.3l-.2-.2v-.3l-.1-.4v-.3q0-.2.2-.3l.2-.2h.5l.2.1v-.8h.5v2.4zm-.5-.4h.2V16.5v-.1h-.2-.1-.1v.2l-.1.2v.4l.2.1zM106.9 16l.3.1.2.2.2.2v.5h-1v.3l.4.1H107.3l.1-.1.2.2-.1.2h-.2l-.2.1h-.5l-.3-.2-.2-.3v-.4-.3q0-.2.2-.3l.2-.2h.4zm0 .4l-.2.1-.1.2h.6v-.2h-.2-.1zM108.4 16.1V18l-.1.2-.2.1h-.5v-.2l.1-.1h.1l.1-.1V16zm0-.5v.2l-.1.1H108l-.1-.1v-.2-.2h.5v.2z" style="-inkscape-font-specification:'Lato Heavy'"/></g><g style="line-height:1.25;-inkscape-font-specification:'Eurostile Extended'" stroke-width=".1" aria-label="Repas + Café + Petit dej" font-family="Lato" font-size="3.3" font-weight="900" letter-spacing="0" word-spacing="0"><path d="M123.6 56.4v.9h-.5v-2.4H124.3l.3.2.2.2v.5l-.1.2-.2.2h-.2l.1.2h.1l.5.9h-.5l-.2-.1-.4-.7-.1-.1zm0-.4h.5l.2-.2v-.1l-.1-.3h-.6zM125.8 55.6h.3q.2 0 .3.2l.1.2v.5h-1l.1.3.3.1H126.2l.1-.1h.1l.2.2-.2.2h-.2-.2l-.2.1h-.3l-.3-.2-.2-.3v-.4-.3q0-.2.2-.3l.3-.2h.3zm0 .3h-.2l-.1.3h.6V56h-.1-.2zM126.8 57.8v-2.2h.5v.2l.1-.1h.1l.2-.1h.4l.2.2.1.3v.7l-.1.2q-.1.2-.3.2l-.3.1h-.2l-.2-.1v.6zm.9-1.9h-.1-.1v.1l-.2.1v.7l.2.1H127.8l.1-.2v-.3-.2-.2h-.1-.1zM129.9 57.3h-.2V57h-.2l-.1.1h-.1l-.2.1h-.2l-.2-.1V57l-.1-.2v-.1l.2-.2.3-.1.5-.1V56h-.4-.4l-.1-.2.3-.2h.7l.2.1.1.3v1.2zm-.6-.3h.1l.2-.2v-.2h-.3-.1l-.1.1v.2h.2zM131.5 56h-.5-.1v.1l.2.1h.1l.2.1v.1l.2.2v.4l-.2.1-.2.2h-.3-.2-.1l-.2-.1-.1-.1.1-.2h.7v-.2h-.2l-.2-.1h-.1l-.1-.2-.1-.1V56v-.2l.1-.2h.2l.3-.1h.4v.1h.2zM133.6 55.4v.6h.6v.4h-.6v.6h-.4v-.6h-.6V56h.6v-.6zM137 56.7l.2.2-.3.3-.5.1h-.5l-.4-.3-.2-.4-.1-.5v-.5l.3-.4.4-.2.5-.1h.5l.2.2.1.1-.2.2v.1h-.1-.1l-.1-.1h-.2-.4l-.2.1v.3l-.1.3v.3q0 .2.2.3l.2.1h.5l.2-.1zM138.6 57.3h-.1l-.1-.1V57h-.2v.1h-.2l-.2.1h-.2l-.2-.1V57v-.2-.1l.1-.2.3-.1.5-.1V56h-.8l-.1-.2.3-.2h.7l.2.1.2.3v1.2zm-.6-.3h.2l.1-.2v-.2h-.4v.1l-.1.1v.1h.2zM139.2 57.3v-1.4h-.2V55.6h.2v-.1-.3l.2-.2h.2l.3-.1h.2V55.2h-.1-.1-.1V55.6h.3v.4h-.4v1.4zM140.2 57.3zm.8-1.7h.3q.2 0 .3.2l.1.2v.5h-1l.1.3.3.1H141.4l.1-.1h.1l.2.2-.2.2h-.4l-.2.1h-.3l-.3-.2-.2-.3v-.4-.3q0-.2.2-.3l.3-.2h.3zm0 .3h-.2l-.1.3h.6V56H141zm.7-1l-.5.4h-.4l.2-.3.2-.1zM143.8 55.4v.6h.6v.4h-.6v.6h-.5v-.6h-.6V56h.6v-.6zM146 56.5v.8h-.5v-2.4h1.3l.3.2.1.3v.6l-.1.3-.3.1h-.5zm0-.4h.3l.3-.1.1-.3v-.2l-.2-.2h-.5zM148.2 55.6h.3l.2.2.2.2v.5h-1l.1.3.3.1H148.6l.1-.1h.1l.2.2-.2.2h-.4l-.2.1h-.3l-.3-.2-.2-.3v-.4-.3q0-.2.2-.3l.2-.2h.4zm0 .3h-.2l-.1.3h.6V56h-.2zM149 57.3zm2-1.7v1.7h-.5v-1.4h-.7v.9l.1.1h.2l.2.3h-.2l-.3.1h-.2l-.2-.1V57 56h-.2-.1v-.3h.2l.1-.4.1-.1h.3v.5zm.1-.5v.2l-.2.1h-.1-.1-.1v-.2h-.1V55l.2-.1H151v.1l.1.1zM152 57.3h-.2l-.2-.1V57l-.1-.2V56h-.1-.1v-.3h.2l.1-.4.1-.1h.3v.5h.4v.3h-.4v.9l.1.1h.2l.2.3h-.2l-.3.1zM154.6 57.3v-.1l-.1-.1h-.1l-.2.1h-.1l-.2.1h-.2l-.2-.2-.1-.3v-.4-.3l.1-.3.3-.2h.5l.1.1v-.9h.5v2.5zm-.5-.4h.2l.1-.1V56h-.4l-.1.2v.6h.1l.1.1zM156 55.6h.3q.2 0 .3.2l.1.2.1.3v.2h-1.1l.1.3.3.1h.4v-.1h.1l.2.2-.2.2h-.2-.2l-.1.1h-.4l-.3-.2-.1-.3-.1-.4V56l.2-.3.3-.2h.3zm0 .3h-.2v.3h.5V56h-.1-.2z" style="-inkscape-font-specification:'Lato Heavy'"/><path d="M157.6 55.6v1.9l-.2.2-.1.1h-.3-.1-.2v-.2l.2-.1h.1v-.1-1.8zm0-.5v.2l-.2.1h-.2-.1v-.2-.2l.1-.1H157.5l.1.1v.1z" style="-inkscape-font-specification:'Lato Heavy'"/></g></svg>