<svg xmlns="http://www.w3.org/2000/svg" id="svg1" width="70" height="70" version="1.1" viewBox="0 0 18.521 18.521"><g id="layer1"><rect style="fill:#2c233d;fill-opacity:1;stroke-width:3.88238;stroke-linecap:round;stroke-linejoin:round;paint-order:stroke fill markers" id="rect1" width="18.6" height="18.468" x="-.009" y=".018"/><polygon id="polygon15" fill="#c25581" points="221.51 68.61 203.21 68.61 194.14 80.92 203.34 93.51" transform="matrix(0.16609837,0,0,0.16609837,-24.755529,-8.7253615)"/><polygon id="polygon16" fill="#fff" points="179.55 128.46 200.6 97.31 179.62 68.7 161.31 68.7 182.22 97.31 161.24 128.46" transform="matrix(0.16609837,0,0,0.16609837,-24.755529,-8.7253615)"/><g id="g2" transform="matrix(0.48321312,0,0,0.48321312,2.4142851,7.1036274)"><path id="path13" d="m 7.1955193,10.115353 h 5.0397997 v 1.671404 h -1.696988 v 4.732809 H 8.8530679 V 11.786757 H 7.1901895 Z" style="fill:#fff;stroke-width:.106595"/><path id="path14" d="m 29.049578,16.519246 -3.018764,-3.027292 v 3.027292 H 24.35088 v -6.395685 h 0.68221 l 3.027287,3.018761 v -3.018761 h 1.685264 v 6.395685 z" style="fill:#fff;stroke-width:.106595"/><path id="path16" fill="#ff8d4e" d="m 17.902965,13.68841 q 0,-1.038233 -0.358161,-1.694858 a 2.2225009,2.2225009 0 0 0 -0.91032,-0.948695 2.4655369,2.4655369 0 0 0 -1.152288,-0.28887 3.0422147,3.0422147 0 0 0 -1.539228,0.364555 2.3205682,2.3205682 0 0 0 -0.949757,1.005187 3.2458108,3.2458107 0 0 0 -0.319787,1.451818 3.3236248,3.3236248 0 0 0 0.319787,1.471011 2.3909204,2.3909204 0 0 0 0.949757,1.027575 2.9548069,2.9548069 0 0 0 1.539228,0.37841 4.4151557,4.4151558 0 0 0 1.378273,-0.181209 4.9545239,4.9545239 0 0 0 0.920978,-0.402928 v -1.20559 q -1.058486,0.551096 -1.93363,0.551096 A 1.4198424,1.4198423 0 0 1 14.462082,14.07535 h 3.440884 z m -2.529494,-1.737497 a 0.78347138,0.78347138 0 0 1 0.670478,0.319785 1.3335007,1.3335006 0 0 1 0.230245,0.746165 c -0.09913,-0.200398 -0.478608,-0.348567 -0.932704,-0.348567 -0.454092,0 -0.831438,0.148169 -0.932702,0.347501 a 1.2290375,1.2290375 0 0 1 0.263287,-0.746165 0.86554927,0.86554927 0 0 1 0.701396,-0.318719 z" style="stroke-width:.106595"/><path id="path17" fill="#c25581" d="m 23.417111,11.683361 a 2.647814,2.647814 0 0 0 -1.08407,-1.14696 Q 21.608199,10.119616 20.57636,10.119616 a 2.8130361,2.813036 0 0 0 -1.314313,0.330443 2.5358896,2.5358896 0 0 0 -1.042497,1.079808 2.9707961,2.9707961 0 0 0 -0.249431,0.623579 4.2190209,4.2190209 0 0 1 0.252629,1.534964 v 0.221717 h 3.517623 a 1.6202405,1.6202406 0 0 1 -1.586126,1.301521 c -0.62571,0 -1.313249,-0.187606 -2.060477,-0.557489 v 1.385729 a 5.982098,5.982098 0 0 0 0.906055,0.380543 5.0376693,5.0376693 0 0 0 1.578669,0.201468 q 1.031837,0 1.756683,-0.431709 a 2.72776,2.72776 0 0 0 1.084069,-1.172542 3.7926418,3.7926418 0 0 0 0.357092,-1.677805 3.7041682,3.7041682 0 0 0 -0.359225,-1.656482 z m -2.719233,-0.200396 a 0.98813331,0.98813331 0 0 1 0.798395,0.366685 1.3271048,1.3271048 0 0 1 0.28461,0.673679 c -0.190808,-0.184409 -0.564954,-0.310192 -0.995597,-0.310192 -0.569216,0 -1.038232,0.218517 -1.117116,0.503129 a 1.5328328,1.5328327 0 0 1 0.263292,-0.873012 0.89432999,0.89432999 0 0 1 0.765348,-0.360289 z" style="stroke-width:.106595"/><path id="path18" fill="#ff8d4e" d="m 17.902965,13.68841 q 0,-1.038233 -0.358161,-1.694858 a 2.2225009,2.2225009 0 0 0 -0.91032,-0.948695 2.4655369,2.4655369 0 0 0 -1.152288,-0.28887 3.0422147,3.0422147 0 0 0 -1.539228,0.364555 2.3205682,2.3205682 0 0 0 -0.949757,1.005187 3.2458108,3.2458107 0 0 0 -0.319787,1.451818 3.3236248,3.3236248 0 0 0 0.319787,1.471011 2.3909204,2.3909204 0 0 0 0.949757,1.027575 2.9548069,2.9548069 0 0 0 1.539228,0.37841 4.4151557,4.4151558 0 0 0 1.378273,-0.181209 4.9545239,4.9545239 0 0 0 0.920978,-0.402928 v -1.20559 q -1.058486,0.551096 -1.93363,0.551096 A 1.4198424,1.4198423 0 0 1 14.462082,14.07535 h 3.440884 z m -2.529494,-1.737497 a 0.78347138,0.78347138 0 0 1 0.670478,0.319785 1.3335007,1.3335006 0 0 1 0.230245,0.746165 c -0.09913,-0.200398 -0.478608,-0.348567 -0.932704,-0.348567 -0.454092,0 -0.831438,0.148169 -0.932702,0.347501 a 1.2290375,1.2290375 0 0 1 0.263287,-0.746165 0.86554927,0.86554927 0 0 1 0.701396,-0.318719 z" style="stroke-width:.106595"/><path id="path19" fill="#c25581" d="m 23.417111,11.683361 a 2.647814,2.647814 0 0 0 -1.08407,-1.14696 Q 21.608199,10.119616 20.57636,10.119616 a 2.8130361,2.813036 0 0 0 -1.314313,0.330443 2.5358896,2.5358896 0 0 0 -1.042497,1.079808 2.9707961,2.9707961 0 0 0 -0.249431,0.623579 4.2190209,4.2190209 0 0 1 0.252629,1.534964 v 0.221717 h 3.517623 a 1.6202405,1.6202406 0 0 1 -1.586126,1.301521 c -0.62571,0 -1.313249,-0.187606 -2.060477,-0.557489 v 1.385729 a 5.982098,5.982098 0 0 0 0.906055,0.380543 5.0376693,5.0376693 0 0 0 1.578669,0.201468 q 1.031837,0 1.756683,-0.431709 a 2.72776,2.72776 0 0 0 1.084069,-1.172542 3.7926418,3.7926418 0 0 0 0.357092,-1.677805 3.7041682,3.7041682 0 0 0 -0.359225,-1.656482 z m -2.719233,-0.200396 a 0.98813331,0.98813331 0 0 1 0.798395,0.366685 1.3271048,1.3271048 0 0 1 0.28461,0.673679 c -0.190808,-0.184409 -0.564954,-0.310192 -0.995597,-0.310192 -0.569216,0 -1.038232,0.218517 -1.117116,0.503129 a 1.5328328,1.5328327 0 0 1 0.263292,-0.873012 0.89432999,0.89432999 0 0 1 0.765348,-0.360289 z" style="stroke-width:.106595"/><path id="path20" fill="#ff8d4e" d="m 17.902965,13.68841 q 0,-1.038233 -0.358161,-1.694858 a 2.2225009,2.2225009 0 0 0 -0.91032,-0.948695 2.4655369,2.4655369 0 0 0 -1.152288,-0.28887 3.0422147,3.0422147 0 0 0 -1.539228,0.364555 2.3205682,2.3205682 0 0 0 -0.949757,1.005187 3.2458108,3.2458107 0 0 0 -0.319787,1.451818 3.3236248,3.3236248 0 0 0 0.319787,1.471011 2.3909204,2.3909204 0 0 0 0.949757,1.027575 2.9548069,2.9548069 0 0 0 1.539228,0.37841 4.4151557,4.4151558 0 0 0 1.378273,-0.181209 4.9545239,4.9545239 0 0 0 0.920978,-0.402928 v -1.20559 q -1.058486,0.551096 -1.93363,0.551096 A 1.4198424,1.4198423 0 0 1 14.462082,14.07535 h 3.440884 z m -2.529494,-1.737497 a 0.78347138,0.78347138 0 0 1 0.670478,0.319785 1.3335007,1.3335006 0 0 1 0.230245,0.746165 c -0.09913,-0.200398 -0.478608,-0.348567 -0.932704,-0.348567 -0.454092,0 -0.831438,0.148169 -0.932702,0.347501 a 1.2290375,1.2290375 0 0 1 0.263287,-0.746165 0.86554927,0.86554927 0 0 1 0.701396,-0.318719 z" style="stroke-width:.106595"/><path id="path21" fill="#c25581" d="m 23.417111,11.683361 a 2.647814,2.647814 0 0 0 -1.08407,-1.14696 Q 21.608199,10.119616 20.57636,10.119616 a 2.8130361,2.813036 0 0 0 -1.314313,0.330443 2.5358896,2.5358896 0 0 0 -1.042497,1.079808 2.9707961,2.9707961 0 0 0 -0.249431,0.623579 4.2190209,4.2190209 0 0 1 0.252629,1.534964 v 0.221717 h 3.517623 a 1.6202405,1.6202406 0 0 1 -1.586126,1.301521 c -0.62571,0 -1.313249,-0.187606 -2.060477,-0.557489 v 1.385729 a 5.982098,5.982098 0 0 0 0.906055,0.380543 5.0376693,5.0376693 0 0 0 1.578669,0.201468 q 1.031837,0 1.756683,-0.431709 a 2.72776,2.72776 0 0 0 1.084069,-1.172542 3.7926418,3.7926418 0 0 0 0.357092,-1.677805 3.7041682,3.7041682 0 0 0 -0.359225,-1.656482 z m -2.719233,-0.200396 a 0.98813331,0.98813331 0 0 1 0.798395,0.366685 1.3271048,1.3271048 0 0 1 0.28461,0.673679 c -0.190808,-0.184409 -0.564954,-0.310192 -0.995597,-0.310192 -0.569216,0 -1.038232,0.218517 -1.117116,0.503129 a 1.5328328,1.5328327 0 0 1 0.263292,-0.873012 0.89432999,0.89432999 0 0 1 0.765348,-0.360289 z" style="stroke-width:.106595"/><path id="path22" fill="#ff8d4e" d="m 17.902965,13.68841 q 0,-1.038233 -0.358161,-1.694858 a 2.2225009,2.2225009 0 0 0 -0.91032,-0.948695 2.4655369,2.4655369 0 0 0 -1.152288,-0.28887 3.0422147,3.0422147 0 0 0 -1.539228,0.364555 2.3205682,2.3205682 0 0 0 -0.949757,1.005187 3.2458108,3.2458107 0 0 0 -0.319787,1.451818 3.3236248,3.3236248 0 0 0 0.319787,1.471011 2.3909204,2.3909204 0 0 0 0.949757,1.027575 2.9548069,2.9548069 0 0 0 1.539228,0.37841 4.4151557,4.4151558 0 0 0 1.378273,-0.181209 4.9545239,4.9545239 0 0 0 0.920978,-0.402928 v -1.20559 q -1.058486,0.551096 -1.93363,0.551096 A 1.4198424,1.4198423 0 0 1 14.462082,14.07535 h 3.440884 z m -2.529494,-1.737497 a 0.78347138,0.78347138 0 0 1 0.670478,0.319785 1.3335007,1.3335006 0 0 1 0.230245,0.746165 c -0.09913,-0.200398 -0.478608,-0.348567 -0.932704,-0.348567 -0.454092,0 -0.831438,0.148169 -0.932702,0.347501 a 1.2290375,1.2290375 0 0 1 0.263287,-0.746165 0.86554927,0.86554927 0 0 1 0.701396,-0.318719 z" style="stroke-width:.106595"/><path id="path23" fill="#c25581" d="m 23.417111,11.683361 a 2.647814,2.647814 0 0 0 -1.08407,-1.14696 Q 21.608199,10.119616 20.57636,10.119616 a 2.8130361,2.813036 0 0 0 -1.314313,0.330443 2.5358896,2.5358896 0 0 0 -1.042497,1.079808 2.9707961,2.9707961 0 0 0 -0.249431,0.623579 4.2190209,4.2190209 0 0 1 0.252629,1.534964 v 0.221717 h 3.517623 a 1.6202405,1.6202406 0 0 1 -1.586126,1.301521 c -0.62571,0 -1.313249,-0.187606 -2.060477,-0.557489 v 1.385729 a 5.982098,5.982098 0 0 0 0.906055,0.380543 5.0376693,5.0376693 0 0 0 1.578669,0.201468 q 1.031837,0 1.756683,-0.431709 a 2.72776,2.72776 0 0 0 1.084069,-1.172542 3.7926418,3.7926418 0 0 0 0.357092,-1.677805 3.7041682,3.7041682 0 0 0 -0.359225,-1.656482 z m -2.719233,-0.200396 a 0.98813331,0.98813331 0 0 1 0.798395,0.366685 1.3271048,1.3271048 0 0 1 0.28461,0.673679 c -0.190808,-0.184409 -0.564954,-0.310192 -0.995597,-0.310192 -0.569216,0 -1.038232,0.218517 -1.117116,0.503129 a 1.5328328,1.5328327 0 0 1 0.263292,-0.873012 0.89432999,0.89432999 0 0 1 0.765348,-0.360289 z" style="stroke-width:.106595"/></g><path style="fill:#ff8d4e;fill-opacity:1;stroke-width:3.863;stroke-linecap:round;stroke-linejoin:round;paint-order:stroke fill markers" id="path2" d="M 7.4551793,10.314 8.990168,8.0339897 11.456647,11.780939 8.4372933,11.778223 Z"/></g></svg>