<?xml version="1.0" encoding="UTF-8" standalone="no"?>
<!-- Generator: Adobe Illustrator 19.1.1, SVG Export Plug-In . SVG Version: 6.00 Build 0)  -->

<svg
   xmlns:dc="http://purl.org/dc/elements/1.1/"
   xmlns:cc="http://creativecommons.org/ns#"
   xmlns:rdf="http://www.w3.org/1999/02/22-rdf-syntax-ns#"
   xmlns:svg="http://www.w3.org/2000/svg"
   xmlns="http://www.w3.org/2000/svg"
   xmlns:sodipodi="http://sodipodi.sourceforge.net/DTD/sodipodi-0.dtd"
   xmlns:inkscape="http://www.inkscape.org/namespaces/inkscape"
   version="1.1"
   id="Calque_1"
   x="0px"
   y="0px"
   viewBox="0 0 654.8 263.6"
   style="enable-background:new 0 0 654.8 263.6;"
   xml:space="preserve"
   inkscape:version="0.91 r13725"
   sodipodi:docname="Worldline.svg"><metadata
     id="metadata67"><rdf:RDF><cc:Work
         rdf:about=""><dc:format>image/svg+xml</dc:format><dc:type
           rdf:resource="http://purl.org/dc/dcmitype/StillImage" /><dc:title></dc:title></cc:Work></rdf:RDF></metadata><defs
     id="defs65" /><sodipodi:namedview
     pagecolor="#ffffff"
     bordercolor="#666666"
     borderopacity="1"
     objecttolerance="10"
     gridtolerance="10"
     guidetolerance="10"
     inkscape:pageopacity="0"
     inkscape:pageshadow="2"
     inkscape:window-width="1007"
     inkscape:window-height="480"
     id="namedview63"
     showgrid="false"
     inkscape:zoom="0.64294442"
     inkscape:cx="327.39999"
     inkscape:cy="131.8"
     inkscape:window-x="89"
     inkscape:window-y="597"
     inkscape:window-maximized="0"
     inkscape:current-layer="Calque_1" /><style
     type="text/css"
     id="style3">
	.st0{fill:#006EAB;}
	.st1{fill:none;}
</style><g
     id="g5"><g
       id="g7"><path
         class="st0"
         d="M365.8,63.2h-9.5v24.1c-3.8-3.4-8.4-5.4-16.4-5.4c-13.4,0-26.8,8.8-26.8,33.5c0,7.6,1.5,13.9,4.1,18.7    c-1.9,0.5-3.9,0.9-6,0.9c-5.4,0-8-1.8-8-8v-16.1h0v-38c0-8.4-1-9.8-6.8-9.8h-9.4v47.9v16.2v1.9c0,14.1,6.8,17.6,15.9,17.6    c7,0,14.2-2.4,19.8-5.7c4.3,3.8,9.7,5.7,15.7,5.7c8.3,0,14.4-3.5,18.4-8c0.7,5.9,2.3,7.2,5,7.2h11V73.1    C372.7,64.8,371.7,63.2,365.8,63.2 M356.3,129.1c-4.4,3.7-7.9,5.5-13,5.5c-8.4,0-12.5-5.5-12.5-19.9c0-15.7,7.3-19.3,14.5-19.3    c4.8,0,8.3,1.1,11,3.1V129.1z"
         id="path9" /><path
         class="st0"
         d="M260,90.6c-0.6-6.2-2.4-7.1-5.4-7.1h-10.9V146h16.6v-45.4c3.4-1.8,9.5-3.7,18.1-3.7h3V83.1    c-1.2-0.4-2.5-0.6-3.8-0.6C269.8,82.5,264,86.4,260,90.6"
         id="path11" /><path
         class="st0"
         d="M423.2,80.1c5.3,0,9.5-4.1,9.5-9.2c0-5.2-4.2-9.4-9.5-9.4c-5.3,0-9.6,4.2-9.6,9.4    C413.7,76,418,80.1,423.2,80.1"
         id="path13" /><path
         class="st0"
         d="M206.7,147.5L206.7,147.5c17.8,0,32.7-14.6,32.7-32.7c0-13.5-8.3-25.2-20-30.2h0c-3.9-1.7-8.2-2.6-12.7-2.6    c-1.2,0-2.3,0.1-3.4,0.2c-4,5.4-6.3,12.1-6.3,19.3c0,13.6,8.3,25.2,20,30.1c-3,2.1-6.5,3.3-10.3,3.3c-10.4,0-18.9-9-18.9-20.2    c0-4.8,1.6-9.2,4.2-12.6c0-5.1,1.8-14.4,4.5-18.5C183.4,88,174,100.5,174,114.8C174,133,188.9,147.5,206.7,147.5 M210.8,101.6    c0-2.1,0.3-4.2,0.9-6.1c8,2.3,13.9,10.1,13.9,19.4c0,2.1-0.3,4.2-0.9,6.2C216.7,118.6,210.8,110.9,210.8,101.6"
         id="path15" /><path
         class="st0"
         d="M571.2,113.2c0-20.7-9.8-30.9-28.3-30.9c-17.5,0-30.7,12.4-30.7,32.7c0,7.6,1.7,14.1,4.9,19.2    c-2.2,0.7-4.5,1.2-7,1.2c-4.7,0-7.3-1.4-7.8-5.8V99.4c0-14.1-7.8-17.6-16.9-17.6c-8.4,0-15.9,3.6-21.8,7.9    c-0.7-5.4-2.4-6.1-5.4-6.1h-10.9V132c-2.4,0.8-5.1,1.5-7.8,1.5c-5.3,0-7.9-1.8-8-7.8V95c0-9.6-0.8-11.5-6.6-11.5h-9.7v25.8v18.1    v0.3v6.1c-2.5,0.8-5.2,1.6-8.1,1.6c-5.4,0-8-1.8-8-8l0-54.3c0-8.4-1-9.8-6.8-9.8H383v48.1v16v2.2c0,14.1,6.8,17.6,15.9,17.6    c7.3,0,14.7-2.5,20.4-6c2.9,3.1,7.1,4.1,11.9,4.1c5.6,0,11.3-1.5,16.2-3.8v4.6h16.5V98.9c4-1.4,8.9-2.9,14.3-2.9    c5.4,0,7.8,1.8,7.8,8v7.2h0v18.2c0,14.1,6.8,17.6,15.9,17.6c7.6,0,15.3-2.7,21.1-6.5c5.2,4.2,12.4,6.5,21.3,6.5    c12.6,0,19.6-3.2,24.7-6.1v-11.5h-5.4c-4.1,3-9.6,5.3-16.7,5.3c-9.7,0-15.7-3.5-16.5-16.1H571C571,118,571.2,115.4,571.2,113.2     M530.5,108.1c1.3-11.7,6.3-14.7,12.5-14.7c6.8,0,10.7,3.6,11,14.7H530.5z"
         id="path17" /><path
         class="st0"
         d="M90.2,96.9l14.1,49.4h13.8l11.9-40.3l11.8,40.3h13.8L170,97c0.5-1.8,1.7-2.7,3.3-2.7h3.6V83.6h-26.6v10.7h4.3    c0.9,0,2,0.1,2.4,0.7c0.3,0.4,0.6,1.5-0.2,4.1l-7,25.6l-11.9-41h-12.8l-11.8,41L105,94.3h6.4V83.6H83.6v10.7h3.9    C88.6,94.3,89.8,95.4,90.2,96.9"
         id="path19" /></g><g
       id="g21"><g
         id="g23"><path
           class="st0"
           d="M311.6,172.8c0.2,3.1,1.6,4.6,4.1,4.6c2,0,2.7-0.7,3.5-1.7h2.5v2.9c-1.3,0.8-3,1.5-6.3,1.5     c-5.5,0-8.2-3.1-8.2-8.1c0-5.1,3.2-8.2,7.9-8.2c4.7,0,7.2,2.4,7.2,7.8c0,0.5-0.1,1.1-0.1,1.2H311.6z M311.6,170.3h6.2     c-0.2-2.8-1-3.9-2.8-3.9C313.2,166.5,312,167.6,311.6,170.3z"
           id="path25" /><path
           class="st0"
           d="M323.4,169.3h7v3.3h-7V169.3z"
           id="path27" /><path
           class="st0"
           d="M331.4,182.5h1.1c0.4,0,0.8-0.4,0.8-0.8v-14.1c0-0.3-0.4-0.8-0.8-0.8h-1.2v-2.7h5.4c0.5,0,0.8,0.4,0.9,1.8     c1.2-1.2,2.7-2.1,4.8-2.1c3,0,6,2.2,6,7.8c0,5.9-3.5,8-6.8,8c-1.8,0-3-0.4-3.9-1.1v3.9h2v2.4h-8.2V182.5z M337.6,167.6v8.8     c0.7,0.4,1.4,0.7,2.6,0.7c1.8,0,3.7-0.8,3.7-5.1c0-4-1.7-5-3.6-5C339.5,167,338.5,167.3,337.6,167.6z"
           id="path29" /><path
           class="st0"
           d="M349.1,175.3c0-3.3,2.6-4.8,6.2-4.8c1.3,0,2.2,0.1,3.2,0.4v-1.7c0-1.6-0.9-2.4-2.7-2.4     c-1.9,0-2.9,0.7-3.7,1.4h-2v-3.2c1.5-0.7,3.5-1.2,6.5-1.2c4.1,0,6.3,1.3,6.3,4.9v7.9c0,0.4,0.4,0.8,0.8,0.8h0.8v2.1     c-0.6,0.4-1.5,0.6-2.7,0.6c-1.8,0-2.8-0.7-3.2-2c-1.2,1.4-2.7,2-4.6,2C351.3,180.1,349.1,178.5,349.1,175.3z M358.6,176.4V173     c-0.7-0.1-1.5-0.2-2.3-0.2c-1.8,0-2.9,0.7-2.9,2.3c0,1.6,0.9,2.4,2.4,2.4C357,177.5,357.9,177.1,358.6,176.4z"
           id="path31" /><path
           class="st0"
           d="M367.5,184.8v-2.3c1.7-0.5,3.2-1.4,4.3-2.8l-5.2-12.1c-0.2-0.5-0.5-0.8-0.9-0.8H365v-2.7h7.7v2.7h-2.1     l3.4,8.2l2.5-6.2c0.5-1.1,0.6-2-0.7-2h-0.5v-2.7h7v2.7h-0.7c-0.4,0-0.8,0.4-1.1,0.9l-5.2,11.7c-1.2,2.7-2.8,4.5-4.3,5.5H367.5z"
           id="path33" /><path
           class="st0"
           d="M383,177.4h1.1c0.4,0,0.8-0.4,0.8-0.8v-9.1c0-0.3-0.4-0.8-0.8-0.8h-1.2v-2.7h5.4c0.5,0,0.8,0.4,0.9,2.1     c1.3-1.1,3.2-2.3,5.6-2.3c1.7,0,3.3,0.6,3.8,2.5c1.4-1.2,3.3-2.5,5.8-2.5c2.1,0,4,0.9,4,4v8.9c0,0.4,0.4,0.8,0.8,0.8h0.8v2.5     h-7.7v-2.5h1.7v-8.2c0-1.5-0.5-1.9-1.9-1.9c-1.1,0-2.3,0.2-3.3,0.6v9.6h1.7v2.5h-7.8v-2.5h1.7v-8.2c0-1.5-0.5-1.9-1.9-1.9     c-1.1,0-2.3,0.2-3.3,0.6v9.6h1.7v2.5H383V177.4z"
           id="path35" /><path
           class="st0"
           d="M415.1,172.8c0.2,3.1,1.6,4.6,4.1,4.6c2,0,2.7-0.7,3.5-1.7h2.5v2.9c-1.3,0.8-3,1.5-6.3,1.5     c-5.5,0-8.2-3.1-8.2-8.1c0-5.1,3.2-8.2,7.9-8.2c4.7,0,7.2,2.4,7.2,7.8c0,0.5-0.1,1.1-0.1,1.2H415.1z M415.2,170.3h6.2     c-0.2-2.8-1-3.9-2.8-3.9C416.7,166.5,415.5,167.6,415.2,170.3z"
           id="path37" /><path
           class="st0"
           d="M426.4,177.4h1.1c0.4,0,0.8-0.4,0.8-0.8v-9.1c0-0.3-0.4-0.8-0.8-0.8h-1.2v-2.7h5.4c0.5,0,0.8,0.4,0.9,2.1     c1.5-1.4,3.5-2.3,5.9-2.3c2.2,0,4.1,0.9,4.1,4v8.9c0,0.4,0.4,0.8,0.8,0.8h0.8v2.5h-7.8v-2.5h1.8v-8.1c0-1.6-0.6-2-2.1-2     c-1.3,0-2.4,0.3-3.5,0.6v9.5h1.8v2.5h-8.1V177.4z"
           id="path39" /><path
           class="st0"
           d="M444.6,164.1h1.9v-4.2h4.4v4.2h3.2v2.7h-3.2v8.7c0,1.7,0.6,2,2.2,2h1.1v2.4c-0.7,0.2-1.6,0.4-2.8,0.4     c-3,0-4.9-1-4.9-4.3v-9.2h-1.9V164.1z"
           id="path41" /><path
           class="st0"
           d="M460,179.3v-3.6h2.5c0.4,1.1,1.8,1.8,3.2,1.8c1.7,0,2.7-0.7,2.7-1.9c0-1.2-0.7-1.7-3.2-2     c-3.4-0.5-5-1.7-5-4.8c0-3.1,2.4-4.9,6.5-4.9c2.5,0,4.2,0.3,5.4,0.7v3.5h-2.4c-0.5-0.9-1.5-1.5-3.1-1.5c-1.6,0-2.5,0.7-2.5,1.7     c0,1,0.6,1.5,3.3,1.9c3.8,0.6,5.4,1.6,5.4,4.8c0,3.1-2.1,5.1-6.9,5.1C462.8,180.1,461.3,179.7,460,179.3z"
           id="path43" /><path
           class="st0"
           d="M477.8,172.8c0.2,3.1,1.6,4.6,4.1,4.6c2,0,2.7-0.7,3.5-1.7h2.5v2.9c-1.3,0.8-3,1.5-6.3,1.5     c-5.5,0-8.2-3.1-8.2-8.1c0-5.1,3.2-8.2,7.9-8.2c4.7,0,7.2,2.4,7.2,7.8c0,0.5-0.1,1.1-0.1,1.2H477.8z M477.9,170.3h6.2     c-0.2-2.8-1-3.9-2.8-3.9C479.4,166.5,478.2,167.6,477.9,170.3z"
           id="path45" /><path
           class="st0"
           d="M489.1,177.4h1.1c0.4,0,0.8-0.4,0.8-0.8v-9.1c0-0.3-0.4-0.8-0.8-0.8H489v-2.7h5.4c0.5,0,0.8,0.5,0.9,2.3     c1.1-1.3,2.3-2.4,4.4-2.4c0.3,0,0.7,0.1,1,0.2v3.3h-0.8c-2.3,0-3.7,0.5-4.6,1v9.1h2.2v2.5h-8.4V177.4z"
           id="path47" /><path
           class="st0"
           d="M502.7,167.6c-0.2-0.5-0.5-0.8-1-0.8h-0.6v-2.7h7.7v2.7h-2l3.2,9h0.1l2.6-7.1c0.4-1.2,0.5-2-0.8-2h-0.5v-2.7     h6.7v2.7h-0.5c-0.5,0-0.9,0.4-1.1,0.9l-5,12.2h-3.8L502.7,167.6z"
           id="path49" /><path
           class="st0"
           d="M518.7,177.4h1.1c0.4,0,0.7-0.4,0.7-0.8v-9.1c0-0.3-0.4-0.8-0.7-0.8h-1.3v-2.7h5.7c0.5,0,0.7,0.5,0.7,1.7     v10.9c0,0.4,0.4,0.8,0.8,0.8h1.1v2.5h-8.2V177.4z M520.4,160.5c0-1.3,1.1-2.4,2.4-2.4c1.3,0,2.4,1.1,2.4,2.4     c0,1.3-1.1,2.3-2.4,2.3C521.5,162.9,520.4,161.8,520.4,160.5z"
           id="path51" /><path
           class="st0"
           d="M527.6,172.1c0-5.1,3.3-8.2,8.4-8.2c2.6,0,4.3,0.4,5.3,0.8v3.6h-2.7c-0.5-1.1-1.2-1.6-2.8-1.6     c-2.4,0-3.8,1.7-3.8,5.4c0,3.8,1.2,5.3,3.8,5.3c2,0,2.7-0.9,3.4-1.7h2.1v3.1c-1.2,0.7-2.9,1.3-5.6,1.3     C530.3,180.1,527.6,177.1,527.6,172.1z"
           id="path53" /><path
           class="st0"
           d="M547.2,172.8c0.2,3.1,1.6,4.6,4.1,4.6c2,0,2.7-0.7,3.5-1.7h2.5v2.9c-1.3,0.8-3,1.5-6.3,1.5     c-5.5,0-8.2-3.1-8.2-8.1c0-5.1,3.2-8.2,7.9-8.2c4.7,0,7.2,2.4,7.2,7.8c0,0.5-0.1,1.1-0.1,1.2H547.2z M547.3,170.3h6.2     c-0.2-2.8-1-3.9-2.8-3.9C548.8,166.5,547.6,167.6,547.3,170.3z"
           id="path55" /><path
           class="st0"
           d="M558.6,179.3v-3.6h2.5c0.4,1.1,1.8,1.8,3.2,1.8c1.7,0,2.7-0.7,2.7-1.9c0-1.2-0.7-1.7-3.2-2     c-3.4-0.5-5-1.7-5-4.8c0-3.1,2.4-4.9,6.5-4.9c2.5,0,4.2,0.3,5.4,0.7v3.5h-2.4c-0.5-0.9-1.5-1.5-3.1-1.5c-1.6,0-2.5,0.7-2.5,1.7     c0,1,0.6,1.5,3.3,1.9c3.8,0.6,5.4,1.6,5.4,4.8c0,3.1-2.1,5.1-6.9,5.1C561.5,180.1,559.9,179.7,558.6,179.3z"
           id="path57" /></g></g></g><g
     id="g59"><rect
       class="st1"
       width="654.8"
       height="263.6"
       id="rect61" /></g></svg>