<?xml version="1.0" encoding="UTF-8" standalone="no"?>
<!-- Created with Inkscape (http://www.inkscape.org/) -->

<svg
   xmlns:dc="http://purl.org/dc/elements/1.1/"
   xmlns:cc="http://creativecommons.org/ns#"
   xmlns:rdf="http://www.w3.org/1999/02/22-rdf-syntax-ns#"
   xmlns:svg="http://www.w3.org/2000/svg"
   xmlns="http://www.w3.org/2000/svg"
   xmlns:sodipodi="http://sodipodi.sourceforge.net/DTD/sodipodi-0.dtd"
   xmlns:inkscape="http://www.inkscape.org/namespaces/inkscape"
   id="svg4171"
   version="1.1"
   inkscape:version="0.91 r13725"
   xml:space="preserve"
   width="464.35501"
   height="464.35501"
   viewBox="0 0 464.35501 464.35501"
   sodipodi:docname="logo-ldlc.svg"><metadata
     id="metadata4177"><rdf:RDF><cc:Work
         rdf:about=""><dc:format>image/svg+xml</dc:format><dc:type
           rdf:resource="http://purl.org/dc/dcmitype/StillImage" /><dc:title></dc:title></cc:Work></rdf:RDF></metadata><defs
     id="defs4175"><clipPath
       clipPathUnits="userSpaceOnUse"
       id="clipPath4189"><path
         d="m 104.601,151.132 59.165,-0.021 c 15.25,0 23.87,9.139 23.877,23.565 l 0,0 c 0.003,17.844 -11.101,24.997 -28.549,25.001 l 0,0 -18.431,0.005 -0.009,-32.98 -15.487,0.002 0.005,32.983 -20.563,0.005 -0.008,-48.56 z m 54.138,14.537 0.003,18.807 1.174,0 c 6.895,0 11.104,-2.898 11.101,-9.727 l 0,0 c -0.003,-6.375 -4.83,-9.082 -11.107,-9.082 l 0,0 -1.171,0.002 z"
         id="path4191"
         inkscape:connector-curvature="0" /></clipPath><linearGradient
       x1="0"
       y1="0"
       x2="1"
       y2="0"
       gradientUnits="userSpaceOnUse"
       gradientTransform="matrix(-19.277637,28.240047,28.240047,19.277637,152.54036,158.14452)"
       spreadMethod="pad"
       id="linearGradient4197"><stop
         style="stop-opacity:1;stop-color:#656263"
         offset="0"
         id="stop4199" /><stop
         style="stop-opacity:1;stop-color:#868484"
         offset="1"
         id="stop4201" /></linearGradient><clipPath
       clipPathUnits="userSpaceOnUse"
       id="clipPath4209"><path
         d="m 223.924,174.926 c 0,-2.914 0.537,-5.678 1.484,-8.243 l 0,0 -16.517,0 0.009,32.98 -18.896,0.008 -0.018,-48.567 36.862,-0.007 0.008,12.387 c 4.345,-7.897 13.111,-13.166 23.486,-13.171 l 0,0 c 3.304,0 10.068,0.554 13.215,1.834 l 0,0 0,17.585 c -2.847,-2.367 -6.069,-3.834 -10.047,-3.831 l 0,0 c -5.651,0.004 -10.546,4.125 -10.546,9.469 l 0,0 c 0,5.278 4.626,9.473 10.284,9.466 l 0,0 c 3.918,0 7.418,-1.898 10.309,-4.247 l 0,0 0,17.902 c -3.938,1.242 -8.259,1.931 -12.452,1.931 l 0,0 c -15.236,0.006 -27.174,-11.328 -27.181,-25.496"
         id="path4211"
         inkscape:connector-curvature="0" /></clipPath><linearGradient
       x1="0"
       y1="0"
       x2="1"
       y2="0"
       gradientUnits="userSpaceOnUse"
       gradientTransform="matrix(20.29225,-20.123148,-20.123148,-20.29225,215.92738,185.55183)"
       spreadMethod="pad"
       id="linearGradient4217"><stop
         style="stop-opacity:1;stop-color:#423e3f"
         offset="0"
         id="stop4219" /><stop
         style="stop-opacity:1;stop-color:#231f20"
         offset="1"
         id="stop4221" /></linearGradient><clipPath
       clipPathUnits="userSpaceOnUse"
       id="clipPath4229"><path
         d="m 0,371.484 371.484,0 L 371.484,0 0,0 0,371.484 Z"
         id="path4231"
         inkscape:connector-curvature="0" /></clipPath></defs><sodipodi:namedview
     pagecolor="#ffffff"
     bordercolor="#666666"
     borderopacity="1"
     objecttolerance="10"
     gridtolerance="10"
     guidetolerance="10"
     inkscape:pageopacity="0"
     inkscape:pageshadow="2"
     inkscape:window-width="3751"
     inkscape:window-height="2127"
     id="namedview4173"
     showgrid="false"
     inkscape:zoom="4.1476886"
     inkscape:cx="232.17751"
     inkscape:cy="232.17751"
     inkscape:window-x="89"
     inkscape:window-y="33"
     inkscape:window-maximized="1"
     inkscape:current-layer="g4179" /><g
     id="g4179"
     inkscape:groupmode="layer"
     inkscape:label="LOGO-GROUPE-2016"
     transform="matrix(1.25,0,0,-1.25,0,464.355)"><path
       d="m 0,0 371.483,0 0,371.484 L 0,371.484 0,0 Z"
       style="fill:#ffffff;fill-opacity:1;fill-rule:nonzero;stroke:none"
       id="path4181"
       inkscape:connector-curvature="0" /><path
       d="m 315.828,100.176 -263.385,0 0,172.903 263.385,0 0,-172.903 z"
       style="fill:none;stroke:#100f0d;stroke-width:0.259;stroke-linecap:butt;stroke-linejoin:miter;stroke-miterlimit:10;stroke-dasharray:none;stroke-opacity:1"
       id="path4183"
       inkscape:connector-curvature="0" /><g
       id="g4185"><g
         id="g4187"
         clip-path="url(#clipPath4189)"><g
           id="g4193"><g
             id="g4195"><path
               d="m 104.601,151.132 59.165,-0.021 c 15.25,0 23.87,9.139 23.877,23.565 l 0,0 c 0.003,17.844 -11.101,24.997 -28.549,25.001 l 0,0 -18.431,0.005 -0.009,-32.98 -15.487,0.002 0.005,32.983 -20.563,0.005 -0.008,-48.56 z m 54.138,14.537 0.003,18.807 1.174,0 c 6.895,0 11.104,-2.898 11.101,-9.727 l 0,0 c -0.003,-6.375 -4.83,-9.082 -11.107,-9.082 l 0,0 -1.171,0.002 z"
               style="fill:url(#linearGradient4197);stroke:none"
               id="path4203"
               inkscape:connector-curvature="0" /></g></g></g></g><g
       id="g4205"><g
         id="g4207"
         clip-path="url(#clipPath4209)"><g
           id="g4213"><g
             id="g4215"><path
               d="m 223.924,174.926 c 0,-2.914 0.537,-5.678 1.484,-8.243 l 0,0 -16.517,0 0.009,32.98 -18.896,0.008 -0.018,-48.567 36.862,-0.007 0.008,12.387 c 4.345,-7.897 13.111,-13.166 23.486,-13.171 l 0,0 c 3.304,0 10.068,0.554 13.215,1.834 l 0,0 0,17.585 c -2.847,-2.367 -6.069,-3.834 -10.047,-3.831 l 0,0 c -5.651,0.004 -10.546,4.125 -10.546,9.469 l 0,0 c 0,5.278 4.626,9.473 10.284,9.466 l 0,0 c 3.918,0 7.418,-1.898 10.309,-4.247 l 0,0 0,17.902 c -3.938,1.242 -8.259,1.931 -12.452,1.931 l 0,0 c -15.236,0.006 -27.174,-11.328 -27.181,-25.496"
               style="fill:url(#linearGradient4217);stroke:none"
               id="path4223"
               inkscape:connector-curvature="0" /></g></g></g></g><g
       id="g4225"><g
         id="g4227"
         clip-path="url(#clipPath4229)"><g
           id="g4233"
           transform="translate(104.2809,215.238)"><path
             d="m 0,0 0,0.042 c 0,4.058 2.939,7.77 7.425,7.77 2.447,0 3.992,-0.708 5.494,-1.975 L 12.188,5 C 11.009,6.031 9.615,6.803 7.36,6.803 3.69,6.803 1.159,3.714 1.159,0.086 l 0,-0.044 c 0,-3.883 2.423,-6.78 6.437,-6.78 1.889,0 3.691,0.793 4.787,1.716 l 0,4.314 -5.023,0 0,1.03 6.096,0 0,-5.795 C 12.082,-6.675 10.022,-7.726 7.554,-7.726 2.81,-7.726 0,-4.229 0,0"
             style="fill:#100f0d;fill-opacity:1;fill-rule:nonzero;stroke:none"
             id="path4235"
             inkscape:connector-curvature="0" /></g><g
           id="g4237"
           transform="translate(141.2697,215.0022)"><path
             d="m 0,0 c 2.511,0 4.379,1.288 4.379,3.434 l 0,0.042 c 0,2.039 -1.567,3.283 -4.315,3.283 l -5.128,0 L -5.064,0 0,0 Z m -6.181,7.791 6.31,0 C 1.996,7.791 3.434,7.233 4.356,6.309 5.066,5.601 5.494,4.613 5.494,3.52 l 0,-0.044 c 0,-2.511 -1.889,-3.948 -4.398,-4.292 l 4.957,-6.417 -1.417,0 -4.786,6.225 -0.042,0 -4.872,0 0,-6.225 -1.117,0 0,15.024 z"
             style="fill:#100f0d;fill-opacity:1;fill-rule:nonzero;stroke:none"
             id="path4239"
             inkscape:connector-curvature="0" /></g><g
           id="g4241"
           transform="translate(177.2062,215.238)"><path
             d="m 0,0 0,0.042 c 0,3.713 -2.703,6.761 -6.417,6.761 -3.711,0 -6.373,-3.004 -6.373,-6.717 l 0,-0.044 c 0,-3.711 2.704,-6.759 6.417,-6.759 C -2.662,-6.717 0,-3.713 0,0 m -13.948,0 0,0.042 c 0,4.121 3.025,7.77 7.575,7.77 4.549,0 7.534,-3.626 7.534,-7.726 0.021,-0.021 0.021,-0.021 0,-0.044 0,-4.121 -3.027,-7.768 -7.578,-7.768 -4.548,0 -7.531,3.626 -7.531,7.726"
             style="fill:#100f0d;fill-opacity:1;fill-rule:nonzero;stroke:none"
             id="path4243"
             inkscape:connector-curvature="0" /></g><g
           id="g4245"
           transform="translate(195.2453,214.0149)"><path
             d="m 0,0 0,8.778 1.116,0 0,-8.672 c 0,-3.584 1.89,-5.579 5.086,-5.579 3.027,0 5.001,1.845 5.001,5.473 l 0,8.778 1.116,0 0,-8.649 c 0,-4.293 -2.51,-6.61 -6.159,-6.61 C 2.555,-6.481 0,-4.206 0,0"
             style="fill:#100f0d;fill-opacity:1;fill-rule:nonzero;stroke:none"
             id="path4247"
             inkscape:connector-curvature="0" /></g><g
           id="g4249"
           transform="translate(230.3449,214.4011)"><path
             d="m 0,0 c 2.789,0 4.678,1.438 4.678,3.691 l 0,0.043 c 0,2.382 -1.866,3.626 -4.549,3.626 l -4.25,0 0,-7.36 L 0,0 Z m -5.237,8.392 5.452,0 c 3.305,0 5.58,-1.696 5.58,-4.593 l 0,-0.044 c 0,-3.176 -2.706,-4.786 -5.859,-4.786 l -4.057,0 0,-5.601 -1.116,0 0,15.024 z"
             style="fill:#100f0d;fill-opacity:1;fill-rule:nonzero;stroke:none"
             id="path4251"
             inkscape:connector-curvature="0" /></g><g
           id="g4253"
           transform="translate(252.7609,222.7927)"><path
             d="m 0,0 10.688,0 0,-1.031 -9.571,0 0,-5.901 8.607,0 0,-1.029 -8.607,0 0,-6.031 9.679,0 0,-1.031 L 0,-15.023 0,0 Z"
             style="fill:#100f0d;fill-opacity:1;fill-rule:nonzero;stroke:none"
             id="path4255"
             inkscape:connector-curvature="0" /></g></g></g></g></svg>