<?xml version="1.0" encoding="UTF-8" standalone="no"?>
<svg
   xmlns:dc="http://purl.org/dc/elements/1.1/"
   xmlns:cc="http://creativecommons.org/ns#"
   xmlns:rdf="http://www.w3.org/1999/02/22-rdf-syntax-ns#"
   xmlns:svg="http://www.w3.org/2000/svg"
   xmlns="http://www.w3.org/2000/svg"
   xmlns:sodipodi="http://sodipodi.sourceforge.net/DTD/sodipodi-0.dtd"
   xmlns:inkscape="http://www.inkscape.org/namespaces/inkscape"
   style="clip-rule:evenodd;fill-rule:evenodd;image-rendering:optimizeQuality;shape-rendering:geometricPrecision;text-rendering:geometricPrecision"
   width="7.8000002in"
   height="2.5in"
   viewBox="653 670 6853.3322 1182.9957"
   version="1.1"
   id="svg39"
   sodipodi:docname="logo-sopra-steria.svg"
   inkscape:version="0.92.1 r">
  <metadata
     id="metadata43">
    <rdf:RDF>
      <cc:Work
         rdf:about="">
        <dc:format>image/svg+xml</dc:format>
        <dc:type
           rdf:resource="http://purl.org/dc/dcmitype/StillImage" />
        <dc:title></dc:title>
      </cc:Work>
    </rdf:RDF>
  </metadata>
  <sodipodi:namedview
     pagecolor="#ffffff"
     bordercolor="#666666"
     borderopacity="1"
     objecttolerance="10"
     gridtolerance="10"
     guidetolerance="10"
     inkscape:pageopacity="0"
     inkscape:pageshadow="2"
     inkscape:window-width="1511"
     inkscape:window-height="908"
     id="namedview41"
     showgrid="false"
     inkscape:zoom="1.251"
     inkscape:cx="503.07345"
     inkscape:cy="92.513652"
     inkscape:window-x="0"
     inkscape:window-y="27"
     inkscape:window-maximized="0"
     inkscape:current-layer="svg39" />
  <defs
     id="defs4">
    <style
       type="text/css"
       id="style2">
   
    .fil1 {fill:#373435;fill-rule:nonzero}
    .fil2 {fill:#DB353D;fill-rule:nonzero}
    .fil0 {fill:#F58634;fill-rule:nonzero}
   
  </style>
  </defs>
  <g
     id="g3751"
     transform="translate(-2571.5885,730.39597)">
    <path
       class="fil1"
       d="m 7106.4769,800.67277 h -136 v -114 h 136 v -169 h 132 v 169 h 217 v 114 h -217 v 344.00003 c 0,86 24,131 134,131 42,0 90,-12 90,-12 v 119 c -46,6 -79,10 -131,10 -208,0 -224,-150 -224,-232 V 801.67277 Z"
       id="path8"
       inkscape:connector-curvature="0"
       style="fill:#373435;fill-rule:nonzero" />
    <polygon
       transform="translate(80.476911,-285.32723)"
       class="fil1"
       points="8782,971 8782,1679 8917,1679 8917,971 "
       id="polygon10"
       style="fill:#373435;fill-rule:nonzero" />
    <path
       class="fil1"
       d="m 9099.4769,1032.6728 c 0,-266.00003 215,-357.00003 365,-357.00003 170,0 252,97 252,97 l 7,-88 h 124 v 710.00003 h -124 l -7,-94 c 0,0 -85,94 -254,94 -170,0 -363,-99 -363,-362 z m 138,1 c 0,193 159,241 234,241 144,0 245,-81 245,-244 0,-163.00003 -115,-237.00003 -247,-237.00003 -74,0 -233,44 -233,240.00003 z"
       id="path12"
       inkscape:connector-curvature="0"
       style="fill:#373435;fill-rule:nonzero" />
    <path
       class="fil1"
       d="m 9018.4769,522.67277 c 0,-49 -40,-89 -89,-89 -49,0 -89,40 -89,89 0,49 40,89 89,89 49,0 89,-40 89,-89 z"
       id="path14"
       inkscape:connector-curvature="0"
       style="fill:#373435;fill-rule:nonzero" />
    <path
       class="fil1"
       d="m 8763.4769,807.67277 v -120 c -134,-12 -228,20 -301,96 l -7,-98 h -128 v 709.00003 h 135 v -367 c 0,-102.00003 83,-232.00003 301,-220.00003 z"
       id="path16"
       inkscape:connector-curvature="0"
       style="fill:#373435;fill-rule:nonzero" />
    <path
       class="fil1"
       d="m 8089.4769,974.67277 c 0,-96 -97,-177 -216,-177 -127,0 -233,79 -241,177 z m -600,61.00003 c 0,-222.00003 164,-364.00003 382,-364.00003 217,0 367,159 367,352.00003 0,0 0,30 -3,57 l -605,3 c 6,109 132,192 262,192 140,0 224,-87 224,-87 l 97,85 c -98,94 -206,123 -320,123 -239,0 -403,-140 -403,-356 v -5 z"
       id="path18"
       inkscape:connector-curvature="0"
       style="fill:#373435;fill-rule:nonzero" />
    <path
       class="fil1"
       d="m 6680.4769,971.67277 c -136,-24 -270,-41 -270,-105 0,-41 41,-78 160,-78 89,0 191,21 219,83 l 126,-53 c -48,-97 -190,-143 -354,-143 -143,0 -296,54 -296,199 0,125 114,164.00003 302,200.00003 126,24 241,36 241,103 0,43 -57,97 -199,97 -101,0 -203,-21 -235,-93 l -122,51 c 50,111 183,169 336,169 307,0 366,-146 366,-229 0,-138 -137,-177.00003 -274,-202.00003 z"
       id="path20"
       inkscape:connector-curvature="0"
       style="fill:#373435;fill-rule:nonzero" />
  </g>
  <g
     id="g3736"
     transform="translate(2915.4737,-381.64861)">
    <path
       class="fil1"
       d="m 2786.4769,1395.6728 c -170,0 -254,-108 -254,-108 v 298 h -131 V 685.67277 h 124 l 7,88 c 0,0 82,-97 252,-97 150,0 365,76 365,357.00003 0,281 -194,362 -363,362 z m -7,-601.00003 c -131,0 -247,74 -247,237.00003 0,163 101,244 245,244 75,0 234,-31 234,-241 0,-210.00003 -158,-240.00003 -233,-240.00003 z"
       id="path22"
       inkscape:connector-curvature="0"
       style="fill:#373435;fill-rule:nonzero" />
    <path
       class="fil1"
       d="m 3659.4769,1032.6728 c 0,-266.00003 215,-357.00003 365,-357.00003 170,0 252,97 252,97 l 7,-88 h 124 v 710.00003 h -123 l -7,-94 c 0,0 -85,94 -254,94 -170,0 -363,-99 -363,-362 z m 138,1 c 0,193 159,241 234,241 144,0 245,-81 245,-244 0,-163.00003 -115,-237.00003 -247,-237.00003 -74,0 -233,44 -233,240.00003 z"
       id="path24"
       inkscape:connector-curvature="0"
       style="fill:#373435;fill-rule:nonzero" />
    <path
       class="fil1"
       d="m 3669.4769,807.67277 v -120 c -134,-12 -228,20 -301,96 l -7,-98 h -128 v 709.00003 h 135 v -367 c 0,-102.00003 83,-232.00003 301,-220.00003 z"
       id="path26"
       inkscape:connector-curvature="0"
       style="fill:#373435;fill-rule:nonzero" />
    <path
       class="fil1"
       d="m 1210.4769,971.67277 c -136,-24 -269.99999,-41 -269.99999,-105 0,-41 41,-78 159.99999,-78 89,0 191,21 219,83 l 126,-53 c -48,-97 -190,-143 -354,-143 -142.99999,0 -295.99999,54 -295.99999,199 0,125 114,164.00003 301.99999,200.00003 126,24 241,36 241,103 0,43 -57,97 -199,97 -101,0 -202.99999,-21 -234.99999,-93 l -122,51 c 50,111 182,169 335.99999,169 307,0 366,-146 366,-229 0,-138 -137,-177.00003 -274,-202.00003 z"
       id="path28"
       inkscape:connector-curvature="0"
       style="fill:#373435;fill-rule:nonzero" />
    <path
       class="fil1"
       d="m 1934.4769,1275.6728 c -111,0 -258,-48 -258,-241 0,-196.00003 163,-236.00003 258,-236.00003 95,0 258,40 258,236.00003 0,193 -147,241 -258,241 z m 0,-599.00003 c -181,0 -395,90 -395,357.00003 0,264 193,366 395,366 203,0 395,-102 395,-366 0,-266.00003 -214,-357.00003 -395,-357.00003 z"
       id="path30"
       inkscape:connector-curvature="0"
       style="fill:#373435;fill-rule:nonzero" />
  </g>
  <g
     id="g3742"
     transform="matrix(1.9442432,0,0,1.9442432,-8307.5243,-694.39589)">
    <path
       class="fil0"
       d="m 5711.4769,1371.6728 c -7,5 -17,11 -25,15 l -3,1 h 3 c 162,44 322,43 353,-58 40,-130 -218,-270 -339,-337.00003 -26,-14 -37,-5 -21,14.00003 77,88 186,262 32,364 z"
       id="path6"
       inkscape:connector-curvature="0"
       style="fill:#f58634;fill-rule:nonzero" />
    <path
       class="fil2"
       d="m 5684.4769,1388.6728 c 0,0 -204,128 -563,128 -139,0 -257,-21 -306,-70 -52,-51 -81,-138 -81,-218 0,-68 28,-126 87,-126 152,0 624,240 863,285 z"
       id="path32"
       inkscape:connector-curvature="0"
       style="fill:#db353d;fill-rule:nonzero" />
    <path
       class="fil0"
       d="m 5005.4769,646.67277 c 7,-5 17,-11 25,-15 l 3,-1 h -3 c -162,-44 -322,-43 -353,58 -40,130 218,270 339,337.00003 26,14 37,5 21,-14 -77,-88.00003 -186,-262.00003 -32,-364.00003 z"
       id="path34"
       inkscape:connector-curvature="0"
       style="fill:#f58634;fill-rule:nonzero" />
    <path
       class="fil2"
       d="m 5032.4769,629.67277 c 0,0 204,-128 563,-128 139,0 257,21 306,70 52,51 81,138 81,218 0,68 -28,126 -87,126 -152,0 -624,-240 -863,-285 z"
       id="path36"
       inkscape:connector-curvature="0"
       style="fill:#db353d;fill-rule:nonzero" />
  </g>
</svg>
