<?xml version="1.0" encoding="utf-8"?>
<!-- Generator: Adobe Illustrator 19.1.0, SVG Export Plug-In . SVG Version: 6.00 Build 0)  -->
<svg version="1.1" id="Calque_1" xmlns="http://www.w3.org/2000/svg" xmlns:xlink="http://www.w3.org/1999/xlink" x="0px" y="0px"
	 width="1816.4px" height="491.4px" viewBox="0 0 1816.4 491.4" style="enable-background:new 0 0 1816.4 491.4;"
	 xml:space="preserve">
<style type="text/css">
	.st0{fill:#E03F0E;}
	.st1{fill:#03A9F4;}
</style>
<g>
	<g>
		<path class="st0" d="M852,254.9c-0.9-11.6-18.2-4-17.7-24.5c0.5-20.5,29.9-18.3,42.8-17s13.4,6.3,19.6,4.2
			c6.6-2.2,9.5-11.8-2.8-17c-12.3-5.2-27.7,0.3-43.3-4.3c-55.8-16.2-6.7-86.7-6.7-86.7s11-22.4,59.8-23.8c17.7-0.5,32.3-21,13.1-24
			c-12.5-2-34.7-3-34.7-3s-9.2-13-29.5-13.8c-11.4-0.5-18.7,8.5-24.9,6.8c-15.5-4.2-103.2-26-116.2,8c-13.1,34.2,73.3-15.1,102.4,7
			c10.9,8.3-20.7,75-35.3,87.2c-23.8,19.9-58.6,55.6-72,91c-19.9,44.2-6.9,78.8-6.9,78.8c-6.3,17.2-0.3,102.7-104.2,146.7
			c-40.2,17-50.8,16.3-50.8,16.3c-2.3,6,4.4,4.5,10.1,4c120.5-9.8,170.8-135,170.8-135s9.9-13.2,17.1,1.2
			c6.5,13.1-19.9,24.5-3.5,45.8c0,0,31.3-18.4,90.9-47.3c80.9-39.2,95.4-10.7,95.4-10.7c7-120-149.2,21-149.2,21
			C756.9,341.4,856.7,315.9,852,254.9z"/>
		<path class="st0" d="M768.5,398.2c0.8,0,19-10.3,35.2-16.3c0,0,1.7,11.9,28.7,11.2c5.5-0.6,122.4-33.3,86.9,48.6
			c0,0,16.2-26.4-142-35.9C764.3,405.1,768.5,398.2,768.5,398.2z"/>
		<path class="st0" d="M792.7,34l29.1,6.5c0,0-21.9-45.9-58.5-40.5c-8.9,1.3-16,5.1-18.6,12c-2,5.5,3,8.6,13,8.6
			C757.8,20.7,783.9,17.5,792.7,34z"/>
		<path class="st0" d="M848.9,182.6c0.5,3.5,6.2,5.5,13.4,1.3c0,0,11.5-11.5,26.9-12.5c15.3-1,10.3-14.2-7.6-13
			C853.1,160.2,848.2,178.2,848.9,182.6z"/>
	</g>
	<path class="st1" d="M323.6,362.1c-15.1,0-28.6-2.7-40.5-8.2c-11.9-5.5-21.9-12.9-30-22.4c-8.1-9.5-14.1-20.6-17.9-33.4
		c-3.8-12.8-5-26.6-3.8-41.4c1.3-14.8,4.8-28.6,10.6-41.4c5.8-12.8,13.5-24,23.2-33.5c9.7-9.5,21-16.9,33.9-22.4
		c13-5.4,27.3-8.2,42.9-8.2c16.1,0,30.3,2.7,42.4,8.2c12.1,5.5,22.1,12.9,30,22.4c7.9,9.5,13.5,20.6,16.8,33.5
		c3.3,12.8,4.3,26.6,3,41.4c-1.3,14.8-5,28.6-11,41.4c-6,12.8-14,24-23.7,33.4c-9.8,9.5-21.1,16.9-33.9,22.4
		C352.7,359.3,338.7,362.1,323.6,362.1z M327.6,317.4c14.9,0,26.7-5.6,35.6-16.7c8.9-11.2,14.1-25.8,15.7-44
		c1.6-18.2-1.1-32.9-8-44.2c-6.9-11.3-17.8-16.9-32.7-16.9c-14.9,0-26.8,5.6-35.6,16.9c-8.9,11.3-14.1,26-15.7,44.2
		c-1.6,18.2,1.1,32.9,8,44C301.8,311.9,312.7,317.4,327.6,317.4z"/>
	<path class="st1" d="M466,165.7c0.2-2.1-0.6-3.3-2.3-3.7c-1.7-0.4-3.7-0.6-6-0.6h-2.3l0.3-3.9h55.6c2.8,0,4.2,0.9,4.3,2.7
		c0.1,1.8,0.1,3.6-0.1,5.4l-1.4,15.9h1.1c7.1-8.8,15.4-16.1,25-21.8c9.6-5.7,21.2-8.6,34.8-8.6c12.9,0,24.2,2.6,34.1,7.8
		c9.9,5.2,18.1,12.4,24.8,21.6c6.6,9.2,11.3,20.3,14.1,33.3c2.8,13,3.5,27.2,2.1,42.8c-1.4,16.1-4.7,30.7-9.9,43.8
		c-5.2,13.1-11.9,24.2-20.1,33.3c-8.2,9.1-17.7,16.1-28.5,21c-10.8,4.9-22.3,7.4-34.7,7.4c-13.6,0-24.7-2.6-33.4-7.8
		c-8.6-5.2-15.3-12-20.1-20.6c-2.3,35.3-3.4,56-3.2,62.2c0.1,7.5,1.1,12.8,3,15.7c1.9,3,4.8,4.5,8.9,4.5
		c-2.7,10.4-7.6,19.1-14.8,26.2c-7.2,7.1-16.1,10.7-26.7,10.7c-7.8,0-14.1-3.2-18.8-9.7c-4.7-6.5-7.1-13.6-7.2-21.4
		c-0.1-2.3,0-5.1,0.2-8.4c0.2-3.2,0.5-8.2,1.1-14.8c0.6-6.6,1.3-15.6,2.2-26.8c0.9-11.3,2.1-26,3.7-44.1c1.6-18.1,3.5-40.4,5.9-66.9
		C460,234.5,462.8,202.7,466,165.7z M549.9,318.1c13.1,0,24-5.3,32.6-15.7c8.6-10.5,13.7-25.2,15.4-44.1c1.7-18.9-0.5-34.4-6.4-46.3
		c-5.9-11.9-16.8-17.9-32.7-17.9c-8.1,0-15.1,1.7-21.1,5.1c-6,3.4-11,7.9-15.2,13.6c-4.1,5.7-7.4,12.5-9.7,20.4
		c-2.3,7.9-3.9,16.3-4.7,25.1c-1.6,18.1,1.1,32.7,8.1,43.6C523.3,312.7,534.5,318.1,549.9,318.1z"/>
	<path class="st1" d="M1320.4,359.8c-15.1,0-28.6-2.7-40.5-8.2c-11.9-5.5-21.9-12.9-30-22.4c-8.1-9.5-14.1-20.6-17.9-33.4
		c-3.8-12.8-5-26.6-3.8-41.4c1.3-14.8,4.8-28.6,10.6-41.4c5.8-12.8,13.5-24,23.2-33.5c9.7-9.5,21-16.9,33.9-22.4
		c13-5.4,27.3-8.2,42.9-8.2c16.1,0,30.3,2.7,42.4,8.2c12.1,5.5,22.1,12.9,30,22.4c7.9,9.5,13.5,20.6,16.7,33.5
		c3.3,12.8,4.3,26.6,3,41.4c-1.3,14.8-5,28.6-11,41.4c-6.1,12.8-14,24-23.7,33.4c-9.8,9.5-21.1,16.9-33.9,22.4
		C1349.5,357.1,1335.5,359.8,1320.4,359.8z M1324.2,319.8c14.8,0,26.6-5.5,35.4-16.6c8.8-11.1,14-25.7,15.6-43.8
		c1.6-18.1-1.1-32.7-7.9-43.9c-6.9-11.2-17.7-16.8-32.5-16.8s-26.6,5.6-35.4,16.8c-8.8,11.2-14,25.9-15.6,43.9
		c-1.6,18.1,1.1,32.7,8,43.8C1298.6,314.2,1309.4,319.8,1324.2,319.8z"/>
	<path class="st1" d="M1729.2,313.5l-23.6-50.6l-24.4,23.7l-4.9,59.9c-0.2,2.3,2.3,3.5,7.6,3.5h2.3l-0.3,3.9h-72.3l0.3-3.9h2.3
		c5.3,0,8-1,8.2-3.1c2.1-23.9,4-46,5.6-66.5c1.7-20.5,3.2-38.3,4.5-53.5c1.3-15.2,2.4-27.3,3.2-36.4c0.8-9.1,1.2-14.1,1.3-15.2
		c1.1-12.7,2-24.9,2.8-36.7c0.8-11.8,2.3-22.2,4.4-31.3c2.2-9.1,5.5-16.3,9.8-21.6c4.4-5.3,10.6-8,18.7-8c9.6,0,17.2,2.8,22.7,8.4
		c5.6,5.6,8.7,15,9.3,28.2h-1.5c-2.3,0-4.1,1.2-5.6,3.7c-1.5,2.5-2.9,7.7-4.2,15.8c-1.3,8-2.7,19.7-4,35
		c-1.3,15.3-3.1,35.7-5.3,61.1l41.1-41.6c10.2-10.4,20.7-18.7,31.3-25.1c10.6-6.3,21.6-9.5,33-9.5c13.1,0,21.3,7.7,24.5,23
		c-5.6,0.5-12.1,2.9-19.4,7.2c-7.3,4.3-15.4,10.7-24.2,19.3l-27.4,27.2l36.9,63c5.3,9.1,10.6,16.9,16.1,23.3
		c5.5,6.5,11.6,10.4,18.3,11.7c-7.1,17.4-18,26.1-32.9,26.1c-11.4,0-21.7-3.4-30.9-10.1C1743.4,337.5,1735.5,327.3,1729.2,313.5z"/>
	<path class="st1" d="M1506.1,256.7l-7.5,90.1c-0.2,2.3,2.3,3.5,7.6,3.5h2.3l-0.3,3.9h-72.3l0.3-3.9h2.3c5.3,0,8-1,8.2-3.1
		c2.1-23.8,4.1-46,5.8-66.5l0,0.2l10.2-116.3c0.2-1.8-0.6-3-2.2-3.5c-1.6-0.5-3.7-0.8-6.2-0.8h-2.3l0.3-3.9h56c2,0,3.2,0.5,3.6,1.6
		c0.4,1,0.6,2.2,0.5,3.5l-2.2,24.9h1.1c7.6-12.5,15.5-21.3,23.5-26.7c8-5.3,18.5-8,31.4-8c15.1,0,27,3.6,35.6,10.9
		c8.6,7.3,12.3,17.6,11.1,31.1c-0.9,10.4-4,18.5-9.3,24.5c-11.9-14.5-27.5-21.8-46.9-21.8c-4,0-8.7,0.8-14,2.5
		c-5.3,1.7-10.5,4.8-15.6,9.3c-5.1,4.5-9.6,10.7-13.5,18.5C1509.7,234.6,1507.1,244.5,1506.1,256.7"/>
	<path class="st1" d="M1151,197.8c1.8-5.6,3.1-9.8,4.1-12.5c1-2.7,1.9-5.1,2.7-7c2.7-6.5,7.1-11.9,13.2-16.4
		c6.1-4.4,12.5-5.9,19-4.3c8.8,2.1,15,6.9,18.6,14.3c3.6,7.4,4.7,15.7,3.4,24.8c-3.4-0.8-6.3-0.2-8.9,1.9c-2.6,2.1-5.2,6.3-7.8,12.5
		c-2.3,5.1-53,142.8-53,142.8h-46.9l-23.6-132.6L1024.6,354h-46.5l-38.5-191c-0.4-1.8-2.9-2.7-7.7-2.7h-2.3l0.3-3.9h72.3l-0.3,3.9
		h-2.3c-2.5,0-4.7,0.3-6.5,0.8c-1.8,0.5-2.5,1.6-2.2,3.1l20.2,124.2l44.1-132h43.9l24,128C1123,284.3,1149.3,203.4,1151,197.8z"/>
	<g>
		<path class="st1" d="M154.5,230.8c1-11.1-1.3-20.2-6.8-27.1c-5.5-6.9-14-10.4-25.4-10.4c-12,0-22.2,4.2-30.8,12.7
			c-8.6,8.5-13.5,19.9-14.7,34.2l-9.7,110.7c-0.1,1.3-0.5,2.5-1.1,3.6c-0.6,1.1-2,1.6-4.1,1.6H0.3l0.3-4h2.4c2.6,0,4.9-0.3,6.6-0.8
			c1.8-0.5,2.6-1.7,2.8-3.6c0,0,19.2-219.9,20.1-229.5c0.8-9.7,2-18.1,3.4-25.3c1.4-7.2,3.2-13.2,5.4-18.1c2.2-4.9,5.3-9.4,9.3-13.3
			c6.1-5.8,12.6-8.8,19.5-8.8c11.1,0,19.7,3.7,25.7,10.9c6,7.3,9.5,16.1,10.4,26.5h-1.6c-2.9,0-5.4,0.7-7.3,2
			c-2,1.3-3.6,4.2-4.9,8.6c-1.3,4.4-2.5,10.5-3.6,18.5c-1.1,8-2.2,18.6-3.4,31.9c-0.3,4-0.7,8.2-0.9,12.7c-0.3,4.5-0.6,9.4-1.1,14.7
			c8.4-11.1,17.3-19.3,26.6-24.5c9.3-5.2,21.2-7.8,35.5-7.8c10.6,0,20.1,1.9,28.4,5.8c8.3,3.9,15.2,9.2,20.7,15.9
			c5.5,6.8,9.6,14.8,12.2,24.1c2.6,9.3,3.5,19.5,2.5,30.7l-10.9,125c-0.2,1.9,0.6,3,2.3,3.6c1.7,0.5,3.8,0.8,6.5,0.8h2.4l-0.3,4
			h-60.9c-2.1,0-3.4-0.5-3.8-1.6c-0.4-1.1-0.6-2.2-0.5-3.6L154.5,230.8z"/>
	</g>
	<g>
		<path class="st0" d="M802.4,465.8c-1,0-2-0.3-2.9-1c-17.5-13.6-42.7-13.6-62.6,0c-2.4,1.6-5.5,1.1-6.9-1.1c-1.4-2.2-0.7-5.4,1.7-7
			c23.7-16.2,53.6-16.2,74.4,0c2.1,1.6,2.3,4.8,0.5,7C805.6,465.1,804,465.8,802.4,465.8z"/>
	</g>
	<g>
		<path class="st0" d="M783.4,486.9c-1,0-2-0.3-2.9-1c-7.9-6.2-19.3-6.2-28.4,0c-2.4,1.6-5.5,1.1-6.9-1.1c-1.4-2.2-0.7-5.4,1.7-7
			c12.8-8.7,28.9-8.7,40.1,0c2.1,1.6,2.3,4.8,0.5,7C786.6,486.2,785,486.9,783.4,486.9z"/>
	</g>
</g>
</svg>
