<?xml version="1.0" encoding="UTF-8"?>
<!DOCTYPE svg PUBLIC "-//W3C//DTD SVG 1.1//EN" "http://www.w3.org/Graphics/SVG/1.1/DTD/svg11.dtd">
<!-- Creator: CorelDRAW X6 -->
<svg xmlns="http://www.w3.org/2000/svg" xml:space="preserve" width="10.4583in" height="2.59722in" version="1.1" style="shape-rendering:geometricPrecision; text-rendering:geometricPrecision; image-rendering:optimizeQuality; fill-rule:evenodd; clip-rule:evenodd"
viewBox="0 0 10458 2597"
 xmlns:xlink="http://www.w3.org/1999/xlink">
 <defs>
  <style type="text/css">
   <![CDATA[
    .fil1 {fill:#373435;fill-rule:nonzero}
    .fil2 {fill:#DB353D;fill-rule:nonzero}
    .fil0 {fill:#F58634;fill-rule:nonzero}
   ]]>
  </style>
 </defs>
 <g id="Layer_x0020_1">
  <metadata id="CorelCorpID_0Corel-Layer"/>
  <path class="fil0" d="M5631 1657c-7,5 -17,11 -25,15l-3 1 3 0c162,44 322,43 353,-58 40,-130 -218,-270 -339,-337 -26,-14 -37,-5 -21,14 77,88 186,262 32,364z"/>
  <path class="fil1" d="M7026 1086l-136 0 0 -114 136 0 0 -169 132 0 0 169 217 0 0 114 -217 0 0 344c0,86 24,131 134,131 42,0 90,-12 90,-12l0 119c-46,6 -79,10 -131,10 -208,0 -224,-150 -224,-232l0 -359z"/>
  <polygon class="fil1" points="8782,1679 8917,1679 8917,971 8782,971 "/>
  <path class="fil1" d="M9019 1318c0,-266 215,-357 365,-357 170,0 252,97 252,97l7 -88 124 0 0 710 -124 0 -7 -94c0,0 -85,94 -254,94 -170,0 -363,-99 -363,-362zm138 1c0,193 159,241 234,241 144,0 245,-81 245,-244 0,-163 -115,-237 -247,-237 -74,0 -233,44 -233,240z"/>
  <path class="fil1" d="M8938 808c0,-49 -40,-89 -89,-89 -49,0 -89,40 -89,89 0,49 40,89 89,89 49,0 89,-40 89,-89z"/>
  <path class="fil1" d="M8683 1093l0 -120c-134,-12 -228,20 -301,96l-7 -98 -128 0 0 709 135 0 0 -367c0,-102 83,-232 301,-220z"/>
  <path class="fil1" d="M8009 1260c0,-96 -97,-177 -216,-177 -127,0 -233,79 -241,177l457 0zm-600 61c0,-222 164,-364 382,-364 217,0 367,159 367,352 0,0 0,30 -3,57l-605 3c6,109 132,192 262,192 140,0 224,-87 224,-87l97 85c-98,94 -206,123 -320,123 -239,0 -403,-140 -403,-356l0 -5z"/>
  <path class="fil1" d="M6600 1257c-136,-24 -270,-41 -270,-105 0,-41 41,-78 160,-78 89,0 191,21 219,83l126 -53c-48,-97 -190,-143 -354,-143 -143,0 -296,54 -296,199 0,125 114,164 302,200 126,24 241,36 241,103 0,43 -57,97 -199,97 -101,0 -203,-21 -235,-93l-122 51c50,111 183,169 336,169 307,0 366,-146 366,-229 0,-138 -137,-177 -274,-202z"/>
  <path class="fil1" d="M2706 1681c-170,0 -254,-108 -254,-108l0 298 -131 0 0 -900 124 0 7 88c0,0 82,-97 252,-97 150,0 365,76 365,357 0,281 -194,362 -363,362zm-7 -601c-131,0 -247,74 -247,237 0,163 101,244 245,244 75,0 234,-31 234,-241 0,-210 -158,-240 -233,-240z"/>
  <path class="fil1" d="M3579 1318c0,-266 215,-357 365,-357 170,0 252,97 252,97l7 -88 124 0 0 710 -123 0 -7 -94c0,0 -85,94 -254,94 -170,0 -363,-99 -363,-362zm138 1c0,193 159,241 234,241 144,0 245,-81 245,-244 0,-163 -115,-237 -247,-237 -74,0 -233,44 -233,240z"/>
  <path class="fil1" d="M3589 1093l0 -120c-134,-12 -228,20 -301,96l-7 -98 -128 0 0 709 135 0 0 -367c0,-102 83,-232 301,-220z"/>
  <path class="fil1" d="M1130 1257c-136,-24 -270,-41 -270,-105 0,-41 41,-78 160,-78 89,0 191,21 219,83l126 -53c-48,-97 -190,-143 -354,-143 -143,0 -296,54 -296,199 0,125 114,164 302,200 126,24 241,36 241,103 0,43 -57,97 -199,97 -101,0 -203,-21 -235,-93l-122 51c50,111 182,169 336,169 307,0 366,-146 366,-229 0,-138 -137,-177 -274,-202z"/>
  <path class="fil1" d="M1854 1561c-111,0 -258,-48 -258,-241 0,-196 163,-236 258,-236 95,0 258,40 258,236 0,193 -147,241 -258,241zm0 -599c-181,0 -395,90 -395,357 0,264 193,366 395,366 203,0 395,-102 395,-366 0,-266 -214,-357 -395,-357z"/>
  <path class="fil2" d="M5604 1674c0,0 -204,128 -563,128 -139,0 -257,-21 -306,-70 -52,-51 -81,-138 -81,-218 0,-68 28,-126 87,-126 152,0 624,240 863,285z"/>
  <path class="fil0" d="M4925 932c7,-5 17,-11 25,-15l3 -1 -3 0c-162,-44 -322,-43 -353,58 -40,130 218,270 339,337 26,14 37,5 21,-14 -77,-88 -186,-262 -32,-364z"/>
  <path class="fil2" d="M4952 915c0,0 204,-128 563,-128 139,0 257,21 306,70 52,51 81,138 81,218 0,68 -28,126 -87,126 -152,0 -624,-240 -863,-285z"/>
 </g>
</svg>
