<svg xmlns="http://www.w3.org/2000/svg" id="Calque_1" data-name="Calque 1" viewBox="0 0 824.65 222.5"><defs><style>.cls-1{fill:#1c1333}.cls-1,.cls-2,.cls-3{stroke-width:0}.cls-2{fill:#0c012a}.cls-3{fill:#f18c19}</style></defs><path d="M218.62,110.81c0-.99-.02-1.96-.07-2.93,0-.01-.01-.02,0-.04-.02-.48-.06-.95-.09-1.42-.19-2.82-.56-5.55-1.13-8.21-1.85-8.83-5.77-16.81-11.72-23.93-.02-.02-.05-.05-.07-.08-1.22-1.44-2.52-2.86-3.92-4.25-1.38-1.4-2.82-2.7-4.27-3.93-.29-.23-.59-.48-.89-.72-9.44-7.62-20.35-11.72-32.71-12.27-.01.01-.04,0-.05,0-.96-.05-1.94-.07-2.92-.07h-.12c-.87,0-1.72.02-2.58.06-.29.01-.57.02-.87.05-.32.02-.63.04-.95.06-11.28.77-21.35,4.55-30.17,11.33-.29.22-.59.45-.87.67-1.85,1.48-3.65,3.08-5.4,4.82-1.04,1.04-2.04,2.1-2.99,3.17-.33.35-.63.72-.93,1.08-.02.04-.04.06-.07.08-5.95,7.12-9.86,15.1-11.71,23.93-.57,2.66-.95,5.4-1.14,8.21-.04.47-.07.94-.09,1.42.01.01,0,.02,0,.04-.05.97-.07,1.95-.07,2.93v.09c0,.89.02,1.77.06,2.65.01.23.02.48.04.72.02.35.05.69.07,1.04.19,2.77.56,5.47,1.13,8.09,1.69,8.06,5.09,15.42,10.22,22.09.27.38.55.74.84,1.1,1.43,1.77,2.98,3.5,4.65,5.16,1.42,1.42,2.87,2.74,4.35,3.99.62.52,1.26,1.01,1.91,1.5,8.82,6.78,18.88,10.56,30.17,11.33.32.02.63.04.95.06.29.02.57.04.87.05.86.04,1.71.06,2.58.06h.12c.99,0,1.96-.02,2.92-.07.02-.01.04-.01.06,0,14.76-.67,27.44-6.33,38.05-17.01h-.01s-20.73-20.82-20.73-20.82c-5.35,4.93-12.5,7.93-20.35,7.93-11.26,0-21.08-6.19-26.23-15.37h84.12v-12.6ZM132.55,98.22c4.25-11.44,15.26-19.58,28.17-19.58s23.93,8.14,28.19,19.58h-56.36Z" class="cls-2"/><path d="M339.27,110.81c0-.99-.02-1.96-.07-2.93,0-.01-.01-.02,0-.04-.02-.48-.06-.95-.09-1.42-.19-2.82-.56-5.55-1.13-8.21-1.85-8.83-5.77-16.81-11.72-23.93-.02-.02-.05-.05-.07-.08-1.22-1.44-2.52-2.86-3.92-4.25-1.38-1.4-2.82-2.7-4.27-3.93-.29-.23-.59-.48-.89-.72-9.44-7.62-20.35-11.72-32.71-12.27-.01.01-.04,0-.05,0-.96-.05-1.94-.07-2.92-.07h-.12c-.87,0-1.72.02-2.58.06-.29.01-.57.02-.87.05-.32.02-.63.04-.95.06-11.28.77-21.35,4.55-30.17,11.33-.29.22-.59.45-.87.67-1.85,1.48-3.65,3.08-5.4,4.82-1.04,1.04-2.04,2.1-2.99,3.17-.33.35-.63.72-.93,1.08-.02.04-.04.06-.07.08-5.95,7.12-9.86,15.1-11.71,23.93-.57,2.66-.95,5.4-1.14,8.21-.04.47-.07.94-.09,1.42.01.01,0,.02,0,.04-.05.97-.07,1.95-.07,2.93v.09c0,.89.02,1.77.06,2.65.01.23.02.48.04.72.02.35.05.69.07,1.04.19,2.77.56,5.47,1.13,8.09,1.69,8.06,5.09,15.42,10.22,22.09.27.38.55.74.84,1.1,1.43,1.77,2.98,3.5,4.65,5.16,1.42,1.42,2.87,2.74,4.35,3.99.62.52,1.26,1.01,1.91,1.5,8.82,6.78,18.88,10.56,30.17,11.33.32.02.63.04.95.06.29.02.57.04.87.05.86.04,1.71.06,2.58.06h.12c.99,0,1.96-.02,2.92-.07.02-.01.04-.01.06,0,14.76-.67,27.44-6.33,38.05-17.01h-.01s-20.73-20.82-20.73-20.82c-5.35,4.93-12.5,7.93-20.35,7.93-11.26,0-21.08-6.19-26.23-15.37h84.12v-12.6ZM253.19,98.22c4.25-11.44,15.26-19.58,28.17-19.58s23.93,8.14,28.19,19.58h-56.36Z" class="cls-2"/><rect width="35.93" height="35.93" y="12.83" class="cls-3"/><path d="M96.76,60.87V24.61h-48.21v36.26H12.96v107.71h35.91v-57.27h44.77v-36.21h-44.77v-14.23h47.89Z" class="cls-2"/><rect width="35.93" height="35.93" y="12.83" class="cls-3"/><path d="M347.53,25.07h35.93v143.72h-35.93V25.07Z" class="cls-2"/><rect width="35.93" height="35.93" y="12.83" class="cls-3"/><rect width="35.93" height="35.93" y="12.83" class="cls-3"/><g><path d="M429.06,8c0,2.21-.78,4.1-2.34,5.66-1.56,1.58-3.44,2.37-5.66,2.37s-4.1-.79-5.66-2.37c-1.56-1.56-2.34-3.44-2.34-5.66s.78-4.08,2.34-5.66c1.56-1.56,3.44-2.34,5.66-2.34s4.1.78,5.66,2.34c1.56,1.58,2.34,3.47,2.34,5.66ZM414.12,20.85h13.87v43.15h-13.87V20.85Z" class="cls-3"/><path d="M453.99,20.37c5.65,0,10.48,2.01,14.49,6.02,4.02,4.02,6.02,8.86,6.02,14.53v23.07h-13.84v-23.07c0-1.85-.66-3.43-1.97-4.75-1.31-1.29-2.88-1.93-4.71-1.93s-3.43.64-4.75,1.93c-1.31,1.31-1.97,2.9-1.97,4.75v23.07h-13.84V20.85h13.84v.66c2.19-.75,4.43-1.13,6.72-1.13Z" class="cls-3"/></g><path d="M667.37,111c0,7.93-1.53,15.52-4.56,22.53-3.05,7.03-7.22,13.19-12.42,18.34-5.16,5.11-11.34,9.25-18.34,12.31-6.99,3.05-14.57,4.6-22.53,4.6s-15.5-1.55-22.49-4.6c-6.99-3.03-13.14-7.17-18.28-12.33-5.16-5.14-9.3-11.29-12.35-18.3-3.03-7.03-4.56-14.62-4.56-22.55s1.53-15.52,4.56-22.53c3.05-7.03,7.19-13.19,12.35-18.32,4.77-4.77,10.29-8.65,16.47-11.52l4.93-2.31v37.68l-.74.95c-1.48,1.83-2.64,3.82-3.61,6.04-1.36,3.15-2.04,6.41-2.04,10.02s.69,6.94,2.04,9.99c1.32,3.12,3.19,5.9,5.55,8.28,2.34,2.34,5.11,4.21,8.21,5.55,6.2,2.64,13.88,2.66,20.06,0,3.12-1.34,5.9-3.22,8.24-5.55,2.36-2.38,4.23-5.16,5.55-8.26,1.36-3.08,2.04-6.45,2.04-10.02s-.67-6.87-2.01-10.02c-.97-2.22-2.15-4.21-3.61-6.04l-.76-.95v-37.61l4.95,2.31c6.15,2.91,11.68,6.76,16.38,11.45,5.2,5.14,9.37,11.29,12.42,18.3v.02c3.03,7.01,4.56,14.6,4.56,22.53Z" class="cls-2"/><rect width="22.1" height="45.42" x="598.56" y="53.46" class="cls-3"/><circle cx="808.15" cy="148.82" r="16.49" class="cls-3"/><path d="M712.6,25.07v32.38c6.95-2.78,14.16-4.17,21.61-4.17,15.86,0,29.39,5.62,40.57,16.87,11.25,11.19,16.87,24.71,16.87,40.57s-5.62,29.42-16.87,40.67c-11.19,11.25-24.71,16.87-40.57,16.87-7.46,0-14.66-1.39-21.61-4.17v4.17h-35.93V25.07h35.93ZM749.38,125.98c4.23-4.23,6.35-9.32,6.35-15.26s-2.12-11-6.35-15.17c-4.17-4.23-9.23-6.35-15.17-6.35s-11.03,2.12-15.26,6.35c-4.23,4.17-6.35,9.23-6.35,15.17s2.12,11.03,6.35,15.26c4.23,4.23,9.32,6.35,15.26,6.35s11-2.12,15.17-6.35Z" class="cls-2"/><path d="M539.84,53.46v125.74c0,11.82-4.17,21.93-12.51,30.31-8.34,8.39-18.39,12.58-30.14,12.58h-9.29v-25.17h6.26c2.65,0,4.93-.95,6.83-2.86,1.9-1.91,2.84-4.23,2.84-6.96V53.46h36.02Z" class="cls-2"/><path d="M542.59,21.04c0,5.75-2.02,10.65-6.07,14.69-4.04,4.11-8.94,6.16-14.69,6.16s-10.65-2.05-14.69-6.16c-4.04-4.04-6.07-8.94-6.07-14.69s2.02-10.59,6.07-14.69c4.04-4.04,8.94-6.07,14.69-6.07s10.65,2.02,14.69,6.07c4.04,4.11,6.07,9.01,6.07,14.69Z" class="cls-2"/><g><path d="M555.88,187.01c.9.05,1.74.26,2.54.65.79.38,1.48.88,2.07,1.49.58.62,1.04,1.33,1.38,2.14.34.81.51,1.68.51,2.6s-.17,1.76-.5,2.55-.79,1.49-1.37,2.09c-.58.6-1.27,1.09-2.06,1.45-.79.36-1.64.57-2.56.62h-3.12v-13.62h3.12v.02ZM555.88,197.49c.48-.05.93-.18,1.34-.38.41-.2.77-.46,1.07-.79.3-.32.54-.69.71-1.1.17-.41.26-.85.26-1.32s-.09-.94-.26-1.38c-.17-.44-.41-.83-.72-1.17s-.66-.62-1.07-.83c-.41-.22-.85-.35-1.33-.4v7.36Z" class="cls-1"/><path d="M572.95,190.19h-5.57v2.05h4.52v3.12h-4.52v2.14h5.57v3.12h-8.69v-13.54h8.69v3.12ZM567.14,185.94l1.49-3.12h2.8l-1.51,3.12h-2.79Z" class="cls-1"/><path d="M583.76,187.07h3.12v13.54h-3.38l-4.43-7.9v7.9h-3.12v-13.5h3.39l4.41,7.88v-7.91Z" class="cls-1"/><path d="M593,200.61h-3.12v-13.56h3.12v13.56Z" class="cls-1"/><path d="M601.64,200.59c-.89,0-1.74-.16-2.56-.49s-1.57-.82-2.23-1.49c-.64-.66-1.13-1.4-1.47-2.21-.34-.8-.51-1.67-.51-2.59s.17-1.79.51-2.61.83-1.55,1.47-2.19,1.41-1.16,2.24-1.49,1.68-.5,2.55-.5,1.72.17,2.56.5c.84.33,1.59.83,2.25,1.49l-2.2,2.2c-.36-.36-.76-.62-1.22-.8-.46-.18-.92-.27-1.38-.27s-.93.09-1.38.27c-.45.18-.85.45-1.21.8-.34.36-.61.76-.79,1.2-.18.44-.28.91-.28,1.4s.09.96.28,1.39c.18.44.45.83.79,1.19.36.36.76.62,1.21.8.45.18.91.27,1.38.27s.93-.09,1.38-.27c.46-.18.86-.45,1.22-.8l2.2,2.21c-.66.66-1.41,1.16-2.23,1.49s-1.68.49-2.56.49Z" class="cls-1"/><path d="M615.36,187.07h3.12v13.54h-3.12v-5.11h-3.91v5.11h-3.12v-13.54h3.12v5.31h3.91v-5.31Z" class="cls-1"/><path d="M629.88,190.2h-5.57v2.03h4.52v3.12h-4.52v2.14h5.57v3.12h-8.69v-13.52l8.69-.02v3.14Z" class="cls-1"/><path d="M637.17,200.61c-.7,0-1.36-.13-1.96-.38-.61-.25-1.15-.61-1.63-1.08-.49-.49-.87-1.05-1.13-1.66-.26-.62-.4-1.27-.42-1.97v-8.47h3.12v8.45c0,.54.2,1.01.61,1.42.39.38.87.57,1.44.57.28,0,.54-.06.78-.17.24-.11.45-.26.63-.44.18-.18.32-.4.42-.65s.16-.51.16-.79v-8.39h3.12v8.38c.01.7-.11,1.37-.38,1.99s-.63,1.17-1.09,1.64c-.46.47-1,.84-1.62,1.12-.62.28-1.28.42-1.98.43h-.06Z" class="cls-1"/><path d="M648.55,197.11c-.16.02-.32.04-.48.05-.16.01-.33.03-.5.04v3.41h-3.12v-13.49h3.12c.78.01,1.5.15,2.18.42.68.27,1.27.63,1.78,1.09.51.46.91.99,1.2,1.59.29.61.43,1.25.43,1.93,0,.74-.15,1.41-.46,2.03s-.74,1.15-1.29,1.6l2.99,4.83h-3.67l-2.18-3.5ZM647.57,194.08c.33-.01.65-.07.95-.18.3-.1.57-.24.79-.42.23-.17.41-.37.53-.6.13-.23.19-.47.19-.73s-.06-.5-.19-.72c-.13-.22-.31-.42-.53-.59-.23-.17-.49-.31-.79-.42-.3-.1-.62-.16-.95-.18v3.84Z" class="cls-1"/><path d="M665.49,187.01c.9.05,1.74.26,2.54.65.79.38,1.48.88,2.07,1.49.58.62,1.04,1.33,1.38,2.14.34.81.51,1.68.51,2.6s-.17,1.76-.5,2.55-.79,1.49-1.37,2.09c-.58.6-1.27,1.09-2.06,1.45-.79.36-1.64.57-2.56.62h-3.12v-13.62h3.12v.02ZM665.49,197.49c.48-.05.93-.18,1.34-.38.41-.2.77-.46,1.07-.79.3-.32.54-.69.71-1.1s.26-.85.26-1.32-.09-.94-.26-1.38c-.17-.44-.41-.83-.72-1.17s-.66-.62-1.07-.83c-.41-.22-.85-.35-1.33-.4v7.36Z" class="cls-1"/><path d="M682.55,190.2h-5.57v2.03h4.52v3.12h-4.52v2.14h5.57v3.12h-8.69v-13.52l8.69-.02v3.14Z" class="cls-1"/><path d="M698.29,192.46c.59.43,1.05.95,1.37,1.56.33.61.49,1.27.49,1.98,0,.64-.14,1.24-.41,1.8s-.64,1.05-1.12,1.47-1.02.75-1.65.99c-.63.24-1.3.36-2.01.36h-3.97v-13.6l3.6.02c.57,0,1.1.1,1.6.29.5.2.95.46,1.33.8.38.34.68.73.9,1.18.21.45.32.93.32,1.45,0,.63-.15,1.19-.46,1.7ZM694.12,190.13v1.25h.5c.31-.01.55-.09.74-.22.18-.14.28-.27.28-.41,0-.12-.09-.26-.28-.4s-.44-.21-.76-.21h-.48ZM694.97,197.49c.27,0,.53-.04.78-.12s.47-.19.66-.33c.19-.14.34-.29.45-.47.11-.18.17-.37.17-.57s-.05-.39-.17-.58c-.11-.19-.26-.35-.45-.48-.19-.14-.41-.24-.66-.32-.25-.08-.51-.12-.78-.12h-.85v2.99h.85Z" class="cls-1"/><path d="M710.69,190.2h-5.57v2.03h4.52v3.12h-4.52v2.14h5.57v3.12h-8.69v-13.52l8.69-.02v3.14Z" class="cls-1"/><path d="M721.44,200.61l-.54-1.64h-4.26l-.55,1.64h-3.3l4.61-13.54h2.95l4.37,13.54h-3.28ZM717.72,195.85h2.2l-1.07-3.28-1.12,3.28Z" class="cls-1"/><path d="M730.52,200.61c-.7,0-1.36-.13-1.96-.38-.61-.25-1.15-.61-1.63-1.08-.49-.49-.87-1.05-1.13-1.66-.26-.62-.4-1.27-.42-1.97v-8.47h3.12v8.45c0,.54.2,1.01.61,1.42.39.38.87.57,1.44.57.28,0,.54-.06.78-.17.24-.11.45-.26.63-.44.18-.18.32-.4.42-.65s.16-.51.16-.79v-8.39h3.12v8.38c.01.7-.11,1.37-.38,1.99s-.63,1.17-1.09,1.64c-.46.47-1,.84-1.62,1.12-.62.28-1.28.42-1.98.43h-.06Z" class="cls-1"/><path d="M749.62,186.96l-3.99,6.61,4.33,7.05h-3.67l-2.47-4.02-2.43,4.02h-3.63l4.22-7.03-4.06-6.62h3.65l2.23,3.62,2.16-3.62h3.65Z" class="cls-1"/><path d="M765.09,186.88v9.48c0,.6-.11,1.17-.34,1.7-.23.53-.54.99-.94,1.39-.4.4-.86.71-1.39.94-.53.23-1.09.34-1.7.34s-1.17-.11-1.7-.34c-.53-.23-.99-.54-1.39-.94-.4-.4-.71-.86-.94-1.39-.23-.53-.34-1.09-.34-1.7h2.88c0,.41.14.75.43,1.04.29.29.64.43,1.06.43s.75-.14,1.04-.43c.29-.29.43-.64.43-1.04v-9.48h2.9Z" class="cls-1"/><path d="M774,187.05c.93,0,1.81.18,2.63.54.82.36,1.54.84,2.16,1.45.61.61,1.1,1.33,1.46,2.15.36.82.54,1.7.54,2.64s-.18,1.81-.54,2.64c-.36.82-.84,1.54-1.46,2.15-.61.61-1.33,1.09-2.16,1.45-.82.36-1.7.54-2.63.54s-1.81-.18-2.63-.54c-.82-.36-1.54-.84-2.15-1.45-.61-.61-1.09-1.32-1.45-2.15s-.53-1.7-.53-2.64.18-1.81.53-2.64c.36-.82.84-1.54,1.45-2.15.61-.61,1.32-1.09,2.15-1.45.82-.36,1.7-.54,2.63-.54ZM774,197.47c.5,0,.98-.1,1.42-.29s.83-.45,1.16-.78.59-.72.78-1.16c.19-.44.29-.92.29-1.42s-.1-.98-.29-1.42c-.19-.44-.45-.83-.78-1.16s-.72-.59-1.16-.78c-.44-.19-.92-.29-1.42-.29s-.98.1-1.42.29c-.44.19-.83.45-1.16.78-.33.33-.59.72-.78,1.16-.19.44-.29.92-.29,1.42s.09.98.29,1.42c.19.44.45.83.78,1.16.33.33.72.59,1.16.78.44.19.92.29,1.42.29Z" class="cls-1"/><path d="M790.02,192.46c.59.43,1.05.95,1.37,1.56.33.61.49,1.27.49,1.98,0,.64-.14,1.24-.41,1.8s-.64,1.05-1.12,1.47-1.02.75-1.65.99c-.63.24-1.3.36-2.01.36h-3.97v-13.6l3.6.02c.57,0,1.1.1,1.6.29.5.2.95.46,1.33.8.38.34.68.73.9,1.18.21.45.32.93.32,1.45,0,.63-.15,1.19-.46,1.7ZM785.85,190.13v1.25h.5c.31-.01.55-.09.74-.22.18-.14.28-.27.28-.41,0-.12-.09-.26-.28-.4s-.44-.21-.76-.21h-.48ZM786.7,197.49c.27,0,.53-.04.78-.12s.47-.19.66-.33c.19-.14.34-.29.45-.47.11-.18.17-.37.17-.57s-.05-.39-.17-.58c-.11-.19-.26-.35-.45-.48-.19-.14-.41-.24-.66-.32-.25-.08-.51-.12-.78-.12h-.85v2.99h.85Z" class="cls-1"/><path d="M797.74,200.87c-.43,0-.86-.06-1.28-.18-.42-.12-.83-.3-1.21-.54-.66-.43-1.18-.99-1.55-1.67-.37-.68-.55-1.43-.55-2.24h3.12c0,.37.08.66.24.86.16.2.3.34.42.42.22.15.46.23.72.24.26.01.51-.04.76-.15.17-.07.31-.16.42-.27s.18-.21.24-.32c.05-.11.09-.21.1-.31.01-.1.02-.18.02-.24s0-.14-.02-.24c-.01-.1-.05-.2-.1-.3-.06-.1-.14-.21-.24-.32-.1-.11-.24-.21-.42-.3-.14-.06-.28-.12-.43-.17-.15-.05-.32-.1-.49-.17-.31-.1-.63-.21-.96-.33-.33-.12-.66-.29-1-.5-.43-.27-.79-.61-1.09-1.01-.29-.41-.51-.84-.64-1.31-.13-.47-.17-.95-.13-1.45s.18-.97.42-1.43c.22-.42.5-.78.83-1.09s.7-.55,1.11-.73.84-.29,1.31-.32c.47-.04.94,0,1.42.13.47.11.89.29,1.27.53.38.24.71.53.99.87.28.34.49.72.64,1.13s.22.85.22,1.31h-3.12c0-.28-.09-.48-.27-.59-.18-.11-.33-.18-.47-.22-.02,0-.08,0-.17-.02-.09-.01-.2-.01-.31,0-.12.01-.24.05-.36.11s-.22.17-.29.33c-.1.2-.12.4-.06.62.06.22.18.38.37.51.17.1.36.19.57.27s.43.16.66.23c.21.06.42.13.63.2.21.07.43.16.65.26.81.37,1.44.91,1.9,1.61.46.71.69,1.5.69,2.39s-.23,1.65-.69,2.36c-.46.71-1.1,1.25-1.91,1.62-.32.15-.64.25-.98.32-.33.07-.66.1-.99.1Z" class="cls-1"/><path d="M556.92,222.24h-.19c-.07,0-.13,0-.19-.02-.85-.06-1.57-.32-2.18-.77s-1.05-1.07-1.33-1.84c-.2-.55-.28-1.07-.24-1.54.04-.47.15-.91.35-1.32.2-.41.45-.78.76-1.13.31-.35.64-.67,1-.97-.17-.17-.33-.37-.49-.58-.15-.22-.29-.46-.4-.73-.22-.53-.31-1.07-.27-1.62s.22-1.09.53-1.61c.32-.52.73-.93,1.25-1.24.51-.31,1.07-.49,1.67-.54.74-.05,1.41.09,2.02.42.61.33,1.09.8,1.45,1.43.34.6.5,1.24.48,1.91-.02.67-.23,1.3-.63,1.89-.14.2-.29.38-.46.55s-.36.34-.55.52l4.45,4.94-2.32,2.08-1.01-1.12c-.52.39-1.09.71-1.73.94-.63.23-1.28.35-1.95.35ZM556.99,216.96c-.43.34-.73.64-.9.89s-.21.49-.12.72c.06.16.14.29.25.38.1.09.29.15.54.18.27.02.56,0,.87-.1.31-.09.59-.22.85-.38l-1.49-1.68ZM557.41,211.45c-.12.01-.22.05-.3.11s-.14.12-.19.18c-.06.1-.09.18-.07.26.01.07.03.12.04.15.02.06.09.15.19.26.1.11.21.21.3.31v.02c.27-.21.45-.39.54-.55.02-.02.05-.08.08-.16.03-.08,0-.18-.06-.3-.02-.02-.07-.08-.15-.16s-.18-.12-.33-.12h-.04Z" class="cls-1"/><path d="M575.49,208.64c.9.05,1.74.26,2.54.65.79.38,1.48.88,2.07,1.49.58.62,1.04,1.33,1.38,2.14.34.81.51,1.68.51,2.6s-.17,1.76-.5,2.55-.79,1.49-1.37,2.09c-.58.6-1.27,1.09-2.06,1.45-.79.36-1.64.57-2.56.62h-3.12v-13.62h3.12v.02ZM575.49,219.12c.48-.05.93-.18,1.34-.38.41-.2.77-.46,1.07-.79.3-.32.54-.69.71-1.1.17-.41.26-.85.26-1.32s-.09-.94-.26-1.38c-.17-.44-.41-.83-.72-1.17s-.66-.62-1.07-.83c-.41-.22-.85-.35-1.33-.4v7.36Z" class="cls-1"/><path d="M592.56,211.83h-5.57v2.03h4.52v3.12h-4.52v2.14h5.57v3.12h-8.69v-13.52l8.69-.02v3.14Z" class="cls-1"/><path d="M608.59,208.64v3.12h-2.6v10.48h-3.12v-10.48h-2.58v-3.12h8.3Z" class="cls-1"/><path d="M617.04,222.24l-.54-1.64h-4.26l-.55,1.64h-3.3l4.61-13.54h2.95l4.37,13.54h-3.29ZM613.31,217.48h2.2l-1.07-3.28-1.12,3.28Z" class="cls-1"/><path d="M630.47,222.24h-8.06v-13.56h3.12v10.44h4.94v3.12Z" class="cls-1"/><path d="M641.3,211.83h-5.57v2.03h4.52v3.12h-4.52v2.14h5.57v3.12h-8.69v-13.52l8.69-.02v3.14Z" class="cls-1"/><path d="M651.39,208.7h3.12v13.54h-3.38l-4.43-7.9v7.9h-3.12v-13.5h3.39l4.41,7.88v-7.91Z" class="cls-1"/><path d="M665.1,208.64v3.12h-2.6v10.48h-3.12v-10.48h-2.58v-3.12h8.3Z" class="cls-1"/><path d="M671.4,222.5c-.43,0-.86-.06-1.28-.18-.42-.12-.83-.3-1.21-.54-.66-.43-1.18-.99-1.55-1.67-.37-.68-.55-1.43-.55-2.24h3.12c0,.37.08.66.24.86.16.2.3.34.42.42.22.15.46.23.72.24.26.01.51-.04.76-.15.17-.07.31-.16.42-.27s.18-.21.24-.32c.05-.11.09-.21.1-.31.01-.1.02-.18.02-.24s0-.14-.02-.24c-.01-.1-.05-.2-.1-.3-.06-.1-.14-.21-.24-.32-.1-.11-.24-.21-.42-.3-.14-.06-.28-.12-.43-.17-.15-.05-.32-.1-.49-.17-.31-.1-.63-.21-.96-.33-.33-.12-.66-.29-1-.5-.43-.27-.79-.61-1.09-1.01-.29-.41-.51-.84-.64-1.31-.13-.47-.17-.95-.13-1.45s.18-.97.42-1.43c.22-.42.5-.78.83-1.09s.7-.55,1.11-.73.84-.29,1.31-.32c.47-.04.94,0,1.42.13.47.11.89.29,1.27.53.38.24.71.53.99.87.28.34.49.72.64,1.13s.22.85.22,1.31h-3.12c0-.28-.09-.48-.27-.59-.18-.11-.33-.18-.47-.22-.02,0-.08,0-.17-.02-.09-.01-.2-.01-.31,0-.12.01-.24.05-.36.11s-.22.17-.29.33c-.1.2-.12.4-.06.62.06.22.18.38.37.51.17.1.36.19.57.27s.43.16.66.23c.21.06.42.13.63.2.21.07.43.16.65.26.81.37,1.44.91,1.9,1.61.46.71.69,1.5.69,2.39s-.23,1.65-.69,2.36c-.46.71-1.1,1.25-1.91,1.62-.32.15-.64.25-.98.32-.33.07-.66.1-.99.1Z" class="cls-1"/><path d="M692.61,214.4c0,.78-.15,1.5-.43,2.19-.29.68-.69,1.28-1.2,1.8-.51.52-1.1.93-1.78,1.23-.68.3-1.4.46-2.18.47v2.16h-3.12v-13.54h3.12c.78.01,1.5.17,2.18.48.68.31,1.27.72,1.78,1.24.51.52.91,1.12,1.2,1.8.29.68.43,1.41.43,2.19ZM687.02,216.95c.34-.01.67-.09.97-.23s.56-.33.78-.55c.22-.23.4-.49.53-.8.13-.31.19-.63.19-.98s-.06-.67-.19-.98c-.13-.31-.3-.58-.53-.8s-.48-.41-.78-.55c-.3-.14-.62-.22-.97-.23v5.13Z" class="cls-1"/><path d="M701.06,222.24l-.54-1.64h-4.26l-.55,1.64h-3.3l4.61-13.54h2.95l4.37,13.54h-3.28ZM697.33,217.48h2.2l-1.07-3.28-1.12,3.28Z" class="cls-1"/><path d="M709.85,222.5c-.43,0-.86-.06-1.28-.18-.42-.12-.83-.3-1.21-.54-.66-.43-1.18-.99-1.55-1.67-.37-.68-.55-1.43-.55-2.24h3.12c0,.37.08.66.24.86.16.2.3.34.42.42.22.15.46.23.72.24.26.01.51-.04.76-.15.17-.07.31-.16.42-.27s.18-.21.24-.32c.05-.11.09-.21.1-.31.01-.1.02-.18.02-.24s0-.14-.02-.24c-.01-.1-.05-.2-.1-.3-.06-.1-.14-.21-.24-.32-.1-.11-.24-.21-.42-.3-.14-.06-.28-.12-.43-.17-.15-.05-.32-.1-.49-.17-.31-.1-.63-.21-.96-.33-.33-.12-.66-.29-1-.5-.43-.27-.79-.61-1.09-1.01-.29-.41-.51-.84-.64-1.31-.13-.47-.17-.95-.13-1.45s.18-.97.42-1.43c.22-.42.5-.78.83-1.09s.7-.55,1.11-.73.84-.29,1.31-.32c.47-.04.94,0,1.42.13.47.11.89.29,1.27.53.38.24.71.53.99.87.28.34.49.72.64,1.13s.22.85.22,1.31h-3.12c0-.28-.09-.48-.27-.59-.18-.11-.33-.18-.47-.22-.02,0-.08,0-.17-.02-.09-.01-.2-.01-.31,0-.12.01-.24.05-.36.11s-.22.17-.29.33c-.1.2-.12.4-.06.62.06.22.18.38.37.51.17.1.36.19.57.27s.43.16.66.23c.21.06.42.13.63.2.21.07.43.16.65.26.81.37,1.44.91,1.9,1.61.46.71.69,1.5.69,2.39s-.23,1.65-.69,2.36c-.46.71-1.1,1.25-1.91,1.62-.32.15-.64.25-.98.32-.33.07-.66.1-.99.1Z" class="cls-1"/><path d="M720.92,222.5c-.43,0-.86-.06-1.28-.18-.42-.12-.83-.3-1.21-.54-.66-.43-1.18-.99-1.55-1.67-.37-.68-.55-1.43-.55-2.24h3.12c0,.37.08.66.24.86.16.2.3.34.42.42.22.15.46.23.72.24.26.01.51-.04.76-.15.17-.07.31-.16.42-.27s.18-.21.24-.32c.05-.11.09-.21.1-.31.01-.1.02-.18.02-.24s0-.14-.02-.24c-.01-.1-.05-.2-.1-.3-.06-.1-.14-.21-.24-.32-.1-.11-.24-.21-.42-.3-.14-.06-.28-.12-.43-.17-.15-.05-.32-.1-.49-.17-.31-.1-.63-.21-.96-.33-.33-.12-.66-.29-1-.5-.43-.27-.79-.61-1.09-1.01-.29-.41-.51-.84-.64-1.31-.13-.47-.17-.95-.13-1.45s.18-.97.42-1.43c.22-.42.5-.78.83-1.09s.7-.55,1.11-.73.84-.29,1.31-.32c.47-.04.94,0,1.42.13.47.11.89.29,1.27.53.38.24.71.53.99.87.28.34.49.72.64,1.13s.22.85.22,1.31h-3.12c0-.28-.09-.48-.27-.59-.18-.11-.33-.18-.47-.22-.02,0-.08,0-.17-.02-.09-.01-.2-.01-.31,0-.12.01-.24.05-.36.11s-.22.17-.29.33c-.1.2-.12.4-.06.62.06.22.18.38.37.51.17.1.36.19.57.27s.43.16.66.23c.21.06.42.13.63.2.21.07.43.16.65.26.81.37,1.44.91,1.9,1.61.46.71.69,1.5.69,2.39s-.23,1.65-.69,2.36c-.46.71-1.1,1.25-1.91,1.62-.32.15-.64.25-.98.32-.33.07-.66.1-.99.1Z" class="cls-1"/><path d="M731.09,222.24h-3.12v-13.56h3.12v13.56Z" class="cls-1"/><path d="M739.94,208.68c.93,0,1.81.18,2.63.54.82.36,1.54.84,2.16,1.45.61.61,1.1,1.33,1.46,2.15.36.82.54,1.7.54,2.64s-.18,1.81-.54,2.64c-.36.82-.84,1.54-1.46,2.15-.61.61-1.33,1.09-2.16,1.45-.82.36-1.7.54-2.63.54s-1.81-.18-2.63-.54c-.82-.36-1.54-.84-2.15-1.45-.61-.61-1.09-1.32-1.45-2.15s-.53-1.7-.53-2.64.18-1.81.53-2.64c.36-.82.84-1.54,1.45-2.15.61-.61,1.32-1.09,2.15-1.45.82-.36,1.7-.54,2.63-.54ZM739.95,219.1c.5,0,.98-.1,1.42-.29s.83-.45,1.16-.78.59-.72.78-1.16c.19-.44.29-.92.29-1.42s-.1-.98-.29-1.42c-.19-.44-.45-.83-.78-1.16s-.72-.59-1.16-.78c-.44-.19-.92-.29-1.42-.29s-.98.1-1.42.29c-.44.19-.83.45-1.16.78-.33.33-.59.72-.78,1.16-.19.44-.29.92-.29,1.42s.09.98.29,1.42c.19.44.45.83.78,1.16.33.33.72.59,1.16.78.44.19.92.29,1.42.29Z" class="cls-1"/><path d="M756.62,208.7h3.12v13.54h-3.38l-4.43-7.9v7.9h-3.12v-13.5h3.39l4.41,7.88v-7.91Z" class="cls-1"/><path d="M770.55,208.7h3.12v13.54h-3.38l-4.43-7.9v7.9h-3.12v-13.5h3.39l4.41,7.88v-7.91Z" class="cls-1"/><path d="M785.37,211.82h-5.57v2.05h4.52v3.12h-4.52v2.14h5.57v3.12h-8.69v-13.54h8.69v3.12ZM779.56,207.57l1.49-3.12h2.8l-1.51,3.12h-2.79Z" class="cls-1"/><path d="M792.39,222.5c-.43,0-.86-.06-1.28-.18-.42-.12-.83-.3-1.21-.54-.66-.43-1.18-.99-1.55-1.67-.37-.68-.55-1.43-.55-2.24h3.12c0,.37.08.66.24.86.16.2.3.34.42.42.22.15.46.23.72.24.26.01.51-.04.76-.15.17-.07.31-.16.42-.27s.18-.21.24-.32c.05-.11.09-.21.1-.31.01-.1.02-.18.02-.24s0-.14-.02-.24c-.01-.1-.05-.2-.1-.3-.06-.1-.14-.21-.24-.32-.1-.11-.24-.21-.42-.3-.14-.06-.28-.12-.43-.17-.15-.05-.32-.1-.49-.17-.31-.1-.63-.21-.96-.33-.33-.12-.66-.29-1-.5-.43-.27-.79-.61-1.09-1.01-.29-.41-.51-.84-.64-1.31-.13-.47-.17-.95-.13-1.45s.18-.97.42-1.43c.22-.42.5-.78.83-1.09s.7-.55,1.11-.73.84-.29,1.31-.32c.47-.04.94,0,1.42.13.47.11.89.29,1.27.53.38.24.71.53.99.87.28.34.49.72.64,1.13s.22.85.22,1.31h-3.12c0-.28-.09-.48-.27-.59-.18-.11-.33-.18-.47-.22-.02,0-.08,0-.17-.02-.09-.01-.2-.01-.31,0-.12.01-.24.05-.36.11s-.22.17-.29.33c-.1.2-.12.4-.06.62.06.22.18.38.37.51.17.1.36.19.57.27s.43.16.66.23c.21.06.42.13.63.2.21.07.43.16.65.26.81.37,1.44.91,1.9,1.61.46.71.69,1.5.69,2.39s-.23,1.65-.69,2.36c-.46.71-1.1,1.25-1.91,1.62-.32.15-.64.25-.98.32-.33.07-.66.1-.99.1Z" class="cls-1"/></g></svg>