<svg xmlns="http://www.w3.org/2000/svg" width="92" height="36" fill="none" viewBox="0 0 92 36"><path fill="#30ACA3" d="M25.3933 15.0811C25.3933 7.13514 19.1464 0.567568 11.1958 0H10.7901C10.5467 0 10.3033 0 10.06 0H0V35.9189H2.43386V11.5946H10.8713C12.6561 11.5946 14.1164 13.0541 14.1164 14.8378C14.1164 16.6216 12.4127 18.3243 10.6279 18.3243H8.194V36H10.6279V30.1622C18.903 29.8378 25.3933 23.1892 25.3933 15.0811ZM10.709 27.7297V20.8378C13.873 20.7568 16.5503 18 16.5503 14.9189C16.5503 11.7568 14.0353 9.24324 10.8713 9.24324H2.43386V2.43243H10.8713C17.6049 2.83784 22.9594 8.35135 22.9594 15.0811C22.9594 21.8108 17.5238 27.4054 10.709 27.7297Z"/><path fill="#282E38" d="M32.4514 10.054V11.1892C32.7759 10.7027 33.1004 10.3784 33.5872 10.1351C34.0739 9.89187 34.5607 9.81079 35.1286 9.81079C35.8588 9.81079 36.4267 9.89187 36.9134 10.2162C37.4002 10.4594 37.8059 10.7838 38.2115 11.2702C38.536 11.6757 38.7794 12.2432 38.9417 12.8108C39.1039 13.3784 39.185 14.027 39.185 14.5946C39.185 15.1621 39.1039 15.7297 38.9417 16.2973C38.7794 16.8648 38.536 17.3513 38.2115 17.7567C37.887 18.1621 37.4813 18.4865 36.9946 18.8108C36.5078 19.054 35.9399 19.2162 35.2909 19.2162C34.723 19.2162 34.2362 19.1351 33.7494 18.8919C33.2627 18.6486 32.9381 18.3243 32.6136 17.9189V22.1351H30.1798L30.0986 10.2162L32.4514 10.054ZM35.6965 17.027C35.9399 16.8648 36.1833 16.6216 36.3455 16.3784C36.5078 16.1351 36.5889 15.8108 36.6701 15.4865C36.7512 15.1621 36.7512 14.7567 36.7512 14.4324C36.7512 14.1081 36.6701 13.7027 36.6701 13.3784C36.5889 13.054 36.5078 12.7297 36.2644 12.4865C36.1022 12.2432 35.8588 12 35.6154 11.8378C35.372 11.6757 35.0475 11.5946 34.6418 11.5946C34.2362 11.5946 33.9117 11.6757 33.6683 11.8378C33.4249 12 33.1815 12.2432 33.0193 12.4865C32.857 12.7297 32.7759 13.054 32.6948 13.3784C32.6136 13.7027 32.6136 14.1081 32.6136 14.4324C32.6136 14.7567 32.6948 15.1621 32.6948 15.4865C32.7759 15.8108 32.857 16.1351 33.1004 16.3784C33.2627 16.6216 33.506 16.8648 33.7494 17.027C33.9928 17.1892 34.3173 17.2702 34.723 17.2702C35.1286 17.2702 35.4531 17.1892 35.6965 17.027Z"/><path fill="#282E38" d="M42.5114 9.97298V11.5946C42.5926 11.3514 42.7548 11.027 42.9982 10.8649C43.1605 10.6216 43.4038 10.4595 43.6472 10.2973C43.8906 10.1351 44.134 9.97298 44.4585 9.8919C44.7019 9.81082 45.0264 9.72974 45.3509 9.72974C45.5132 9.72974 45.6754 9.72974 45.9188 9.81082V12.0811C45.8377 12.0811 45.6754 12 45.5132 12C45.3509 12 45.1887 12 45.0264 12C44.6208 12 44.2151 12.0811 43.8906 12.2432C43.5661 12.4054 43.3227 12.5676 43.1605 12.8919C42.9982 13.1351 42.8359 13.4595 42.7548 13.7838C42.6737 14.1081 42.6737 14.5135 42.6737 14.9189V18.8919H40.2398L40.1587 10.0541L42.5114 9.97298Z"/><path fill="#282E38" d="M46.4868 8.59459V6.56757H48.9207V8.59459H46.4868ZM48.9207 9.89189L49.0018 18.7297H46.5679L46.4868 9.89189H48.9207Z"/><path fill="#282E38" d="M52.4905 16.5406C52.5716 16.7027 52.7339 16.8649 52.8961 17.0271C53.0584 17.1081 53.3018 17.2703 53.464 17.2703C53.7074 17.3514 53.9508 17.3514 54.1942 17.3514C54.3565 17.3514 54.5187 17.3514 54.7621 17.2703C54.9244 17.1892 55.0866 17.1892 55.2489 17.1081C55.4111 17.0271 55.4923 16.946 55.6545 16.7838C55.7356 16.6217 55.8168 16.4595 55.8168 16.2162C55.8168 15.8108 55.5734 15.5676 55.0866 15.4054C54.5998 15.2433 53.9508 15.0811 53.0584 14.8379C52.7339 14.7568 52.3282 14.6757 52.0037 14.5946C51.6792 14.5135 51.3547 14.3514 51.1113 14.1892C50.8679 14.0271 50.6245 13.7838 50.4623 13.5406C50.3 13.2973 50.2189 12.973 50.2189 12.5676C50.2189 12 50.3 11.5135 50.5434 11.1892C50.7868 10.7838 51.0302 10.5406 51.4358 10.2973C51.7603 10.0541 52.2471 9.89193 52.6528 9.81084C53.1395 9.72976 53.5452 9.64868 54.0319 9.64868C54.5187 9.64868 55.0055 9.64868 55.4111 9.81084C55.8979 9.89193 56.3035 10.0541 56.6281 10.2973C56.9526 10.5406 57.2771 10.7838 57.5205 11.1892C57.7639 11.5135 57.9261 12 57.9261 12.5676H55.6545C55.6545 12.0811 55.4111 11.7568 55.0866 11.5946C54.7621 11.4325 54.3565 11.3514 53.9508 11.3514C53.7886 11.3514 53.6263 11.3514 53.5452 11.3514C53.3829 11.3514 53.2207 11.4325 53.1395 11.4325C52.9773 11.5135 52.8961 11.5946 52.815 11.6757C52.7339 11.7568 52.6528 11.919 52.6528 12.0811C52.6528 12.3244 52.7339 12.4865 52.8961 12.6487C53.0584 12.8108 53.3018 12.8919 53.5452 12.973C53.7886 13.0541 54.1131 13.1352 54.4376 13.2162C54.7621 13.2973 55.0866 13.3784 55.4111 13.4595C55.7356 13.5406 56.1413 13.6217 56.4658 13.7027C56.7903 13.7838 57.1148 13.946 57.3582 14.1081C57.6016 14.2703 57.845 14.5135 58.0072 14.8379C58.1695 15.0811 58.2506 15.4865 58.2506 15.8919C58.2506 16.4595 58.1695 16.946 57.9261 17.3514C57.6827 17.7568 57.3582 18.0811 57.0337 18.3244C56.6281 18.5676 56.2224 18.7298 55.7356 18.8108C55.2489 18.8919 54.7621 18.973 54.2753 18.973C53.7886 18.973 53.2207 18.8919 52.7339 18.8108C52.2471 18.7298 51.8415 18.5676 51.4358 18.3244C51.0302 18.0811 50.7057 17.7568 50.4623 17.3514C50.2189 16.946 50.0566 16.4595 50.0566 15.8919H52.3282C52.3282 16.1352 52.4094 16.3784 52.4905 16.5406Z"/><path fill="#282E38" d="M61.5769 9.81084V11.0271C61.9014 10.5406 62.307 10.2162 62.7127 9.973C63.1994 9.72975 63.6862 9.56759 64.2541 9.56759C64.822 9.56759 65.3088 9.64867 65.7955 9.89192C66.2823 10.1352 66.6068 10.4595 66.8502 11.0271C67.0936 10.6216 67.4992 10.2973 67.9049 9.973C68.3917 9.64867 68.8784 9.48651 69.5275 9.48651C70.0142 9.48651 70.4199 9.56759 70.8255 9.64867C71.2312 9.72975 71.5557 9.973 71.8802 10.2162C72.2047 10.4595 72.367 10.7838 72.5292 11.1892C72.6915 11.5946 72.7726 12.0811 72.7726 12.6487L72.8537 18.5676H70.4199L70.3387 13.5406C70.3387 13.2162 70.3387 12.973 70.2576 12.7298C70.2576 12.4865 70.1765 12.2433 70.0954 12.0811C70.0142 11.9189 69.852 11.7568 69.6086 11.5946C69.4463 11.5135 69.1218 11.4325 68.7973 11.4325C68.4728 11.4325 68.1483 11.5135 67.986 11.6757C67.7426 11.8379 67.5804 12 67.4992 12.1622C67.4181 12.4054 67.337 12.6487 67.2559 12.8919C67.2559 13.1352 67.1747 13.4595 67.1747 13.7027L67.2559 18.6487H64.822L64.7409 13.7027C64.7409 13.4595 64.7409 13.2162 64.7409 12.8919C64.7409 12.6487 64.6597 12.4054 64.5786 12.1622C64.4975 11.9189 64.3352 11.7568 64.173 11.6757C64.0107 11.5135 63.6862 11.5135 63.2806 11.5135C63.1994 11.5135 63.0372 11.5135 62.7938 11.5946C62.6315 11.6757 62.3881 11.7568 62.2259 11.9189C62.0636 12.0811 61.9014 12.2433 61.7391 12.5676C61.5769 12.8108 61.5769 13.2162 61.5769 13.6216L61.658 18.7298H59.2241V9.81084H61.5769Z"/><path fill="#282E38" d="M76.91 16.3784C77.3157 16.7027 77.8025 16.8649 78.4515 16.8649C78.9383 16.8649 79.3439 16.7027 79.7495 16.4595C80.0741 16.2162 80.3174 15.973 80.3986 15.6487H82.5079C82.1834 16.7027 81.6155 17.5135 80.9665 17.9189C80.2363 18.4054 79.425 18.6487 78.3704 18.6487C77.6402 18.6487 77.0723 18.5676 76.5044 18.3243C75.9365 18.0811 75.4497 17.7568 75.0441 17.3514C74.6384 16.946 74.3139 16.4595 74.1517 15.8919C73.9083 15.3243 73.8271 14.6757 73.8271 14.027C73.8271 13.3784 73.9083 12.7297 74.1517 12.1622C74.3951 11.5946 74.6384 11.1081 75.0441 10.7027C75.4497 10.2973 75.9365 9.97299 76.5044 9.72975C77.0723 9.4865 77.6402 9.32434 78.3704 9.32434C79.1005 9.32434 79.7495 9.4865 80.3174 9.72975C80.8853 10.0541 81.3721 10.3784 81.6966 10.8649C82.0211 11.3514 82.3457 11.9189 82.5079 12.5676C82.6702 13.2162 82.7513 13.8649 82.6702 14.5135L76.261 14.5946C76.3421 15.4865 76.5855 16.0541 76.91 16.3784ZM79.6684 11.6757C79.3439 11.3514 78.9383 11.1892 78.3704 11.1892C77.9647 11.1892 77.6402 11.2703 77.3968 11.4324C77.1534 11.5946 76.91 11.7568 76.7478 11.9189C76.5855 12.0811 76.5044 12.3243 76.4233 12.5676C76.3421 12.8108 76.3421 12.973 76.3421 13.1352H80.3174C80.1552 12.4865 79.9118 12 79.6684 11.6757Z"/><path fill="#282E38" d="M83.5627 12.3243C83.5627 11.7568 83.725 11.2703 83.9684 10.8649C84.2118 10.4595 84.5363 10.2162 84.9419 9.97299C85.3476 9.72975 85.7532 9.56758 86.24 9.4865C86.7268 9.40542 87.2135 9.32434 87.7003 9.32434C88.1059 9.32434 88.5927 9.32434 89.0795 9.40542C89.5663 9.4865 89.9719 9.56758 90.2964 9.72975C90.7021 9.89191 90.9454 10.1352 91.1888 10.4595C91.4322 10.7838 91.5945 11.1892 91.5945 11.7568L91.6756 16.3784C91.6756 16.7838 91.6756 17.1892 91.7567 17.5135C91.8379 17.9189 91.919 18.1622 92.0001 18.3243H89.5663C89.4851 18.1622 89.4851 18.0811 89.4851 17.9189C89.4851 17.7568 89.404 17.5946 89.404 17.5135C88.9984 17.9189 88.5927 18.1622 88.0248 18.3243C87.538 18.4865 86.9701 18.5676 86.4022 18.5676C85.9966 18.5676 85.5909 18.4865 85.1853 18.4054C84.7797 18.3243 84.5363 18.1622 84.2118 17.9189C83.9684 17.6757 83.725 17.4325 83.5627 17.1081C83.4005 16.7838 83.3193 16.3784 83.3193 15.8919C83.3193 15.4054 83.4005 15 83.5627 14.6757C83.725 14.3514 83.9684 14.1081 84.2118 13.8649C84.4551 13.7027 84.7797 13.5406 85.1853 13.4595C85.5098 13.3784 85.9155 13.2973 86.24 13.2162C86.6456 13.1352 86.9701 13.1352 87.2946 13.0541C87.6192 13.0541 87.9437 12.973 88.2682 12.8919C88.5116 12.8108 88.755 12.7297 88.9172 12.5676C89.0795 12.4054 89.1606 12.2433 89.1606 12C89.1606 11.7568 89.0795 11.5135 88.9984 11.3514C88.9172 11.1892 88.8361 11.1081 88.6738 11.027C88.5116 10.946 88.3493 10.8649 88.1871 10.8649C88.0248 10.8649 87.7814 10.8649 87.6192 10.8649C87.1324 10.8649 86.7267 10.946 86.4834 11.1892C86.24 11.4324 86.0777 11.7568 85.9966 12.2433L83.5627 12.3243ZM89.2417 14.027C89.1606 14.1081 88.9984 14.1892 88.8361 14.2703C88.6738 14.3514 88.5116 14.3514 88.3493 14.4325C88.1871 14.4325 88.0248 14.5135 87.7814 14.5135C87.6192 14.5135 87.3758 14.5946 87.2135 14.5946C87.0513 14.5946 86.889 14.6757 86.6456 14.7568C86.4022 14.8379 86.3211 14.9189 86.1588 15C85.9966 15.0811 85.9155 15.2433 85.8343 15.4054C85.7532 15.5676 85.7532 15.7297 85.7532 15.973C85.7532 16.2162 85.8343 16.3784 85.9155 16.5406C85.9966 16.7027 86.0777 16.7838 86.24 16.8649C86.4022 16.946 86.5645 17.027 86.7267 17.027C86.889 17.027 87.1324 17.1081 87.2946 17.1081C87.7814 17.1081 88.1059 17.027 88.4305 16.8649C88.6738 16.7027 88.9172 16.5406 88.9984 16.2973C89.1606 16.0541 89.1606 15.8108 89.2417 15.6487C89.2417 15.4054 89.2417 15.2433 89.2417 15.0811V14.027Z"/></svg>