<svg xmlns="http://www.w3.org/2000/svg" viewBox="0 0 194.64 127.65"><defs><style>.cls-1{fill:#fff}.cls-2{fill:#0059a3}.cls-3{fill:#bcd5f0}.cls-4{fill:#8ab5e1}</style></defs><title>logoSII OK-CMJN-contour-SVG</title><g id="Calque_3" data-name="Calque 3"><path d="M393,392.65c-2-5.21-5.93-9.45-11.35-12.67a20.65,20.65,0,0,0-2.53-6.23c-12.23-19.85-56.53-14.77-98.94,11.36-1.7,1-3.35,2.11-5,3.19-48.12,20.51-79.29,54.23-70.39,77.23,9.32,24.07,59,27.26,111,7.14S402.31,416.71,393,392.65Z" class="cls-1" transform="translate(-201.58 -359.93)"/><path d="M251.52,487.58h0c-25.42,0-43-7.82-48.31-21.45-4.54-11.72.49-26.39,14.14-41.31,13.26-14.49,33.51-28,57-38,1.77-1.17,3.38-2.19,4.9-3.14,24.48-15.07,50.3-23.72,70.84-23.72,14.71,0,25.24,4.47,30.45,12.92a22.38,22.38,0,0,1,2.56,6c5.56,3.46,9.42,7.88,11.46,13.15,4.76,12.29-.92,27.66-16,43.28-14.75,15.29-36.85,29.11-62.2,38.93-22.22,8.6-45.25,13.34-64.86,13.34Z" class="cls-1" transform="translate(-201.58 -359.93)"/><path d="M393,392.65c-2-5.21-5.93-9.45-11.35-12.67a20.65,20.65,0,0,0-2.53-6.23c-12.23-19.85-56.53-14.77-98.94,11.36-1.7,1-3.35,2.11-5,3.19-48.12,20.51-79.29,54.23-70.39,77.23,9.32,24.07,59,27.26,111,7.14S402.31,416.71,393,392.65Z" class="cls-1" transform="translate(-201.58 -359.93)"/><path d="M242.56,415.46c13.7-16.37,37.36-30.33,37.36-30.33s20.48-13.36,44.42-19.47c24.12-6.15,30.17.34,30.17.34s11.7,36.54,11.81,36.76-18.67,54.31-18.67,54.31-24.08,14.51-50.85,21.86-46,7.4-55.49,6.29-2.53-33-2.53-33Z" class="cls-1" transform="translate(-201.58 -359.93)"/><path d="M233.55,422.66l15.69-20.9a206.13,206.13,0,0,1,69.07-26.47L230,449Z" class="cls-1" transform="translate(-201.58 -359.93)"/><path d="M252.85,479.87c-12.73-.37-22.55-4.36-27.35-12.22-8-13.14,0-33.79,18.55-53.74.65-4.58,2.88-8.8,6.06-12.75-33.23,19.95-52.44,45.63-45.25,64.26,4.74,12.29,20,19.13,40.8,20.2A73.69,73.69,0,0,0,252.85,479.87Z" class="cls-2" transform="translate(-201.58 -359.93)"/><path d="M296.88,470.63A134,134,0,0,1,267,479a83.28,83.28,0,0,1-8.22,6.61,177.77,177.77,0,0,0,39.18-7C297.58,476.12,297.21,473.45,296.88,470.63Z" class="cls-2" transform="translate(-201.58 -359.93)"/><path d="M330.74,452.72q-3.18,2.12-6.5,4.15c-4.42,2.7-8.86,5.15-13.29,7.39-.41,4.1-.91,7.72-1.48,10.67q3.13-1.1,6.28-2.31,8.25-3.18,15.87-6.86C331.24,461.59,330.94,457.21,330.74,452.72Z" class="cls-2" transform="translate(-201.58 -359.93)"/><path d="M393,392.79c-2-5.29-6-9.56-11.58-12.81,3.9,16.17-9.7,39.63-34.13,60.3,0,6.11-.24,12-.6,17.42C380.62,437.66,400.31,411.63,393,392.79Z" class="cls-2" transform="translate(-201.58 -359.93)"/><path d="M307.79,377.5a177.24,177.24,0,0,1,25.51-4.42v-.36l9.73-5.82v5.58c15.83-.41,29.25,2.13,38.43,7.5A20.64,20.64,0,0,0,379,374c-9.5-15.58-38.67-16-71.23-3Z" class="cls-3" transform="translate(-201.58 -359.93)"/><path d="M298.06,375.24a188.51,188.51,0,0,0-17.77,9.57c-1.8,1.1-3.55,2.22-5.28,3.36l.27.23c2.26-1,4.54-1.9,6.87-2.8,5.34-2.06,10.65-3.87,15.9-5.44Z" class="cls-3" transform="translate(-201.58 -359.93)"/><path d="M253.58,436.88c-8-8.64-10.49-16.2-9.52-23-18.56,19.95-26.57,40.59-18.55,53.74,4.8,7.87,14.62,11.85,27.35,12.22C268.71,465.29,266.73,451.08,253.58,436.88Z" class="cls-4" transform="translate(-201.58 -359.93)"/><path d="M381.46,380c-9.18-5.37-22.6-7.91-38.43-7.5V384l-9.73,5.82v-16.7a177.24,177.24,0,0,0-25.51,4.42V384l-9.73,5.82v-9.62c-5.25,1.57-10.56,3.38-15.9,5.44-2.33.9-4.61,1.84-6.87,2.8l3.12,2.68c-16,9.12-25.53,20.47-6.87,39.87,15.41,16,11.51,33.26-4.5,48a134,134,0,0,0,29.84-8.34c-2.62-22.67-2.26-54.54,1.18-70l9.73-5.82c4.89,19.46,5.1,49.82,3.15,69.41,4.42-2.24,8.87-4.69,13.29-7.39q3.33-2,6.5-4.15c-.87-19.37,0-40.41,2.57-52.06l9.73-5.82c3.15,12.55,4.36,29.63,4.3,45.43C371.76,419.61,385.36,396.15,381.46,380Z" class="cls-4" transform="translate(-201.58 -359.93)"/><path d="M249.91,401.5a44.18,44.18,0,0,1,8.37-7.88,104.84,104.84,0,0,1,13.59-8.39l6.36,5.75s-5.32.57-11.58,6.27a42.57,42.57,0,0,1-13.1,8.07Z" class="cls-1" transform="translate(-201.58 -359.93)"/></g></svg>