<svg xmlns="http://www.w3.org/2000/svg" viewBox="0 0 161.56 152.39"><defs><style>.cls-1{fill:none}.cls-2{isolation:isolate}.cls-3{fill:#ececec}.cls-4{clip-path:url(#clip-path)}.cls-5{fill:#ecac4c}.cls-6{fill:#eb8c4a}.cls-7{fill:#ea6d4b}.cls-8{fill:#e84c4c}.cls-9{fill:#0c577c}.cls-10{opacity:.3;mix-blend-mode:multiply}.cls-11{fill:#033d56}.cls-12{fill:#fff}</style><clipPath id="clip-path"><circle cx="76.19" cy="76.19" r="71.01" class="cls-1"/></clipPath></defs><title>logo-full-inverted</title><g class="cls-2"><g id="Calque_2" data-name="Calque 2"><g id="Calque_1-2" data-name="Calque 1"><circle cx="76.19" cy="76.19" r="76.19" class="cls-3"/><g class="cls-4"><rect width="159.45" height="28.37" x="2.1" y="5.28" class="cls-5"/><rect width="159.45" height="28.37" x="2.1" y="33.63" class="cls-6"/><rect width="159.45" height="28.37" x="2.1" y="61.98" class="cls-7"/><rect width="159.45" height="28.37" x="2.1" y="90.36" class="cls-8"/><rect width="159.45" height="28.37" x="2.1" y="118.73" class="cls-9"/></g><g class="cls-10"><path d="M35.39,70.35a7,7,0,0,0-1.17.38L37.3,55.41a2.53,2.53,0,1,0-5-.87l-10,49a2.43,2.43,0,0,0,.75,2.39,2.82,2.82,0,0,0,2.45.6l.25-.07a2.2,2.2,0,0,0,1.48-1.67L32,81.52c.94-3.8,2.46-6,4.51-6.44,2.34-.55,2.56.39,2.7,1a7.37,7.37,0,0,1-.15,2.7l-4.51,21.63a2.49,2.49,0,0,0,.76,2.47,2.86,2.86,0,0,0,2.75.6,2.11,2.11,0,0,0,1.42-1.66L44,79.8A10.5,10.5,0,0,0,44.1,75C43.19,71.07,39.86,69.31,35.39,70.35ZM125,84.05a8,8,0,0,0,1.17-.39L123.12,99a2.53,2.53,0,1,0,5,.86l9.93-49a2.42,2.42,0,0,0-.75-2.39,2.82,2.82,0,0,0-2.45-.6l-.25.07a2.2,2.2,0,0,0-1.48,1.67l-4.7,23.25c-.94,3.8-2.45,6-4.5,6.45-2.34.55-2.56-.4-2.71-1a7.67,7.67,0,0,1,.16-2.7L125.85,54a2.49,2.49,0,0,0-.76-2.47,2.84,2.84,0,0,0-2.75-.61,2.14,2.14,0,0,0-1.42,1.66l-4.52,22a10.5,10.5,0,0,0-.09,4.85C117.21,83.33,120.55,85.09,125,84.05ZM53.31,63a3.07,3.07,0,0,0,2.64.51,4.06,4.06,0,0,0,2.95-3.17,3.1,3.1,0,0,0-1.14-3.21,3.19,3.19,0,0,0-3.67-.21,3.8,3.8,0,0,0-2,3.72A3.1,3.1,0,0,0,53.31,63Zm1,3.54a2.52,2.52,0,0,0-2.89,2.12l-6,29.44a2.3,2.3,0,0,0,.57,2.37,2.93,2.93,0,0,0,2.64.63l.26-.08a2.07,2.07,0,0,0,1.48-1.57l6-29.94A2.53,2.53,0,0,0,54.27,66.54Zm36-8.44a2.56,2.56,0,0,0-3,2L82.7,82.62l0,.19c0,.07-1,7.19-5,7.19a2.73,2.73,0,0,1-2-.62,2.84,2.84,0,0,1-.41-1.79q.09-.48.15-.93l4.6-22.45a2.56,2.56,0,1,0-5-1.07l-4.6,22.45a9.38,9.38,0,0,0-.19,1.23c-.42,1.92-1.72,6.29-4.87,6.29a2.75,2.75,0,0,1-2-.62,3.78,3.78,0,0,1-.3-2.68l4.62-22.54a2.54,2.54,0,1,0-5-1L58,88.7c-.1.42-.92,4.15,1.26,6.92a7.22,7.22,0,0,0,6,2.56,8.8,8.8,0,0,0,7.57-4.49,7.9,7.9,0,0,0,4.78,1.38c6.74,0,9.49-7.19,10.07-11.52l4.6-22.45A2.55,2.55,0,0,0,90.31,58.1ZM112.57,53a2.32,2.32,0,0,0-.79,0,2.46,2.46,0,0,0-2,1.76,6.24,6.24,0,0,0-3.29-.73,8.82,8.82,0,0,0-2,.24,9.66,9.66,0,0,0-1.32.42c-3.61,1.42-6,4.94-7.13,10.75L95.28,69l-.85,4-.71,3.37L93,80.15A10.33,10.33,0,0,0,92.94,85c.86,3.56,3.73,5.18,6.42,4.42,1.47-.42,4.46-3.33,4.43-4a2.52,2.52,0,0,0,1.95,2.71,2.55,2.55,0,0,0,3.05-2l2.09-11.54,3.78-18.7A2.53,2.53,0,0,0,112.57,53ZM100.92,66.72c.92-4.63,2.49-7.24,4.67-7.75,2.35-.55,2.57.39,2.71,1a.31.31,0,0,1,0,.09,17.82,17.82,0,0,1-.21,1.8L107.52,65l-.82,4.08-.57,2.86c-.54,2.52-1.43,7-2,8a4.91,4.91,0,0,1-.91,1.16,10.38,10.38,0,0,1-2.26,1.55c-2.43,1.32-2.82-1.25-2.15-5.79L100.23,70Z" class="cls-11"/></g><path d="M31.39,69.35a7,7,0,0,0-1.17.38L33.3,54.41a2.53,2.53,0,1,0-5-.87l-10,49a2.43,2.43,0,0,0,.75,2.39,2.82,2.82,0,0,0,2.45.6l.25-.07a2.2,2.2,0,0,0,1.48-1.67L28,80.52c.94-3.8,2.46-6,4.51-6.44,2.34-.55,2.56.39,2.7,1a7.37,7.37,0,0,1-.15,2.7L30.54,99.43a2.49,2.49,0,0,0,.76,2.47,2.86,2.86,0,0,0,2.75.6,2.11,2.11,0,0,0,1.42-1.66L40,78.8A10.5,10.5,0,0,0,40.1,74C39.19,70.07,35.86,68.31,31.39,69.35ZM121,83.05a8,8,0,0,0,1.17-.39L119.12,98a2.53,2.53,0,1,0,5,.86l9.93-49a2.42,2.42,0,0,0-.75-2.39,2.82,2.82,0,0,0-2.45-.6l-.25.07a2.2,2.2,0,0,0-1.48,1.67l-4.7,23.25c-.94,3.8-2.45,6-4.5,6.45-2.34.55-2.56-.4-2.71-1a7.67,7.67,0,0,1,.16-2.7L121.85,53a2.49,2.49,0,0,0-.76-2.47,2.84,2.84,0,0,0-2.75-.61,2.14,2.14,0,0,0-1.42,1.66l-4.52,22a10.5,10.5,0,0,0-.09,4.85C113.21,82.33,116.55,84.09,121,83.05ZM49.31,62a3.07,3.07,0,0,0,2.64.51,4.06,4.06,0,0,0,2.95-3.17,3.1,3.1,0,0,0-1.14-3.21,3.19,3.19,0,0,0-3.67-.21,3.8,3.8,0,0,0-2,3.72A3.1,3.1,0,0,0,49.31,62Zm1,3.54a2.52,2.52,0,0,0-2.89,2.12l-6,29.44A2.3,2.3,0,0,0,42,99.47a2.93,2.93,0,0,0,2.64.63l.26-.08a2.07,2.07,0,0,0,1.48-1.57l6-29.94A2.53,2.53,0,0,0,50.27,65.54Zm36-8.44a2.56,2.56,0,0,0-3,2L78.7,81.62l0,.19c0,.07-1,7.19-5,7.19a2.73,2.73,0,0,1-2-.62,2.84,2.84,0,0,1-.41-1.79q.09-.48.15-.93l4.6-22.45a2.56,2.56,0,1,0-5-1.07l-4.6,22.45a9.38,9.38,0,0,0-.19,1.23c-.42,1.92-1.72,6.29-4.87,6.29a2.75,2.75,0,0,1-2-.62,3.78,3.78,0,0,1-.3-2.68l4.62-22.54a2.54,2.54,0,1,0-5-1L54,87.7c-.1.42-.92,4.15,1.26,6.92a7.22,7.22,0,0,0,6,2.56,8.8,8.8,0,0,0,7.57-4.49,7.9,7.9,0,0,0,4.78,1.38c6.74,0,9.49-7.19,10.07-11.52l4.6-22.45A2.55,2.55,0,0,0,86.31,57.1ZM108.57,52a2.32,2.32,0,0,0-.79,0,2.46,2.46,0,0,0-2,1.76,6.24,6.24,0,0,0-3.29-.73,8.82,8.82,0,0,0-2,.24,9.66,9.66,0,0,0-1.32.42c-3.61,1.42-6,4.94-7.13,10.75L91.28,68l-.85,4-.71,3.37L89,79.15A10.33,10.33,0,0,0,88.94,84c.86,3.56,3.73,5.18,6.42,4.42,1.47-.42,4.46-3.33,4.43-4a2.52,2.52,0,0,0,1.95,2.71,2.55,2.55,0,0,0,3.05-2l2.09-11.54,3.78-18.7A2.53,2.53,0,0,0,108.57,52ZM96.92,65.72c.92-4.63,2.49-7.24,4.67-7.75,2.35-.55,2.57.39,2.71,1a.31.31,0,0,1,0,.09,17.82,17.82,0,0,1-.21,1.8L103.52,64l-.82,4.08-.57,2.86c-.54,2.52-1.43,7-2,8a4.91,4.91,0,0,1-.91,1.16,10.38,10.38,0,0,1-2.26,1.55c-2.43,1.32-2.82-1.25-2.15-5.79L96.23,69Z" class="cls-12"/></g></g></g></svg>