<svg xmlns="http://www.w3.org/2000/svg" id="svg4188" viewBox="0 0 500 200"><g id="Calque_1" data-name="Calque 1" transform="translate(0 -142)"><path id="path4147" fill="#003a70" d="M109.1 173.6l-43 85.3H43.6L1 173.6h16.5L54.2 247l1.3-.9 36.7-72.4z" class="cls-1"/><path id="path4149" fill="#003a70" d="M143.5 258.9h-14.7v-85.3h14.7z" class="cls-1"/><path id="path4151" fill="#003a70" d="M261.8 234.1c0 9.6-2.3 16-7.4 20.2-4.1 3.2-11.4 5-20.6 5h-42.6c-18.8 0-28-8.3-28-24.3H178c0 7.3 5.5 11 16 11h36.6a25.2 25.2 0 0 0 11.5-2.3c3.2-1.8 5-5 5-10 0-5.6-2.8-9.2-8.7-11a46.7 46.7 0 0 0-15.6-1.9c-2.7 0-6.9 0-12.4.5-5.5 0-9.6.4-12.3.4-11 0-18.8-1.3-24.3-4-7.4-3.8-11.5-10.6-11.5-20.3 0-8.7 2.8-15 7.8-18.8a36 36 0 0 1 20.6-5h40.9c20.2 0 30.3 8.3 30.3 24.3h-15.2c0-7.3-5.5-11-16-11h-38.5c-8.7 0-13.3 3.7-13.3 11 0 7.8 8.3 11.5 24.3 11.5 2.3 0 6.4 0 11.5-.5 5-.4 8.7-.4 11.4-.4 11 0 19.3 1.4 25.2 4.6 6.9 4 10.6 10.9 10.6 21z" class="cls-1"/><path id="path4153" fill="#003a70" d="M382.3 233.7c0 11-3.7 17.8-10.6 21-5 2.8-15.5 3.7-31.6 3.7h-18.8c-11.9 0-20.6-1-26-3.2a20.7 20.7 0 0 1-12.5-12.4 86.7 86.7 0 0 1-3.2-26.1q0-19.2 2.8-27.5a19.3 19.3 0 0 1 11.9-13.3c5.5-1.4 14.6-2.3 27-2.3H340c15.1 0 25.6 2.3 32.5 6.4 6 4.2 9.2 10.1 9.2 18.8H368c0-5.5-2.8-9.2-7.8-10.5q-4.8-1.4-20.6-1.4h-17.5c-11.4 0-19.2 1-22.4 3.2-4.1 2.8-6.4 9.2-6.4 19.3v12.3c0 11.5 1.8 18.4 6 21.6 3.2 2.3 10.5 3.6 22.4 3.6h17.9c10.5 0 17.9-.4 20.6-1.3 5-1.4 7.8-5 7.8-11h14.2zM351 221.3h-57.7v-12.4H351z" class="cls-1"/><path id="path4155" fill="#003a70" d="M499.1 221.3c0 11.4-1.3 19.7-4 25.2a20.4 20.4 0 0 1-13.8 10.5c-5 1.4-13.3 2.3-25.2 2.3h-15.6a74 74 0 0 1-26.1-3.2 20.6 20.6 0 0 1-12.4-12.4 86.3 86.3 0 0 1-3.2-26c0-13 1-21.6 2.7-27a19.3 19.3 0 0 1 12-13.4 75.7 75.7 0 0 1 27-3.7H456q19.9 0 28.8 4.2a21 21 0 0 1 11.5 14.6c2.3 5 2.8 14.7 2.8 28.9zm-14.2-.5v-8.2c0-8.3-.9-13.8-2.2-17.5a11.6 11.6 0 0 0-8.8-6.4c-3.2-.9-8.7-.9-17.4-.9H442c-12 0-19.3 1.4-22.5 3.7-3.7 3.2-5.5 10-5.5 21.5v8.3c0 11 1.8 17.8 5.5 21 3.2 2.3 10 3.3 22 3.3h14.7a119.6 119.6 0 0 0 17-1c4-.9 7.3-3.2 8.6-6.4 2.3-3.6 3.2-9.6 3.2-17.4z" class="cls-1"/><path id="path4157" fill="#09f" d="M133.1 306.4a10.8 10.8 0 0 1 4.2 4A11.1 11.1 0 0 1 133 326a12 12 0 0 1-5.9 1.5h-9v-22.5h9a11.8 11.8 0 0 1 6 1.5zm-1.1 17.7a9.2 9.2 0 0 0 0-16 9.3 9.3 0 0 0-4.7-1.2h-6.8v18.5h6.9a9.2 9.2 0 0 0 4.6-1.3z" class="cls-2"/><path id="path4159" fill="#09f" d="M143.7 305h2.2v22.4h-2.2z" class="cls-2"/><path id="path4161" fill="#09f" d="M168.7 316.4h2v8.2a12.2 12.2 0 0 1-3.8 2.1 12.7 12.7 0 0 1-4.5.8 11.7 11.7 0 0 1-10-5.7 11 11 0 0 1-1.6-5.7 10.8 10.8 0 0 1 1.5-5.7 11.4 11.4 0 0 1 4.3-4.1 12 12 0 0 1 6-1.6 12.6 12.6 0 0 1 4.4.8 12 12 0 0 1 3.7 2.3l-1.3 1.6a9.8 9.8 0 0 0-3.1-2 10.3 10.3 0 0 0-3.8-.7 9.4 9.4 0 0 0-4.7 1.2 9.6 9.6 0 0 0-3.5 3.4 9.4 9.4 0 0 0 0 9.5 9.5 9.5 0 0 0 3.5 3.5 9.4 9.4 0 0 0 4.8 1.2 10.1 10.1 0 0 0 3.2-.5 11 11 0 0 0 3-1.5z" class="cls-2"/><path id="path4163" fill="#09f" d="M177.2 305h2.2v22.4h-2.2z" class="cls-2"/><path id="path4165" fill="#09f" d="M183.3 304.9h17v2h-7.5v20.4h-2.2V307h-7.4z" class="cls-2"/><path id="path4167" fill="#09f" d="M218.8 327.4l-2.6-6h-12.5l-2.6 6h-2.4l10.1-22.5h2.4l10 22.5zm-14.2-8h10.7l-5.4-12.2z" class="cls-2"/><path id="path4169" fill="#09f" d="M225 305h2.2v20.4h9.8v2h-12.1z" class="cls-2"/><path id="path4171" fill="#09f" d="M250.2 304.9h2.8l8.8 16.8 8.7-16.8h2.8v22.5h-2.1V308l-8.8 17h-1.2l-8.8-17v19.3h-2.1z" class="cls-2"/><path id="path4173" fill="#09f" d="M297 327.4l-2.7-6H282l-2.6 6h-2.4l10.1-22.5h2.3l10.1 22.5zm-14.2-8h10.7l-5.4-12.2z" class="cls-2"/><path id="path4175" fill="#09f" d="M321.1 327.4h-2.7l-8.5-11-4.6 5v6h-2.2v-22.5h2.2v13.7l12.5-13.7h2.7l-9 9.8z" class="cls-2"/><path id="path4177" fill="#09f" d="M325.4 305h15v2h-12.8v8H339v2h-11.4v8.4h13.2v2h-15.4z" class="cls-2"/><path id="path4179" fill="#09f" d="M361 327.4l-4.8-7.4H348.4v7.3h-2.2V305h8.4a9.8 9.8 0 0 1 6.5 2 6.8 6.8 0 0 1 2.3 5.5 7.7 7.7 0 0 1-1.3 4.6 7 7 0 0 1-3.9 2.6l5.4 7.7zm-6.4-9.3a7.5 7.5 0 0 0 5-1.5 5.2 5.2 0 0 0 1.6-4.2 5 5 0 0 0-1.7-4 7.6 7.6 0 0 0-5-1.5h-6v11.2z" class="cls-2"/><path id="path4181" fill="#09f" d="M378.9 307.3a11.3 11.3 0 0 0-3.1-.5 6.7 6.7 0 0 0-3.7.9 2.8 2.8 0 0 0-1.4 2.5 3.2 3.2 0 0 0 .8 2.2 5.5 5.5 0 0 0 1.9 1.4 32 32 0 0 0 3 1.1 26.2 26.2 0 0 1 3.7 1.3 6.4 6.4 0 0 1 2.4 2 5.2 5.2 0 0 1 1 3.2 5.2 5.2 0 0 1-1 3.2 6.5 6.5 0 0 1-2.9 2.2 10.9 10.9 0 0 1-4.2.7 11.8 11.8 0 0 1-4.5-1 12.4 12.4 0 0 1-3.9-2.4l1-1.8a11.2 11.2 0 0 0 3.5 2.3 10 10 0 0 0 4 .8 7.1 7.1 0 0 0 4-1 3.3 3.3 0 0 0 1.5-2.8 3.5 3.5 0 0 0-.7-2.3 5.2 5.2 0 0 0-2-1.4l-3-1.1a31.6 31.6 0 0 1-3.7-1.3 6.2 6.2 0 0 1-2.4-1.9 5.1 5.1 0 0 1-1-3.2 4.8 4.8 0 0 1 1-3 6 6 0 0 1 2.7-2 10.8 10.8 0 0 1 4-.7 13 13 0 0 1 3.7.5 13.1 13.1 0 0 1 3.3 1.5l-1 1.9a11.5 11.5 0 0 0-3-1.4z" class="cls-2"/><path id="rect4183" fill="#003a70" d="M.9 312.4h98.5v4.6H.9z" class="cls-1"/><path id="rect4185" fill="#003a70" d="M399.7 312.4h98.5v4.6h-98.5z" class="cls-1"/></g></svg>