<svg xmlns="http://www.w3.org/2000/svg" xmlns:svg="http://www.w3.org/2000/svg" id="Calque_1" data-name="Calque 1" version="1.1" viewBox="0 0 2267.7 1313.9"><metadata id="metadata129"/><defs id="defs4"><style id="style2">.cls-1{fill:#f89730}.cls-2{fill:none}.cls-3{fill:#ee2f33}.cls-4{fill:#f2642a}</style></defs><title id="title6">Logo-MAX-couleur-reussite-collaborative</title><path id="path12" d="M1947.9,828.4c-7.5,0-13.4,2.4-17.6,7.1s-7.1,11.1-8.7,19.2h50.8c-1.2-8.3-3.9-14.7-8.2-19.3A21.2,21.2,0,0,0,1947.9,828.4Z" class="cls-2"/><path id="path14" d="M453.7,841.3c-4.3-6.4-10.5-9.7-18.6-9.7-7.7,0-13.8,3-18.3,9.1s-6.8,14.1-6.8,24.1c0,9.8,2.3,17.9,6.8,24.3a21.15,21.15,0,0,0,18.3,9.5c8.1,0,14.3-3.2,18.6-9.5s6.5-14.4,6.5-24.3C460.1,855.6,458,847.7,453.7,841.3Z" class="cls-2"/><path id="path16" d="M177.2,797.4H149.8V904h27.4c13.9,0,25.2-4.4,33.9-13.3s13.1-22,13.1-39.6c0-17.1-4.2-30.4-12.7-39.7S191.7,797.4,177.2,797.4Z" class="cls-2"/><path id="path18" d="M781.8,884.4c-8.1,1.7-13.6,3.9-16.5,6.4s-4.3,6-4.3,10.4c0,5,1.7,8.6,5.2,10.8a21.63,21.63,0,0,0,11.8,3.3,27.49,27.49,0,0,0,17.2-5.8c5.1-3.8,7.7-10.2,7.7-19.1v-13a89.42,89.42,0,0,1-9.1,3.8A85.57,85.57,0,0,1,781.8,884.4Z" class="cls-2"/><path id="path20" d="M1276.5,835.3a21.46,21.46,0,0,0-16.3-6.9c-7.5,0-13.4,2.4-17.6,7.1s-7.1,11.1-8.7,19.2h50.8C1283.6,846.4,1280.8,840,1276.5,835.3Z" class="cls-2"/><path id="path22" d="M225.6,754.4a116.63,116.63,0,0,0-40.9-6.9H89.5V953.9h92.7c16,0,30.4-2.3,43.2-6.8A87.58,87.58,0,0,0,258,927.2,85.93,85.93,0,0,0,278.5,895c4.7-12.7,7.1-27.3,7.1-43.9,0-16.4-2.5-31-7.4-43.9a91.31,91.31,0,0,0-20.6-32.6A89.94,89.94,0,0,0,225.6,754.4ZM211.2,890.7c-8.8,8.9-20.1,13.3-33.9,13.3H149.9V797.4h27.4c14.4,0,25.9,4.7,34.4,14s12.7,22.6,12.7,39.7Q224.25,877.35,211.2,890.7Z" class="cls-3"/><rect id="rect24" width="54.6" height="41.3" x="299.6" y="747.5" class="cls-3"/><rect id="rect26" width="54.6" height="147.2" x="299.6" y="806.7" class="cls-3"/><path id="path28" d="M465.6,991.5a60.94,60.94,0,0,0,24.3-12.4,59.88,59.88,0,0,0,15.7-21.7c3.9-8.9,5.9-19.2,5.9-31.2V796.7h-52v16.2h-.9a47.46,47.46,0,0,0-16.3-15.2c-6.6-3.8-15.2-5.6-25.6-5.6a52.31,52.31,0,0,0-24.7,5.8,56.61,56.61,0,0,0-18.9,15.9A76.24,76.24,0,0,0,361,837.6a97.16,97.16,0,0,0-4.3,29.6c0,11.5,1.7,21.7,5.1,30.3a63.34,63.34,0,0,0,13.7,21.8,55.64,55.64,0,0,0,19.9,13.1,65.94,65.94,0,0,0,24,4.3c8.7,0,15.9-1.5,21.8-4.6A53.27,53.27,0,0,0,456.6,920h1.2v13.3c0,7.7-1.7,13.9-5.2,18.6S443,959,434.1,959c-6.5,0-11.6-1.3-15.2-3.9s-5.8-5.4-6.8-8.5H359.6q4,24.6,24.1,36.7t51.2,12.1A123.36,123.36,0,0,0,465.6,991.5ZM453.7,889c-4.3,6.4-10.5,9.5-18.6,9.5a21.38,21.38,0,0,1-18.3-9.5c-4.5-6.4-6.8-14.4-6.8-24.3s2.3-18,6.8-24.1,10.6-9.1,18.3-9.1c8.1,0,14.3,3.2,18.6,9.7s6.5,14.3,6.5,23.5C460.1,874.6,458,882.7,453.7,889Z" class="cls-3"/><rect id="rect30" width="54.6" height="41.3" x="531.2" y="737.5" class="cls-3"/><rect id="rect32" width="54.6" height="147.2" x="531.2" y="796.7" class="cls-3"/><path id="path34" d="M698,829.6V796.7H670V749H616.6v47.6H597.5v32.9h19.1v71.9c0,8.9,1.2,16.2,3.5,21.9a32.8,32.8,0,0,0,10.1,13.9c4.4,3.5,10,5.9,16.7,7.4a116.58,116.58,0,0,0,23.7,2.2,87.81,87.81,0,0,0,14-1c4.3-.7,8.6-1.5,12.8-2.5V903.2a91.79,91.79,0,0,1-11.4.4,30.44,30.44,0,0,1-8.7-1.4,10.81,10.81,0,0,1-5.5-4.3c-1.3-2-1.9-4.9-1.9-8.5V829.6Z" class="cls-3"/><path id="path36" d="M793.3,852.1a64.61,64.61,0,0,1-12.3,3.5c-5.1,1-11.5,1.8-19.2,2.6a131.5,131.5,0,0,0-20.4,3.8,52,52,0,0,0-17,7.8,37.91,37.91,0,0,0-11.7,13.4c-2.9,5.5-4.3,12.3-4.3,20.4,0,7.3,1.2,13.7,3.8,19.2a38.18,38.18,0,0,0,10.2,13.7,44.13,44.13,0,0,0,15.4,8.4,64.45,64.45,0,0,0,19.6,2.9c9.6,0,18.2-1.6,25.7-4.9a46.51,46.51,0,0,0,18.8-15h.6a53.65,53.65,0,0,0,2.2,9.8,58.88,58.88,0,0,0,2.7,6.4h53.7v-2.3q-3.45-2.25-4.5-7.5a77.85,77.85,0,0,1-1-14.4V846q0-30-22.8-44.2a58.33,58.33,0,0,0-19.8-7.5,149.88,149.88,0,0,0-28.4-2.3c-11.5,0-21.7,1.4-30.3,4.2a64.64,64.64,0,0,0-21.7,11.4,46.33,46.33,0,0,0-13.1,16.9,51.42,51.42,0,0,0-4.8,20.6h51.7c.8-5.4,2.7-9.7,5.8-12.8s7.6-4.8,13.6-4.8,10.1,1.3,12.3,4a15.53,15.53,0,0,1,3.3,10.1,10.26,10.26,0,0,1-1.7,5.9C798.5,849.3,796.4,850.7,793.3,852.1Zm9.6,25.4v13c0,8.9-2.6,15.2-7.7,19.1a27.49,27.49,0,0,1-17.2,5.8,21.39,21.39,0,0,1-11.8-3.3c-3.5-2.2-5.2-5.8-5.2-10.8,0-4.4,1.4-7.9,4.3-10.4s8.4-4.6,16.5-6.4a102,102,0,0,0,12-3.2C797.1,880.1,800.2,878.8,802.9,877.5Z" class="cls-3"/><rect id="rect38" width="56" height="206.4" x="876.5" y="737.5" class="cls-3"/><path id="path40" d="M1171.3,879.8c0-11-2-20.2-5.9-27.6a56.53,56.53,0,0,0-15.7-18.6,83.13,83.13,0,0,0-22.2-12,240,240,0,0,0-25.4-7.6c-7.7-1.9-14.6-3.5-20.6-4.8a137.31,137.31,0,0,1-15.3-4c-4.1-1.4-7.3-3.1-9.4-5.1a9.67,9.67,0,0,1-3.2-7.5c0-4.2,2.1-7.7,6.2-10.4s9.6-4,16.3-4q12.45,0,18.6,5.1a21.74,21.74,0,0,1,7.7,13.4h59.8c-.2-11.2-2.6-20.7-7.2-28.7a57.84,57.84,0,0,0-18.5-19.6,80.21,80.21,0,0,0-26.4-11.1,135.67,135.67,0,0,0-30.7-3.5,146.15,146.15,0,0,0-32.9,3.6,80,80,0,0,0-27.1,11.4,56.45,56.45,0,0,0-18.3,20.2c-4.5,8.3-6.8,18.3-6.8,30,0,11,2.4,20.1,7.1,27.4a59,59,0,0,0,18.2,18,105.51,105.51,0,0,0,24.7,11.4c9,2.9,17.9,5.4,26.6,7.5,6.4,1.5,12,3,16.9,4.3a78.54,78.54,0,0,1,12.3,4.3,20.32,20.32,0,0,1,7.5,5.5,12,12,0,0,1,2.6,7.8,12.44,12.44,0,0,1-2.5,7.9,17.71,17.71,0,0,1-6.2,5.3,30.39,30.39,0,0,1-8.5,2.9,49.18,49.18,0,0,1-9.1.9c-10,0-18-2-24.1-5.9s-9.6-10.1-10.5-18.3H987.5c.2,11.9,2.7,22.3,7.7,31.2a63.73,63.73,0,0,0,20.2,22.1,90.83,90.83,0,0,0,30,13.1,152.35,152.35,0,0,0,37.4,4.3,128.18,128.18,0,0,0,34.4-4.5,91,91,0,0,0,28.3-13.1,63.76,63.76,0,0,0,19.2-21.5A66.43,66.43,0,0,0,1171.3,879.8Z" class="cls-1"/><path id="path42" d="M1308.1,935.5a71.88,71.88,0,0,0,18.3-16.2,49.55,49.55,0,0,0,9.7-19.3h-52.8c-4,7.3-10.9,11-20.5,11q-12.45,0-19.5-7.2c-4.7-4.8-7.8-11.5-9.4-20.2H1339a114.68,114.68,0,0,0-5.8-40.7,73.55,73.55,0,0,0-19.9-31.2,76.34,76.34,0,0,0-23.5-14.6c-9-3.6-19.2-5.3-30.8-5.3a84.49,84.49,0,0,0-31.8,5.9,71.87,71.87,0,0,0-24.8,16.5,76.13,76.13,0,0,0-16.2,24.8,86.55,86.55,0,0,0,0,62.3,69.65,69.65,0,0,0,16.5,24.7,76.72,76.72,0,0,0,25.4,16.2A90.49,90.49,0,0,0,1261,948a106.61,106.61,0,0,0,25.6-2.9A70.24,70.24,0,0,0,1308.1,935.5Zm-65.5-100c4.2-4.7,10.1-7.1,17.6-7.1a21.46,21.46,0,0,1,16.3,6.9c4.3,4.6,7.1,11.1,8.2,19.3h-50.8C1235.4,846.6,1238.3,840.2,1242.6,835.5Z" class="cls-1"/><path id="path44" d="M1458,841.4h1.2V794.9c-1.9-1-4.9-1.4-9-1.4-9.4,0-17.8,1.9-25,5.8s-13.8,10.4-19.8,19.6h-.9V796.7h-52V943.9h54.6V883.6c0-16.7,4.4-28.6,13.3-35.7S1441.8,838.7,1458,841.4Z" class="cls-1"/><path id="path46" d="M1559.3,853.2c-1.2,3.9-2.3,7.8-3.5,12s-2.2,7.9-3.2,11.4c-1.2,4-2.2,8.1-3.2,12.1h-.6c-1.2-4-2.2-8.1-3.2-12.1-1-3.5-2-7.3-3.2-11.4s-2.2-8.1-3.2-12l-16.7-56.6H1466l50.5,147.2h63.8l50.5-147.2H1576Z" class="cls-1"/><rect id="rect48" width="54.6" height="147.2" x="1638.7" y="796.7" class="cls-1"/><rect id="rect50" width="54.6" height="41.3" x="1638.7" y="737.5" class="cls-1"/><path id="path52" d="M1787.1,830.4c6,0,10.6,1.8,13.9,5.3s5.7,8.7,7.2,15.4h52.5a66.74,66.74,0,0,0-7.2-23.8,62.15,62.15,0,0,0-15.2-18.6,69.89,69.89,0,0,0-22.2-12.1,88.16,88.16,0,0,0-28.4-4.3,90.25,90.25,0,0,0-33.1,5.9,75.23,75.23,0,0,0-25.6,16.5,73.8,73.8,0,0,0-16.5,24.8,85.74,85.74,0,0,0,0,62,69.65,69.65,0,0,0,16.5,24.7,75.83,75.83,0,0,0,25.6,16.3,89.49,89.49,0,0,0,33.1,5.9,88.58,88.58,0,0,0,30.2-4.9,71,71,0,0,0,23.4-13.6,61.36,61.36,0,0,0,15-20.4,59.46,59.46,0,0,0,5.3-25.3H1809c-.8,8.5-2.8,14.9-6.2,19.2s-8.4,6.5-15.2,6.5c-8.5,0-14.8-3.5-19.1-10.5s-6.4-16.7-6.4-29c0-12.5,2-22.3,6.1-29.5C1772.4,834,1778.6,830.4,1787.1,830.4Z" class="cls-1"/><path id="path54" d="M2020.9,842.9a73.55,73.55,0,0,0-19.9-31.2,76.34,76.34,0,0,0-23.5-14.6c-8.9-3.6-19.2-5.3-30.7-5.3a84.49,84.49,0,0,0-31.8,5.9,71.87,71.87,0,0,0-24.8,16.5A76.13,76.13,0,0,0,1874,839a86.55,86.55,0,0,0,0,62.3,69.65,69.65,0,0,0,16.5,24.7,76.72,76.72,0,0,0,25.4,16.2,90.49,90.49,0,0,0,32.9,5.8,106.61,106.61,0,0,0,25.6-2.9,70,70,0,0,0,21.5-9.5,71.88,71.88,0,0,0,18.3-16.2,49.55,49.55,0,0,0,9.7-19.3H1971c-4,7.3-10.9,11-20.5,11q-12.45,0-19.5-7.2c-4.7-4.8-7.8-11.5-9.4-20.2h105.1A114.58,114.58,0,0,0,2020.9,842.9Zm-99.3,11.8q2.25-12.15,8.7-19.2c4.2-4.7,10.1-7.1,17.6-7.1a21.46,21.46,0,0,1,16.3,6.9c4.3,4.6,7.1,11.1,8.2,19.3l-50.8.1Z" class="cls-1"/><path id="path56" d="M2157.9,858.9a63.67,63.67,0,0,0-19.6-7.7c-7.2-1.5-14.2-2.8-20.9-3.8-4.2-.6-8.2-1.2-11.8-1.7a66.92,66.92,0,0,1-9.7-2.2,18.73,18.73,0,0,1-6.5-3.3,6.67,6.67,0,0,1-2.3-5.2c0-3.8,1.6-6.6,4.8-8.2a23.86,23.86,0,0,1,10.8-2.5,27.73,27.73,0,0,1,12,2.5c3.6,1.6,5.7,5.2,6.5,10.8h51.4q-1.5-21.6-18.9-33.6t-51.2-12a106.49,106.49,0,0,0-25.7,3,70.18,70.18,0,0,0-21.4,9.1,46.1,46.1,0,0,0-14.6,14.9,37.75,37.75,0,0,0-5.3,20.1c0,9.2,1.6,16.7,4.9,22.5a39.69,39.69,0,0,0,12.6,13.7,54.31,54.31,0,0,0,17.2,7.4c6.4,1.5,12.6,2.8,18.8,3.8,4.8.8,9.4,1.5,13.7,2.2a74.3,74.3,0,0,1,11.4,2.6,22,22,0,0,1,7.9,4.3,9.5,9.5,0,0,1,3,7.4c0,4.4-1.8,7.7-5.3,9.7s-8,3-13.4,3c-6.9,0-12.3-1.7-16-5.1s-5.8-8.1-6.2-14.3h-52.3c0,8.5,1.8,16,5.5,22.5a50.08,50.08,0,0,0,15.3,16.5,73.59,73.59,0,0,0,23.4,10.1,121.68,121.68,0,0,0,30,3.5,135,135,0,0,0,28.3-2.9,70.63,70.63,0,0,0,23.1-9.1,46.2,46.2,0,0,0,15.4-15.7c3.8-6.4,5.6-14,5.6-22.8,0-10.2-1.9-18.4-5.8-24.7A42.52,42.52,0,0,0,2157.9,858.9Z" class="cls-1"/><path id="path58" d="M1413.7,603l118.2-117.7L1286.5,240.7A269,269,0,0,0,1093.1,159c-149,0-269.8,120.8-269.8,269.8S944,698.7,1093,698.7a268.79,268.79,0,0,0,195.7-84.1l49.6-49.8-7.8-7.8h0l-55-55h0l-55.2-55.2-54.9,55.1.2.2h-.6a102.81,102.81,0,1,1-.3-146.8h.3l147.1,146.6Z" class="cls-4"/><path id="path60" d="M2179,624.3,2060.8,506.1a102.75,102.75,0,0,1-172.1-72c0-2.1.1-4.2.1-6.4V425a102.83,102.83,0,0,1,168-74.1L2175,232.6a269.84,269.84,0,0,0-368.5,1.2,269.8,269.8,0,0,0-371.2-3.8l118.3,118.3a102.78,102.78,0,0,1,168,75.6c0,2.1-.1,4.2-.1,6.4V433a102.8,102.8,0,0,1-172.1,70.5L1431.2,621.7a269.82,269.82,0,0,0,372.5,2.6,269.92,269.92,0,0,0,375.3,0Z" class="cls-1"/><path id="path62" d="M871.1,275.3l-3.6,5.4Q869.15,278,871.1,275.3Z" class="cls-3"/><path id="path64" d="M876.8,267.4c-1.9,2.6-3.8,5.2-5.7,7.9C872.9,272.6,874.8,270,876.8,267.4Z" class="cls-3"/><path id="path66" d="M893.2,247.4q-5.4,6-10.5,12.3Q887.8,253.4,893.2,247.4Z" class="cls-3"/><path id="path68" d="M880.7,262.3c-1.3,1.7-2.7,3.4-3.9,5.1C878,265.7,879.4,264,880.7,262.3Z" class="cls-3"/><path id="path70" d="M820.8,313.9A294.66,294.66,0,0,1,884.1,220c1.3-1.3,2.6-2.5,3.9-3.8a269.89,269.89,0,0,0-354.5,16.5,269.16,269.16,0,0,0-186.7-75C197.8,157.8,77,278.6,77,427.6c0,3.5.1,7.1.2,10.6V698.9h167v-272h0c-.1-1.6-.1-3.2-.1-4.8a102.8,102.8,0,0,1,205.6,0c0,1.6,0,3.2-.1,4.8h0v272H617v-272c-.1-1.6,0-3.2,0-4.8,0-56.8,46.5-102.8,103.3-102.8a102.64,102.64,0,0,1,84.6,44.4A294.32,294.32,0,0,1,820.8,313.9Z" class="cls-3"/><path id="path72" d="M823.2,426.9a267.78,267.78,0,0,1,29.5-120.8,267.78,267.78,0,0,0-29.5,120.8Z" class="cls-3"/><path id="path74" d="M867.4,280.7c-4.8,7.2-9.2,14.7-13.3,22.4C858.2,295.4,862.7,287.9,867.4,280.7Z" class="cls-3"/><path id="path76" d="M99.3,1202.65c-8.9,0-14.9-2-17.8-6.9s-4-10.9-2-18.8l8.9-47.5c1-5,1-8.9-1-10.9-2-3-5-4-10.9-4l2-9.9c5.9,0,9.9-1,11.9-4,2-2,4-5.9,5-10.9l8.9-47.5c1-5,2-7.9,3-11.9a21.36,21.36,0,0,1,5-7.9c2-2,5-3,7.9-4s6.9-1,10.9-1H137l-2,8.9h-3c-3,0-5,0-6.9,1s-4,1-5,3a21.81,21.81,0,0,0-4,5,18.76,18.76,0,0,0-2,7.9l-8.9,48.5a32.82,32.82,0,0,1-5,11.9c-2,3-5.9,5-9.9,5.9h0c3,2,5.9,4,6.9,6.9a21.5,21.5,0,0,1,0,13.9l-8.9,48.5c-1,5-1,8.9,1,10.9s5,3,9.9,3h5l-2,9.9Z"/><path id="path78" d="M193.4,1025.35h10.9L176.6,1167h77.2l-2,9.9H163.7Z"/><path id="path80" d="M349.8,1178.85c-3,0-5,0-6.9-1a7.81,7.81,0,0,1-4-4c-1-2-2-3-2-5V1163h-1a24.17,24.17,0,0,1-5,5.9,41.59,41.59,0,0,1-6.9,5.9,29.39,29.39,0,0,1-9.9,4,42.6,42.6,0,0,1-25.8,0,24.25,24.25,0,0,1-10.9-5.9c-3-3-5.9-5.9-7.9-9.9a27.27,27.27,0,0,1-3-12.9c0-9.9,3-17.8,8.9-23.8s13.9-9.9,25.7-10.9c8.9-1,17.8-2,24.8-2a41.73,41.73,0,0,0,16.8-3c3-1,5-3,6.9-5.9a30.26,30.26,0,0,0,2-10.9,29,29,0,0,0-2-9.9,8.73,8.73,0,0,0-5.9-5.9,25,25,0,0,0-8.9-4c-3-1-6.9-1-10.9-1-18.8,0-30.7,7.9-33.7,24.8H279.3c2-10.9,6.9-18.8,14.9-24.8s17.8-8.9,29.7-8.9a75.73,75.73,0,0,1,15.8,2c4.9,1,8.9,4,12.9,6.9a22.88,22.88,0,0,1,6.9,12.9c1,5,1,11.9,0,18.8L348.6,1160c-1,5,0,7.9,2,8.9a12.35,12.35,0,0,0,8.9,1h1l-1,6.9A19.24,19.24,0,0,1,349.8,1178.85Zm-73.3-28.7c0,6.9,3,11.9,6.9,15.8a27.48,27.48,0,0,0,17.8,5.9c5.9,0,11.9-1,15.8-3a32.23,32.23,0,0,0,11.9-7.9,43.51,43.51,0,0,0,7.9-10.9,55.58,55.58,0,0,0,4-11.9l4-21.8c-3,1-6.9,2-9.9,3a40.29,40.29,0,0,1-10.9,1c-4,0-7.9,1-11.9,1s-7.9,1-11.9,1c-8.9,2-14.9,5-18.8,8.9C277.5,1137.25,276.5,1143.25,276.5,1150.15Z"/><path id="path82" d="M428.1,1089.75h0a88.33,88.33,0,0,1,8.9-9.9,68.47,68.47,0,0,1,9.9-7.9c2-1,4-2,5-2a9,9,0,0,1,5-1c2,0,3-1,5-1h5.9l-2,9.9h-8.9c-3,0-5,1-7.9,2-5.9,3-11.9,6.9-16.8,12.9s-8.9,14.9-10.9,25.7l-11.9,59.4h-9.9L420.3,1068h9.9Z"/><path id="path84" d="M474.6,1123.45c0,3-1,6.9-1,9.9,0,5,1,9.9,2,14.9a23.12,23.12,0,0,0,5.9,11.9c3,3,5.9,5.9,9.9,7.9s8.9,3,14.9,3a33,33,0,0,0,21.8-7.9c6-4.9,9.9-10.9,12.9-18.8h9.9a58,58,0,0,1-17.8,26.7c-7.9,5.9-17.8,8.9-28.7,8.9-12.9,0-23.8-4-30.7-11.9-7.9-7.9-10.9-19.8-10.9-33.7a97.64,97.64,0,0,1,3-23.8,73.74,73.74,0,0,1,9.9-21.8,68.75,68.75,0,0,1,16.8-16.8,48.17,48.17,0,0,1,24.8-6.9c5.9,0,11.9,1,15.8,3,5,2,7.9,5,11.9,7.9,3,3,5,6.9,6.9,10.9,1,4,2,7.9,3,11.9,0,4,1,7.9,0,12.9,0,4-1,7.9-1,11.9C553.8,1123.45,474.6,1123.45,474.6,1123.45Zm43.6-49.6a40.44,40.44,0,0,0-15.8,3,27.56,27.56,0,0,0-11.9,8.9c-4,4-5.9,7.9-8.9,12.9-2,5-4,9.9-5,15.8h69.3a41.89,41.89,0,0,0,0-15.8,48.76,48.76,0,0,0-4-12.9,19.67,19.67,0,0,0-8.9-8.9C529.1,1074.85,524.1,1073.85,518.2,1073.85Zm11.9-48.5H545l-21.8,27.7h-8.9Z"/><path id="path86" d="M631.1,1159.05h0c-3,3-5,5.9-7.9,7.9-3,3-5,5-8.9,6.9a36.37,36.37,0,0,1-10.9,5,49.87,49.87,0,0,1-12.9,2c-9.9,0-16.8-3-21.8-8.9s-5.9-14.9-4-26.7l14.9-77.2h9.9l-14.9,76.3c-2,8.9-1,14.9,2,19.8s7.9,6.9,16.8,6.9a39.63,39.63,0,0,0,14.9-3c5-2,8.9-5,12.9-7.9a63.12,63.12,0,0,0,9.9-12.9c3-5,4-9.9,5.9-15.8l11.9-64.4h9.9L638,1176.85h-9.9Z"/><path id="path88" d="M699.4,1180.85a75.73,75.73,0,0,1-15.8-2c-5-1-8.9-4-12.9-5.9a30.64,30.64,0,0,1-8.9-10.9,42.4,42.4,0,0,1-3-16.8h9.9c1,8.9,4,15.8,8.9,20.8,5,4,12.9,6.9,22.8,6.9,8.9,0,15.8-2,20.8-5.9s7.9-9.9,7.9-17.8a13.73,13.73,0,0,0-2-6.9,26.17,26.17,0,0,0-5-5.9c-2-2-5-3-7.9-5s-7.9-3-11.9-5c-5-2-9.9-4-13.9-5.9a103.63,103.63,0,0,1-9.9-5.9,15,15,0,0,1-5.9-7.9c-.9-2.9-2-5.9-2-9.9a27.27,27.27,0,0,1,3-12.9,23.9,23.9,0,0,1,7.9-8.9,32.82,32.82,0,0,1,11.9-5c5-1,8.9-2,13.9-2,10.9,0,19.8,3,25.7,7.9a35.73,35.73,0,0,1,10.9,22.8H734c-1-6.9-3-12.9-7.9-16.8s-10.9-5.9-18.8-5.9c-4,0-6.9,0-9.9,1s-5.9,2-8.9,3c-3,2-5,4-5.9,5.9-2,3-2,5.9-2,8.9s0,5,1,6.9,2,4,5,5c2,2,5,3,8.9,5s7.9,3,12.9,5,8.9,3,12.9,5a103.63,103.63,0,0,1,9.9,5.9,15,15,0,0,1,5.9,7.9c2,3,2,6.9,2,10.9a31.5,31.5,0,0,1-3,13.9,46.15,46.15,0,0,1-7.9,10.9,49.74,49.74,0,0,1-12.9,6.9A47.77,47.77,0,0,1,699.4,1180.85Z"/><path id="path90" d="M788.5,1180.85a75.73,75.73,0,0,1-15.8-2c-5-1-8.9-4-12.9-5.9a30.64,30.64,0,0,1-8.9-10.9,42.4,42.4,0,0,1-3-16.8h9.9c1,8.9,4,15.8,8.9,20.8,5,4,12.9,6.9,22.8,6.9,8.9,0,15.8-2,20.8-5.9s7.9-9.9,7.9-17.8a13.73,13.73,0,0,0-2-6.9,26.17,26.17,0,0,0-5-5.9c-2-1.9-5-3-7.9-5s-7.9-3-11.9-5c-5-2-9.9-4-13.9-5.9a103.63,103.63,0,0,1-9.9-5.9,15,15,0,0,1-5.9-7.9c-.9-2.9-2-5.9-2-9.9a27.27,27.27,0,0,1,3-12.9,23.9,23.9,0,0,1,7.9-8.9,32.82,32.82,0,0,1,11.9-5c5-1,8.9-2,13.9-2,10.9,0,19.8,3,25.7,7.9a35.73,35.73,0,0,1,10.9,22.8h-9.9c-1-6.9-3-12.9-7.9-16.8s-10.9-5.9-18.8-5.9c-4,0-6.9,0-9.9,1s-5.9,2-8.9,3c-3,2-5,4-5.9,5.9-2,3-2,5.9-2,8.9s0,5,1,6.9,2,4,5,5c2,2,5,3,8.9,5s7.9,3,12.9,5,8.9,3,12.9,5a103.63,103.63,0,0,1,9.9,5.9,15,15,0,0,1,5.9,7.9c2,3,2,6.9,2,10.9a31.5,31.5,0,0,1-3,13.9,46.15,46.15,0,0,1-7.9,10.9,49.74,49.74,0,0,1-12.9,6.9A52,52,0,0,1,788.5,1180.85Z"/><path id="path92" d="M858.8,1068h9.9l-20.8,109.9H838Zm8-42.6h9.9l-3,16.8h-9.9Z"/><path id="path94" d="M883.6,1068h16.8l5.9-32.7h9.9l-5.9,32.7h19.8l-2,8.9H908.3l-15.8,81.2c-1,4-1,6.9,1,8.9,1,2,4,3,6.9,3h5c2,0,3-1,4-1h1l-2,8.9c-1,0-3,1-4,1h-5c-6.9,0-11.9-2-14.9-5.9s-3-8.9-2-15.8l15.8-80.2H881.5Z"/><path id="path96" d="M939.1,1123.45c0,3-1,6.9-1,9.9,0,5,1,9.9,2,14.9a23.12,23.12,0,0,0,5.9,11.9c3,3,5.9,5.9,9.9,7.9s8.9,3,14.9,3a33,33,0,0,0,21.8-7.9c5.9-5,9.9-10.9,12.9-18.8h9.9a58,58,0,0,1-17.8,26.7c-7.9,5.9-17.8,8.9-28.7,8.9-12.9,0-23.8-4-30.7-11.9-7.9-7.9-10.9-19.8-10.9-33.7a97.64,97.64,0,0,1,3-23.8,73.74,73.74,0,0,1,9.9-21.8A68.75,68.75,0,0,1,957,1072a48.17,48.17,0,0,1,24.8-6.9c5.9,0,11.9,1,15.8,3,5,2,7.9,5,11.9,7.9,3,3,5,6.9,6.9,10.9,1,4,2,7.9,3,11.9,0,4,1,7.9,0,12.9,0,4-1,7.9-1,11.9C1018.3,1123.45,939.1,1123.45,939.1,1123.45Zm43.5-49.6a40.44,40.44,0,0,0-15.8,3,27.56,27.56,0,0,0-11.9,8.9c-4,4-5.9,7.9-8.9,12.9-2,5-4,9.9-5,15.8h69.3a41.89,41.89,0,0,0,0-15.8,48.76,48.76,0,0,0-4-12.9,19.67,19.67,0,0,0-8.9-8.9C993.5,1074.85,988.6,1073.85,982.6,1073.85Z"/><path id="path98" d="M1104.4,1180.85a45.63,45.63,0,0,1-16.8-3,43.93,43.93,0,0,1-13.9-8.9,37.09,37.09,0,0,1-8.9-14.9,63.65,63.65,0,0,1-3-19.8,105.76,105.76,0,0,1,3-24.8,73.74,73.74,0,0,1,9.9-21.8c5-6.9,9.9-11.9,16.8-15.8s14.9-5.9,24.8-5.9c10.9,0,18.8,3,25.7,8.9s9.9,14.9,10.9,24.8H1143c0-3-1-5.9-2-8.9a21.36,21.36,0,0,0-5-7.9,15,15,0,0,0-7.9-5.9c-3-2-6.9-2-11.9-2-7.9,0-14.9,2-19.8,5a47.22,47.22,0,0,0-13.9,13.9c-4,5.9-5.9,11.9-7.9,19.8a74.73,74.73,0,0,0-3,20.8,60.34,60.34,0,0,0,2,14.9,23.12,23.12,0,0,0,5.9,11.9c3,3,5.9,5.9,9.9,7.9s8.9,3,14.9,3c8.9,0,16.8-3,22.8-8.9s9.9-12.9,12.9-21.8h9.9c-2,5.9-4,10.9-5.9,15.8a63.12,63.12,0,0,1-9.9,12.9c-4,4-7.9,5.9-12.9,7.9C1115.3,1178.85,1110.4,1180.85,1104.4,1180.85Z"/><path id="path100" d="M1203.5,1180.85a45.63,45.63,0,0,1-16.8-3,43.93,43.93,0,0,1-13.9-8.9,37.09,37.09,0,0,1-8.9-14.9,57.44,57.44,0,0,1-3-18.8,97.64,97.64,0,0,1,3-23.8,65.07,65.07,0,0,1,26.7-39.6c6.9-4,14.9-5.9,24.8-5.9a45.63,45.63,0,0,1,16.8,3,42.84,42.84,0,0,1,13.9,8.9,37.09,37.09,0,0,1,8.9,14.9,58.91,58.91,0,0,1,3,19.8,97.64,97.64,0,0,1-3,23.8c-2,7.9-5,15.8-9.9,21.8-5,6.9-9.9,11.9-16.8,15.8C1220.3,1177.85,1212.4,1180.85,1203.5,1180.85Zm-32.7-47.5c0,5,1,9.9,2,14.9a23.12,23.12,0,0,0,5.9,11.9,24.84,24.84,0,0,0,9.9,7.9c4,2,8.9,3,14.9,3a37.53,37.53,0,0,0,18.8-5,47.22,47.22,0,0,0,13.9-13.9c4-5.9,5.9-11.9,7.9-18.8a74.73,74.73,0,0,0,3-20.8c0-5-1-9.9-2-14.9a31.69,31.69,0,0,0-5.9-12.9c-3-4-5.9-6.9-9.9-8.9s-8.9-3-14.9-3a41.47,41.47,0,0,0-19.8,5,47.22,47.22,0,0,0-13.9,13.9c-4,5.9-5.9,11.9-7.9,18.8C1171.8,1119.45,1170.8,1126.35,1170.8,1133.35Z"/><path id="path102" d="M1291.6,1025.35h9.9l-29.7,151.5h-9.9Z"/><path id="path104" d="M1323.3,1025.35h9.9l-29.7,151.5h-9.9Z"/><path id="path106" d="M1409.4,1178.85c-3,0-5,0-6.9-1a7.81,7.81,0,0,1-4-4c-1-2-2-3-2-5V1163h-1a24.17,24.17,0,0,1-5,5.9,46.93,46.93,0,0,1-6.9,5.9,29.39,29.39,0,0,1-9.9,4,42.6,42.6,0,0,1-25.8,0,24.25,24.25,0,0,1-10.9-5.9c-3-3-5.9-5.9-7.9-9.9a27.27,27.27,0,0,1-3-12.9c0-9.9,3-17.8,8.9-23.8s13.9-9.9,25.7-10.9c8.9-1,17.8-2,24.8-2a41.73,41.73,0,0,0,16.8-3c3-1,5-3,6.9-5.9a30.26,30.26,0,0,0,2-10.9,29,29,0,0,0-2-9.9,8.73,8.73,0,0,0-5.9-5.9,25,25,0,0,0-8.9-4c-3-1-6.9-1-10.9-1-18.8,0-30.7,7.9-33.7,24.8h-10.9c2-10.9,6.9-18.8,14.9-24.8s17.8-8.9,29.7-8.9a75.73,75.73,0,0,1,15.8,2c5,1,8.9,4,12.9,6.9a22.88,22.88,0,0,1,6.9,12.9c1,5,1,11.9,0,18.8l-10.9,55.5c-1,5,0,7.9,2,8.9a12.35,12.35,0,0,0,8.9,1h1l-1,6.9A19.24,19.24,0,0,1,1409.4,1178.85Zm-73.2-28.7c0,6.9,3,11.9,6.9,15.8a27.48,27.48,0,0,0,17.8,5.9c5.9,0,11.9-1,15.8-3a32.23,32.23,0,0,0,11.9-7.9,43.51,43.51,0,0,0,7.9-10.9,55.58,55.58,0,0,0,4-11.9l4-21.8c-3,1-6.9,2-9.9,3a40.29,40.29,0,0,1-10.9,1c-4,0-7.9,1-11.9,1s-7.9,1-11.9,1c-8.9,2-14.9,5-18.8,8.9C1337.2,1137.25,1336.2,1143.25,1336.2,1150.15Z"/><path id="path108" d="M1457,1025.35h9.9l-11.9,61.4h0c5-6.9,9.9-11.9,15.8-15.8s12.9-5.9,21.8-5.9a40.44,40.44,0,0,1,15.8,3,27.56,27.56,0,0,1,11.9,8.9,62.73,62.73,0,0,1,7.9,13.9,55.43,55.43,0,0,1,3,17.8,112.71,112.71,0,0,1-3,25.7c-2,8.9-5.9,15.8-9.9,22.8-5,6.9-9.9,11.9-16.8,15.8s-14.9,5.9-23.8,5.9a43,43,0,0,1-21.8-5.9,39.57,39.57,0,0,1-13.9-16.8h0l-4,20.8h-9.9Zm-10.9,109.9c0,10.9,2,19.8,7.9,26.7,5,5.9,13.9,9.9,23.8,9.9a33.8,33.8,0,0,0,19.8-5.9c5.9-3.9,9.9-8.9,13.9-14.9s5.9-12.9,7.9-19.8,2-13.9,2-20.8c0-5-1-8.9-2-13.9-1-4-3-7.9-5-11.9a23.82,23.82,0,0,0-8.9-7.9c-3.9-2-7.9-3-13.9-3a33.8,33.8,0,0,0-19.8,5.9c-5.9,3.9-9.9,8.9-13.9,14.9a70.73,70.73,0,0,0-8.9,19.8A80.35,80.35,0,0,0,1446.1,1135.25Z"/><path id="path110" d="M1582.8,1180.85a45.63,45.63,0,0,1-16.8-3,42.84,42.84,0,0,1-13.9-8.9,37.09,37.09,0,0,1-8.9-14.9,57,57,0,0,1-3-18.8,97.64,97.64,0,0,1,3-23.8,68.79,68.79,0,0,1,9.9-22.8,65.45,65.45,0,0,1,16.8-16.8c6.9-4,14.9-5.9,24.8-5.9a45.63,45.63,0,0,1,16.8,3,42.84,42.84,0,0,1,13.9,8.9,36.42,36.42,0,0,1,8.9,14.9,58.91,58.91,0,0,1,3,19.8,97.64,97.64,0,0,1-3,23.8c-2,7.9-5,15.8-9.9,21.8-5,6.9-9.9,11.9-16.8,15.8S1592.7,1180.85,1582.8,1180.85Zm-32.7-47.5c0,5,1,9.9,2,14.9a23.12,23.12,0,0,0,5.9,11.9,24.84,24.84,0,0,0,9.9,7.9c4,2,8.9,3,14.9,3a37.53,37.53,0,0,0,18.8-5,47.22,47.22,0,0,0,13.9-13.9c4-5.9,5.9-11.9,7.9-18.8a74.73,74.73,0,0,0,3-20.8c0-5-1-9.9-2-14.9a31.69,31.69,0,0,0-5.9-12.9c-3-4-5.9-6.9-9.9-8.9s-8.9-3-14.9-3a41.47,41.47,0,0,0-19.8,5,47.22,47.22,0,0,0-13.9,13.9c-4,5.9-5.9,11.9-7.9,18.8C1551.1,1119.45,1550.1,1126.35,1550.1,1133.35Z"/><path id="path112" d="M1668.9,1089.75h0a88.33,88.33,0,0,1,8.9-9.9,68.47,68.47,0,0,1,9.9-7.9c2-1,4-2,5-2a9,9,0,0,1,5-1c2,0,3-1,5-1h5.9l-2,9.9h-8.9c-3,0-5,1-7.9,2-5.9,3-11.9,6.9-16.8,12.9s-8.9,14.9-10.9,25.7l-11.9,59.4h-9.9l20.8-109.9h9.9Z"/><path id="path114" d="M1784.8,1178.85c-3,0-5,0-6.9-1a7.81,7.81,0,0,1-4-4c-1-2-2-3-2-5V1163h-1a24.17,24.17,0,0,1-5,5.9,46.93,46.93,0,0,1-6.9,5.9,29.39,29.39,0,0,1-9.9,4,42.6,42.6,0,0,1-25.8,0,24.25,24.25,0,0,1-10.9-5.9c-3-3-5.9-5.9-7.9-9.9a27.27,27.27,0,0,1-3-12.9c0-9.9,3-17.8,8.9-23.8s13.9-9.9,25.7-10.9c8.9-1,17.8-2,24.8-2a42.07,42.07,0,0,0,16.8-3c3-1,5-3,6.9-5.9a30.26,30.26,0,0,0,2-10.9,29,29,0,0,0-2-9.9,8.73,8.73,0,0,0-5.9-5.9,25,25,0,0,0-8.9-4c-3-1-6.9-1-10.9-1-18.8,0-30.7,7.9-33.7,24.8h-10.9c2-10.9,6.9-18.8,14.9-24.8s17.8-8.9,29.7-8.9a75.73,75.73,0,0,1,15.8,2c5,1,8.9,4,12.9,6.9a22.88,22.88,0,0,1,6.9,12.9c1,5,1,11.9,0,18.8l-10.9,55.5c-1,5,0,7.9,2,8.9a12.35,12.35,0,0,0,8.9,1h1l-1,6.9C1789.7,1178.85,1787.7,1178.85,1784.8,1178.85Zm-73.3-28.7c0,6.9,3,11.9,6.9,15.8a27.48,27.48,0,0,0,17.8,5.9c5.9,0,11.9-1,15.8-3a32.23,32.23,0,0,0,11.9-7.9,43.51,43.51,0,0,0,7.9-10.9,55.58,55.58,0,0,0,4-11.9l4-21.8c-3,1-6.9,2-9.9,3a40.29,40.29,0,0,1-10.9,1c-4,0-7.9,1-11.9,1s-7.9,1-11.9,1c-8.9,2-14.9,5-18.8,8.9C1713.5,1137.25,1711.5,1143.25,1711.5,1150.15Z"/><path id="path116" d="M1812.5,1068h16.8l5.9-32.7h10.9l-5.9,32.7H1860l-2,8.9h-19.8l-15.8,81.2c-1,4-1,6.9,1,8.9,1,2,4,3,6.9,3h5c2,0,3-1,4-1h1l-2,8.9c-1,0-3,1-4,1h-5c-6.9,0-11.9-2-14.9-5.9s-3-8.9-2-15.8l15.8-80.2h-16.8Z"/><path id="path118" d="M1875.9,1068h9.9l-20.8,109.9h-9.9Zm8.9-42.6h9.9l-3,16.8h-9.9Z"/><path id="path120" d="M1899.6,1068h10.9l10.9,69.3c1,3,1,6.9,2,9.9,0,4,1,6.9,1,9.9a40.29,40.29,0,0,1,1,10.9h0l5-10.9c2-3,3-5.9,5-9.9s3-6.9,5-9.9L1977,1067h10.9l-57.4,109.9h-12.9Z"/><path id="path122" d="M1993.7,1123.45c0,3-1,6.9-1,9.9,0,5,1,9.9,2,14.9a23.12,23.12,0,0,0,5.9,11.9c3,3,5.9,5.9,9.9,7.9s8.9,3,14.9,3a33,33,0,0,0,21.8-7.9c5.9-5,9.9-10.9,12.9-18.8h9.9a58,58,0,0,1-17.8,26.7c-7.9,5.9-17.8,8.9-28.7,8.9-12.9,0-23.8-4-30.7-11.9-7.9-7.9-10.9-19.8-10.9-33.7a97.64,97.64,0,0,1,3-23.8,72.59,72.59,0,0,1,9.9-21.8,68.75,68.75,0,0,1,16.8-16.8,48.17,48.17,0,0,1,24.8-6.9c5.9,0,11.9,1,15.8,3,5,2,7.9,5,11.9,7.9,3,3,5,6.9,6.9,10.9,1,4,2,7.9,3,11.9,0,4,1,7.9,0,12.9,0,4-1,7.9-1,11.9C2073,1123.45,1993.7,1123.45,1993.7,1123.45Zm43.6-49.6a40.44,40.44,0,0,0-15.8,3,27.56,27.56,0,0,0-11.9,8.9c-4,4-5.9,7.9-8.9,12.9-2,5-4,9.9-5,15.8H2065a41.89,41.89,0,0,0,0-15.8,48.76,48.76,0,0,0-4-12.9,19.67,19.67,0,0,0-8.9-8.9C2048.2,1074.85,2043.2,1073.85,2037.3,1073.85Z"/><path id="path124" d="M2146.2,1017.45a36.62,36.62,0,0,1,11.9,2c3,1,5,3,6.9,5a11.75,11.75,0,0,1,3,7.9,44.08,44.08,0,0,1-1,10.9l-8.9,47.5c-1,5-1,8.9,1,10.9,2,3,5,4,10.9,4l-2,9.9c-5.9,0-9.9,1-11.9,4-2,2-4,5.9-5,10.9l-8.9,47.5c-1,5-2,7.9-3,11.9a21.36,21.36,0,0,1-5,7.9c-2,2-5,3-7.9,4s-6.9,1-10.9,1h-5.9l2-9.9h4c5,0,8.9-1,11.9-3s5-6.9,5.9-12.9l8.9-48.5a32.82,32.82,0,0,1,5-11.9c2-3,5.9-5,9.9-5.9h0c-3-2-5.9-4-6.9-6.9a21.5,21.5,0,0,1,0-13.9l8.9-48.5c1-5,1-8.9-1-10.9s-5-3-9.9-3h-5l2-8.9h1Z"/></svg>