<svg xmlns="http://www.w3.org/2000/svg" xmlns:xlink="http://www.w3.org/1999/xlink" id="Layer_1" width="577.153" height="211.62" x="0" y="0" enable-background="new 0 0 577.153 211.62" version="1.1" viewBox="0 0 577.153 211.62" xml:space="preserve"><g><defs><rect id="SVGID_1_" width="699.927" height="256.637" x="-48.927" y="-26.444"/></defs><clipPath id="SVGID_2_"><use overflow="visible" xlink:href="#SVGID_1_"/></clipPath></g><g><defs><rect id="SVGID_3_" width="699.927" height="256.637" x="-48.927" y="-26.444"/></defs><clipPath id="SVGID_4_"><use overflow="visible" xlink:href="#SVGID_3_"/></clipPath></g><g><defs><rect id="SVGID_5_" width="699.927" height="256.637" x="-48.927" y="-26.444"/></defs><clipPath id="SVGID_6_"><use overflow="visible" xlink:href="#SVGID_5_"/></clipPath><path fill="#EE7219" d="M203.091,88.366c-3.263,0-6.43,0.293-9.494,0.881 c-3.068,0.588-5.515,1.404-7.342,2.447l0.979,9.2c2.742-0.782,5.188-1.336,7.342-1.664c2.152-0.323,4.338-0.49,6.558-0.49 c8.351,0,12.529,3.2,12.529,9.593v2.153c-1.957-0.392-4.698-0.587-8.221-0.587c-7.312,0-13.086,1.635-17.325,4.894 c-4.244,3.264-6.363,7.768-6.363,13.508c0,11.746,8.027,17.618,24.079,17.618c6.524,0,13.312-0.978,20.359-2.937v-33.671 C226.191,95.349,218.489,88.366,203.091,88.366 M213.663,135.35c-2.349,0.654-5.025,0.979-8.025,0.979 c-7.571,0-11.355-2.742-11.355-8.224c0-5.74,4.175-8.613,12.528-8.613c3.392,0,5.677,0.196,6.852,0.588V135.35z" clip-path="url(#SVGID_6_)"/><polygon fill="#EE7219" points="231.869 89.736 245.768 89.736 259.276 132.021 272.979 89.736 286.291 89.736 265.54 144.549 252.619 144.549" clip-path="url(#SVGID_6_)"/><path fill="#EE7219" d="M310.565,88.366c-3.264,0-6.43,0.293-9.494,0.881 c-3.067,0.588-5.516,1.404-7.342,2.447l0.979,9.2c2.741-0.782,5.188-1.336,7.34-1.664c2.154-0.323,4.339-0.49,6.56-0.49 c8.351,0,12.528,3.2,12.528,9.593v2.153c-1.958-0.392-4.698-0.587-8.222-0.587c-7.312,0-13.086,1.635-17.325,4.894 c-4.242,3.264-6.363,7.768-6.363,13.508c0,11.746,8.029,17.618,24.08,17.618c6.524,0,13.313-0.978,20.359-2.937v-33.671 C333.666,95.349,325.963,88.366,310.565,88.366 M321.137,135.35c-2.35,0.654-5.026,0.979-8.026,0.979 c-7.568,0-11.354-2.742-11.354-8.224c0-5.74,4.176-8.613,12.531-8.613c3.389,0,5.674,0.196,6.85,0.588V135.35z" clip-path="url(#SVGID_6_)"/><path fill="#EE7219" d="M382.13,112.249c0-4.958-0.948-8.385-2.841-10.278 c-1.891-1.889-5.255-2.837-10.08-2.837c-1.175,0-2.577,0.13-4.209,0.39c-1.634,0.265-3.165,0.588-4.603,0.979v44.046h-12.723 V92.477c3.259-1.303,6.98-2.316,11.157-3.035c4.176-0.715,8.223-1.075,12.14-1.075c15.92,0,23.881,7.177,23.881,21.532v34.65 H382.13V112.249z" clip-path="url(#SVGID_6_)"/><path fill="#EE7219" d="M426.175,88.366c-3.263,0-6.43,0.293-9.493,0.881 c-3.067,0.588-5.517,1.404-7.343,2.447l0.981,9.2c2.74-0.782,5.186-1.336,7.34-1.664c2.154-0.323,4.338-0.49,6.559-0.49 c8.35,0,12.528,3.2,12.528,9.593v2.153c-1.957-0.392-4.698-0.587-8.221-0.587c-7.313,0-13.086,1.635-17.326,4.894 c-4.242,3.264-6.362,7.768-6.362,13.508c0,11.746,8.026,17.618,24.079,17.618c6.525,0,13.313-0.978,20.358-2.937v-33.671 C449.275,95.349,441.573,88.366,426.175,88.366 M436.747,135.35c-2.35,0.654-5.025,0.979-8.025,0.979 c-7.572,0-11.354-2.742-11.354-8.224c0-5.74,4.175-8.613,12.529-8.613c3.39,0,5.675,0.196,6.851,0.588V135.35z" clip-path="url(#SVGID_6_)"/><path fill="#EE7219" d="M496.651,68.593V89.54c-2.35-0.784-5.418-1.173-9.202-1.173 c-8.354,0-15.14,2.709-20.359,8.124c-5.222,5.415-7.83,12.498-7.83,21.24c0,9.137,2.547,16.12,7.635,20.947 c5.089,4.828,12.528,7.241,22.315,7.241c6.136,0,12.855-0.979,20.164-2.936V68.593H496.651z M496.651,134.566 c-1.438,0.521-4.048,0.784-7.831,0.784c-10.835,0-16.248-5.938-16.248-17.815c0-6.003,1.401-10.636,4.208-13.9 c2.806-3.261,6.755-4.895,11.844-4.895c3.135,0,5.807,0.458,8.027,1.371V134.566z" clip-path="url(#SVGID_6_)"/><path fill="#EE7219" d="M568.497,114.207c0-7.96-2.09-14.258-6.265-18.892 c-4.178-4.63-9.855-6.949-17.031-6.949c-7.831,0-14.066,2.612-18.695,7.831c-4.635,5.22-6.95,12.333-6.95,21.338 s2.479,15.987,7.438,20.945c4.959,4.963,12.008,7.44,21.144,7.44c6,0,11.679-1.047,17.032-3.132l-1.371-9.594 c-4.57,1.566-9.465,2.349-14.683,2.349c-10.703,0-16.184-4.826-16.442-14.485h35.824V114.207z M532.673,111.467 c0.391-4.177,1.663-7.44,3.815-9.789c2.154-2.35,4.926-3.525,8.321-3.525c3.392,0,6.131,1.175,8.222,3.525 c2.085,2.348,3.131,5.612,3.131,9.789H532.673z" clip-path="url(#SVGID_6_)"/></g><g><defs><path id="SVGID_7_" d="M64.889,32.58c-2.422,0.926-4.93,2.57-7.528,4.937c-2.599,2.367-5.287,5.614-8.072,9.738 c-2.785,4.127-5.735,9.412-8.852,15.855c-4.337,8.925-7.98,16.015-10.927,21.267c-2.95,5.256-5.548,9.448-7.793,12.584 c-2.25,3.136-4.344,5.585-6.293,7.342c-1.946,1.759-4.148,3.542-6.599,5.346l2.15,3.29c3.854-2.388,7.043-4.576,9.564-6.567 c2.521-1.992,4.903-4.555,7.152-7.691c2.244-3.136,4.713-7.208,7.405-12.219c2.688-5.01,6.191-11.725,10.51-20.146 c2.835-5.575,5.449-10.238,7.845-14.001c2.393-3.76,4.634-6.77,6.727-9.029c2.087-2.259,4.094-3.827,6.01-4.705 c1.917-0.879,3.879-1.283,5.89-1.213c1.884,0.065,3.75,0.636,5.6,1.708c1.846,1.075,3.944,3.132,6.288,6.174 c2.347,3.045,5.026,7.299,8.042,12.76c3.016,5.465,6.695,12.555,11.043,21.277c3.522,7.185,6.926,13.163,10.218,17.938 c3.291,4.78,6.705,8.681,10.247,11.701c3.54,3.026,7.36,5.268,11.458,6.734c4.098,1.467,8.778,2.481,14.038,3.045l-2.667-4.631 c-4.357-1.287-8.201-2.774-11.537-4.47c-3.335-1.69-6.434-3.911-9.292-6.658c-2.858-2.746-5.627-6.214-8.311-10.406 c-2.683-4.188-5.551-9.423-8.598-15.708c-4.691-9.742-8.752-17.605-12.19-23.585c-3.437-5.981-6.548-10.563-9.326-13.75 c-2.783-3.185-5.349-5.321-7.697-6.414c-2.351-1.088-4.72-1.678-7.104-1.761c-0.217-0.008-0.433-0.011-0.649-0.011 C69.35,31.314,67.099,31.737,64.889,32.58"/></defs><clipPath id="SVGID_8_"><use overflow="visible" xlink:href="#SVGID_7_"/></clipPath><linearGradient id="SVGID_9_" x1="-.335" x2=".877" y1="211.816" y2="211.816" gradientTransform="matrix(105.9856 -28.3988 -28.3988 -105.9856 6055.7471 22534.9258)" gradientUnits="userSpaceOnUse"><stop offset="0" style="stop-color:#ee7219"/><stop offset=".2" style="stop-color:#ee7219"/><stop offset=".226" style="stop-color:#f07e19"/><stop offset=".307" style="stop-color:#f59d1c"/><stop offset=".387" style="stop-color:#fab41e"/><stop offset=".466" style="stop-color:#fdc320"/><stop offset=".545" style="stop-color:#ffcc21"/><stop offset=".62" style="stop-color:#ffcf21"/><stop offset=".662" style="stop-color:#fec920"/><stop offset=".731" style="stop-color:#fab71e"/><stop offset=".817" style="stop-color:#f4981b"/><stop offset=".9" style="stop-color:#ee7219"/><stop offset="1" style="stop-color:#ee7219"/></linearGradient><polygon fill="url(#SVGID_9_)" points="-13.022 37.168 139.621 -3.732 170.86 112.854 18.216 153.753" clip-path="url(#SVGID_8_)"/></g><g><defs><path id="SVGID_10_" d="M28.773,102.785c-5.011,1.214-9.438,2.949-13.289,5.207l-4.027,1.939l2.173,2.532 c4.841-1.843,9.76-3.219,14.76-4.114c4.996-0.896,9.946-1.26,14.844-1.091c3.264,0.116,6.358,0.602,9.284,1.461 c2.923,0.857,5.78,1.903,8.567,3.134c2.784,1.23,5.535,2.589,8.249,4.069c2.712,1.485,5.558,2.905,8.527,4.269 c3.956,1.905,8.486,3.543,13.595,4.916c5.106,1.381,11.175,2.188,18.208,2.434c15.57,0.544,27.664-1.932,36.282-7.432 l-0.634-3.422c-4.841,1.721-10.355,3.011-16.543,3.863c-6.191,0.855-12.487,1.171-18.892,0.947 c-6.781-0.236-12.412-1-16.894-2.291c-4.481-1.291-8.703-2.823-12.664-4.602c-3.096-1.367-6.063-2.827-8.899-4.376 c-2.84-1.547-5.682-2.971-8.526-4.268c-2.849-1.295-5.857-2.378-9.034-3.246c-3.174-0.867-6.646-1.367-10.413-1.498 c-0.578-0.021-1.156-0.029-1.737-0.029C37.486,101.188,33.176,101.722,28.773,102.785"/></defs><clipPath id="SVGID_11_"><use overflow="visible" xlink:href="#SVGID_10_"/></clipPath><linearGradient id="SVGID_12_" x1="-.345" x2=".868" y1="211.634" y2="211.634" gradientTransform="matrix(110.898 0 0 -110.898 49.8125 23584.3711)" gradientUnits="userSpaceOnUse"><stop offset="0" style="stop-color:#ee7219"/><stop offset=".08" style="stop-color:#ee7219"/><stop offset=".152" style="stop-color:#f18311"/><stop offset=".282" style="stop-color:#f59c00"/><stop offset=".393" style="stop-color:#f8ab00"/><stop offset=".47" style="stop-color:#f9b000"/><stop offset=".54" style="stop-color:#f8ab00"/><stop offset=".644" style="stop-color:#f59b00"/><stop offset=".769" style="stop-color:#f08013"/><stop offset=".82" style="stop-color:#ee7219"/><stop offset="1" style="stop-color:#ee7219"/></linearGradient><rect width="134.487" height="26.897" x="11.458" y="101.188" fill="url(#SVGID_12_)" clip-path="url(#SVGID_11_)"/></g><g><defs><path id="SVGID_13_" d="M110.892,70.77c-2.555,1.111-5.333,3.282-8.336,6.515c-3.006,3.236-6.497,7.78-10.472,13.624 c-3.975,5.851-8.894,13.463-14.752,22.834c-6.528,10.487-12.482,18.031-17.859,22.633c-5.378,4.601-10.705,6.81-15.979,6.626 c-5.651-0.197-11.014-3.19-16.093-8.975c-5.081-5.784-9.273-13.526-12.58-23.222l-5.995-1.155 c3.219,12.212,7.978,21.771,14.275,28.669c6.295,6.897,13.024,10.476,20.182,10.726c6.78,0.238,13.248-2.217,19.4-7.358 c6.148-5.143,12.824-13.51,20.018-25.108c5.324-8.512,9.78-15.445,13.361-20.803c3.583-5.356,6.716-9.563,9.399-12.622 c2.683-3.055,5.051-5.147,7.104-6.274c2.048-1.125,4.205-1.648,6.465-1.569c4.771,0.165,9.244,3.441,13.425,9.827 c4.177,6.384,8.294,16.266,12.355,29.641l6.505,2.685c-4.087-16.147-8.761-28.159-14.015-36.032 c-5.26-7.871-11.278-11.927-18.059-12.164c-0.262-0.008-0.522-0.013-0.782-0.013C115.747,69.253,113.223,69.759,110.892,70.77"/></defs><clipPath id="SVGID_14_"><use overflow="visible" xlink:href="#SVGID_13_"/></clipPath><linearGradient id="SVGID_15_" x1="-.331" x2=".883" y1="211.593" y2="211.593" gradientTransform="matrix(113.7289 24.1738 24.1738 -113.7289 -5065.4165 24167.0664)" gradientUnits="userSpaceOnUse"><stop offset="0" style="stop-color:#ee7219"/><stop offset=".5" style="stop-color:#ee7219"/><stop offset=".518" style="stop-color:#ec6b28"/><stop offset=".553" style="stop-color:#e95943"/><stop offset=".602" style="stop-color:#e3355b"/><stop offset=".64" style="stop-color:#df0067"/><stop offset=".95" style="stop-color:#ee7219"/><stop offset="1" style="stop-color:#ee7219"/></linearGradient><polygon fill="url(#SVGID_15_)" points="14.985 40.275 167.592 72.712 145.158 178.259 -7.45 145.823" clip-path="url(#SVGID_14_)"/></g><g><defs><path id="SVGID_16_" d="M13.175,114.72c5.008,0.552,9.381,1.398,13.113,2.536c3.731,1.142,7.291,2.713,10.681,4.722 c3.386,2.009,6.782,4.65,10.189,7.917c3.405,3.273,7.224,7.312,11.458,12.124c5.559,6.367,10.159,11.538,13.792,15.511 c3.632,3.972,6.794,7.044,9.484,9.218c2.689,2.174,5.061,3.641,7.107,4.408c2.048,0.762,4.327,1.191,6.84,1.279 c4.643,0.16,8.933-1.173,12.869-3.996c3.932-2.824,8.405-7.617,13.421-14.372c3.689-4.911,6.724-8.934,9.094-12.065 c2.374-3.132,4.547-5.953,6.521-8.471c1.974-2.513,3.976-4.964,6.009-7.352c2.031-2.387,4.551-5.291,7.564-8.717l-3.7-2.021 c-3.255,3.167-5.99,5.843-8.201,8.035c-2.216,2.189-4.372,4.479-6.464,6.863c-2.095,2.383-4.328,5.144-6.7,8.273 c-2.374,3.132-5.404,7.09-9.09,11.877c-4.745,6.264-8.666,10.504-11.761,12.729c-3.095,2.223-6.214,3.281-9.353,3.171 c-1.759-0.062-3.444-0.403-5.056-1.027c-1.614-0.622-3.58-1.952-5.895-3.987c-2.32-2.036-5.235-4.942-8.749-8.718 c-3.515-3.779-8.053-8.854-13.611-15.223c-4.473-5.196-8.534-9.468-12.189-12.81c-3.656-3.342-7.271-6.02-10.846-8.035 c-3.578-2.017-7.361-3.473-11.353-4.369c-3.992-0.894-8.558-1.556-13.697-1.989L13.175,114.72z"/></defs><clipPath id="SVGID_17_"><use overflow="visible" xlink:href="#SVGID_16_"/></clipPath><linearGradient id="SVGID_18_" x1="-.333" x2=".88" y1="211.601" y2="211.601" gradientTransform="matrix(111.3933 -15.6553 -15.6553 -111.3933 3367.9165 23715.9414)" gradientUnits="userSpaceOnUse"><stop offset="0" style="stop-color:#ee7219"/><stop offset=".066" style="stop-color:#ed6f1a"/><stop offset=".134" style="stop-color:#eb631d"/><stop offset=".204" style="stop-color:#e74f1f"/><stop offset=".274" style="stop-color:#e33021"/><stop offset=".3" style="stop-color:#e11f21"/><stop offset=".48" style="stop-color:#e11f21"/><stop offset=".91" style="stop-color:#ee7219"/><stop offset="1" style="stop-color:#ee7219"/></linearGradient><polygon fill="url(#SVGID_18_)" points="4.58 111.439 148.641 91.193 159.912 171.387 15.85 191.634" clip-path="url(#SVGID_17_)"/></g></svg>