<svg xmlns="http://www.w3.org/2000/svg" id="Calque_1" data-name="Calque 1" viewBox="0 0 1915.72 557.12"><defs><style>.cls-1{fill:#15ade4}.cls-2{fill:#fff}.cls-3{fill:#1d1e1c}</style></defs><title>Akuiteo_Logo-Baseline-blue-RVB</title><path d="M545.3,299.05C545.3,432.67,437,541,303.36,541S61.44,432.67,61.44,299.05,169.76,57.13,303.36,57.13,545.3,165.44,545.3,299.05" class="cls-1" transform="translate(-61.44 -57.13)"/><path d="M393.44,246.27c20.88-28.12,28.49-49.33,29-50.91a25.84,25.84,0,0,0-48.82-16.93c-.2.55-20.73,56-93.16,102.68-64.27,41.39-135.71,48.91-137,49a25.84,25.84,0,0,0,2.42,51.56c.81,0,1.62,0,2.44-.12,3.42-.32,84.67-8.43,160.17-57.05A342.46,342.46,0,0,0,358,285.88c25.33,41.32,15.64,96.33,15.44,97.4a25.84,25.84,0,0,0,50.74,9.83c.7-3.64,16.08-86.17-30.7-146.83" class="cls-2" transform="translate(-61.44 -57.13)"/><path d="M843.54,422.65V397.92c-13.7,16.37-34.63,28.92-65.07,28.92-38.05,0-71.54-21.69-71.54-62v-.76c0-43.38,34.63-64.69,81.44-64.69,24.35,0,40,3.43,55.56,8.37v-4.95c0-27.78-17.5-43-49.47-43-22.45,0-39.19,4.95-57.46,12.56l-12.56-36.91c22.07-9.89,43.76-16.74,76.49-16.74,59.36,0,88.28,31.2,88.28,84.86V422.65Zm1.14-85.24c-11.8-4.57-28.16-8-46-8-28.92,0-46,11.8-46,32.35v.76c0,19,17.12,29.68,38.81,29.68,30.44,0,53.28-17.13,53.28-42.24Z" class="cls-3" transform="translate(-61.44 -57.13)"/><path d="M1113.34,422.65h-53.28l-60.5-86.76-28.16,29.3v57.46h-46V144.86h46V310.78l83.34-89h55.94l-79.91,81.82Z" class="cls-3" transform="translate(-61.44 -57.13)"/><path d="M1256.42,221.73h46V422.65h-46v-31.2c-12.94,19-31.58,35.39-62.79,35.39-45.29,0-71.54-30.44-71.54-77.25V221.73h46V335.89c0,31.2,15.6,49.09,43,49.09,26.64,0,45.28-18.65,45.28-49.85Z" class="cls-3" transform="translate(-61.44 -57.13)"/><path d="M1342,190.91V147.15h49.47v43.76Zm1.9,231.75V221.73h46V422.65Z" class="cls-3" transform="translate(-61.44 -57.13)"/><path d="M1486.65,359.87c0,17.89,9.13,25.11,24.73,25.11a61.9,61.9,0,0,0,28.54-6.85V415.8c-11.42,6.47-24.35,10.28-41.48,10.28-33.87,0-57.84-14.84-57.84-59V261.31h-25.5V221.73h25.5V166.55h46v55.18h54v39.57h-54Z" class="cls-3" transform="translate(-61.44 -57.13)"/><path d="M1655.6,389.55c22.45,0,38.43-8.37,54.42-24l27,24c-19,22.83-45.28,37.67-82.19,37.67-58.22,0-103.13-42.24-103.13-104.65,0-57.84,40.72-105,98.18-105,63.93,0,96.28,50.23,96.28,108.45,0,4.19-.38,8-.76,12.56H1597.76C1603.09,371.28,1625.92,389.55,1655.6,389.55Zm44.9-81.44c-3-29.68-20.55-52.89-51-52.89-28.16,0-47.95,21.69-52.13,52.89Z" class="cls-3" transform="translate(-61.44 -57.13)"/><path d="M1869.47,427.22c-61.27,0-106.55-46.81-106.55-104.27,0-57.84,45.67-105.41,107.31-105.41s106.93,46.81,106.93,104.65C1977.16,379.65,1931.49,427.22,1869.47,427.22Zm0-169.34c-36.91,0-60.51,28.92-60.51,64.31,0,35.77,25.5,65.07,61.27,65.07,37.29,0,60.89-28.92,60.89-64.31C1931.11,287.18,1905.62,257.88,1869.47,257.88Z" class="cls-3" transform="translate(-61.44 -57.13)"/><path d="M715.52,541.61a4.32,4.32,0,0,1,4.22-4.32h28c8.65,0,15.46,2.49,19.78,6.7a16.81,16.81,0,0,1,4.86,12.11v.22c0,9.84-6.05,14.92-12,17.51,9,2.7,16.21,7.89,16.21,18.27v.22c0,13-10.92,20.65-27.46,20.65h-29.4a4.32,4.32,0,0,1-4.22-4.32ZM746.32,571c10.27,0,17.4-4.65,17.4-13.51v-.22c0-7.46-5.94-12.32-16.75-12.32h-23v26Zm3,34.27c11.46,0,18.59-5.08,18.59-13.51v-.22c0-8.21-6.92-13-20.11-13H723.95v26.7Z" class="cls-1" transform="translate(-61.44 -57.13)"/><path d="M792.37,581.28V541.07a4.27,4.27,0,1,1,8.54,0v39.67c0,16.32,8.76,25.51,23.13,25.51,13.94,0,22.81-8.43,22.81-25V541.07a4.27,4.27,0,1,1,8.54,0v39.56c0,22.05-12.65,33.51-31.56,33.51C805.12,614.15,792.37,602.69,792.37,581.28Z" class="cls-1" transform="translate(-61.44 -57.13)"/><path d="M872.89,603.88a3.84,3.84,0,0,1-1.62-3.24,4.13,4.13,0,0,1,4.11-4.22,3.78,3.78,0,0,1,2.59,1c7.13,6.05,14.27,9,23.89,9,10.16,0,16.86-5.4,16.86-12.86v-.22c0-7-3.78-11-19.67-14.38-17.4-3.78-25.4-9.4-25.4-21.83v-.22c0-11.89,10.49-20.65,24.86-20.65,9.94,0,17.19,2.49,24.1,7.46a4.39,4.39,0,0,1,1.84,3.46,4.11,4.11,0,0,1-4.11,4.11,4,4,0,0,1-2.49-.76,31.64,31.64,0,0,0-19.56-6.59c-9.84,0-16.11,5.4-16.11,12.21v.22c0,7.13,3.89,11.13,20.54,14.7,16.86,3.68,24.65,9.84,24.65,21.4v.22c0,13-10.81,21.4-25.83,21.4A44.21,44.21,0,0,1,872.89,603.88Z" class="cls-1" transform="translate(-61.44 -57.13)"/><path d="M945.52,541.07a4.27,4.27,0,1,1,8.54,0v68.1a4.27,4.27,0,1,1-8.54,0Z" class="cls-1" transform="translate(-61.44 -57.13)"/><path d="M976.22,541.18a4.29,4.29,0,0,1,4.22-4.22h1.19c1.95,0,3.13,1,4.32,2.49L1031.89,598V541a4.16,4.16,0,1,1,8.32,0v68.32a3.83,3.83,0,0,1-3.89,4h-.43c-1.84,0-3.13-1.08-4.43-2.59l-46.91-60v58.59a4.16,4.16,0,1,1-8.32,0Z" class="cls-1" transform="translate(-61.44 -57.13)"/><path d="M1061.61,608.63v-67a4.32,4.32,0,0,1,4.22-4.32h47a3.89,3.89,0,0,1,0,7.78h-42.7v25.83H1108a3.94,3.94,0,0,1,3.89,3.89,3.88,3.88,0,0,1-3.89,3.89h-37.83v26.48h43.24a3.89,3.89,0,0,1,0,7.78h-47.56A4.32,4.32,0,0,1,1061.61,608.63Z" class="cls-1" transform="translate(-61.44 -57.13)"/><path d="M1131.32,603.88a3.84,3.84,0,0,1-1.62-3.24,4.13,4.13,0,0,1,4.11-4.22,3.78,3.78,0,0,1,2.59,1c7.13,6.05,14.27,9,23.89,9,10.16,0,16.86-5.4,16.86-12.86v-.22c0-7-3.78-11-19.67-14.38-17.4-3.78-25.4-9.4-25.4-21.83v-.22c0-11.89,10.49-20.65,24.86-20.65,9.94,0,17.19,2.49,24.1,7.46a4.39,4.39,0,0,1,1.84,3.46,4.11,4.11,0,0,1-4.11,4.11,4,4,0,0,1-2.49-.76,31.64,31.64,0,0,0-19.56-6.59c-9.84,0-16.11,5.4-16.11,12.21v.22c0,7.13,3.89,11.13,20.54,14.7,16.86,3.68,24.65,9.84,24.65,21.4v.22c0,13-10.81,21.4-25.83,21.4A44.21,44.21,0,0,1,1131.32,603.88Z" class="cls-1" transform="translate(-61.44 -57.13)"/><path d="M1199.53,603.88a3.84,3.84,0,0,1-1.62-3.24,4.13,4.13,0,0,1,4.11-4.22,3.78,3.78,0,0,1,2.59,1c7.13,6.05,14.27,9,23.89,9,10.16,0,16.86-5.4,16.86-12.86v-.22c0-7-3.78-11-19.67-14.38-17.4-3.78-25.4-9.4-25.4-21.83v-.22c0-11.89,10.49-20.65,24.86-20.65,9.94,0,17.19,2.49,24.1,7.46a4.39,4.39,0,0,1,1.84,3.46,4.11,4.11,0,0,1-4.11,4.11,4,4,0,0,1-2.49-.76,31.64,31.64,0,0,0-19.56-6.59c-9.84,0-16.11,5.4-16.11,12.21v.22c0,7.13,3.89,11.13,20.54,14.7,16.86,3.68,24.65,9.84,24.65,21.4v.22c0,13-10.81,21.4-25.83,21.4A44.21,44.21,0,0,1,1199.53,603.88Z" class="cls-1" transform="translate(-61.44 -57.13)"/><path d="M1301.13,603.88a3.84,3.84,0,0,1-1.62-3.24,4.13,4.13,0,0,1,4.11-4.22,3.78,3.78,0,0,1,2.59,1c7.13,6.05,14.27,9,23.89,9,10.16,0,16.86-5.4,16.86-12.86v-.22c0-7-3.78-11-19.67-14.38-17.4-3.78-25.4-9.4-25.4-21.83v-.22c0-11.89,10.49-20.65,24.86-20.65,9.94,0,17.19,2.49,24.1,7.46a4.39,4.39,0,0,1,1.84,3.46,4.11,4.11,0,0,1-4.11,4.11,4,4,0,0,1-2.49-.76,31.64,31.64,0,0,0-19.56-6.59c-9.84,0-16.11,5.4-16.11,12.21v.22c0,7.13,3.89,11.13,20.54,14.7,16.86,3.68,24.65,9.84,24.65,21.4v.22c0,13-10.81,21.4-25.83,21.4A44.21,44.21,0,0,1,1301.13,603.88Z" class="cls-1" transform="translate(-61.44 -57.13)"/><path d="M1369.66,575.34v-.22c0-20.86,15.67-39.13,38.7-39.13s38.48,18.05,38.48,38.91v.22c0,20.86-15.67,39.13-38.7,39.13S1369.66,596.2,1369.66,575.34Zm68.31,0v-.22c0-17.19-12.54-31.24-29.83-31.24s-29.62,13.84-29.62,31v.22c0,17.19,12.54,31.24,29.83,31.24S1438,592.53,1438,575.34Z" class="cls-1" transform="translate(-61.44 -57.13)"/><path d="M1464.88,541.61a4.31,4.31,0,0,1,4.22-4.32h46.8a3.88,3.88,0,0,1,3.89,3.89,4,4,0,0,1-3.89,4h-42.48v27H1511a3.89,3.89,0,0,1,0,7.78h-37.62v29.19a4.27,4.27,0,1,1-8.54,0Z" class="cls-1" transform="translate(-61.44 -57.13)"/><path d="M1555.78,545.18h-21.94a4,4,0,0,1-4-3.89,4.06,4.06,0,0,1,4-4h52.53a4.06,4.06,0,0,1,4,4,4,4,0,0,1-4,3.89h-21.94v64a4.32,4.32,0,0,1-8.65,0Z" class="cls-1" transform="translate(-61.44 -57.13)"/><path d="M1601.29,543a6.32,6.32,0,0,1-.43-1.95,4.51,4.51,0,0,1,4.43-4.32,4.84,4.84,0,0,1,4.43,3.57l20.86,60.1,19.78-60.32c.65-1.95,1.95-3.35,4.22-3.35h.54a4.38,4.38,0,0,1,4.21,3.35l19.78,60.32,21-60.32a4.36,4.36,0,0,1,4.11-3.35,4.47,4.47,0,0,1,4.32,4.22A7.24,7.24,0,0,1,1708,543l-24.21,67.23c-.76,2.16-2.27,3.67-4.43,3.67h-.65c-2.16,0-3.67-1.51-4.43-3.67l-19.67-58.15L1635,610.25c-.76,2.16-2.27,3.67-4.43,3.67h-.65c-2.16,0-3.67-1.41-4.43-3.67Z" class="cls-1" transform="translate(-61.44 -57.13)"/><path d="M1711.32,607.33l30.7-67.13c1.08-2.38,2.7-3.78,5.4-3.78h.43a5.45,5.45,0,0,1,5.3,3.78l30.7,67a5.77,5.77,0,0,1,.54,2.16,4.1,4.1,0,0,1-4.11,4.11,4.66,4.66,0,0,1-4.22-3.13l-7.89-17.4h-41.51l-7.89,17.62a4.28,4.28,0,0,1-4.11,2.92,3.88,3.88,0,0,1-3.89-3.89A4.92,4.92,0,0,1,1711.32,607.33Zm53.51-22.16-17.4-38.7-17.4,38.7Z" class="cls-1" transform="translate(-61.44 -57.13)"/><path d="M1800.71,541.61a4.31,4.31,0,0,1,4.22-4.32h28.32c9.3,0,16.75,2.81,21.51,7.57a20.9,20.9,0,0,1,5.84,14.92V560c0,12.43-8.43,19.67-20.21,21.94l18.81,24.21a4.64,4.64,0,0,1,1.41,3.13,4.47,4.47,0,0,1-4.32,4.21,5,5,0,0,1-4-2.27L1831,583.55h-21.73v25.62a4.27,4.27,0,1,1-8.54,0Zm31.78,34.27c11.35,0,19.46-5.84,19.46-15.57v-.22c0-9.3-7.13-14.92-19.35-14.92h-23.35v30.7Z" class="cls-1" transform="translate(-61.44 -57.13)"/><path d="M1878.85,608.63v-67a4.31,4.31,0,0,1,4.22-4.32h47a3.89,3.89,0,1,1,0,7.78h-42.7v25.83h37.83a3.94,3.94,0,0,1,3.89,3.89,3.88,3.88,0,0,1-3.89,3.89h-37.83v26.48h43.24a3.89,3.89,0,0,1,0,7.78h-47.56A4.31,4.31,0,0,1,1878.85,608.63Z" class="cls-1" transform="translate(-61.44 -57.13)"/></svg>