<svg xmlns="http://www.w3.org/2000/svg" class="logo-lv" viewBox="0 0 803.9 252.6"><defs><linearGradient id="a" x1="22.4" x2="208.6" y1="132.9" y2="132.9" gradientUnits="userSpaceOnUse"><stop offset="0" stop-color="#56a2d0"/><stop offset=".9" stop-color="#56a2d0"/><stop offset="1" stop-color="#56a2d0"/></linearGradient><linearGradient id="b" x1="130.9" x2="136.1" y1="671.5" y2="671.5" gradientTransform="rotate(-11.4 -130750.4 39534.5) scale(39.78)" gradientUnits="userSpaceOnUse"><stop offset="0" stop-color="#94bcd7"/><stop offset=".1" stop-color="#94bcd7"/><stop offset=".4" stop-color="#77c1dc"/><stop offset=".5" stop-color="#67c4de"/><stop offset=".8" stop-color="#73c8ed"/><stop offset="1" stop-color="#73c8ed"/></linearGradient><linearGradient id="c" x1="124.5" x2="129.7" y1="672.3" y2="672.3" gradientTransform="rotate(-11.4 -80578 23795.3) scale(24.77)" gradientUnits="userSpaceOnUse"><stop offset="0" stop-color="#98c9e4"/><stop offset=".4" stop-color="#78cae5"/><stop offset=".6" stop-color="#63b8d2"/><stop offset=".8" stop-color="#56a2d0"/><stop offset="1" stop-color="#56a2d0"/></linearGradient></defs><g class="logo-lv-all"><g class="logo-lv-shape"><path fill="url(#a)" d="M140.2 206.4l-43-34.8a2.6 2.6 0 0 1-.4-3.6L179 59.4c0-2 0-4.5-2-4.5a2.3 2.3 0 0 0-.4 0 2.6 2.6 0 0 0-1.2.6L44.2 172.9a3.6 3.6 0 0 0 .8 4.4l92.6 33.5a2.6 2.6 0 0 0 2.6-4.4z"/><path fill="url(#b)" d="M173.3 4.5l2.1-1.7 2.7-2.4zM175.4 2.8L.6 157.1a2 2 0 0 0 .7 3.3l41.3 14.2a2 2 0 0 0 1.9-.3L179 59.4V0a44.6 44.6 0 0 0-3.6 2.8z"/><path fill="url(#c)" d="M141 207.7a1.8 1.8 0 0 0-1-1.3l-95.3-31.6a1.6 1.6 0 0 0-.6-.1 1.7 1.7 0 0 0-.4 0 1.6 1.6 0 0 0-.8.4L10 205.6a1.7 1.7 0 0 0 .7 2.9L141 252.6v-44.7z"/></g><g fill="#5aa4d3" class="logo-lv-name"><path d="M236.6 149.2H221V20.4h15.7zM792.6 88A34.5 34.5 0 0 0 767 77.3a35.8 35.8 0 0 0-35.3 36.2 35.7 35.7 0 0 0 35.7 35.7 32.5 32.5 0 0 0 19-6 38.7 38.7 0 0 0 12.2-14H782a16.9 16.9 0 0 1-14.4 6.8c-10 0-18-6.2-19-15l-.4-2.7h54.2c1-12.3-2.1-22.2-9.7-30.3zm-44.4 19l.5-3c.7-4.3 6-13.5 18.6-13.5s17.9 9.2 18.5 13.6l.5 2.9zM254.3 51.9a9.1 9.1 0 0 1 3.1-7 10 10 0 0 1 6.8-2.9 9.7 9.7 0 0 1 6.7 2.8 9.2 9.2 0 0 1 3 7.1 9.2 9.2 0 0 1-3 7.2 9.8 9.8 0 0 1-6.7 2.7 10.1 10.1 0 0 1-6.8-2.7 9 9 0 0 1-3.1-7.2zm17.6 97.3h-15.8v-72h15.8zM291.4 77.3h15.8V96a31 31 0 0 1 10.2-13.3q7-5.4 17.3-5.4 10.7 0 17 5.8a20.9 20.9 0 0 1 6.8 15.3v50.8h-15.7v-43.4a14.3 14.3 0 0 0-3.6-8.8q-3.3-3.7-10.2-4a22.1 22.1 0 0 0-8.9 1.7 21.2 21.2 0 0 0-6.9 4.7 20.5 20.5 0 0 0-4.5 7.1 24.8 24.8 0 0 0-1.5 9v33.7h-15.8zM427.9 77.5l9.4 9.2c-4.2 3.8-19.8 18.7-24 22.6 5 6.6 24.1 33.3 29 39.9h-18c-3.7-5-18.5-24.6-22-29.5l-9 8.2v21.3h-15.9V20.4h15.9v89.2l34.6-32.1zM481.4 149.2a6431 6431 0 0 1-37-71.9h17.1c4.2 8.1 20 42.6 20 42.6s15.9-34.5 20-42.6h17c-6.2 12.5-30.7 59.5-37 71.9zM522.4 114a35 35 0 0 1 2.9-14 37.8 37.8 0 0 1 19.2-19.7 32.8 32.8 0 0 1 13.7-3 29 29 0 0 1 8.7 1.2 34 34 0 0 1 6.7 2.8 19.4 19.4 0 0 1 4.4 3.3 12.7 12.7 0 0 1 2.1 2.7v-10h15.6V149h-15.6v-8.6a23 23 0 0 1-2.1 2.1 19.8 19.8 0 0 1-4.4 3 32.6 32.6 0 0 1-6.5 2.5 33 33 0 0 1-8.7 1 35.6 35.6 0 0 1-14.5-2.9 36.9 36.9 0 0 1-11.4-7.7 34.6 34.6 0 0 1-10.1-24.5zm15.6-1a22.5 22.5 0 0 0 1.5 8.4 19.4 19.4 0 0 0 4.3 6.6 20.3 20.3 0 0 0 6.7 4.5 23.3 23.3 0 0 0 17 0 19.8 19.8 0 0 0 6.7-4.6 20.5 20.5 0 0 0 4.3-6.7 22.1 22.1 0 0 0 1.5-8.2 21.5 21.5 0 0 0-1.5-8.1 19 19 0 0 0-4.3-6.5 21.2 21.2 0 0 0-6.6-4.4 22 22 0 0 0-8.6-1.6 23 23 0 0 0-8.5 1.5 19.4 19.4 0 0 0-11 11 21.4 21.4 0 0 0-1.5 8.1zM630.8 149.2h-15.6V20.4h15.6zM716.9 149.2h-15.6v-18.5a33.6 33.6 0 0 1-10 13q-6.7 5.5-17.6 5.5t-17.2-5.7q-6.4-5.7-6.7-15.1v-51h15.8V121a13.8 13.8 0 0 0 3.6 8.7q3.2 3.5 10.3 3.8a22.5 22.5 0 0 0 8.7-1.6 20.3 20.3 0 0 0 6.8-4.7 21.5 21.5 0 0 0 4.6-7 23.7 23.7 0 0 0 1.6-9V77.6H717z"/></g><g class="logo-lv-punchline"><g fill="#77c9f0" class="logo-lv-word"><path d="M251.8 183v7.5h-11.6V230h-7.9v-39.4H221V183zM260 230v-47h7.8v19.6h22.5V183h8V229.9h-8v-19.8h-22.5v19.8zM309 230v-47h31.2v7.2H317v12.6h20.7v7.3H317v12.5h24.2v7.3z"/></g><g fill="#77c9f0" class="logo-lv-word"><path d="M363.6 230v-47h13.3a22.9 22.9 0 0 1 7 1 15.3 15.3 0 0 1 5.4 3 13 13 0 0 1 3.5 4.8 16 16 0 0 1 1.2 6.3 19.6 19.6 0 0 1-.8 5.7 13.7 13.7 0 0 1-2.8 5 14 14 0 0 1-5 3.6 18 18 0 0 1-7.4 1.4h-6.5v16.1zm7.9-23.6h6.3a8.8 8.8 0 0 0 4-.9 7.6 7.6 0 0 0 2.6-2 7.7 7.7 0 0 0 1.4-2.7 9.4 9.4 0 0 0 .4-2.5 10 10 0 0 0-.4-2.4 7.2 7.2 0 0 0-1.3-2.6 7.5 7.5 0 0 0-2.5-2 9 9 0 0 0-4.2-1h-6.3zM416.4 223q2.6-3 4.9-6a51.3 51.3 0 0 0 4-6.2 33 33 0 0 0 2.7-6.2 21.3 21.3 0 0 0 1-6.5 15.4 15.4 0 0 0-1-5.7 14.5 14.5 0 0 0-8-8.1 15.7 15.7 0 0 0-6.3-1.3 16.7 16.7 0 0 0-6.6 1.3 14.7 14.7 0 0 0-4.8 3.2 13.9 13.9 0 0 0-3 4.8 15.4 15.4 0 0 0-1 5.4 13.5 13.5 0 0 0 .3 2.8h7.2a11.7 11.7 0 0 1-.3-2.8 8.8 8.8 0 0 1 .4-2.2 6.8 6.8 0 0 1 1.3-2.5 8.4 8.4 0 0 1 2.5-2.1 8.3 8.3 0 0 1 4-.9 7.1 7.1 0 0 1 2.6.6 8.5 8.5 0 0 1 2.6 1.6 8.8 8.8 0 0 1 2 2.8 9 9 0 0 1 .8 4 15 15 0 0 1-2 7 46.1 46.1 0 0 1-5 7.4q-3.2 4-7.3 8L399 230h32.5v-7zM437.3 230v-47h13.3a22.8 22.8 0 0 1 7 1 15.2 15.2 0 0 1 5.4 3 13.1 13.1 0 0 1 3.4 4.8 16 16 0 0 1 1.3 6.3 19.5 19.5 0 0 1-.9 5.7 13.6 13.6 0 0 1-2.7 5 14.1 14.1 0 0 1-5 3.6 18 18 0 0 1-7.4 1.4H445v16.1zm7.9-23.6h6.3a8.8 8.8 0 0 0 4-.9 7.7 7.7 0 0 0 4-4.7 9.4 9.4 0 0 0 .4-2.5 10 10 0 0 0-.4-2.4 7.3 7.3 0 0 0-1.3-2.6 7.5 7.5 0 0 0-2.5-2 9 9 0 0 0-4.1-1h-6.4z"/></g><g fill="#77c9f0" class="logo-lv-word"><path d="M523 226.5a21.7 21.7 0 0 1-2 1.2 22.5 22.5 0 0 1-3.4 1.3 32 32 0 0 1-4.2 1 29 29 0 0 1-5.1.4 24.6 24.6 0 0 1-10-1.9 21.7 21.7 0 0 1-12-12.6 25.7 25.7 0 0 1-1.6-9.1 24.4 24.4 0 0 1 2-9.8 24.1 24.1 0 0 1 5.2-7.7 23.8 23.8 0 0 1 7.7-5 24.8 24.8 0 0 1 9.5-1.9 26.6 26.6 0 0 1 3.9.3 36.2 36.2 0 0 1 3.7.8 20.6 20.6 0 0 1 3 1 5.7 5.7 0 0 1 2 1.2 25 25 0 0 0-1.6 2.7l-.8 1.4-1.2 2a8.4 8.4 0 0 0-1.9-.8 15.7 15.7 0 0 0-2.3-.6l-2.4-.4a20.2 20.2 0 0 0-2.2-.1 16.3 16.3 0 0 0-6.6 1.3 17.3 17.3 0 0 0-5.3 3.6 16.2 16.2 0 0 0-3.5 5.2 15.5 15.5 0 0 0-1.2 6.1 16 16 0 0 0 1.1 6 16.4 16.4 0 0 0 3.4 5.2 17 17 0 0 0 5.1 3.6 15.3 15.3 0 0 0 6.6 1.4 18.6 18.6 0 0 0 4-.4 29 29 0 0 0 3.4-1 16.1 16.1 0 0 0 2.4-1c.6-.3 1-.5 1-.7zM524.6 206.6a23 23 0 0 1 1.9-9.3 24.6 24.6 0 0 1 12.7-12.9 23.3 23.3 0 0 1 18.6 0 25 25 0 0 1 7.7 5.2 24.5 24.5 0 0 1 5.1 7.7 23.6 23.6 0 0 1 0 18.6 24.2 24.2 0 0 1-12.8 12.7 24 24 0 0 1-18.6 0 24 24 0 0 1-7.6-5.1 24.4 24.4 0 0 1-5.1-7.6 23 23 0 0 1-2-9.3zm7.9 0a16.5 16.5 0 0 0 1.2 6.4 16 16 0 0 0 3.5 5.2 16.7 16.7 0 0 0 5.2 3.5 15.6 15.6 0 0 0 6.3 1.3 15.3 15.3 0 0 0 6.2-1.3 16 16 0 0 0 5.1-3.5 16.6 16.6 0 0 0 3.4-5.2 16.4 16.4 0 0 0 1.3-6.4 16 16 0 0 0-1.3-6.4 17.2 17.2 0 0 0-3.5-5.3 16.2 16.2 0 0 0-5.1-3.5 16 16 0 0 0-12.6 0 15.8 15.8 0 0 0-5 3.5 17 17 0 0 0-3.5 5.3 16.4 16.4 0 0 0-1.2 6.4zM623.4 187l-3.8 5-4.1 5.8-4.1 5.7-3.6 5-2.6 3.6-1.2 1.7-1.4-2-2.7-3.7-3.6-5-4.1-5.6-4.1-5.6-3.7-5-2.7-3.9-1.4-2v12.4l23.2 32.6.5.6 15.5-22.4a4.8 4.8 0 0 1 0 .8 5.2 5.2 0 0 0-.2 1v24h8.4v-49l-1.5 2-2.8 4zM580.3 230h7.9v-12.7l-8-11v23.6zM638.5 230v-47h13.3a22.8 22.8 0 0 1 7 1 15.2 15.2 0 0 1 5.4 3 13.1 13.1 0 0 1 3.5 4.8 16 16 0 0 1 1.2 6.3 19.5 19.5 0 0 1-.8 5.7 13.6 13.6 0 0 1-2.8 5 14.1 14.1 0 0 1-5 3.6 18 18 0 0 1-7.4 1.4h-6.5v16.1zm7.9-23.6h6.3a8.8 8.8 0 0 0 4-.9 7.7 7.7 0 0 0 4-4.7 9.4 9.4 0 0 0 .4-2.5 10 10 0 0 0-.4-2.4 7.3 7.3 0 0 0-1.3-2.6 7.5 7.5 0 0 0-2.5-2 9 9 0 0 0-4.1-1h-6.4zM701 230l-.7-1.7-1.2-2.8-1.6-3.7-1.7-4.2h-16.2l-5.1 12.3h-7.8l1.2-2.8 2.4-5.7 3.3-7.5 3.6-8.5 3.6-8.5 3.2-7.5 2.4-5.7 1.2-2.8 1.3 2.8 2.4 5.7c1 2.2 2 4.8 3.3 7.5s2.4 5.6 3.6 8.5l3.6 8.5c1.1 2.8 2.3 5.2 3.3 7.5l2.4 5.7 1.2 2.8zm-18.7-19H693l-4.6-11.3a4.4 4.4 0 0 1-.4-.8 12.7 12.7 0 0 1-.4-1.5 13.8 13.8 0 0 1-.3 1.5 9 9 0 0 0-.3.8zM714.1 230h7.9v-19.6l-7.9-7.6V230zM755.6 232.1V183h-7.8l.2 30.6-33.9-32.7v11.5l41.5 39.7zM786.5 214.7V230h-7.9v-15.2L777 212l-3.1-5.8c-1.1-2.2-2.6-4.7-4-7.2l-4-7.3a217.7 217.7 0 0 1-4.7-8.6h9l1 1.8 1.8 3.4 2.3 4.3c.9 1.6 7.4 15.1 7.4 15.1l5-10.4 2.4-4.7 2.2-4.3 1.7-3.4 1-1.8h9z"/></g></g></g></svg>