<svg id="Calque_1" data-name="Calque 1" xmlns="http://www.w3.org/2000/svg" viewBox="0 0 882 400"><defs><style>.cls-1{fill:#ff8054;}.cls-2{fill:#3b72ff;}</style></defs><title>Logo_smile_orange_bleu</title><path class="cls-1" d="M184,116.82c21.47,0,43.82,10.73,61.12,25.41l-24.31,22.34c-11.83-7.23-28.48-12.7-36.81-12.7H182.5c-6.79,0-21.69,1.31-21.69,12.26,0,8.33,12.28,9.64,21.91,10.74l9.86.87c31.55,3.51,56.95,15.34,56.95,48.86,0,30-25.4,48.19-61.33,48.63h-1.1a88.59,88.59,0,0,1-66.81-29.57l24.31-22.35a62.21,62.21,0,0,0,42.5,16.87h1.1c15.77-.22,24.09-5.26,24.09-13.58,0-11-12.48-12.71-24.75-14.24l-10.08-1.1c-28.48-3.07-53.88-14.9-53.88-44,0-29.79,25.4-48,58.92-48.41Z"/><polygon class="cls-1" points="384.92 271.69 384.92 185.82 344.61 235.11 304.52 185.82 304.52 271.69 267.28 271.69 267.28 118.35 289.62 118.35 344.61 186.7 399.81 118.35 422.16 118.35 422.16 271.69 384.92 271.69"/><polygon class="cls-1" points="527.04 271.69 527.04 118.35 564.28 118.35 564.28 236.43 628.25 236.43 628.25 271.69 527.04 271.69"/><polygon class="cls-1" points="749.9 177.28 749.9 212.55 688.12 212.55 688.12 236.43 755.81 236.43 755.81 271.69 650.88 271.69 650.88 118.35 755.81 118.35 755.81 153.4 688.12 153.4 688.12 177.28 749.9 177.28"/><rect class="cls-1" x="455.51" y="118.14" width="37.37" height="153.49"/><path class="cls-2" d="M345.32,263a47.85,47.85,0,0,1-47.79-47.79,3.74,3.74,0,0,1,7.47,0,40.32,40.32,0,0,0,80.64,0,3.73,3.73,0,0,1,7.46,0A47.84,47.84,0,0,1,345.32,263Z"/><path class="cls-2" d="M382.86,173.2c-.84,0-1.67,0-2.51-.09A35.14,35.14,0,0,1,357,161.61a3.74,3.74,0,0,1,5.52-5,27.68,27.68,0,0,0,18.42,9.09,24.4,24.4,0,0,0,18.43-6.23,3.73,3.73,0,0,1,5,5.51A31.64,31.64,0,0,1,382.86,173.2Z"/><path class="cls-2" d="M305.51,173.2a31.62,31.62,0,0,1-21.5-8.26,3.73,3.73,0,1,1,5-5.51,24.38,24.38,0,0,0,18.42,6.23,27.63,27.63,0,0,0,18.41-9.09,3.74,3.74,0,0,1,5.52,5A35.11,35.11,0,0,1,308,173.11C307.18,173.17,306.34,173.2,305.51,173.2Z"/><path class="cls-2" d="M817.64,229a3.73,3.73,0,0,1-3.73-3.69h0c0-3.11-.84-8.46-2.44-10.06-1.91-1.91-6.38-2.41-7.79-2.44a3.73,3.73,0,0,1,.09-7.46h0c2.14,0,6.13-.62,7.78-2.27,1.5-1.5,2.32-7,2.33-10.49v0a3.74,3.74,0,0,1,3.73-3.72h0a3.75,3.75,0,0,1,3.73,3.74v.05c0,3.4.81,8.9,2.35,10.43,1.75,1.76,5.84,2.31,7.66,2.31a.48.48,0,0,1,.12,0h0a3.73,3.73,0,0,1,0,7.46h0c-2.12,0-6.13.71-7.81,2.38-1.5,1.51-2.35,6.84-2.37,10.11a3.74,3.74,0,0,1-3.73,3.7Zm-1.73-19.79c.29.24.57.49.84.76a9.62,9.62,0,0,1,.84,1,10.73,10.73,0,0,1,.88-1,10.56,10.56,0,0,1,.87-.78,11.28,11.28,0,0,1-.89-.8,9.37,9.37,0,0,1-.78-.89,9,9,0,0,1-.81.92A10.88,10.88,0,0,1,815.91,209.16Z"/><path class="cls-2" d="M623.88,112.3a3.74,3.74,0,0,1-3.74-3.7c0-3.11-.83-8.45-2.43-10-1.8-1.79-6-2.42-7.78-2.44a3.74,3.74,0,0,1,.05-7.47h0c2.14,0,6.13-.61,7.78-2.27,1.51-1.5,2.32-7,2.33-10.45v-.08a3.74,3.74,0,0,1,3.74-3.72h0a3.73,3.73,0,0,1,3.73,3.73v0c0,3.41.82,8.92,2.35,10.46,1.9,1.9,6.33,2.32,7.78,2.29h0a3.73,3.73,0,0,1,.65,7.41h0a3.05,3.05,0,0,1-.6.06h0c-2.13,0-6.14.7-7.82,2.38-1.52,1.52-2.36,6.84-2.38,10.1a3.73,3.73,0,0,1-3.73,3.71Zm-1.74-19.8c.29.24.58.5.85.77a9.62,9.62,0,0,1,.84,1,9.62,9.62,0,0,1,.88-1c.28-.28.57-.54.86-.78a11.28,11.28,0,0,1-.89-.8,9.37,9.37,0,0,1-.78-.89,10,10,0,0,1-.8.91A10.82,10.82,0,0,1,622.14,92.5Z"/><path class="cls-2" d="M449.57,267.11a3.73,3.73,0,0,1-3.73-3.7c0-3.11-.84-8.45-2.44-10.05-1.79-1.79-6-2.42-7.77-2.44a3.74,3.74,0,0,1,.08-7.47h0c2.14,0,6.13-.61,7.78-2.26s2.32-7.08,2.33-10.53h0a3.73,3.73,0,0,1,3.73-3.72h0a3.73,3.73,0,0,1,3.73,3.73v0c0,3.4.81,8.92,2.35,10.46,1.77,1.77,5.95,2.33,7.74,2.29h.08a3.74,3.74,0,0,1,0,7.47h0c-2.13,0-6.14.7-7.82,2.38-1.52,1.52-2.36,6.84-2.38,10.1a3.74,3.74,0,0,1-3.73,3.71Zm-1.73-19.79c.29.24.57.49.84.76a11.2,11.2,0,0,1,.85,1,9.62,9.62,0,0,1,.88-1c.28-.28.56-.53.86-.78a9.59,9.59,0,0,1-.89-.8,11.15,11.15,0,0,1-.79-.89,7.76,7.76,0,0,1-.8.92C448.49,246.77,448.17,247.05,447.84,247.32Z"/><path class="cls-2" d="M223.43,107.37a3.73,3.73,0,0,1-3.73-3.7c0-4.6-1.19-13-4-15.83-3.23-3.21-10.29-4-12.51-4a3.74,3.74,0,0,1,0-7.47h.09c2.48,0,9.4-.67,12.53-3.8,2.92-2.91,3.87-12.3,3.88-16.46V56a3.73,3.73,0,0,1,3.73-3.72h0A3.73,3.73,0,0,1,227.17,56v0c0,5.21,1.21,13.73,3.93,16.44,3.16,3.16,10,3.84,12.39,3.84h.19a3.74,3.74,0,0,1,0,7.47h0c-2.44,0-9.4.81-12.56,4-2.94,2.94-3.95,12-4,15.9a3.74,3.74,0,0,1-3.73,3.71Zm-5.49-27.15a16.48,16.48,0,0,1,3,2.34,14.33,14.33,0,0,1,2.44,3.38,14.27,14.27,0,0,1,2.48-3.46,15.86,15.86,0,0,1,3-2.34,15.92,15.92,0,0,1-3.06-2.38,13.71,13.71,0,0,1-2.36-3.24,13.61,13.61,0,0,1-2.36,3.29A16,16,0,0,1,217.94,80.22Z"/><path class="cls-2" d="M346.74,83.55A3.73,3.73,0,0,1,343,79.82V60.75a3.74,3.74,0,0,1,7.47,0V79.82A3.74,3.74,0,0,1,346.74,83.55Z"/><path class="cls-2" d="M381.82,90.93a3.73,3.73,0,0,1-2.88-6.11L391.06,70.1a3.73,3.73,0,1,1,5.76,4.75L384.7,89.57A3.72,3.72,0,0,1,381.82,90.93Z"/><path class="cls-2" d="M311,90.77a3.72,3.72,0,0,1-2.8-1.25L295.51,75.25a3.74,3.74,0,0,1,5.59-5l12.65,14.27A3.74,3.74,0,0,1,311,90.77Z"/><path class="cls-2" d="M599.78,222.26,626.55,218c8.33-1.34,13.32-8.46,12.09-16a13.85,13.85,0,0,0-15.91-11.43A13.84,13.84,0,0,0,606.89,179c-7.55,1.2-12.75,8.17-11.41,16.5,1.5,9.29,3.89,24.16,4.3,26.77"/><path class="cls-2" d="M578.44,165.88a3.74,3.74,0,0,1-2.76-6.25c11.84-13,31.52-14.36,43.88-3.08a3.73,3.73,0,1,1-5,5.52c-9.32-8.5-24.27-7.34-33.33,2.59A3.73,3.73,0,0,1,578.44,165.88Z"/><path class="cls-2" d="M505.52,157.38A14.62,14.62,0,1,1,520.14,172a14.61,14.61,0,0,1-14.62-14.62"/><path class="cls-2" d="M555.53,241.77A3.74,3.74,0,0,1,553.3,235l16.42-12.24-10.39-12.26a3.73,3.73,0,0,1,.23-5.08l9.31-9.14L553.5,183.77a3.74,3.74,0,0,1,4.73-5.79l18.6,15.19a3.72,3.72,0,0,1,.25,5.55l-9.81,9.64L578,221a3.74,3.74,0,0,1-.62,5.41L557.76,241A3.71,3.71,0,0,1,555.53,241.77Z"/><path class="cls-2" d="M576.79,143.74a3.74,3.74,0,0,1-2.08-6.85l19.87-13.23a3.74,3.74,0,1,1,4.14,6.22l-19.87,13.23A3.72,3.72,0,0,1,576.79,143.74Z"/><path class="cls-2" d="M158.68,42.33a6.13,6.13,0,1,1-6.14-6.13,6.14,6.14,0,0,1,6.14,6.13"/><path class="cls-2" d="M701.25,43a6.13,6.13,0,1,1-6.13-6.13A6.12,6.12,0,0,1,701.25,43"/><path class="cls-2" d="M505.52,94.27a6.13,6.13,0,1,1-6.13-6.13,6.13,6.13,0,0,1,6.13,6.13"/><path class="cls-2" d="M785.05,240.89a6.13,6.13,0,1,1-6.13-6.13,6.13,6.13,0,0,1,6.13,6.13"/><path class="cls-2" d="M428.29,208.68a6.13,6.13,0,1,1-6.14-6.13,6.13,6.13,0,0,1,6.14,6.13"/><path class="cls-2" d="M735.43,177.43a3.73,3.73,0,0,1-3.4-5.27l6.68-14.81a36.34,36.34,0,0,1-9.41-24.12c0-21.65,20-39.26,44.58-39.26s44.59,17.61,44.59,39.26-20,39.25-44.59,39.25A49.7,49.7,0,0,1,758,169.91l-21.33,7.31A3.58,3.58,0,0,1,735.43,177.43Zm38.45-76c-20.46,0-37.11,14.26-37.11,31.79a29.27,29.27,0,0,0,9,20.73,3.74,3.74,0,0,1,.77,4.18l-4.16,9.22,14.39-4.93a3.76,3.76,0,0,1,2.5,0,42.12,42.12,0,0,0,14.6,2.56c20.47,0,37.12-14.26,37.12-31.78S794.35,101.44,773.88,101.44Z"/><path class="cls-2" d="M754.31,133.92a4.11,4.11,0,1,1,4.1,4.11,4.09,4.09,0,0,1-4.1-4.11"/><path class="cls-2" d="M768.74,133.92a4.11,4.11,0,1,1,4.1,4.11,4.09,4.09,0,0,1-4.1-4.11"/><path class="cls-2" d="M783.17,133.92a4.11,4.11,0,1,1,4.1,4.11,4.09,4.09,0,0,1-4.1-4.11"/><path class="cls-2" d="M451,164.28a3.94,3.94,0,1,1-3.94-3.94,3.94,3.94,0,0,1,3.94,3.94"/><path class="cls-2" d="M100.9,153A3.94,3.94,0,1,1,97,149.07,3.94,3.94,0,0,1,100.9,153"/><path class="cls-2" d="M51,261.33a3.74,3.74,0,0,1-3.7-4.25c.09-.66,2.32-16.28,9.95-23.68a13,13,0,0,1,18.41.28,13,13,0,0,1-.28,18.4h0c-8.49,8.24-23.53,9.2-24.16,9.24Zm15.32-24.14a5.52,5.52,0,0,0-3.87,1.57c-3.38,3.28-5.58,9.62-6.77,14.42,4.34-.84,10.57-2.65,14.5-6.46h0a5.55,5.55,0,0,0-3.86-9.53Z"/><path class="cls-2" d="M84.23,241.75a3.74,3.74,0,0,1-3.71-3.31A11.07,11.07,0,0,0,77.44,232l-.09-.09a11,11,0,0,0-6.66-3.22,3.74,3.74,0,0,1-3.22-4.53c2.45-10.93,7.85-26.41,19.67-38,20.74-20.41,52.59-21,53.93-21h0a3.74,3.74,0,0,1,3.74,3.79c0,1.36-.73,33.57-21.49,54C111.58,234.47,96,239.5,85,241.68A3.54,3.54,0,0,1,84.23,241.75Zm-8.59-19.59a18.71,18.71,0,0,1,7.07,4.49l.07.08.08.08A18.16,18.16,0,0,1,87,233.58c9.63-2.3,21.8-6.89,31.09-16,14.48-14.26,18.09-35.83,19-44.73-8.84.84-30.24,4.32-44.72,18.56C83.06,200.56,78.18,212.61,75.64,222.16Zm42.24-18.48a11.63,11.63,0,0,1-8.17-19.93A11.73,11.73,0,0,1,118,180.4a11.54,11.54,0,0,1,8.21,3.48h0a11.63,11.63,0,0,1-8.3,19.8Zm0-15.81a4.17,4.17,0,0,0-3,7.1,4.18,4.18,0,1,0,3-7.1Z"/><path class="cls-2" d="M73.62,219.62a4,4,0,0,1-1-.14l-21.24-6a3.74,3.74,0,0,1-1.61-6.26L65.21,192A3.73,3.73,0,0,1,67.75,191l16.94-.33a3.73,3.73,0,0,1,.14,7.46l-15.45.31-9.8,9.64,15,4.24a3.74,3.74,0,0,1-1,7.33Z"/><path class="cls-2" d="M98.66,260.68a3.71,3.71,0,0,1-3.61-2.78l-5.37-20.34a3.73,3.73,0,1,1,7.22-1.91l3.73,14.12,9.81-9.65.49-14a3.74,3.74,0,1,1,7.47.27l-.55,15.48a3.74,3.74,0,0,1-1.12,2.52l-15.45,15.21A3.72,3.72,0,0,1,98.66,260.68Z"/><path class="cls-2" d="M300.48,364.36V335.53h5.6v28.83Z"/><path class="cls-2" d="M319.56,364.36v-5.85H324v5.85Z"/><path class="cls-2" d="M356.1,340.44h-9.21v23.92h-5.57V340.44h-9.21v-4.91h24Z"/><path class="cls-2" d="M384.52,364.36V335.53h5.61v28.83Z"/><path class="cls-2" d="M421.43,343.08a6.54,6.54,0,0,0-1-.77,12.78,12.78,0,0,0-1.83-1,16.75,16.75,0,0,0-2.33-.79,10.56,10.56,0,0,0-2.56-.32,5.69,5.69,0,0,0-3.45.85,2.83,2.83,0,0,0-1.14,2.4,2.42,2.42,0,0,0,.43,1.48,3.55,3.55,0,0,0,1.23,1,10.88,10.88,0,0,0,2.06.82c.82.24,1.77.5,2.86.77,1.4.38,2.68.78,3.83,1.22a10.37,10.37,0,0,1,2.93,1.62,6.83,6.83,0,0,1,1.85,2.33,7.82,7.82,0,0,1,.64,3.35,8.33,8.33,0,0,1-.87,4,7.29,7.29,0,0,1-2.35,2.66,10.21,10.21,0,0,1-3.41,1.48,16.74,16.74,0,0,1-4,.47,21.69,21.69,0,0,1-6.42-1,19.73,19.73,0,0,1-5.68-2.76l2.47-4.84a7.82,7.82,0,0,0,1.32,1,22.14,22.14,0,0,0,2.26,1.18,17.33,17.33,0,0,0,2.88,1,13,13,0,0,0,3.25.41c3.08,0,4.63-1,4.63-3a2.43,2.43,0,0,0-.53-1.58,4.56,4.56,0,0,0-1.5-1.14,14.88,14.88,0,0,0-2.36-.89l-3.08-.89a27.19,27.19,0,0,1-3.6-1.24,9.67,9.67,0,0,1-2.54-1.59,5.93,5.93,0,0,1-1.52-2.11,7.27,7.27,0,0,1-.51-2.86,8.87,8.87,0,0,1,.82-3.9,7.85,7.85,0,0,1,2.25-2.84,10.34,10.34,0,0,1,3.35-1.73,13.92,13.92,0,0,1,4.1-.58,15.79,15.79,0,0,1,5.6.95,21.2,21.2,0,0,1,4.47,2.25Z"/><path class="cls-2" d="M467.44,364.56a13,13,0,0,1-5.75-1.24,14.08,14.08,0,0,1-4.43-3.29,15.23,15.23,0,0,1-3.87-10.09,14.62,14.62,0,0,1,1.07-5.52,15.24,15.24,0,0,1,3-4.67,14.24,14.24,0,0,1,4.48-3.23,13.34,13.34,0,0,1,5.65-1.19,12.68,12.68,0,0,1,5.7,1.27,14.4,14.4,0,0,1,4.41,3.35,15.75,15.75,0,0,1,2.84,4.71,14.86,14.86,0,0,1,0,10.87,15,15,0,0,1-2.93,4.62,14,14,0,0,1-4.46,3.21A13.27,13.27,0,0,1,467.44,364.56Zm-8.37-14.62a11.62,11.62,0,0,0,.57,3.62,9.78,9.78,0,0,0,1.64,3.08,8.12,8.12,0,0,0,2.64,2.15,8.11,8.11,0,0,0,7.15,0,8.17,8.17,0,0,0,2.64-2.21,9.81,9.81,0,0,0,1.62-3.11,11.41,11.41,0,0,0,0-7.12,10.2,10.2,0,0,0-1.66-3.09,8.06,8.06,0,0,0-2.64-2.13,7.62,7.62,0,0,0-3.51-.79,7.73,7.73,0,0,0-3.62.83,8.28,8.28,0,0,0-2.64,2.19,9.87,9.87,0,0,0-1.6,3.09A11.39,11.39,0,0,0,459.07,349.94Z"/><path class="cls-2" d="M494,364.36V335.53h12.22a8.21,8.21,0,0,1,3.67.83,9.61,9.61,0,0,1,2.91,2.19,10.46,10.46,0,0,1,1.91,3.09,9.29,9.29,0,0,1,.69,3.47,10.13,10.13,0,0,1-2.48,6.62,9,9,0,0,1-2.84,2.15,8.25,8.25,0,0,1-3.66.81h-6.82v9.67Zm5.6-14.58h6.5a3.21,3.21,0,0,0,2.58-1.26,5.2,5.2,0,0,0,1-3.41,5.77,5.77,0,0,0-.32-2,4.76,4.76,0,0,0-.86-1.48,3.29,3.29,0,0,0-1.23-.91,3.57,3.57,0,0,0-1.45-.31h-6.25Z"/><path class="cls-2" d="M547.38,359.44v4.92h-20V335.53H547v4.91H533v6.94h12.14v4.55H533v7.51Z"/><path class="cls-2" d="M565.45,345.88v18.48h-5.6V335.53h4.34l15,18.92V335.57h5.61v28.79h-4.55Z"/></svg>