<?xml version="1.0" encoding="utf-8"?>
<!-- Generator: Adobe Illustrator 27.2.0, SVG Export Plug-In . SVG Version: 6.00 Build 0)  -->
<svg version="1.1" id="Calque_1" xmlns="http://www.w3.org/2000/svg" x="0px" y="0px"
	 viewBox="0 0 283.5 283.5" style="enable-background:new 0 0 283.5 283.5;" xml:space="preserve">
<style type="text/css">
	.st0{fill:#1D1D1B;}
	.st1{fill:#2979FF;}
</style>
<g>
	<g>
		<path class="st0" d="M189,198.2v-7.1h5.4c2.8,0,4.4,1.2,4.4,3.5v0.1c0,2.2-1.7,3.5-4.4,3.5H189z M185.2,208.9h3.7v-7.4h4.7
			l5.2,7.4h4.4l-5.7-8c2.9-0.8,5-2.9,5-6.4v-0.1c0-1.8-0.6-3.4-1.8-4.6c-1.4-1.3-3.5-2.1-6.1-2.1h-9.5V208.9z M164.9,208.9h15.9
			v-3.3h-12.2v-5.7h10.6v-3.3h-10.6V191h12v-3.3h-15.7V208.9z M148.4,198.7v-7.6h4.3c2.8,0,4.6,1.3,4.6,3.8v0.1
			c0,2.2-1.8,3.8-4.6,3.8H148.4z M144.7,208.9h3.7v-6.8h4.2c4.7,0,8.5-2.5,8.5-7.2v-0.1c0-4.3-3.1-7.1-8.1-7.1h-8.4V208.9z
			 M132.7,209.2c4.5,0,7.6-2.4,7.6-6.3v-0.1c0-3.5-2.3-5.1-6.8-6.2c-4.1-1-5.1-1.7-5.1-3.3v-0.1c0-1.4,1.3-2.5,3.5-2.5
			c1.9,0,3.9,0.8,5.8,2.2l2-2.8c-2.2-1.7-4.6-2.7-7.7-2.7c-4.2,0-7.2,2.5-7.2,6.2v0.1c0,3.9,2.5,5.2,7.1,6.3
			c3.9,0.9,4.8,1.7,4.8,3.2v0.1c0,1.6-1.5,2.7-3.8,2.7c-2.6,0-4.7-1-6.7-2.8l-2.2,2.7C126.4,208.1,129.5,209.2,132.7,209.2
			 M115.9,208.9h3.7v-21.2h-3.7V208.9z M87.6,209h3.2l5.2-15.3l5.2,15.3h3.2l7.4-21.4h-3.9l-5.1,15.7l-5.2-15.8h-3.2l-5.2,15.8
			l-5.1-15.7h-4L87.6,209z"/>
	</g>
	<path class="st1" d="M198.4,74.3c-7.8,0-14.2,6.3-14.2,14.2c0,4.9,2.5,9.2,6.2,11.7l-15.8,31.6c-1.4-0.5-3-0.8-4.6-0.8
		c-1.6,0-3.2,0.3-4.6,0.8l-15.8-31.6h0l-1.8-3.7l8.1-8.1l-14.2-14.2l-14.2,14.2l8.1,8.1L118,131.8c-1.4-0.5-3-0.8-4.6-0.8
		c-1.6,0-3.2,0.3-4.6,0.8L93,100.2c3.8-2.5,6.2-6.9,6.2-11.7c0-7.8-6.3-14.2-14.2-14.2s-14.2,6.3-14.2,14.2s6.3,14.2,14.2,14.2
		c1.6,0,3.2-0.3,4.6-0.8l15.8,31.6c-3.8,2.5-6.2,6.9-6.2,11.7c0,7.8,6.3,14.2,14.2,14.2c7.8,0,14.2-6.3,14.2-14.2
		c0-4.9-2.5-9.2-6.2-11.7l17.1-34.1l3.3,3.3l3.3-3.3l1.3,2.6l15.8,31.6c-3.8,2.5-6.2,6.9-6.2,11.7c0,7.8,6.3,14.2,14.2,14.2
		s14.2-6.3,14.2-14.2c0-4.9-2.5-9.2-6.2-11.7l15.8-31.6c1.4,0.5,3,0.8,4.6,0.8c7.8,0,14.2-6.3,14.2-14.2S206.3,74.3,198.4,74.3z
		 M132.8,88.4l8.9-8.9l8.9,8.9l-8.9,8.9L132.8,88.4z"/>
</g>
</svg>
