<svg xmlns="http://www.w3.org/2000/svg" xmlns:svg="http://www.w3.org/2000/svg" id="svg2" width="279.256" height="55.981" enable-background="new -.294 -.317 146 29" version="1.1" viewBox="-0.294 -0.317 279.256 55.981" xml:space="preserve"><metadata id="metadata44"/><path id="path6" d="M 90.665874,5.9452181 C 87.731747,4.6694713 84.591479,3.8380636 81.796063,3.8380636 c -4.086201,0 -6.126412,0.8965775 -6.126412,2.5139715 0,4.6270509 18.223185,0.9104013 18.223185,10.7846029 0,4.087919 -3.743276,7.243713 -11.243314,7.243713 -4.448391,0 -7.925804,-0.941998 -11.917604,-3.155794 l 1.647195,-3.683077 c 3.500532,1.992614 6.767951,2.877342 10.297381,2.877342 4.446465,0 6.831527,-1.315244 6.831527,-3.282184 0,-5.061516 -18.230891,-1.283647 -18.230891,-10.535773 0,-3.9911519 3.714378,-6.73617974 10.430312,-6.73617974 4.018772,0 7.397931,0.90447679 10.628746,2.56136764 l -1.670314,3.5191652" style="fill:#000"/><path id="path8" d="m 110.98128,24.502791 c -7.27848,0 -13.314343,-4.970672 -13.314343,-12.396071 0,-7.3404815 6.035863,-12.40594647 13.314343,-12.40594647 7.32087,0 13.26041,5.06546497 13.26041,12.40594647 0,7.427374 -5.93954,12.396071 -13.26041,12.396071 m 0,-20.8009913 c -5.29992,0 -8.92183,3.6791272 -8.92183,8.4049203 0,4.836383 3.46393,8.434542 8.92183,8.434542 5.42515,0 8.87174,-3.631731 8.87174,-8.434542 0,-4.7257931 -3.44659,-8.4049203 -8.87174,-8.4049203" style="fill:#000"/><path id="path10" d="m 141.6326,24.475144 c -7.6503,0 -13.41067,-4.962774 -13.41067,-12.398047 0,-7.3088837 5.85091,-12.37632347 13.41067,-12.37632347 4.50812,0 7.73893,1.31326877 10.63453,3.49941677 l -2.25406,3.4362218 c -2.10764,-1.6588657 -4.74508,-2.8694427 -8.25717,-2.8694427 -5.5812,0 -9.04898,3.6139575 -9.04898,8.3081526 0,4.834409 3.50054,8.3437 9.10485,8.3437 3.50439,0 6.28439,-1.159231 8.37855,-2.820072 l 2.26369,3.440172 c -2.90331,2.188123 -6.31329,3.436222 -10.82141,3.436222" style="fill:#000"/><path style="fill:#000" id="rect12" d="m 157.07193,0.41961535 4.24803,0 0,23.42752865 -4.24803,0 z"/><path style="fill:#000" id="polyline14" d="m 167.58894,23.847144 0,-23.42752865 20.81053,0 0,3.87463635 -16.56828,0 0,5.6914893 12.87702,0 0,3.864763 -12.87702,0 0,6.123979 17.29844,0 0,3.872661 -21.54069,0"/><path style="fill:#000" id="polyline16" d="m 204.94271,4.2685788 0,19.5785652 -4.22876,0 0,-19.5785652 -9.3187,0 0,-3.84896345 22.85845,0 0,3.84896345 -9.31099,0"/><path style="fill:#000" id="polyline18" d="m 217.66176,23.847144 0,-23.42752865 20.81053,0 0,3.87463635 -16.56828,0 0,5.6914893 12.88666,0 0,3.864763 -12.88666,0 0,6.123979 17.29844,0 0,3.872661 -21.54069,0"/><path id="path20" d="m 83.799669,51.571925 c 2.323413,0 4.720034,-0.535181 6.52328,-1.413985 v -6.809249 h 4.118952 v 9.094139 c -2.899449,1.998538 -6.88547,3.217014 -10.823327,3.217014 -7.638749,0 -13.401044,-4.960798 -13.401044,-12.400021 0,-7.308883 5.84899,-12.364474 13.401044,-12.364474 4.423346,0 7.742783,1.279696 10.642232,3.465844 l -2.25213,3.438197 c -2.11342,-1.656891 -4.762419,-2.788474 -8.272583,-2.788474 -5.57542,-0.118491 -9.039347,3.570511 -9.039347,8.248907 0,4.848233 3.504385,8.312102 9.102923,8.312102" style="fill:#000"/><path style="fill:#000" id="polyline22" d="m 100.0231,55.031845 0,-23.419629 20.81438,0 0,3.868712 -16.58562,0 0,5.689514 12.89436,0 0,3.868712 -12.89436,0 0,6.123979 17.31193,0 0,3.868712 -21.54069,0"/><path id="path24" d="m 129.8749,55.031845 h -4.14592 V 31.612216 h 4.32509 l 14.90182,17.651121 0.10211,-0.0316 c -0.25045,-4.437466 -0.2832,-8.0297 -0.2832,-11.503444 v -6.11608 h 4.14207 v 23.419629 h -4.29042 l -14.84787,-17.647171 -0.0674,0.03555 c 0.16375,3.467819 0.16375,9.524654 0.16375,11.495544 v 6.11608" style="fill:#000"/><path style="fill:#000" id="polyline26" d="m 154.88338,55.031845 0,-23.419629 20.80668,0 0,3.868712 -16.57792,0 0,5.689514 12.89051,0 0,3.868712 -12.89051,0 0,6.123979 17.31771,0 0,3.868712 -21.54647,0"/><path id="path28" d="m 191.96936,46.415618 h -6.82767 v 8.616227 h -4.2384 V 31.612216 h 14.68605 c 4.87223,0 7.89498,3.064952 7.89498,7.46687 0,4.180737 -2.96881,6.676935 -6.55411,7.210142 l 6.8007,8.742617 h -5.30763 l -6.45392,-8.616227 m 3.16724,-3.902285 c 2.649,0 4.14785,-1.406086 4.14785,-3.432272 0,-2.221695 -1.31583,-3.598158 -3.69511,-3.598158 h -10.44765 v 7.032405 h 9.99491 z" style="fill:#000"/><path id="path30" d="m 212.41385,49.34628 -2.6201,5.685565 h -4.58518 l 11.13351,-23.419629 h 4.45224 l 11.14699,23.419629 h -4.56784 l -2.62973,-5.685565 h -12.32989 m 1.76472,-3.803542 h 8.80238 l -4.38674,-9.491081 -4.41564,9.491081 z" style="fill:#000"/><path style="fill:#000" id="polyline32" d="m 235.05846,55.031845 0,-23.419629 4.23261,0 0,19.550917 15.25824,0 0,3.868712 -19.49085,0"/><path style="fill:#000" id="polyline34" d="m 257.41215,55.031845 0,-23.419629 20.82402,0 0,3.868712 -16.58369,0 0,5.689514 12.89051,0 0,3.868712 -12.89051,0 0,6.123979 17.31,0 0,3.868712 -21.55033,0"/><path style="fill:#ed1a3a;fill-rule:evenodd" id="rect36" d="m -0.294,-0.31700003 54.611758,0 0,28.55026403 -54.611758,0 z"/><path style="fill:#000;fill-rule:evenodd" id="rect38" d="m -0.294,27.674385 54.611758,0 0,27.989409 -54.611758,0 z"/><path style="fill:none;stroke:#fff;stroke-width:1.72500002;stroke-miterlimit:10" id="line40" d="m 9.2481751,27.672409 35.5293339,0"/></svg>