<svg width="194" height="135" viewBox="0 0 194 135" fill="none" xmlns="http://www.w3.org/2000/svg">
<path fill-rule="evenodd" clip-rule="evenodd" d="M21.431 88C20.5617 88 20 88.5509 20 89.4037V107.306C20 108.158 20.5617 108.709 21.431 108.709C22.3003 108.709 22.862 108.158 22.862 107.306V89.4037C22.862 88.5509 22.3003 88 21.431 88Z" fill="#13110C"/>
<path fill-rule="evenodd" clip-rule="evenodd" d="M37.343 104.478C37.017 104.478 36.7453 104.604 36.1373 105.042C34.8014 106.015 33.7323 106.377 32.1927 106.377C30.8759 106.377 29.8508 106.026 29.0598 105.305C28.2656 104.581 27.9172 103.804 27.811 102.481H37.128C38.2682 102.481 38.7133 102.072 38.7133 101.022C38.7133 99.1376 38.0173 97.3934 36.7541 96.1094C35.4901 94.8237 33.7715 94.1163 31.9162 94.1163C27.8717 94.1163 24.937 97.2079 24.937 101.469C24.937 105.8 27.7782 108.709 32.0081 108.709C34.7422 108.709 38.4056 107.186 38.4056 105.63C38.4056 105.016 37.9095 104.478 37.343 104.478ZM31.7948 96.4483C34.1965 96.4483 35.6627 97.8857 35.8409 100.4H27.8134C28.0674 97.7781 29.405 96.4483 31.7948 96.4483Z" fill="#13110C"/>
<path fill-rule="evenodd" clip-rule="evenodd" d="M47.6449 94.1164C45.8376 94.1164 44.6223 94.6223 43.7714 95.7458V95.5201C43.7714 94.6673 43.2097 94.1164 42.3412 94.1164C41.4719 94.1164 40.9102 94.6673 40.9102 95.5201V112.78C40.9102 113.632 41.4719 114.183 42.3412 114.183C43.2097 114.183 43.7714 113.632 43.7714 112.78V107.04C44.7629 108.133 46.1356 108.709 47.768 108.709C51.5544 108.709 54.41 105.572 54.41 101.413C54.41 97.1848 51.5648 94.1164 47.6449 94.1164ZM47.5227 96.4484C49.9684 96.4484 51.5488 98.3974 51.5488 101.413C51.5488 104.429 49.9804 106.377 47.553 106.377C45.069 106.377 43.5261 104.464 43.5261 101.385C43.5261 98.3862 45.0945 96.4484 47.5227 96.4484Z" fill="#13110C"/>
<path fill-rule="evenodd" clip-rule="evenodd" d="M69.6173 101.022C69.6173 99.1379 68.9213 97.3937 67.6597 96.1096C66.3941 94.824 64.6763 94.1165 62.821 94.1165C58.7773 94.1165 55.8418 97.2082 55.8418 101.468C55.8418 105.8 58.683 108.709 62.9129 108.709C65.6471 108.709 69.3105 107.187 69.3105 105.63C69.3105 105.016 68.8143 104.478 68.2478 104.478C67.921 104.478 67.6509 104.604 67.0421 105.042C65.707 106.015 64.6379 106.377 63.0983 106.377C61.7807 106.377 60.7556 106.026 59.9638 105.305C59.1704 104.582 58.8228 103.804 58.7158 102.481H68.0345C69.173 102.481 69.6173 102.072 69.6173 101.022ZM62.6988 96.4485C65.1013 96.4485 66.5683 97.8859 66.7457 100.4H58.7182C58.9723 97.7783 60.3106 96.4485 62.6988 96.4485Z" fill="#13110C"/>
<path fill-rule="evenodd" clip-rule="evenodd" d="M77.906 94.1164C76.7243 94.1164 75.4475 94.9203 74.5543 96.1971V95.5201C74.5543 94.6673 73.9926 94.1164 73.1233 94.1164C72.254 94.1164 71.6923 94.6673 71.6923 95.5201V107.306C71.6923 108.158 72.254 108.709 73.1233 108.709C73.9926 108.709 74.5543 108.158 74.5543 107.306V100.684C74.5247 98.6287 75.6904 97.2467 77.7534 96.8925C78.4853 96.7592 79.4593 96.4661 79.4593 95.4639C79.4593 94.6834 78.8065 94.1164 77.906 94.1164Z" fill="#13110C"/>
<path fill-rule="evenodd" clip-rule="evenodd" d="M96.3321 94.1164C94.3649 94.1164 93.0522 94.7532 91.7131 96.3754C90.5841 94.7942 89.3025 94.1164 87.4712 94.1164C85.8756 94.1164 84.8114 94.5412 83.7823 95.6141V95.5201C83.7823 94.6673 83.2206 94.1164 82.3513 94.1164C81.482 94.1164 80.9203 94.6673 80.9203 95.5201V107.306C80.9203 108.158 81.482 108.709 82.3513 108.709C83.2206 108.709 83.7823 108.158 83.7823 107.306V99.5136C83.7823 97.5944 84.932 96.4484 86.8592 96.4484C88.8039 96.4484 89.9649 97.5944 89.9649 99.5136V107.306C89.9649 108.158 90.5266 108.709 91.3959 108.709C92.2652 108.709 92.8269 108.158 92.8269 107.306V99.5136C92.8269 97.5944 93.9766 96.4484 95.903 96.4484C97.8486 96.4484 99.0103 97.5944 99.0103 99.5136V107.306C99.0103 108.158 99.5712 108.709 100.441 108.709C101.31 108.709 101.872 108.158 101.872 107.306V99.5698C101.872 96.2565 99.6966 94.1164 96.3321 94.1164Z" fill="#13110C"/>
<path fill-rule="evenodd" clip-rule="evenodd" d="M106.297 89.3962C105.34 89.3962 104.589 90.0989 104.589 90.9951C104.589 91.876 105.34 92.5658 106.297 92.5658C107.271 92.5658 108.034 91.876 108.034 90.9951C108.034 90.0836 107.287 89.3962 106.297 89.3962Z" fill="#13110C"/>
<path fill-rule="evenodd" clip-rule="evenodd" d="M106.297 94.1164C105.428 94.1164 104.866 94.6673 104.866 95.5201V107.306C104.866 108.158 105.428 108.709 106.297 108.709C107.166 108.709 107.728 108.158 107.728 107.306V95.5201C107.728 94.6673 107.166 94.1164 106.297 94.1164Z" fill="#13110C"/>
<path fill-rule="evenodd" clip-rule="evenodd" d="M116.468 100.102C114.141 99.341 113.276 98.7653 113.276 97.9775C113.276 97.0773 114.302 96.4485 115.77 96.4485C116.802 96.4485 117.498 96.6814 118.433 97.3407C119.04 97.7486 119.35 97.8723 119.756 97.8723C120.496 97.8723 121.033 97.4114 121.033 96.7762C121.033 95.4094 118.46 94.1165 115.74 94.1165C112.704 94.1165 110.415 95.8719 110.415 98.2007C110.415 99.9112 111.737 101.046 115.13 102.248C117.552 103.098 118.539 103.795 118.539 104.652C118.539 105.619 117.31 106.377 115.74 106.377C114.537 106.377 113.632 106.082 112.4 105.287C111.711 104.84 111.329 104.673 110.988 104.673C110.305 104.673 109.771 105.192 109.771 105.854C109.771 107.322 112.627 108.709 115.647 108.709C118.999 108.709 121.432 106.886 121.432 104.373C121.432 102.487 119.994 101.249 116.468 100.102Z" fill="#13110C"/>
<path fill-rule="evenodd" clip-rule="evenodd" d="M124 89.4037V107.306C124 108.159 124.562 108.709 125.431 108.709C126.3 108.709 126.862 108.159 126.862 107.306V89.4037C126.862 88.5517 126.3 88 125.431 88C124.562 88 124 88.5517 124 89.4037Z" fill="#13110C"/>
<path fill-rule="evenodd" clip-rule="evenodd" d="M131.287 89.3967C130.33 89.3967 129.58 90.0994 129.58 90.9955C129.58 91.8765 130.33 92.5663 131.287 92.5663C132.261 92.5663 133.024 91.8765 133.024 90.9955C133.024 90.0833 132.278 89.3967 131.287 89.3967Z" fill="#13110C"/>
<path fill-rule="evenodd" clip-rule="evenodd" d="M131.287 94.1168C130.418 94.1168 129.856 94.6677 129.856 95.5205V107.307C129.856 108.158 130.418 108.71 131.287 108.71C132.156 108.71 132.718 108.158 132.718 107.307V95.5205C132.718 94.6677 132.156 94.1168 131.287 94.1168Z" fill="#13110C"/>
<path fill-rule="evenodd" clip-rule="evenodd" d="M142.692 94.1168C141.085 94.1168 139.712 94.695 138.696 95.7936V89.4039C138.696 88.5502 138.135 88.0002 137.265 88.0002C136.396 88.0002 135.834 88.5502 135.834 89.4039V107.307C135.834 108.158 136.396 108.71 137.265 108.71C138.135 108.71 138.696 108.158 138.696 107.307V107.08C139.546 108.204 140.762 108.71 142.57 108.71C146.49 108.71 149.335 105.641 149.335 101.413C149.335 97.2527 146.479 94.1168 142.692 94.1168ZM142.447 96.448C144.893 96.448 146.474 98.3978 146.474 101.413C146.474 104.429 144.906 106.378 142.477 106.378C139.994 106.378 138.451 104.465 138.451 101.385C138.451 98.3858 140.019 96.448 142.447 96.448Z" fill="#13110C"/>
<path fill-rule="evenodd" clip-rule="evenodd" d="M157.9 94.1168C156.718 94.1168 155.441 94.9207 154.548 96.1975V95.5205C154.548 94.6677 153.986 94.1168 153.117 94.1168C152.247 94.1168 151.686 94.6677 151.686 95.5205V107.307C151.686 108.158 152.247 108.71 153.117 108.71C153.986 108.71 154.548 108.158 154.548 107.307V100.685C154.518 98.6291 155.684 97.2463 157.747 96.8929C158.479 96.7596 159.452 96.4665 159.452 95.4643C159.452 94.6838 158.8 94.1168 157.9 94.1168Z" fill="#13110C"/>
<mask id="mask0_1_2907" style="mask-type:alpha" maskUnits="userSpaceOnUse" x="159" y="94" width="15" height="15">
<path fill-rule="evenodd" clip-rule="evenodd" d="M159.443 94.1172H173.219V108.71H159.443V94.1172Z" fill="white"/>
</mask>
<g mask="url(#mask0_1_2907)">
<path fill-rule="evenodd" clip-rule="evenodd" d="M171.85 104.478C171.523 104.478 171.252 104.604 170.643 105.042C169.308 106.015 168.239 106.377 166.699 106.377C165.382 106.377 164.358 106.027 163.566 105.305C162.772 104.582 162.423 103.804 162.317 102.482H171.634C172.774 102.482 173.219 102.073 173.219 101.022C173.219 99.1385 172.524 97.3943 171.26 96.1095C169.996 94.8246 168.278 94.1172 166.422 94.1172C162.379 94.1172 159.443 97.208 159.443 101.47C159.443 105.8 162.284 108.71 166.514 108.71C169.248 108.71 172.912 107.186 172.912 105.631C172.912 105.017 172.416 104.478 171.85 104.478ZM166.301 96.4492C168.703 96.4492 170.169 97.8858 170.347 100.401H162.32C162.574 97.7782 163.911 96.4492 166.301 96.4492Z" fill="#13110C"/>
</g>
<path fill-rule="evenodd" clip-rule="evenodd" d="M113.671 54.7955C113.672 52.284 113.67 49.7725 113.661 47.2619C113.657 46.27 113.471 45.4489 112.852 44.4451C112.347 43.6562 111.366 42.7979 110.073 41.9557C110.074 41.9572 110.065 41.9297 110.05 41.8842L110.05 41.8835C109.991 41.7011 109.84 41.2312 109.82 41.165C109.651 40.5936 109.48 40.0229 109.309 39.4523L109.308 39.4513L109.308 39.4512C108.89 38.0578 108.472 36.6643 108.094 35.2601C107.757 34.012 106.929 33.5477 105.735 33.4141C102.59 33.0624 99.4416 32.9152 96.29 32.9228C93.1384 32.9152 89.9902 33.0624 86.8453 33.4141C85.6505 33.5477 84.8226 34.012 84.4861 35.2601C84.1076 36.662 83.6901 38.0533 83.2726 39.4445L83.2726 39.4447C83.1006 40.0179 82.9286 40.5911 82.7593 41.165C82.7389 41.2342 82.5748 41.7436 82.5224 41.9061C82.5121 41.9383 82.5061 41.9569 82.5065 41.9557C81.2119 42.7979 80.2318 43.6562 79.727 44.4451C79.108 45.4489 78.9219 46.27 78.9185 47.2619C78.9101 49.7725 78.9076 52.284 78.9092 54.7955C78.9092 55.6825 79.6289 56.4013 80.5168 56.4013H80.4457C80.4461 56.5915 80.4461 56.7818 80.4461 56.972V56.9722C80.4461 57.1624 80.4461 57.3526 80.4466 57.5428C80.4474 58.2692 80.7874 58.6853 81.3691 58.6887C83.0942 58.698 84.8201 58.6963 86.5451 58.6878C87.1506 58.6844 87.4635 58.2777 87.4804 57.5082C87.4855 57.2651 87.4841 57.0224 87.4826 56.7712V56.7711V56.7711C87.4819 56.6501 87.4812 56.5272 87.4812 56.4013H96.29H105.056C105.056 56.5192 105.055 56.6345 105.055 56.748V56.7483C105.054 57.0076 105.053 57.2577 105.057 57.5082C105.074 58.2777 105.388 58.6844 105.993 58.6878C107.718 58.6963 109.444 58.698 111.169 58.6887C111.75 58.6853 112.091 58.2692 112.092 57.5428V56.4013H112.063C112.949 56.4013 113.67 55.6825 113.671 54.7955ZM96.29 40.9012C92.3697 40.902 88.441 41.2276 84.492 41.8787C84.5468 41.6525 84.5981 41.4297 84.6487 41.2098C84.7596 40.7276 84.8674 40.259 85.0027 39.7985C85.1965 39.1387 85.4013 38.4822 85.606 37.8257L85.606 37.8257L85.606 37.8256C85.8177 37.1469 86.0294 36.4682 86.2289 35.7861C86.3413 35.403 86.5739 35.3083 86.924 35.2669C90.0367 34.8973 93.1621 34.7265 96.29 34.7773C99.4179 34.7265 102.543 34.8973 105.655 35.2669C106.006 35.3083 106.239 35.403 106.351 35.7861C106.552 36.4743 106.766 37.1589 106.979 37.8436C107.182 38.4941 107.385 39.1447 107.577 39.7985C107.709 40.2508 107.815 40.7108 107.924 41.184C107.977 41.4123 108.03 41.6437 108.087 41.8787C104.139 41.2276 100.209 40.902 96.29 40.9012ZM81.7415 48.0512C81.8294 47.6605 81.9605 47.2901 82.3156 47.2901C84.7857 47.2918 87.1661 47.6943 87.5162 48.2939C87.8485 48.8621 88.3922 50.1618 88.4091 50.5787C88.4193 50.8721 88.1825 51.114 87.8899 51.1072C86.5378 51.0759 82.889 50.8645 82.0603 50.4578C81.5715 50.2185 81.5563 48.8697 81.7415 48.0512ZM110.264 47.2901C110.619 47.2901 110.75 47.6605 110.838 48.0512C111.023 48.8697 111.008 50.2185 110.519 50.4578C109.691 50.8645 106.042 51.0759 104.69 51.1072C104.396 51.114 104.16 50.8721 104.171 50.5787C104.187 50.1618 104.731 48.8621 105.063 48.2939C105.414 47.6943 107.794 47.2918 110.264 47.2901Z" fill="#13110C"/>
<path fill-rule="evenodd" clip-rule="evenodd" d="M95.9996 22.246C99.3423 22.246 102.584 22.9005 105.635 24.19C108.582 25.4373 111.23 27.2224 113.504 29.4962C115.778 31.7701 117.563 34.4177 118.81 37.3655C120.1 40.4156 120.754 43.6569 120.754 47.0004V71.7541H95.9996C92.6577 71.7541 89.4156 71.1004 86.3647 69.81C83.4177 68.5636 80.7701 66.7776 78.4962 64.5046C76.2215 62.2299 74.4364 59.5823 73.19 56.6345C71.8996 53.5852 71.2459 50.344 71.2459 47.0004C71.2459 43.6569 71.8996 40.4156 73.19 37.3655C74.4364 34.4177 76.2215 31.7701 78.4962 29.4962C80.7701 27.2224 83.4177 25.4373 86.3647 24.19C89.4165 22.9005 92.6577 22.246 95.9996 22.246ZM95.9996 20C81.088 20 69 32.088 69 47.0004C69 61.912 81.088 74 95.9996 74H123V47.0004C123 32.088 110.912 20 95.9996 20Z" fill="#13110C"/>
</svg>
