<svg xmlns="http://www.w3.org/2000/svg" width="793.7" height="222.5"><defs><clipPath id="a"><path d="M0 841.9h595.3V0H0z"/></clipPath></defs><g clip-path="url(#a)" transform="matrix(1.33333 0 0 -1.33333 -23.8 674.4)"><path fill="#757a7d" d="M136 414.4l7.6 4 5.6-11.7H141s-1.6 0-2.3 1.5l-2.5 6.2m14.8-16.8H90.3v5.4H151z"/><path fill="#007b5d" d="M155.5 437.4s-9.5-5.5-11.8-6.3c-2-.8-2.8.3-3 .6a26 26 0 0 0-1.6 4l1.8.3c1.4.4 14.6 7.7 14.6 7.7z"/><path fill="#757a7d" d="M140.2 426.1l-6.2 14h-9.2L112 416s6.3.2 10.4 3.2c1 .6 3.9 8.2 6.5 13.3l4-10.3c-6.1-3.2-12-6-15.2-6.8-8.3-2.4-18.5-3.9-22.2-.7-3.4 3.1 4.5 15.9 19.6 18.7 2.4.6 3.8.5 3.8.4 0 0-1 4.4-1.8 5.3-1.1 1.4-2.2 1.7-3.9 1.5-3.2-.2-17-4-22.5-15.4-3-6.6 1-13.2 3.6-15.1 1.2-1 9-8 27.3-.8 17.9 6.9 34 17.8 34 17.8v7.4l-15.4-8.5m32.4-15.4v2.5H188v-2.5h-6v-13h-3.3v13zm18.6-8.6v11h14v-2.4h-10.7v-3.8h9.8v-2.4h-9.8V402c0-1.3.7-2 2-2h9v-2.4h-9.8c-2.9 0-4.5 1.6-4.5 4.4m27.4 11.3a12 12 0 0 0 7-2.2l-1.6-2a8.3 8.3 0 0 1-5.2 1.8c-3.6 0-6.5-2.3-6.5-5.6s2.9-5.6 6.5-5.6a9 9 0 0 1 5.5 1.9l1.5-2c-2-1.5-4.7-2.3-7.2-2.3-5 0-9.7 3-9.7 8 0 5.1 4.7 8 9.7 8m10.9-.3h3.3v-6h9.6v6h3.3v-15.4h-3.3v7h-9.6v-7h-3.3zm24.4-4.4v-11h-3.3V413h3.3l9.5-11v11h3.3v-15.5h-3.3zm20.1-3.3c0-3.1 2.6-5.6 6.4-5.6 3.8 0 6.4 2.5 6.4 5.6 0 3.1-2.6 5.6-6.4 5.6-3.8 0-6.4-2.5-6.4-5.6m-3.4 0c0 4.4 4 8 9.8 8 5.7 0 9.8-3.6 9.8-8s-4-8-9.8-8c-5.7 0-9.8 3.6-9.8 8M294 413h3.4v-13h9.9v-2.4H294zm18.2-7.7c0-3.1 2.6-5.6 6.3-5.6 3.8 0 6.4 2.5 6.4 5.6 0 3.1-2.6 5.6-6.4 5.6-3.7 0-6.3-2.5-6.3-5.6m-3.5 0c0 4.4 4 8 9.8 8 5.8 0 9.8-3.6 9.8-8s-4-8-9.8-8c-5.7 0-9.8 3.6-9.8 8m32.3 8a12 12 0 0 0 6.9-2.2l-1.6-2a8.3 8.3 0 0 1-5.1 1.8c-3.7 0-6.5-2.2-6.5-5.5s2.5-5.7 6.4-5.7a8 8 0 0 1 4.3 1.2v3h-4.6v2.3h8v-6.5a13.4 13.4 0 0 0-7.9-2.4c-5.8 0-9.7 3.5-9.7 8 0 5.1 4.7 8 9.8 8m12.3-.3h3.3v-15.4h-3.3zm7.9-11v11h14v-2.4h-10.7v-3.8h9.8v-2.4h-9.8V402c0-1.3.6-2 2-2h9v-2.4h-9.9c-2.8 0-4.4 1.6-4.4 4.4m17.4-2.2l1.5 2.2c2-1.5 4.8-2.2 7.2-2.2 2.4 0 4.4.8 4.4 1.9 0 1.2-2.2 1.7-4.8 2.2-3.5.8-7.7 1.7-7.7 4.8 0 2.8 3.6 4.6 7.7 4.6 2.8 0 5.7-.8 7.9-2.2l-1.6-2.2c-1.7 1.3-4 2-6.3 2-2.2 0-4.3-.7-4.3-1.8 0-1 2-1.5 4.5-2 3.6-.7 8-1.6 8-5 0-3-3.6-4.8-7.8-4.8-3.2 0-6.4 1-8.7 2.5m47.6 0l1.5 2.2c2-1.5 4.8-2.2 7.1-2.2 2.5 0 4.5.8 4.5 1.9 0 1.2-2.2 1.7-4.8 2.2-3.5.8-7.7 1.7-7.7 4.8 0 2.8 3.6 4.6 7.6 4.6 2.9 0 5.8-.8 8-2.2l-1.6-2.2a11 11 0 0 1-6.3 2c-2.2 0-4.3-.7-4.3-1.8 0-1 2-1.5 4.4-2 3.7-.7 8.1-1.6 8.1-5 0-3-3.6-4.8-7.8-4.8-3.2 0-6.5 1-8.7 2.5m20 2.2v11h14v-2.4h-10.7v-3.8h9.8v-2.4h-9.8V402c0-1.3.6-2 2-2h9v-2.4h-9.9c-2.8 0-4.4 1.6-4.4 4.4m26.8 3.4c2.3 0 3.8 1 3.8 2.6 0 1.7-1.4 2.6-3.9 2.6h-4.8v-5.2zm-8.2 7.7h8.4c4 0 7-1.6 7-5 0-2.7-1.9-4-4.5-4.7l5-5.8H477l-4.6 5.4H468v-5.4h-3.3zm35.8-.1l-7.7-15.4h-3.4l-7.7 15.5h3.8l5.9-12.3 5.8 12.3zm2.4 0h3.3v-15.4H503zm17 .3a12 12 0 0 0 6.8-2.2l-1.5-2a8.3 8.3 0 0 1-5.2 1.8c-3.6 0-6.5-2.3-6.5-5.6s2.9-5.6 6.5-5.6a9 9 0 0 1 5.5 1.9l1.5-2c-2-1.5-4.7-2.3-7.2-2.3-5 0-9.7 3-9.7 8 0 5.1 4.7 8 9.7 8m10.6-11.3v11h14v-2.4h-10.7v-3.8h9.8v-2.4h-9.8V402c0-1.3.6-2 2-2h9v-2.4h-9.9c-2.8 0-4.4 1.6-4.4 4.4m17.4-2.2l1.5 2.2c2-1.5 4.8-2.2 7.2-2.2 2.4 0 4.4.8 4.4 1.9 0 1.2-2.2 1.7-4.8 2.2-3.5.8-7.7 1.7-7.7 4.8 0 2.8 3.6 4.6 7.7 4.6 2.8 0 5.7-.8 7.9-2.2l-1.6-2.2c-1.7 1.3-4 2-6.3 2-2.2 0-4.3-.7-4.3-1.8 0-1 2-1.5 4.5-2 3.6-.7 8-1.6 8-5 0-3-3.6-4.8-7.8-4.8-3.2 0-6.4 1-8.7 2.5"/><path fill="#007b5d" d="M184.6 440.4c3.2 0 6.5-1 9.2-3l-2-2.6a11 11 0 0 1-7 2.4c-4.8 0-8.6-3-8.6-7.5 0-4.4 3.8-7.4 8.7-7.4 2.9 0 4.8.9 7.2 2.5l2-2.7c-2.7-2-6.2-3-9.5-3-6.7 0-13 4-13 10.7 0 6.7 6.3 10.6 13 10.6m24.8-10.6c3.1 0 5.1 1.3 5.1 3.5s-2 3.4-5.2 3.4H203v-6.9zM198.5 440h11.2c5.2 0 9.4-2 9.4-6.6 0-3.5-2.6-5.4-6.1-6.2l6.7-7.8h-5.1l-6.1 7.2H203v-7.2h-4.5zm39.7 6l-3.4-3.7H231l2.6 3.6zM224 425.3V440h18.7v-3.3h-14.3v-5h13v-3.2h-13v-3.1c0-1.8.9-2.7 2.6-2.7h12v-3.3h-13c-3.8 0-6 2.2-6 6m34-2.7c5 0 8.3 2.8 8.3 7s-3.4 7-8.4 7h-5.1v-14zm-9.7 17.3h9.3c8 0 13.3-4 13.3-10.3 0-6.2-5.3-10.3-13.3-10.3h-9.3zm27.3 0h4.4v-20.6h-4.4zm8.8-3.3v3.3h20.2v-3.3h-7.9v-17.3h-4.4v17.3zm48.1-9.1l-4 8.2-4.1-8.2zm1.6-3.2h-11.4l-2.4-5h-4.5l10.7 20.6h4.5l10.7-20.6h-5.1zm21.9 16c3.1 0 6.4-1 9.1-3l-2-2.6a11 11 0 0 1-6.9 2.4c-4.9 0-8.7-3-8.7-7.4s3.4-7.5 8.5-7.5c2.3 0 4.4.6 5.9 1.6v4h-6.2v3h10.6v-8.6c-2.5-1.8-6-3.2-10.4-3.2-7.8 0-13 4.6-13 10.7 0 6.7 6.3 10.6 13 10.6m26.8-10.6c3.1 0 5.1 1.3 5.1 3.5s-1.9 3.4-5.1 3.4h-6.4v-6.9zM371.9 440H383c5.2 0 9.4-2 9.4-6.6 0-3.5-2.6-5.4-6-6.2l6.7-7.8h-5.2l-6.1 7.2h-5.5v-7.2h-4.4zm26.1 0h4.5v-20.6H398zm22.4.4c3.2 0 6.5-1 9.2-3l-2-2.6a11 11 0 0 1-7 2.4c-4.8 0-8.6-3-8.6-7.5 0-4.4 3.8-7.4 8.7-7.4 3 0 4.9.9 7.2 2.5l2-2.7c-2.7-2-6.2-3-9.5-3-6.7 0-13 4-13 10.7 0 6.7 6.3 10.6 13 10.6m16.4-10.7c0-4.1 3.4-7.4 8.4-7.4s8.5 3.3 8.5 7.4c0 4.2-3.5 7.5-8.5 7.5s-8.4-3.3-8.4-7.5m-4.6 0c0 5.9 5.4 10.7 13 10.7s13-4.8 13-10.7c0-5.8-5.4-10.6-13-10.6s-13 4.8-13 10.6M463 440h4.4v-17.3h13v-3.3H463zm20.8-14.6V440h18.7v-3.3h-14.3v-5h13.1v-3.2h-13v-3.1c0-1.8.8-2.7 2.5-2.7H503v-3.3h-13.1c-3.8 0-6 2.2-6 6"/><path fill="#757a7d" d="M413.2 409.4c0 1-.8 1.8-1.8 1.8-1.1 0-1.9-.8-1.9-1.9 0-.8.3-1.4 1.2-2.3 1.6.5 2.5 1.3 2.5 2.4m0-8.4l-3.4 3.5c-1.5-.6-2.1-1.6-2.1-2.6 0-1.3 1-2.3 2.6-2.3 1 0 2 .5 3 1.4m1.5-1.6a7 7 0 0 0-4.8-2c-2.9 0-5 1.7-5 4.4 0 2 1.1 3.4 3.3 4.4a5 5 0 0 0-1.3 3.2c0 2.1 1.7 4 4.5 4 2.4 0 4.1-1.7 4.1-3.8 0-2-1.3-3.3-3.4-4l2.7-2.8c.6.9 1.1 2 1.6 3l2.1-1c-.6-1.3-1.3-2.5-2.1-3.6l2.5-2.5-2-1.4z"/></g></svg>