<?xml version="1.0" encoding="utf-8"?>
<!-- Generator: Adobe Illustrator 16.0.0, SVG Export Plug-In . SVG Version: 6.00 Build 0)  -->
<!DOCTYPE svg PUBLIC "-//W3C//DTD SVG 1.1//EN" "http://www.w3.org/Graphics/SVG/1.1/DTD/svg11.dtd">
<svg version="1.1" id="Logo" xmlns="http://www.w3.org/2000/svg" xmlns:xlink="http://www.w3.org/1999/xlink" x="0px" y="0px"
	 width="800px" height="600px" viewBox="0 0 800 600" enable-background="new 0 0 800 600" xml:space="preserve">
<g id="HipTest">
	<path id="Fond" fill="#F3554C" d="M224.771,244.498c0,49.978-40.51,90.492-90.489,90.492c-49.972,0-90.487-40.514-90.487-90.492
		c0-49.969,40.515-90.479,90.487-90.479C184.261,154.019,224.771,194.529,224.771,244.498z"/>
	<g>
		<defs>
			<path id="Fond_1_" d="M224.771,244.498c0,49.978-40.51,90.492-90.489,90.492c-49.972,0-90.487-40.514-90.487-90.492
				c0-49.969,40.515-90.479,90.487-90.479C184.261,154.019,224.771,194.529,224.771,244.498z"/>
		</defs>
		<clipPath id="Fond_2_">
			<use xlink:href="#Fond_1_"  overflow="visible"/>
		</clipPath>
		<g id="Flèche_ombre" opacity="0.3" clip-path="url(#Fond_2_)">
			<linearGradient id="SVGID_1_" gradientUnits="userSpaceOnUse" x1="296.2861" y1="410.6387" x2="142.9532" y2="241.3057">
				<stop  offset="0" style="stop-color:#FFFFFF"/>
				<stop  offset="0.3227" style="stop-color:#FDFDFD"/>
				<stop  offset="0.4658" style="stop-color:#F6F6F6"/>
				<stop  offset="0.5735" style="stop-color:#E9E9E9"/>
				<stop  offset="0.6635" style="stop-color:#D7D7D7"/>
				<stop  offset="0.7423" style="stop-color:#C0C0C0"/>
				<stop  offset="0.8134" style="stop-color:#A3A3A3"/>
				<stop  offset="0.8788" style="stop-color:#808080"/>
				<stop  offset="0.9393" style="stop-color:#595959"/>
				<stop  offset="0.9943" style="stop-color:#2D2D2D"/>
				<stop  offset="1" style="stop-color:#282828"/>
			</linearGradient>
			<path fill="url(#SVGID_1_)" d="M339.771,357.529L170.456,188.214l-33.314,19.677l-0.102-9.298
				c-24.079,0.38-43.515,20.134-43.409,44.283c0.043,11.78,4.676,22.843,13.039,31.135c8.37,8.301,19.46,12.84,31.245,12.795
				c24.322-0.104,44.037-19.969,43.934-44.294l19.563-0.077c0.093,22.971-12.051,43.186-30.293,54.461
				c-9.637,5.957-20.977,9.425-33.12,9.47c-15.283,0.062-29.754-5.241-41.299-15.005L251.32,445.98L339.771,357.529z"/>
		</g>
	</g>
	<path id="Flèche_1_" fill="#FFFFFF" d="M137.916,286.807c-11.784,0.045-22.875-4.495-31.245-12.795
		c-8.363-8.292-12.996-19.355-13.039-31.135c-0.106-24.148,19.33-43.903,43.409-44.283l0.102,9.298l33.606-19.85l-33.997-19.185
		l0.104,10.184c-34.834,0.482-62.94,29.015-62.795,63.917c0.072,17.01,6.768,32.973,18.84,44.947
		c12.08,11.976,28.093,18.529,45.099,18.461c12.143-0.045,23.483-3.513,33.12-9.47c18.242-11.275,30.386-31.49,30.293-54.461
		l-19.563,0.077C181.953,266.838,162.238,286.703,137.916,286.807z"/>
	<rect x="243.395" y="203.316" fill="none" width="537.586" height="130.702"/>
	<text transform="matrix(1 0 0 1 243.394 292.0317)"><tspan x="0" y="0" fill="#F3554C" font-family="'MuseoSans-300'" font-size="126.1968">HIP</tspan><tspan x="204.563" y="0" fill="#282828" font-family="'MuseoSans-300'" font-size="126.1968">TEST</tspan></text>
</g>
</svg>
