<?xml version="1.0" encoding="utf-8"?>
<!-- Generator: Adobe Illustrator 19.0.0, SVG Export Plug-In . SVG Version: 6.00 Build 0)  -->
<svg version="1.1" id="Calque_1" xmlns="http://www.w3.org/2000/svg" xmlns:xlink="http://www.w3.org/1999/xlink" x="0px" y="0px"
	 viewBox="0 0 508.7 167.8" style="enable-background:new 0 0 508.7 167.8;" xml:space="preserve">
<style type="text/css">
	.st0{fill:#1D1719;}
	.st1{fill:#225DA7;}
	.st2{fill:#E4342A;}
</style>
<polygon class="st0" points="239.1,0.1 225.1,43.4 211.2,0.1 205.2,0.1 222.8,53.7 227.5,53.7 245.1,0.1 "/>
<rect x="253.4" y="0.1" class="st0" width="5.7" height="53.6"/>
<polygon class="st0" points="274.7,0.1 274.7,53.7 307.8,53.7 307.8,48.6 280.4,48.6 280.4,0.1 "/>
<polygon class="st0" points="317.8,0.1 317.8,53.7 350.9,53.7 350.9,48.6 323.5,48.6 323.5,0.1 "/>
<polygon class="st0" points="360.9,0.1 360.9,53.7 394.2,53.7 394.2,48.6 366.6,48.6 366.6,29.2 390.1,29.2 390.1,24.1 366.6,24.1 
	366.6,5.2 394.2,5.2 394.2,0.1 "/>
<path class="st0" d="M456.7,48.7c-3.2,3.2-8,5-13.5,5h-18.4V0.1h18.4c5.6,0,10.3,1.7,13.5,5c5.6,5.6,5.3,13.8,5.3,21.2
	C462,33.7,462.3,43.1,456.7,48.7 M452.7,9.1c-2.8-2.9-6.4-3.9-10.5-3.9h-11.7v43.3h11.7c4.1,0,7.8-1.1,10.5-3.9
	c3.7-3.8,3.5-11.8,3.5-18.4C456.3,19.7,456.4,13,452.7,9.1"/>
<polygon class="st0" points="475.5,53.7 475.5,0.1 508.7,0.1 508.7,5.2 481.2,5.2 481.2,24.1 504.7,24.1 504.7,29.2 481.2,29.2 
	481.2,48.6 508.7,48.6 508.7,53.7 "/>
<polygon class="st0" points="209.2,166.7 209.2,71.9 227.7,71.9 227.7,150.2 270.7,150.2 270.7,166.7 "/>
<polygon class="st0" points="311.9,128.2 311.9,167.1 293.5,167.1 293.5,128.2 265,72.3 285.1,72.3 302.8,110.5 320.3,72.3 
	340.4,72.3 "/>
<path class="st0" d="M407.8,157.5c-6.7,6.7-14.8,10.4-25.6,10.4c-10.8,0-19-3.7-25.7-10.4c-9.6-9.6-9.3-21.4-9.3-37.8
	s-0.3-28.2,9.3-37.8c6.7-6.7,14.9-10.4,25.7-10.4c10.8,0,18.9,3.7,25.6,10.4c9.6,9.6,9.4,21.4,9.4,37.8S417.4,147.9,407.8,157.5
	 M394.1,93.1c-2.7-3.1-6.8-5.1-11.9-5.1c-5.1,0-9.3,2-12,5.1c-3.6,4-4.5,8.4-4.5,26.6c0,18.2,0.9,22.6,4.5,26.6
	c2.7,3.1,6.9,5.1,12,5.1c5.1,0,9.2-2,11.9-5.1c3.6-4,4.7-8.4,4.7-26.6C398.8,101.4,397.7,97,394.1,93.1"/>
<polygon class="st0" points="492.2,167.1 454.7,108.9 454.7,167.1 436.2,167.1 436.2,72.3 452.7,72.3 490.2,130.3 490.2,72.3 
	508.7,72.3 508.7,167.1 "/>
<path class="st1" d="M98.1,16.4c-1-0.1-1.9-0.3-2.7-0.7c-1.5-0.6-2.4-1.6-2-2.4c0.3-0.6,0.4-1.3,2.5-1.8V0H0v167h35.8
	c0.4-0.5,0.7-1,1-1.6c0.2-0.7,0.4-1.4,1-2c1.4-1.5,3.4-1.3,5.1-2.2c0.6-0.5,1.7-0.9,1.6-1.9c-0.7-0.9-1.6,0.3-2.5,0.3
	c-1.9,0.5-3.6,1.8-5.2,3.1c-1.7,0.8-4.6,0.3-6.2-1c-0.6-0.4-0.9-1.2-1.6-1.3c-1.5-0.4-2.6,0.6-3.8,1.3c-0.2,0-0.3-0.3-0.4-0.4
	c0.1-2.5,2.3-4.3,4.5-5.3c1.5-0.6,3.4-0.8,4.4-2.3c1.7-2.1,4.4-2.9,6.9-3.3c6.1-1.1,10.5,3.1,15.7,4.8c1.9,0.5,3.9,1.5,5.8,0.8
	c0.5,0,1-0.4,1.4-0.6c0.4-0.6,1.2-1.1,1.2-1.9c0.3-1.7-0.8-3.1-1.9-4.4c-0.7-0.5-1.3-1.3-2-1.8c-2.4-1.8-4.9-3.2-7.5-4.6
	c-2.5-1.3-7.4-7.1-8.3-11.1c-0.9-3.9-1.7-15.6,8.5-18.6c8.3-2.5,15-0.6,30.1,6.4c5.1,2.3,9,3.2,11.9,3.4v0c0.1,0,0.1,0,0.1,0
	c0.1,0,0.2,0,0.4,0v0c4.6,0.1,6.5-1.8,6.9-2.4c0.5-0.9,1.8-5.1-6.9-8.2v0c-0.1,0-0.3-0.1-0.4-0.1c0,0,0,0-0.1,0v0
	c-0.5-0.2-1.1-0.3-1.7-0.5c-11.1-3-14.5-12.7-15.6-14.4c-1.2-1.7-4.1-6.1-8.8-4.7c-8.4,2.6-2.3,13.8-3,14.1c-0.2,0.3-0.4,0-0.4,0
	c-10-15.3-21.7-10.9-24.3-8.9c-2.6,2-5.7,2.9-7.2,2.8c-0.4,0,0.1-0.5,0.1-0.5c2.5-1.6,1.1-4,1.1-4c-2.8-4.4-6.8-3.4-10.8,0.4
	c-4,3.7-9.8,1.3-9.8,1.3c-1.2,1.6-1.9,1.2-1.9,1.2c-0.6-0.8-0.5-4.6,2.2-7.2c0,0,0.5-0.5,0.9-2.5c0.4-2,1.3-1.8,2.9-3.2
	c0.6-0.4,1-0.7,0.7-1.7c-0.3-1-1.1-0.1-1.1-0.1c-0.7,0.7-1.4,1.5-2.3,1.9c-2.8,0.8-4-2.7-6.8-2.4c-1.3,0-2.4,0.8-3.6,1.1
	c-0.4-1.1,0.3-2.1,0.9-2.9c1-1.2,2.5-2.5,4.1-2.7c0.5-0.4,0.7-1,1.3-1.3c2.7-1.5,6.7-1.2,7.1-1.1c0.3,0.1,1.7,0.3,1.1-0.6
	c-0.3-0.5-0.7-0.3-1.4-0.3c-0.6,0.1-4.1-0.1-5.4-0.5c-1.3-0.4-2.5-0.7-3.2-0.1c-0.5,0.4-1.5,1.1-1.5,1.1s-3.1-1.5,2.4-4.5
	c0.4-0.2,0.3-0.4,0.3-0.4c3.4-4.1,12.5-4,15.6-2.2c3.5,1.8,6,8,12.7,6.9c2.5-0.5,3.7-2,4.7-4c3.8-7.3-0.1-18.2-4.7-12.7
	c-1.6,1.9-1.8,5.9-2.9,4.3c-0.5-0.7-0.8-5.5-1.1-6.7c-0.2-2.4,0.3-4.9,0.9-7.1c1.3-3.5,3.3-7,2.9-11.1c-0.2-0.8-0.5-1.8-1.4-2.1
	c-1-0.6-2-1-3.2-1.1c-2.7,0.1-5,1.9-8,1.1c-0.7-0.1-1.4-0.4-2-0.8c-0.8-0.6-1.5-1.6-2.6-1.7c-1.6-0.1-3.1,0.5-4.6,0.9
	c-0.3,0-0.4-0.3-0.5-0.5c0.3-1.6,2.2-2.1,3.3-3.1c1.7-1,3.5-1.7,5.5-2c1.7-1.7,4-1.6,6.2-1.7c1.1,0.1,2.1,0.5,3.1,0.6
	c0-0.1,0.1-0.1,0.2-0.2c0.1-0.5-0.2-1-0.6-1.3c-1.3-0.5-2.5,0.4-3.9,0.2c-1.1-0.1-2.1-0.6-2.8-1.4c-0.6-1-1-2.5-2.3-2.9
	c-1.1-0.4-2.2-0.2-3.2,0.1c-0.1-0.2-0.3-0.5-0.1-0.7c1-1,2.3-1.2,3.5-1.5c1.8-0.2,3.5-0.5,5.2-1.1c3-0.4,4.4,2.8,6.9,3.6
	c0.6,0,1.4,1.1,1.9,0.1c0.2-0.4,0.2-1-0.1-1.4c-0.6-0.7-2.1-0.2-2.8-0.7c-1-0.5-1.9-1.1-2.1-2.3c-0.1-2.4-3-2.1-4.4-3.2
	c-0.1-0.1-0.3-0.4-0.4-0.6c0.2-0.5,2.3-0.4,2.7-0.6c1.9-0.3,0.8-2.2,3.8-3c2.8-0.9,4.1-1.2,5.8-1.2c3.8,0.2,15.4,9.4,17.9,23.9
	c2.3,13.3,0.5,26.5-0.5,29.4c-0.2,0.4-0.3,0.7-0.3,0.9c0.1-0.1,0.2-0.2,0.3-0.1c0.4,0.1,0.9-0.3,0.9-0.3c6.5-5.8,12.8-6,15.1-6.2
	c2.2-0.2,17.6,0.3,15.1-4.5c-1.5-2.9-9.5-0.2-8.9-0.4c0.5-0.2,5.1-3.2,2.6-3.2c-2.5,0-8.5,3.4-8.5,3.4s2.7-8,4.7-11.2
	c0.4-0.7,1.8-2.9,2.5-3.5c0.5-0.4,2.7-1,3.2-0.5c0.3,0.2,2.4,2,8.7,2.4c2.1,0.1,3.6-3,3.6-3l0.3-0.6c0,0,0,0,0,0l0.4-0.9
	c-1.1-0.6-2.6-1.1-4.4-1.3v0c-0.6-0.1-1.3-0.1-2-0.1c-2.8,0-5.3,0.7-7.9,1.4c-2.7,0.7-5.4,1.5-8.6,1.5c-6.1,0-10-3.5-10-9.1
	c0-3.9,2.1-8.2,6.8-8.2c2,0,3.7,0.7,5.2,2.2c0.7,0.7,0.7,1.8,0.1,2.5c-0.6,0.7-1.6,0.8-2.3,0.1c-0.9-0.9-1.8-1.3-3-1.3
	c-3.4,0-3.5,4.2-3.5,4.7c0,4.6,3.6,5.5,6.7,5.5c2.7,0,5.2-0.7,7.8-1.4c2.7-0.7,5.5-1.5,8.7-1.5c0.7,0,1.4,0,2,0.1
	c2.4,0.2,4.3,0.8,5.8,1.7c0.1,0.1,0.2,0.2,0.2,0.3c0.8-0.7,1.1-4.1-5.5-4.5v0c-0.2,0-0.3,0-0.5,0c0,0,0,0,0,0c-0.2,0-0.3,0-0.5,0
	c-3.6,0-7.4,0.6-8.8,0.7c-1.5,0.1-3.9-8-4.6-9.6c-0.7-1.6,0.7-2.4,4.1-2.5c1.3,0,5.9-0.5,10.1,0.1c2.6,0.3,4.9,1.1,6.1,2.6
	c2.2,4,3.7,4.1,4.9,2.1C108.3,18.5,104.4,17,98.1,16.4"/>
<path class="st2" d="M133.8,143.4c-2.7-0.5-5.4-0.1-8.1-0.7c-5.7-0.6-10.9-2-14.2-6.8c-2-2.9-2.4-3.2-3-6.5c0-0.2-0.3-0.1-0.4-0.1
	c-1.2,0.8-2.2,1.8-3.3,2.6c-3.6,2.6-5.1,3.3-9,4c-0.2,0-0.3,0.1-0.5,0.1c0,0,0,0,0,0c-4.8,0.9-6.6-0.1-12.2-0.1
	c-5.3-0.3-8.2,2.4-7.8,7.7c0.3,3.5,0.6,5.3,8.3,5.6c7.7,0.3,8.6,2.8,9.3,3.8c0,0,0.3,0.5-0.2,0.5c-0.6,0-4.1-0.7-6.6,2.9
	c0,0-0.6,0.9,0.7,0.8c1-0.1,4.9-1.5,8.7,0.3c1,0.5,1.9,1.2,2.8,2.2c0,0,0.1,0.6-0.5,0.5c-0.3,0-0.8-0.3-2-0.1v0
	c-0.2,0-0.3,0-0.5,0.1c0,0,0,0,0,0v0c-1.2,0.2-2.8,0.9-5.2,2.4c-5.5,3.5-4.1,3.6-5.5,3.3c0,0-4.3,0.8-4.9,0.1
	c-0.1-0.1-0.3-0.2-0.4-0.1c-0.4,0.4-0.9,0.9-1.2,1.2h39.9c-0.1-0.7-0.2-1.3,0.2-1.9c1.2-1.6,3.2-3.1,5-4c0.2-0.2,0.7-0.8,0.4-1
	c-0.4-0.2-0.7-0.4-1-0.2c-2.6,1-4.1,4-6.8,4.5c-1,0-2.1-0.1-2.7-1c-0.4-0.6-0.9-1.5-1.7-1.5c-1.1,0-2.2,0.2-3.1,0.8
	c-0.3,0.2-0.6,0.3-1,0.2c-0.4-0.2-0.4-0.7-0.2-1.1c0.7-1.8,2.3-3.2,4-4.3c1.1-0.8,2.4-1.3,3.4-2.3c0.7-0.8,1.5-1.6,2.4-2.3
	c1.6-1,3.2-2,5.1-1.8c4.3-0.3,8.3,1,12.1,2.4c0.7,0.2,1.5,0.1,2.1,0.2c2-0.1,4.3-0.9,5.1-2.9c1-1.7,0.1-3.5-0.9-4.9
	C138.6,144.2,136.1,144,133.8,143.4 M95.3,0v11.7c1.2-0.3,3.3-0.6,6.9-0.6c12,0,15.7,11.6,28.1,11.1c0,0-0.5,2.5-1.2,3.1
	c0,0,4.4-0.4,6-0.2c0,0-2.8,3.6-4.1,5.1c-1.2,1.5,0.7,4.2,0.9,6.1c0.2,1.9,4.8,16.3-11.4,38c-3.7,4.9-2.8,7.6-2.8,7.6
	s-3.9-1.7-4.2-7c0,0-6,8.5,6,20.9c0.3,0.4,0.7,0.7,1.1,1l-1.4-1.4c3.4,3.5,9.8,3.4,14.9,8.1c5.9-1.8,12.6-5.8,12.6-12.1
	c0-3.8-1.1-5.9-2.4-8.4c-1.3-2.6-2.8-5.5-2.8-10.2c0-9.3,4.6-16.8,9.8-23.4c1.9-3,4.2-5.5,6.2-7.4c4.7-5.7,8.9-11.1,8.9-16.5
	c0-4.4-4.1-9.3-10.1-9.3c-0.5,0-1,0-1.5,0.1c-0.7,0.1-1.5,0.2-2.2,0.3c-0.1,0-0.2,0.1-0.3,0.1c-0.4,0.1-0.7,0.2-1,0.4
	c-4.5,8.5-0.9,17.3-0.9,17.3c-2.6-2.1-4.4-4.3-5.7-6.4c-0.6,5,0.2,9.7,0.2,9.7l0.1,0c0.3,3,0.6,5.6,0.6,6.2
	c0.2,8.4-7.5,11.6-8.8,11.4c-0.2-0.1,0.3-1.2,0.6-2.1c4.1-12.9-1.5-13.1-0.5-21.9c1.5-14.5,10.4-20.4,18.9-20.3c0.2,0,0.5,0,0.7,0
	c9,0,15,7.6,15,14.6c0,1.6-0.2,3.1-0.6,4.6c0.8-0.9,1.8-2.3,3-4.4c3.5-6.1,1.5-10.6,1.5-10.6c3.4,5.7,2.9,15.6,2,18
	c-2,5.2-7.3,7.1-7.3,7.1c10.6,0.3,14.1-7.3,14.1-7.3C178.8,50.9,169,55,169,55c5.1,3.3,10.9-2.2,10.9-2.2
	c-5.1,13.6-10.9,13.4-15.2,15.3c-4.3,1.9-12.7,2.5-13.8,17.7c0.6,2.2,1,5.5,0.2,8.9c-1.7,6.5-7.8,10.7-13.9,13
	c0.1,0.3,0.2,0.6,0.2,0.6l0.8,1.7c0.4,1.4,0.7,3.2,0.7,5.1c0.2,3.5,0,7.1-0.3,10.7c0,1.6,1.8,3.5,3,3.8c3.6,0.5,11.1-9.8,12.4-8.6
	c-0.9,5,3.5,7.1,5.3,9.1c1.6,1.7,3.5,3.5,4.2,5.7c0.5,1.9,0.7,3.9,0.3,6c-0.7,3.9-2.8,8.4,0.2,11.9c1.3,1.6,0.7,1.9,0.7,1.9
	c-3.8,2.1-9.7,2.6-9.7,2.6c-0.7-0.3-1.3,0.8-2.4,2.2c-2,2.5-4,4.8-6.8,6.6h45.6V0H95.3z"/>
</svg>
