<svg xmlns="http://www.w3.org/2000/svg" xmlns:xlink="http://www.w3.org/1999/xlink" id="Calque_1" width="364" height="182" x="0" y="0" enable-background="new 0 0 364 182" version="1.1" viewBox="0 0 364 182" xml:space="preserve"><g><g><g><path fill="#D43034" d="M90.882,53.701c-3.78,0-6.458,1.519-9.076,6.3c-1.183,2.155-36.955,65.777-38.015,68.119 c-2.306,5.102,3.607,6.975,3.598,6.98c0,0,20.244-28.613,58.328-42.389c42.229-15.273,60.27-39.004,60.27-39.004 S93.717,53.701,90.882,53.701z"/></g></g><g><g><path fill="#D43034" d="M172.963,53.703c0,0-19.313,27.798-60.58,42.726c-41.65,15.066-56.676,38.666-56.676,38.666 s68.512,0.006,71.346,0.006c3.78,0,6.459-1.518,9.076-6.299c1.183-2.156,36.637-65.951,38.016-68.119 C176.988,56.213,172.954,53.708,172.963,53.703z"/></g></g><path fill="#D43034" d="M310.066,54.444l-12.834,80.465h10.787l12.723-80.465H310.066z M213.201,53.529 c-1.941,0-4.662,0.78-6.627,4.492c0.035-0.067-41.566,74.269-41.566,74.269l-1.467,2.619h12.328c0,0,11.013-19.957,11.933-21.627 h33.355c0.555,2.396,4.998,21.627,4.998,21.627h11.641l-18.482-76.086C218.391,55.3,216.336,53.529,213.201,53.529z M193.82,102.591c2.18-4.014,14.133-26.038,17.43-32.111c0.916,4.033,6.488,28.512,7.305,32.111H193.82z M275.279,88.718h-11.324 c-6.033,0-6.033,0-8.059-1.723c-1.381-1.134-1.842-2.213-1.842-4.303c0-0.002,0.086-2.34,0.086-2.34l-0.008,0.021 c0.188-0.829,0.459-2.321,0.986-5.222c0.512-3.901,1.727-6.078,4.35-7.851c2.215-1.603,3.813-2.161,8.465-2.161h33.215 l1.844-10.695h-34.344c-7.502,0-11.078,1.135-15.941,5.051c-4.652,3.607-7.105,8.006-8.182,14.693c0,0,0.064-0.047,0.068-0.053 c-0.098,0.343-0.176,0.689-0.225,0.997l-0.857,5.155c-0.004,0.016-0.254,3.049-0.254,3.049v0.07 c0,7.348,3.502,16.107,20.188,16.107h11.322c8.881,0,8.881,3.645,8.881,5.822c0,0.842-0.09,1.568-0.305,2.426l-0.021,0.09 l-0.035,0.172l-1.031,7.227c-0.568,3.246-1.502,5.01-3.555,6.68c-2.127,1.764-3.824,2.387-9.137,2.387h-30.514l2.404,10.592h27.498 c7.203,0,10.1-0.582,15.396-4.438c4.854-3.482,7.502-8.09,8.332-14.492c0,0-0.057,0.045-0.059,0.045 c0.1-0.359,0.18-0.738,0.242-1.119l1.023-6.143c0.236-1.408,0.352-2.836,0.352-4.242C294.24,94.772,286.975,88.718,275.279,88.718z"/></g></svg>