<svg xmlns="http://www.w3.org/2000/svg" id="Calque_1" x="0" y="0" version="1.1" viewBox="0 0 713.3 580.7" xml:space="preserve" style="enable-background:new 0 0 713.3 580.7"><style type="text/css">.st0{fill:#29abe2}</style><g><path d="M11.9,504.2H35c38.8,0,40.4,31.8,40.4,37.3s-1.6,37.3-40.4,37.3H11.9V504.2z M18.9,572.5h14.3 c19.8,0,35.2-9.6,35.2-31s-15.4-31-35.2-31H18.9V572.5z" class="st0"/><path d="M113.8,504.2h7.2l31.4,74.7h-7.8l-8.1-19.8H97l-8.4,19.8h-7.3L113.8,504.2z M117.1,511.8l-17.4,40.9H134 L117.1,511.8z" class="st0"/><path d="M172.6,510.5h-25.5v-6.3h58v6.3h-25.5v68.3h-7L172.6,510.5L172.6,510.5z" class="st0"/><path d="M232.2,504.2h7.2l31.4,74.7H263l-8.1-19.8h-39.5l-8.4,19.8h-7.3L232.2,504.2z M235.5,511.8l-17.4,40.9h34.3 L235.5,511.8z" class="st0"/><path d="M346.5,573.5c-9.7,5.1-20.3,7.2-31.3,7.2c-23.3,0-40.3-15.3-40.3-39.2s17-39.2,40.3-39.2 c11.8,0,22.2,2.6,29.7,9.6l-11.6,12.7c-4.4-4.6-9.8-7.1-18.1-7.1c-14,0-23.2,10.1-23.2,24s9.2,24,23.2,24 c5.4,0.1,10.7-1.2,15.5-3.7v-12.1h-13.4v-15.2h29.2L346.5,573.5L346.5,573.5z" class="st0"/><path d="M385.6,504.2h13.6l32.5,74.7h-18.6l-6.4-15.8h-29l-6.2,15.8h-18.1L385.6,504.2z M391.9,525.9l-9.1,23.2h18.2 L391.9,525.9z" class="st0"/><path d="M439.8,504.2h16.4v59.5h30.5v15.2h-46.9L439.8,504.2L439.8,504.2z" class="st0"/><path d="M520.3,504.2h13.6l32.5,74.7h-18.6l-6.4-15.8h-29l-6.2,15.8H488L520.3,504.2z M526.7,525.9l-9.1,23.2h18.2 L526.7,525.9z" class="st0"/><path d="M592.4,539.8l-24.7-35.6h20.7l15.9,26.2l15.3-26.1h19.9l-24.2,35.3l27,39.3h-20.7l-18.2-30l-17.7,30h-19.5 L592.4,539.8z" class="st0"/><path d="M668.3,547l-28-42.8h20.5l15.8,27.9l16.8-27.9h19.5l-28,42.8v31.8h-16.4L668.3,547L668.3,547z" class="st0"/></g><path d="M713.3,279.1c0.1-70.3-46.2-132.2-113.6-152.2C573.2,50.8,501.4-0.1,420.8,0c-94.3,0-172.7,69.2-187.1,159.4	c-24.5-16-53.1-24.4-82.3-24.4C67.9,135,0,203,0,286.4s67.9,151.4,151.4,151.4h416.2c3.1,0,6.1-0.5,9.1-1.6	C653.8,425.5,713.3,359.1,713.3,279.1z M151.4,189.7c53.4,0,96.7,43.3,96.7,96.7s-43.3,96.7-96.7,96.7c-53.4,0-96.7-43.3-96.7-96.7	C54.8,233,98,189.8,151.4,189.7L151.4,189.7z M554.6,383.1c-35.4,0-68.4-18-87.5-47.8l-9.5-14.8l-17.4,2.5	c-6.4,0.9-12.9,1.4-19.3,1.4c-74.3,0-134.8-60.5-134.8-134.8S346.5,54.7,420.8,54.7c61.8-0.1,115.7,41.9,130.8,101.8l4.3,17.1	l17.3,3.1c56.5,10.2,94.1,64.2,84,120.8C648.3,347.1,605,383.2,554.6,383.1L554.6,383.1z" class="st0"/></svg>