<svg xmlns="http://www.w3.org/2000/svg" xmlns:svg="http://www.w3.org/2000/svg" id="svg2" width="652.574" height="180" version="1.1" viewBox="0 0 652.574 180" xml:space="preserve"><metadata id="metadata8"/><defs id="defs6"><clipPath id="clipPath16" clipPathUnits="userSpaceOnUse"><path id="path18" d="m 0,144 522.059,0 0,-144 L 0,0 0,144 Z"/></clipPath></defs><g id="g10" transform="matrix(1.25,0,0,-1.25,0,180)"><g id="g12"><g id="g14" clip-path="url(#clipPath16)"><g id="g20" transform="translate(449.2495,107.1226)"><path style="fill:#4cacc5;fill-opacity:1;fill-rule:nonzero;stroke:none" id="path22" d="m 0,0 c 0.793,0.653 1.406,0.804 7.828,0.829 9.863,0.037 9.283,0.566 10.656,-0.848 1.098,-1.502 0.827,-1.483 0.827,-1.483 l 2.785,-9.897 2.633,-8.937 c 0,0 1.201,-4.268 2.041,-7.321 0.839,-3.054 2.626,-9.938 2.869,-11.024 0.24,-1.086 0.216,-1.264 0.08,-1.875 -0.254,-1.139 -0.905,-2.182 -1.623,-3.102 -1.225,-1.562 -2.735,-2.968 -4.463,-3.945 -1.053,-0.596 -2.313,-1.477 -3.459,-1.094 -0.752,0.252 -1.381,1.936 -1.381,1.936 0,0 -2.18,5.984 -3.916,9.924 -1.734,3.941 -3.9,8.885 -5.818,13.233 C 7.141,-19.257 5.023,-14.426 3.43,-10.75 1.836,-7.075 -1.443,-1.127 0,0"/></g><g id="g24" transform="translate(492.6343,106.8271)"><path style="fill:#e36e25;fill-opacity:1;fill-rule:nonzero;stroke:none" id="path26" d="m 0,0 c 0.576,0.755 0.855,1.046 3.41,1.104 3.797,0.086 7.317,-0.039 10.699,-0.266 1.2,-0.081 1.75,-1.893 1.666,-3.198 -0.082,-1.262 -0.836,-3.197 -1.144,-4.3 -0.526,-1.873 -1.627,-4.62 -2.483,-6.898 -0.853,-2.278 -1.929,-4.919 -1.929,-4.919 L 5.197,-30.916 1.629,-39.794 c -1.943,-4.928 -2.402,-6.252 -3.834,-9.865 -1.533,-3.863 -3.035,0.347 -5.492,3.978 -2.248,3.266 -1.899,2.934 -2.049,3.241 -0.574,1.169 -1.137,1.707 -0.594,3.865 1.274,5.055 2.131,8.225 3.557,13.314 3.232,11.595 3.256,11.588 4.146,15.287 0.891,3.7 1.289,6.449 1.289,6.449 0,0 0.121,2.372 1.348,3.525"/></g><g id="g28" transform="translate(479.9683,59.8145)"><path style="fill:#ffcd04;fill-opacity:1;fill-rule:nonzero;stroke:none" id="path30" d="m 0,0 c -1.639,0.033 -2.018,-1.053 -3.918,-2.965 -2.461,-2.474 -3.676,-2.933 -3.027,-4.672 0.756,-2.027 3.052,-1.636 6.234,-1.81 3.734,-0.203 5.527,-0.811 6.582,1.152 0.93,1.731 0.041,1.85 -2.363,5.402 C 1.721,-0.248 1.514,-0.031 0,0"/></g><g id="g32" transform="translate(472.7397,46.3789)"><path style="fill:#78933c;fill-opacity:1;fill-rule:nonzero;stroke:none" id="path34" d="m 0,0 c 1.666,0.949 2.721,0.844 5.164,0.693 4.955,-0.304 5.774,-0.006 7.422,-1.966 0.678,-0.805 0.531,-2.346 0.271,-3.145 -0.433,-1.344 -0.343,-1.697 -1.386,-4.49 -1.043,-2.795 -2.026,-4.699 -2.983,-6.653 -0.845,-1.732 -1.093,-2.191 -2.861,-4.626 -1.766,-2.436 -2.352,-2.76 -4.035,-4.159 -1.684,-1.396 -2.385,-1.75 -4.735,-2.789 -2.347,-1.037 -4.416,-1.537 -6.566,-1.922 -2.152,-0.386 -4.281,-0.693 -6.73,-0.55 -0.491,0.029 -0.952,0.834 -1.266,1.371 -0.813,1.394 -1.203,2.191 -1.486,4.609 -0.254,2.195 -0.836,4.174 0.326,5.668 0.861,1.109 2.789,0.98 4.021,1.275 1.897,0.457 4.348,1.498 5.557,2.121 4.621,2.94 5.236,4.395 7.34,8.961 0.412,1.756 0.109,0.102 0.467,2.338 C -1.123,-1.025 -1.02,-0.58 0,0"/></g><g id="g36" transform="translate(67.0498,68.957)"><path style="fill:#17385e;fill-opacity:1;fill-rule:nonzero;stroke:none" id="path38" d="m 0,0 c 0,-17.082 -12.277,-25.623 -36.829,-25.623 -8.344,0 -16.099,1.004 -23.263,3.014 l 3.21,14.613 c 7.078,-2.445 13.762,-3.67 20.053,-3.67 6.99,0 12.015,0.678 15.072,2.033 3.058,1.354 4.588,3.625 4.588,6.815 0,3.32 -1.442,6.115 -4.326,8.388 -2.49,2.01 -7.536,4.631 -15.137,7.863 -6.902,2.971 -12.036,6.204 -15.4,9.699 -4.238,4.412 -6.357,9.851 -6.357,16.317 0,7.514 2.785,13.39 8.356,17.628 5.57,4.238 13.575,6.357 24.016,6.357 8.563,0 15.75,-0.721 21.56,-2.163 L -6.881,46.723 c -5.897,2.141 -12.276,3.211 -19.136,3.211 -10.31,0 -15.464,-2.752 -15.464,-8.257 0,-2.927 1.201,-5.308 3.604,-7.142 2.097,-1.574 6.662,-3.78 13.695,-6.619 7.471,-3.015 13.063,-6.335 16.776,-9.961 C -2.468,13.106 0,7.121 0,0"/></g><g id="g40" transform="translate(112.6934,84.0942)"><path style="fill:#17385e;fill-opacity:1;fill-rule:nonzero;stroke:none" id="path42" d="m 0,0 c 0,10.048 -4.282,15.072 -12.845,15.072 -8.169,0 -13.018,-5.199 -14.548,-15.596 L 0,0 Z m 15.334,-0.59 c 0,-2.227 -0.131,-5.134 -0.393,-8.716 l -42.202,-0.72 c 0.611,-4.937 2.73,-9.043 6.356,-12.32 3.627,-3.278 8.388,-4.914 14.286,-4.914 6.553,0 13.521,0.982 20.905,2.947 l -1.311,-12.713 c -6.029,-2.183 -13.5,-3.275 -22.412,-3.275 -11.271,0 -19.911,3.166 -25.917,9.502 -6.008,6.334 -9.011,13.957 -9.011,22.869 0,9.306 2.851,17.377 8.552,24.214 5.701,6.838 13.619,10.256 23.755,10.256 9.262,0 16.142,-2.512 20.642,-7.536 4.5,-5.025 6.75,-11.556 6.75,-19.594"/></g><g id="g44" transform="translate(228.5205,45.6934)"><path style="fill:#17385e;fill-opacity:1;fill-rule:nonzero;stroke:none" id="path46" d="m 0,0 -17.365,0 c 0.917,11.053 1.376,21.801 1.376,32.241 0,7.82 -1.006,12.931 -3.015,15.335 -2.011,2.402 -5.222,3.603 -9.633,3.603 -3.539,0 -7.274,-1.289 -11.206,-3.866 -0.176,-5.461 -0.261,-10.354 -0.261,-14.679 0,-7.297 0.129,-18.173 0.392,-32.634 l -17.562,0 c 0.961,11.971 1.441,23.613 1.441,34.927 0,5.855 -0.819,10.027 -2.457,12.517 -1.639,2.49 -5.035,3.735 -10.19,3.735 -4.762,0 -8.716,-1.595 -11.862,-4.783 0.219,-17.301 0.327,-32.767 0.327,-46.398 l -17.627,0 c 0.787,13.631 1.18,24.379 1.18,32.243 0,10.222 -1.07,20.074 -3.211,29.554 l 16.776,1.835 1.114,-6.946 1.049,0 c 5.678,5.155 12.079,7.733 19.2,7.733 8.912,0 15.181,-2.578 18.808,-7.733 l 1.048,0 c 6.466,5.155 12.866,7.733 19.201,7.733 7.426,0 13.029,-1.606 16.809,-4.817 C -1.89,56.389 0,50.568 0,42.136 0,41.306 -0.044,39.722 -0.131,37.385 -0.219,35.047 -0.262,33.463 -0.262,32.634 -0.262,25.337 -0.176,14.461 0,-0.002 L 0,0 Z"/></g><g id="g48" transform="translate(270.5601,59.3887)"><path style="fill:#17385e;fill-opacity:1;fill-rule:nonzero;stroke:none" id="path50" d="m 0,0 c -0.264,5.898 -0.395,10.988 -0.395,15.269 -14.896,0 -22.345,-3.779 -22.345,-11.337 0,-5.198 3.277,-7.797 9.83,-7.797 5.156,0 9.459,1.289 12.91,3.865 M 17.496,-13.631 2.031,-14.154 c -0.699,1.834 -1.049,3.494 -1.049,4.98 l -0.851,0 c -4.805,-4.107 -11.293,-6.16 -19.463,-6.16 -5.461,0 -9.994,1.518 -13.598,4.555 -3.605,3.035 -5.406,7.066 -5.406,12.09 0,6.64 2.806,12.079 8.42,16.317 5.615,4.238 15.455,6.488 29.521,6.749 0.088,0.788 0.131,1.53 0.131,2.229 0,4.718 -1.134,7.831 -3.406,9.338 -2.271,1.508 -6.443,2.261 -12.517,2.261 -6.598,0 -13.042,-0.873 -19.332,-2.622 l 1.441,12.059 c 5.943,2.053 14.332,3.08 25.166,3.08 7.908,0 14.012,-1.661 18.314,-4.981 4.305,-3.32 6.455,-9.131 6.455,-17.431 0,-1.835 -0.076,-5.178 -0.228,-10.026 -0.152,-4.85 -0.231,-8.083 -0.231,-9.7 0,-9.043 0.702,-16.447 2.098,-22.215"/></g><g id="g52" transform="translate(335.6655,107.9478)"><path style="fill:#17385e;fill-opacity:1;fill-rule:nonzero;stroke:none" id="path54" d="m 0,0 -3.801,-15.334 c -3.232,1.311 -6.51,1.966 -9.83,1.966 -6.422,0 -10.658,-2.884 -12.713,-8.651 0,-17.431 0.131,-30.843 0.395,-40.235 l -17.432,0 c 0.742,13.15 1.113,23.896 1.113,32.24 0,10.398 -1.091,20.249 -3.275,29.555 l 16.709,1.835 c 0.744,-4.806 1.115,-7.623 1.115,-8.453 l 1.049,0 c 4.02,6.16 9.371,9.24 16.055,9.24 C -7.471,2.163 -3.932,1.441 0,0"/></g><g id="g56" transform="translate(385.3062,59.4551)"><path style="fill:#17385e;fill-opacity:1;fill-rule:nonzero;stroke:none" id="path58" d="m 0,0 -1.113,-12.518 c -3.977,-2.095 -9.371,-3.144 -16.188,-3.144 -11.271,0 -19.931,3.144 -25.982,9.435 -6.051,6.291 -9.076,13.85 -9.076,22.675 0,9.175 3.168,17.179 9.502,24.017 6.336,6.837 15.005,10.256 26.015,10.256 5.373,0 10.158,-0.612 14.352,-1.835 L -4.719,35.517 c -4.017,1.66 -8.519,2.49 -13.5,2.49 -5.285,0 -9.457,-1.867 -12.515,-5.602 -3.059,-3.736 -4.588,-8.334 -4.588,-13.795 0,-5.942 1.814,-10.965 5.439,-15.073 3.627,-4.105 8.76,-6.158 15.401,-6.158 3.888,0 8.714,0.873 14.482,2.621"/></g><g id="g60" transform="translate(446.3491,45.6934)"><path style="fill:#17385e;fill-opacity:1;fill-rule:nonzero;stroke:none" id="path62" d="m 0,0 -17.432,0 c 0.961,11.053 1.444,21.801 1.444,32.241 0,7.776 -0.985,12.877 -2.949,15.301 -1.967,2.425 -5.2,3.637 -9.7,3.637 -4.761,0 -9.435,-1.595 -14.023,-4.783 0,-18.567 0.219,-34.033 0.654,-46.396 l -17.43,0 c 0.481,13.543 0.721,29.772 0.721,48.689 0,17.432 -0.678,31.914 -2.031,43.448 l 18.545,1.048 c -0.656,-14.067 -0.983,-26.3 -0.983,-36.697 l 0.852,0 c 5.766,5.286 12.363,7.929 19.789,7.929 7.035,0 12.551,-1.595 16.547,-4.784 C -1.998,56.444 0,50.83 0,42.792 0,41.961 -0.053,40.268 -0.164,37.712 -0.271,35.157 -0.326,33.464 -0.326,32.634 -0.326,25.337 -0.219,14.461 0,0"/></g></g></g></g></svg>