<svg xmlns="http://www.w3.org/2000/svg" xmlns:svg="http://www.w3.org/2000/svg" id="svg2" width="1329.5" height="1172.219" version="1.1" viewBox="0 0 1329.5 1172.219" xml:space="preserve"><metadata id="metadata8"/><defs id="defs6"><clipPath id="clipPath18" clipPathUnits="userSpaceOnUse"><path id="path16" d="M 0,0 H 997.125 V 879.164 H 0 Z"/></clipPath><clipPath id="clipPath28" clipPathUnits="userSpaceOnUse"><path id="path26" d="M -456.314,390.116 H 456.313 V -390.115 H -456.314 Z"/></clipPath></defs><g id="g10" transform="matrix(1.3333333,0,0,-1.3333333,0,1172.2187)"><g id="g12"><g id="g14" clip-path="url(#clipPath18)"><g id="g20" transform="matrix(1,0,0,-1,494.86572,438.76367)"><g id="g22"><g id="g24" clip-path="url(#clipPath28)"><g id="g30" transform="translate(452.7988,-13.7275)"><path id="path32" d="m 0,0 c -3.768,-5.146 -9.036,-7.942 -15.727,-6.896 -2.938,0.46 -5.852,1.077 -8.785,1.579 -11.336,1.94 -22.676,3.156 -34.245,2.151 -7.657,-0.665 -15.004,-2.066 -22.025,-5.181 -9.877,-4.385 -14.874,-12.09 -15.331,-22.749 -0.26,-6.087 1.561,-11.786 3.853,-17.353 2.187,-5.309 5.544,-9.29 10.782,-12.11 5.478,-2.949 9.06,-10.435 6.823,-17.721 -2.626,-8.551 -12.095,-13.34 -21.138,-10.613 -9.049,2.729 -12.621,10.638 -11.49,17.126 0.98,5.629 -0.31,10.368 -3.628,14.63 -4.672,6 -10.378,10.916 -16.845,14.938 -1.599,0.996 -3.211,1.988 -4.728,3.102 -4.964,3.644 -9.699,7.64 -14.875,10.946 -6.182,3.948 -12.925,7.042 -20.2,8.237 -5.922,0.972 -11.994,1.318 -18.005,1.401 -5.916,0.081 -11.839,-0.587 -17.763,-0.796 -7.049,-0.251 -14.103,-0.366 -21.153,-0.54 -6.965,-0.172 -13.93,-0.34 -20.895,-0.527 -0.504,-0.014 -1.006,-0.154 -1.508,-0.237 -4.758,-0.782 -9.527,-1.503 -14.271,-2.365 -3.484,-0.631 -7.076,-1.058 -10.366,-2.267 -5.345,-1.965 -9.083,-5.987 -11.351,-11.169 -3.14,-7.169 -6.271,-14.356 -9.01,-21.682 -3.961,-10.598 -8.909,-20.816 -11.681,-31.888 -1.129,-4.515 -2.37,-8.612 0.398,-12.874 0.677,-1.042 0.992,-2.35 1.332,-3.575 2.092,-7.528 3.939,-15.13 6.262,-22.584 2.555,-8.204 3.751,-16.6 4.621,-25.095 0.773,-7.552 1.594,-15.106 2.668,-22.621 1.209,-8.465 1.287,-16.908 0.503,-25.401 -0.069,-0.735 0.239,-1.576 0.642,-2.334 0.198,-0.831 0.587,-1.605 1.164,-2.229 1.763,-5.005 5.134,-9.87 7.484,-14.818 0.042,-0.089 0.095,-0.159 0.141,-0.242 2.784,-5.963 5.219,-11.991 6.127,-18.621 1.655,-12.064 -2.08,-21.797 -12.147,-28.705 -9.505,-6.525 -20.141,-7.804 -31.324,-5.825 -1.33,0.235 -3.077,0.546 -4.039,-0.083 -2.06,-1.35 -3.951,-3.112 -5.53,-5.021 -7.764,-9.384 -15.478,-18.811 -23.063,-28.341 -5.802,-7.289 -11.697,-14.465 -19.279,-20.01 -8.839,-6.464 -18.524,-10.705 -29.671,-8.47 -10.204,2.045 -19.182,7.087 -26.995,13.92 -4.503,3.939 -8.636,8.325 -12.735,12.697 -3.383,3.608 -6.666,7.344 -9.646,11.285 -6.395,8.456 -12.552,17.092 -18.854,25.618 -0.383,0.518 -1.17,1 -1.795,1.037 -4.571,0.268 -9.242,-0.094 -13.711,0.702 -13.968,2.487 -22.232,12.969 -23.767,26.553 -1.014,8.963 1.383,17.448 5.271,25.526 0.274,0.566 0.571,1.234 0.722,1.876 0.016,0.03 0.04,0.059 0.057,0.09 2.487,3.834 4.506,8.561 5.066,13.003 0.045,0.362 0.059,0.722 0.058,1.082 0.058,0.398 0.075,0.802 0.05,1.206 0.193,0.742 0.241,1.526 0.129,2.286 0.676,3.772 0.795,7.715 0.987,11.754 0.226,4.816 0.233,9.686 0.943,14.46 0.223,1.499 0.293,3.002 0.299,4.506 0.879,3.895 0.761,7.605 0.447,11.569 -0.372,4.681 -0.127,9.48 0.463,14.15 0.582,4.608 1.932,9.117 2.998,13.906 -6.131,0.47 -12.618,0.977 -19.107,1.462 -5.305,0.398 -10.608,0.92 -15.922,1.117 -6.995,0.257 -14.004,0.444 -20.998,0.271 -3.212,-0.079 -6.161,-1.464 -7.926,-4.544 -1.11,-1.933 -2.412,-3.758 -3.486,-5.711 -8.253,-14.996 -14.03,-30.989 -18.579,-47.423 -1.545,-5.583 -4.134,-11.014 -3.224,-17.151 0.463,-3.119 0.226,-6.335 0.431,-9.498 0.217,-3.341 0.381,-6.705 0.93,-9.998 1,-5.998 2.358,-11.936 3.399,-17.929 1.13,-6.508 1.902,-13.081 3.147,-19.565 0.991,-5.172 2.489,-10.246 3.696,-15.379 0.312,-1.32 0.172,-2.762 0.58,-4.039 3.282,-10.264 9.271,-18.456 18.784,-23.773 11.498,-6.427 12.334,-20.75 3.952,-28.124 -5.282,-4.645 -11.189,-5.644 -17.611,-3.204 -6.326,2.406 -10.442,9.02 -10.423,15.076 0.009,3.314 0.362,6.731 -0.311,9.918 -1.309,6.197 -5.93,10.015 -11.1,13.065 -3.326,1.964 -7.132,2.807 -10.83,1.428 -5.088,-1.893 -9.942,-4.519 -12.877,-9.302 -5.296,-8.63 -10.488,-17.338 -15.338,-26.223 -4.46,-8.175 -6.914,-16.892 -5,-26.376 1.512,-7.488 -3.002,-15.17 -8.787,-18.138 -2.572,-1.319 -5.546,-1.852 -8.336,-2.741 h -1.037 c -2.802,0.886 -5.826,1.362 -8.369,2.728 -11.807,6.343 -12.422,23.448 -1.258,30.952 4.403,2.959 6.717,7.623 9.693,11.787 4.489,6.283 2.887,12.835 1.369,19.395 -1.31,5.651 -3.773,10.905 -7.505,15.309 -3.916,4.617 -9.359,7.159 -15.045,8.965 -6.227,1.977 -12.656,2.643 -19.202,2.689 -4.841,0.035 -8.62,-1.972 -11.793,-5.247 -4.378,-4.517 -9.267,-7.932 -15.817,-7.735 -12.526,0.377 -20.873,12.155 -16.366,23.601 1.252,3.177 2.916,6.499 6.213,8.46 4.252,2.529 8.926,3.068 13.593,2.418 5.979,-0.833 11.829,-0.451 17.618,0.845 16.205,3.632 31.242,10.257 45.619,18.419 6.738,3.824 13.408,7.795 19.887,12.041 6.121,4.012 10.097,8.369 6.57,18.207 -1.012,2.825 -0.944,6.046 -1.311,9.093 -0.867,7.206 -1.732,14.413 -2.525,21.629 -0.3,2.728 -0.513,5.477 -0.57,8.22 -0.223,10.862 -1.037,21.766 -0.377,32.579 0.847,13.817 3.389,27.317 12.865,38.122 2.077,1.439 4.28,2.61 6.661,3.041 2.394,0.432 4.873,0.589 7.375,0.63 2.527,-0.595 5.06,-1.114 7.627,-1.448 0.142,-0.029 0.282,-0.071 0.425,-0.094 3.912,-0.609 7.992,-0.677 11.948,-0.346 6.117,0.513 12.191,1.55 18.28,2.383 5.835,0.798 11.664,1.636 17.501,2.425 5.673,0.766 11.353,1.475 17.027,2.238 6.009,0.806 12.006,1.698 18.021,2.45 5.098,0.64 10.217,1.128 15.325,1.695 1.271,0.143 2.538,0.336 4.398,0.584 -4.453,6.135 -8.879,11.767 -12.795,17.734 -5.789,8.822 -11.3,17.831 -16.768,26.857 -3.88,6.408 -7.923,12.775 -11.097,19.533 -2.692,5.737 -4.086,12.069 -6.359,18.02 -1.281,3.351 -3.274,6.423 -4.772,9.7 -1.445,3.167 -2.871,6.371 -3.947,9.677 -3.092,9.49 -5.381,19.131 -5.803,29.196 -0.193,4.634 -1.379,9.219 -1.965,13.845 -0.615,4.84 -1.428,9.698 -1.486,14.556 -0.108,9.138 0.146,18.286 0.496,27.419 0.138,3.634 1.262,7.239 1.314,10.865 0.038,2.655 -0.859,5.347 -1.55,7.967 -0.116,0.439 -1.29,0.685 -2.014,0.855 -0.907,0.214 -1.858,0.382 -2.784,0.354 -5.647,-0.168 -11.384,0.468 -15.789,-4.604 -9.058,-10.433 -20.804,-17.46 -32.32,-24.742 -2.814,-1.779 -5.906,-3.269 -8.324,-5.486 -2.811,-2.577 -5.012,-5.818 -7.5,-8.753 -3.779,-4.46 -7.49,-8.981 -11.384,-13.338 -8.153,-9.12 -16.36,-18.192 -24.631,-27.203 -5.658,-6.165 -11.461,-12.194 -17.198,-18.288 -5.438,-5.776 -10.847,-11.582 -16.318,-17.329 -4.551,-4.782 -9.297,-9.158 -16.101,-10.749 -8.11,-1.894 -15.561,-0.843 -22.471,3.795 -6.844,4.594 -12.305,10.467 -15.52,18.105 -1.205,2.862 -2.006,6.054 -2.197,9.147 -0.348,5.591 -0.088,11.22 -0.102,16.833 -0.037,15.81 1.657,31.422 5.379,46.797 1.635,6.748 2.805,13.67 5.133,20.174 4.211,11.768 9.084,23.301 13.777,34.893 4.035,9.967 8.21,19.877 12.299,29.823 0.346,0.843 0.508,1.765 0.209,3 -0.457,-0.483 -0.966,-0.925 -1.363,-1.452 -8.9,-11.842 -17.698,-23.763 -26.709,-35.52 -6.357,-8.294 -13.06,-16.323 -19.457,-24.586 -1.014,-1.309 -1.598,-3.198 -1.752,-4.876 -0.32,-3.545 -0.26,-7.003 -1.313,-10.587 -1.181,-4.022 -0.681,-8.516 -1.127,-12.782 -0.881,-8.418 -1.87,-16.613 -5.658,-24.61 -7.098,-14.994 -5.523,-30.015 3.211,-44.128 1.264,-2.044 3.604,-3.399 5.049,-5.363 3.461,-4.7 3.986,-9.986 1.703,-15.276 -2.299,-5.329 -6.259,-8.754 -12.33,-9.525 -10.716,-1.362 -18.092,6.923 -17.959,16.137 0.016,1.097 0.071,2.326 0.556,3.263 2.026,3.915 0.903,7.764 -0.107,11.578 -1.181,4.469 -2.607,8.855 -6.064,12.23 -2.661,2.596 -5.637,2.649 -8.446,0.141 -4.761,-4.251 -7.302,-9.869 -9.324,-15.682 -2.121,-6.096 -4.289,-12.258 -5.477,-18.573 -1.505,-7.988 -1.94,-16.136 -0.871,-24.316 1.166,-8.935 -2.757,-16.579 -10.646,-19.582 -9.07,-3.455 -19.459,2.503 -21.307,12.192 -1.091,5.725 0.022,10.805 3.793,15.318 4.498,5.383 6.471,11.922 8.091,18.557 1.005,4.121 2.112,8.299 2.366,12.5 0.295,4.876 -1.991,9.062 -5.439,12.527 -3.759,3.779 -8.408,5.467 -13.652,5.721 -2.566,0.126 -5.133,0.417 -7.693,0.353 -2.704,-0.069 -4.77,-1.676 -6.528,-3.571 -3.547,-3.827 -7.053,-7.691 -10.498,-11.609 -4.649,-5.287 -10.727,-6.95 -17.234,-5.684 -7.055,1.371 -12.061,5.754 -14.112,12.962 -0.242,0.854 -0.484,1.708 -0.726,2.561 0.007,0.361 -0.018,0.725 -0.077,1.082 v 1.941 c -0.148,1.214 0.091,2.483 0.719,3.516 0.084,0.21 0.18,0.416 0.292,0.611 1.709,6.41 6.3,10.301 12.75,12.288 2.573,0.793 5.522,0.263 8.216,0.773 10.934,2.066 19.775,8.111 27.986,15.213 5.072,4.385 9.987,8.952 15.008,13.396 1.533,1.356 3.371,2.403 4.754,3.884 4.646,4.969 9.002,10.212 13.739,15.088 8.122,8.361 16.422,16.552 24.699,24.762 3.98,3.95 8.156,7.707 12.103,11.688 4.223,4.26 8.834,8.282 12.303,13.108 9.522,13.244 18.252,27.057 27.822,40.263 9.436,13.017 19.502,25.576 29.32,38.314 7.625,9.893 15.33,19.726 22.93,29.639 7.107,9.267 14.117,18.608 21.18,27.908 2.322,3.054 4.224,6.637 7.113,9.005 5.785,4.738 12.711,7.589 20.103,8.753 11.331,1.783 21.198,-1.162 29.083,-9.9 3.494,-3.872 4.519,-8.486 4.047,-13.347 -0.408,-4.197 -1.654,-8.311 -2.492,-12.469 -1.651,-8.19 -3.028,-16.444 -4.968,-24.562 -2.799,-11.712 -5.961,-23.337 -9.044,-34.978 -1.471,-5.55 -2.994,-11.092 -4.727,-16.563 -0.218,-0.689 -0.484,-1.364 -0.77,-2.032 -0.646,-4.349 -3.038,-8.34 -3.418,-12.654 -0.064,-0.727 -0.263,-1.361 -0.543,-1.92 -0.05,-0.583 -0.189,-1.155 -0.413,-1.687 -0.09,-0.496 -0.175,-0.993 -0.288,-1.483 -1.543,-6.702 -3.193,-13.372 -6.517,-19.524 -1.435,-2.654 -2.254,-5.647 -3.305,-8.504 -0.719,-1.955 -1.355,-3.938 -2.029,-5.909 l 0.867,-0.48 c 0.504,0.355 1.147,0.612 1.492,1.084 6.276,8.543 12.354,17.236 18.807,25.641 6.529,8.5 13.346,16.784 20.182,25.042 4.574,5.526 9.336,10.9 14.13,16.237 6.18,6.881 12.38,13.749 18.699,20.503 0.213,0.427 0.485,0.822 0.819,1.168 0.191,0.361 0.41,0.705 0.689,1.006 0.356,0.489 0.807,0.913 1.352,1.234 0.463,0.547 1.064,0.987 1.797,1.266 0.63,0.525 1.276,1.027 1.953,1.485 4.789,5.37 10.992,9.935 16.43,14.289 0.415,0.333 0.847,0.642 1.268,0.965 1.624,1.771 3.328,3.468 5.103,5.104 0.408,0.615 0.962,1.133 1.658,1.491 1.416,1.247 2.858,2.469 4.34,3.657 0.436,0.347 0.89,0.672 1.35,0.989 1.806,1.032 3.673,1.975 5.464,2.861 1.199,0.593 2.454,1.117 3.738,1.592 1.999,0.411 4.022,0.757 6.083,1.039 1.314,0.179 2.665,0.5 4.021,0.811 4.805,0.16 9.61,0.315 14.414,0.469 7.945,0.254 15.889,0.658 23.834,0.714 11.026,0.078 22.059,0.107 33.076,-0.235 11.711,-0.363 23.407,-1.204 35.113,-1.754 0.832,-0.039 1.696,0.599 2.545,0.922 -0.615,0.601 -1.125,1.512 -1.859,1.753 -5.573,1.841 -11.326,3.212 -16.757,5.393 -5.688,2.285 -11.14,5.192 -16.578,8.052 -2.103,1.107 -4.083,2.446 -6.091,3.735 -0.017,0.006 -0.035,0.015 -0.051,0.022 -0.008,-0.003 -0.017,-0.004 -0.025,-0.006 -0.556,0.44 -1.24,0.756 -2.052,0.898 -0.011,0.002 -0.02,0.009 -0.03,0.013 -0.537,0.358 -1.168,0.617 -1.908,0.728 -0.389,0.173 -0.834,0.277 -1.306,0.344 -0.489,0.333 -1.062,0.579 -1.725,0.704 -0.084,0.04 -0.16,0.088 -0.248,0.122 -0.075,0.094 -0.157,0.182 -0.231,0.28 -0.029,0.013 -0.063,0.02 -0.093,0.034 -7.458,3.343 -14.965,6.602 -22.261,10.276 -9.673,4.871 -19.261,9.931 -28.709,15.223 -7.711,4.318 -15.067,9.266 -22.767,13.606 -5.103,2.878 -10.832,4.832 -13.953,10.27 -1.159,2.018 -2.478,4.269 -2.629,6.487 -0.99,14.615 6.517,25.355 16.855,34.361 5.475,4.768 12.288,7.63 19.016,10.339 2.435,0.981 5.115,1.948 7.672,1.921 8.232,-0.087 16.457,-0.676 24.689,-1.005 9.242,-0.37 18.485,-0.737 27.729,-0.981 13.097,-0.348 26.196,-0.495 39.29,-0.891 14.618,-0.443 29.245,-0.833 43.844,-1.675 16.634,-0.96 33.24,-2.4 49.859,-3.617 6.338,-0.464 12.578,-2.213 19.047,-0.995 5.301,0.998 10.665,1.7 16.027,2.314 9.165,1.051 18.342,1.995 27.528,2.864 10.57,1.001 21.149,1.934 31.734,2.772 5.279,0.419 10.634,0.172 15.857,0.914 9.265,1.316 18.44,3.274 27.686,4.746 9.047,1.438 17.827,3.723 26.048,7.785 3.657,1.807 7.195,3.942 10.528,6.295 2.392,1.687 4.268,4.132 6.624,5.838 3.845,3.788 9.933,5.906 14.873,5.443 5.091,-0.478 8.967,-3.717 11.21,-7.952 0.785,-1.119 1.426,-2.354 1.851,-3.716 3.894,-12.514 -7.046,-27.168 -19.187,-29.56 -3.203,-0.63 -6.622,-0.061 -9.912,-0.363 -5.019,-0.459 -10.02,-1.15 -15.013,-1.859 -0.933,-0.133 -1.963,-0.629 -2.651,-1.275 -2.667,-2.511 -5.258,-5.108 -7.798,-7.749 -5.263,-5.477 -8.431,-11.893 -8.138,-19.639 0.144,-3.836 1.171,-7.751 4.246,-10.096 3.931,-2.999 8.354,-5.413 12.749,-7.734 5.931,-3.132 12.156,-5.252 19.062,-5.206 8.733,0.058 14.979,-6.181 15.37,-14.541 0.42,-8.956 -5.006,-17.127 -13.425,-20.714 -7.117,-3.033 -13.748,-2.539 -19.471,3.092 -1.314,1.294 -2.168,3.048 -3.452,4.381 -5.821,6.046 -11.779,11.898 -19.351,15.869 -9.179,4.814 -18.468,9.307 -28.989,10.073 -8.928,0.647 -13.616,-2.829 -12.47,-11.894 0.646,-5.095 3.071,-9.54 5.712,-13.832 0.697,-1.131 1.705,-2.5 2.853,-2.858 8.518,-2.667 11.416,-10.154 9.629,-17.835 -2.089,-8.977 -10.594,-16.834 -20.415,-16.946 -7.561,-0.087 -14.121,5.085 -14.416,12.882 -0.132,3.473 0.589,7.02 0.146,10.432 -1.649,12.65 -8.466,22.15 -19.176,28.68 -5.473,3.338 -11.544,5.685 -17.279,8.606 -4.289,2.185 -8.764,4.176 -12.621,6.985 -3.366,2.451 -6.867,4.151 -10.77,5.36 -2.19,0.679 -4.26,1.761 -6.359,2.717 -1.542,0.703 -2.971,1.776 -4.577,2.198 -5.296,1.39 -10.6,2.886 -15.994,3.735 -7.928,1.248 -15.915,2.344 -23.918,2.841 -15.197,0.945 -30.424,1.426 -45.639,2.072 -0.801,0.036 -1.609,-0.171 -2.414,-0.266 0.717,-1.02 1.431,-1.481 2.211,-1.75 6.339,-2.191 12.689,-4.345 19.038,-6.511 14.888,-5.08 29.792,-10.114 44.646,-15.293 0.516,-0.18 1.013,-0.414 1.504,-0.67 2.73,-1.817 5.953,-2.922 9.085,-3.774 0.079,-0.022 0.156,-0.033 0.234,-0.051 4.26,-1.826 8.373,-4.095 12.455,-6.395 0.915,-0.472 1.82,-0.965 2.72,-1.474 3.521,-1.857 7.066,-3.602 10.33,-5.947 1.97,-2.257 4.616,-3.971 6.984,-5.726 2.314,-1.715 4.431,-3.663 6.656,-5.478 0.111,-0.168 0.216,-0.339 0.331,-0.502 0.103,-0.092 0.202,-0.188 0.307,-0.276 2.691,-2.284 5.564,-4.374 8.108,-6.81 4.922,-4.714 9.77,-9.516 14.444,-14.475 2.196,-2.329 3.97,-4.843 4.769,-8.315 2.015,-8.758 1.645,-17.224 -0.707,-25.832 -2.595,-9.507 -8.278,-16.626 -16.089,-22.245 -6.728,-4.841 -14.503,-6.321 -22.583,-6.811 -10.924,-0.662 -21.845,-1.384 -32.762,-2.16 -7.004,-0.499 -13.99,-1.277 -20.997,-1.692 -13.674,-0.806 -27.353,-1.544 -41.038,-2.114 -7.585,-0.315 -15.186,-0.208 -22.78,-0.343 -3.129,-0.054 -6.399,0.304 -9.354,-0.479 -7.154,-1.894 -14.13,-4.445 -21.233,-6.546 -7.072,-2.091 -14.209,-3.956 -21.563,-5.987 1.683,-1.592 3.458,-3.092 5.133,-4.667 0.297,-0.173 0.584,-0.408 0.864,-0.674 0.349,-0.203 0.691,-0.453 1.02,-0.765 3.281,-3.108 7.11,-5.648 11.008,-7.912 0.265,-0.153 0.5,-0.322 0.75,-0.483 0.615,-0.324 1.227,-0.648 1.843,-0.966 0.784,-0.763 1.746,-1.4 2.76,-1.916 0.391,-0.392 0.865,-0.715 1.417,-0.945 3.057,-2.58 6.077,-5.209 9.086,-7.847 5.489,-4.813 10.748,-9.912 16.468,-14.428 8.342,-6.586 16.245,-13.494 22.989,-21.812 11.471,-14.149 23.1,-28.192 35.177,-41.826 7.063,-7.973 12.778,-16.675 17.271,-26.194 5.364,-11.363 9.702,-23.183 12.345,-35.465 1.97,-9.157 3.034,-18.523 4.238,-27.83 1.095,-8.462 1.646,-16.973 0.564,-25.504 -0.087,-0.702 0.104,-1.438 0.164,-2.158 0.973,0.496 1.435,1.139 1.759,1.845 2.868,6.231 5.593,12.531 8.594,18.697 4.015,8.25 8.051,16.501 12.442,24.553 2.74,5.02 5.336,10.014 6.067,15.738 0.304,2.383 0.217,4.799 -1.869,6.613 -1.01,0.88 -2.04,1.799 -2.813,2.877 -3.767,5.266 -1.783,13.574 5.424,15.577 10.378,2.886 20.923,3.594 31.613,3.177 10.392,-0.405 20.803,-0.475 31.17,-1.192 6.681,-0.462 13.363,-1.512 19.929,-2.864 8.273,-1.703 16.39,-4.162 24.646,-5.959 7.332,-1.597 14.74,-2.815 22.328,-2.524 5.103,0.194 9.368,1.992 13.109,5.409 4.047,3.698 8.347,7.121 12.313,10.898 3.864,3.676 7.72,7.424 11.081,11.546 4.033,4.946 7.694,10.218 11.226,15.541 3.033,4.571 6.014,9.242 8.38,14.175 3.456,7.203 3.047,15.18 3.767,22.94 0.836,8.993 8.1,15.702 16.737,16.858 7.659,1.027 14.096,-1.677 18.896,-7.956 4.541,-5.937 5.237,-15.216 1.433,-21.687 -3.529,-6.004 -7.47,-11.772 -10.877,-17.84 -4.794,-8.538 -9.657,-16.985 -7.83,-27.63 1.361,-7.941 3.77,-15.071 9.662,-20.776 4.777,-4.626 10.235,-7.297 17.087,-6.644 4.944,0.471 9.907,0.765 14.869,1.042 7.727,0.432 15.074,2.341 22.284,5.102 3.349,1.282 6.942,1.315 10.504,0.302 C 3.336,24.811 7.024,9.598 0,0" style="fill:#da1e25;fill-opacity:1;fill-rule:nonzero;stroke:none"/></g></g></g></g></g></g></g></svg>