<svg xmlns="http://www.w3.org/2000/svg" xmlns:xlink="http://www.w3.org/1999/xlink" width="407" height="161" version="1.1" viewBox="0 0 407 161"><title>LogoIPPON-SVG</title><desc>Created with Sketch.</desc><g id="Page-1" fill="none" fill-rule="evenodd" stroke="none" stroke-width="1"><g id="Desktop-HD" fill-rule="nonzero" transform="translate(-517.000000, -46.000000)"><g id="LogoIPPON-SVG" transform="translate(517.000000, 46.000000)"><path id="Shape" fill="#F95454" d="M31.4373656,51.8882211 C31.4373656,35.5624498 31.438664,19.2366784 31.4412607,2.91090708 C31.4412607,0.855414722 31.1530215,1.08397552 33.2431452,1.08008843 C48.4600976,1.05158312 63.6770501,1.029038 78.8940025,1.01245309 C81.386882,1.01245309 83.8797616,1.04121755 86.3726412,1.16171729 C93.0348619,1.48356821 98.9305221,3.82359544 103.949779,8.19501507 C109.587582,13.1044077 113.204595,19.2219075 114.232908,26.6687915 C115.383527,35.0034864 113.51231,42.6377281 108.305307,49.334404 C104.576115,54.1318485 99.9798686,57.8494599 94.2439085,60.0394455 C91.5625049,61.0633046 88.7907344,61.7023419 85.9083424,61.8189546 C84.6619026,61.8694867 83.4154628,61.9161318 82.169023,61.9176866 C72.7168546,61.9259791 63.2646862,61.9275339 53.8125178,61.9223511 C53.3451029,61.9223511 52.877688,61.9130221 52.4102731,61.933235 C51.8337947,61.9588897 51.7262892,62.0801669 51.7052556,62.7013236 C51.6912331,63.1156873 51.6998024,63.5300509 51.6998024,63.9451919 C51.6998024,76.1765635 51.6998024,88.407935 51.6998024,100.639307 C51.6998024,101.05367 51.7083717,101.468811 51.6998024,101.883175 C51.6772107,102.705683 51.6398175,102.75777 50.7969126,102.759325 C44.6685836,102.765544 38.5402547,102.765544 32.4119257,102.759325 C32.3083154,102.759325 32.2039261,102.759325 32.1003158,102.75466 C31.5830432,102.721231 31.4677476,102.617057 31.4474929,102.101629 C31.4287963,101.635179 31.4389236,101.168728 31.4389236,100.702277 C31.4378849,84.4319618 31.4373656,68.1606097 31.4373656,51.8882211 Z M68.03907,21.1312453 L53.4004137,21.1312453 C52.9851934,21.1312453 52.5699732,21.1226937 52.1539739,21.1366872 C51.5089413,21.1592323 51.4162373,21.2455257 51.3967617,21.847247 C51.3835183,22.2608332 51.3967617,22.6759742 51.3967617,23.0911153 C51.4814158,29.0979626 51.5652908,35.1048099 51.6483868,41.1116572 C51.6663043,42.511009 51.6483868,42.440264 53.0506315,42.4394866 C61.6131535,42.4394866 70.1759352,42.4394866 78.7389765,42.4394866 C81.5200953,42.4394866 84.2014989,41.8867426 86.7863034,40.891648 C88.6473938,40.1756463 90.3004846,39.1245776 91.6668942,37.6490388 C92.8572442,36.36319 93.6627559,34.8721028 94.0039688,33.1586743 C94.2976908,31.6267345 94.2889583,30.0523112 93.978261,28.5237101 C93.697033,27.0800454 93.1112063,25.7491063 92.1086013,24.6529474 C90.4040949,22.7910321 88.3147502,21.6210184 85.7735711,21.3528093 C84.3806491,21.2012766 82.9804751,21.1257547 81.5793012,21.1265808 C77.0687472,21.1421292 72.5535191,21.1304679 68.03907,21.1304679 L68.03907,21.1312453 Z"/><path id="Shape" fill="#F95454" d="M122.173048,51.8676203 C122.173048,35.5481735 122.173048,19.2284675 122.173048,2.90850239 C122.173048,0.834431246 121.916642,1.08552756 123.976457,1.08164063 C139.19451,1.05209988 154.412563,1.02903737 169.630616,1.01245309 C171.968657,1.01245309 174.30514,1.05391379 176.640064,1.13683517 C191.820189,1.67556505 201.373427,12.8582912 204.00762,22.437266 C207.009666,33.3533481 204.776836,43.1406628 197.122088,51.5893154 C194.275133,54.7307403 190.965245,57.286792 187.116829,59.1299789 C182.965246,61.1193147 178.569728,61.9441234 173.987946,61.9285756 C169.833246,61.9138052 165.677767,61.9285756 161.522287,61.9285756 L144.541871,61.9285756 C144.126479,61.9285756 143.710307,61.9200243 143.294915,61.9340173 C142.495305,61.9604485 142.460234,62.0000953 142.437633,62.8668829 C142.426722,63.2812307 142.437633,63.6955785 142.437633,64.1107037 C142.437633,76.3374619 142.437633,88.5642201 142.437633,100.790978 C142.437633,101.307941 142.424384,101.825682 142.388534,102.34109 C142.378487,102.557 142.203742,102.728936 141.987171,102.736003 C141.729207,102.758547 141.469684,102.763989 141.207823,102.763989 C135.284785,102.763989 129.363824,102.763989 123.444942,102.763989 C123.18542,102.763989 122.925118,102.763989 122.665595,102.743 C122.353856,102.72201 122.211236,102.509783 122.197987,102.230701 C122.173048,101.764268 122.177724,101.297835 122.177724,100.831403 C122.174606,84.5083279 122.173048,68.1870671 122.173048,51.8676203 Z M158.926282,21.1281446 C153.73583,21.1281446 148.545118,21.1281446 143.354146,21.1281446 C142.157848,21.1281446 142.143819,21.1444697 142.15473,22.3393151 C142.210843,28.5521999 142.270853,34.7650846 142.33476,40.9779694 C142.349567,42.5195298 142.348788,42.4332397 143.781228,42.4324623 C152.138168,42.4324623 160.495108,42.4153598 168.852048,42.4441232 C170.720165,42.4489989 172.582964,42.2453519 174.405676,41.8369831 C176.806845,41.303695 179.065393,40.4283561 181.037141,38.90934 C185.508256,35.4647338 185.572162,30.2717821 184.15453,26.7502145 C183.828608,25.9290785 183.348805,25.1774135 182.740794,24.5354361 C180.999732,22.7054648 178.90173,21.569701 176.356382,21.3294881 C174.909134,21.1926678 173.460328,21.1141516 172.004507,21.1203707 C167.649515,21.139028 163.285171,21.1273672 158.926282,21.1281446 Z"/><path id="Shape" fill="#F95454" d="M406.533666,70.5707468 L406.533666,100.615518 C406.533666,100.926863 406.533666,101.238208 406.533666,101.549552 C406.517374,102.738111 406.515823,102.751343 405.324213,102.7529 C399.376508,102.758089 393.428802,102.758089 387.481097,102.7529 C387.22276,102.7529 386.963647,102.7529 386.705309,102.735776 C386.411286,102.715538 386.225097,102.548191 386.21346,102.250856 C386.192514,101.733246 386.190962,101.214078 386.190962,100.694133 C386.190962,81.9096642 386.190962,63.1251958 386.190962,44.3407275 C386.190962,42.3636881 386.093989,40.4029944 385.679718,38.4633164 C384.622319,33.5144911 382.059117,29.4685657 378.343094,26.1153824 C374.949799,23.0533065 371.005695,21.1891297 366.488283,20.4333402 C354.968612,18.4967757 343.375242,25.7262015 340.088229,36.9641913 C339.482548,39.058648 339.181026,41.2297838 339.19297,43.4105849 C339.204866,62.5063981 339.204866,81.6022112 339.19297,100.698024 C339.19297,103.068136 339.469927,102.746673 337.129375,102.752122 C331.543704,102.765354 325.958033,102.752122 320.372362,102.75757 C318.748638,102.75757 318.840957,102.841633 318.840957,101.253775 C318.840957,89.8377995 318.840957,78.4218243 318.840957,67.005849 C318.840957,59.4297927 318.840957,51.8537364 318.840957,44.2776801 C318.834894,41.2678734 319.10157,38.2637457 319.637691,35.3023885 C320.982131,27.9351927 324.121744,21.432757 328.961883,15.7538282 C334.134835,9.68260499 340.345015,5.07937243 347.907393,2.4228231 C352.133884,0.93848686 356.489156,0.165573446 360.966227,0.026246657 C366.229946,-0.13643099 371.388158,0.446562109 376.412159,2.07022513 C382.260046,3.96008794 387.416707,7.04629307 391.963598,11.170833 C397.346788,16.0534975 401.479409,21.804814 403.958051,28.6902038 C405.292107,32.402313 406.101611,36.2835339 406.362993,40.2208577 C406.490998,42.0889263 406.526684,43.9515465 406.525908,45.8196152 C406.528494,54.0702518 406.53108,62.320629 406.533666,70.5707468 Z"/><path id="Shape" fill="#F95454" d="M292.39564,93.7724613 C286.333289,98.3630182 279.546135,101.25199 272.031063,102.503749 C267.445568,103.266902 262.844504,103.502674 258.230983,103.017171 C246.163893,101.74835 235.682652,96.9794139 226.926615,88.579292 C219.787569,81.7365004 215.198182,73.411608 212.710026,63.8954511 C211.620874,59.7299026 210.89607,55.506187 210.871157,51.1940572 C210.826003,43.5656204 212.631395,36.344354 215.965026,29.5062158 C223.466085,14.1221498 237.642191,4.47880052 252.192766,1.56501065 C257.320891,0.538165346 262.478598,0.23336912 267.673675,0.75997634 C274.18679,1.41998038 280.383825,3.1952439 286.209504,6.19899907 C286.558282,6.37892966 286.999704,6.45803708 287.155408,6.90398576 C286.857235,6.82642947 286.547383,6.78144682 286.261665,6.67131688 C285.099332,6.23234827 283.952569,5.74994814 282.784008,5.32881748 C279.399773,4.11040814 275.883968,3.47367098 272.311331,3.24177767 C269.101858,3.03548614 265.879115,3.21778216 262.713712,3.78467171 C259.121612,4.42295999 255.658746,5.4622143 252.368712,7.01954463 C246.368644,9.86043159 241.299687,13.8615607 237.265387,19.1532265 C232.087437,25.9425042 229.402315,33.6213526 228.957779,42.0943775 C228.781055,45.4579939 229.154745,48.7960167 229.860086,52.0882812 C230.921994,57.1035575 232.925778,61.8737306 235.765954,66.1476858 C236.013523,66.5207315 236.185577,66.9914982 236.7212,67.0783613 C236.670596,67.2869877 236.753119,67.4157311 236.990569,67.4126289 C236.930622,67.6228064 237.024045,67.740692 237.249038,67.7631833 C237.172743,68.0602239 237.291078,68.2649725 237.610272,68.3495089 C237.577574,68.5317662 237.674111,68.6519784 237.86407,68.7008389 C237.855506,68.9854705 237.987855,69.1933213 238.281358,69.2863889 C238.914296,70.0379094 239.510644,70.8235546 240.185623,71.5355213 C248.097741,79.8844561 257.702366,83.1278602 269.068787,80.9818777 C285.167842,77.2956271 295.105675,62.0240177 291.837439,45.9264339 C288.956908,31.727428 276.47253,22.7006512 263.716448,22.3578524 C262.26684,22.3190743 260.814118,22.3718126 259.362954,22.3818949 C259.452484,22.3314833 259.538121,22.2477225 259.632322,22.236089 C261.373876,22.0111758 263.10453,21.7257686 264.87411,21.7381776 C267.517192,21.7560156 270.161053,21.7118085 272.77533,22.1763707 C277.709602,23.0527568 282.381512,24.6480897 286.742013,27.1485045 C291.902057,30.1080526 296.191713,34.0137875 299.64835,38.8191753 C303.810328,44.6056502 306.25333,51.093234 306.960228,58.1516321 C307.344818,61.9960975 307.245946,65.8677076 306.518806,69.7168263 C305.518406,75.0154721 303.599349,79.9178053 300.660429,84.4331326 C299.298421,86.5078481 298.542823,88.5253213 296.683931,90.1482461 C296.546481,90.2682481 294.996823,91.6819567 294.764975,91.916709 C294.533127,92.1514613 292.459091,93.7157898 292.39564,93.7724613 Z"/><path id="Shape" fill="#F95454" d="M0.0103653539,51.9030568 C0.0103653539,35.5789192 0.0103653539,19.2545224 0.0103653539,2.92986627 C0.0103653539,0.765154948 -0.255498963,1.02417359 1.90572065,1.02028442 C7.46366228,1.01095041 13.0218638,1.01095041 18.5803252,1.02028442 C18.9436471,1.02028442 19.3077487,1.02572925 19.6718503,1.02495142 C20.0359518,1.02417359 20.2659518,1.16029449 20.2659518,1.56010104 C20.2659518,2.02680129 20.2737484,2.49350153 20.2737484,2.96020178 C20.2737484,34.5724024 20.2737484,66.184603 20.2737484,97.7968036 C20.2737484,99.1969043 20.2823246,100.597005 20.2659518,101.997106 C20.2589348,102.619373 20.1396467,102.731381 19.5580198,102.756272 C19.2461555,102.769495 18.9342912,102.761716 18.6224269,102.761716 L1.63595803,102.761716 C1.27263612,102.761716 0.908534543,102.766383 0.544432971,102.750049 C0.253619509,102.736826 0.0485687309,102.583592 0.0345348373,102.283349 C0.0103653539,101.766089 0.00646705015,101.248052 0.00646705015,100.727681 C0.0085461455,84.4502136 0.00984558009,68.1753388 0.0103653539,51.9030568 Z"/><path id="Shape" fill="#F95454" d="M289.198872,90.6635139 C289.026823,90.1457716 295.196417,90.3792404 295.457591,90.0971173 C297.150533,88.2885345 298.683531,86.336595 300.039372,84.2632161 C302.964985,79.7507978 304.874577,74.8516229 305.871223,69.5563906 C306.59507,65.7097516 306.69427,61.8398607 306.310646,57.9986472 C305.606949,50.9455715 303.175784,44.4613922 299.031876,38.6786451 C295.591665,33.8732529 291.320658,29.9731345 286.183979,27.0154931 C281.843996,24.515914 277.203562,23.1277757 272.290082,22.2519542 C269.686868,21.7869163 267.017521,21.845732 264.387182,21.8271304 C263.212803,21.8188631 261.541583,22.003126 259.373521,22.379919 C259.373521,22.379919 257.412996,22.5247765 256.657374,22.6751388 C249.848252,24.0268491 244.073751,27.2294105 239.585744,32.5385939 C233.364845,39.901695 231.310328,48.3878627 233.123046,57.8281333 C233.642293,60.5300038 234.618014,63.0729864 235.881259,65.5128856 C235.972465,65.6890653 236.404808,66.461301 236.92518,67.2373632 C237.276755,67.7616876 237.580423,68.3080713 237.848187,68.6647842 C238.115952,69.0214971 238.155764,69.1584375 238.302929,69.3212312 C238.450095,69.484025 238.553054,69.8965192 238.523058,70.011436 C237.98986,69.9223037 235.678985,66.3553793 235.432536,65.9848991 C232.605221,61.7136974 230.61051,56.9465974 229.55341,51.9345522 C228.850488,48.6444086 228.479265,45.3093114 228.655189,41.9470869 C229.097712,33.4795207 231.770676,25.8056193 236.92518,19.0207155 C240.941989,13.7332339 245.987993,9.73468246 251.960119,6.89485065 C255.235255,5.33774855 258.682441,4.29993883 262.258276,3.66206176 C265.409347,3.09553743 268.617497,2.91335885 271.812437,3.11951748 C275.368898,3.35203646 278.992888,3.89015736 282.361799,5.10778176 C283.524294,5.52864111 284.699197,6.01046507 285.856267,6.44915088 C286.140691,6.55688467 286.725372,6.41900635 286.758896,6.44915088 C286.792419,6.47929541 288.02671,7.30272555 288.02671,7.30272555 C288.02671,7.30272555 289.428115,8.19928213 289.642014,8.33569327 C301.886964,16.1379968 309.559433,27.1312359 312.65942,41.3154104 C313.453792,44.9628581 313.84594,48.6622351 313.759141,52.3864141 C313.461542,65.1098527 309.159535,76.2932406 300.715944,85.853646 C299.2078,87.5587851 297.789345,89.1784927 296.066527,90.6635139 C295.801478,90.8867321 289.948893,90.3625402 289.198872,90.6635139 Z"/><path id="Shape" fill="#100F12" d="M0.188465985,123.585573 C0.383062238,123.551116 0.579626269,123.528974 0.776993739,123.519278 C3.83158495,123.537996 6.88773105,123.533316 9.94154481,123.597272 C11.6519293,123.633929 13.3553168,123.847633 14.9949535,124.330416 C19.2483688,125.578322 22.2252152,128.290178 23.7544545,132.465983 C25.2152783,136.457722 25.1904,140.499378 23.7326859,144.503596 C23.1085118,146.217157 22.1279358,147.777817 20.8561302,149.081851 C18.8985174,151.104239 16.4635519,152.15248 13.7323788,152.54479 C12.2482315,152.758494 10.7539774,152.898104 9.24495186,152.878605 C6.6560517,152.845068 4.06637409,152.870026 1.47747393,152.870026 C1.16649493,152.870026 0.855515936,152.870026 0.544536938,152.864566 C0.246774547,152.864566 0.0562999105,152.724177 0.0391960656,152.41532 C0.0189824307,152.052647 0.0119854032,151.689195 0.0119854032,151.323402 C0.0119854032,142.543864 0.0132811491,133.764325 0.0158726407,124.984787 C0.0220922207,124.531641 -0.0859729812,124.054317 0.188465985,123.585573 Z M2.93441054,138.163454 C2.93441054,141.751184 2.93441054,145.338913 2.93441054,148.926643 C2.93441054,149.981903 2.94995949,149.992823 3.93576291,149.999842 C5.12758992,150.007641 6.32252672,150.049758 7.51202139,149.978784 C9.47429887,149.861012 11.4459057,149.88831 13.3918568,149.510819 C17.1096107,148.788073 19.6355376,146.658054 20.9696375,143.12076 C21.7805153,140.974362 21.8504855,138.738271 21.5690496,136.509199 C21.0193942,132.150107 18.3099897,128.030458 12.7061481,126.983776 C10.9669981,126.659321 9.20763438,126.580547 7.45293538,126.479154 C6.16159509,126.40116 4.86325777,126.435478 3.5656979,126.438598 C3.0401434,126.438598 2.95928886,126.54233 2.93829778,127.094528 C2.92508117,127.457981 2.93285564,127.822213 2.93285564,128.186446 C2.93389224,131.510555 2.93441054,134.836225 2.93441054,138.163454 Z"/><path id="Shape" fill="#100F12" d="M253.958176,138.118013 C253.958176,133.802412 253.958176,129.489411 253.958176,125.179009 C253.958176,124.763308 253.958176,124.347606 253.977602,123.931125 C253.986926,123.693247 254.133006,123.563779 254.366114,123.541161 C254.521518,123.527902 254.676923,123.518543 254.832328,123.519323 C257.886809,123.542721 260.94129,123.543501 263.994217,123.605895 C265.339287,123.644578 266.677181,123.817534 267.98812,124.122207 C273.079958,125.260902 276.41883,128.345516 277.966662,133.319896 C279.248751,137.440255 279.066928,141.534097 277.249469,145.468053 C275.306909,149.667184 271.965706,151.990589 267.402244,152.591134 C265.759073,152.800865 264.103462,152.896763 262.447163,152.878147 C259.858896,152.860209 257.269852,152.878147 254.681585,152.868008 C254.033547,152.868008 253.966723,152.799375 253.963615,152.143455 C253.952737,149.803672 253.958176,147.463888 253.958176,145.128004 C253.958176,142.79212 253.958176,140.456236 253.958176,138.118013 Z M256.85259,138.095395 C256.85259,139.704126 256.85259,141.312597 256.85259,142.920808 C256.85259,144.840991 256.858029,146.760393 256.85259,148.680576 C256.847928,150.03453 256.819178,150.019712 258.243463,150.006453 C259.175892,149.998654 260.108321,150.03843 261.034533,149.990854 C263.096755,149.885564 265.166746,149.905842 267.211096,149.522898 C271.317409,148.760648 273.95929,146.373809 275.136741,142.36238 C275.731164,140.343147 275.782448,138.294276 275.472415,136.20095 C274.745898,131.310022 271.396147,127.817505 266.524207,126.968164 C263.556753,126.450292 260.561325,126.413635 257.56279,126.429234 C257.510729,126.429234 257.459446,126.429234 257.407385,126.429234 C257.018873,126.439373 256.868131,126.672571 256.863469,127.031338 C256.858806,127.390105 256.858029,127.757451 256.858029,128.123237 C256.853885,131.449889 256.852072,134.773682 256.85259,138.094615 L256.85259,138.095395 Z"/><path id="Shape" fill="#151417" d="M377.782207,133.759089 C378.175466,133.347503 378.508343,132.988329 378.853606,132.639174 C379.661025,131.825251 380.572179,131.166251 381.691573,130.844073 C382.602727,130.581244 383.54949,130.467942 384.421937,130.868737 C385.168974,131.211726 385.912915,131.156231 386.679306,131.171646 C389.01641,131.217121 388.400975,130.770851 389.360899,132.871944 C391.363578,137.2568 393.322132,141.658613 395.321715,146.051948 C395.50441,146.452744 395.563244,146.95528 396.074171,147.217338 C396.312604,146.703241 396.558004,146.198393 396.783276,145.684296 C398.741056,141.223905 400.71277,136.76968 402.636488,132.294644 C402.980202,131.495366 403.36572,131.014411 404.319451,131.154689 C404.867536,131.231766 405.437297,131.169334 405.959836,131.169334 C406.178915,131.785942 405.80501,132.15822 405.628508,132.556703 C403.369075,137.724395 401.095965,142.886435 398.809179,148.042823 C397.195888,151.702393 395.584404,155.362992 393.974725,159.024618 C393.829962,159.352962 393.681329,159.679765 393.53347,160.007338 C393.3949,160.315642 393.175047,160.479814 392.816624,160.473648 C392.046362,160.460545 391.276101,160.469794 390.537579,160.469794 C390.299147,160.007338 390.578608,159.714449 390.709437,159.415394 C391.797866,156.925837 392.885521,154.434739 394.02427,151.967535 C394.333922,151.302369 394.333922,150.759753 394.029689,150.086879 C391.38448,144.248369 388.776429,138.392901 386.155992,132.542829 C386.072386,132.355534 385.977942,132.172864 385.882724,131.990965 C385.84034,131.901971 385.755047,131.840866 385.656829,131.829131 C385.558611,131.817396 385.461219,131.856675 385.398891,131.933158 C385.244065,132.138951 385.072208,132.338578 384.968474,132.568264 C384.549669,133.493177 383.962102,133.968736 382.928636,133.421496 C381.47172,133.335171 380.317489,133.909387 379.462073,135.060133 C378.58653,136.237855 378.101149,137.587457 377.901423,139.028779 C377.689582,140.555752 377.586108,142.095694 377.591771,143.637156 C377.60106,146.154459 377.591771,148.670992 377.5879,151.190609 C377.5879,151.549783 377.5879,151.909728 377.563128,152.269673 C377.549967,152.490881 377.438492,152.669698 377.191544,152.672781 C376.470827,152.682801 375.749336,152.686655 375.02862,152.672781 C374.79638,152.668156 374.665552,152.490111 374.641554,152.270444 C374.612911,151.96214 374.603621,151.653836 374.603621,151.345531 C374.603621,145.076679 374.602073,138.809883 374.598976,132.545141 C374.598976,131.049095 374.658585,131.162397 375.92429,131.164709 L376.233943,131.164709 C377.627381,131.164709 377.586352,131.052949 377.594093,132.488876 C377.597964,132.869632 377.477199,133.287384 377.782207,133.759089 Z"/><path id="Shape" fill="#151417" d="M186.466147,131.169707 C186.653367,131.592794 186.435202,131.857128 186.316062,132.127626 C182.290061,141.279365 178.259675,150.429049 174.224906,159.576678 C174.163015,159.716937 174.080236,159.850259 174.028403,159.9936 C173.909263,160.321898 173.691097,160.47834 173.33213,160.473716 C172.558494,160.463697 171.792595,160.473716 171.066924,160.473716 C170.75747,160.011325 171.087039,159.714625 171.211594,159.426401 C172.313252,156.886335 173.437087,154.35603 174.5831,151.835487 C174.837626,151.278307 174.861609,150.825164 174.60012,150.247946 C171.910445,144.317529 169.239596,138.378634 166.587572,132.431263 C166.465338,132.158452 166.422788,131.827072 166.022818,131.727658 C165.836372,132.009717 165.596545,132.287922 165.450328,132.609283 C165.058868,133.466247 164.570704,133.755241 163.535579,133.504009 C162.115957,133.158757 160.929199,133.863133 160.043386,134.985971 C159.157573,136.10881 158.69726,137.394256 158.460527,138.774492 C158.252421,139.990102 158.148893,141.221194 158.151073,142.454351 C158.151073,145.279558 158.134053,148.104765 158.124769,150.931514 C158.124769,151.342271 158.124769,151.753798 158.114712,152.164556 C158.106202,152.448155 157.977778,152.672415 157.668324,152.677039 C156.948069,152.688598 156.22704,152.681662 155.507559,152.662396 C155.269279,152.656231 155.153234,152.471275 155.137761,152.248556 C155.116873,151.940296 155.111457,151.632036 155.111457,151.323775 C155.111457,145.055813 155.111457,138.78785 155.111457,132.519888 C155.111457,131.132716 155.072776,131.151982 156.456037,131.165854 L156.610764,131.165854 C158.241588,131.165854 158.121675,131.044091 158.134053,132.645504 C158.134053,132.976113 157.992477,133.35142 158.380843,133.719792 C158.650842,133.418467 158.904594,133.124849 159.169951,132.842791 C159.808975,132.163847 160.518399,131.571216 161.367851,131.170478 C162.528305,130.624086 163.752971,130.376707 164.957522,130.879171 C165.714911,131.195138 166.449865,131.154294 167.213444,131.168936 C169.542088,131.212863 168.927048,130.793629 169.890998,132.895195 C171.902451,137.276346 173.849693,141.680618 175.844126,146.073329 C176.025931,146.473297 176.071575,146.994257 176.617762,147.213893 C177.994834,144.070664 179.372164,140.927178 180.749752,137.783435 C181.613645,135.811082 182.475475,133.837701 183.335243,131.863293 C183.534067,131.400902 183.787046,131.112679 184.364952,131.155065 C185.073603,131.210551 185.79231,131.169707 186.466147,131.169707 Z"/><path id="Shape" fill="#151417" d="M351.26841,142.297145 C351.193278,143.81263 351.560261,145.317158 352.324235,146.625736 C354.20263,149.92615 357.300591,151.241656 361.112992,150.559053 C363.280252,150.170769 365.021166,149.041639 366.318741,147.243107 C366.619964,146.825314 366.901878,146.388882 367.197694,145.970312 C367.363753,145.732682 367.583877,145.629399 367.859612,145.770734 C368.49527,146.099223 369.125521,146.439359 369.747276,146.768624 C369.023568,148.787701 367.267207,150.783481 365.260599,151.953769 C363.715866,152.856141 362.023612,153.281701 360.263389,153.3679 C356.878879,153.533309 353.863561,152.616182 351.422883,150.130387 C348.944359,147.605765 348.038374,144.521236 348.277035,141.061626 C348.360278,139.714922 348.699825,138.396799 349.277249,137.178785 C351.235971,133.103356 354.402673,130.765886 358.950366,130.614455 C362.907971,130.483215 366.174309,131.962578 368.518441,135.265322 C369.876261,137.178009 370.468666,139.341527 370.542813,141.666572 C370.557488,142.132513 370.407649,142.274625 369.894797,142.287827 C369.483126,142.298698 369.071455,142.291709 368.659011,142.291709 L351.26841,142.291709 L351.26841,142.297145 Z M367.277248,139.734471 C366.260041,134.911983 362.188898,133.33555 359.167401,133.408547 C355.760493,133.490864 352.396837,135.64817 351.690894,139.734471 L367.277248,139.734471 Z"/><path id="Shape" fill="#151417" d="M285.818415,142.434881 C285.8787,144.977711 286.765198,147.160054 288.685044,148.861489 C290.694543,150.639062 293.080438,151.021302 295.624774,150.57924 C297.970478,150.171361 299.786757,148.905773 301.138532,146.927758 C302.214388,145.356067 301.712013,145.414335 303.611763,146.368382 C303.703736,146.414219 303.796482,146.460057 303.884591,146.51211 C304.337501,146.777814 304.419427,146.965826 304.18988,147.372151 C302.327229,150.666254 299.651502,152.775567 295.817995,153.276675 C294.233401,153.481832 292.625041,153.399468 291.069392,153.033502 C286.771381,152.044494 283.007434,147.996787 282.859813,142.814014 C282.809575,141.035664 282.937101,139.28606 283.652792,137.645224 C285.564909,133.278207 288.818753,130.730716 293.648508,130.611072 C297.808173,130.506189 301.139305,132.185093 303.425498,135.754223 C304.567048,137.541118 305.067877,139.526903 305.151349,141.630001 C305.172217,142.163739 305.060921,142.273283 304.543089,142.292706 C304.131914,142.307468 303.719194,142.298145 303.306473,142.298145 C298.00294,142.298145 292.699406,142.299698 287.395872,142.302806 C286.886541,142.305137 286.36639,142.206469 285.818415,142.434881 Z M301.746792,139.65587 C301.887457,139.33889 301.76766,139.043664 301.669504,138.756984 C299.853998,133.642579 294.17948,132.363783 290.398529,134.210501 C288.280825,135.244569 287.002474,136.969312 286.30224,139.176516 C286.177033,139.57041 286.319244,139.76153 286.711869,139.782507 C286.866446,139.791053 287.021023,139.787945 287.1756,139.787945 C291.795389,139.787945 296.415435,139.787945 301.035739,139.787945 C301.272241,139.784837 301.535022,139.846213 301.747565,139.65587 L301.746792,139.65587 Z"/><path id="Shape" fill="#151417" d="M131.871293,142.408685 C131.692089,146.945917 135.115501,150.633486 139.565473,150.718919 C142.798095,150.781828 145.343254,149.513546 147.16001,146.807672 C148.094651,145.415902 147.817349,145.457065 149.403921,146.302845 C149.630243,146.424004 149.858883,146.542055 150.077481,146.677194 C150.154724,146.7269 150.210339,146.822429 150.332383,146.963004 C148.508674,150.445535 145.813664,152.717258 141.79857,153.267131 C140.215846,153.482898 138.607229,153.406041 137.051984,153.040348 C133.040753,152.113795 129.173193,148.541948 128.786978,143.015254 C128.643306,140.968762 128.941464,138.983626 129.831304,137.130522 C131.79096,133.058507 134.984188,130.747175 139.531486,130.612813 C143.430716,130.497091 146.657158,131.957207 148.982947,135.188102 C150.381818,137.129745 151.039157,139.328462 151.05615,141.72212 C151.05615,142.138408 150.927927,142.271993 150.515449,142.288303 C150.102971,142.304613 149.69281,142.296846 149.27956,142.296846 C143.981201,142.296846 138.682585,142.298659 133.383712,142.302283 C132.880859,142.30306 132.361014,142.201317 131.871293,142.408685 Z M147.757872,139.667861 C147.007069,135.348093 143.155731,133.349754 139.734636,133.40645 C136.352162,133.462369 132.897853,135.615263 132.242059,139.677958 C133.627027,139.830959 146.487223,139.825523 147.757872,139.667861 Z"/><path id="Shape" fill="#151417" d="M102.383943,142.283451 C102.449575,148.045235 97.7334653,153.493643 90.8202549,153.385047 C84.2789578,153.281881 79.5183123,148.163139 79.5839441,141.921206 C79.6456692,136.038415 84.3305256,130.505458 91.1882615,130.607848 C98.0897519,130.710239 102.633969,136.497621 102.383943,142.283451 Z M82.585815,142.128314 C82.5944097,146.569108 85.6525364,150.103902 90.0951804,150.57164 C93.3877063,150.917595 96.1379889,149.81845 97.9780217,146.934455 C99.3844162,144.728409 99.8133666,142.338525 99.1234519,139.815223 C97.8975447,135.331767 93.3900503,132.110349 88.0215299,134.003795 C84.9399632,135.088202 82.5319033,138.365469 82.585815,142.125987 L82.585815,142.128314 Z"/><path id="Shape" fill="#151417" d="M214.426679,142.004768 C214.219783,136.883394 218.430304,130.570136 225.868396,130.606606 C232.965306,130.640749 237.26327,136.513258 237.228917,142.119611 C237.193003,148.002984 232.668626,153.378875 225.83014,153.386634 C218.736353,153.39517 214.201045,147.664663 214.426679,142.004768 Z M234.179354,142.329122 C234.179354,140.455164 233.930299,139.265609 233.194063,137.966642 C231.595111,135.146006 229.212298,133.500183 225.899626,133.46604 C222.586954,133.431898 220.130752,134.988485 218.518527,137.811449 C217.125691,140.24643 217.007799,142.846691 218.054769,145.420569 C219.42028,148.776621 222.054491,150.507801 225.652132,150.61954 C229.216982,150.728951 231.819963,149.090112 233.372071,145.881493 C233.94201,144.698921 234.234786,143.450392 234.178573,142.329122 L234.179354,142.329122 Z"/><path id="Shape" fill="#151417" d="M75.5053688,135.655235 C74.8547174,136.274436 74.0866199,136.67382 73.2793736,137.08017 C72.9935881,136.783728 72.7461683,136.524438 72.4963996,136.26747 C70.0958012,133.811567 67.145555,133.032922 63.7936432,133.49113 C62.7587321,133.623875 61.7561567,133.938422 60.8332184,134.419931 C57.4296302,136.220256 55.8354951,139.402171 56.229331,142.844151 C56.6779751,146.760593 59.2923255,149.481204 62.7170539,150.328734 C66.482376,151.257535 69.8421176,150.47889 72.5919224,147.649145 C72.8064573,147.428555 72.9834095,147.170039 73.1916805,146.907653 C74.0670455,147.396047 74.806956,147.836453 75.5280751,148.449461 C74.0960156,150.623628 72.151891,152.017603 69.7340672,152.725813 C66.9819135,153.532322 64.1647729,153.654614 61.4134021,152.790829 C57.1767296,151.461871 54.2264834,148.74126 53.4317648,144.325587 C52.2753121,137.901384 56.1071871,132.9532 61.2074799,131.316963 C64.5562599,130.241877 67.8846825,130.373457 71.1113185,131.803036 C72.9591373,132.617284 74.473409,133.847945 75.5053688,135.655235 Z"/><path id="Shape" fill="#151417" d="M38.2656509,148.306006 C38.9633259,148.878039 39.5004249,149.449296 40.1973088,149.839707 C41.4914089,150.565421 42.8282237,150.878992 44.2757806,150.358961 C45.3040997,149.989507 46.1512765,149.377113 46.5847526,148.37198 C47.0728086,147.240331 46.9011584,146.142058 46.1560226,145.150896 C45.7423219,144.602924 45.1996858,144.188452 44.5993056,143.856253 C43.7750683,143.399868 42.9334287,142.97453 42.1068183,142.523578 C41.0927375,141.970949 40.100805,141.384945 39.2488822,140.600242 C37.4469507,138.940802 36.9968633,136.867666 37.6328391,134.635416 C38.268815,132.403166 39.9418111,131.161303 42.2689763,130.718112 C43.7355176,130.438693 45.0960629,130.704918 46.4178485,131.280056 C47.4849273,131.745755 48.4262348,132.407823 49.2734115,133.194854 C49.5898174,133.486692 49.6001006,133.667539 49.3034701,133.971019 C48.8336074,134.456122 48.3471333,134.924149 47.8361378,135.430209 C47.3733942,135.091025 46.9604845,134.791425 46.5515299,134.486392 C45.8768775,133.988218 45.1077935,133.62699 44.2892279,133.423823 C43.4139375,133.183484 42.47713,133.295209 41.6859985,133.734289 C40.1316546,134.58807 39.3525051,136.318917 40.8301206,138.024151 C41.4518581,138.741327 42.2096502,139.300166 43.0291415,139.775179 C43.7537109,140.195084 44.509921,140.56221 45.2305354,140.987548 C45.91228,141.376817 46.5723952,141.801464 47.2080721,142.259682 C49.3153353,143.82443 50.048606,145.92318 49.5020148,148.426311 C48.9839002,150.816899 47.413736,152.409589 45.0834066,153.042163 C41.9628536,153.889735 39.1405132,153.181873 36.8513166,150.823108 C36.3972742,150.357409 36.3854089,150.229342 36.7809163,149.782271 C37.2278396,149.280869 37.62572,148.727463 38.2656509,148.306006 Z"/><path id="Shape" fill="#151417" d="M105.435165,131.166428 L108.261581,131.166428 C108.853753,131.780508 109.058915,132.602922 109.404737,133.346529 C111.262851,137.339218 113.099983,141.34127 114.954988,145.33552 C115.14383,145.742826 115.23864,146.226599 115.725899,146.527787 C115.972249,146.032309 116.212382,145.583649 116.425315,145.123284 C118.316845,140.975319 120.191279,136.818771 122.098352,132.677049 C122.97573,130.769266 122.459717,131.167209 124.593711,131.11649 C124.952745,131.107907 125.312555,131.11649 125.633509,131.11649 C125.8309,131.532379 125.603978,131.800795 125.482746,132.06609 C122.446765,138.708868 119.404048,145.349565 116.354596,151.988181 C116.250454,152.224293 116.132647,152.454087 116.00178,152.676387 C115.822263,152.971333 115.442247,152.941682 115.258845,152.618647 C115.131396,152.393926 115.025707,152.156721 114.916909,151.921857 C111.876782,145.3363 108.83821,138.749963 105.801193,132.162845 C105.673744,131.886626 105.589037,131.59012 105.435165,131.166428 Z"/><path id="Shape" fill="#151417" d="M345.130617,131.153574 C345.287032,131.531351 345.140002,131.751785 345.031293,131.98702 C341.928529,138.705476 338.826287,145.424971 335.724566,152.145504 C335.640289,152.33284 335.544701,152.514921 335.438326,152.690749 C335.295987,152.924426 334.910423,152.946236 334.773559,152.73359 C334.631372,152.518295 334.50437,152.293425 334.39347,152.060602 C331.323553,145.44029 328.255722,138.819458 325.189977,132.198107 C325.146181,132.104637 325.081268,132.020513 325.041382,131.925485 C324.802849,131.350641 324.908429,131.155911 325.502026,131.157468 C326.227012,131.157468 327.039591,131.001684 327.653522,131.272749 C328.301083,131.559392 328.388676,132.471509 328.692904,133.119571 C330.583968,137.148931 332.446878,141.190754 334.335596,145.220894 C334.528769,145.632943 334.617926,146.115095 335.089519,146.488977 C335.372631,146.291131 335.475083,145.969437 335.615075,145.6641 C337.578091,141.383148 339.544756,137.104014 341.515071,132.826697 C341.601881,132.638977 341.717629,132.459825 341.775503,132.263537 C342.027332,131.401271 342.545067,131.006358 343.484343,131.137216 C344.041182,131.215888 344.614445,131.153574 345.130617,131.153574 Z"/><path id="Shape" fill="#100F12" d="M204.070281,131.060911 C204.070281,128.951769 204.070281,127.02542 204.070281,125.100632 C204.070281,124.631934 204.06019,124.163236 204.076492,123.694538 C204.095123,123.156316 204.208462,123.026643 204.697526,123.017269 C205.31856,123.006333 205.939594,123.017269 206.560628,123.043048 C206.665353,123.043461 206.765614,123.085774 206.839302,123.160657 C206.912989,123.235539 206.954051,123.336841 206.953432,123.442222 C206.977497,123.804682 206.980602,124.169485 206.980602,124.535851 C206.980602,126.462201 206.980602,128.38855 206.98526,130.316462 C206.98526,131.019509 207.020193,131.051537 207.657529,131.06013 C208.58908,131.072628 209.520631,131.06013 210.452182,131.06716 C211.359668,131.077315 211.359668,131.084346 211.376746,132.0608 C211.376746,132.113138 211.376746,132.164695 211.376746,132.217033 C211.372088,133.669216 211.483874,133.573133 210.049286,133.574695 C209.169488,133.574695 208.28969,133.580944 207.409892,133.593443 C207.177004,133.593443 207.021745,133.728584 207.009325,133.970745 C206.989917,134.386324 206.982154,134.802684 206.982154,135.220607 C206.982154,140.532519 206.982154,145.842609 206.982154,151.150876 C206.982154,151.567236 206.982154,151.983597 206.965852,152.400738 C206.954208,152.703829 206.779542,152.869436 206.478341,152.874904 C205.857307,152.881935 205.236273,152.874904 204.615239,152.880372 C204.207685,152.884278 204.088912,152.632744 204.08115,152.286688 C204.071834,151.870328 204.07261,151.453968 204.07261,151.036826 C204.07261,145.672836 204.07261,140.310669 204.07261,134.950324 C204.07261,133.509077 204.102886,133.570008 202.730401,133.576258 C202.316637,133.576258 201.902873,133.576258 201.488333,133.576258 C200.220647,133.56454 200.220647,133.562978 200.226081,132.278745 C200.231515,131.082783 200.231515,131.078877 201.428558,131.069504 C202.249876,131.055443 203.071193,131.060911 204.070281,131.060911 Z"/><path id="Shape" fill="#100F12" d="M312.704426,152.70839 C312.533934,152.781042 312.438134,152.857559 312.343958,152.856786 C309.218278,152.828962 309.754109,153.3669 309.745991,150.521858 C309.720011,141.932629 309.736248,133.344174 309.73706,124.754945 C309.73706,124.343763 309.729753,123.931808 309.745991,123.518307 C309.757357,123.22847 309.926224,123.027516 310.241228,123.022105 C310.941867,123.008966 311.64413,123.008966 312.34477,123.029834 C312.58427,123.036791 312.719039,123.219968 312.732029,123.443335 C312.753137,123.801961 312.757197,124.162132 312.757197,124.525394 C312.757197,133.474536 312.757197,142.42342 312.757197,151.372047 C312.753949,151.829603 312.720663,152.28716 312.704426,152.70839 Z"/><path id="Shape" fill="#151417" d="M32.4376145,141.981666 C32.4376145,145.085463 32.4376145,148.18926 32.4376145,151.293057 C32.4376145,151.65465 32.4299565,152.016242 32.4069823,152.379386 C32.4070423,152.484611 32.3649186,152.585346 32.2902695,152.658497 C32.2156203,152.731648 32.1148489,152.770939 32.0110602,152.767361 C31.2452536,152.787536 30.3576838,153.066878 29.7603546,152.66416 C29.140817,152.245923 29.50917,151.314008 29.5061068,150.615654 C29.4823668,144.770427 29.4930881,138.925977 29.4930881,133.079199 C29.4930881,132.716831 29.4846642,132.354462 29.4930881,131.99287 C29.5175939,131.197522 29.5796242,131.112168 30.3875502,131.121479 C32.7309185,131.149413 32.4215326,130.755231 32.4330197,133.138947 C32.4491016,136.085227 32.4376145,139.033834 32.4376145,141.981666 Z"/><path id="Shape" fill="#151417" d="M320.864978,141.988396 C320.864978,145.042566 320.864978,148.096476 320.864978,151.150127 C320.864978,151.563702 320.864978,151.978055 320.842179,152.390851 C320.828028,152.694607 320.634631,152.844148 320.339033,152.871408 C320.234401,152.879119 320.129425,152.881199 320.024566,152.877639 C317.508833,152.837138 317.84374,153.242145 317.838237,150.783284 C317.824872,144.88264 317.83352,138.981217 317.83352,133.080573 C317.83352,132.718403 317.825658,132.355454 317.83352,131.990169 C317.856318,131.177039 317.897985,131.112394 318.746259,131.12174 C321.138564,131.146664 320.850827,130.764243 320.859475,133.133536 C320.873626,136.086973 320.864978,139.038853 320.864978,141.988396 Z"/><path id="Shape" fill="#151417" d="M321.881394,124.801588 C321.858881,126.044426 320.746738,127.115214 319.534788,127.060882 C318.305578,127.005796 317.216699,125.853511 317.327012,124.653685 C317.447082,123.346706 318.409138,122.508338 319.603077,122.506828 C320.852549,122.504565 321.859631,123.464425 321.881394,124.801588 Z"/><path id="Shape" fill="#151417" d="M28.8935603,124.778505 C28.8841099,124.168766 29.1232469,123.581587 29.5556177,123.152884 C29.9879885,122.724181 30.5761092,122.49112 31.1838466,122.507647 C32.612925,122.526508 33.4636028,123.72531 33.4553292,124.829053 C33.4470555,125.991641 32.3902896,127.016923 31.2146846,127.061434 C29.9947029,127.107455 28.9040903,126.035399 28.8935603,124.778505 Z"/></g></g></g></svg>