<svg xmlns="http://www.w3.org/2000/svg" id="Calque_1" data-name="Calque 1" viewBox="0 0 1190.55 1299.62"><defs><style>.cls-1,.cls-3{fill:#e5174b}.cls-2{fill:#fff}.cls-3{font-size:117.43px;font-family:Gelion-Light,Gelion;font-weight:300;letter-spacing:.2em}</style></defs><title>logo-shodo-rose</title><rect width="1190.55" height="1118.51" class="cls-1"/><path d="M600.67,342.27a44,44,0,0,0-43.95-43.95H252.24a11.12,11.12,0,0,1,0-22.24H600.67V243.26H252.24a43.95,43.95,0,1,0,0,87.89H556.72a11.12,11.12,0,0,1,0,22.24H208.29v32.82H556.72A44,44,0,0,0,600.67,342.27Z" class="cls-2" transform="translate(0 -2.38)"/><polygon points="953.08 240.88 953.08 295.73 655.72 295.73 655.72 240.88 622.9 240.88 622.9 295.73 622.9 328.56 622.9 383.83 655.72 383.83 655.72 328.56 953.08 328.56 953.08 383.83 985.9 383.83 985.9 328.56 985.9 295.73 985.9 240.88 953.08 240.88" class="cls-2"/><path d="M914.43,408.84H276.12a71.48,71.48,0,0,0,0,143H914.43a71.48,71.48,0,0,0,0-143Zm0,110.13H276.12a38.65,38.65,0,0,1,0-77.3H914.43a38.65,38.65,0,1,1,0,77.3Z" class="cls-2" transform="translate(0 -2.38)"/><path d="M915.25,463.7H275a16.41,16.41,0,0,0,0,32.82H915.25a16.41,16.41,0,0,0,0-32.82Z" class="cls-2" transform="translate(0 -2.38)"/><path d="M914.43,737.05H276.12a71.48,71.48,0,0,0,0,143H914.43a71.48,71.48,0,0,0,0-143Zm0,110.13H276.12a38.66,38.66,0,0,1,0-77.31H914.43a38.66,38.66,0,0,1,0,77.31Z" class="cls-2" transform="translate(0 -2.38)"/><path d="M916.34,791.9H275a16.42,16.42,0,0,0,0,32.83H916.34a16.42,16.42,0,0,0,0-32.83Z" class="cls-2" transform="translate(0 -2.38)"/><path d="M914.43,573H204.65V715.9H914.43a71.48,71.48,0,0,0,0-142.95Zm0,110.13h-677V605.77h677a38.66,38.66,0,0,1,0,77.31Z" class="cls-2" transform="translate(0 -2.38)"/><path d="M914.52,627.8H258.59v32.82H914.52a16.41,16.41,0,0,0,0-32.82Z" class="cls-2" transform="translate(0 -2.38)"/><rect width="256" height="32.82" x="676.76" y="240.88" class="cls-2"/><rect width="255.63" height="32.82" x="676.76" y="351.01" class="cls-2"/><text class="cls-3" transform="translate(341.74 1272.73)">SHODO</text></svg>