<?xml version="1.0" standalone="no"?>
<!DOCTYPE svg PUBLIC "-//W3C//DTD SVG 20010904//EN"
 "http://www.w3.org/TR/2001/REC-SVG-20010904/DTD/svg10.dtd">
<svg version="1.0" xmlns="http://www.w3.org/2000/svg"
 width="4089.000000pt" height="1093.000000pt" viewBox="0 0 4089.000000 1093.000000"
 preserveAspectRatio="xMidYMid meet">
<metadata>
Created by potrace 1.15, written by Peter Selinger 2001-2017
</metadata>
<g transform="translate(0.000000,1093.000000) scale(0.100000,-0.100000)"
fill="#000000" stroke="none">
<path d="M4767 8270 c-546 -53 -1018 -270 -1406 -645 -366 -355 -593 -796
-677 -1320 -22 -136 -26 -494 -6 -630 37 -255 108 -487 216 -710 350 -718
1034 -1198 1828 -1284 137 -15 383 -14 519 3 622 78 1176 393 1554 887 438
571 581 1302 394 2009 -186 702 -732 1299 -1424 1555 -131 49 -334 100 -476
120 -138 19 -401 27 -522 15z m-396 -1059 c60 -61 27 -161 -58 -177 -49 -9
-112 1 -142 24 -54 40 -49 136 8 167 15 8 55 14 94 15 63 0 71 -3 98 -29z
m440 0 c23 -24 29 -38 29 -73 0 -36 -6 -50 -31 -74 -28 -27 -37 -29 -116 -33
-48 -2 -103 2 -124 8 -87 26 -106 126 -35 183 17 14 42 18 134 18 112 0 114 0
143 -29z m440 0 c23 -24 29 -38 29 -73 0 -36 -6 -50 -31 -74 -28 -27 -37 -29
-116 -33 -48 -2 -103 2 -124 8 -87 26 -106 126 -35 183 17 14 42 18 134 18
112 0 114 0 143 -29z m360 0 c40 -41 41 -98 1 -142 -23 -25 -38 -33 -79 -36
-99 -10 -163 33 -163 109 0 30 7 46 29 69 27 27 35 29 106 29 71 0 79 -2 106
-29z m-1200 -330 c41 -41 41 -98 0 -143 l-29 -33 -296 0 -295 0 -30 29 c-25
24 -31 38 -31 74 0 35 6 49 29 73 l29 29 297 0 297 0 29 -29z m318 14 c61 -31
65 -127 8 -169 -22 -17 -43 -21 -97 -21 -62 0 -72 3 -99 29 -25 24 -31 38 -31
74 0 35 6 49 29 73 27 26 36 29 96 29 38 0 78 -6 94 -15z m340 0 c59 -30 65
-127 10 -167 -30 -23 -93 -33 -142 -24 -85 16 -118 116 -58 177 27 26 36 29
96 29 38 0 78 -6 94 -15z m334 4 c13 -6 31 -23 40 -39 60 -100 -61 -194 -191
-149 -76 26 -88 136 -21 183 27 19 135 22 172 5z m363 -23 c98 -98 -40 -221
-182 -161 -68 28 -80 122 -22 170 25 21 40 25 100 25 66 0 72 -2 104 -34z
m333 8 c39 -32 49 -80 26 -124 -43 -84 -215 -80 -251 6 -20 47 -11 87 28 119
25 21 39 25 98 25 59 0 73 -4 99 -26z m-1363 -338 c40 -40 44 -75 14 -123 -12
-21 -32 -36 -57 -43 -26 -8 -184 -10 -505 -8 l-467 3 -30 29 c-25 24 -31 38
-31 74 0 35 6 49 29 73 l29 29 492 0 492 0 34 -34z m-610 -330 c95 -95 -31
-215 -174 -165 -53 18 -80 81 -58 134 21 50 51 65 129 65 65 0 71 -2 103 -34z
m385 5 c41 -41 41 -98 0 -143 l-29 -33 -107 0 -107 0 -29 33 c-41 45 -41 102
0 143 29 28 32 29 136 29 104 0 107 -1 136 -29z m308 13 c67 -47 55 -157 -21
-183 -143 -50 -269 70 -174 165 32 32 38 34 103 34 47 0 76 -5 92 -16z m770 0
c63 -44 58 -143 -9 -177 -31 -16 -63 -17 -313 -15 l-279 3 -29 33 c-43 48 -37
112 15 154 19 16 51 18 306 18 248 0 289 -2 309 -16z m480 -348 c48 -25 67
-99 35 -144 -38 -54 1 -52 -984 -52 -1001 0 -963 -2 -995 60 -23 44 -13 92 26
124 l31 26 929 0 c785 0 934 -2 958 -14z m166 -338 c56 -50 48 -139 -15 -170
-32 -16 -75 -18 -460 -18 -385 0 -428 2 -460 18 -63 31 -71 120 -15 170 l26
22 449 0 449 0 26 -22z m-2194 -337 c23 -24 29 -38 29 -74 0 -79 -60 -116
-168 -104 -82 9 -126 87 -88 156 20 37 55 50 129 51 63 0 71 -3 98 -29z m340
0 c23 -24 29 -38 29 -74 0 -78 -61 -116 -168 -104 -82 9 -126 87 -88 156 20
37 55 50 129 51 63 0 71 -3 98 -29z m340 0 c23 -24 29 -38 29 -73 0 -36 -6
-50 -31 -74 -28 -27 -36 -29 -105 -29 -73 0 -77 1 -105 33 -32 36 -38 80 -15
121 20 37 55 50 129 51 63 0 71 -3 98 -29z m340 0 c41 -41 41 -98 0 -143 -28
-32 -32 -33 -106 -33 -74 0 -78 1 -106 33 -32 36 -38 80 -15 121 20 37 55 50
129 51 63 0 71 -3 98 -29z m319 14 c59 -31 69 -104 21 -157 -28 -32 -32 -33
-106 -33 -74 0 -78 1 -106 33 -47 53 -36 127 26 160 29 17 131 14 165 -3z
m760 0 c59 -31 69 -104 21 -157 l-29 -33 -287 0 -287 0 -29 33 c-47 53 -36
127 26 160 13 8 112 11 288 12 220 0 273 -3 297 -15z m-1562 -340 c38 -32 48
-72 28 -118 -24 -57 -59 -69 -193 -65 l-115 3 -29 33 c-42 46 -40 93 5 138
l34 34 120 0 c114 0 122 -1 150 -25z m1267 13 c59 -27 72 -109 26 -160 l-29
-33 -536 -3 c-591 -3 -579 -4 -612 59 -22 43 -11 91 27 123 l31 26 533 0 c393
0 541 -3 560 -12z"/>
<path d="M11475 7325 c-520 -81 -831 -433 -895 -1012 -17 -150 -7 -658 14
-766 56 -284 150 -472 318 -633 152 -146 325 -225 578 -264 87 -13 608 -13
705 1 520 72 844 425 915 999 15 127 12 584 -5 713 -20 150 -58 284 -115 404
-59 124 -93 174 -179 265 -149 159 -347 256 -594 292 -131 20 -620 21 -742 1z
m714 -389 c146 -37 274 -128 345 -245 47 -76 93 -218 111 -338 21 -138 21
-588 -1 -731 -48 -322 -183 -500 -439 -574 -75 -22 -97 -23 -360 -23 -313 0
-349 5 -483 71 -173 85 -277 260 -317 534 -23 154 -16 675 9 790 75 329 227
484 521 529 98 16 538 6 614 -13z"/>
<path d="M8789 7295 c-452 -62 -678 -293 -683 -700 -1 -138 11 -197 62 -305
26 -57 54 -94 111 -151 158 -158 355 -236 791 -314 457 -81 667 -150 758 -249
48 -52 64 -102 66 -201 3 -172 -74 -265 -260 -317 -77 -22 -94 -22 -741 -26
l-663 -3 0 -185 0 -184 623 0 c663 0 777 6 937 46 279 70 450 226 516 469 25
95 30 277 10 369 -48 212 -190 364 -442 475 -95 41 -250 80 -524 131 -565 105
-751 184 -796 336 -22 78 -16 213 14 270 37 73 112 126 227 160 54 16 122 18
693 21 l632 4 0 184 0 185 -617 -1 c-450 -1 -644 -5 -714 -14z"/>
<path d="M13500 5985 l0 -1325 228 2 227 3 3 528 2 527 528 0 527 0 49 172
c26 95 50 178 53 185 4 11 -105 13 -576 13 l-581 0 0 425 0 425 745 0 745 0 0
185 0 185 -975 0 -975 0 0 -1325z"/>
<path d="M15770 7125 l0 -185 380 0 380 0 0 -1140 0 -1140 230 0 230 0 0 1140
0 1140 380 0 380 0 0 185 0 185 -990 0 -990 0 0 -185z"/>
<path d="M18100 7277 c0 -48 63 -414 120 -700 92 -458 232 -985 380 -1428 67
-202 163 -452 183 -476 7 -10 78 -13 292 -13 l283 0 52 123 c112 265 262 739
375 1190 40 158 75 290 78 293 2 3 8 -12 11 -33 13 -68 116 -474 157 -618 87
-299 232 -719 308 -888 l30 -67 278 2 277 3 37 85 c152 354 387 1160 503 1725
48 237 121 658 132 768 l7 67 -226 0 -225 0 -6 -37 c-103 -679 -256 -1408
-384 -1833 -50 -163 -108 -324 -136 -377 l-14 -28 -10 25 c-5 14 -28 70 -50
125 -123 308 -249 772 -356 1306 -41 205 -116 640 -132 767 l-7 52 -194 0
c-146 0 -195 -3 -197 -12 -2 -7 -18 -105 -36 -218 -127 -822 -320 -1593 -494
-1985 -32 -71 -28 -75 -90 94 -161 430 -344 1231 -451 1966 -9 61 -18 120 -21
133 l-4 22 -235 0 -235 0 0 -33z"/>
<path d="M22582 7223 c-94 -167 -131 -239 -212 -413 -210 -449 -438 -1025
-605 -1525 -96 -291 -188 -602 -180 -615 4 -6 96 -10 233 -10 l227 0 79 273
c43 149 101 341 128 425 l49 152 439 0 c242 0 440 2 440 5 0 4 -76 279 -96
348 -5 16 -29 17 -325 17 -270 0 -319 2 -319 14 0 20 135 379 215 572 67 160
218 466 240 484 8 7 31 -29 82 -128 200 -387 466 -1118 697 -1912 l72 -245
247 -3 c235 -2 247 -1 247 16 0 29 -111 392 -198 652 -223 659 -547 1431 -779
1858 l-67 122 -282 0 -282 0 -50 -87z"/>
<path d="M23892 7288 c3 -13 222 -374 487 -802 l481 -779 0 -524 0 -523 228 2
227 3 3 541 2 542 477 763 c262 420 478 771 481 781 4 17 -7 18 -214 16 l-218
-3 -366 -590 c-201 -324 -370 -589 -374 -588 -4 1 -171 266 -371 590 l-363
588 -242 3 -242 2 4 -22z"/>
<path d="M13500 3340 l0 -680 115 0 115 0 0 475 c0 261 3 475 8 475 4 -1 81
-109 172 -240 l164 -240 41 0 40 0 180 248 180 247 3 -482 2 -483 115 0 115 0
0 680 0 681 -102 -3 -103 -3 -205 -297 c-113 -163 -208 -299 -212 -303 -3 -4
-100 131 -215 299 l-208 305 -102 1 -103 0 0 -680z"/>
<path d="M15710 3340 l0 -680 455 0 455 0 0 95 0 95 -340 0 -340 0 0 215 0
215 287 2 288 3 17 70 c9 39 17 78 17 88 1 16 -20 17 -304 17 l-305 0 0 185 0
185 340 0 340 0 0 95 0 95 -455 0 -455 0 0 -680z"/>
<path d="M17600 3340 l0 -682 313 5 c255 3 323 7 371 21 144 42 242 121 305
247 64 127 74 191 69 456 -5 245 -12 286 -72 387 -33 57 -122 139 -185 171
-115 58 -179 67 -503 72 l-298 5 0 -682z m570 474 c127 -30 206 -100 241 -216
19 -61 20 -88 17 -275 -4 -189 -6 -213 -27 -267 -30 -75 -96 -147 -164 -177
-47 -21 -69 -24 -229 -27 l-178 -4 0 491 0 491 138 0 c87 0 160 -6 202 -16z"/>
<path d="M19670 3340 l0 -680 120 0 120 0 0 680 0 680 -120 0 -120 0 0 -680z"/>
<path d="M21328 4010 c-244 -29 -407 -170 -475 -411 -25 -92 -26 -435 0 -529
56 -204 166 -328 346 -389 71 -24 89 -25 271 -25 182 -1 200 1 270 25 l75 25
3 93 c3 93 3 94 -20 87 -172 -50 -285 -63 -403 -47 -186 26 -296 137 -326 331
-18 114 -7 329 21 410 42 124 124 203 245 235 110 28 311 15 434 -29 24 -9 45
-16 47 -16 2 0 4 42 4 94 l0 93 -75 22 c-133 40 -259 49 -417 31z"/>
<path d="M23177 3978 c-136 -234 -356 -775 -472 -1160 -25 -82 -45 -152 -45
-154 0 -2 53 -4 118 -4 l117 0 57 193 c31 105 61 204 67 220 l11 27 220 0
c121 0 220 3 220 8 0 4 -9 44 -21 90 l-22 82 -164 0 c-139 0 -163 2 -163 15 0
45 216 545 236 545 13 0 138 -280 202 -455 62 -168 172 -504 217 -667 l16 -58
126 0 125 0 -7 33 c-19 85 -157 485 -235 682 -94 234 -205 481 -262 580 l-34
60 -141 3 -141 3 -25 -43z"/>
<path d="M24860 3497 c0 -354 4 -542 11 -581 23 -112 103 -204 207 -237 23 -8
136 -14 295 -16 l257 -5 0 96 0 96 -210 0 c-225 0 -242 3 -287 52 -40 44 -43
81 -43 611 l0 507 -115 0 -115 0 0 -523z"/>
<path d="M28350 3340 l0 -680 45 0 45 0 0 680 0 680 -45 0 -45 0 0 -680z"/>
<path d="M29761 4006 c-57 -19 -96 -58 -116 -114 -18 -53 -20 -179 -4 -237 48
-172 341 -183 416 -16 20 45 23 191 5 244 -17 47 -55 93 -94 113 -42 22 -153
27 -207 10z m197 -65 c46 -32 62 -77 62 -173 0 -139 -41 -190 -158 -196 -80
-4 -126 16 -157 69 -16 28 -20 52 -20 129 0 113 17 152 80 182 53 25 150 20
193 -11z"/>
<path d="M33598 4006 c-95 -35 -129 -88 -136 -211 -9 -175 55 -263 201 -273
168 -12 257 87 245 273 -9 145 -74 214 -206 222 -42 2 -81 -2 -104 -11z m191
-63 c50 -38 66 -80 66 -173 0 -133 -44 -190 -153 -198 -121 -9 -179 45 -189
172 -9 104 25 182 91 212 44 20 150 12 185 -13z"/>
<path d="M28949 3963 c10 -27 51 -135 92 -241 74 -192 74 -193 103 -190 27 3
31 11 117 233 49 127 89 234 89 238 0 5 -12 7 -27 5 -25 -3 -31 -16 -101 -201
-42 -109 -78 -194 -82 -190 -4 4 -40 95 -80 201 -71 187 -73 192 -101 192
l-29 0 19 -47z"/>
<path d="M30350 3985 c0 -25 1 -25 85 -25 l85 0 0 -220 0 -220 25 0 25 0 0
220 0 220 85 0 c84 0 85 0 85 25 l0 25 -195 0 -195 0 0 -25z"/>
<path d="M31040 3770 l0 -240 30 0 30 0 0 95 0 95 63 -1 62 0 60 -94 c56 -88
62 -95 93 -95 l32 0 -65 97 -64 97 37 21 c94 52 95 201 2 247 -28 14 -61 18
-157 18 l-123 0 0 -240z m263 170 c32 -25 41 -63 26 -107 -15 -46 -56 -63
-154 -63 l-75 0 0 95 0 95 89 0 c73 0 93 -3 114 -20z"/>
<path d="M31720 3770 l0 -240 155 0 c148 0 155 1 155 20 0 19 -7 20 -130 20
l-130 0 0 85 0 85 110 0 110 0 0 25 0 25 -110 0 -110 0 0 85 0 84 128 3 c123
3 127 4 130 26 l3 22 -155 0 -156 0 0 -240z"/>
<path d="M32820 3770 l0 -240 25 0 c25 0 25 1 25 89 l0 89 93 4 c101 4 138 17
171 61 29 40 29 134 0 174 -37 51 -77 63 -201 63 l-113 0 0 -240z m242 179
c25 -14 51 -74 43 -102 -20 -72 -48 -87 -161 -87 l-74 0 0 100 0 100 86 0 c47
0 94 -5 106 -11z"/>
<path d="M34180 3985 c0 -25 1 -25 85 -25 l85 0 0 -221 0 -220 28 3 27 3 3
218 2 217 85 0 c84 0 85 0 85 25 l0 25 -200 0 -200 0 0 -25z"/>
<path d="M34880 3770 l0 -240 150 0 c143 0 150 1 150 20 0 19 -7 20 -125 20
l-125 0 0 85 0 85 110 0 110 0 0 25 0 25 -110 0 -110 0 0 85 0 85 125 0 125 0
0 25 0 25 -150 0 -150 0 0 -240z"/>
<path d="M35500 3770 l0 -240 30 0 30 0 2 196 3 195 138 -195 c134 -189 140
-196 173 -196 l34 0 0 240 0 240 -30 0 -30 0 -2 -198 -3 -199 -140 199 c-133
188 -141 198 -172 198 l-33 0 0 -240z"/>
<path d="M36210 3985 c0 -25 1 -25 85 -25 l85 0 2 -217 3 -218 25 0 25 0 3
218 2 217 85 0 c84 0 85 0 85 25 l0 25 -200 0 -200 0 0 -25z"/>
<path d="M36910 3770 l0 -240 25 0 25 0 0 240 0 240 -25 0 -25 0 0 -240z"/>
<path d="M37300 3770 l0 -240 155 0 c148 0 155 1 155 20 0 19 -7 20 -125 20
l-125 0 0 85 0 85 110 0 110 0 0 25 0 25 -110 0 -110 0 0 85 0 85 125 0 125 0
0 25 0 25 -155 0 -155 0 0 -240z"/>
<path d="M37930 3770 l0 -240 150 0 150 0 0 25 0 25 -125 0 -125 0 0 215 0
215 -25 0 -25 0 0 -240z"/>
<path d="M30520 3149 c-91 -28 -131 -91 -138 -217 -3 -51 0 -100 8 -128 18
-62 72 -118 130 -134 50 -14 166 -8 218 10 l32 12 0 119 0 119 -85 0 c-84 0
-85 0 -85 -25 0 -24 3 -25 60 -25 l60 0 0 -79 0 -78 -31 -7 c-176 -35 -270 46
-257 219 6 69 28 117 69 147 45 34 158 35 243 2 12 -5 16 0 16 19 0 19 -8 28
-32 37 -46 16 -166 21 -208 9z"/>
<path d="M29121 3128 c-5 -13 -46 -115 -91 -228 -45 -113 -84 -211 -87 -217
-3 -9 5 -13 24 -13 26 0 31 5 56 75 l29 76 105 -3 105 -3 28 -70 c24 -61 31
-70 55 -73 23 -3 27 -1 21 15 -3 10 -45 118 -93 240 -85 216 -89 223 -116 223
-19 0 -30 -7 -36 -22z m83 -157 c20 -52 34 -96 32 -98 -2 -2 -39 -3 -83 -1
l-79 3 39 103 c22 57 43 99 47 95 4 -4 24 -50 44 -102z"/>
<path d="M29660 2992 c0 -224 19 -278 112 -317 76 -31 194 -10 241 43 38 42
46 90 47 265 l0 167 -24 0 -24 0 -4 -172 c-2 -142 -6 -179 -21 -205 -23 -43
-64 -63 -127 -63 -28 0 -64 7 -80 15 -53 28 -60 55 -60 250 l0 175 -30 0 -30
0 0 -158z"/>
<path d="M31110 2910 l0 -240 25 0 25 0 0 190 c0 105 3 190 8 190 4 0 41 -50
82 -111 41 -61 78 -113 81 -115 4 -2 42 48 85 111 44 63 82 115 87 115 4 0 7
-85 7 -190 l0 -190 25 0 25 0 0 240 0 240 -29 0 c-26 0 -38 -12 -107 -112 -42
-62 -80 -117 -84 -122 -5 -4 -45 46 -89 113 -74 109 -84 121 -111 121 l-30 0
0 -240z"/>
<path d="M31900 2910 l0 -240 155 0 c148 0 155 1 155 20 0 19 -7 20 -125 20
l-125 0 0 85 0 85 110 0 110 0 0 25 0 25 -110 0 -110 0 0 85 0 85 125 0 125 0
0 25 0 25 -155 0 -155 0 0 -240z"/>
<path d="M32530 2911 l0 -241 25 0 25 0 2 200 3 201 140 -198 c129 -181 143
-198 173 -201 l32 -3 0 240 0 241 -25 0 -25 0 -2 -200 -3 -201 -140 198 c-129
181 -143 198 -173 201 l-32 3 0 -240z"/>
<path d="M33240 3125 c0 -25 1 -25 85 -25 l85 0 0 -220 0 -220 25 0 25 0 0
220 0 220 90 0 c89 0 90 0 90 25 l0 25 -200 0 -200 0 0 -25z"/>
<path d="M33930 2910 l0 -240 155 0 c148 0 155 1 155 20 0 19 -7 20 -130 20
l-130 0 0 85 0 85 110 0 110 0 0 25 0 25 -110 0 -110 0 0 85 0 84 128 3 c123
3 127 4 130 26 l3 22 -155 0 -156 0 0 -240z"/>
</g>
</svg>
