<svg xmlns="http://www.w3.org/2000/svg" viewBox="0 0 465.7 55.2"><path fill="#252a6e" d="M465.7 40.5c0 7.5-2.2 9.7-8.1 11.5-6.5 2-18 3.2-24.8 3.2-8.1 0-18.2-.6-26.8-2.5V44h47.5V32.2h-33.6c-10.1 0-13.9-2.7-13.9-12.6v-5.1c0-7.8 2.3-10.2 8.6-11.8C421 1.1 431.4 0 438.2 0c8.2 0 18.1.6 26.8 2.6v8.6h-46.7v10h33.6c10 0 13.8 2.7 13.8 12.6v6.7M384.8 52.7c-9.8 2-19.7 2.5-29.3 2.5-9.6 0-19.7-.6-29.5-2.5V2.6c9.8-2 19.8-2.6 29.3-2.6 9.6 0 19.4.6 29.3 2.6v8.9H340v10h29V32h-29v11.8h44.7v9M309 52.7a121 121 0 0 1-26.3 2.5c-8.5 0-17.6-.6-26.4-2.5V1.2h14.1v41.9H309v9.6M239.3 53c-4.7 1.4-11 1.8-15.6 2l-21.8-44.1h-1.2l-21.8 44c-4.7 0-10.2-.5-14.9-1.9l27.6-51.7h19.7l28 51.7"/><path fill="#252a6e" d="M210.5 39.9a9.2 9.2 0 1 1-9.2-9.2c5 0 9.2 4 9.2 9.2M147 53a55 55 0 0 1-14.2 2V32.3H97.6V55a55 55 0 0 1-14.2-1.8V2.2A55 55 0 0 1 97.6.4V22h35.2V.4c4.8 0 9.6.5 14.1 1.8v50.9M63.7 11.6H39V54h-14V11.6H0v-9C10.7.6 21.4 0 31.9 0 42.3 0 53 .6 63.7 2.6v9M465.7 40.5c0 7.5-2.2 9.7-8.1 11.5-6.5 2-18 3.2-24.8 3.2-8.1 0-18.2-.6-26.8-2.5V44h47.5V32.2h-33.6c-10.1 0-13.9-2.7-13.9-12.6v-5.1c0-7.8 2.3-10.2 8.6-11.8C421 1.1 431.4 0 438.2 0c8.2 0 18.1.6 26.8 2.6v8.6h-46.7v10h33.6c10 0 13.8 2.7 13.8 12.6v6.7M384.8 52.7c-9.8 2-19.7 2.5-29.3 2.5-9.6 0-19.7-.6-29.5-2.5V2.6c9.8-2 19.8-2.6 29.3-2.6 9.6 0 19.4.6 29.3 2.6v8.9H340v10h29V32h-29v11.8h44.7v9M309 52.7a121 121 0 0 1-26.3 2.5c-8.5 0-17.6-.6-26.4-2.5V1.2h14.1v41.9H309v9.6"/><path fill="#252a6e" d="M239.3 53c-4.7 1.4-11 1.8-15.6 2l-21.8-44.1h-1.2l-21.8 44c-4.7 0-10.2-.5-14.9-1.9l27.6-51.7h19.7l28 51.7"/><path fill="#3dc0e1" d="M210.5 39.9a9.2 9.2 0 1 1-9.2-9.2c5 0 9.2 4 9.2 9.2"/><path fill="#252a6e" d="M147 53a55 55 0 0 1-14.2 2V32.3H97.6V55a55 55 0 0 1-14.2-1.8V2.2A55 55 0 0 1 97.6.4V22h35.2V.4c4.8 0 9.6.5 14.1 1.8v50.9M63.7 11.6H39V54h-14V11.6H0v-9C10.7.6 21.4 0 31.9 0 42.3 0 53 .6 63.7 2.6v9"/></svg>