<svg xmlns="http://www.w3.org/2000/svg" id="svg2" width="627.4" height="303.347" version="1.1" viewBox="0 0 627.4 303.347" xml:space="preserve"><metadata id="metadata8"/><g id="g10" transform="matrix(1.3333333,0,0,-1.3333333,0,303.34667)"><g id="g12" transform="scale(0.1)"><path style="fill:#040606;fill-opacity:1;fill-rule:nonzero;stroke:none" id="path14" d="M 1450.65,2048.38 H 226.77 V 226.781 h 1223.88 z m -80.69,-80.7 V 307.461 H 307.461 V 1967.68 H 1369.96"/><path style="fill:#040606;fill-opacity:1;fill-rule:nonzero;stroke:none" id="path16" d="m 1846.36,738.512 h 23.92 V 567.559 h -23.92 V 646.5 h -83.63 v -78.941 h -23.92 v 170.953 h 23.92 V 667.23 h 83.63 v 71.282"/><path style="fill:#040606;fill-opacity:1;fill-rule:nonzero;stroke:none" id="path18" d="m 1996.09,563.852 c -11.19,0 -20.88,1.726 -29.11,5.187 -8.22,3.441 -14.97,8.172 -20.22,14.18 -5.27,6 -9.18,13.133 -11.72,21.332 -2.55,8.238 -3.82,17.109 -3.82,26.66 v 107.301 h 23.93 V 633.898 c 0,-17.078 3.78,-29.507 11.34,-37.218 7.57,-7.758 17.43,-11.602 29.6,-11.602 6.09,0 11.63,0.934 16.65,2.832 5.02,1.891 9.34,4.801 12.95,8.77 3.63,3.941 6.42,9 8.4,15.148 1.97,6.184 2.95,13.524 2.95,22.07 v 104.614 h 23.94 V 631.211 c 0,-9.551 -1.28,-18.422 -3.83,-26.66 -2.55,-8.199 -6.5,-15.332 -11.84,-21.332 -5.34,-6.008 -12.09,-10.739 -20.23,-14.18 -8.15,-3.461 -17.8,-5.187 -28.99,-5.187"/><path style="fill:#040606;fill-opacity:1;fill-rule:nonzero;stroke:none" id="path20" d="m 2198.62,591.23 c -1.65,3.942 -3.83,8.961 -6.53,15.059 -2.72,6.09 -5.63,12.672 -8.76,19.742 -3.13,7.071 -6.46,14.34 -10,21.821 -3.54,7.5 -6.87,14.57 -9.98,21.226 -3.13,6.66 -6.05,12.602 -8.76,17.871 -2.71,5.281 -4.89,9.301 -6.54,12.09 -1.81,-19.41 -3.29,-40.41 -4.44,-63.027 -1.15,-22.614 -2.15,-45.434 -2.96,-68.453 h -23.43 c 0.65,14.781 1.39,29.722 2.21,44.781 0.83,15.039 1.77,29.851 2.84,44.398 1.07,14.551 2.22,28.75 3.45,42.563 1.24,13.801 2.6,26.89 4.07,39.211 h 20.97 c 4.45,-7.242 9.22,-15.801 14.31,-25.66 5.11,-9.84 10.19,-20.18 15.3,-30.961 5.09,-10.762 10.02,-21.539 14.81,-32.301 4.76,-10.781 9.12,-20.61 13.06,-29.488 3.96,8.878 8.3,18.707 13.08,29.488 4.76,10.762 9.7,21.539 14.8,32.301 5.09,10.781 10.2,21.121 15.3,30.961 5.09,9.859 9.86,18.418 14.3,25.66 h 20.97 c 5.59,-55.09 9.78,-112.09 12.58,-170.953 h -23.43 c -0.83,23.019 -1.82,45.839 -2.96,68.453 -1.15,22.617 -2.64,43.617 -4.44,63.027 -1.64,-2.789 -3.82,-6.809 -6.55,-12.09 -2.7,-5.269 -5.63,-11.211 -8.75,-17.871 -3.12,-6.656 -6.45,-13.726 -9.99,-21.226 -3.53,-7.481 -6.87,-14.75 -10,-21.821 -3.12,-7.07 -6.03,-13.652 -8.76,-19.742 -2.7,-6.098 -4.89,-11.117 -6.52,-15.059 h -19.25"/><path style="fill:#040606;fill-opacity:1;fill-rule:nonzero;stroke:none" id="path22" d="m 2448.27,630.961 c -5.26,14.289 -10.48,28.16 -15.65,41.559 -5.2,13.402 -10.58,26.289 -16.17,38.609 -5.76,-12.32 -11.23,-25.207 -16.41,-38.609 -5.18,-13.399 -10.31,-27.27 -15.41,-41.559 z m 22.45,-63.402 c -2.79,7.402 -5.43,14.671 -7.89,21.832 -2.48,7.148 -5.02,14.437 -7.65,21.82 h -77.46 l -15.53,-43.652 h -24.92 c 6.57,18.082 12.74,34.82 18.5,50.191 5.75,15.391 11.39,29.98 16.89,43.789 5.5,13.813 10.98,27.012 16.41,39.609 5.42,12.563 11.11,25.043 17.02,37.364 h 21.95 c 5.92,-12.321 11.61,-24.801 17.02,-37.364 5.43,-12.597 10.9,-25.796 16.4,-39.609 5.51,-13.809 11.16,-28.398 16.9,-43.789 5.76,-15.371 11.93,-32.109 18.52,-50.191 h -26.16"/><path style="fill:#040606;fill-opacity:1;fill-rule:nonzero;stroke:none" id="path24" d="m 2656.98,567.559 c -3.62,6.089 -7.78,12.91 -12.47,20.472 -4.69,7.547 -9.74,15.43 -15.17,23.547 -5.42,8.152 -11.06,16.434 -16.91,24.813 -5.84,8.371 -11.63,16.461 -17.38,24.289 -5.76,7.8 -11.35,15.179 -16.78,22.09 -5.42,6.902 -10.45,12.968 -15.05,18.242 V 567.559 h -23.43 v 170.953 h 18.99 c 7.73,-8.223 16,-17.813 24.79,-28.731 8.8,-10.929 17.52,-22.203 26.16,-33.801 8.63,-11.589 16.77,-22.968 24.42,-34.16 7.64,-11.199 14.08,-21.16 19.37,-29.871 v 126.563 h 23.43 V 567.559 h -19.97"/><path style="fill:#040606;fill-opacity:1;fill-rule:nonzero;stroke:none" id="path26" d="m 2815.82,567.559 h 23.9492 V 738.512 H 2815.82 Z"/><path style="fill:#040606;fill-opacity:1;fill-rule:nonzero;stroke:none" id="path28" d="m 3019.11,567.559 c -3.62,6.089 -7.77,12.91 -12.47,20.472 -4.69,7.547 -9.75,15.43 -15.17,23.547 -5.42,8.152 -11.05,16.434 -16.9,24.813 -5.85,8.371 -11.64,16.461 -17.39,24.289 -5.75,7.8 -11.35,15.179 -16.77,22.09 -5.42,6.902 -10.46,12.968 -15.05,18.242 V 567.559 h -23.43 v 170.953 h 19 c 7.72,-8.223 15.99,-17.813 24.78,-28.731 8.79,-10.929 17.51,-22.203 26.17,-33.801 8.62,-11.589 16.76,-22.968 24.4,-34.16 7.65,-11.199 14.09,-21.16 19.36,-29.871 v 126.563 h 23.45 V 567.559 h -19.98"/><path style="fill:#040606;fill-opacity:1;fill-rule:nonzero;stroke:none" id="path30" d="m 3218.44,567.559 c -3.63,6.089 -7.79,12.91 -12.47,20.472 -4.69,7.547 -9.74,15.43 -15.18,23.547 -5.41,8.152 -11.04,16.434 -16.89,24.813 -5.84,8.371 -11.63,16.461 -17.39,24.289 -5.75,7.8 -11.34,15.179 -16.78,22.09 -5.41,6.902 -10.44,12.968 -15.05,18.242 V 567.559 h -23.42 v 170.953 h 18.98 c 7.75,-8.223 16,-17.813 24.81,-28.731 8.79,-10.929 17.5,-22.203 26.14,-33.801 8.63,-11.589 16.77,-22.968 24.42,-34.16 7.63,-11.199 14.1,-21.16 19.38,-29.871 v 126.563 h 23.42 V 567.559 h -19.97"/><path style="fill:#040606;fill-opacity:1;fill-rule:nonzero;stroke:none" id="path32" d="m 3318.83,653.16 c 0,-10.371 1.32,-19.781 3.96,-28.262 2.62,-8.476 6.36,-15.66 11.2,-21.558 4.86,-5.942 10.79,-10.488 17.76,-13.692 7.01,-3.226 14.85,-4.808 23.56,-4.808 8.72,0 16.55,1.582 23.44,4.808 6.89,3.204 12.79,7.75 17.66,13.692 4.84,5.898 8.59,13.082 11.21,21.558 2.61,8.481 3.95,17.891 3.95,28.262 0,10.352 -1.34,19.77 -3.95,28.238 -2.62,8.481 -6.37,15.672 -11.21,21.614 -4.87,5.886 -10.77,10.468 -17.66,13.687 -6.89,3.18 -14.72,4.801 -23.44,4.801 -8.71,0 -16.55,-1.621 -23.56,-4.801 -6.97,-3.219 -12.9,-7.801 -17.76,-13.687 -4.84,-5.942 -8.58,-13.133 -11.2,-21.614 -2.64,-8.468 -3.96,-17.886 -3.96,-28.238 z m -25.16,0 c 0,14.629 2.17,27.539 6.54,38.731 4.34,11.187 10.27,20.507 17.75,27.988 7.49,7.48 16.22,13.133 26.14,16.902 9.97,3.789 20.53,5.68 31.72,5.68 11,0 21.42,-1.891 31.21,-5.68 9.77,-3.769 18.36,-9.422 25.76,-16.902 7.42,-7.481 13.28,-16.801 17.66,-27.988 4.34,-11.192 6.52,-24.102 6.52,-38.731 0,-14.648 -2.18,-27.539 -6.52,-38.73 -4.38,-11.192 -10.24,-20.508 -17.66,-28.008 -7.4,-7.481 -15.99,-13.121 -25.76,-16.891 -9.79,-3.793 -20.21,-5.679 -31.21,-5.679 -11.19,0 -21.75,1.886 -31.72,5.679 -9.92,3.77 -18.65,9.41 -26.14,16.891 -7.48,7.5 -13.41,16.816 -17.75,28.008 -4.37,11.191 -6.54,24.082 -6.54,38.73"/><path style="fill:#040606;fill-opacity:1;fill-rule:nonzero;stroke:none" id="path34" d="m 3646.19,738.512 c -6.26,-18.102 -12.22,-34.821 -17.89,-50.192 -5.67,-15.39 -11.22,-29.98 -16.66,-43.789 -5.42,-13.812 -10.8,-27.011 -16.15,-39.609 -5.34,-12.582 -10.8,-25.043 -16.4,-37.363 h -22.46 c -5.59,12.32 -11.06,24.781 -16.39,37.363 -5.36,12.598 -10.8,25.797 -16.28,39.609 -5.5,13.809 -11.14,28.399 -16.89,43.789 -5.77,15.371 -11.71,32.09 -17.77,50.192 h 26.39 c 8.87,-25.973 17.58,-50.973 26.15,-75 8.55,-24 17.36,-46.524 26.38,-67.59 9.07,20.898 17.84,43.398 26.4,67.476 8.54,24.102 17.2,49.141 25.93,75.114 h 25.64"/><path style="fill:#040606;fill-opacity:1;fill-rule:nonzero;stroke:none" id="path36" d="m 3766.07,630.961 c -5.26,14.289 -10.48,28.16 -15.66,41.559 -5.19,13.402 -10.56,26.289 -16.15,38.609 -5.75,-12.32 -11.23,-25.207 -16.42,-38.609 -5.17,-13.399 -10.32,-27.27 -15.42,-41.559 z m 22.44,-63.402 c -2.8,7.402 -5.41,14.671 -7.88,21.832 -2.49,7.148 -5.02,14.437 -7.64,21.82 h -77.46 l -15.55,-43.652 h -24.92 c 6.58,18.082 12.74,34.82 18.51,50.191 5.76,15.391 11.39,29.98 16.89,43.789 5.5,13.813 10.98,27.012 16.42,39.609 5.41,12.563 11.1,25.043 17.02,37.364 h 21.94 c 5.91,-12.321 11.6,-24.801 17.02,-37.364 5.44,-12.597 10.89,-25.796 16.41,-39.609 5.5,-13.809 11.13,-28.398 16.88,-43.789 5.77,-15.371 11.95,-32.109 18.52,-50.191 h -26.16"/><path style="fill:#040606;fill-opacity:1;fill-rule:nonzero;stroke:none" id="path38" d="m 3956.03,738.512 v -20.723 h -53.78 v -150.23 h -23.95 v 150.23 h -53.76 v 20.723 h 131.49"/><path style="fill:#040606;fill-opacity:1;fill-rule:nonzero;stroke:none" id="path40" d="m 4000.92,567.559 h 23.9102 V 738.512 H 4000.92 Z"/><path style="fill:#040606;fill-opacity:1;fill-rule:nonzero;stroke:none" id="path42" d="m 4105.25,653.16 c 0,-10.371 1.32,-19.781 3.97,-28.262 2.62,-8.476 6.36,-15.66 11.2,-21.558 4.85,-5.942 10.8,-10.488 17.77,-13.692 7,-3.226 14.86,-4.808 23.57,-4.808 8.71,0 16.52,1.582 23.44,4.808 6.9,3.204 12.77,7.75 17.63,13.692 4.85,5.898 8.6,13.082 11.21,21.558 2.64,8.481 3.96,17.891 3.96,28.262 0,10.352 -1.32,19.77 -3.96,28.238 -2.61,8.481 -6.36,15.672 -11.21,21.614 -4.86,5.886 -10.73,10.468 -17.63,13.687 -6.92,3.18 -14.73,4.801 -23.44,4.801 -8.71,0 -16.57,-1.621 -23.57,-4.801 -6.97,-3.219 -12.92,-7.801 -17.77,-13.687 -4.84,-5.942 -8.58,-13.133 -11.2,-21.614 -2.65,-8.468 -3.97,-17.886 -3.97,-28.238 z m -25.13,0 c 0,14.629 2.17,27.539 6.52,38.731 4.36,11.187 10.26,20.507 17.74,27.988 7.5,7.48 16.23,13.133 26.17,16.902 9.95,3.789 20.52,5.68 31.7,5.68 11.01,0 21.41,-1.891 31.21,-5.68 9.78,-3.769 18.38,-9.422 25.78,-16.902 7.41,-7.481 13.28,-16.801 17.64,-27.988 4.35,-11.192 6.52,-24.102 6.52,-38.731 0,-14.648 -2.17,-27.539 -6.52,-38.73 -4.36,-11.192 -10.23,-20.508 -17.64,-28.008 -7.4,-7.481 -16,-13.121 -25.78,-16.891 -9.8,-3.793 -20.2,-5.679 -31.21,-5.679 -11.18,0 -21.75,1.886 -31.7,5.679 -9.94,3.77 -18.67,9.41 -26.17,16.891 -7.48,7.5 -13.38,16.816 -17.74,28.008 -4.35,11.191 -6.52,24.082 -6.52,38.73"/><path style="fill:#040606;fill-opacity:1;fill-rule:nonzero;stroke:none" id="path44" d="m 4415.85,567.559 c -3.61,6.089 -7.75,12.91 -12.44,20.472 -4.69,7.547 -9.75,15.43 -15.18,23.547 -5.44,8.152 -11.07,16.434 -16.9,24.813 -5.85,8.371 -11.64,16.461 -17.39,24.289 -5.78,7.8 -11.35,15.179 -16.77,22.09 -5.44,6.902 -10.46,12.968 -15.05,18.242 V 567.559 h -23.45 v 170.953 h 19 c 7.72,-8.223 15.99,-17.813 24.78,-28.731 8.81,-10.929 17.53,-22.203 26.16,-33.801 8.63,-11.589 16.79,-22.968 24.43,-34.16 7.65,-11.199 14.1,-21.16 19.35,-29.871 v 126.563 h 23.45 V 567.559 h -19.99"/><path style="fill:#040606;fill-opacity:1;fill-rule:nonzero;stroke:none" id="path46" d="m 1745.09,306.352 h 23.9219 V 477.301 H 1745.09 Z"/><path style="fill:#040606;fill-opacity:1;fill-rule:nonzero;stroke:none" id="path48" d="m 1948.36,306.352 c -3.62,6.07 -7.77,12.886 -12.46,20.468 -4.69,7.551 -9.75,15.41 -15.17,23.551 -5.43,8.117 -11.06,16.41 -16.9,24.801 -5.84,8.359 -11.64,16.469 -17.39,24.277 -5.77,7.813 -11.35,15.18 -16.77,22.11 -5.43,6.902 -10.46,12.972 -15.06,18.242 V 306.352 h -23.43 v 170.949 h 19 c 7.72,-8.223 15.99,-17.813 24.78,-28.731 8.8,-10.929 17.52,-22.199 26.15,-33.832 8.64,-11.578 16.78,-22.957 24.43,-34.16 7.64,-11.187 14.09,-21.129 19.36,-29.84 v 126.563 h 23.43 V 306.352 h -19.97"/><path style="fill:#040606;fill-opacity:1;fill-rule:nonzero;stroke:none" id="path50" d="m 2070.22,323.359 c 24.99,0 37.49,8.551 37.49,25.641 0,5.281 -1.1,9.77 -3.33,13.461 -2.21,3.711 -5.22,6.891 -9,9.609 -3.79,2.731 -8.09,5.078 -12.96,7.051 -4.84,1.949 -9.98,3.93 -15.41,5.918 -6.25,2.133 -12.18,4.551 -17.76,7.262 -5.6,2.738 -10.44,5.918 -14.55,9.629 -4.11,3.691 -7.38,8.09 -9.76,13.191 -2.38,5.109 -3.57,11.277 -3.57,18.508 0,14.98 5.09,26.66 15.3,35.019 10.2,8.403 24.25,12.602 42.18,12.602 10.36,0 19.78,-1.109 28.25,-3.32 8.48,-2.231 14.68,-4.668 18.62,-7.289 l -7.64,-19.493 c -3.45,2.153 -8.6,4.243 -15.42,6.313 -6.83,2.027 -14.77,3.07 -23.81,3.07 -4.6,0 -8.88,-0.492 -12.82,-1.492 -3.96,-0.969 -7.41,-2.461 -10.37,-4.43 -2.95,-1.968 -5.3,-4.488 -7.03,-7.519 -1.73,-3.051 -2.59,-6.621 -2.59,-10.738 0,-4.614 0.9,-8.481 2.72,-11.59 1.81,-3.121 4.36,-5.871 7.64,-8.282 3.29,-2.378 7.12,-4.57 11.48,-6.539 4.35,-1.972 9.16,-3.953 14.42,-5.902 7.41,-2.988 14.19,-5.937 20.36,-8.891 6.17,-2.957 11.51,-6.5 16.03,-10.617 4.52,-4.101 8.02,-9 10.48,-14.691 2.48,-5.66 3.71,-12.52 3.71,-20.578 0,-14.961 -5.47,-26.473 -16.41,-34.532 -10.93,-8.05 -26.35,-12.089 -46.25,-12.089 -6.74,0 -12.95,0.437 -18.63,1.339 -5.67,0.918 -10.72,1.981 -15.16,3.231 -4.45,1.211 -8.27,2.527 -11.49,3.937 -3.2,1.391 -5.71,2.602 -7.52,3.582 l 7.16,19.739 c 3.79,-2.149 9.54,-4.528 17.28,-7.168 7.71,-2.61 17.17,-3.942 28.36,-3.942"/><path style="fill:#040606;fill-opacity:1;fill-rule:nonzero;stroke:none" id="path52" d="m 2181.48,306.352 h 23.9297 V 477.301 H 2181.48 Z"/><path style="fill:#040606;fill-opacity:1;fill-rule:nonzero;stroke:none" id="path54" d="m 2314.93,325.82 c 22.7,0 39.64,5.821 50.82,17.399 11.18,11.601 16.77,27.832 16.77,48.711 0,20.879 -5.59,37.148 -16.77,48.73 -11.18,11.602 -28.12,17.41 -50.82,17.41 -6.75,0 -11.96,-0.082 -15.66,-0.242 -3.7,-0.18 -6.29,-0.328 -7.78,-0.527 V 326.559 c 1.49,-0.168 4.08,-0.329 7.78,-0.489 3.7,-0.172 8.91,-0.25 15.66,-0.25 z m 93,66.11 c 0,-14.782 -2.3,-27.649 -6.91,-38.61 -4.59,-10.941 -11.1,-19.98 -19.48,-27.129 -8.4,-7.152 -18.42,-12.48 -30.09,-16.043 -11.68,-3.527 -24.51,-5.289 -38.49,-5.289 -6.91,0 -14.52,0.289 -22.82,0.86 -8.3,0.59 -15.83,1.679 -22.57,3.34 V 474.84 c 6.74,1.64 14.27,2.738 22.57,3.34 8.3,0.57 15.91,0.84 22.82,0.84 13.98,0 26.81,-1.758 38.49,-5.29 11.67,-3.539 21.69,-8.89 30.09,-16.039 8.38,-7.16 14.89,-16.211 19.48,-27.121 4.61,-10.941 6.91,-23.832 6.91,-38.64"/><path style="fill:#040606;fill-opacity:1;fill-rule:nonzero;stroke:none" id="path56" d="m 2463.19,306.352 v 170.949 h 104.35 V 456.82 h -80.42 v -50.832 h 71.54 v -19.957 h -71.54 V 326.82 h 86.58 v -20.468 h -110.51"/><path style="fill:#040606;fill-opacity:1;fill-rule:nonzero;stroke:none" id="path58" d="m 2814.72,477.301 v -20.723 h -53.78 V 306.352 H 2737 v 150.226 h -53.76 v 20.723 h 131.48"/><path style="fill:#040606;fill-opacity:1;fill-rule:nonzero;stroke:none" id="path60" d="m 2859.62,306.352 v 170.949 h 104.34 V 456.82 h -80.42 v -50.832 h 71.55 v -19.957 h -71.55 V 326.82 h 86.6 v -20.468 h -110.52"/><path style="fill:#040606;fill-opacity:1;fill-rule:nonzero;stroke:none" id="path62" d="m 3086.82,302.641 c -12.01,0 -22.93,1.968 -32.81,5.929 -9.88,3.93 -18.34,9.692 -25.41,17.25 -7.09,7.559 -12.56,16.91 -16.42,27.989 -3.86,11.113 -5.79,23.832 -5.79,38.121 0,14.3 2.18,27.031 6.54,38.129 4.36,11.089 10.24,20.429 17.65,28.011 7.4,7.551 16.05,13.321 25.89,17.258 9.88,3.953 20.4,5.922 31.59,5.922 7.07,0 13.45,-0.488 19.13,-1.488 5.67,-0.973 10.59,-2.141 14.79,-3.434 4.2,-1.328 7.61,-2.637 10.23,-3.969 2.63,-1.328 4.45,-2.3 5.44,-2.949 l -6.9,-19.738 c -1.5,0.988 -3.63,2.066 -6.42,3.199 -2.81,1.149 -5.97,2.32 -9.5,3.457 -3.55,1.172 -7.41,2.113 -11.61,2.832 -4.19,0.762 -8.43,1.129 -12.7,1.129 -9.05,0 -17.18,-1.578 -24.43,-4.687 -7.23,-3.141 -13.4,-7.653 -18.48,-13.571 -5.12,-5.922 -9.03,-13.133 -11.74,-21.601 -2.7,-8.481 -4.06,-17.969 -4.06,-28.5 0,-10.192 1.19,-19.469 3.59,-27.871 2.36,-8.399 5.94,-15.579 10.7,-21.598 4.77,-5.981 10.75,-10.633 17.9,-13.93 7.17,-3.281 15.51,-4.922 25.04,-4.922 11.02,0 20.16,1.153 27.39,3.461 7.22,2.301 12.66,4.352 16.28,6.149 l 6.16,-19.731 c -1.15,-0.84 -3.2,-1.847 -6.16,-3.078 -2.96,-1.23 -6.66,-2.441 -11.1,-3.582 -4.45,-1.148 -9.62,-2.117 -15.55,-2.957 -5.92,-0.82 -12.33,-1.23 -19.24,-1.23"/><path style="fill:#040606;fill-opacity:1;fill-rule:nonzero;stroke:none" id="path64" d="m 3293.55,477.301 h 23.92 V 306.352 h -23.92 v 78.918 h -83.65 v -78.918 h -23.91 v 170.949 h 23.91 v -71.313 h 83.65 v 71.313"/><path style="fill:#040606;fill-opacity:1;fill-rule:nonzero;stroke:none" id="path66" d="m 3496.83,306.352 c -3.63,6.07 -7.79,12.886 -12.47,20.468 -4.69,7.551 -9.76,15.41 -15.18,23.551 -5.41,8.117 -11.05,16.41 -16.89,24.801 -5.86,8.359 -11.66,16.469 -17.41,24.277 -5.75,7.813 -11.34,15.18 -16.76,22.11 -5.41,6.902 -10.46,12.972 -15.05,18.242 V 306.352 h -23.42 v 170.949 h 18.98 c 7.73,-8.223 16,-17.813 24.79,-28.731 8.79,-10.929 17.52,-22.199 26.16,-33.832 8.63,-11.578 16.77,-22.957 24.41,-34.16 7.64,-11.187 14.09,-21.129 19.37,-29.84 v 126.563 h 23.44 V 306.352 h -19.97"/><path style="fill:#040606;fill-opacity:1;fill-rule:nonzero;stroke:none" id="path68" d="m 3597.22,391.93 c 0,-10.352 1.3,-19.782 3.94,-28.239 2.64,-8.48 6.38,-15.66 11.22,-21.582 4.86,-5.918 10.78,-10.468 17.78,-13.687 6.97,-3.211 14.83,-4.813 23.56,-4.813 8.7,0 16.5,1.602 23.42,4.813 6.92,3.219 12.79,7.769 17.64,13.687 4.84,5.922 8.58,13.102 11.23,21.582 2.63,8.457 3.93,17.887 3.93,28.239 0,10.371 -1.3,19.789 -3.93,28.261 -2.65,8.481 -6.39,15.668 -11.23,21.61 -4.85,5.89 -10.72,10.461 -17.64,13.687 -6.92,3.184 -14.72,4.801 -23.42,4.801 -8.73,0 -16.59,-1.617 -23.56,-4.801 -7,-3.226 -12.92,-7.797 -17.78,-13.687 -4.84,-5.942 -8.58,-13.129 -11.22,-21.61 -2.64,-8.472 -3.94,-17.89 -3.94,-28.261 z m -25.16,0 c 0,14.648 2.19,27.558 6.52,38.75 4.37,11.191 10.29,20.511 17.77,27.992 7.49,7.476 16.2,13.129 26.16,16.898 9.93,3.782 20.51,5.68 31.68,5.68 11.03,0 21.44,-1.898 31.21,-5.68 9.79,-3.769 18.4,-9.422 25.78,-16.898 7.41,-7.481 13.28,-16.801 17.64,-27.992 4.37,-11.192 6.54,-24.102 6.54,-38.75 0,-14.629 -2.17,-27.539 -6.54,-38.731 -4.36,-11.187 -10.23,-20.508 -17.64,-27.988 -7.38,-7.481 -15.99,-13.121 -25.78,-16.91 -9.77,-3.77 -20.18,-5.66 -31.21,-5.66 -11.17,0 -21.75,1.89 -31.68,5.66 -9.96,3.789 -18.67,9.429 -26.16,16.91 -7.48,7.48 -13.4,16.801 -17.77,27.988 -4.33,11.192 -6.52,24.102 -6.52,38.731"/><path style="fill:#040606;fill-opacity:1;fill-rule:nonzero;stroke:none" id="path70" d="m 3893.48,327.07 v -20.718 h -102.86 v 170.949 h 23.93 V 327.07 h 78.93"/><path style="fill:#040606;fill-opacity:1;fill-rule:nonzero;stroke:none" id="path72" d="m 3945.53,391.93 c 0,-10.352 1.32,-19.782 3.95,-28.239 2.62,-8.48 6.37,-15.66 11.21,-21.582 4.85,-5.918 10.79,-10.468 17.78,-13.687 6.99,-3.211 14.85,-4.813 23.55,-4.813 8.71,0 16.53,1.602 23.45,4.813 6.89,3.219 12.76,7.769 17.63,13.687 4.85,5.922 8.59,13.102 11.21,21.582 2.64,8.457 3.96,17.887 3.96,28.239 0,10.371 -1.32,19.789 -3.96,28.261 -2.62,8.481 -6.36,15.668 -11.21,21.61 -4.87,5.89 -10.74,10.461 -17.63,13.687 -6.92,3.184 -14.74,4.801 -23.45,4.801 -8.7,0 -16.56,-1.617 -23.55,-4.801 -6.99,-3.226 -12.93,-7.797 -17.78,-13.687 -4.84,-5.942 -8.59,-13.129 -11.21,-21.61 -2.63,-8.472 -3.95,-17.89 -3.95,-28.261 z m -25.15,0 c 0,14.648 2.17,27.558 6.52,38.75 4.36,11.191 10.27,20.511 17.76,27.992 7.48,7.476 16.21,13.129 26.16,16.898 9.95,3.782 20.53,5.68 31.7,5.68 11.01,0 21.42,-1.898 31.2,-5.68 9.8,-3.769 18.38,-9.422 25.79,-16.898 7.4,-7.481 13.28,-16.801 17.63,-27.992 4.35,-11.192 6.52,-24.102 6.52,-38.75 0,-14.629 -2.17,-27.539 -6.52,-38.731 -4.35,-11.187 -10.23,-20.508 -17.63,-27.988 -7.41,-7.481 -15.99,-13.121 -25.79,-16.91 -9.78,-3.77 -20.19,-5.66 -31.2,-5.66 -11.17,0 -21.75,1.89 -31.7,5.66 -9.95,3.789 -18.68,9.429 -26.16,16.91 -7.49,7.48 -13.4,16.801 -17.76,27.988 -4.35,11.192 -6.52,24.102 -6.52,38.731"/><path style="fill:#040606;fill-opacity:1;fill-rule:nonzero;stroke:none" id="path74" d="m 4243.28,390.469 h 23.96 v -79.938 c -2,-0.672 -4.84,-1.39 -8.54,-2.23 -3.68,-0.821 -7.98,-1.621 -12.82,-2.461 -4.84,-0.82 -10.17,-1.512 -15.92,-2.09 -5.75,-0.59 -11.58,-0.859 -17.5,-0.859 -12.01,0 -22.95,1.968 -32.81,5.918 -9.87,3.941 -18.35,9.703 -25.42,17.261 -7.07,7.578 -12.53,16.86 -16.39,27.871 -3.87,11.02 -5.79,23.7 -5.79,37.989 0,14.3 2.17,27.031 6.51,38.129 4.36,11.089 10.25,20.429 17.64,28.011 7.4,7.551 16.08,13.321 26.05,17.258 9.93,3.953 20.58,5.922 31.93,5.922 7.74,0 14.6,-0.488 20.59,-1.488 6.02,-0.973 11.15,-2.141 15.43,-3.434 4.26,-1.328 7.77,-2.637 10.49,-3.969 2.7,-1.328 4.55,-2.3 5.54,-2.949 l -7.65,-19.98 c -4.76,3.109 -11.09,5.711 -18.99,7.761 -7.9,2.047 -15.96,3.098 -24.17,3.098 -8.73,0 -16.67,-1.578 -23.8,-4.687 -7.17,-3.141 -13.26,-7.653 -18.28,-13.571 -5,-5.922 -8.91,-13.133 -11.7,-21.601 -2.8,-8.481 -4.2,-17.969 -4.2,-28.5 0,-10.192 1.2,-19.469 3.57,-27.871 2.4,-8.399 6,-15.579 10.87,-21.598 4.85,-5.981 10.83,-10.633 18.01,-13.93 7.15,-3.281 15.56,-4.922 25.28,-4.922 6.91,0 12.78,0.352 17.62,1.121 4.86,0.719 8.36,1.418 10.49,2.09 v 63.649"/><path style="fill:#040606;fill-opacity:1;fill-rule:nonzero;stroke:none" id="path76" d="m 4365.15,306.352 v 68.57 c -11.35,17.578 -22.03,34.937 -32.07,52.047 -10.01,17.109 -19.48,33.89 -28.37,50.332 h 28.12 c 6.27,-13.492 13.24,-27.18 20.97,-41.071 7.74,-13.91 15.72,-27.269 23.93,-40.101 8.06,12.832 15.95,26.191 23.69,40.101 7.75,13.891 14.8,27.579 21.21,41.071 h 26.65 c -8.87,-16.442 -18.32,-33.16 -28.37,-50.192 -10.04,-17.05 -20.65,-34.257 -31.82,-51.699 v -69.058 h -23.94"/><path style="fill:#040606;fill-opacity:1;fill-rule:nonzero;stroke:none" id="path78" d="m 2369.38,1961 h 230.21 V 938.34 h -230.21 v 433.85 H 1982.76 V 938.34 H 1752.55 V 1961 h 230.21 v -391.05 h 386.62 V 1961"/><path style="fill:#040606;fill-opacity:1;fill-rule:nonzero;stroke:none" id="path80" d="M 4478.77,1961 V 1764.73 H 4170.32 V 938.34 h -230.21 v 826.39 h -308.4 V 1961 h 847.06"/><path style="fill:#040606;fill-opacity:1;fill-rule:nonzero;stroke:none" id="path82" d="m 2872.6,938.34 h 230.188 v 712.363 H 2872.6 Z"/><path style="fill:#040606;fill-opacity:1;fill-rule:nonzero;stroke:none" id="path84" d="m 3217.06,1248.64 h 230.18 v 712.363 h -230.18 z"/><path style="fill:#040606;fill-opacity:1;fill-rule:nonzero;stroke:none" id="path86" d="m 2872.6,1764.65 h 230.188 v 196.355 H 2872.6 Z"/><path style="fill:#040606;fill-opacity:1;fill-rule:nonzero;stroke:none" id="path88" d="m 3217.06,938.34 h 230.18 v 196.359 h -230.18 z"/><path style="fill:#040606;fill-opacity:1;fill-rule:nonzero;stroke:none" id="path90" d="M 434.805,397.34 H 764.2 V 1416.65 H 434.805 Z"/><path style="fill:#040606;fill-opacity:1;fill-rule:nonzero;stroke:none" id="path92" d="m 927.676,841.371 h 329.395 v 1019.3 H 927.676 Z"/><path style="fill:#040606;fill-opacity:1;fill-rule:nonzero;stroke:none" id="path94" d="M 434.805,1579.7 H 764.2 v 280.977 H 434.805 Z"/><path style="fill:#040606;fill-opacity:1;fill-rule:nonzero;stroke:none" id="path96" d="m 927.676,397.34 h 329.395 V 678.32 H 927.676 Z"/></g></g></svg>