<svg xmlns="http://www.w3.org/2000/svg" width="1073.5" height="453.1" version="1.1" viewBox="0 0 1073.5 453.1"><defs><clipPath id="clipPath41"><path d="M 0,339.822 H 805.129 V 0 H 0 Z"/></clipPath></defs><g><g clip-path="url(#clipPath41)" transform="matrix(1.3333 0 0 -1.3333 0 453.1)"><g><path fill="#d5d7d4" d="m0 0 63.703 7.822c2.81 0.345 5.366-1.654 5.711-4.463l7.822-63.703c0.345-2.809-1.652-5.366-4.462-5.711l-63.703-7.822c-2.809-0.345-5.367 1.653-5.712 4.461l-7.822 63.704c-0.345 2.81 1.653 5.367 4.463 5.712" transform="translate(599.14 288.24)"/></g><g><path fill="#ee252c" d="m0 0c2.053-16.722-9.838-31.941-26.56-33.994-16.721-2.053-31.941 9.837-33.994 26.559s9.838 31.941 26.56 33.995c16.722 2.053 31.94-9.838 33.994-26.56" transform="translate(665.84 258.61)"/></g><g><path fill="#d5d7d4" d="m0 0 63.704 7.822c2.81 0.345 5.365-1.653 5.71-4.463l7.822-63.703c0.345-2.809-1.652-5.366-4.462-5.711l-63.703-7.821c-2.809-0.346-5.367 1.652-5.712 4.46l-7.821 63.704c-0.346 2.81 1.652 5.367 4.462 5.712" transform="translate(680.5 298.23)"/></g><g><path fill="#ee252c" d="m0 0c2.053-16.722-9.838-31.941-26.56-33.995-16.721-2.053-31.94 9.838-33.994 26.56-2.052 16.722 9.838 31.941 26.56 33.994s31.941-9.837 33.994-26.559" transform="translate(747.2 268.6)"/></g><g><path fill="#231f20" d="m0 0-1.52 12.381-49.525-6.081 1.52-12.381zm-60.459-53.506-9.122 74.288 57.78 7.094c16.508 2.027 25.695-4.553 27.56-19.741 1.851-15.078-5.478-23.63-21.986-25.657l-41.271-5.068 3.547-28.889z" transform="translate(205.56 210.55)"/></g><g><path fill="#231f20" d="m0 0 49.525 6.081-1.52 12.381-49.526-6.081zm2.027-16.509 3.547-28.889-16.509-2.027-9.121 74.288 57.78 7.094c16.508 2.027 25.688-4.499 27.539-19.576 0.879-7.154 0.34-12.555-1.613-16.201 2.845-3.617 4.654-8.562 5.424-14.835l2.534-20.636-16.508-2.026-2.535 20.635c-0.675 5.502-3.765 7.916-9.267 7.241z" transform="translate(246.83 215.62)"/></g><g><path fill="#231f20" d="m0 0-57.78-7.094c-16.509-2.028-25.776 5.213-27.803 21.722l-6.081 49.525 82.542 10.135 2.027-16.508-66.034-8.108 1.521-12.381 66.034 8.107 2.026-16.508-66.034-8.108 0.507-4.127c0.676-5.504 3.763-7.917 9.268-7.241l57.78 7.094z" transform="translate(409.24 189.48)"/></g><g><path fill="#231f20" d="m0 0 66.034 8.108-1.52 12.381-41.272-5.067c-16.508-2.027-25.678 4.415-27.509 19.328-1.884 15.353 5.427 24.043 21.936 26.07l57.779 7.095 2.027-16.509-66.034-8.108 1.521-12.381 41.27 5.067c16.509 2.027 25.693-4.526 27.55-19.658 1.859-15.134-5.467-23.713-21.975-25.74l-57.78-7.094z" transform="translate(415.46 207)"/></g><g><path fill="#231f20" d="m0 0 66.033 8.108-1.519 12.381-41.272-5.067c-16.509-2.027-25.678 4.415-27.509 19.328-1.885 15.353 5.426 24.043 21.935 26.07l57.779 7.095 2.028-16.509-66.035-8.108 1.521-12.381 41.271 5.067c16.508 2.027 25.692-4.526 27.55-19.658 1.859-15.134-5.468-23.713-21.975-25.74l-57.781-7.094z" transform="translate(506.26 218.15)"/></g><g><path fill="#050606" d="m0 0c-3.263-0.4-5.396-3.395-4.995-6.658l5.034-40.999-40.999-5.034c-3.263-0.401-5.625-3.425-5.224-6.687l4.05-32.983c0.4-3.263 3.423-5.624 6.686-5.223l40.999 5.034 5.034-41c0.402-3.262 3.167-5.424 6.43-5.024l33.212 4.078c3.262 0.401 5.423 3.166 5.023 6.43l-5.034 41 40.999 5.034c3.263 0.401 5.625 3.423 5.224 6.686l-4.05 32.982c-0.4 3.263-3.423 5.626-6.686 5.225l-40.999-5.034-5.035 40.999c-0.4 3.263-3.194 5.653-6.457 5.252z" transform="translate(91.274 190.36)"/><path fill="none" stroke="#fff" stroke-linecap="round" stroke-width="2.022" d="m0 0c-3.263-0.4-5.396-3.395-4.995-6.658l5.034-40.999-40.999-5.034c-3.263-0.401-5.625-3.425-5.224-6.687l4.05-32.983c0.4-3.263 3.423-5.624 6.686-5.223l40.999 5.034 5.034-41c0.402-3.262 3.167-5.424 6.43-5.024l33.212 4.078c3.262 0.401 5.423 3.166 5.023 6.43l-5.034 41 40.999 5.034c3.263 0.401 5.625 3.423 5.224 6.686l-4.05 32.982c-0.4 3.263-3.423 5.626-6.686 5.225l-40.999-5.034-5.035 40.999c-0.4 3.263-3.194 5.653-6.457 5.252z" transform="translate(91.274 190.36)"/></g><g><path fill="#161616" d="m0 0c-1.032-0.127-1.732-1.022-1.605-2.055l5.494-44.747-44.748-5.494c-1.031-0.127-1.731-1.022-1.604-2.054l3.87-31.525c0.127-1.032 1.033-1.814 2.065-1.688l44.747 5.495 5.484-44.666c0.127-1.031 1.033-1.814 2.065-1.687l31.607 3.88c1.032 0.127 1.721 1.106 1.594 2.137l-5.484 44.666 44.747 5.494c1.032 0.127 1.722 1.105 1.595 2.138l-3.87 31.524c-0.127 1.032-1.023 1.731-2.055 1.605l-44.747-5.495-5.494 44.747c-0.127 1.033-1.023 1.732-2.055 1.606z" transform="translate(93.054 185.33)"/></g><g><path fill="#050606" d="m0 0-5.837-7.472-5.837-7.47 7.471-5.838 7.471-5.836-0.49 3.992 13.307 1.634-2.287 18.632-13.308-1.634z" transform="translate(68.59 130.43)"/></g><g><path fill="#050606" d="m0 0 14.942-11.674-5.837-7.472-5.837-7.47-0.49 3.992-13.308-1.634-2.288 18.632 13.308 1.634z" transform="translate(161.53 141.84)"/></g><g><path fill="#050606" d="m0 0-14.942 11.674-11.674-14.942 3.992 0.49 1.634-13.308 18.632 2.288-1.635 13.308z" transform="translate(124.11 171.37)"/></g><g><path fill="#050606" d="m0 0-5.837-7.472-5.837-7.47-14.942 11.674 3.992 0.49-1.634 13.308 18.632 2.288 1.634-13.308z" transform="translate(135.69 77.016)"/></g><g><path fill="#050606" d="m0 0c1.088-8.819-5.178-16.851-13.997-17.94s-16.851 5.179-17.94 13.997c0 7e-3 -1e-3 0.014-2e-3 0.021-1.089 8.819 5.178 16.851 13.997 17.94 8.818 1.088 16.85-5.178 17.94-13.997 0-7e-3 1e-3 -0.014 2e-3 -0.021" transform="translate(132.72 125.02)"/></g><g><path fill="#ed1c24" d="m0 0 79.438 9.754-1.828 14.894-49.649-6.096c-19.86-2.438-30.891 5.312-33.094 23.252-2.267 18.47 6.529 28.924 26.388 31.362l69.509 8.535 2.438-19.86-79.438-9.754 1.828-14.894 49.65 6.096c19.859 2.438 30.906-5.445 33.142-23.649 2.235-18.206-6.577-28.527-26.437-30.965l-69.509-8.535z" transform="translate(199.6 84.394)"/></g><g><path fill="#ed1c24" d="m0 0 99.298 12.192 2.439-19.859-39.72-4.877 8.535-69.509-19.86-2.438-8.534 69.509-39.72-4.877z" transform="translate(300.29 167.31)"/></g><g><path fill="#ed1c24" d="m0 0-1.829 14.895c-0.813 6.619-4.53 9.523-11.149 8.71l-39.719-4.877c-6.622-0.813-9.524-4.53-8.711-11.149l1.829-14.894zm-57.141-27.175 3.048-24.825-19.859-2.438-7.316 59.579c-2.438 19.859 6.273 31.008 26.132 33.447l39.72 4.877c19.859 2.438 31.008-6.273 33.446-26.132l7.316-59.579-19.86-2.438-3.048 24.824z" transform="translate(494.44 145.8)"/></g><g><path fill="#ed1c24" d="m0 0 59.579 7.315-1.829 14.895-59.579-7.315zm2.438-19.86 4.268-34.754-19.86-2.438-10.973 89.368 69.509 8.534c19.859 2.439 30.903-5.412 33.13-23.55 1.056-8.606 0.409-15.103-1.942-19.49 3.423-4.352 5.599-10.299 6.526-17.846l3.049-24.824-19.861-2.439-3.048 24.825c-0.812 6.619-4.53 9.523-11.148 8.71z" transform="translate(542.87 161.82)"/></g><g><path fill="#ed1c24" d="m0 0 99.298 12.192 2.438-19.859-39.718-4.877 8.534-69.509-19.86-2.438-8.534 69.509-39.72-4.877z" transform="translate(627.97 207.55)"/></g></g><text fill="#231f20" font-family="'Eight-Bit Madness'" font-size="60" transform="matrix(1.3333 0 0 -1.3333 0 453.1) matrix(.99255 .12187 .12187 -.99255 308.78 34.464)" xml:space="preserve"><tspan x="0 26.28 56.28 78.78 105.06 135.061 165.061 195.061 228.841 243.841 273.841" y="0">retrogaming</tspan></text></g></svg>