<svg xmlns="http://www.w3.org/2000/svg" xmlns:svg="http://www.w3.org/2000/svg" id="svg2" width="536.725" height="149.2" version="1.1" viewBox="0 0 536.725 149.2" xml:space="preserve"><metadata id="metadata8"/><g id="g10" transform="matrix(1.25,0,0,-1.25,0,149.2)"><g id="g12" transform="scale(0.1,0.1)"><path style="fill:#2e578f;fill-opacity:1;fill-rule:nonzero;stroke:none" id="path14" d="M 982.531,1127.57 877.188,1032.8 c -62.368,36.15 -112.793,50.41 -173.485,50.41 -66.5,0 -122.617,-31.36 -136.098,-76.05 -10.343,-34.215 6.672,-51.324 69.739,-66.547 l 91.39,-21.863 C 852.453,889.313 903.609,819.914 874.07,722.031 833.672,588.16 674.605,500.398 472.945,500.398 c -92.199,0 -188.379,21.707 -258.629,59.45 l 91.832,103.281 c 66.118,-32.332 125.168,-53.223 206.844,-53.223 93.36,0 151.805,31.344 169.617,90.285 12.907,42.747 -12.621,70.348 -80.347,85.512 L 518.43,805.66 c -75.09,18.078 -117.535,43.738 -134.653,83.653 -13.316,29.437 -14.652,63.675 -3.461,100.757 36.395,120.52 180.559,203.58 352.067,203.58 99.168,0 191.769,-24.56 250.148,-66.08"/><path style="fill:#2e578f;fill-opacity:1;fill-rule:nonzero;stroke:none" id="path16" d="m 1066.85,1173.49 172.57,0 -8.48,-259.845 c -3.39,-123.278 -22.43,-217.188 -22.43,-217.188 11.25,25.594 53.57,119.5 105.56,210.516 l 152.75,266.517 178.41,0 -14.4,-294.939 c -3.46,-61.664 -17.72,-174.492 -17.72,-174.492 8.66,20.843 79.85,164.062 110.45,219.07 l 142.06,250.361 171.42,0 -396.59,-664.779 -178.42,0 8.7,268.348 c 2.94,102.441 18.8,185.894 19.37,191.597 0,0 -44.39,-92.98 -96.9,-189.695 l -148.08,-270.25 -185.41,0 7.14,664.779"/><path style="fill:#2e578f;fill-opacity:1;fill-rule:nonzero;stroke:none" id="path18" d="m 2238.16,1149.71 c -131.28,-51.91 -233.34,-165.78 -276.33,-308.269 -29.31,-96.89 -22.99,-180.5 19.4,-244.992 42.22,-65.133 113.45,-92.496 236.22,-92.496 67.83,0 115.99,8.469 171.6,30.172 132.25,52.867 229.72,163.879 274.72,312.996 62.54,207.109 -31.52,334.679 -247.53,334.679 -60.81,0 -123.84,-11.34 -178.08,-32.09 z m 262.37,-153.429 c 2.87,-37.019 -4.71,-85.484 -25.11,-152.914 -50.74,-168.195 -119.93,-238.429 -233.3,-238.429 -38.61,0 -69.07,7.558 -90.22,22.761 -39.05,29.461 -42.37,99.766 -7.98,213.742 24.11,79.809 54.46,137.758 95.46,180.499 32.79,35.15 88.8,57.93 143.77,57.93 86.52,0 114.59,-50.35 117.38,-83.589"/><path style="fill:#2e578f;fill-opacity:1;fill-rule:nonzero;stroke:none" id="path20" d="m 2673.03,514.605 159.77,0 82.96,274.813 c 12.53,-0.93 16.62,-2.855 23.94,-5.684 24.56,-11.402 40.76,-42.765 85.42,-161.511 17.55,-46.282 24.95,-64.207 43.36,-107.618 l 192.57,0 c 0,0 -85.33,208.333 -117.68,255.829 -7.08,11.379 -12.36,17.082 -25.53,27.511 100.98,1.926 206.18,83.633 236.01,182.422 34.97,115.743 -36.26,193.123 -179.81,193.123 l -301.82,0.96 -199.19,-659.845 z m 385.11,553.195 c 39.65,0 72.34,-3.8 89.29,-9.52 34.79,-12.33 46.28,-39.89 33.97,-80.737 -8.33,-27.563 -27.16,-51.32 -51.58,-66.527 -27.06,-16.133 -59.1,-21.86 -129.12,-21.86 l -54.86,0 55.12,178.644 57.18,0"/><path style="fill:#2e578f;fill-opacity:1;fill-rule:nonzero;stroke:none" id="path22" d="m 3344.86,514.605 197.3,0 c 47.87,0 86.99,1.903 117.96,3.805 77.88,6.586 160.32,40.555 225.4,94.352 71.81,60.797 122.14,134.929 149.39,225.234 35.86,118.836 25.37,203.444 -31.05,263.054 -38.31,38.72 -90.07,60.4 -157.54,65.15 -32.14,1.88 -93.47,3.73 -140.19,3.73 l -163.44,0 -197.83,-655.325 z m 407,551.495 c 64.25,0 95.89,-18.98 111.83,-55.07 19.51,-43.745 8.2,-108.409 -15.07,-185.389 -42.17,-139.723 -110.45,-203.418 -217.9,-203.418 l -87.61,0 134,443.877 74.75,0"/><path style="fill:#2e578f;fill-opacity:1;fill-rule:nonzero;stroke:none" id="path24" d="m 827.086,134.488 33.383,0 0,-86.6872 c 0,-9.8516 0.453,-12.1289 2.804,-15.7305 3.727,-5.8984 11.415,-9.1211 22.161,-9.1211 14.23,0 23.312,5.7227 24.707,15.3828 0.484,2.8477 0.484,4.75 0.484,11.7696 l 0,84.3864 33.117,0 0,-88.7575 c 0,-12.5313 -0.215,-14.9805 -2.551,-20.6914 -4.199,-10.3985 -20.066,-24.750037 -55.05,-24.750037 -24.743,0 -42.715,6.031247 -52.039,17.570337 -5.391,6.8008 -7.016,12.1094 -7.016,24.8398 l 0,91.7888"/><path style="fill:#2e578f;fill-opacity:1;fill-rule:nonzero;stroke:none" id="path26" d="m 972.133,2.67969 32.657,0 0,48.55081 17.96,0 c 17.95,0 24.97,1.5508 32.42,4.3593 17.73,6.8086 28.02,21.1719 28.02,38.6485 0,15.2307 -8.16,27.3397 -23.34,34.1527 -9.1,4.109 -17.51,6.41 -45.04,6.41 l -42.677,0 0,-132.12131 z M 1025.55,113.469 c 13.76,0 21.93,-7.449 21.93,-19.7776 0,-6.3008 -1.15,-10.4726 -3.97,-14.0625 -4.44,-5.5195 -8.39,-6.8476 -21.7,-6.8476 l -17.02,0 0,40.6877 20.76,0"/><path style="fill:#2e578f;fill-opacity:1;fill-rule:nonzero;stroke:none" id="path28" d="m 1221.18,121.469 -17.28,-16.547 c -10.48,7.047 -21.49,10.316 -33.85,10.316 -9.58,0 -17.78,-2.297 -23.36,-6.687 -10.98,-8.5822 -13.79,-22.8791 -13.79,-42.6213 0,-18.7383 3.99,-30.8984 12.16,-37.5195 C 1151.12,23.6289 1160,21 1170.52,21 c 7.22,0 13.07,0.9688 18.45,3.2305 l 0,29.9883 -24.77,0 -4.2,21.5312 62.82,0 0,-62.8594 c -16.57,-7.94138 -34.79,-11.71091 -53.94,-11.71091 -24.3,0 -42.28,6.41015 -55.31,20.00001 -11.87,12.332 -17.25,26.3594 -17.25,46.0703 0,27.9492 11.2,47.789 33.79,60.059 11.9,6.429 24.04,9.281 39.47,9.281 19.61,0 37.35,-5.129 51.6,-15.121"/><path style="fill:#2e578f;fill-opacity:1;fill-rule:nonzero;stroke:none" id="path30" d="m 1245.67,2.67969 31.97,0 0,54.99221 c 2.54,-0.2305 3.46,-0.6328 5.1,-1.1602 5.57,-2.2929 10.66,-8.5703 26.67,-32.332 6.28,-9.2578 8.82,-12.8594 15.12,-21.50001 l 38.5,0 c 0,0 -29.63,41.64061 -38.96,51.16011 -2.12,2.25 -3.51,3.4102 -6.78,5.5196 20.1,0.3594 36.2,16.7304 36.2,36.4922 0,23.1684 -18.94,38.6364 -47.54,38.6364 l -60.28,0.203 0,-132.01131 z M 1289.22,113.34 c 7.88,0 14.61,-0.762 18.35,-1.86 7.65,-2.468 11.6,-8.019 11.6,-16.1792 0,-5.5195 -2.31,-10.2695 -6.28,-13.332 -4.4,-3.2188 -10.45,-4.3477 -24.36,-4.3477 l -10.89,0 0.21,35.7189 11.37,0"/><path style="fill:#2e578f;fill-opacity:1;fill-rule:nonzero;stroke:none" id="path32" d="m 1361.28,2.67969 34.06,0 11.42,31.37891 47.58,0 11.44,-31.37891 34.97,0 -51.07,132.16031 -35.23,0 -53.17,-132.16031 z m 62.05,77.76951 c 3.03,9.8399 7.69,25.4028 7.69,25.4028 0,0 4.91,-17.2739 6.54,-23.352 3.49,-12.6992 8.84,-26.5586 8.84,-26.5586 l -31.72,0 c 3.51,8.75 5.63,15 8.65,24.5078"/><path style="fill:#2e578f;fill-opacity:1;fill-rule:nonzero;stroke:none" id="path34" d="m 1512.99,2.67969 39.43,0 c 9.55,0 17.27,0.35156 23.34,0.71875 15.14,1.33203 29.62,8.12106 39.4,18.90236 10.7,12.1406 16.3,26.9492 16.3,45 0,23.7187 -7.24,40.6212 -22.15,52.5392 -9.99,7.73 -21.68,12.058 -35.42,12.988 -6.53,0.383 -18.89,0.781 -28.24,0.781 l -32.66,0 0,-130.92931 z m 48.07,110.17231 c 12.83,0 20.28,-3.821 25.66,-11.032 6.54,-8.7106 8.17,-21.6403 8.17,-37.0192 0,-27.9102 -9.8,-40.6211 -31.26,-40.6211 l -17.5,0 0,88.6723 14.93,0"/><path style="fill:#2e578f;fill-opacity:1;fill-rule:nonzero;stroke:none" id="path36" d="m 1654.56,134.488 92.38,0 -4.23,-21.508 -55.46,0 0,-30.6089 46.37,0 0,-21.5195 -45.92,0 0,-35.5235 61.36,0 0,-22.64841 -94.5,0 0,131.80831"/><path style="fill:#2e578f;fill-opacity:1;fill-rule:nonzero;stroke:none" id="path38" d="m 1849.81,134.711 39.17,0 8.42,-36.379 c 1.49,-7.2539 2.22,-11.9804 2.36,-16.9101 3.17,3.8281 8.67,10.207 14.33,16.5195 l 33.64,36.6176 38.48,0 -78.62,-77.727 -18.69,-54.15231 -34.09,0 18.7,54.15231 -23.7,77.879"/><path style="fill:#2e578f;fill-opacity:1;fill-rule:nonzero;stroke:none" id="path40" d="m 2017.7,129.891 c -26.7,-10.411 -48.09,-33.1918 -57.95,-61.7504 -6.67,-19.4101 -6.14,-36.1601 1.75,-49.0898 7.87,-12.97267 21.81,-18.449237 46.28,-18.449237 13.5,0 23.16,1.679687 34.45,6.039067 26.95,10.53127 47.43,32.74997 57.73,62.64847 14.32,41.4809 -3.42,66.9919 -46.5,66.9919 -12.11,0 -24.78,-2.269 -35.76,-6.39 z m 50.88,-30.7426 c 0.24,-7.4101 -1.73,-17.1289 -6.39,-30.6289 -11.64,-33.6679 -26.01,-47.7578 -48.6,-47.7578 -7.69,0 -13.7,1.5391 -17.74,4.5664 -7.54,5.8828 -7.59,20 0.33,42.8125 5.5,16 12.06,27.5782 20.62,36.1294 6.83,7.058 18.23,11.609 29.17,11.609 17.21,0 22.34,-10.078 22.61,-16.7306"/><path style="fill:#2e578f;fill-opacity:1;fill-rule:nonzero;stroke:none" id="path42" d="m 2142.57,134.488 33.4,0 -29.93,-86.6872 c -3.42,-9.8516 -3.73,-12.1289 -2.65,-15.7305 1.7,-5.8984 8.27,-9.1211 19.01,-9.1211 14.23,0 25.3,5.7227 30.05,15.3828 1.44,2.8477 2.11,4.75 4.52,11.7696 l 29.13,84.3864 33.17,0 -30.68,-88.7575 c -4.31,-12.5313 -5.37,-14.9805 -9.7,-20.6914 -7.78,-10.3985 -28.6,-24.750037 -63.59,-24.750037 -24.73,0 -40.62,6.031247 -45.96,17.570337 -3.04,6.8008 -2.83,12.1094 1.54,24.8398 l 31.69,91.7888"/><path style="fill:#2e578f;fill-opacity:1;fill-rule:nonzero;stroke:none" id="path44" d="m 2240.9,2.67969 31.98,0 18.97,54.99221 c 2.51,-0.2305 3.29,-0.6328 4.72,-1.1602 4.75,-2.2929 7.72,-8.5703 15.52,-32.332 3.09,-9.2578 4.38,-12.8594 7.69,-21.50001 l 38.5,0 c 0,0 -15.27,41.64061 -21.28,51.16011 -1.32,2.25 -2.37,3.4102 -4.88,5.5196 20.21,0.3594 41.94,16.7304 48.79,36.4922 7.99,23.1684 -5.57,38.6364 -34.23,38.6364 l -60.16,0.203 L 2240.9,2.67969 Z M 2322.67,113.34 c 7.92,0 14.38,-0.762 17.69,-1.86 6.8,-2.468 8.84,-8.019 6.03,-16.1792 -1.9,-5.5195 -5.88,-10.2695 -10.87,-13.332 -5.53,-3.2188 -11.93,-4.3477 -25.88,-4.3477 l -10.9,0 12.6,35.7189 11.33,0"/><path style="fill:#2e578f;fill-opacity:1;fill-rule:nonzero;stroke:none" id="path46" d="m 2526.06,60.0508 c 7.44,0 8.55,-0.1992 12.17,-1.1524 6.3,-2.0664 8.97,-8.5703 6.32,-16.1992 -2.14,-6.289 -7.75,-12.4179 -13.74,-15.4883 -4.43,-2.082 -9.47,-3.0312 -16.25,-3.0312 l -21.24,0 12.38,35.8711 20.36,0 z m -72.83,-57.37111 51.1,0 c 8.88,0 15.71,0.17187 20.95,0.35156 29,1.5 48.75,18.11715 55.05,36.39845 5.97,17.4023 -0.84,27.9609 -20.73,33.2617 8.14,1.8789 11.37,3.2305 17.26,6.7891 9,5.6992 15.59,13.2304 18.66,22.1485 3.25,9.449 1.63,17.031 -5.24,23.422 -7.41,6.961 -16.82,9.437 -36.69,9.437 l -54.83,0 -45.53,-131.80831 z m 88.89,109.35131 c 7.21,0 10.48,-0.75 12.97,-1.722 4.8,-2.25 6.66,-7.731 4.76,-13.2192 -1.81,-5.2812 -8.03,-11.7109 -13.11,-13.6093 -3.25,-1.3516 -6.89,-1.7188 -14.61,-1.7188 l -19.38,0 10.45,30.2693 18.92,0"/><path style="fill:#2e578f;fill-opacity:1;fill-rule:nonzero;stroke:none" id="path48" d="m 2628.58,134.488 33.37,0 -29.9,-86.6872 c -3.4,-9.8516 -3.76,-12.1289 -2.65,-15.7305 1.73,-5.8984 8.31,-9.1211 19.03,-9.1211 14.23,0 25.31,5.7227 30.01,15.3828 1.46,2.8477 2.12,4.75 4.56,11.7696 l 29.12,84.3864 33.13,0 -30.61,-88.7575 c -4.33,-12.5313 -5.43,-14.9805 -9.72,-20.6914 -7.78,-10.3985 -28.65,-24.750037 -63.63,-24.750037 -24.71,0 -40.6,6.031247 -45.97,17.570337 -3.03,6.8008 -2.81,12.1094 1.59,24.8398 l 31.67,91.7888"/><path style="fill:#2e578f;fill-opacity:1;fill-rule:nonzero;stroke:none" id="path50" d="m 2876.63,125.121 -21.93,-18.922 c -12.16,7.231 -22.12,10.051 -34.26,10.051 -13.28,0 -24.75,-6.27 -27.85,-15.16 -2.34,-6.8009 0.93,-10.2111 13.37,-13.2306 l 18.08,-4.3789 C 2848.55,77.5781 2858.21,63.7695 2851.5,44.25 2842.26,17.5508 2809.68,0 2769.34,0 c -18.41,0 -37.46,4.33203 -51.14,11.8906 l 19.23,20.6211 c 12.93,-6.4219 24.55,-10.6133 40.88,-10.6133 18.66,0 30.59,6.2422 34.62,17.9727 2.98,8.5586 -1.88,14.0391 -15.28,17.0898 l -16.59,3.9805 c -14.86,3.5781 -23.12,8.707 -26.19,16.6367 -2.46,5.9024 -2.41,12.711 0.15,20.1133 8.31,24.0466 37.84,40.6676 72.12,40.6676 19.78,0 38.14,-4.929 49.49,-13.238"/><path style="fill:#2e578f;fill-opacity:1;fill-rule:nonzero;stroke:none" id="path52" d="m 2907.92,134.488 34.1,0 -45.5,-131.80831 -34.09,0 45.49,131.80831"/><path style="fill:#2e578f;fill-opacity:1;fill-rule:nonzero;stroke:none" id="path54" d="m 2974.34,134.488 36.11,0 12.79,-52.7263 c 3.27,-14.0429 4.76,-27.9219 4.76,-37.4414 2.41,10.25 7.07,27.1797 9.98,36.3281 l 17.91,53.8396 31.01,0 -45.54,-131.80831 -34.03,0 -10.32,50.39061 c -3.14,16.5586 -6.7,35.1797 -6.89,43.3594 -2.59,-10.8477 -7.74,-26.4414 -11.3,-37.4102 l -18.52,-56.33981 -31.47,0 45.51,131.80831"/><path style="fill:#2e578f;fill-opacity:1;fill-rule:nonzero;stroke:none" id="path56" d="m 3118.81,134.488 92.38,0 -11.62,-21.508 -55.5,0 -10.59,-30.6089 46.42,0 -7.4,-21.5195 -45.98,0 -12.26,-35.5235 61.37,0 -7.84,-22.64841 -94.51,0 45.53,131.80831"/><path style="fill:#2e578f;fill-opacity:1;fill-rule:nonzero;stroke:none" id="path58" d="m 3338.39,125.121 -21.91,-18.922 c -12.18,7.231 -22.16,10.051 -34.25,10.051 -13.31,0 -24.78,-6.27 -27.85,-15.16 -2.35,-6.8009 0.9,-10.2111 13.37,-13.2306 l 18.08,-4.3789 c 24.51,-5.9024 34.19,-19.711 27.45,-39.2305 C 3304.04,17.5508 3271.42,0 3231.15,0 c -18.48,0 -37.49,4.33203 -51.23,11.8906 l 19.25,20.6211 c 12.99,-6.4219 24.57,-10.6133 40.91,-10.6133 18.63,0 30.61,6.2422 34.65,17.9727 2.94,8.5586 -1.92,14.0391 -15.32,17.0898 l -16.59,3.9805 c -14.86,3.5781 -23.12,8.707 -26.19,16.6367 -2.41,5.9024 -2.41,12.711 0.15,20.1133 8.31,24.0466 37.86,40.6676 72.12,40.6676 19.83,0 38.14,-4.929 49.49,-13.238"/><path style="fill:#2e578f;fill-opacity:1;fill-rule:nonzero;stroke:none" id="path60" d="m 3471.79,125.121 -21.9,-18.922 c -12.18,7.231 -22.15,10.051 -34.26,10.051 -13.31,0 -24.78,-6.27 -27.85,-15.16 -2.37,-6.8009 0.88,-10.2111 13.33,-13.2306 l 18.1,-4.3789 c 24.53,-5.9024 34.21,-19.711 27.45,-39.2305 C 3437.47,17.5508 3404.82,0 3364.53,0 c -18.41,0 -37.43,4.33203 -51.18,11.8906 l 19.24,20.6211 c 12.95,-6.4219 24.58,-10.6133 40.9,-10.6133 18.65,0 30.58,6.2422 34.65,17.9727 2.94,8.5586 -1.93,14.0391 -15.34,17.0898 l -16.55,3.9805 c -14.85,3.5781 -23.12,8.707 -26.24,16.6367 -2.39,5.9024 -2.36,12.711 0.18,20.1133 8.28,24.0466 37.86,40.6676 72.14,40.6676 19.8,0 38.13,-4.929 49.46,-13.238"/><path style="fill:#fabb22;fill-opacity:1;fill-rule:evenodd;stroke:none" id="path62" d="m 4270.06,323.988 c 36.84,-18.101 30.91,-27.476 -18.94,-56.89 -195.67,-10.785 -534.81,-0.086 -766.03,0 -45.43,0.019 -296.5,-14.68 -303.37,-11.387 -46.63,22.418 -146.49,11.301 -212.41,11.387 -35.35,2.539 -70.77,5.039 -106.16,7.578 -36.2,-11.668 -153.4,-22.981 -200.96,-7.578 -26.74,8.664 -113.6,19.89 -151.73,7.578 -13.01,-4.199 -220.9,-29.457 -242.69,-18.965 -10.63,5.105 -60.78,24.023 -87.24,11.387 -17.08,-8.18 -247.88,-28.516 -291.97,0 0,0 -137.83,-18.059 -151.73,-11.387 -46.24,22.258 -110.38,-14.277 -140.31,0 -49.08,23.477 -151.66,22.699 -200.98,30.348 -11.39,-23.602 -355,30.699 -413.36,0 -81.133,-42.676 -173.957,24.402 -276.828,7.578 -11.438,-16.063 -119.047,11.097 -147.891,0 -29.129,-11.18 -121.391,-12.465 -163.074,0 -35.067,10.48 -109.211,0.398 -132.719,-7.578 C 204.008,266.504 47.0898,299.52 0,308.824 c 0,3.778 5.07422,11.364 7.57031,11.364 94.03169,38.207 239.55869,36.503 335.62869,53.414 0,-6.344 32.227,-5.395 32.227,-11.688 92.637,-0.625 287.722,2.184 348.887,18.961 24.378,6.695 61.656,-7.582 68.261,-11.383 35.02,-20.066 171.012,12.219 197.211,0 6.32,1.238 12.645,2.516 18.945,3.801 0,2.523 10.47,-2.41 15.18,-3.801 39.95,-11.828 238.47,11.137 238.91,11.383 3.75,1.922 98.85,-11.383 125.12,-11.383 107.2,0 232.76,10.016 322.36,11.383 49.29,-3.805 98.59,-7.582 147.91,-11.383 65.75,32.246 215.49,11.321 303.36,11.383 155.33,0.109 346.66,7.578 527.14,7.578 23.58,0 202.38,6.457 202.38,6.457 92.43,-23.691 250.88,7.028 339.9,-44.383 51.14,-29.507 154.68,27.121 189.62,11.387 51.48,-23.207 179.98,-19.211 276.82,-18.965 26.57,2.516 53.09,5.063 79.63,7.578 11.83,-3.843 86.71,-22.082 94.84,-18.961 10.39,3.981 60.74,24.379 87.19,11.383 65.53,-32.16 231.6,-18.605 310.97,-18.961"/></g></g></svg>