<svg xmlns="http://www.w3.org/2000/svg" viewBox="0 0 900 250"><defs><clipPath id="a"><path d="M0 768h1024V0H0z"/></clipPath><clipPath id="b"><path d="M-3080.2 660h6160.4V-660h-6160.4z"/></clipPath><clipPath id="c"><path d="M3080.2 660h-6160V-660h6160z"/></clipPath></defs><g clip-path="url(#a)" transform="matrix(1.33333 0 0 -1.33333 -239.5 632.2)"><g clip-path="url(#b)" transform="matrix(.0974 0 0 -.0974 512 384)"><g clip-path="url(#c)"><path fill="#00395a" d="M1070 370.5C1060.3 461 993.7 498 945.4 498c-48.4 0-62.5-52.2-55.9-115.2L892 360c7.8-73.7 40.9-115.2 116-133.6 22.8-6.2 79.7-25.4 79.7-25.4zM1043.2-215C913.6-215 801-153 782 29l-1.5 14h151l3.8-36.1c7-66.8 41.4-111.7 98.2-111.7 62.2 0 82.3 39.7 75.5 105-.5 4-1.6 14.4-2 19.3-6.1 57.3-27.6 82.7-85 100.3L920 151c-122.4 38.1-180.6 82.6-196.2 230.7-11 105.6 19 223.3 138.7 223.3 71.4 0 339-10 339-10L1261 27c15-142.3-13.2-242-217.7-242M55.5-44l-67.2 640h-161l55.5-528.1c5.5-52.6 14.6-139.7-74.4-139.7S-291.6 33.7-295.2 68l-55.5 528h-161l84.1-800.5s255.9-10 334-10c97.2 0 159.3 74 149.1 170.4M104.8 596h161L350-204H189zM215.2-454h161l-13.7 130h-161zM-726.6 13.8l-38 362.4C-770 426.5-777.3 495-866.3 495s-81.8-68.5-76.5-118.8l38.1-362.4C-899.3-36.5-892-105-803-105s81.8 68.5 76.5 118.8m-65-228.8c-215 0-264 132.9-273.8 226.8l-38.5 366.7c-9.9 93.9 11.3 226.5 226.3 226.5S-613.8 472.4-604 378.5l38.5-366.7c9.9-93.9-11.1-226.8-226.1-226.8M719-204L697.3-94h-68.5l-50 470.7c-4.9 46-11.6 106.8 55.4 116.9v111.3a365 365 0 0 1-78.5-9.2C423 564 409.5 457.5 417.8 378.5l75.5-716.6L656-354.5 640.4-204zm-2045.6 66.7C-1335-57-1352 12-1445 12h-102.4l30.4-289h113.6c72.1 0 86.1 49.8 76.7 139.7m-32.3 431c-12.8 122-29 173.3-123 173.3h-31.7c-70 0-77-44.2-73.7-74.9l14-132.6L-1559 122h119.4c87.8 0 89.5 86.8 80.6 171.7m195.7-463.1c18-171.5-56.6-234.6-224.1-234.6h-288.3l-41.7 396-40.6 386.8c-9.8 93.8 11.3 227.2 226.3 227.2h45.6c205 0 280.5-134.7 298.1-302.4 13.3-126.4-16.5-216-126.3-236l.2-2.5c115-37.5 139.8-129.4 150.8-234.5"/><path fill="#e31837" d="M-2198.6-180h60l-6.3 60 192.7-120-167.4-120-6.3 60-59-.3c-166.8 0-249.2 55-217.6 194.3 16.3 71.8 33.7 113.1 65.3 226 42 149.3-85 300-284.4 300-247 0-346.1-254-136.5-743.6 43-100.4 99-210.7 169.2-330.7-14-3.7-29-5.7-44.6-5.7-66.6 0-128.6 36.2-165.4 90l-12.4 20.6C-2968.2-285.7-3037-73.2-3063.8 60c-65 324.8 60.6 598.6 417 600 310.6 1.2 631-301.6 483-600-71.3-143.8-119.7-240-34.8-240M-2470 120c-7 66.3-66.4 120-132.6 120-66.3 0-114.4-53.7-107.4-120s66.4-120 132.7-120c66.2 0 114.3 53.7 107.3 120m-328.8-690l-12.4 20.6c3.8-7 8-14 12.4-20.6m4444.5 706l-80.7-35.5c-56.5-23.9-70.4-59-66-100.4l1.3-12.7c6.3-60.5 48-92.4 92.9-92.4 57.7 0 73.3 43 64.2 129.1L1656 37h144l2.9-27.6C1817.9-133 1756.7-215 1609-215c-167.7 0-244.9 104.5-258.6 235-11.7 111.5 31.6 170.4 117.2 210l108.6 51c31.8 15.4 57.8 40 52.2 93.7l-2.3 22c-7 66-45.1 98.3-97 98.3-58.2 0-84.4-47.6-76.8-119.8l4.7-44.2h-144l-2.5 23.2c-15.9 151 24.4 250.8 207.5 250.8 137 0 244.3-77.1 261.7-242.8 12.5-118.8-36-183.7-134.2-226.2m1434.6-341l-23 110h-68.4l-49.5 471.2c-4.9 46-11.1 107.3 55.9 117.4v111.3c-30-.5-56.3-3.8-79-9.2-132.8-31.7-146.4-138.2-138.1-217.2L2827.8-95h-173l-72.5 690h-161l72.5-690h-50l11.6-110h50l7.7-73.2c8.3-79.1 44.5-185.8 183.9-217.6a455 455 0 0 1 130.8-7.5v.3l-23.4 111c-8.4-2-18-3-29.2-3-78.9 0-93.5 53.9-99.5 101.1l-9.3 88.9h173l14-133 162.8-17-15.8 150zM2218.4 13.8l-38 362.4c-5.4 50.3-12.6 118.8-101.6 118.8s-81.8-68.5-76.5-118.8l38.1-362.4c5.3-50.3 12.5-118.8 101.5-118.8s81.8 68.5 76.5 118.8m-65-228.8c-215 0-264 132.9-273.8 226.8l-38.5 366.7c-9.9 93.9 11.3 226.5 226.3 226.5s263.8-132.6 273.7-226.5l38.5-366.7c9.9-93.9-11.1-226.8-226.1-226.8"/></g></g></g></svg>