<?xml version="1.0" encoding="utf-8"?>
<!-- Generator: Adobe Illustrator 22.0.1, SVG Export Plug-In . SVG Version: 6.00 Build 0)  -->
<svg version="1.1" xmlns="http://www.w3.org/2000/svg" xmlns:xlink="http://www.w3.org/1999/xlink" x="0px" y="0px"
	 viewBox="0 0 1200 630" style="enable-background:new 0 0 1200 630;" xml:space="preserve">
<style type="text/css">
	.st0{fill:#DC0096;}
	.st1{display:none;}
	.st2{display:inline;}
	.st3{fill:#5050DC;}
</style>
<g id="_x30_3_x5F_BASELINE">
	<g>
		<g>
			<path class="st0" d="M747.1,443.6v5.1h-25.2v-37.2h5.5v32.1H747.1z"/>
			<path class="st0" d="M772.5,441.6l3.4,3.5c-2.5,2.7-7.4,4.3-11.3,4.3c-7.8,0-14.4-6.1-14.4-14.7c0-8.4,6.2-14.6,14-14.6
				c8.6,0,13.5,6.5,13.5,16.5h-22.1c0.7,4.7,4.1,8,8.9,8C767.4,444.6,770.8,443.3,772.5,441.6z M755.6,432.3h16.8
				c-0.6-4.3-3.3-7.5-8.1-7.5C760,424.8,756.4,427.8,755.6,432.3z"/>
			<path class="st0" d="M824,410.9v37.9h-5.3v-4.9c-2.2,3.5-5.6,5.5-10,5.5c-7.4,0-12.9-6.1-12.9-14.7c0-8.6,5.5-14.6,12.9-14.6
				c4.3,0,7.8,2.1,10,5.5v-14.7H824z M818.7,434.7c0-5.9-3.6-10-8.7-10c-5.1,0-8.8,4.1-8.8,10c0,5.9,3.6,10,8.8,10
				C815.1,444.7,818.7,440.5,818.7,434.7z"/>
			<path class="st0" d="M851.9,441.6l3.4,3.5c-2.5,2.7-7.4,4.3-11.3,4.3c-7.8,0-14.4-6.1-14.4-14.7c0-8.4,6.2-14.6,14-14.6
				c8.6,0,13.5,6.5,13.5,16.5h-22.1c0.7,4.7,4.1,8,8.9,8C846.8,444.6,850.2,443.3,851.9,441.6z M835,432.3h16.8
				c-0.6-4.3-3.3-7.5-8.1-7.5C839.4,424.8,835.8,427.8,835,432.3z M842.6,417.5h-3.9l6.4-8l5.3,1.1L842.6,417.5z"/>
			<path class="st0" d="M860.6,434.7c0-8,6.8-14.6,14.8-14.6c4,0,7.6,1.7,10.3,4.3l-3.6,3.4c-1.7-1.9-4.1-3-6.7-3
				c-5.1,0-9.3,4.6-9.3,10c0,5.5,4.2,10,9.4,10c2.6,0,5.1-1.2,6.8-3.1l3.6,3.3c-2.7,2.8-6.3,4.5-10.5,4.5
				C867.4,449.4,860.6,442.7,860.6,434.7z"/>
			<path class="st0" d="M890.5,410.9h5.3v37.9h-5.3V410.9z"/>
			<path class="st0" d="M901.9,412.8c0-1.7,1.4-3.2,3.3-3.2c1.7,0,3.2,1.5,3.2,3.2c0,1.7-1.5,3.3-3.2,3.3
				C903.4,416.1,901.9,414.5,901.9,412.8z M902.5,420.7h5.4v28h-5.4V420.7z"/>
			<path class="st0" d="M913,434.7c0-8,6.8-14.6,14.8-14.6c4,0,7.6,1.7,10.3,4.3l-3.6,3.4c-1.7-1.9-4.1-3-6.7-3
				c-5.1,0-9.3,4.6-9.3,10c0,5.5,4.2,10,9.4,10c2.6,0,5.1-1.2,6.8-3.1l3.6,3.3c-2.7,2.8-6.3,4.5-10.5,4.5
				C919.8,449.4,913,442.7,913,434.7z"/>
			<path class="st0" d="M720.7,491.8c0-8,6.8-14.6,14.8-14.6c4,0,7.6,1.7,10.3,4.3l-3.6,3.4c-1.7-1.9-4.1-3-6.7-3
				c-5.1,0-9.3,4.6-9.3,10c0,5.5,4.2,10,9.4,10c2.6,0,5.1-1.2,6.8-3.1l3.6,3.3c-2.7,2.8-6.3,4.5-10.5,4.5
				C727.5,506.5,720.7,499.8,720.7,491.8z"/>
			<path class="st0" d="M748.5,491.8c0-8,6.8-14.6,14.8-14.6c8,0,14.7,6.7,14.7,14.6c0,8-6.7,14.7-14.7,14.7
				C755.2,506.5,748.5,499.8,748.5,491.8z M772.6,491.8c0-5.4-4.3-10-9.3-10c-5.1,0-9.4,4.6-9.4,10c0,5.5,4.3,10,9.4,10
				C768.3,501.8,772.6,497.3,772.6,491.8z"/>
			<path class="st0" d="M783.2,467.9h5.3v37.9h-5.3V467.9z"/>
			<path class="st0" d="M795.2,467.9h5.3v37.9h-5.3V467.9z"/>
			<path class="st0" d="M830.7,488.9v17h-5.3V502c-2.1,2.9-5.9,4.5-9.3,4.5c-6,0-10.3-3.5-10.3-8.9c0-5.6,5-9.3,11.2-9.3
				c2.8,0,5.7,0.6,8.5,1.5v-0.9c0-3.5-1.6-7.3-7.2-7.3c-2.8,0-5.5,1.1-7.9,2.3l-2-4c4-2,7.5-2.8,10.6-2.8
				C826.5,477.2,830.7,481.9,830.7,488.9z M825.4,497v-3.7c-2.3-0.7-4.9-1.1-7.6-1.1c-3.7,0-6.9,2.1-6.9,5.1c0,3,2.7,4.9,6.2,4.9
				C820.6,502.2,824.5,500.5,825.4,497z"/>
			<path class="st0" d="M865.8,491.8c0,8.6-5.5,14.7-12.9,14.7c-4.3,0-7.8-2.1-10-5.5v4.9h-5.3v-37.9h5.3v14.7
				c2.2-3.4,5.6-5.5,10-5.5C860.3,477.2,865.8,483.2,865.8,491.8z M860.4,491.8c0-5.9-3.6-10-8.8-10c-5,0-8.7,4.1-8.7,10
				c0,5.9,3.6,10,8.7,10C856.7,501.8,860.4,497.6,860.4,491.8z"/>
			<path class="st0" d="M869.7,491.8c0-8,6.8-14.6,14.8-14.6c8,0,14.7,6.7,14.7,14.6c0,8-6.7,14.7-14.7,14.7
				C876.5,506.5,869.7,499.8,869.7,491.8z M893.8,491.8c0-5.4-4.3-10-9.3-10c-5.1,0-9.4,4.6-9.4,10c0,5.5,4.3,10,9.4,10
				C889.5,501.8,893.8,497.3,893.8,491.8z"/>
			<path class="st0" d="M920.4,477.2v4.7c-5.8,0-9.9,3.2-10.4,8.1v15.9h-5.4v-28h5.4v5.4C911.8,479.5,915.6,477.2,920.4,477.2z"/>
			<path class="st0" d="M948.1,488.9v17h-5.3V502c-2.1,2.9-5.9,4.5-9.3,4.5c-6,0-10.3-3.5-10.3-8.9c0-5.6,5-9.3,11.2-9.3
				c2.8,0,5.7,0.6,8.5,1.5v-0.9c0-3.5-1.6-7.3-7.2-7.3c-2.8,0-5.5,1.1-7.9,2.3l-2-4c4-2,7.5-2.8,10.6-2.8
				C943.9,477.2,948.1,481.9,948.1,488.9z M942.8,497v-3.7c-2.3-0.7-4.9-1.1-7.6-1.1c-3.7,0-6.9,2.1-6.9,5.1c0,3,2.7,4.9,6.2,4.9
				C938,502.2,941.9,500.5,942.8,497z"/>
			<path class="st0" d="M969.8,504.5c-1.5,1.2-3.6,2-5.6,2c-4.3,0-7.4-3.1-7.4-7.6v-16.5h-4.2v-4.6h4.2v-7.7h5.3v7.7h6.6v4.6h-6.6
				v16.1c0,2,1.3,3.4,2.9,3.4c1.2,0,2.3-0.4,2.9-1L969.8,504.5z"/>
			<path class="st0" d="M973.6,469.9c0-1.7,1.4-3.2,3.3-3.2c1.7,0,3.2,1.5,3.2,3.2c0,1.7-1.5,3.3-3.2,3.3
				C975,473.2,973.6,471.6,973.6,469.9z M974.1,477.8h5.4v28h-5.4V477.8z"/>
			<path class="st0" d="M993.5,477.8h6.6v4.6h-6.6v23.5h-5.3v-23.5H984v-4.6h4.2v-3.4c0-4.5,3-7.6,7.4-7.6c2,0,4.1,0.8,5.6,2l-2,3.6
				c-0.6-0.6-1.7-1-2.9-1c-1.6,0-2.9,1.4-2.9,3.4V477.8z"/>
		</g>
	</g>
</g>
<g id="_x30_2_x5F_TILT">
	<g id="TILT_x5F_02" class="st1">
		<g class="st2">
			<polygon class="st3" points="718,252.1 751.5,252.1 751.5,358.1 776.1,358.1 776.1,252.1 809.5,252.1 809.5,227.5 718,227.5 			
				"/>
			<rect x="871.4" y="227" class="st3" width="24.6" height="131.1"/>
			<rect x="824" y="269.5" class="st3" width="24.6" height="88.6"/>
			<path class="st3" d="M836.4,223.5c-4.2,0-7.8,1.4-10.6,4.3c-2.8,2.9-4.2,6.5-4.2,10.7s1.4,7.8,4.2,10.6c2.8,2.8,6.4,4.2,10.6,4.2
				c4.2,0,7.8-1.4,10.7-4.2c2.9-2.8,4.3-6.4,4.3-10.6s-1.4-7.8-4.3-10.7C844.2,224.9,840.6,223.5,836.4,223.5z"/>
			<path class="st3" d="M955.7,271.7c-2.8,0.7-5.6,1.6-8.3,2.6c-1,0.4-2,0.8-3,1.3v-34.7h-24.6v117.2h24.6v-64
				c0.5-0.1,1-0.3,1.5-0.4c2.1-0.5,4.2-0.9,6.3-1.1c2.1-0.2,4.3-0.3,6.5-0.3c3.9,0,7.9,0.4,11.8,1v-24.2
				C965.5,269.7,960.6,270.5,955.7,271.7z"/>
		</g>
	</g>
	<g id="TILT_x5F_01">
		<path class="st3" d="M861.1,172.1l-11.4-4.6l-11.4-4.6c-1.2,2.9-28.2,71.2,6.8,139.7l21.9-11.2
			C837.2,233.1,860.8,172.7,861.1,172.1z"/>
		<path class="st3" d="M911.5,281.2c3.9-5.3,8.7-9.7,14-12.8c5.5-3.2,11.5-4.9,17.5-5.2l-3.7-22.9c-9.4,2.2-18,6.6-25.1,12.6
			c-2.6,2.2-5.1,4.7-7.2,7.3c-2.1-19.3,0.7-38.7,4.9-50.7l-23.2-8.1c-5.5,15.6-10,43.9-4.5,72.1c6.4,33.2,24.2,56.3,51.4,67
			l8.9-22.9C928.7,311.4,917.6,299.2,911.5,281.2z"/>
		<path class="st3" d="M772.8,157.2l-12.7-21c-16,9.6-62.1,33.2-102.2,44.3l6.6,23.7c13.4-3.7,27.4-8.7,40.9-14.2
			c15.2,21,22.6,43.5,22.2,67.1c-0.4,19.9-6.4,33.2-6.5,33.3l11.1,5.2l11.1,5.3c0.3-0.7,8.1-17.3,8.8-42.1
			c0.6-19.8-3.4-48.5-23.7-78.9C747.1,171.5,763.1,163,772.8,157.2z"/>
		<path class="st3" d="M778.8,248.9c3.5,12.6,9.8,45.2-8.2,75.1l21,12.7c22.9-38,15.2-78.6,10.8-94.3L778.8,248.9z"/>
		<path class="st3" d="M771.8,224.8c6.3,5.4,15.8,4.6,21.2-1.7c5.4-6.3,4.6-15.8-1.7-21.2c-6.3-5.4-15.8-4.6-21.2,1.7
			S765.4,219.4,771.8,224.8z"/>
	</g>
</g>
<g id="_x30_1_x5F_SUPER">
	<g>
		<path class="st3" d="M247.9,248.9c11.5,0,18.5,5.5,21.4,16.7l22.7-9.1c-4.8-20.5-21.1-32.7-43.9-32.7c-25.5,0-42.7,15.2-42.7,37.9
			c0,24.8,18,33.9,35.7,39.5l1.9,0.6c12.7,3.8,22.7,6.9,22.7,17.2c0,8.2-6.5,13.1-17.4,13.1c-11.8,0-19-5.6-21.9-17.2l-22.4,9.7
			c4.8,20.8,20.8,32.7,44.1,32.7c25.9,0,42.7-15,42.7-38.3c0-24.3-16.8-33.2-34.9-39.1l-2.6-0.9c-13.2-4.2-22.8-7.3-22.8-17.1
			C230.5,255.6,235,248.9,247.9,248.9z"/>
		<path class="st3" d="M365.6,311.3c0,15.4-6.1,26.2-19.4,26.2c-10.4,0-15.1-6.5-15.1-19.2v-49.8H307v55.8c0,22.1,10.2,36,31,36
			c13.4,0,22.4-6.6,28.5-15.8v13.6h22.9v-89.6h-23.8V311.3z"/>
		<path class="st3" d="M464.7,266.1c-13.1,0-23.3,5.7-29.8,14.9v-12.5h-23.7V394H435v-48.8c6.1,8.6,16.1,15.2,30.1,15.2
			c21.9,0,40.5-16.9,40.5-47.2C505.6,283,487,266.1,464.7,266.1z M457.7,337.3c-13.3,0-23.5-9.1-23.5-24c0-14.7,10.2-24,23.5-24
			c13.4,0,23.5,9.5,23.5,24C481.2,327.8,471.2,337.3,457.7,337.3z"/>
		<path class="st3" d="M565.7,266.3c-28.1,0-45.9,20.4-45.9,47c0,26.7,17.7,47,48,47c17.2,0,28.3-5.7,35.7-11.8l-9.9-19.5
			c-6.3,5.4-14.7,9.1-25.5,9.1c-10.4,0-21.2-5.2-24-17.2l-0.2-0.4h66V314C609.9,285.1,593.1,266.3,565.7,266.3z M543.8,303.3
			c2.3-10.8,9.9-16.9,21.2-16.9c11.5,0,18.1,7.2,19.2,16.9H543.8z"/>
		<path class="st3" d="M676.3,266.3c-12.5,0-20.6,6.5-25.5,16.9v-14.7h-22.8v89.6h23.7v-40.5c0-17.2,7-26,22.6-26
			c3.8,0,7.5,0.4,10.8,1.4v-25.5C682.2,266.9,679.5,266.3,676.3,266.3z"/>
	</g>
</g>
</svg>
