<svg xmlns="http://www.w3.org/2000/svg" height="160.43" width="296.72"><path d="M84.17 65.94V53.92h11.97V42.05H84.16v11.88H72.14V42.05H0v96.14h96.14V65.94H84.17" fill="#ee2922"/><path d="M75.95 15.73h-13.4v13.4h13.4v-13.4M130.9 23.5h-10.05v10.06h10.05V23.5" fill="#788dc4"/><path d="M124.36 0h-13.41v13.4h13.4V0" fill="#174e94"/><path d="M115.6 38.1h-10.04v10.06h10.05V38.1" fill="#ee2922"/><path d="M114.5 61.67h-10.05v10.05h10.05V61.67" fill="#174e94"/><path d="M96.06 14.05H86V24.1h10.06V14.05" fill="#ee2922"/><path d="M68.31 109.15h20v-10h-20V87.86h21.21V77.78H56.05v44.36c0 11.18 12.83 10 12.83 10h21.77v-10.09H68.3v-12.9" fill="#fff"/><path d="M192.7 79.23h-15.16l-12.26 18.06c-1.3 1.94-2.58 3.87-3.8 5.97h-.15V79.23h-12.18v54.35h12.18v-17.74l4.6-5.73 13.38 23.47h14.28l-18.87-31.2zm66.05 24.11h-4.84V88.42c.89-.24 2.58-.4 5.56-.4 5.64 0 9.03 2.58 9.03 7.5 0 4.75-3.63 7.82-9.75 7.82zm19.67 14.84c-1.37-5-3.47-8.55-7.26-10.09v-.23c4.68-1.7 9.6-6.46 9.6-13.3 0-5-1.78-8.8-5.08-11.38-3.87-3.15-9.51-4.36-17.58-4.36-6.61 0-12.42.49-16.37 1.21v20.17h5.46v10.34h-5.46v23.04h12.18V112.2h3.62c5.08.08 7.43 1.85 8.96 8.7 1.53 6.7 2.9 11.14 3.7 12.67h12.59c-1.05-2.1-2.67-9.2-4.36-15.4zm-151.69-16.86c-7.1-2.74-10.07-4.27-10.07-7.74 0-2.74 2.58-5.24 7.9-5.24 5.24 0 9.2 1.54 11.29 2.58l2.74-9.84c-3.23-1.53-7.66-2.74-13.87-2.74-12.74 0-20.56 7.01-20.56 16.29 0 7.98 5.96 12.98 15 16.2 6.53 2.26 9.1 4.28 9.1 7.59 0 3.63-2.98 5.97-8.62 5.97-5.24 0-10.4-1.7-13.63-3.39l-2.5 10.08c3.06 1.7 9.2 3.39 15.4 3.39 14.92 0 21.86-7.75 21.86-16.86 0-7.74-4.44-12.73-14.04-16.29M210.57 111.49h20v-10h-20v-11.3h21.21V80.11h-33.47v44.37c0 11.17 12.83 9.99 12.83 9.99h21.77v-10.08h-22.34v-12.9M289.72 81.67v1.93h1.58c.48 0 .8-.05.97-.16.26-.16.38-.43.38-.81 0-.33-.1-.57-.27-.73-.18-.15-.52-.23-1.02-.23zm-1.07-.93h2.72c.64 0 1.1.06 1.38.19.28.13.5.33.68.62.17.29.26.62.26 1.01 0 .33-.05.62-.16.86-.1.17-.3.37-.63.58.3.14.5.31.6.5.1.2.15.52.15.98v.73c0 .35.07.63.23.87l.1.17h-1.2c-.05-.27-.09-.59-.11-.96l-.04-.8c-.02-.29-.07-.5-.14-.61a.64.64 0 0 0-.32-.26c-.14-.06-.4-.08-.82-.08h-1.63v2.7h-1.07zm7.27 3.3a4.86 4.86 0 0 0-7.34-4.24 4.85 4.85 0 0 0 0 8.49 4.85 4.85 0 0 0 6.68-1.8 4.8 4.8 0 0 0 .66-2.45zm.8-.02a5.6 5.6 0 0 1-2.85 4.95 5.59 5.59 0 0 1-5.7 0 5.61 5.61 0 0 1-2.85-4.92c0-1.01.25-1.96.76-2.85.51-.9 1.2-1.6 2.1-2.1a5.59 5.59 0 0 1 2.84-.76 5.6 5.6 0 0 1 4.93 2.85c.51.9.77 1.83.77 2.83" fill="#ee2922"/><path d="M1.59 158.9h1.55c1.85 0 3.14-.1 3.86-.34a4.44 4.44 0 0 0 2.38-1.77c.57-.85.86-1.9.86-3.13 0-1.29-.31-2.4-.94-3.3a4.72 4.72 0 0 0-2.61-1.9c-.84-.25-2.23-.38-4.15-.38h-.95zM.3 160.19v-13.41h2.78c2 0 3.46.16 4.36.48a5.84 5.84 0 0 1 3.05 2.37 7.2 7.2 0 0 1 1.1 4.02c0 1.35-.3 2.53-.87 3.55a5.58 5.58 0 0 1-2.26 2.26c-.93.48-2.23.73-3.9.73H.31M18.78 151.26c-1.06 0-1.97.4-2.73 1.17a3.93 3.93 0 0 0-1.14 2.85 4.03 4.03 0 0 0 1.93 3.43c.59.34 1.24.5 1.94.5s1.36-.16 1.95-.5a4.03 4.03 0 0 0 1.93-3.44c0-1.1-.39-2.05-1.15-2.84a3.68 3.68 0 0 0-2.73-1.17zm0-1.25c1.54 0 2.8.55 3.8 1.66.92 1 1.37 2.2 1.37 3.58a5.15 5.15 0 0 1-5.16 5.18 5.15 5.15 0 0 1-5.18-5.18c0-1.38.46-2.56 1.37-3.57a4.91 4.91 0 0 1 3.8-1.67M36.05 152.33l-1.01.63a4.23 4.23 0 0 0-3.57-1.74c-1.2 0-2.21.39-3 1.16a4.02 4.02 0 0 0 .86 6.34c.64.35 1.35.53 2.15.53 1.45 0 2.64-.58 3.56-1.74l1 .67a4.79 4.79 0 0 1-1.9 1.66c-.8.4-1.7.59-2.73.59a5.4 5.4 0 0 1-3.9-1.5 4.86 4.86 0 0 1-1.54-3.63 5.2 5.2 0 0 1 2.71-4.6 6.07 6.07 0 0 1 6.29.4c.42.32.78.73 1.08 1.23M38.46 150.26h1.28v4.63c0 1.13.06 1.9.18 2.33.18.6.53 1.09 1.04 1.44.52.35 1.13.53 1.84.53a3.1 3.1 0 0 0 1.8-.52c.5-.34.84-.8 1.03-1.35.13-.38.2-1.2.2-2.43v-4.63h1.3v4.87a7.7 7.7 0 0 1-.48 3.08c-.32.7-.8 1.24-1.44 1.63-.64.4-1.45.59-2.41.59-.97 0-1.77-.2-2.42-.59a3.62 3.62 0 0 1-1.45-1.64 8 8 0 0 1-.47-3.17v-4.77M50.07 150.26h1.28v1.71c.45-.63.9-1.09 1.37-1.38a3.9 3.9 0 0 1 2.04-.58 3.36 3.36 0 0 1 2.42 1.03c.28.32.51.77.71 1.35.43-.78.96-1.37 1.6-1.77.63-.4 1.31-.6 2.05-.6.68 0 1.28.16 1.8.5.53.36.92.84 1.17 1.46.26.62.39 1.55.39 2.79v5.4h-1.3v-5.4c0-1.07-.08-1.8-.23-2.2-.15-.4-.41-.71-.78-.96a2.3 2.3 0 0 0-1.3-.36c-.63 0-1.2.18-1.7.55-.51.36-.89.85-1.12 1.45-.24.61-.36 1.62-.36 3.05v3.88h-1.28v-5.08c0-1.2-.07-2-.22-2.43-.15-.43-.4-.77-.78-1.03-.37-.26-.8-.39-1.32-.39-.59 0-1.14.18-1.65.53-.51.36-.9.84-1.14 1.44-.24.6-.37 1.52-.37 2.76v4.2h-1.28v-9.92M76.05 154.2a4.2 4.2 0 0 0-.75-1.62 3.98 3.98 0 0 0-2.98-1.35c-.97 0-1.8.31-2.5.93-.52.46-.9 1.14-1.17 2.05zm0 2.69l1.07.56c-.35.7-.76 1.25-1.22 1.68a4.84 4.84 0 0 1-3.52 1.3 4.74 4.74 0 0 1-3.8-1.6 5.35 5.35 0 0 1-1.37-3.58 5.3 5.3 0 0 1 1.16-3.36 4.74 4.74 0 0 1 3.94-1.88c1.69 0 3.04.64 4.05 1.92.72.9 1.08 2.03 1.1 3.38h-8.93c.02 1.16.39 2.1 1.1 2.84.71.73 1.6 1.1 2.64 1.1a4.23 4.23 0 0 0 2.69-.96c.33-.29.7-.76 1.09-1.4M79.95 150.26h1.28v1.78a5.32 5.32 0 0 1 1.7-1.53c.61-.33 1.28-.5 2.01-.5.74 0 1.4.19 1.97.57.58.37 1 .88 1.27 1.52.28.63.41 1.63.41 2.98v5.1h-1.28v-4.73c0-1.14-.04-1.9-.14-2.29a2.5 2.5 0 0 0-.84-1.48c-.42-.33-.97-.5-1.64-.5-.77 0-1.46.26-2.07.77a3.58 3.58 0 0 0-1.2 1.9c-.13.49-.2 1.39-.2 2.7v3.63h-1.27v-9.92M92.55 146.57h1.28v3.69h2.02v1.1h-2.02v8.82h-1.28v-8.82H90.8v-1.1h1.74v-3.69M104.7 148.08v4.56l2.27.02c.92 0 1.59-.08 2.01-.25.43-.16.76-.44 1-.8.25-.38.37-.8.37-1.26a2.2 2.2 0 0 0-1.32-2.03 5.8 5.8 0 0 0-1.96-.24zm-1.34-1.31h2.67c1.53 0 2.56.07 3.1.2.76.19 1.39.58 1.88 1.16.48.6.72 1.33.72 2.22 0 .89-.23 1.63-.7 2.2a3.5 3.5 0 0 1-1.96 1.18c-.61.14-1.75.22-3.41.22h-.96v6.23h-1.34v-13.41M113.83 150.26h1.3v1.45c.4-.57.8-1 1.23-1.28.43-.28.88-.42 1.35-.42.35 0 .73.11 1.13.34l-.66 1.07c-.27-.11-.5-.17-.68-.17-.42 0-.83.17-1.23.52s-.7.9-.9 1.63c-.16.57-.24 1.7-.24 3.43v3.35h-1.3v-9.92M124.73 151.26c-1.06 0-1.97.4-2.73 1.17a3.93 3.93 0 0 0-1.14 2.85 4.03 4.03 0 0 0 1.93 3.43c.59.34 1.23.5 1.94.5a3.7 3.7 0 0 0 3.35-1.94c.35-.61.52-1.28.52-2 0-1.1-.38-2.05-1.15-2.84a3.68 3.68 0 0 0-2.72-1.17zm0-1.25c1.53 0 2.8.55 3.8 1.66.91 1 1.37 2.2 1.37 3.58a5.15 5.15 0 0 1-5.17 5.18 5.16 5.16 0 0 1-5.18-5.18c0-1.38.46-2.56 1.38-3.57a4.9 4.9 0 0 1 3.8-1.67M142 152.33l-1.02.63a4.23 4.23 0 0 0-3.57-1.74c-1.2 0-2.2.39-3 1.16a3.8 3.8 0 0 0-1.2 2.83 4.02 4.02 0 0 0 4.21 4.04c1.46 0 2.64-.58 3.56-1.74l1.02.67a4.78 4.78 0 0 1-1.91 1.66c-.8.4-1.71.59-2.73.59-1.57 0-2.87-.5-3.9-1.5a4.85 4.85 0 0 1-1.55-3.63 5.2 5.2 0 0 1 2.72-4.6 6.07 6.07 0 0 1 6.29.4c.42.32.78.73 1.08 1.23M152.91 154.2a4.2 4.2 0 0 0-.74-1.62 3.97 3.97 0 0 0-2.98-1.35c-.97 0-1.81.31-2.51.93-.51.46-.9 1.14-1.16 2.05zm0 2.69l1.08.56c-.36.7-.76 1.25-1.23 1.68a4.82 4.82 0 0 1-3.52 1.3 4.74 4.74 0 0 1-3.8-1.6 5.35 5.35 0 0 1-1.36-3.58 5.3 5.3 0 0 1 1.16-3.36 4.74 4.74 0 0 1 3.93-1.88c1.7 0 3.04.64 4.06 1.92.71.9 1.08 2.03 1.09 3.38h-8.93c.03 1.16.4 2.1 1.1 2.84.72.73 1.6 1.1 2.64 1.1a4.23 4.23 0 0 0 2.7-.96c.33-.29.7-.76 1.08-1.4M161.8 151.35l-.83.85c-.68-.66-1.35-1-2-1-.42 0-.77.15-1.07.42-.3.27-.44.59-.44.95 0 .33.12.63.37.92.24.3.75.65 1.53 1.05.95.5 1.6.97 1.94 1.42.34.46.5.98.5 1.56a2.94 2.94 0 0 1-3 2.91 3.77 3.77 0 0 1-2.93-1.4l.8-.92c.65.74 1.34 1.1 2.08 1.1.5 0 .94-.16 1.3-.48a1.51 1.51 0 0 0 .19-2.13 5.78 5.78 0 0 0-1.61-1.06c-.9-.46-1.5-.91-1.83-1.36a2.57 2.57 0 0 1-.49-1.54c0-.76.26-1.38.77-1.88a2.7 2.7 0 0 1 1.95-.75c.92 0 1.84.45 2.76 1.34M169.15 151.35l-.82.85c-.68-.66-1.35-1-2-1-.42 0-.77.15-1.07.42-.3.27-.44.59-.44.95 0 .33.12.63.36.92.25.3.76.65 1.54 1.05.95.5 1.6.97 1.94 1.42a2.8 2.8 0 0 1-.35 3.62c-.58.56-1.3.85-2.15.85a3.76 3.76 0 0 1-2.94-1.4l.8-.92c.66.74 1.35 1.1 2.08 1.1.52 0 .95-.16 1.31-.48.36-.33.54-.72.54-1.16 0-.36-.12-.69-.35-.97a5.75 5.75 0 0 0-1.61-1.06c-.9-.46-1.51-.91-1.83-1.36a2.57 2.57 0 0 1-.49-1.54c0-.76.26-1.38.77-1.88.52-.5 1.17-.75 1.95-.75.92 0 1.84.45 2.76 1.34M182.32 149.6l-2.3 4.87h4.6zm.18-2.83l6.25 13.4h-1.45l-2.1-4.41h-5.79l-2.08 4.42h-1.5l6.34-13.41h.33M190.56 150.26h1.29v4.63c0 1.13.06 1.9.18 2.33.18.6.53 1.09 1.04 1.44.51.35 1.12.53 1.84.53a3.1 3.1 0 0 0 1.8-.52c.5-.34.84-.8 1.03-1.35.13-.38.19-1.2.19-2.43v-4.63h1.3v4.87a7.7 7.7 0 0 1-.48 3.08c-.32.7-.8 1.24-1.44 1.63-.64.4-1.44.59-2.4.59a4.6 4.6 0 0 1-2.42-.59 3.63 3.63 0 0 1-1.45-1.64 8 8 0 0 1-.48-3.17v-4.77M203.3 146.57h1.28v3.69h2.02v1.1h-2.02v8.82h-1.28v-8.82h-1.74v-1.1h1.74v-3.69M213.31 151.26c-1.06 0-1.97.4-2.73 1.17a3.93 3.93 0 0 0-1.14 2.85 4.02 4.02 0 0 0 1.93 3.43c.59.34 1.24.5 1.94.5s1.35-.16 1.94-.5c.6-.33 1.06-.81 1.41-1.43.35-.62.52-1.29.52-2 0-1.11-.38-2.06-1.15-2.85a3.68 3.68 0 0 0-2.72-1.17zm0-1.25c1.53 0 2.8.55 3.8 1.66.92 1 1.37 2.2 1.37 3.58a5.15 5.15 0 0 1-5.17 5.18 5.15 5.15 0 0 1-5.18-5.18c0-1.38.46-2.56 1.38-3.57a4.91 4.91 0 0 1 3.8-1.67M220.95 150.26h1.28v1.71a5 5 0 0 1 1.37-1.38 3.9 3.9 0 0 1 2.04-.58 3.37 3.37 0 0 1 2.42 1.03c.27.32.51.77.71 1.35a4.7 4.7 0 0 1 1.6-1.77c.63-.4 1.31-.6 2.05-.6.68 0 1.28.16 1.8.5.53.36.92.84 1.17 1.46.26.62.38 1.55.38 2.79v5.4h-1.3v-5.4c0-1.07-.07-1.8-.22-2.2-.16-.4-.41-.71-.78-.96-.36-.24-.8-.36-1.31-.36-.62 0-1.18.18-1.7.55-.5.36-.88.85-1.11 1.45-.24.61-.36 1.62-.36 3.05v3.88h-1.28v-5.08c0-1.2-.07-2-.22-2.43-.15-.43-.4-.77-.78-1.03-.37-.26-.8-.39-1.32-.39-.59 0-1.14.18-1.65.53-.51.36-.9.84-1.14 1.44-.24.6-.37 1.52-.37 2.76v4.2h-1.28v-9.92M243.36 151.24a3.83 3.83 0 0 0-3.4 2 4.02 4.02 0 0 0 .01 4 3.92 3.92 0 0 0 3.38 2.01 3.96 3.96 0 0 0 3.42-1.95c.33-.6.5-1.28.5-2.03 0-1.15-.38-2.1-1.13-2.88a3.74 3.74 0 0 0-2.78-1.15zm5.1-.98v9.92h-1.26v-1.7a4.88 4.88 0 0 1-3.98 1.95c-1.4 0-2.6-.51-3.6-1.53a5.11 5.11 0 0 1-1.48-3.7c0-1.43.5-2.66 1.5-3.67a4.9 4.9 0 0 1 3.61-1.52 4.68 4.68 0 0 1 3.95 2.07v-1.82h1.26M252.55 146.57h1.28v3.69h2.02v1.1h-2.02v8.82h-1.28v-8.82h-1.74v-1.1h1.74v-3.69M257.69 150.26h1.28v9.92h-1.28zm.63-4.08c.3 0 .54.1.75.3.2.21.3.46.3.75s-.1.54-.3.74a1 1 0 0 1-.75.31 1 1 0 0 1-.73-.3c-.2-.21-.31-.46-.31-.75s.1-.54.3-.74a1 1 0 0 1 .74-.31M266.42 151.26c-1.06 0-1.97.4-2.73 1.17a3.93 3.93 0 0 0-1.14 2.85 4.02 4.02 0 0 0 1.92 3.43c.6.34 1.24.5 1.95.5a3.69 3.69 0 0 0 3.35-1.94c.34-.61.52-1.28.52-2 0-1.1-.39-2.05-1.15-2.84a3.67 3.67 0 0 0-2.72-1.17zm0-1.25c1.53 0 2.8.55 3.8 1.66.91 1 1.37 2.2 1.37 3.58a5.15 5.15 0 0 1-5.17 5.18 5.15 5.15 0 0 1-5.18-5.18c0-1.38.46-2.56 1.37-3.57a4.91 4.91 0 0 1 3.81-1.67M274.07 150.26h1.28v1.78a5.32 5.32 0 0 1 1.7-1.53 4.2 4.2 0 0 1 2.01-.5c.74 0 1.4.19 1.97.57.58.37 1 .88 1.27 1.52.28.63.41 1.63.41 2.98v5.1h-1.28v-4.73c0-1.14-.04-1.9-.14-2.29a2.5 2.5 0 0 0-.85-1.48c-.41-.33-.96-.5-1.63-.5-.77 0-1.46.26-2.07.77a3.58 3.58 0 0 0-1.2 1.9c-.13.49-.2 1.39-.2 2.7v3.63h-1.27v-9.92" fill="#174e94"/></svg>