<svg xmlns="http://www.w3.org/2000/svg" viewBox="0 0 526.645 129.79"><g word-spacing="0"><g style="line-height:125%" fill="#2f2663" aria-label="COSSILYS21" font-family="sans-serif" font-size="40" font-weight="400" letter-spacing="0"><path d="M46.712 39.235h15.615v1.683q0 5.218-.883 9.762-.882 4.545-6.263 7.49-2.823 1.6-5.999 2.105-3.176.505-6.44.589H37.802q-1.676 0-3.264-.084-1.677 0-3.353-.085h-3.352q-11.557-1.178-14.291-8.247-2.735-7.154-2.912-16.496l-.088-7.322q0-14.39 5.823-19.525 5.822-5.133 20.643-5.133l4.852-.085q.617.085 1.235.085h1.323q4.676.168 8.91 1.43 4.235 1.263 6.705 5.386 1.235 2.02 1.676 4.377.441 2.272.53 4.629v1.346q.088.673.088 1.263v2.019h-15.88q0-4.208-1.676-5.807-1.676-1.683-6.263-1.683l-2.647-.084q-.53.084-1.147.084t-1.235.084q-1.411.084-2.735.505-1.235.421-2.117 1.431-.882.926-1.235 2.104-.265 1.178-.353 2.356 0 .337-.088.674v.589q-.088 1.178-.177 2.44 0 1.179-.088 2.357v7.827q0 6.144 1.853 8.416 1.852 2.272 8.292 2.272 4.588 0 7.234-1.178 2.735-1.262 2.735-6.144v-.336-.337q-.088-.168-.088-.337v-.336zM66.973 32.754v-3.282q0-1.767.089-3.45.088-1.684.264-3.367.177-1.767.441-3.45Q69.443 9.778 76.766 7q7.322-2.777 15.79-2.945H94.322q15.262 0 21.35 4.965 6.086 4.881 6.086 20.114 0 15.57-3.617 23.65-3.528 8.079-23.378 8.079-1.411 0-2.91-.084-1.5 0-3-.085-6.705-.252-12.616-2.609-5.91-2.356-8.028-9.426-.882-2.861-1.058-5.807-.177-2.945-.177-5.89zm16.144-.252v3.366q0 5.976 1.324 9.09 1.323 3.113 8.645 3.113 8.116 0 10.234-2.44 2.205-2.525 2.205-9.679v-2.02q0-1.01.088-2.104v-2.02-2.02q0-5.638-1.676-8.247t-8.028-2.609q-9.175 0-10.939 2.357-1.676 2.356-1.853 12.96v.337zM175.804 21.813h-14.997q0-4.208-1.765-5.302-1.764-1.094-5.999-1.094l-1.587-.084q-.177.084-.353.084h-.353q-2.911 0-5.382.842-2.47.757-2.47 4.292 0 2.609.97 3.871 1.06 1.263 3.882 1.431 1.324.084 2.735.168l2.823.169h.794q8.91.336 16.144 2.525 7.322 2.188 7.322 13.718v2.44q0 1.179-.176 2.44-.176 2.61-1.059 5.135-.794 2.524-2.91 4.208-2.824 2.272-6.353 3.114-3.528.757-7.234.925-1.058.085-2.117.085h-5.911q-12.174 0-18.437-2.525-6.264-2.525-6.264-15.907l14.997-.084q0 3.198 1.147 5.05 1.147 1.767 4.852 1.767l6.793-.084q3 .084 5.029-.757 2.117-.926 2.117-4.713 0-3.535-1.941-4.292-1.853-.758-4.94-.926h-.618q-1.5-.084-2.911-.169l-2.647-.168q-10.233-.505-16.055-3.03-5.735-2.524-5.735-14.896 0-7.322 3.353-11.193 3.352-3.872 11.203-4.46 2.559-.169 5.117-.253 2.647-.168 5.205-.168 10.233 0 17.026 2.104 6.793 2.104 6.793 14.054V20.972q-.088.252-.088.505v.42zM231.975 21.813h-14.997q0-4.208-1.765-5.302-1.764-1.094-5.999-1.094l-1.588-.084q-.176.084-.353.084h-.352q-2.912 0-5.382.842-2.47.757-2.47 4.292 0 2.609.97 3.871 1.06 1.263 3.882 1.431 1.323.084 2.735.168l2.823.169H210.272q8.911.336 16.145 2.525 7.322 2.188 7.322 13.718v2.44q0 1.179-.176 2.44-.177 2.61-1.059 5.135-.794 2.524-2.911 4.208-2.823 2.272-6.352 3.114-3.529.757-7.234.925-1.059.085-2.117.085h-5.91q-12.175 0-18.439-2.525-6.263-2.525-6.263-15.907l14.997-.084q0 3.198 1.147 5.05 1.147 1.767 4.852 1.767l6.793-.084q3 .084 5.028-.757 2.118-.926 2.118-4.713 0-3.535-1.941-4.292-1.853-.758-4.94-.926h-.618q-1.5-.084-2.911-.169l-2.647-.168q-10.233-.505-16.056-3.03-5.734-2.524-5.734-14.896 0-7.322 3.352-11.193 3.353-3.872 11.204-4.46 2.559-.169 5.117-.253 2.646-.168 5.205-.168 10.233 0 17.026 2.104 6.793 2.104 6.793 14.054V20.972q-.088.252-.088.505v.42zM257.092 4.308v56.135h-15.79V4.308zM281.732 4.308v43.258h24.701v12.877h-40.492V4.308zM357.127 4.308L335.69 41.002v19.44H319.9v-19.44l-20.82-36.694h17.997l10.498 21.63h.53l10.85-21.63zM407.207 21.813H392.21q0-4.208-1.765-5.302-1.764-1.094-5.999-1.094l-1.588-.084q-.176.084-.352.084h-.353q-2.912 0-5.382.842-2.47.757-2.47 4.292 0 2.609.97 3.871 1.06 1.263 3.882 1.431 1.323.084 2.735.168l2.823.169h.794q8.91.336 16.144 2.525 7.322 2.188 7.322 13.718v2.44q0 1.179-.176 2.44-.177 2.61-1.059 5.135-.794 2.524-2.911 4.208-2.823 2.272-6.352 3.114-3.529.757-7.234.925-1.058.085-2.117.085h-5.91q-12.175 0-18.439-2.525-6.263-2.525-6.263-15.907l14.997-.084q0 3.198 1.147 5.05 1.147 1.767 4.852 1.767l6.793-.084q3 .084 5.028-.757 2.118-.926 2.118-4.713 0-3.535-1.941-4.292-1.853-.758-4.94-.926h-.618q-1.5-.084-2.911-.169l-2.647-.168q-10.233-.505-16.056-3.03-5.734-2.524-5.734-14.896 0-7.322 3.352-11.193 3.353-3.872 11.204-4.46 2.559-.169 5.117-.253 2.647-.168 5.205-.168 10.233 0 17.026 2.104 6.793 2.104 6.793 14.054V20.972q-.088.252-.088.505v.42z"/><path style="line-height:97.99998999%;-inkscape-font-specification:'Eurostile-Black-DTC Thin'" fill="#a41524" d="M463.378 48.745v11.698h-46.315V47.735q0-9.931 5.205-12.877 5.293-3.03 13.409-4.544 1.5-.337 3.087-.59l3.176-.673q.265-.084.441-.084.177-.084.442-.084 3.352-.842 4.41-2.104 1.06-1.347 1.06-5.05 0-4.292-1.942-5.05-1.852-.84-5.734-.84l-.882-.085q-5.205.084-6.528 1.515-1.235 1.43-1.235 6.312-.089.336-.089.673v.505l-14.82-.084q0-12.456 5.205-16.495 5.204-4.124 17.643-4.124 10.675 0 17.027 3.03 6.351 2.945 6.351 14.727 0 4.882-1.146 9.006-1.147 4.123-6.352 6.396-2.47 1.094-5.293 1.935-2.735.758-5.646 1.431-1.765.42-3.617.842l-3.53.673q-3.528.757-4.675 2.104-1.147 1.262-1.147 4.629zM510.806 4.308v56.135h-15.173V17.605L480.194 30.82l-8.822-9.51 21.438-17z" font-family="Eurostile-Black-DTC" font-weight="100"/></g><g style="line-height:125%" fill="#777778" aria-label="solutions de vidéoprotection" font-family="EurostileExtended-Roman-DTC" font-size="27.5" font-weight="100" letter-spacing="1.85"><path d="M26.042 86.105h-1.887q-.108-1.054-.512-1.363-.405-.334-1.564-.463-.296-.025-.62-.025-.323-.026-.62-.052-.62-.025-1.24-.025h-1.24q-.89 0-1.779.025-.89.026-1.752.155-.836.102-1.483.437-.62.308-.62 1.208 0 1.183.647 1.492.674.309 1.753.309l3.261.05h3.531q2.076.027 3.343.67 1.267.642 1.267 2.854 0 2.443-1.375 2.957-1.375.489-3.262.566h-.43l-.378.051h-.89q-.431.026-.862.026-.459.026-.89.026h-1.725q-.431 0-.89-.026-.673-.026-1.347-.077-.647-.051-1.186-.129-1.618-.334-2.184-1.157-.566-.848-.566-2.314v-.129q0-.077.027-.154v-.103-.154l1.914-.026q.027.103.027.18v.129q0 1.285.566 1.723.593.437 1.86.565.835.026 1.644.077.836.026 1.671.026 1.106 0 2.184-.026 1.078-.025 2.156-.128.89-.129 1.402-.437.512-.309.512-1.183 0-1.363-.728-1.775-.7-.437-2.048-.437l-3.424-.051h-3.261q-1.887.026-3.127-.54-1.213-.566-1.213-2.649 0-1.903 1.132-2.623 1.159-.746 2.938-.848l.89-.052.916-.051q.431-.026.89-.026.458-.026.89-.026h1.024q.512 0 1.024.026.485 0 .997.026.512.025 1.025.077 1.94.128 2.722.874.809.72.89 2.546zM31.707 88.908q0-2.468.755-4.114.754-1.672 3.693-2.032.458-.051.916-.077l.97-.051q.459-.026.917-.026h.943q3.801 0 6.12.797 2.318.797 2.318 5.169 0 4.577-1.995 5.503-1.968.926-6.47.926-3.827 0-6.01-.874-2.157-.875-2.157-5.195zm2.021-.128q0 3.06 1.24 3.883 1.267.797 4.206.797h.161q.108 0 .216-.026H40.467q.27-.026.567-.026 2.264-.077 3.773-.591 1.537-.54 1.537-3.446v-.308-.309q-.027-1.517-.512-2.829-.459-1.311-2.372-1.568-1.079-.129-2.184-.129-1.078-.026-2.183-.026-2.83 0-4.098.72-1.267.695-1.267 3.883zM54.114 77.516h1.887v17.307h-1.887zM77.37 94.823h-1.887v-2.34q-.593 1.466-1.913 1.954-1.294.463-2.75.54-.296.026-.593.026H69.634h-.027q-2.776 0-5.122-.694-2.318-.695-2.318-4.064v-7.508h1.887v6.608q0 2.88 1.321 3.498 1.348.591 3.99.591 2.48 0 4.285-.566 1.833-.591 1.833-3.497v-6.634h1.887zM86.36 82.737h8.761v1.542h-8.76v5.812q0 2.057.727 2.7.755.643 2.857.643 1.59 0 2.67-.36 1.104-.386 1.104-2.186v-.334-.36q-.027-.154-.027-.309v-.36l1.752-.025q0 3.06-.754 4.294-.755 1.209-4.529 1.209-2.453 0-4.07-.592-1.618-.617-1.618-3.445v-6.687H81.4v-1.542h3.073V80.01h1.887zM100.041 82.737h1.887v12.086h-1.887zm0-5.22h1.887v2.262h-1.887zM107.69 88.908q0-2.468.754-4.114.755-1.672 3.693-2.032.458-.051.917-.077l.97-.051q.458-.026.917-.026h.943q3.8 0 6.12.797 2.317.797 2.317 5.169 0 4.577-1.994 5.503-1.968.926-6.47.926-3.828 0-6.011-.874-2.156-.875-2.156-5.195zm2.021-.128q0 3.06 1.24 3.883 1.267.797 4.205.797h.162q.108 0 .216-.026H116.45q.27-.026.566-.026 2.265-.077 3.774-.591 1.537-.54 1.537-3.446v-.308-.309q-.027-1.517-.513-2.829-.458-1.311-2.372-1.568-1.078-.129-2.183-.129-1.078-.026-2.184-.026-2.83 0-4.097.72-1.267.695-1.267 3.883zM130.097 82.737h1.887v2.494q.647-1.774 2.157-2.186 1.536-.437 3.261-.463h.54l.242-.025.943.051q.486 0 .998.026 1.024.051 1.994.308.998.257 1.78.849.97.72 1.159 1.723.215.977.215 2.057v7.252h-1.887v-7.098q0-2.468-1.51-3.008-1.482-.54-3.692-.54h-.431q-2.157 0-3.963.591-1.806.566-1.806 3.266v6.789h-1.887zM166.378 86.105h-1.887q-.108-1.054-.512-1.363-.405-.334-1.564-.463-.296-.025-.62-.025-.323-.026-.62-.052-.62-.025-1.24-.025h-1.24q-.89 0-1.779.025-.89.026-1.752.155-.835.102-1.482.437-.62.308-.62 1.208 0 1.183.647 1.492.673.309 1.752.309l3.261.05h3.532q2.075.027 3.342.67 1.267.642 1.267 2.854 0 2.443-1.375 2.957-1.374.489-3.261.566h-.432l-.377.051h-.89q-.43.026-.862.026-.458.026-.89.026h-1.725q-.431 0-.89-.026-.673-.026-1.347-.077-.647-.051-1.186-.129-1.618-.334-2.184-1.157-.566-.848-.566-2.314v-.129q0-.077.027-.154v-.103-.154l1.914-.026q.027.103.027.18v.129q0 1.285.566 1.723.593.437 1.86.565.836.026 1.644.077.836.026 1.672.026 1.105 0 2.183-.026 1.078-.025 2.156-.128.89-.129 1.402-.437.512-.309.512-1.183 0-1.363-.727-1.775-.701-.437-2.05-.437l-3.423-.051h-3.261q-1.887.026-3.127-.54-1.213-.566-1.213-2.649 0-1.903 1.132-2.623 1.16-.746 2.938-.848l.89-.052.916-.051q.432-.026.89-.026.458-.026.89-.026h1.024q.512 0 1.024.026.485 0 .997.026.513.025 1.025.077 1.94.128 2.722.874.809.72.89 2.546zM195.862 77.516h1.886v17.307h-1.886V92.97q-.513 1.183-1.59 1.569-1.08.386-2.238.463-.297.026-.593.026h-1.428q-.217-.026-.432-.026h-.431q-3.882 0-5.85-.874-1.94-.9-1.94-5.17 0-3.805 1.455-5.065 1.456-1.286 5.31-1.286l1.483-.026q.431.026.916.026.512 0 1.025.026.727.051 1.401.128.701.077 1.16.257.62.258 1.024.695.431.437.728 1.003zm-12.481 11.47q0 2.185.674 3.24.674 1.028 3.127 1.131l.593.051h.62q.296.026.593.026h.593q3.127 0 4.69-.617 1.564-.643 1.564-3.96 0-1.775-.486-2.957-.458-1.183-2.587-1.492-.917-.129-1.833-.154-.917-.052-1.86-.052-3.1 0-4.394.669t-1.294 4.14zM219.667 89.088h-14.26q.054 1.517.459 2.649.431 1.106 2.21 1.466.485.103.997.154.54.051 1.052.051.404.026.781.026h.782l1.025-.026q.296.026.593.026.296 0 .593-.026.7-.025 1.374-.102.674-.103 1.16-.309.62-.283.889-.694.296-.437.35-1.08l1.995-.026q-.027 2.16-1.617 2.906-1.564.72-3.478.848-.539.026-1.078.026-.512.026-1.024.026-3.936 0-6.443-.746-2.506-.771-2.506-5.426 0-3.806 1.536-5.04 1.564-1.234 5.391-1.234H211.122q.162.025.297.025h.323q.108 0 .216.026h.242q3.532.129 5.5.951 1.994.798 1.994 4.938v.308q-.027.078-.027.155v.154zm-1.94-1.543q0-.103-.028-.231v-.283q-.027-.514-.188-1.029-.162-.514-.62-.9-.459-.437-1.24-.617-.755-.206-1.564-.257-.404-.026-.808-.026-.378-.025-.755-.025l-1.483-.026q-.404.026-.862.051-.432 0-.89.026-.835.051-1.644.257-.782.18-1.294.592-.431.334-.62.823-.162.488-.216 1.002-.027.155-.054.335v.334zM240.512 93.383l6.47-10.646h2.13l-7.36 12.086h-2.48l-7.224-12.086h2.13zM252.562 82.737h1.887v12.086h-1.887zm0-5.22h1.887v2.262h-1.887zM274.74 77.516h1.887v17.307h-1.887V92.97q-.512 1.183-1.59 1.569-1.079.386-2.238.463-.296.026-.593.026H268.891q-.216-.026-.432-.026h-.431q-3.882 0-5.85-.874-1.94-.9-1.94-5.17 0-3.805 1.455-5.065 1.456-1.286 5.31-1.286l1.483-.026q.431.026.917.026.512 0 1.024.026.728.051 1.402.128.7.077 1.159.257.62.258 1.024.695.431.437.728 1.003zm-12.48 11.47q0 2.185.673 3.24.674 1.028 3.127 1.131l.593.051h.62q.297.026.593.026h.593q3.127 0 4.69-.617 1.564-.643 1.564-3.96 0-1.775-.485-2.957-.458-1.183-2.588-1.492-.916-.129-1.833-.154-.916-.052-1.86-.052-3.1 0-4.394.669t-1.294 4.14zM298.546 89.088h-14.26q.054 1.517.458 2.649.431 1.106 2.21 1.466.486.103.998.154.539.051 1.051.051.404.026.782.026h.782l1.024-.026q.296.026.593.026.296 0 .593-.026.7-.025 1.375-.102.674-.103 1.159-.309.62-.283.89-.694.296-.437.35-1.08l1.995-.026q-.027 2.16-1.618 2.906-1.563.72-3.477.848-.54.026-1.078.026-.513.026-1.025.026-3.935 0-6.442-.746-2.507-.771-2.507-5.426 0-3.806 1.536-5.04 1.564-1.234 5.392-1.234H290q.162.025.297.025h.323q.108 0 .216.026h.243q3.531.129 5.499.951 1.994.798 1.994 4.938v.308q-.026.078-.026.155v.154zm-1.941-1.543q0-.103-.027-.231v-.283q-.027-.514-.189-1.029-.162-.514-.62-.9-.458-.437-1.24-.617-.755-.206-1.563-.257-.405-.026-.809-.026-.377-.025-.755-.025l-1.482-.026q-.405.026-.863.051-.431 0-.89.026-.835.051-1.644.257-.782.18-1.294.592-.431.334-.62.823-.161.488-.215 1.002-.027.155-.054.335v.334zm-9.84-7.097l6.767-2.135.7 2.135-7.062 1.106zM303.955 88.908q0-2.468.755-4.114.755-1.672 3.693-2.032.458-.051.917-.077l.97-.051q.458-.026.917-.026h.943q3.8 0 6.119.797 2.318.797 2.318 5.169 0 4.577-1.995 5.503-1.967.926-6.469.926-3.828 0-6.011-.874-2.157-.875-2.157-5.195zm2.022-.128q0 3.06 1.24 3.883 1.267.797 4.205.797h.162q.108 0 .216-.026H312.716q.27-.026.566-.026 2.264-.077 3.774-.591 1.536-.54 1.536-3.446v-.308-.309q-.027-1.517-.512-2.829-.458-1.311-2.372-1.568-1.078-.129-2.183-.129-1.079-.026-2.184-.026-2.83 0-4.097.72-1.267.695-1.267 3.883zM326.363 82.737h1.887v1.928q.7-1.388 1.94-1.723 1.268-.334 2.75-.334l1.995-.026q3.963.026 5.876 1.003 1.941.952 1.941 5.195 0 2.957-1.024 4.5-.997 1.543-4.448 1.671-.593.052-1.186.052h-1.132l-2.723-.026q-1.347 0-2.426-.386-1.078-.411-1.563-1.748v7.2h-1.887zm1.914 6.094q0 3.369 1.456 3.96 1.455.566 4.124.617h.242q.108 0 .216.026h.62q3.18 0 4.475-.643 1.32-.668 1.32-3.908 0-3.446-1.24-4.064-1.24-.617-4.582-.617l-.647-.025q-.323.025-.647.025-.323 0-.674.026-.593 0-1.159.051-.566.052-.997.155-1.806.385-2.157 1.646-.35 1.26-.35 2.777zM348.551 82.737h1.887v2.134q.458-1.312 1.644-1.749 1.187-.463 2.48-.514.243-.026.459-.026h.458q3.18 0 4.825.72 1.671.72 1.671 4.218V87.803q-.027.077-.027.154v.128l-1.86-.025q0-2.186-.727-3.035-.701-.848-3.181-.848l-.647-.026q-2.453.026-3.774.694-1.32.643-1.32 3.24v6.738h-1.888zM366.624 88.908q0-2.468.755-4.114.755-1.672 3.693-2.032.458-.051.916-.077l.97-.051q.459-.026.917-.026h.944q3.8 0 6.119.797 2.318.797 2.318 5.169 0 4.577-1.995 5.503-1.968.926-6.47.926-3.827 0-6.01-.874-2.157-.875-2.157-5.195zm2.022-.128q0 3.06 1.24 3.883 1.267.797 4.205.797h.162q.107 0 .215-.026H375.385q.27-.026.566-.026 2.264-.077 3.774-.591 1.536-.54 1.536-3.446v-.308-.309q-.027-1.517-.512-2.829-.458-1.311-2.372-1.568-1.078-.129-2.184-.129-1.078-.026-2.183-.026-2.83 0-4.097.72-1.267.695-1.267 3.883zM391.485 82.737h8.76v1.542h-8.76v5.812q0 2.057.728 2.7.754.643 2.857.643 1.59 0 2.668-.36 1.106-.386 1.106-2.186v-.334-.36q-.027-.154-.027-.309v-.36l1.752-.025q0 3.06-.755 4.294-.755 1.209-4.529 1.209-2.452 0-4.07-.592-1.617-.617-1.617-3.445v-6.687h-3.073v-1.542h3.073V80.01h1.887zM421.461 89.088h-14.26q.054 1.517.459 2.649.431 1.106 2.21 1.466.485.103.997.154.54.051 1.052.051.404.026.781.026h.782l1.024-.026q.297.026.594.026.296 0 .593-.026.7-.025 1.374-.102.674-.103 1.16-.309.62-.283.889-.694.296-.437.35-1.08l1.995-.026q-.027 2.16-1.617 2.906-1.564.72-3.478.848-.539.026-1.078.026-.512.026-1.024.026-3.936 0-6.443-.746-2.506-.771-2.506-5.426 0-3.806 1.536-5.04 1.563-1.234 5.391-1.234H412.916q.162.025.297.025h.323q.108 0 .216.026h.242q3.532.129 5.5.951 1.994.798 1.994 4.938v.308q-.027.078-.027.155v.154zm-1.94-1.543q0-.103-.028-.231v-.283q-.027-.514-.188-1.029-.162-.514-.62-.9-.459-.437-1.24-.617-.755-.206-1.564-.257-.404-.026-.808-.026-.378-.025-.755-.025l-1.483-.026q-.404.026-.862.051-.432 0-.89.026-.836.051-1.644.257-.782.18-1.294.592-.431.334-.62.823-.162.488-.216 1.002-.027.155-.054.335v.334zM440.888 90.503h1.968q-.054 2.803-1.725 3.6-1.645.771-4.206.848-.512.026-1.05.026h-1.052q-3.666 0-5.796-1.003-2.13-1.003-2.13-5.066v-.848l.055-.926q.08-.643.215-1.234.162-.618.459-1.08.781-1.183 2.048-1.646 1.267-.463 2.642-.566.35-.026.7-.026.351-.025.702-.025h.593q.135.025.27.025h.754q.243 0 .485.026h.432q2.426.051 4.42.72 1.995.643 1.995 3.652l-1.968-.026q-.027-.72-.27-1.312-.242-.591-.97-.951-.404-.206-1.051-.309-.647-.103-1.32-.154-.513-.026-1.025-.026-.485-.025-.89-.025l-.323-.026q-.431.026-.944.026-.512 0-1.05.051-.594.026-1.187.129-.566.077-1.024.257-.512.205-.89.591-.377.386-.539.9-.135.386-.189.797-.054.412-.08.823-.027.309-.027.618v.591q0 1.491.377 2.726.404 1.208 2.291 1.491.97.155 1.941.206.97.051 1.94.051h.648q.323 0 .674-.025.485-.026.97-.077.485-.052.97-.155 1.133-.257 1.618-.9.512-.668.539-1.723zM450.89 82.737h8.76v1.542h-8.76v5.812q0 2.057.727 2.7.755.643 2.857.643 1.59 0 2.669-.36 1.105-.386 1.105-2.186v-.334-.36q-.027-.154-.027-.309v-.36l1.752-.025q0 3.06-.754 4.294-.755 1.209-4.529 1.209-2.453 0-4.07-.592-1.618-.617-1.618-3.445v-6.687h-3.073v-1.542h3.073V80.01h1.887zM464.57 82.737h1.887v12.086h-1.887zm0-5.22h1.887v2.262h-1.887zM472.218 88.908q0-2.468.755-4.114.755-1.672 3.693-2.032.458-.051.917-.077l.97-.051q.458-.026.917-.026h.943q3.8 0 6.119.797 2.318.797 2.318 5.169 0 4.577-1.995 5.503-1.967.926-6.469.926-3.828 0-6.011-.874-2.157-.875-2.157-5.195zm2.022-.128q0 3.06 1.24 3.883 1.267.797 4.205.797h.162q.108 0 .216-.026H480.979q.27-.026.566-.026 2.264-.077 3.774-.591 1.536-.54 1.536-3.446v-.308-.309q-.027-1.517-.512-2.829-.458-1.311-2.372-1.568-1.078-.129-2.183-.129-1.078-.026-2.184-.026-2.83 0-4.097.72-1.267.695-1.267 3.883zM494.626 82.737h1.887v2.494q.647-1.774 2.156-2.186 1.537-.437 3.262-.463h.54l.242-.025.943.051q.485 0 .998.026 1.024.051 1.994.308.998.257 1.78.849.97.72 1.159 1.723.215.977.215 2.057v7.252h-1.887v-7.098q0-2.468-1.51-3.008-1.482-.54-3.692-.54h-.431q-2.157 0-3.963.591-1.806.566-1.806 3.266v6.789h-1.887z" style="-inkscape-font-specification:'EurostileExtended-Roman-DTC Thin'"/></g><g style="line-height:125%" fill="#2f2663" aria-label="CONCEPTEUR - FABRICANT" font-family="EurostileExtended-Roman-DTC" font-size="27.5" font-weight="100" letter-spacing="2"><path d="M29.99 119.366h2.265q0 3.163-.97 4.45-.971 1.26-5.015 1.336l-4.636.078h-.512q-.243 0-.485.025h-.998q-.997 0-1.994-.051-.998-.026-1.995-.129-2.372-.205-3.531-1.414-1.133-1.209-1.267-3.472l-.054-.823q-.027-.411-.027-.823-.027-.385-.027-.797v-.823-1.002q0-.515.027-1.03.027-.745.08-1.49.082-.772.216-1.518.486-2.34 1.887-3.06 1.402-.746 3.666-.9.809-.077 1.618-.103l1.67-.051H22.2q.324 0 .647-.026h1.294q1.186 0 2.345.077 1.16.052 2.318.283 2.21.411 2.669 1.98.485 1.543.566 3.317l-2.156-.025v-.155q0-.231-.027-.514 0-.309-.027-.617-.054-.566-.243-1.08-.189-.514-.62-.772-.485-.308-1.536-.437-1.052-.154-2.238-.18-.593-.026-1.186-.026-.593-.025-1.105-.025-1.483 0-2.965.025-1.456 0-2.938.13-2.319.18-2.966.822-.646.617-.89 2.752-.053.54-.08 1.08-.027.54-.027 1.08-.027.565-.027 1.105v1.08q0 2.726.54 4.244.538 1.491 3.8 1.491l2.103.051h2.102l4.017-.077q2.21-.025 3.315-.488 1.105-.489 1.105-2.778zM37.975 116.615v-.849q0-.437.027-.848 0-.875.081-1.75.081-.873.27-1.696.539-2.289 2.183-2.958 1.671-.668 3.828-.72.997-.025 1.995-.025.997-.026 1.994-.026h3.963q5.607 0 7.17 1.414 1.59 1.415 1.59 6.66 0 1.158-.026 2.315-.027 1.157-.162 2.314-.27 2.47-1.59 3.472-1.321 1.003-3.91 1.183-1.104.103-2.236.103-1.106.026-2.21.026h-4.017q-.944 0-1.914-.026-.944-.026-1.887-.129-.135-.025-.297-.025-.134 0-.27-.026-1.023-.154-1.967-.54-.943-.412-1.536-1.286-.459-.694-.674-1.646-.216-.951-.297-1.928-.08-.798-.108-1.57v-1.413zm2.265-.077v1.26q0 2.828.62 4.166.62 1.337 3.962 1.388l4.637.052h1.67q.54.025 1.08.025.565 0 1.131-.025l1.078-.052q.567-.025 1.106-.077 2.156-.206 2.695-1.388.54-1.183.54-2.983v-.875q.026-.437.026-.9.027-.437.027-.874v-.875q0-.385-.027-.822 0-.463-.027-.9-.054-.875-.215-1.672-.135-.797-.486-1.286-.188-.283-.512-.463-.296-.205-.62-.308-.027-.026-.08-.026-.027-.026-.081-.026-.432-.128-.917-.18-.485-.051-.97-.077-.27-.026-.566-.026h-.566l-4.233-.051-4.178.077q-2.91.052-3.935.772-.998.694-1.078 3.6zM69.72 109.466v15.584h-2.184v-17.153h3.64l16.577 15.507v-15.507h2.183v17.153h-3.585zM115.634 119.366h2.264q0 3.163-.97 4.45-.971 1.26-5.014 1.336l-4.637.078h-.512q-.243 0-.485.025h-.998q-.997 0-1.994-.051-.998-.026-1.995-.129-2.372-.205-3.531-1.414-1.132-1.209-1.267-3.472l-.054-.823q-.027-.411-.027-.823-.027-.385-.027-.797v-.823-1.002q0-.515.027-1.03.027-.745.08-1.49.082-.772.217-1.518.485-2.34 1.886-3.06 1.402-.746 3.666-.9.81-.077 1.618-.103l1.671-.051H107.843q.324 0 .647-.026h1.294q1.186 0 2.345.077 1.16.052 2.318.283 2.21.411 2.67 1.98.484 1.543.565 3.317l-2.156-.025v-.155q0-.231-.027-.514 0-.309-.027-.617-.054-.566-.243-1.08-.189-.514-.62-.772-.485-.308-1.536-.437-1.052-.154-2.238-.18-.593-.026-1.186-.026-.593-.025-1.105-.025-1.482 0-2.965.025-1.456 0-2.938.13-2.318.18-2.965.822-.647.617-.89 2.752-.054.54-.08 1.08-.028.54-.028 1.08-.027.565-.027 1.105v1.08q0 2.726.54 4.244.539 1.491 3.8 1.491l2.103.051h2.102l4.017-.077q2.21-.025 3.315-.488 1.106-.489 1.106-2.778zM126.341 109.646v5.657h15.068v1.723h-15.068v6.3h15.823v1.724h-18.006v-17.153h17.817v1.749zM148.44 107.897h14.907q2.885.026 4.098 1.055 1.24 1.028 1.24 3.857 0 .411-.027.9-.027.489-.081.977-.108.746-.35 1.44-.216.669-.674 1.106-.593.566-1.375.797-.782.232-1.617.309-.35 0-.701.025h-.647l-12.589-.025v6.712h-2.183zm2.184 8.718h11.268q2.507.026 3.504-.54 1.024-.592 1.024-3.163 0-1.749-.7-2.495-.674-.745-2.588-.745l-12.508-.026zM182.954 109.646v15.404h-2.184v-15.404h-9.057v-1.749h20.352v1.749zM198.559 109.646v5.657h15.068v1.723H198.56v6.3h15.823v1.724h-18.006v-17.153h17.817v1.749zM239.447 107.897h2.183v11.855q0 3.909-1.725 4.629-1.725.72-5.418.823h-.135q-.89.026-1.806.026h-1.806q-1.267 0-2.56-.026-1.294 0-2.588-.052-2.642-.102-3.882-1.157-1.24-1.054-1.24-3.6v-12.498h2.184v12.24q0 2.238 1.078 2.727 1.078.463 3.208.514l3.854.026 4.178-.077q2.238-.026 3.343-.515 1.132-.488 1.132-2.828v-.412zM248.47 107.897h14.636q3.046.026 4.556 1.003 1.537.952 1.537 4.115 0 2.263-.728 3.163-.701.874-3.1 1.208 1.563.18 2.534.772.97.566.97 2.263v4.629h-2.156v-3.806q0-1.955-.917-2.52-.89-.592-2.884-.592l-12.265-.026v6.944h-2.184zm2.183 8.486h12.05q2.29.026 3.26-.643.971-.668.971-2.854 0-2.16-1.105-2.674-1.105-.54-3.18-.54l-11.996-.026zM282.69 117.052h8.437v1.697h-8.437zM307.51 109.646v5.734h14.233v1.723H307.51v7.947h-2.183v-17.153h17.17v1.749zM343.523 121.192h-14.529l-2.291 3.858h-2.561l10.62-17.153h2.912l10.701 17.153h-2.507zm-1.024-1.723l-6.28-10.055-6.2 10.055zM352.314 107.897h15.203q2.318.026 3.666 1.003 1.347.952 1.347 3.317 0 1.98-.646 2.726-.647.72-2.723 1.055 2.345.103 3.154 1.003.835.874.835 3.085 0 2.88-1.455 3.935-1.456 1.029-4.42 1.029h-14.961zm2.183 15.43h12.346q1.914.025 2.965-.515 1.078-.54 1.078-2.417v-.411q0-.232-.027-.463-.054-.617-.27-1.183-.215-.566-.808-.9-.458-.232-.97-.309-.513-.103-1.025-.128H367.085l-.296-.026h-12.292zm0-8.075h12.157q1.78.026 2.696-.514.916-.566.916-2.34 0-1.698-.835-2.212-.81-.514-2.453-.514l-12.481-.026zM379.335 107.897h14.637q3.046.026 4.555 1.003 1.537.952 1.537 4.115 0 2.263-.728 3.163-.701.874-3.1 1.208 1.563.18 2.534.772.97.566.97 2.263v4.629h-2.156v-3.806q0-1.955-.917-2.52-.89-.592-2.884-.592l-12.265-.026v6.944h-2.183zm2.183 8.486h12.05q2.29.026 3.26-.643.971-.668.971-2.854 0-2.16-1.105-2.674-1.105-.54-3.18-.54l-11.996-.026zM406.355 107.897h2.184v17.153h-2.184zM434.236 119.366h2.264q0 3.163-.97 4.45-.97 1.26-5.014 1.336l-4.636.078h-.512q-.243 0-.486.025h-.997q-.997 0-1.995-.051-.997-.026-1.994-.129-2.373-.205-3.532-1.414-1.132-1.209-1.267-3.472l-.054-.823q-.027-.411-.027-.823-.026-.385-.026-.797v-.823-1.002q0-.515.026-1.03.027-.745.081-1.49.081-.772.216-1.518.485-2.34 1.887-3.06 1.402-.746 3.666-.9.809-.077 1.617-.103l1.672-.051H426.446q.323 0 .647-.026h1.294q1.186 0 2.345.077 1.159.052 2.318.283 2.21.411 2.669 1.98.485 1.543.566 3.317l-2.157-.025v-.155q0-.231-.027-.514 0-.309-.027-.617-.054-.566-.242-1.08-.189-.514-.62-.772-.486-.308-1.537-.437-1.051-.154-2.237-.18-.593-.026-1.186-.026-.593-.025-1.105-.025-1.483 0-2.966.025-1.455 0-2.938.13-2.318.18-2.965.822-.647.617-.89 2.752-.053.54-.08 1.08-.027.54-.027 1.08-.027.565-.027 1.105v1.08q0 2.726.539 4.244.54 1.491 3.8 1.491l2.103.051h2.103l4.016-.077q2.21-.025 3.316-.488 1.105-.489 1.105-2.778zM459.7 121.192h-14.528l-2.292 3.858h-2.56l10.62-17.153h2.911l10.702 17.153h-2.507zm-1.023-1.723l-6.281-10.055-6.2 10.055zM470.701 109.466v15.584h-2.183v-17.153h3.639l16.577 15.507v-15.507h2.184v17.153h-3.585zM506.453 109.646v15.404h-2.184v-15.404h-9.057v-1.749h20.352v1.749z" style="-inkscape-font-specification:'EurostileExtended-Roman-DTC Thin'"/></g></g></svg>