<svg xmlns="http://www.w3.org/2000/svg" xmlns:xlink="http://www.w3.org/1999/xlink" width="78" height="75" version="1.1" viewBox="0 0 78 75"><title>Chuck</title><desc>Created with Sketch.</desc><g id="Page-1" fill="none" fill-rule="evenodd" stroke="none" stroke-width="1"><g id="Logo(s)-Ninja-Squad" transform="translate(-244.000000, -5.000000)"><g id="Chuck" transform="translate(244.000000, 5.000000)"><path id="Shape" fill="#FFF" d="M63.579,45.476 C63.579,49.835 59.322,53.371 54.07,53.371 L49.847,53.371 L27.887,53.371 L23.692,53.371 C18.441,53.371 14.184,49.836 14.184,45.476 L14.184,42.016 C14.184,35.745 20.321,30.662 27.887,30.662 L49.847,30.662 C57.337,30.662 63.422,35.642 63.545,41.824 C63.566,41.887 63.578,41.95 63.578,42.015 L63.578,45.476 L63.579,45.476 Z"/><path id="Shape" fill="#000" d="M72.504,40.384 L72.495,40.384 C72.414,34.098 71.677,26.277 67.442,19.669 C66.25,17.809 64.836,16.159 63.223,14.7 C63.57,14.41 63.963,14.122 64.428,13.833 C66.544,12.51 68.001,12.046 70.317,10.812 C70.278,10.839 69.372,8.939 69.305,8.793 C68.775,7.623 68.218,5.609 68.153,4.969 C68.061,4.093 68.053,3.825 68.07,3.561 C66.852,3.874 66.323,3.841 61.989,6.687 C60.839,7.443 57.788,9.797 57.656,9.889 C57.743,9.114 58.473,7.012 59.065,5.63 C59.397,4.856 59.675,4.299 60.014,3.664 C60.192,3.333 60.633,2.561 60.809,2.23 C60.302,2.275 59.459,2.084 59.309,2.053 C58.293,1.855 57.063,1.567 55.68,1.067 C55.46,0.988 55.198,0.84 54.96,0.836 C54.929,1.205 54.631,2.947 54.527,3.439 C54.068,5.624 54.058,5.562 53.594,7.041 C53.394,7.68 53.17,8.3 52.934,8.915 C49.076,7.668 44.66,6.979 39.697,6.856 L39.697,6.837 L38.064,6.837 L38.064,6.856 C25.462,7.168 16.369,11.128 11.018,18.64 C6.133,25.494 5.404,33.855 5.281,39.545 C5.254,40.851 5.259,42.07 5.264,43.207 L5.311,43.206 C5.508,48.841 6.432,56.602 11.018,63.038 C16.369,70.551 25.462,74.511 38.064,74.822 L38.064,74.841 L39.697,74.841 L39.697,74.822 C52.87,74.497 62.198,70.189 67.441,62.01 C71.675,55.402 72.413,47.581 72.494,41.294 L72.503,41.294 C72.502,41.146 72.5,40.99 72.498,40.839 C72.501,40.689 72.503,40.534 72.504,40.384 Z M63.579,45.476 C63.579,49.835 59.322,53.371 54.07,53.371 L49.847,53.371 L27.887,53.371 L23.692,53.371 C18.441,53.371 14.184,49.836 14.184,45.476 L14.184,42.016 C14.184,35.745 20.321,30.662 27.887,30.662 L49.847,30.662 C57.337,30.662 63.422,35.642 63.545,41.824 C63.566,41.887 63.578,41.95 63.578,42.015 L63.578,45.476 L63.579,45.476 Z"/><g id="Group" fill="#000" transform="translate(22.000000, 42.000000)"><path id="Shape" d="M6.187,0.094 C6.048,0.982 5.286,1.661 4.359,1.661 C3.434,1.661 2.671,0.98 2.533,0.093 C1.597,0.695 0.976,1.743 0.976,2.938 C0.976,4.806 2.491,6.321 4.359,6.321 C6.228,6.321 7.742,4.806 7.742,2.938 C7.741,1.744 7.121,0.696 6.187,0.094 Z"/><path id="Shape" d="M31.24,0.094 C31.1,0.982 30.341,1.661 29.414,1.661 C28.486,1.661 27.726,0.98 27.587,0.093 C26.652,0.695 26.03,1.743 26.03,2.938 C26.03,4.806 27.546,6.321 29.414,6.321 C31.279,6.321 32.794,4.806 32.794,2.938 C32.794,1.744 32.174,0.696 31.24,0.094 Z"/></g><path id="Shape" fill="#000" d="M71.673,42.9 C71.673,40.545 73.59,38.628 75.945,38.628 L75.947,38.628 L75.947,35.216 L1.306,35.216 L1.306,38.628 L1.737,38.628 C4.093,38.628 6.008,40.545 6.008,42.9 L6.008,50.786 C6.008,54.489 9.02,57.503 12.725,57.503 L29.698,57.503 C33.401,57.503 36.417,54.489 36.417,50.786 L36.579,42.351 C36.929,41.345 37.817,40.659 38.842,40.659 C39.867,40.659 40.75,41.346 41.102,42.351 L41.266,50.786 C41.266,54.489 44.278,57.503 47.983,57.503 L64.957,57.503 C68.659,57.503 71.674,54.489 71.674,50.786 L71.674,42.9 L71.673,42.9 Z M29.698,53.97 L12.725,53.97 C10.969,53.97 9.539,52.541 9.539,50.785 L9.539,38.746 L32.881,38.746 L32.884,50.785 C32.885,52.542 31.454,53.97 29.698,53.97 Z M68.141,50.786 C68.141,52.542 66.712,53.971 64.956,53.971 L47.982,53.971 C46.226,53.971 44.797,52.542 44.797,50.786 L44.797,38.747 L68.142,38.747 L68.141,50.786 Z"/><path id="Shape" fill="#FFF" d="M64.956,58.719 L47.982,58.719 C43.607,58.719 40.047,55.16 40.047,50.785 L40.047,43.206 L40.025,43.049 C39.922,42.367 39.425,41.874 38.841,41.874 C38.256,41.874 37.757,42.367 37.656,43.049 L37.633,43.206 L37.633,50.785 C37.633,55.16 34.072,58.719 29.697,58.719 L12.724,58.719 C8.349,58.719 4.789,55.16 4.789,50.785 L4.789,42.9 C4.789,41.214 3.421,39.844 1.735,39.844 L0.09,39.844 L0.09,33.998 L77.16,33.998 L77.16,39.844 L75.942,39.844 C74.258,39.844 72.885,41.214 72.885,42.9 L72.885,50.786 C72.889,55.161 69.331,58.719 64.956,58.719 Z M41.102,42.351 L41.266,50.786 C41.266,54.489 44.278,57.503 47.983,57.503 L64.957,57.503 C68.659,57.503 71.674,54.489 71.674,50.786 L71.674,42.9 C71.674,40.545 73.591,38.628 75.946,38.628 L75.948,38.628 L75.948,35.216 L1.307,35.216 L1.307,38.628 L1.738,38.628 C4.094,38.628 6.009,40.545 6.009,42.9 L6.009,50.786 C6.009,54.489 9.021,57.503 12.726,57.503 L29.699,57.503 C33.402,57.503 36.418,54.489 36.418,50.786 L36.58,42.351 C36.93,41.345 37.818,40.659 38.843,40.659 C39.868,40.659 40.75,41.345 41.102,42.351 Z M64.956,53.97 L47.982,53.97 C46.226,53.97 44.797,52.541 44.797,50.785 L44.797,38.746 L68.142,38.746 L68.14,50.785 C68.141,52.542 66.712,53.97 64.956,53.97 Z M46.017,39.963 L46.017,50.785 C46.017,51.87 46.897,52.753 47.983,52.753 L64.957,52.753 C66.04,52.753 66.926,51.87 66.926,50.785 L66.926,39.963 L46.017,39.963 Z M29.698,53.97 L12.725,53.97 C10.969,53.97 9.539,52.541 9.539,50.785 L9.539,38.746 L32.881,38.746 L32.884,50.785 C32.885,52.542 31.454,53.97 29.698,53.97 Z M10.76,39.963 L10.76,50.785 C10.76,51.87 11.64,52.753 12.726,52.753 L29.699,52.753 C30.785,52.753 31.668,51.87 31.668,50.785 L31.668,39.963 L10.76,39.963 Z"/></g></g></g></svg>