<svg xmlns="http://www.w3.org/2000/svg" xmlns:xlink="http://www.w3.org/1999/xlink" width="432" height="160" version="1.1" viewBox="0 0 432 160"><title>Axway_logo_tag_horiz_rev_cmyk</title><desc>Created with Sketch.</desc><g id="Page-1" fill="none" fill-rule="evenodd" stroke="none" stroke-width="1"><g id="Axway_logo_tag_horiz_rev_cmyk" transform="translate(-1.000000, 0.000000)"><path id="Fill-1" fill="#101820" d="M243.58,147.174 L256.061,119.632 L233.574,73.372 L249.606,73.372 L263.699,104.356 L276.718,73.372 L291.995,73.372 L258.75,147.174 L243.58,147.174 Z M220.668,104.894 L220.668,102.528 L208.727,104.356 C205.069,104.894 202.163,106.936 202.163,111.025 C202.163,114.148 204.424,117.161 209.049,117.161 C215.075,117.161 220.668,114.252 220.668,104.894 Z M203.67,95.859 L216.689,93.921 C219.7,93.489 220.668,91.984 220.668,90.156 C220.668,86.391 217.765,83.268 211.738,83.268 C205.5,83.268 202.056,87.248 201.625,91.875 L188.93,89.185 C189.791,80.903 197.429,71.758 211.631,71.758 C228.416,71.758 234.656,81.226 234.656,91.875 L234.656,117.913 C234.656,120.707 234.978,124.477 235.301,126.305 L222.175,126.305 C221.853,124.906 221.637,122.002 221.637,119.955 C218.948,124.153 213.89,127.809 206.038,127.809 C194.74,127.809 187.854,120.17 187.854,111.887 C187.854,102.419 194.849,97.149 203.67,95.859 Z M153.756,73.372 L165.159,107.474 L174.951,73.372 L189.151,73.372 L172.583,126.305 L158.274,126.305 L145.902,90.156 L133.744,126.305 L119.219,126.305 L102.327,73.372 L117.391,73.372 L127.18,107.369 L138.693,73.372 L153.756,73.372 Z M68.765,99.729 L49.936,73.372 L66.937,73.372 C68.765,76.276 75.651,86.172 77.479,89.08 L87.915,73.372 L104.162,73.372 L85.657,99.301 L104.807,126.305 L88.022,126.305 L76.941,110.059 C75.006,112.962 67.904,123.401 66.076,126.305 L49.936,126.305 L68.765,99.729 Z M33.803,104.894 L33.803,102.528 L21.862,104.356 C18.204,104.894 15.298,106.936 15.298,111.025 C15.298,114.148 17.559,117.161 22.184,117.161 C28.21,117.161 33.803,114.252 33.803,104.894 Z M16.805,95.859 L29.824,93.921 C32.835,93.489 33.803,91.984 33.803,90.156 C33.803,86.391 30.9,83.268 24.873,83.268 C18.635,83.268 15.191,87.248 14.76,91.875 L2.065,89.185 C2.926,80.903 10.564,71.758 24.766,71.758 C41.55,71.758 47.791,81.226 47.791,91.875 L47.791,117.913 C47.791,120.707 48.113,124.477 48.436,126.305 L35.31,126.305 C34.988,124.906 34.772,122.002 34.772,119.955 C32.083,124.153 27.025,127.809 19.173,127.809 C7.875,127.809 0.989,120.17 0.989,111.887 C0.989,102.419 7.984,97.149 16.805,95.859 L16.805,95.859 Z"/><path id="Fill-2" fill="#101820" d="M218.678,151.051 C218.54,149.704 217.746,148.65 216.364,148.65 C215.085,148.65 214.187,149.635 213.997,151.051 L218.678,151.051 Z M211.924,151.725 L211.924,151.691 C211.924,149.082 213.772,146.94 216.381,146.94 C219.283,146.94 220.752,149.22 220.752,151.846 C220.752,152.036 220.734,152.226 220.717,152.433 L214.014,152.433 C214.239,153.919 215.292,154.748 216.64,154.748 C217.659,154.748 218.385,154.368 219.11,153.66 L220.337,154.748 C219.473,155.785 218.281,156.459 216.605,156.459 C213.962,156.459 211.924,154.541 211.924,151.725 Z M207.798,151.708 L207.798,151.673 C207.798,149.911 206.606,148.754 205.189,148.754 C203.773,148.754 202.529,149.928 202.529,151.673 L202.529,151.708 C202.529,153.47 203.773,154.627 205.189,154.627 C206.623,154.627 207.798,153.504 207.798,151.708 Z M200.49,147.13 L202.581,147.13 L202.581,148.65 C203.254,147.7 204.204,146.94 205.673,146.94 C207.832,146.94 209.923,148.65 209.923,151.673 L209.923,151.708 C209.923,154.731 207.85,156.441 205.673,156.441 C204.17,156.441 203.22,155.681 202.581,154.835 L202.581,159.015 L200.49,159.015 L200.49,147.13 Z M195.575,152.433 C195.039,152.226 194.296,152.071 193.484,152.071 C192.171,152.071 191.394,152.606 191.394,153.487 L191.394,153.522 C191.394,154.385 192.171,154.869 193.156,154.869 C194.538,154.869 195.575,154.092 195.575,152.952 L195.575,152.433 Z M195.523,156.251 L195.523,155.129 C194.901,155.871 193.951,156.441 192.569,156.441 C190.841,156.441 189.321,155.457 189.321,153.625 L189.321,153.591 C189.321,151.57 190.893,150.602 193.018,150.602 C194.123,150.602 194.832,150.758 195.54,150.982 L195.54,150.81 C195.54,149.548 194.746,148.857 193.294,148.857 C192.275,148.857 191.515,149.082 190.686,149.428 L190.116,147.752 C191.118,147.303 192.102,146.991 193.588,146.991 C196.283,146.991 197.596,148.408 197.596,150.844 L197.596,156.251 L195.523,156.251 Z M178.858,143.64 L180.949,143.64 L180.949,148.547 C181.536,147.682 182.383,146.94 183.799,146.94 C185.855,146.94 187.047,148.322 187.047,150.447 L187.047,156.251 L184.956,156.251 L184.956,151.068 C184.956,149.652 184.248,148.84 183.004,148.84 C181.795,148.84 180.949,149.687 180.949,151.103 L180.949,156.251 L178.858,156.251 L178.858,143.64 Z M169.121,155.059 L170.054,153.643 C171.038,154.385 172.11,154.766 173.043,154.766 C173.941,154.766 174.459,154.385 174.459,153.781 L174.459,153.746 C174.459,153.038 173.492,152.796 172.421,152.468 C171.073,152.088 169.57,151.535 169.57,149.79 L169.57,149.756 C169.57,148.028 171.004,146.974 172.818,146.974 C173.958,146.974 175.202,147.372 176.169,148.011 L175.34,149.496 C174.459,148.961 173.526,148.633 172.766,148.633 C171.954,148.633 171.488,149.013 171.488,149.548 L171.488,149.583 C171.488,150.24 172.472,150.516 173.543,150.861 C174.874,151.276 176.377,151.88 176.377,153.522 L176.377,153.556 C176.377,155.474 174.891,156.424 172.99,156.424 C171.695,156.424 170.261,155.957 169.121,155.059 Z M154.473,155.059 L155.406,153.643 C156.39,154.385 157.462,154.766 158.395,154.766 C159.293,154.766 159.811,154.385 159.811,153.781 L159.811,153.746 C159.811,153.038 158.843,152.796 157.772,152.468 C156.425,152.088 154.922,151.535 154.922,149.79 L154.922,149.756 C154.922,148.028 156.356,146.974 158.17,146.974 C159.31,146.974 160.554,147.372 161.521,148.011 L160.692,149.496 C159.811,148.961 158.878,148.633 158.118,148.633 C157.306,148.633 156.84,149.013 156.84,149.548 L156.84,149.583 C156.84,150.24 157.824,150.516 158.895,150.861 C160.226,151.276 161.729,151.88 161.729,153.522 L161.729,153.556 C161.729,155.474 160.243,156.424 158.342,156.424 C157.047,156.424 155.613,155.957 154.473,155.059 Z M150.727,151.051 C150.589,149.704 149.794,148.65 148.412,148.65 C147.133,148.65 146.235,149.635 146.045,151.051 L150.727,151.051 Z M143.972,151.725 L143.972,151.691 C143.972,149.082 145.821,146.94 148.429,146.94 C151.331,146.94 152.8,149.22 152.8,151.846 C152.8,152.036 152.783,152.226 152.765,152.433 L146.063,152.433 C146.287,153.919 147.341,154.748 148.688,154.748 C149.708,154.748 150.433,154.368 151.159,153.66 L152.385,154.748 C151.522,155.785 150.33,156.459 148.654,156.459 C146.011,156.459 143.972,154.541 143.972,151.725 Z M134.508,143.64 L136.598,143.64 L136.598,151.172 L140.382,147.13 L142.921,147.13 L139.293,150.844 L143.042,156.251 L140.623,156.251 L137.877,152.312 L136.598,153.643 L136.598,156.251 L134.508,156.251 L134.508,143.64 Z M129.592,152.433 C129.057,152.226 128.314,152.071 127.502,152.071 C126.189,152.071 125.412,152.606 125.412,153.487 L125.412,153.522 C125.412,154.385 126.189,154.869 127.174,154.869 C128.556,154.869 129.592,154.092 129.592,152.952 L129.592,152.433 Z M129.54,156.251 L129.54,155.129 C128.919,155.871 127.968,156.441 126.587,156.441 C124.859,156.441 123.339,155.457 123.339,153.625 L123.339,153.591 C123.339,151.57 124.911,150.602 127.036,150.602 C128.141,150.602 128.85,150.758 129.558,150.982 L129.558,150.81 C129.558,149.548 128.763,148.857 127.312,148.857 C126.293,148.857 125.533,149.082 124.703,149.428 L124.133,147.752 C125.135,147.303 126.12,146.991 127.606,146.991 C130.301,146.991 131.614,148.408 131.614,150.844 L131.614,156.251 L129.54,156.251 Z M116.957,153.729 L116.957,148.926 L115.799,148.926 L115.799,147.13 L116.957,147.13 L116.957,144.625 L119.047,144.625 L119.047,147.13 L121.5,147.13 L121.5,148.926 L119.047,148.926 L119.047,153.401 C119.047,154.213 119.462,154.541 120.17,154.541 C120.636,154.541 121.051,154.437 121.465,154.23 L121.465,155.941 C120.947,156.234 120.36,156.407 119.582,156.407 C118.045,156.407 116.957,155.733 116.957,153.729 Z M99.804,147.13 L101.894,147.13 L101.894,148.547 C102.481,147.682 103.328,146.94 104.744,146.94 C106.8,146.94 107.992,148.322 107.992,150.447 L107.992,156.251 L105.902,156.251 L105.902,151.068 C105.902,149.652 105.193,148.84 103.949,148.84 C102.74,148.84 101.894,149.687 101.894,151.103 L101.894,156.251 L99.804,156.251 L99.804,147.13 Z M95.253,151.743 L95.253,151.708 C95.253,150.101 94.095,148.771 92.454,148.771 C90.778,148.771 89.707,150.084 89.707,151.673 L89.707,151.708 C89.707,153.297 90.864,154.645 92.489,154.645 C94.181,154.645 95.253,153.314 95.253,151.743 Z M87.617,151.743 L87.617,151.708 C87.617,149.099 89.69,146.94 92.489,146.94 C95.287,146.94 97.343,149.065 97.343,151.673 L97.343,151.708 C97.343,154.299 95.27,156.459 92.454,156.459 C89.673,156.459 87.617,154.333 87.617,151.743 Z M83.039,156.251 L85.13,156.251 L85.13,147.13 L83.039,147.13 L83.039,156.251 Z M82.953,145.73 L85.198,145.73 L85.198,143.744 L82.953,143.744 L82.953,145.73 Z M76.063,153.729 L76.063,148.926 L74.905,148.926 L74.905,147.13 L76.063,147.13 L76.063,144.625 L78.153,144.625 L78.153,147.13 L80.606,147.13 L80.606,148.926 L78.153,148.926 L78.153,153.401 C78.153,154.213 78.568,154.541 79.276,154.541 C79.743,154.541 80.157,154.437 80.571,154.23 L80.571,155.941 C80.053,156.234 79.466,156.407 78.689,156.407 C77.151,156.407 76.063,155.733 76.063,153.729 Z M70.922,152.433 C70.387,152.226 69.644,152.071 68.832,152.071 C67.519,152.071 66.742,152.606 66.742,153.487 L66.742,153.522 C66.742,154.385 67.519,154.869 68.504,154.869 C69.886,154.869 70.922,154.092 70.922,152.952 L70.922,152.433 Z M70.871,156.251 L70.871,155.129 C70.249,155.871 69.299,156.441 67.917,156.441 C66.189,156.441 64.669,155.457 64.669,153.625 L64.669,153.591 C64.669,151.57 66.241,150.602 68.366,150.602 C69.471,150.602 70.18,150.758 70.888,150.982 L70.888,150.81 C70.888,149.548 70.093,148.857 68.642,148.857 C67.623,148.857 66.863,149.082 66.034,149.428 L65.464,147.752 C66.465,147.303 67.45,146.991 68.936,146.991 C71.631,146.991 72.944,148.408 72.944,150.844 L72.944,156.251 L70.871,156.251 Z M54.206,147.13 L56.296,147.13 L56.296,148.547 C56.884,147.682 57.73,146.94 59.147,146.94 C61.203,146.94 62.395,148.322 62.395,150.447 L62.395,156.251 L60.304,156.251 L60.304,151.068 C60.304,149.652 59.596,148.84 58.352,148.84 C57.143,148.84 56.296,149.687 56.296,151.103 L56.296,156.251 L54.206,156.251 L54.206,147.13 Z M49.095,156.251 L51.185,156.251 L51.185,147.13 L49.095,147.13 L49.095,156.251 Z M49.009,145.73 L51.254,145.73 L51.254,143.744 L49.009,143.744 L49.009,145.73 Z M43.998,151.259 L43.998,151.224 C43.998,149.721 42.772,148.702 41.32,148.702 C39.869,148.702 38.729,149.704 38.729,151.207 L38.729,151.241 C38.729,152.745 39.886,153.764 41.32,153.764 C42.772,153.764 43.998,152.727 43.998,151.259 Z M37.07,157.961 L37.848,156.39 C38.815,156.994 39.852,157.357 41.096,157.357 C42.961,157.357 43.981,156.39 43.981,154.558 L43.981,153.85 C43.22,154.835 42.271,155.526 40.767,155.526 C38.625,155.526 36.621,153.936 36.621,151.259 L36.621,151.224 C36.621,148.529 38.642,146.94 40.767,146.94 C42.305,146.94 43.255,147.648 43.964,148.495 L43.964,147.13 L46.054,147.13 L46.054,154.385 C46.054,155.923 45.656,157.063 44.896,157.823 C44.067,158.652 42.789,159.05 41.147,159.05 C39.645,159.05 38.245,158.67 37.07,157.961 Z M32.267,152.433 C31.732,152.226 30.989,152.071 30.177,152.071 C28.864,152.071 28.087,152.606 28.087,153.487 L28.087,153.522 C28.087,154.385 28.864,154.869 29.849,154.869 C31.231,154.869 32.267,154.092 32.267,152.952 L32.267,152.433 Z M32.215,156.251 L32.215,155.129 C31.593,155.871 30.643,156.441 29.261,156.441 C27.534,156.441 26.014,155.457 26.014,153.625 L26.014,153.591 C26.014,151.57 27.586,150.602 29.71,150.602 C30.816,150.602 31.524,150.758 32.233,150.982 L32.233,150.81 C32.233,149.548 31.438,148.857 29.987,148.857 C28.968,148.857 28.208,149.082 27.378,149.428 L26.808,147.752 C27.811,147.303 28.795,146.991 30.281,146.991 C32.976,146.991 34.289,148.408 34.289,150.844 L34.289,156.251 L32.215,156.251 Z M9.831,147.13 L11.922,147.13 L11.922,148.512 C12.509,147.7 13.304,146.94 14.703,146.94 C16.016,146.94 16.932,147.579 17.415,148.547 C18.158,147.579 19.125,146.94 20.508,146.94 C22.494,146.94 23.703,148.201 23.703,150.429 L23.703,156.251 L21.613,156.251 L21.613,151.068 C21.613,149.617 20.939,148.84 19.765,148.84 C18.625,148.84 17.813,149.635 17.813,151.103 L17.813,156.251 L15.722,156.251 L15.722,151.051 C15.722,149.635 15.031,148.84 13.874,148.84 C12.716,148.84 11.922,149.704 11.922,151.12 L11.922,156.251 L9.831,156.251 L9.831,147.13 Z M4.72,156.251 L6.81,156.251 L6.81,147.13 L4.72,147.13 L4.72,156.251 Z M4.634,145.73 L6.88,145.73 L6.88,143.744 L4.634,143.744 L4.634,145.73 Z"/><path id="Fill-3" fill="#D22630" d="M420.587,83.712 L316.072,34.006 L316.072,52 L399.271,91.566 L420.587,83.712 Z M328.472,66.884 L328.472,84.875 L347.478,93.868 L316.903,126.228 L337.181,126.228 L373.454,88.266 L328.472,66.884 Z M420.558,47.748 L420.59,74.753 L301.9,18.264 L301.9,0.27 L405.756,49.717 L405.756,22.699 L432.99,35.658 L432.99,53.664 L420.558,47.748 L420.558,47.748 Z"/></g></g></svg>