<svg xmlns="http://www.w3.org/2000/svg" viewBox="0 0 246.36 87.82"><defs><style>.cls-1{fill:#e52821;}.cls-2{fill:none;}.cls-3{fill:#fcc00a;}.cls-4{fill:#f2b835;}.cls-5{fill:#121212;}</style></defs><title>Fichier 1</title><g id="Calque_2" data-name="Calque 2"><g id="Calque_1-2" data-name="Calque 1"><path class="cls-1" d="M10.73,2.39V60.62H2.14V2.39Z"/><path class="cls-1" d="M12.55,62.44H.32V.57H12.55ZM4,58.8h5V4.2H4Z"/><path class="cls-1" d="M49.18,2.35A25.44,25.44,0,0,1,56,3a16.1,16.1,0,0,1,8.34,5.9,15.92,15.92,0,0,1,3.3,9.86,16.28,16.28,0,0,1-5,11.85A16,16,0,0,1,51,35.78H29.68V60.62h-8.6V2.39h8.6Zm-.44,25.2q5.13-.49,7.82-3A7.57,7.57,0,0,0,59,18.8a7.29,7.29,0,0,0-4.64-7.17A11.13,11.13,0,0,0,50,11H29.47l.21,16.57Z"/><path class="cls-1" d="M31.5,62.44H19.26V.57l29.91,0a26.74,26.74,0,0,1,7.33.77,18,18,0,0,1,9.28,6.56A17.76,17.76,0,0,1,69.45,18.8,18.11,18.11,0,0,1,64,31.93,17.86,17.86,0,0,1,51,37.6H31.5ZM22.9,58.8h5V34H51a14.17,14.17,0,0,0,10.35-4.59A14.41,14.41,0,0,0,65.81,18.8,14,14,0,0,0,62.88,10a14.19,14.19,0,0,0-7.43-5.27,24,24,0,0,0-6.27-.61L22.9,4.2ZM48.82,29.37H27.89L27.63,9.16H50a12.68,12.68,0,0,1,5.15.82,9.1,9.1,0,0,1,5.7,8.82,9.34,9.34,0,0,1-3,7c-2.08,2-5.08,3.18-8.9,3.54ZM31.48,25.73H48.65c2.94-.29,5.18-1.15,6.65-2.55a5.76,5.76,0,0,0,1.88-4.39,5.49,5.49,0,0,0-3.56-5.51A9.19,9.19,0,0,0,50,12.8H31.31Z"/><path class="cls-1" d="M104.24,2.35A25.38,25.38,0,0,1,111,3a16.14,16.14,0,0,1,8.35,5.9,15.93,15.93,0,0,1,3.3,9.86,16.25,16.25,0,0,1-5,11.85,16,16,0,0,1-11.65,5.13H84.73V60.62H76.14V2.39h8.59Zm-.45,25.2q5.14-.49,7.82-3A7.58,7.58,0,0,0,114,18.8a7.28,7.28,0,0,0-4.64-7.17A11.13,11.13,0,0,0,105,11H84.53l.2,16.57Z"/><path class="cls-1" d="M86.55,62.44H74.32V.57l29.91,0a26.71,26.71,0,0,1,7.32.77,18,18,0,0,1,9.29,6.56A17.74,17.74,0,0,1,124.5,18.8,18.08,18.08,0,0,1,119,31.93a17.84,17.84,0,0,1-12.92,5.67H86.55ZM78,58.8h5V34h23.15a14.14,14.14,0,0,0,10.35-4.59,14.38,14.38,0,0,0,4.45-10.57A14,14,0,0,0,117.93,10a14.22,14.22,0,0,0-7.44-5.27,23.86,23.86,0,0,0-6.26-.61L78,4.2Zm25.91-29.43H82.94L82.69,9.16H105a12.69,12.69,0,0,1,5.15.82,9.1,9.1,0,0,1,5.7,8.82,9.34,9.34,0,0,1-3,7c-2.08,2-5.08,3.18-8.9,3.54ZM86.53,25.73H103.7c2.95-.29,5.18-1.15,6.65-2.54a5.78,5.78,0,0,0,1.88-4.39,5.48,5.48,0,0,0-3.57-5.51,9.17,9.17,0,0,0-3.65-.5H86.37Z"/><path class="cls-1" d="M235.87,26.37a15.56,15.56,0,0,0-4.77-11.28,16.08,16.08,0,0,0-22.4-.2,15.61,15.61,0,0,0-5,10.79V60.62H195V26.37A23.88,23.88,0,0,1,202.35,9a24.76,24.76,0,0,1,34.85,0,23.85,23.85,0,0,1,7.34,17.39V60.62h-8.67Z"/><path class="cls-1" d="M246.36,62.44H234V26.37a13.69,13.69,0,0,0-4.23-10A14.25,14.25,0,0,0,210,16.2a13.75,13.75,0,0,0-4.45,9.53V62.44H193.21V26.37a25.72,25.72,0,0,1,7.87-18.68,26.59,26.59,0,0,1,37.41,0,25.69,25.69,0,0,1,7.87,18.66Zm-8.67-3.64h5V26.37a21.94,21.94,0,0,0-6.79-16.1,22.24,22.24,0,0,0-16.15-6.64,21.87,21.87,0,0,0-16.14,6.64,21.91,21.91,0,0,0-6.79,16.12V58.8h5V25.58a17.42,17.42,0,0,1,5.57-12,17.9,17.9,0,0,1,24.92.23,17.39,17.39,0,0,1,5.31,12.56Z"/><path class="cls-2" d="M156.5,2.93l-.12,0Z"/><path class="cls-2" d="M154.3,3.69l-.06,0Z"/><path class="cls-2" d="M158.74,2.39l-.13,0Z"/><path class="cls-2" d="M165.58,2h0Z"/><path class="cls-2" d="M172.25,15.78c.63.31,1.25.63,1.85,1C173.5,16.41,172.88,16.09,172.25,15.78Z"/><path class="cls-2" d="M161,2.06l-.12,0Z"/><path class="cls-2" d="M128,32.43c0-.41-.07-.82-.08-1.23C128,31.62,128,32,128,32.43Z"/><path class="cls-2" d="M163.22,1.94h0Z"/><path class="cls-2" d="M147.44,45.44h0a18,18,0,0,0,28.91-8.25c.21-.73.39-1.47.53-2.23v0a18,18,0,0,0-23.72-20.32,24.61,24.61,0,0,1,18.86,1,24.61,24.61,0,0,0-18.88-1v0a18,18,0,0,0-5.74,30.7,24.56,24.56,0,0,1-8.23-14.45A24.67,24.67,0,0,0,147.44,45.44Z"/><path class="cls-3" d="M179.54,7.85c-.32-.28-.67-.52-1-.78a24.64,24.64,0,0,0-13-5h0q-1.13-.09-2.26-.09h-.07c-.74,0-1.48,0-2.21.12l-.12,0c-.72.08-1.44.18-2.15.32l-.13,0q-1.06.21-2.11.51l-.12,0c-.7.21-1.39.44-2.07.71l-.06,0a24.69,24.69,0,0,0-6.83,41.62,18,18,0,0,1,5.74-30.7v0a24.61,24.61,0,0,1,18.88,1l.22.12c.63.31,1.25.63,1.85,1a24.81,24.81,0,0,1,1.16,41.72,31.29,31.29,0,0,0,4.28-50.64Zm-1-.74.63.51Z"/><path class="cls-4" d="M177.33,6.18c.4.28.79.57,1.17.87C178.12,6.75,177.73,6.45,177.33,6.18Z"/><path class="cls-2" d="M179.2,7.61l-.63-.51"/><path class="cls-1" d="M128,32.43c1,10.78,9.93,22.81,21.06,24.89,12.62,2.36,23.85-8,27.26-20.14a18,18,0,0,1-28.91,8.25h0a24.73,24.73,0,0,1,6.8-41.73l.06,0c.68-.27,1.37-.51,2.07-.71l.12,0q1-.3,2.11-.51l.13,0c.71-.14,1.43-.24,2.15-.32l.12,0c.73-.07,1.47-.11,2.21-.12h.07q1.13,0,2.26.09h0a24.64,24.64,0,0,1,13,5h0l0,0c-.38-.3-.77-.59-1.17-.87a31.26,31.26,0,0,0-49,19.74A24.87,24.87,0,0,0,128,30.6c0,.2,0,.41,0,.6C128,31.62,128,32,128,32.43Z"/><path class="cls-2" d="M128.17,27.11c0-.27.08-.53.13-.8"/><path class="cls-1" d="M184.65,29.71A24.58,24.58,0,0,0,174.1,16.77c-.6-.36-1.22-.69-1.85-1l-.22-.12a24.61,24.61,0,0,0-18.86-1,18,18,0,0,1,23.72,20.32v0c-.14.76-.33,1.5-.53,2.23a24.34,24.34,0,0,1-27.94,17.49A25.26,25.26,0,0,1,128,32.43c0-.41-.07-.82-.08-1.23,0-.2,0-.4,0-.6a24.05,24.05,0,0,1,.18-3.58,31.94,31.94,0,0,0,1.81,15,31.37,31.37,0,0,0,40,19.15,24.3,24.3,0,0,0,5.36-2.7A24.67,24.67,0,0,0,184.65,29.71Z"/><path class="cls-5" d="M0,84.28V72.07H2.53a13,13,0,0,1,4,.44,5.29,5.29,0,0,1,2.85,2.27,6.64,6.64,0,0,1,.93,3.55,6.7,6.7,0,0,1-.7,3.06,5,5,0,0,1-2.15,2.23,7.78,7.78,0,0,1-3.55.66Zm1.17-1.15H2.58a13.11,13.11,0,0,0,3.51-.31A4,4,0,0,0,8.33,81.1,5.11,5.11,0,0,0,9,78.35a5.28,5.28,0,0,0-.81-2.95,4.26,4.26,0,0,0-2.43-1.79A14.39,14.39,0,0,0,2,73.26H1.17Z"/><path class="cls-5" d="M12.87,71.53a1,1,0,0,1,1,1,.92.92,0,0,1-.28.68.94.94,0,0,1-.68.28,1,1,0,0,1-1-1,.93.93,0,0,1,.28-.68A.91.91,0,0,1,12.87,71.53Zm-.58,3.72h1.17v9H12.29Z"/><path class="cls-5" d="M23.65,75.25h1.17v7.2a8.59,8.59,0,0,1-.33,2.78,3.65,3.65,0,0,1-1.71,2,5.3,5.3,0,0,1-2.59.6,5,5,0,0,1-3.59-1.2A5.29,5.29,0,0,1,15.52,85h1.26a3.56,3.56,0,0,0,3.35,1.76A3.23,3.23,0,0,0,23.3,85.2,5,5,0,0,0,23.65,83v-.46A4.38,4.38,0,0,1,20,84.28a4.72,4.72,0,0,1-2.33-.61A4.34,4.34,0,0,1,16,82a4.63,4.63,0,0,1,7.64-5.19Zm-3.43.89a3.7,3.7,0,0,0-1.83.47,3.42,3.42,0,0,0-1.33,1.32,3.63,3.63,0,0,0-.48,1.83,3.24,3.24,0,0,0,1,2.49,3.59,3.59,0,0,0,2.55.94,3.53,3.53,0,0,0,2.57-1,3.38,3.38,0,0,0,1-2.54A3.29,3.29,0,0,0,22,76.6,3.53,3.53,0,0,0,20.22,76.14Z"/><path class="cls-5" d="M27.71,71.53a1,1,0,0,1,1,1,.92.92,0,0,1-.28.68.94.94,0,0,1-.68.28,1,1,0,0,1-1-1,.93.93,0,0,1,.28-.68A.91.91,0,0,1,27.71,71.53Zm-.58,3.72H28.3v9H27.13Z"/><path class="cls-5" d="M31.72,71.9h1.17v3.35h1.84v1H32.89v8H31.72v-8H30.13v-1h1.59Z"/><path class="cls-5" d="M45.47,75.25v9H44.33V82.73a4.52,4.52,0,0,1-3.63,1.79,4.39,4.39,0,0,1-3.3-1.41,4.68,4.68,0,0,1-1.33-3.36,4.6,4.6,0,0,1,1.36-3.34A4.45,4.45,0,0,1,40.73,75a4.22,4.22,0,0,1,3.59,1.89V75.25Zm-4.65.89A3.33,3.33,0,0,0,37.73,78a3.66,3.66,0,0,0,0,3.66A3.58,3.58,0,0,0,39,83a3.44,3.44,0,0,0,1.77.49A3.63,3.63,0,0,0,42.62,83a3.36,3.36,0,0,0,1.32-1.3,3.71,3.71,0,0,0,.46-1.85,3.64,3.64,0,0,0-1-2.61A3.4,3.4,0,0,0,40.82,76.14Z"/><path class="cls-5" d="M47.9,71.77h1.16V84.28H47.9Z"/><path class="cls-5" d="M57.47,82.46a1,1,0,0,1,.73.3,1,1,0,0,1,0,1.46,1,1,0,0,1-1.44,0,1,1,0,0,1,0-1.46A1,1,0,0,1,57.47,82.46Z"/><path class="cls-5" d="M64.58,73.26V72.07h6.7v1.19H68.56v11H67.31v-11Z"/><path class="cls-5" d="M80.44,81.29l1,.51a4.76,4.76,0,0,1-2.53,2.41,4.9,4.9,0,0,1-1.78.31,4.54,4.54,0,0,1-3.37-1.34,4.61,4.61,0,0,1-1.33-3.38,4.83,4.83,0,0,1,1.05-3.06A4.31,4.31,0,0,1,77,75a4.45,4.45,0,0,1,3.69,1.75,4.92,4.92,0,0,1,1,3.09H73.59a3.77,3.77,0,0,0,.95,2.53A3.17,3.17,0,0,0,77,83.45a3.59,3.59,0,0,0,2.45-.88A5.44,5.44,0,0,0,80.44,81.29Zm0-2.43a3.35,3.35,0,0,0-1.85-2.37,3.6,3.6,0,0,0-1.54-.34,3.31,3.31,0,0,0-2.28.85,3.85,3.85,0,0,0-1.05,1.86Z"/><path class="cls-5" d="M92.66,77.13l-.92.57a4.14,4.14,0,0,0-6-.57,3.44,3.44,0,0,0-1.13,2.63,3.63,3.63,0,0,0,.51,1.86A3.57,3.57,0,0,0,86.53,83a4.16,4.16,0,0,0,5.21-1.1l.92.61a4.72,4.72,0,0,1-4.23,2,5,5,0,0,1-3.49-1.29,4.37,4.37,0,0,1-1.47-3.38,4.72,4.72,0,0,1,.66-2.44,4.65,4.65,0,0,1,1.81-1.75A5.29,5.29,0,0,1,88.53,75a5.06,5.06,0,0,1,3.15,1A3.89,3.89,0,0,1,92.66,77.13Z"/><path class="cls-5" d="M94.89,71.77H96v5.1A4.14,4.14,0,0,1,99.44,75a3.26,3.26,0,0,1,1.78.5,3,3,0,0,1,1.17,1.38,7.37,7.37,0,0,1,.38,2.73v4.65H101.6V80a11,11,0,0,0-.12-2.08,2.13,2.13,0,0,0-2.27-1.8,2.88,2.88,0,0,0-1.89.69,3.25,3.25,0,0,0-1.1,1.73A11.78,11.78,0,0,0,96,81v3.31H94.89Z"/><path class="cls-5" d="M105.25,75.25h1.16v1.62A4.11,4.11,0,0,1,109.8,75a3.26,3.26,0,0,1,1.78.5,3,3,0,0,1,1.17,1.39,7.36,7.36,0,0,1,.38,2.73v4.65H112V80a10.66,10.66,0,0,0-.13-2.08,2.13,2.13,0,0,0-2.27-1.8,2.88,2.88,0,0,0-1.89.69,3.25,3.25,0,0,0-1.1,1.73,11.84,11.84,0,0,0-.17,2.46v3.31h-1.16Z"/><path class="cls-5" d="M119.9,75a4.46,4.46,0,0,1,3.45,1.51,4.7,4.7,0,0,1,1.25,3.26,4.59,4.59,0,0,1-1.35,3.36,4.79,4.79,0,0,1-6.69,0,4.57,4.57,0,0,1-1.36-3.36,4.69,4.69,0,0,1,1.25-3.25A4.46,4.46,0,0,1,119.9,75Zm0,1.14a3.29,3.29,0,0,0-2.5,1.08,3.64,3.64,0,0,0-1,2.58,3.71,3.71,0,0,0,.46,1.8,3.35,3.35,0,0,0,1.29,1.33,3.51,3.51,0,0,0,1.77.46,3.26,3.26,0,0,0,3-1.77,3.69,3.69,0,0,0,.47-1.83,3.64,3.64,0,0,0-1-2.58A3.29,3.29,0,0,0,119.89,76.16Z"/><path class="cls-5" d="M126.58,71.77h1.16V84.28h-1.16Z"/><path class="cls-5" d="M134.43,75a4.46,4.46,0,0,1,3.45,1.51,4.7,4.7,0,0,1,1.25,3.26,4.59,4.59,0,0,1-1.35,3.36,4.79,4.79,0,0,1-6.69,0,4.57,4.57,0,0,1-1.36-3.36A4.69,4.69,0,0,1,131,76.54,4.46,4.46,0,0,1,134.43,75Zm0,1.14a3.29,3.29,0,0,0-2.5,1.08,3.64,3.64,0,0,0-1,2.58,3.71,3.71,0,0,0,.46,1.8,3.35,3.35,0,0,0,1.29,1.33,3.51,3.51,0,0,0,1.77.46,3.26,3.26,0,0,0,3-1.77,3.69,3.69,0,0,0,.47-1.83,3.64,3.64,0,0,0-1-2.58A3.29,3.29,0,0,0,134.43,76.16Z"/><path class="cls-5" d="M149.07,75.25h1.17v7.2a8.6,8.6,0,0,1-.33,2.78,3.65,3.65,0,0,1-1.71,2,5.3,5.3,0,0,1-2.59.6,5,5,0,0,1-3.59-1.2A5.29,5.29,0,0,1,140.95,85h1.26a3.56,3.56,0,0,0,3.35,1.76,3.22,3.22,0,0,0,3.17-1.56,5,5,0,0,0,.35-2.17v-.46a4.38,4.38,0,0,1-3.61,1.72,4.72,4.72,0,0,1-2.33-.61,4.34,4.34,0,0,1-1.7-1.66,4.63,4.63,0,0,1,7.64-5.19Zm-3.43.89a3.7,3.7,0,0,0-1.83.47,3.42,3.42,0,0,0-1.33,1.32,3.64,3.64,0,0,0-.48,1.83,3.24,3.24,0,0,0,1,2.49,3.59,3.59,0,0,0,2.55.94,3.53,3.53,0,0,0,2.57-1,3.39,3.39,0,0,0,1-2.54,3.29,3.29,0,0,0-1.72-3.09A3.54,3.54,0,0,0,145.65,76.14Z"/><path class="cls-5" d="M153.13,71.53a1,1,0,0,1,1,1,.91.91,0,0,1-.28.68.94.94,0,0,1-.68.28,1,1,0,0,1-1-1,.93.93,0,0,1,.28-.68A.91.91,0,0,1,153.13,71.53Zm-.58,3.72h1.17v9h-1.17Z"/><path class="cls-5" d="M163.73,81.29l1,.51a4.76,4.76,0,0,1-2.53,2.41,4.9,4.9,0,0,1-1.78.31A4.54,4.54,0,0,1,157,83.17a4.61,4.61,0,0,1-1.33-3.38,4.83,4.83,0,0,1,1.05-3.06A4.31,4.31,0,0,1,160.33,75,4.45,4.45,0,0,1,164,76.77a4.92,4.92,0,0,1,1,3.09h-8.13a3.76,3.76,0,0,0,.95,2.53,3.17,3.17,0,0,0,2.46,1.06,3.59,3.59,0,0,0,2.45-.88A5.46,5.46,0,0,0,163.73,81.29Zm0-2.43a3.35,3.35,0,0,0-1.85-2.37,3.61,3.61,0,0,0-1.54-.34,3.31,3.31,0,0,0-2.28.85A3.84,3.84,0,0,0,157,78.85Z"/><path class="cls-5" d="M171.73,76.24,171,77a2.68,2.68,0,0,0-1.82-.9,1.43,1.43,0,0,0-1,.36,1.12,1.12,0,0,0-.42.89q0,.9,1.73,1.79a6,6,0,0,1,1.54,1,2.32,2.32,0,0,1,.67,1.67,2.52,2.52,0,0,1-.79,1.9,2.7,2.7,0,0,1-1.94.76,3.2,3.2,0,0,1-2.66-1.28l.73-.83a2.53,2.53,0,0,0,1.88,1,1.77,1.77,0,0,0,1.17-.43,1.34,1.34,0,0,0,.51-1.08,1.47,1.47,0,0,0-.61-1.15,7.2,7.2,0,0,0-1.18-.7,5.31,5.31,0,0,1-1.47-1,2.31,2.31,0,0,1-.63-1.63,2.26,2.26,0,0,1,.71-1.72,2.48,2.48,0,0,1,1.77-.67A3.68,3.68,0,0,1,171.73,76.24Z"/><path class="cls-5" d="M179.76,82.46a1,1,0,0,1,.73.3,1,1,0,0,1,0,1.46,1,1,0,0,1-1.45,0,1,1,0,0,1,0-1.46A1,1,0,0,1,179.76,82.46Z"/><path class="cls-5" d="M188.07,72.07h1.23v5.12h6.21V72.07h1.23V84.28h-1.23V78.39H189.3v5.89h-1.23Z"/><path class="cls-5" d="M203.78,75a4.46,4.46,0,0,1,3.45,1.51,4.7,4.7,0,0,1,1.25,3.26,4.58,4.58,0,0,1-1.35,3.36,4.79,4.79,0,0,1-6.69,0,4.57,4.57,0,0,1-1.36-3.36,4.69,4.69,0,0,1,1.24-3.25A4.46,4.46,0,0,1,203.78,75Zm0,1.14a3.29,3.29,0,0,0-2.5,1.08,3.64,3.64,0,0,0-1,2.58,3.71,3.71,0,0,0,.46,1.8A3.35,3.35,0,0,0,202,82.95a3.51,3.51,0,0,0,1.77.46,3.26,3.26,0,0,0,3-1.77,3.68,3.68,0,0,0,.47-1.83,3.63,3.63,0,0,0-1-2.58A3.29,3.29,0,0,0,203.78,76.16Z"/><path class="cls-5" d="M215.2,76.24l-.75.77a2.68,2.68,0,0,0-1.82-.9,1.43,1.43,0,0,0-1,.36,1.12,1.12,0,0,0-.42.89q0,.9,1.73,1.79a6,6,0,0,1,1.54,1,2.32,2.32,0,0,1,.67,1.67,2.52,2.52,0,0,1-.79,1.9,2.7,2.7,0,0,1-1.94.76,3.2,3.2,0,0,1-2.66-1.28l.73-.83a2.53,2.53,0,0,0,1.88,1,1.76,1.76,0,0,0,1.17-.43,1.34,1.34,0,0,0,.51-1.08,1.47,1.47,0,0,0-.61-1.15,7.2,7.2,0,0,0-1.18-.7,5.31,5.31,0,0,1-1.47-1,2.31,2.31,0,0,1-.63-1.63,2.26,2.26,0,0,1,.71-1.72,2.48,2.48,0,0,1,1.77-.67A3.68,3.68,0,0,1,215.2,76.24Z"/><path class="cls-5" d="M218.25,71.9h1.17v3.35h1.84v1h-1.84v8h-1.17v-8h-1.59v-1h1.59Z"/><path class="cls-5" d="M223.41,71.53a1,1,0,0,1,1,1,.92.92,0,0,1-.28.68.93.93,0,0,1-.68.28,1,1,0,0,1-1-1,.93.93,0,0,1,.28-.68A.92.92,0,0,1,223.41,71.53Zm-.58,3.72H224v9h-1.17Z"/><path class="cls-5" d="M226.4,75.25h1.16v1.62A4.11,4.11,0,0,1,231,75a3.25,3.25,0,0,1,1.78.5,3,3,0,0,1,1.17,1.39,7.38,7.38,0,0,1,.38,2.73v4.65h-1.15V80a10.63,10.63,0,0,0-.13-2.08,2.12,2.12,0,0,0-2.27-1.8,2.88,2.88,0,0,0-1.89.69,3.24,3.24,0,0,0-1.1,1.73,11.81,11.81,0,0,0-.17,2.46v3.31H226.4Z"/><path class="cls-5" d="M244.56,75.25h1.17v7.2a8.6,8.6,0,0,1-.33,2.78,3.65,3.65,0,0,1-1.71,2,5.3,5.3,0,0,1-2.59.6,5,5,0,0,1-3.59-1.2A5.29,5.29,0,0,1,236.43,85h1.26A3.55,3.55,0,0,0,241,86.76a3.23,3.23,0,0,0,3.17-1.56,5,5,0,0,0,.35-2.17v-.46a4.37,4.37,0,0,1-3.61,1.72,4.72,4.72,0,0,1-2.33-.61,4.34,4.34,0,0,1-1.7-1.66,4.63,4.63,0,0,1,7.64-5.19Zm-3.43.89a3.7,3.7,0,0,0-1.83.47A3.42,3.42,0,0,0,238,77.93a3.64,3.64,0,0,0-.48,1.83,3.24,3.24,0,0,0,1,2.49,3.58,3.58,0,0,0,2.55.94,3.53,3.53,0,0,0,2.57-1,3.38,3.38,0,0,0,1-2.54,3.29,3.29,0,0,0-1.72-3.09A3.53,3.53,0,0,0,241.13,76.14Z"/></g></g></svg>