<svg xmlns="http://www.w3.org/2000/svg" xmlns:svg="http://www.w3.org/2000/svg" id="svg2" width="834.667" height="197.333" version="1.1" viewBox="0 0 834.667 197.333" xml:space="preserve"><metadata id="metadata8"/><defs id="defs6"><clipPath id="clipPath20" clipPathUnits="userSpaceOnUse"><path id="path18" d="M 0,148 H 626 V 0 H 0 Z"/></clipPath></defs><g id="g10" transform="matrix(1.3333333,0,0,-1.3333333,0,197.33333)"><path id="path12" d="M 0,0 H 626 V 148 H 0 Z" style="fill:#fff;fill-opacity:1;fill-rule:nonzero;stroke:none"/><g id="g14"><g id="g16" clip-path="url(#clipPath20)"><g id="g22" transform="translate(43.1401,37.5596)"><path id="path24" d="m 0,0 c 6.628,-2.404 13.723,-3.243 20.73,-2.449 9,1.239 14.41,2.179 30.71,14.3 0.15,0.12 0.66,-0.63 0.66,-0.63 -7.65,-14.17 -18.24,-22.781 -30.82,-26.761 -0.84,-0.289 -1.02,-1.289 -0.73,-2.289 l 91.51,0.01 c 0.26,1.049 0.11,2.029 -0.74,2.29 -12.59,3.929 -23.16,12.58 -30.81,26.75 -0.02,0.019 0.51,0.739 0.66,0.63 16.3,-12.111 21.69,-13.061 30.69,-14.3 6.996,-0.788 14.08,0.05 20.7,2.449 10.3,3.44 19.42,10.82 22.84,21.62 2.052,6.317 2.052,13.123 0,19.441 -1.523,4.599 -4.243,8.71 -7.88,11.91 -7.22,6.329 -15.36,9.009 -24.22,11.329 -4.96,1.301 -9.89,2.221 -14.76,3.221 h 0.12 C 83.57,72.831 77.86,73.44 66.28,93.541 54.66,73.41 48.99,72.851 23.89,67.541 h 0.13 C 19.14,66.581 14.26,65.621 9.26,64.32 0.4,61.99 -7.78,59.311 -14.97,52.99 c -3.638,-3.199 -6.358,-7.31 -7.88,-11.909 -2.062,-6.316 -2.062,-13.125 0,-19.44 C -19.42,10.82 -10.27,3.44 0,0" style="fill:#e94734;fill-opacity:1;fill-rule:nonzero;stroke:none"/></g><g id="g26" transform="translate(346.3701,95.2202)"><path id="path28" d="m 0,0 c -11.94,0 -14,-9.81 -14,-23.59 0,-13.781 2.08,-23.58 14,-23.66 11.93,0.08 14,9.879 14,23.66 C 14,-9.81 11.939,0 0,0" style="fill:#e94734;fill-opacity:1;fill-rule:nonzero;stroke:none"/></g><g id="g30" transform="translate(566.2305,94.29)"><path id="path32" d="m 0,0 c -8.381,0 -7.19,-1.12 -7.33,-6.05 v -33.66 c 0.14,-4.93 -1.051,-6.05 7.33,-6.05 v -3.07 h -25.591 v 3.07 c 8.38,0 7.181,1.12 7.33,6.05 v 33.67 c -0.149,4.93 1,6.05 -7.33,6.05 V 3.09 L 0,3.09 Z m -36.36,-10.54 c -1.13,8.46 -1.191,10.17 -9.5,10.17 h -3.22 v -39.34 c 0,-5.311 -0.601,-6.05 7.699,-6.05 v -3.07 h -26.33 v 3.07 c 8.311,0 7.7,0.739 7.7,6.05 v 39.35 h -3.219 c -8.31,0 -8.38,-1.71 -9.5,-10.17 h -5.5 V 3.09 h 47.28 l 0.05,-13.63 z m -67.56,-8.96 c 4.489,0 5.39,3 5.609,7.19 h 4.081 c -0.081,-2.92 -0.081,-5.83 -0.151,-8.76 -0.069,-2.93 0.07,-5.91 0.151,-8.83 h -4.121 c -0.37,4 -1,7 -5.61,7.26 h -4.56 v -22.75 h 8.3 c 8.901,0 9.13,2.46 10,10.92 h 5.46 v -14.36 h -40.849 v 3.07 c 7.259,0 6.059,1.72 6.2,6.05 v 33.6 c -0.141,4.41 1.05,6.13 -6.2,6.13 v 3.07 h 40.92 V -9.19 h -5.46 c -0.901,7.92 -0.901,8.82 -11,8.82 h -7.33 V -19.5 Z m -27.53,-8.69 c -6.521,0.3 -5.471,-3.74 -5.471,-6.06 v -12 c -5.3,0.15 -10.17,-1.94 -15.18,-2.771 -2.317,-0.334 -4.658,-0.482 -7,-0.439 -17.129,0.03 -25.129,8.7 -25.129,25.689 0,19.451 8,27.831 27.669,27.831 6.172,-0.045 12.319,-0.773 18.331,-2.17 v -12.86 h -5.31 c -1.421,9.43 -2.391,11.89 -13,11.89 -14.141,0 -15.78,-13.17 -15.78,-24.83 0,-10.17 2.24,-22.45 15,-22.45 2.84,0 7.259,0.9 9.049,3.29 0.531,0.68 0.531,1.5 0.531,8.83 -0.16,4.79 1.269,6.42 -9,6.06 v 3.06 c 5.91,-0.07 10.17,-0.07 14.429,-0.151 4.271,0.081 8.531,0.081 10.93,0.151 z m -88.41,-21.27 c -18.58,0 -26,8.61 -26.111,26.8 -0.109,18.19 7.601,26.73 26.111,26.73 18.509,0 26,-8.61 26.11,-26.73 0.109,-18.12 -7.54,-26.8 -26.11,-26.8 M -281,-49.51 v 0 c -6.716,0.073 -13.386,1.121 -19.8,3.11 v 15.53 h 6.75 c 0.8,-9.84 2.929,-15 13.759,-15 7,0 12.431,4.349 12.431,11.54 0,4.71 -2,7.809 -6.48,9.67 -11.54,4.09 -26.451,4.7 -26.451,20.59 0,13.31 12.701,18 24.141,18 6.247,-0.083 12.45,-1.063 18.42,-2.91 V -2.82 h -6.391 c -0.44,7.72 -3,13 -11.719,13 -6.79,-0.05 -11.89,-3.24 -11.89,-10.47 0,-9.23 10.919,-9.85 17.569,-12 9.591,-3 15.62,-6.12 15.62,-17.39 0.041,-15.13 -13,-19.83 -25.959,-19.83 m -76.05,-33.72 H -556.57 V 43.4 h 199.52 z m -203.381,-3.85 H 53.859 V 47.25 h -614.29 z" style="fill:#e94734;fill-opacity:1;fill-rule:nonzero;stroke:none"/></g></g></g></g></svg>