<svg xmlns="http://www.w3.org/2000/svg" width="295" height="175" fill="none" viewBox="0 0 295 175"><path fill="#0C1218" d="M4.40306 21.1612H0V14.7193H4.40306V0.0214844H32.6972V6.46337H11.2117V14.7193H26.1821V21.1612H11.2117V30.3526H32.6972V36.7945H4.40306V21.1612Z"/><path fill="#0C1218" d="M37.9375 8.44972H44.0445V12.0206H44.1591C45.863 9.38529 48.9702 7.68555 52.8435 7.68555C58.8359 7.68555 63.8834 12.6634 63.8834 19.6909V36.7883H57.7835V21.0407C57.7835 15.8843 55.0844 13.7775 51.0321 13.7775C47.1016 13.7775 44.0445 16.2985 44.0445 20.9193V36.7883H37.9375V8.44972Z"/><path fill="#0C1218" d="M97.0394 30.6451C93.6315 34.923 88.9421 37.4941 83.8302 37.5583C73.9072 37.5583 68.1582 30.1237 68.1582 22.6249C68.1582 15.1331 73.9144 7.69141 83.8302 7.69141C89.7583 7.69141 98.5644 12.555 98.5644 23.6176V24.7317H74.9597C75.3105 29.0668 79.3627 32.1663 83.6513 32.1663C86.9374 32.1663 89.7583 30.588 91.8703 27.7741L97.0394 30.6451ZM91.3978 19.6896C90.1091 15.3545 86.8802 13.0763 82.9997 13.0763C79.1193 13.0763 75.9549 15.4759 74.9525 19.6896H91.3978Z"/><path fill="#0C1218" d="M103.748 8.44843H109.497V11.5551H109.612C110.614 9.21261 112.719 7.69141 115.189 7.69141C116.535 7.69141 117.709 8.04135 118.533 8.56985L116.363 14.6047C115.776 14.1333 114.659 13.7833 114.072 13.7833C111.846 13.7833 109.848 15.4831 109.848 18.0613V36.8013H103.741V8.44843H103.748Z"/><path fill="#0C1218" d="M147.077 33.6304C147.077 43.0004 139.91 48.3853 132.214 48.3853C128.276 48.3853 123.465 46.7427 120.229 42.7647L125.219 39.1367C126.393 40.7721 129.035 42.6504 131.913 42.6504C138.142 42.6504 141.313 38.6082 141.313 34.2803V32.402C138.729 35.273 135.793 36.7942 131.619 36.7942C124.281 36.7942 117.823 31.2879 117.823 22.3321C117.823 13.0192 124.746 7.69141 132.328 7.69141C136.144 7.69141 139.201 9.15547 141.199 11.7908H141.313V8.45558H147.07V33.6304H147.077ZM132.865 31.0522C137.798 31.0522 141.321 27.1242 141.321 22.2678C141.321 17.3471 137.505 13.4263 132.865 13.4263C128.104 13.4263 124.288 17.3471 124.288 22.2107C124.288 27.1313 127.689 31.0522 132.865 31.0522Z"/><path fill="#0C1218" d="M152.989 8.45117H159.096V25.0772C159.096 29.8194 162.039 31.8119 165.798 31.8119C170.559 31.8119 172.85 28.8838 172.85 24.4916V8.45117H178.964V35.9113C178.964 44.5743 171.267 48.3809 165.984 48.3809C159.576 48.3809 156.698 45.9812 153.934 42.8174L159.103 39.6536C161.044 41.5248 162.984 42.6389 165.626 42.6389C169.678 42.6389 173.2 40.1821 173.2 35.2043V33.6831H173.086C170.673 36.3755 168.447 37.5468 164.509 37.5468C158.166 37.5468 152.996 32.8047 152.996 24.8416V8.45117H152.989Z"/><path fill="#0C1218" d="M69.589 95.3056H60.7686V82.4004H69.589V44.8418H104.763C121.23 44.8418 131.346 55.6402 131.346 70.0737C131.346 84.5073 121.23 95.2985 104.763 95.2985H83.2349V118.531H69.589V95.3056ZM83.2349 82.3933H103.704C113.348 82.3933 117.701 76.6442 117.701 70.0737C117.701 63.5033 113.348 57.7541 103.704 57.7541H83.2349V82.3933V82.3933Z"/><path fill="#0C1218" d="M233.869 58.0469C253.751 58.0469 265.278 72.9518 265.278 87.9709C265.278 102.99 253.751 117.895 233.869 117.895C213.988 117.895 202.461 102.99 202.461 87.9709C202.461 72.9518 213.988 58.0469 233.869 58.0469ZM233.869 106.397C244.573 106.397 252.334 98.1837 252.334 87.9709C252.334 77.7653 244.573 69.5451 233.869 69.5451C223.159 69.5451 215.398 77.7582 215.398 87.9709C215.398 98.1766 223.159 106.397 233.869 106.397Z"/><path fill="#0C1218" d="M282.704 45.6855V96.4922C282.704 103.063 284.115 105.412 287.759 107.526L294.346 111.283L288.933 120.91C276.347 114.925 270.469 110.583 270.469 98.7276V45.6855H282.704Z"/><path fill="#F90" d="M185.523 0L185.638 58.177L238.883 37.7658L229.031 30.8525L195.575 43.3435L195.153 6.69185L185.523 0Z"/><path fill="#F90" d="M144.478 174.044L144.37 115.867L91.1182 136.271L100.97 143.192L134.426 130.701L134.848 167.352L144.478 174.044Z"/><path fill="#0C1218" d="M165.778 57.7578C185.659 57.7578 197.186 72.6627 197.186 87.6819C197.186 102.701 185.659 117.606 165.778 117.606C145.896 117.606 134.369 102.701 134.369 87.6819C134.369 72.6627 145.896 57.7578 165.778 57.7578ZM165.778 106.108C176.481 106.108 184.242 97.8946 184.242 87.6819C184.242 77.4691 176.481 69.2561 165.778 69.2561C155.067 69.2561 147.306 77.4691 147.306 87.6819C147.306 97.8946 155.074 106.108 165.778 106.108Z"/><path fill="#F90" d="M177.127 88.1994C177.269 81.9732 172.324 76.8113 166.082 76.6699C159.841 76.5286 154.666 81.4613 154.524 87.6874C154.382 93.9136 159.327 99.0755 165.569 99.2169C171.811 99.3583 176.985 94.4256 177.127 88.1994Z"/></svg>