<svg xmlns="http://www.w3.org/2000/svg" width="816" height="333.3"><defs><clipPath id="a"><path d="M0 250h612V0H0z"/></clipPath></defs><path fill="#231f20" d="M98.6 113h6.7v68.5l69.2-68.4h9l-46 46.4 47.4 60.5h-8.4l-44.4-55.9-26.8 26.7v28.8h-6.7zM205.1 119.4h76.2v-6.3h-76.2zM205.1 169.7h76.2v-6.3h-76.2zM205.1 220h76.2v-6.3h-76.2zM303 113h8.1l41 56.7 40.3-56.6h8.1l-45 63.5V220h-7v-43.4z"/><g clip-path="url(#a)" transform="matrix(1.33333 0 0 -1.33333 0 333.3)"><path fill="#231f20" d="M316.4 165.5h19c2.2 0 17.5-.1 22.8-1 10.3-1.7 19.8-8.3 20.3-21.8.8-22.5-23.8-23.6-23.8-23.6l26-34.1h-6.5L348.5 119v4.2s25-.6 25 18.1c0 21.4-25.3 19-27.3 19h-24.5V85h-5.3zM396.8 165.2h5v-44.3c0-10.5 2.4-31.3 27.8-31.3 25.3 0 27.6 18 27.6 29.6v46h5.2v-41.5c0-10.2 3-39-32.8-39-32.8 0-32.8 27-32.8 40.6zM478.9 97.9l3 4.2s9.8-12.3 28.8-12.3 22.7 10.3 22.3 18c-.5 9-6.7 11.7-30 16.6-19.9 4.2-22.5 15.1-20.5 24.5.8 4 4 9.2 10.2 12.5a38.7 38.7 0 0 0 43-5.8l-2.7-4.4s-10 9.5-24.6 9.2c-14.5-.2-22.6-8-21-18.5 1.3-8 6-9.8 23.4-14.3 18.7-4.8 29.4-7.2 27-25.5-2.8-19.7-37.9-25.3-59-4.2"/></g></svg>