<?xml version="1.0" encoding="UTF-8" standalone="no"?>
<svg
   id="b"
   data-name="Calque 2"
   width="100mm"
   height="100mm"
   viewBox="0 0 283.46567 283.45892"
   version="1.1"
   sodipodi:docname="octopuce-carre.svg"
   inkscape:version="1.2.2 (b0a8486541, 2022-12-01)"
   xmlns:inkscape="http://www.inkscape.org/namespaces/inkscape"
   xmlns:sodipodi="http://sodipodi.sourceforge.net/DTD/sodipodi-0.dtd"
   xmlns="http://www.w3.org/2000/svg"
   xmlns:svg="http://www.w3.org/2000/svg">
  <defs
     id="defs102" />
  <sodipodi:namedview
     id="namedview100"
     pagecolor="#ffffff"
     bordercolor="#666666"
     borderopacity="1.0"
     inkscape:showpageshadow="2"
     inkscape:pageopacity="0.0"
     inkscape:pagecheckerboard="0"
     inkscape:deskcolor="#d1d1d1"
     inkscape:document-units="mm"
     showgrid="false"
     inkscape:zoom="0.44522943"
     inkscape:cx="509.84949"
     inkscape:cy="532.30982"
     inkscape:window-width="1920"
     inkscape:window-height="1051"
     inkscape:window-x="0"
     inkscape:window-y="0"
     inkscape:window-maximized="1"
     inkscape:current-layer="g96" />
  <g
     id="c"
     data-name="Calque 1"
     transform="translate(-20.214376,-35.796292)">
    <g
       id="g96">
      <g
         id="g388"
         transform="matrix(2.4497167,0,0,2.4497167,-213.99945,25.004592)">
        <path
           d="m 184.11786,38.080727 v -2.707 h -13.934 v 2.707 h -2.787 v 5.414 h -5.573 v -5.414 h 2.787 v -10.828 h -2.787 v -2.707 h -2.787 v -2.707 h -2.787 v -2.707 h -11.147 v 2.708 c 0,0 -5.573,0 -5.573,0 v 2.707 h -2.787 v 8.121 h 2.787 v 5.414 h 2.787 v 2.707 h -5.574 v -2.707 h -2.787 v -5.414 h -2.787 v -2.707 h -8.359 v 2.707 h -2.787 v 5.414 h 2.787 v 2.707 h 2.787 v -5.414 h 2.787 v 5.414 h 2.787 v 2.707 h 2.787 v 2.707 h 8.36 v 2.707 h -5.573 v 2.707 h -5.574 v 2.707 h -2.787 v 8.121 h 2.787 v 2.707 h 2.787 v 2.707 h -2.787 v 2.707 h 5.574 v -8.121 h -2.787 v -5.414 h 2.787 v -2.707 h 8.36 v -2.707 h 2.787 v 5.414 h 2.787 v 2.707 h 2.787 v 5.414 h -2.787 v 2.707 h -2.787 v 8.121 h 5.573 v -2.707 h -2.787 v -2.707 h 5.574 v -2.707 h 2.787 v -10.828 h -2.787 v -2.707 h -2.787 v -5.414 h 2.787 v 5.414 h 2.787 v 2.707 h 5.574 v 2.707 h 2.787 v 5.414 h -2.787 v 2.707 h 5.574 v -2.707 h 2.787 v -8.121 h -2.787 v -2.707 h -2.787 v -2.707 h -5.573 v -2.707 h 8.36 v -2.707 h 2.787 v -5.414 h 5.574 v 2.707 h -2.787 v 2.707 h 8.36 v -2.707 h 2.787 v -5.414 h -2.787 z m -32.588,-4.904 h -2.941 v -2.857 h 2.941 z m 7.425,0 h -2.941 v -2.857 h 2.941 z"
           fill="#3278b6"
           fill-rule="evenodd"
           id="path2" />
        <rect
           x="162.19685"
           y="16.802727"
           width="2.941"
           height="2.941"
           fill="#3278b6"
           id="rect4" />
        <rect
           x="166.44885"
           y="12.21273"
           width="2.941"
           height="2.941"
           fill="#3278b6"
           id="rect6" />
      </g>
      <g
         id="g24"
         transform="matrix(1.1238885,0,0,1.1238885,-48.711079,218.22805)">
        <path
           d="M 80.618,32.569 V 20.877 c 0,-8.009 4.378,-13.295 13.294,-13.295 8.916,0 13.241,5.286 13.241,13.295 v 11.692 c 0,8.009 -4.325,13.24 -13.241,13.24 -8.916,0 -13.294,-5.231 -13.294,-13.24 z m 19.808,-0.588 V 21.41 c 0,-4.965 -1.655,-7.688 -6.514,-7.688 -4.805,0 -6.566,2.723 -6.566,7.688 v 10.571 c 0,5.02 1.762,7.688 6.566,7.688 4.858,0 6.514,-2.669 6.514,-7.688 z"
           fill="#3278b6"
           id="path8" />
        <path
           d="M 112.369,34.331 V 26.91 c 0,-7.048 4.058,-11.479 11.8,-11.479 4.058,0 6.834,1.495 8.81,3.897 0.587,0.748 0.907,1.335 0.907,2.189 0,1.602 -1.228,2.829 -2.83,2.829 -0.854,0 -1.494,-0.32 -2.135,-0.961 -1.335,-1.335 -2.616,-2.242 -4.752,-2.242 -4.218,0 -5.393,2.83 -5.393,6.3 v 6.354 c 0,3.471 1.335,6.3 5.553,6.3 2.136,0 3.417,-0.907 4.752,-2.242 0.641,-0.641 1.121,-0.961 2.082,-0.961 1.602,0 2.883,1.229 2.883,2.83 0,0.854 -0.32,1.441 -0.907,2.188 -1.976,2.403 -4.752,3.897 -8.81,3.897 -7.742,0 -11.96,-4.431 -11.96,-11.479 z"
           fill="#3278b6"
           id="path10" />
        <path
           d="M 142.263,36.787 V 21.25 h -2.616 c -1.441,0 -2.562,-1.121 -2.562,-2.562 0,-1.335 1.015,-2.456 2.35,-2.562 l 2.937,-0.268 0.373,-3.844 c 0.16,-1.762 1.389,-2.99 2.99,-2.99 1.655,0 2.937,1.335 2.937,2.99 v 3.844 h 5.445 c 1.549,0 2.724,1.175 2.724,2.724 0,1.495 -1.175,2.669 -2.724,2.669 h -5.445 v 15.43 c 0,2.296 0.854,3.257 3.203,3.257 0.961,0 1.709,-0.106 2.51,-0.267 0.267,-0.054 0.747,-0.16 1.015,-0.16 1.494,0 2.669,1.175 2.669,2.616 0,1.175 -0.641,1.976 -1.762,2.51 -1.495,0.693 -3.203,1.014 -5.072,1.014 -6.406,0 -8.97,-3.149 -8.97,-8.862 z"
           fill="#3278b6"
           id="path12" />
        <path
           d="m 161.392,34.438 v -7.475 c 0,-7.101 3.685,-11.532 11.479,-11.532 7.848,0 11.479,4.378 11.479,11.532 v 7.475 c 0,7.102 -3.631,11.372 -11.479,11.372 -7.795,0 -11.479,-4.378 -11.479,-11.372 z m 16.552,-0.373 v -6.834 c 0,-4.165 -1.282,-6.087 -5.072,-6.087 -3.79,0 -5.072,1.922 -5.072,6.087 v 6.834 c 0,4.11 1.281,6.086 5.072,6.086 3.791,0 5.072,-1.976 5.072,-6.086 z"
           fill="#3278b6"
           id="path14" />
        <path
           d="M 189.893,53.392 V 18.313 c 0,-1.654 1.228,-2.883 2.883,-2.883 1.389,0 2.456,0.908 2.776,2.189 l 0.268,0.961 c 1.494,-1.709 4.271,-3.15 7.261,-3.15 6.46,0 9.771,4.324 9.771,11.479 v 7.475 c 0,7.154 -3.257,11.425 -9.61,11.425 -2.883,0 -5.446,-1.388 -6.94,-2.937 v 10.519 c 0,1.762 -1.389,3.203 -3.204,3.203 -1.815,0 -3.203,-1.441 -3.203,-3.203 z m 16.551,-19.701 v -6.14 c 0,-4.111 -1.441,-6.087 -5.019,-6.087 -1.976,0 -3.897,1.121 -5.125,2.402 v 13.562 c 1.228,1.281 3.149,2.349 5.125,2.349 3.577,0 5.019,-1.975 5.019,-6.086 z"
           fill="#3278b6"
           id="path16" />
        <path
           d="M 218.207,35.452 V 18.634 c 0,-1.762 1.441,-3.203 3.203,-3.203 1.762,0 3.203,1.441 3.203,3.203 v 15.431 c 0,4.11 1.655,5.552 4.646,5.552 2.296,0 4.484,-1.388 5.499,-2.402 v -18.58 c 0,-1.762 1.441,-3.203 3.203,-3.203 1.762,0 3.204,1.441 3.204,3.203 v 24.347 c 0,1.602 -1.229,2.829 -2.776,2.829 -1.442,0 -2.456,-1.014 -2.776,-2.402 l -0.268,-1.175 c -1.548,1.549 -4.431,3.577 -8.328,3.577 -6.354,0 -8.81,-4.538 -8.81,-10.357 z"
           fill="#3278b6"
           id="path18" />
        <path
           d="M 246.547,34.331 V 26.91 c 0,-7.048 4.058,-11.479 11.8,-11.479 4.058,0 6.834,1.495 8.81,3.897 0.587,0.748 0.907,1.335 0.907,2.189 0,1.602 -1.228,2.829 -2.83,2.829 -0.854,0 -1.494,-0.32 -2.135,-0.961 -1.335,-1.335 -2.616,-2.242 -4.752,-2.242 -4.218,0 -5.393,2.83 -5.393,6.3 v 6.354 c 0,3.471 1.335,6.3 5.553,6.3 2.136,0 3.417,-0.907 4.752,-2.242 0.641,-0.641 1.121,-0.961 2.082,-0.961 1.602,0 2.883,1.229 2.883,2.83 0,0.854 -0.32,1.441 -0.907,2.188 -1.976,2.403 -4.752,3.897 -8.81,3.897 -7.742,0 -11.96,-4.431 -11.96,-11.479 z"
           fill="#3278b6"
           id="path20" />
        <path
           d="m 271.992,35.238 v -8.382 c 0,-7.048 3.631,-11.426 11.212,-11.426 7.742,0 11.052,4.218 11.052,11.426 v 3.577 c 0,1.388 -1.121,2.509 -2.509,2.509 h -13.348 v 2.884 c 0,2.242 1.388,4.431 5.285,4.431 2.776,0 4.271,-0.427 6.354,-1.441 0.32,-0.16 0.748,-0.32 1.175,-0.32 1.441,0 2.616,1.175 2.616,2.616 0,1.121 -0.694,1.922 -1.708,2.51 -2.51,1.441 -4.966,2.188 -8.703,2.188 -7.635,0 -11.426,-4.004 -11.426,-10.571 z m 16.018,-7.314 c 0,-4.645 -0.908,-6.94 -4.806,-6.94 -3.844,0 -4.805,2.028 -4.805,6.94 h 9.61 z"
           fill="#3278b6"
           id="path22" />
      </g>
      <g
         id="g94"
         transform="matrix(1.1238885,0,0,1.1238885,-48.230055,218.22805)">
        <path
           d="m 80.959,69.478 c -0.26,-0.155 -0.401,-0.362 -0.401,-0.647 0,-0.401 0.311,-0.713 0.699,-0.713 0.155,0 0.311,0.065 0.466,0.155 0.674,0.376 1.218,0.531 1.943,0.531 1.127,0 1.542,-0.557 1.542,-1.166 0,-2.163 -4.263,-0.906 -4.263,-4.093 0,-1.724 1.205,-2.565 2.89,-2.565 0.984,0 1.787,0.285 2.448,0.713 0.22,0.142 0.376,0.362 0.376,0.635 0,0.389 -0.285,0.699 -0.687,0.699 -0.182,0 -0.324,-0.078 -0.519,-0.169 -0.596,-0.284 -1.102,-0.427 -1.685,-0.427 -0.958,0 -1.23,0.492 -1.23,1.062 0,1.736 4.275,0.726 4.275,4.056 0,1.748 -1.27,2.707 -3.019,2.707 -1.373,0 -2.216,-0.389 -2.837,-0.777 z"
           fill="#3278b6"
           id="path26" />
        <path
           d="m 87.875,67.69 v -2.034 c 0,-1.71 0.881,-2.772 2.721,-2.772 1.878,0 2.682,1.023 2.682,2.772 v 0.868 c 0,0.337 -0.272,0.608 -0.609,0.608 h -3.238 v 0.699 c 0,0.545 0.337,1.076 1.282,1.076 0.674,0 1.036,-0.104 1.542,-0.351 0.077,-0.038 0.181,-0.077 0.285,-0.077 0.35,0 0.635,0.285 0.635,0.635 0,0.271 -0.169,0.466 -0.415,0.608 -0.608,0.35 -1.205,0.531 -2.111,0.531 -1.853,0 -2.772,-0.972 -2.772,-2.564 z m 3.887,-1.775 c 0,-1.127 -0.221,-1.684 -1.166,-1.684 -0.933,0 -1.166,0.492 -1.166,1.684 z"
           fill="#3278b6"
           id="path28" />
        <path
           d="m 94.662,69.478 v -5.907 c 0,-0.389 0.298,-0.687 0.674,-0.687 0.35,0 0.596,0.246 0.673,0.583 l 0.065,0.467 c 0.298,-0.389 0.933,-1.05 1.774,-1.05 0.479,0 0.881,0.259 0.881,0.777 0,0.414 -0.271,0.765 -0.699,0.765 -0.104,0 -0.272,-0.026 -0.415,-0.026 -0.621,0 -1.101,0.35 -1.398,0.751 v 4.327 c 0,0.428 -0.35,0.777 -0.777,0.777 -0.427,0 -0.777,-0.35 -0.777,-0.777 z"
           fill="#3278b6"
           id="path30" />
        <path
           d="M 101.346,69.581 99.52,63.972 c -0.039,-0.116 -0.065,-0.22 -0.065,-0.311 0,-0.453 0.337,-0.777 0.777,-0.777 0.453,0 0.661,0.272 0.752,0.596 l 1.334,4.573 h 0.052 l 1.334,-4.573 c 0.091,-0.323 0.298,-0.596 0.752,-0.596 0.44,0 0.777,0.324 0.777,0.777 0,0.091 -0.026,0.194 -0.065,0.311 l -1.826,5.609 c -0.104,0.337 -0.337,0.57 -0.752,0.57 h -0.492 c -0.414,0 -0.647,-0.233 -0.751,-0.57 z"
           fill="#3278b6"
           id="path32" />
        <path
           d="m 106.164,67.69 v -2.034 c 0,-1.71 0.881,-2.772 2.721,-2.772 1.878,0 2.682,1.023 2.682,2.772 v 0.868 c 0,0.337 -0.272,0.608 -0.609,0.608 h -3.238 v 0.699 c 0,0.545 0.337,1.076 1.282,1.076 0.674,0 1.036,-0.104 1.542,-0.351 0.077,-0.038 0.181,-0.077 0.285,-0.077 0.35,0 0.635,0.285 0.635,0.635 0,0.271 -0.169,0.466 -0.415,0.608 -0.608,0.35 -1.205,0.531 -2.111,0.531 -1.853,0 -2.772,-0.972 -2.772,-2.564 z m 3.887,-1.775 c 0,-1.127 -0.221,-1.684 -1.166,-1.684 -0.933,0 -1.166,0.492 -1.166,1.684 z"
           fill="#3278b6"
           id="path34" />
        <path
           d="m 112.886,67.742 v -4.081 c 0,-0.428 0.351,-0.777 0.777,-0.777 0.426,0 0.777,0.35 0.777,0.777 v 3.744 c 0,0.997 0.402,1.347 1.127,1.347 0.558,0 1.089,-0.337 1.335,-0.583 v -4.508 c 0,-0.428 0.35,-0.777 0.777,-0.777 0.427,0 0.777,0.35 0.777,0.777 v 5.907 c 0,0.389 -0.298,0.687 -0.674,0.687 -0.35,0 -0.596,-0.246 -0.674,-0.583 l -0.064,-0.285 c -0.376,0.376 -1.075,0.868 -2.021,0.868 -1.541,0 -2.138,-1.101 -2.138,-2.513 z"
           fill="#3278b6"
           id="path36" />
        <path
           d="m 120.139,69.478 v -5.907 c 0,-0.389 0.298,-0.687 0.674,-0.687 0.35,0 0.596,0.246 0.673,0.583 l 0.065,0.467 c 0.298,-0.389 0.933,-1.05 1.774,-1.05 0.479,0 0.881,0.259 0.881,0.777 0,0.414 -0.271,0.765 -0.699,0.765 -0.104,0 -0.272,-0.026 -0.415,-0.026 -0.621,0 -1.101,0.35 -1.398,0.751 v 4.327 c 0,0.428 -0.351,0.777 -0.777,0.777 -0.426,0 -0.777,-0.35 -0.777,-0.777 z"
           fill="#3278b6"
           id="path38" />
        <path
           d="m 124.931,69.698 c -0.193,-0.117 -0.336,-0.324 -0.336,-0.558 0,-0.35 0.284,-0.635 0.621,-0.635 0.065,0 0.143,0.014 0.272,0.065 0.699,0.284 1.243,0.375 1.697,0.375 0.751,0 1.088,-0.311 1.088,-0.92 0,-1.334 -3.407,-0.635 -3.407,-3.07 0,-1.425 1.05,-2.072 2.475,-2.072 0.777,0 1.438,0.168 2.021,0.492 0.233,0.13 0.363,0.337 0.363,0.57 0,0.35 -0.285,0.635 -0.635,0.635 -0.091,0 -0.208,-0.026 -0.324,-0.078 -0.519,-0.246 -0.997,-0.311 -1.36,-0.311 -0.622,0 -1.036,0.182 -1.036,0.712 0,1.153 3.42,0.622 3.42,2.993 0,1.528 -0.777,2.357 -2.604,2.357 -0.467,0 -1.646,-0.194 -2.255,-0.557 z"
           fill="#3278b6"
           id="path40" />
        <path
           d="m 133.999,67.548 c 0,-1.037 0.389,-1.827 1.567,-2.384 l -0.312,-0.376 c -0.375,-0.467 -0.583,-0.959 -0.583,-1.594 0,-1.321 1.05,-2.215 2.617,-2.215 0.842,0 1.671,0.259 2.15,0.583 0.233,0.168 0.324,0.362 0.324,0.596 0,0.376 -0.298,0.674 -0.674,0.674 -0.104,0 -0.221,-0.026 -0.362,-0.091 -0.389,-0.182 -0.739,-0.311 -1.348,-0.311 -0.829,0 -1.14,0.401 -1.14,0.842 0,0.298 0.155,0.596 0.44,0.894 l 2.552,2.708 c 0.143,-0.363 0.246,-0.687 0.324,-1.153 0.064,-0.414 0.323,-0.647 0.699,-0.647 0.414,0 0.699,0.311 0.699,0.699 0,0.596 -0.375,1.594 -0.687,2.177 l 1.036,1.101 c 0.117,0.13 0.194,0.312 0.194,0.493 0,0.388 -0.323,0.712 -0.725,0.712 -0.247,0 -0.44,-0.13 -0.609,-0.298 l -0.726,-0.765 c -0.608,0.635 -1.438,1.062 -2.539,1.062 -1.735,0 -2.901,-0.984 -2.901,-2.707 z m 4.469,0.66 -1.969,-1.995 c -0.777,0.221 -0.933,0.829 -0.933,1.335 0,0.764 0.466,1.321 1.347,1.321 0.661,0 1.166,-0.26 1.555,-0.661 z"
           fill="#3278b6"
           id="path42" />
        <path
           d="m 145.837,61.304 c 0,-0.519 0.389,-0.946 0.958,-0.946 0.569,0 0.959,0.428 0.959,0.946 0,0.518 -0.389,0.945 -0.959,0.945 -0.57,0 -0.958,-0.428 -0.958,-0.945 z m 0.194,8.174 v -5.816 c 0,-0.428 0.336,-0.777 0.777,-0.777 0.441,0 0.776,0.35 0.776,0.777 v 5.816 c 0,0.428 -0.336,0.777 -0.776,0.777 -0.44,0 -0.777,-0.35 -0.777,-0.777 z"
           fill="#3278b6"
           id="path44" />
        <path
           d="m 149.321,69.478 v -5.907 c 0,-0.389 0.298,-0.687 0.674,-0.687 0.35,0 0.596,0.246 0.673,0.583 l 0.065,0.285 c 0.375,-0.376 1.075,-0.868 2.021,-0.868 1.542,0 2.138,1.102 2.138,2.514 v 4.08 c 0,0.428 -0.35,0.777 -0.777,0.777 -0.427,0 -0.777,-0.35 -0.777,-0.777 v -3.744 c 0,-0.997 -0.401,-1.347 -1.127,-1.347 -0.557,0 -1.088,0.337 -1.334,0.583 v 4.508 c 0,0.428 -0.351,0.777 -0.777,0.777 -0.426,0 -0.777,-0.35 -0.777,-0.777 z"
           fill="#3278b6"
           id="path46" />
        <path
           d="m 157.197,69.478 v -5.182 h -0.635 c -0.351,0 -0.622,-0.272 -0.622,-0.622 0,-0.323 0.246,-0.596 0.569,-0.622 l 0.688,-0.064 v -0.324 c 0,-1.386 0.803,-2.345 2.293,-2.345 0.427,0 0.764,0.078 1.036,0.194 0.298,0.13 0.428,0.298 0.428,0.597 0,0.35 -0.285,0.621 -0.635,0.621 -0.169,0 -0.324,-0.064 -0.597,-0.064 -0.712,0 -0.972,0.324 -0.972,0.92 v 0.401 h 1.218 c 0.376,0 0.661,0.285 0.661,0.661 0,0.362 -0.285,0.647 -0.661,0.647 h -1.218 v 5.182 c 0,0.428 -0.336,0.777 -0.777,0.777 -0.441,0 -0.776,-0.35 -0.776,-0.777 z"
           fill="#3278b6"
           id="path48" />
        <path
           d="m 161.497,67.496 v -1.814 c 0,-1.723 0.894,-2.798 2.785,-2.798 1.904,0 2.785,1.062 2.785,2.798 v 1.814 c 0,1.723 -0.881,2.759 -2.785,2.759 -1.892,0 -2.785,-1.062 -2.785,-2.759 z m 4.016,-0.091 v -1.658 c 0,-1.011 -0.311,-1.478 -1.23,-1.478 -0.919,0 -1.23,0.467 -1.23,1.478 v 1.658 c 0,0.997 0.311,1.477 1.23,1.477 0.919,0 1.23,-0.479 1.23,-1.477 z"
           fill="#3278b6"
           id="path50" />
        <path
           d="m 168.892,72.444 c -0.271,-0.13 -0.414,-0.337 -0.414,-0.608 0,-0.363 0.285,-0.648 0.647,-0.648 0.104,0 0.208,0.026 0.312,0.065 0.492,0.168 0.829,0.246 1.489,0.246 0.92,0 1.296,-0.531 1.309,-1.426 v -0.621 c -0.362,0.375 -0.984,0.712 -1.685,0.712 -1.541,0 -2.331,-1.036 -2.331,-2.772 v -1.723 c 0,-1.735 0.803,-2.785 2.37,-2.785 0.726,0 1.399,0.35 1.762,0.765 l 0.065,-0.233 c 0.077,-0.312 0.337,-0.531 0.674,-0.531 0.401,0 0.699,0.298 0.699,0.699 v 6.322 c 0,1.58 -0.751,2.967 -2.785,2.967 -0.842,0 -1.542,-0.169 -2.112,-0.428 z m 3.343,-4.313 v -3.2 c -0.298,-0.311 -0.765,-0.583 -1.243,-0.583 -0.868,0 -1.218,0.479 -1.218,1.477 v 1.399 c 0,0.997 0.35,1.477 1.218,1.477 0.479,0 0.945,-0.259 1.243,-0.569 z"
           fill="#3278b6"
           id="path52" />
        <path
           d="m 175.149,67.69 v -2.034 c 0,-1.71 0.881,-2.772 2.721,-2.772 1.878,0 2.682,1.023 2.682,2.772 v 0.868 c 0,0.337 -0.272,0.608 -0.609,0.608 h -3.238 v 0.699 c 0,0.545 0.337,1.076 1.282,1.076 0.674,0 1.036,-0.104 1.542,-0.351 0.077,-0.038 0.181,-0.077 0.285,-0.077 0.35,0 0.635,0.285 0.635,0.635 0,0.271 -0.169,0.466 -0.415,0.608 -0.608,0.35 -1.205,0.531 -2.111,0.531 -1.853,0 -2.772,-0.972 -2.772,-2.564 z m 3.887,-1.775 c 0,-1.127 -0.221,-1.684 -1.166,-1.684 -0.933,0 -1.166,0.492 -1.166,1.684 z m -1.724,-4.146 c 0,-0.104 0.039,-0.207 0.078,-0.324 l 0.414,-1.127 c 0.091,-0.232 0.285,-0.492 0.713,-0.492 0.362,0 0.661,0.182 0.661,0.531 0,0.117 -0.039,0.233 -0.104,0.337 l -0.725,1.27 c -0.104,0.182 -0.26,0.312 -0.506,0.312 -0.323,0 -0.531,-0.208 -0.531,-0.506 z"
           fill="#3278b6"
           id="path54" />
        <path
           d="m 181.936,69.478 v -5.907 c 0,-0.389 0.298,-0.687 0.674,-0.687 0.35,0 0.596,0.246 0.673,0.583 l 0.065,0.467 c 0.298,-0.389 0.933,-1.05 1.774,-1.05 0.479,0 0.881,0.259 0.881,0.777 0,0.414 -0.271,0.765 -0.699,0.765 -0.104,0 -0.272,-0.026 -0.415,-0.026 -0.621,0 -1.101,0.35 -1.398,0.751 v 4.327 c 0,0.428 -0.351,0.777 -0.777,0.777 -0.426,0 -0.777,-0.35 -0.777,-0.777 z"
           fill="#3278b6"
           id="path56" />
        <path
           d="m 186.509,67.69 v -2.034 c 0,-1.71 0.881,-2.772 2.721,-2.772 1.878,0 2.682,1.023 2.682,2.772 v 0.868 c 0,0.337 -0.272,0.608 -0.609,0.608 h -3.238 v 0.699 c 0,0.545 0.337,1.076 1.282,1.076 0.674,0 1.036,-0.104 1.542,-0.351 0.077,-0.038 0.181,-0.077 0.285,-0.077 0.35,0 0.635,0.285 0.635,0.635 0,0.271 -0.169,0.466 -0.415,0.608 -0.608,0.35 -1.205,0.531 -2.111,0.531 -1.853,0 -2.772,-0.972 -2.772,-2.564 z m 3.887,-1.775 c 0,-1.127 -0.221,-1.684 -1.166,-1.684 -0.933,0 -1.166,0.492 -1.166,1.684 z"
           fill="#3278b6"
           id="path58" />
        <path
           d="m 193.296,69.478 v -5.907 c 0,-0.389 0.298,-0.687 0.674,-0.687 0.35,0 0.596,0.246 0.673,0.583 l 0.065,0.285 c 0.375,-0.376 1.075,-0.868 2.021,-0.868 1.542,0 2.138,1.102 2.138,2.514 v 4.08 c 0,0.428 -0.35,0.777 -0.777,0.777 -0.427,0 -0.777,-0.35 -0.777,-0.777 v -3.744 c 0,-0.997 -0.401,-1.347 -1.127,-1.347 -0.557,0 -1.088,0.337 -1.334,0.583 v 4.508 c 0,0.428 -0.351,0.777 -0.777,0.777 -0.426,0 -0.777,-0.35 -0.777,-0.777 z"
           fill="#3278b6"
           id="path60" />
        <path
           d="m 200.264,67.47 v -1.801 c 0,-1.71 0.984,-2.785 2.863,-2.785 0.984,0 1.658,0.362 2.137,0.945 0.143,0.182 0.221,0.324 0.221,0.531 0,0.389 -0.298,0.687 -0.687,0.687 -0.207,0 -0.363,-0.077 -0.519,-0.232 -0.323,-0.324 -0.635,-0.545 -1.152,-0.545 -1.023,0 -1.309,0.687 -1.309,1.529 v 1.541 c 0,0.843 0.323,1.529 1.347,1.529 0.519,0 0.829,-0.221 1.153,-0.544 0.155,-0.156 0.272,-0.233 0.505,-0.233 0.389,0 0.7,0.298 0.7,0.687 0,0.207 -0.078,0.35 -0.221,0.531 -0.479,0.583 -1.152,0.945 -2.138,0.945 -1.878,0 -2.901,-1.075 -2.901,-2.785 z"
           fill="#3278b6"
           id="path62" />
        <path
           d="m 206.326,67.69 v -2.034 c 0,-1.71 0.881,-2.772 2.721,-2.772 1.878,0 2.682,1.023 2.682,2.772 v 0.868 c 0,0.337 -0.272,0.608 -0.609,0.608 h -3.238 v 0.699 c 0,0.545 0.337,1.076 1.282,1.076 0.674,0 1.036,-0.104 1.542,-0.351 0.077,-0.038 0.181,-0.077 0.285,-0.077 0.35,0 0.635,0.285 0.635,0.635 0,0.271 -0.169,0.466 -0.415,0.608 -0.608,0.35 -1.205,0.531 -2.111,0.531 -1.853,0 -2.772,-0.972 -2.772,-2.564 z m 3.887,-1.775 c 0,-1.127 -0.221,-1.684 -1.166,-1.684 -0.933,0 -1.166,0.492 -1.166,1.684 z"
           fill="#3278b6"
           id="path64" />
        <path
           d="M 216.429,69.478 V 61.11 c 0,-0.428 0.337,-0.777 0.777,-0.777 0.44,0 0.777,0.35 0.777,0.777 v 2.513 c 0.401,-0.35 1.062,-0.738 1.904,-0.738 1.541,0 2.15,1.102 2.15,2.514 v 4.08 c 0,0.428 -0.337,0.777 -0.777,0.777 -0.44,0 -0.777,-0.35 -0.777,-0.777 v -3.744 c 0,-0.997 -0.415,-1.347 -1.14,-1.347 -0.558,0 -1.114,0.337 -1.36,0.583 v 4.508 c 0,0.428 -0.337,0.777 -0.777,0.777 -0.44,0 -0.777,-0.35 -0.777,-0.777 z"
           fill="#3278b6"
           id="path66" />
        <path
           d="m 223.409,68.195 c 0,-1.995 2.099,-2.694 3.913,-2.694 v -0.312 c 0,-0.544 -0.285,-0.972 -1.231,-0.972 -0.596,0 -1.023,0.156 -1.502,0.363 -0.091,0.039 -0.208,0.077 -0.337,0.077 -0.324,0 -0.597,-0.271 -0.597,-0.596 0,-0.246 0.117,-0.428 0.351,-0.57 0.635,-0.389 1.321,-0.608 2.15,-0.608 1.853,0 2.721,0.907 2.721,2.5 v 4.197 c 0,0.363 -0.247,0.674 -0.648,0.674 -0.414,0 -0.608,-0.271 -0.687,-0.583 l -0.064,-0.246 c -0.272,0.389 -0.881,0.829 -1.84,0.829 -1.243,0 -2.229,-0.829 -2.229,-2.06 z m 3.926,-0.039 v -1.503 c -1.114,0 -2.357,0.389 -2.357,1.438 0,0.544 0.453,0.854 1.01,0.854 0.648,0 1.141,-0.389 1.348,-0.79 z"
           fill="#3278b6"
           id="path68" />
        <path
           d="m 230.481,67.742 v -4.081 c 0,-0.428 0.351,-0.777 0.777,-0.777 0.426,0 0.777,0.35 0.777,0.777 v 3.744 c 0,0.997 0.402,1.347 1.127,1.347 0.558,0 1.089,-0.337 1.335,-0.583 v -4.508 c 0,-0.428 0.35,-0.777 0.777,-0.777 0.427,0 0.777,0.35 0.777,0.777 v 5.907 c 0,0.389 -0.298,0.687 -0.674,0.687 -0.35,0 -0.596,-0.246 -0.674,-0.583 l -0.064,-0.285 c -0.376,0.376 -1.075,0.868 -2.021,0.868 -1.541,0 -2.138,-1.101 -2.138,-2.513 z"
           fill="#3278b6"
           id="path70" />
        <path
           d="m 238.357,68.065 v -3.77 h -0.635 c -0.351,0 -0.622,-0.272 -0.622,-0.622 0,-0.323 0.246,-0.596 0.569,-0.622 l 0.713,-0.064 0.091,-0.933 c 0.039,-0.428 0.337,-0.726 0.726,-0.726 0.401,0 0.712,0.324 0.712,0.726 v 0.933 h 1.322 c 0.375,0 0.66,0.285 0.66,0.661 0,0.362 -0.285,0.647 -0.66,0.647 h -1.322 v 3.744 c 0,0.557 0.208,0.79 0.777,0.79 0.233,0 0.415,-0.026 0.609,-0.064 0.064,-0.014 0.182,-0.039 0.246,-0.039 0.362,0 0.647,0.285 0.647,0.635 0,0.285 -0.155,0.479 -0.428,0.608 -0.362,0.169 -0.777,0.246 -1.23,0.246 -1.555,0 -2.176,-0.764 -2.176,-2.15 z"
           fill="#3278b6"
           id="path72" />
        <path
           d="m 242.969,67.69 v -2.034 c 0,-1.71 0.881,-2.772 2.721,-2.772 1.878,0 2.682,1.023 2.682,2.772 v 0.868 c 0,0.337 -0.272,0.608 -0.609,0.608 h -3.238 v 0.699 c 0,0.545 0.337,1.076 1.282,1.076 0.674,0 1.036,-0.104 1.542,-0.351 0.077,-0.038 0.181,-0.077 0.285,-0.077 0.35,0 0.635,0.285 0.635,0.635 0,0.271 -0.169,0.466 -0.415,0.608 -0.608,0.35 -1.205,0.531 -2.111,0.531 -1.853,0 -2.772,-0.972 -2.772,-2.564 z m 3.887,-1.775 c 0,-1.127 -0.221,-1.684 -1.166,-1.684 -0.933,0 -1.166,0.492 -1.166,1.684 z"
           fill="#3278b6"
           id="path74" />
        <path
           d="m 249.237,66.252 c 0,-0.389 0.298,-0.687 0.674,-0.687 h 2.345 c 0.389,0 0.687,0.298 0.687,0.687 0,0.376 -0.298,0.674 -0.687,0.674 h -2.345 c -0.376,0 -0.674,-0.298 -0.674,-0.674 z"
           fill="#3278b6"
           id="path76" />
        <path
           d="m 254.782,69.478 v -5.182 h -0.635 c -0.351,0 -0.622,-0.272 -0.622,-0.622 0,-0.323 0.246,-0.596 0.569,-0.622 l 0.688,-0.064 v -0.324 c 0,-1.386 0.803,-2.345 2.293,-2.345 0.427,0 0.764,0.078 1.036,0.194 0.298,0.13 0.428,0.298 0.428,0.597 0,0.35 -0.285,0.621 -0.635,0.621 -0.169,0 -0.324,-0.064 -0.597,-0.064 -0.712,0 -0.972,0.324 -0.972,0.92 v 0.401 h 1.218 c 0.376,0 0.661,0.285 0.661,0.661 0,0.362 -0.285,0.647 -0.661,0.647 h -1.218 v 5.182 c 0,0.428 -0.336,0.777 -0.777,0.777 -0.441,0 -0.776,-0.35 -0.776,-0.777 z"
           fill="#3278b6"
           id="path78" />
        <path
           d="m 259.212,61.304 c 0,-0.519 0.389,-0.946 0.958,-0.946 0.569,0 0.959,0.428 0.959,0.946 0,0.518 -0.389,0.945 -0.959,0.945 -0.57,0 -0.958,-0.428 -0.958,-0.945 z m 0.194,8.174 v -5.816 c 0,-0.428 0.336,-0.777 0.777,-0.777 0.441,0 0.776,0.35 0.776,0.777 v 5.816 c 0,0.428 -0.336,0.777 -0.776,0.777 -0.44,0 -0.777,-0.35 -0.777,-0.777 z"
           fill="#3278b6"
           id="path80" />
        <path
           d="m 262.411,67.47 v -1.813 c 0,-1.736 0.79,-2.772 2.332,-2.772 0.699,0 1.321,0.337 1.684,0.713 v -2.487 c 0,-0.428 0.337,-0.777 0.777,-0.777 0.44,0 0.777,0.35 0.777,0.777 v 8.459 c 0,0.362 -0.298,0.687 -0.687,0.687 -0.311,0 -0.583,-0.207 -0.674,-0.505 l -0.077,-0.26 c -0.363,0.415 -1.037,0.765 -1.762,0.765 -1.568,0 -2.371,-1.049 -2.371,-2.785 z m 4.016,0.738 v -3.29 c -0.298,-0.312 -0.764,-0.57 -1.243,-0.57 -0.868,0 -1.218,0.479 -1.218,1.477 v 1.49 c 0,0.997 0.35,1.477 1.218,1.477 0.479,0 0.945,-0.271 1.243,-0.583 z"
           fill="#3278b6"
           id="path82" />
        <path
           d="m 269.405,67.69 v -2.034 c 0,-1.71 0.881,-2.772 2.721,-2.772 1.878,0 2.682,1.023 2.682,2.772 v 0.868 c 0,0.337 -0.272,0.608 -0.609,0.608 h -3.238 v 0.699 c 0,0.545 0.337,1.076 1.282,1.076 0.674,0 1.036,-0.104 1.542,-0.351 0.077,-0.038 0.181,-0.077 0.285,-0.077 0.35,0 0.635,0.285 0.635,0.635 0,0.271 -0.169,0.466 -0.415,0.608 -0.608,0.35 -1.205,0.531 -2.111,0.531 -1.853,0 -2.772,-0.972 -2.772,-2.564 z m 3.887,-1.775 c 0,-1.127 -0.221,-1.684 -1.166,-1.684 -0.933,0 -1.166,0.492 -1.166,1.684 z m -1.724,-4.146 c 0,-0.104 0.039,-0.207 0.078,-0.324 l 0.414,-1.127 c 0.091,-0.232 0.285,-0.492 0.713,-0.492 0.362,0 0.661,0.182 0.661,0.531 0,0.117 -0.039,0.233 -0.104,0.337 l -0.725,1.27 c -0.104,0.182 -0.26,0.312 -0.506,0.312 -0.323,0 -0.531,-0.208 -0.531,-0.506 z"
           fill="#3278b6"
           id="path84" />
        <path
           d="M 276.192,69.478 V 61.11 c 0,-0.428 0.337,-0.777 0.777,-0.777 0.44,0 0.777,0.35 0.777,0.777 v 8.368 c 0,0.428 -0.337,0.777 -0.777,0.777 -0.44,0 -0.777,-0.35 -0.777,-0.777 z"
           fill="#3278b6"
           id="path86" />
        <path
           d="m 279.275,61.304 c 0,-0.519 0.389,-0.946 0.958,-0.946 0.569,0 0.959,0.428 0.959,0.946 0,0.518 -0.389,0.945 -0.959,0.945 -0.57,0 -0.958,-0.428 -0.958,-0.945 z m 0.194,8.174 v -5.816 c 0,-0.428 0.337,-0.777 0.777,-0.777 0.44,0 0.776,0.35 0.776,0.777 v 5.816 c 0,0.428 -0.336,0.777 -0.776,0.777 -0.44,0 -0.777,-0.35 -0.777,-0.777 z"
           fill="#3278b6"
           id="path88" />
        <path
           d="m 283.382,68.065 v -3.77 h -0.635 c -0.351,0 -0.622,-0.272 -0.622,-0.622 0,-0.323 0.246,-0.596 0.569,-0.622 l 0.713,-0.064 0.091,-0.933 c 0.039,-0.428 0.337,-0.726 0.726,-0.726 0.401,0 0.712,0.324 0.712,0.726 v 0.933 h 1.322 c 0.375,0 0.66,0.285 0.66,0.661 0,0.362 -0.285,0.647 -0.66,0.647 h -1.322 v 3.744 c 0,0.557 0.208,0.79 0.777,0.79 0.233,0 0.415,-0.026 0.609,-0.064 0.064,-0.014 0.182,-0.039 0.246,-0.039 0.362,0 0.647,0.285 0.647,0.635 0,0.285 -0.155,0.479 -0.428,0.608 -0.362,0.169 -0.777,0.246 -1.23,0.246 -1.555,0 -2.176,-0.764 -2.176,-2.15 z"
           fill="#3278b6"
           id="path90" />
        <path
           d="m 288.057,67.69 v -2.034 c 0,-1.71 0.881,-2.772 2.721,-2.772 1.878,0 2.682,1.023 2.682,2.772 v 0.868 c 0,0.337 -0.272,0.608 -0.609,0.608 h -3.238 v 0.699 c 0,0.545 0.337,1.076 1.282,1.076 0.674,0 1.036,-0.104 1.542,-0.351 0.077,-0.038 0.181,-0.077 0.285,-0.077 0.35,0 0.635,0.285 0.635,0.635 0,0.271 -0.169,0.466 -0.415,0.608 -0.608,0.35 -1.205,0.531 -2.111,0.531 -1.853,0 -2.772,-0.972 -2.772,-2.564 z m 3.887,-1.775 c 0,-1.127 -0.221,-1.684 -1.166,-1.684 -0.933,0 -1.166,0.492 -1.166,1.684 z m -1.724,-4.146 c 0,-0.104 0.039,-0.207 0.078,-0.324 l 0.414,-1.127 c 0.091,-0.232 0.285,-0.492 0.713,-0.492 0.362,0 0.661,0.182 0.661,0.531 0,0.117 -0.039,0.233 -0.104,0.337 l -0.725,1.27 c -0.104,0.182 -0.26,0.312 -0.506,0.312 -0.323,0 -0.531,-0.208 -0.531,-0.506 z"
           fill="#3278b6"
           id="path92" />
      </g>
    </g>
  </g>
</svg>
