<svg xmlns="http://www.w3.org/2000/svg" viewBox="0 0 617.28 248.11"><defs><style>.cls-1{fill:#48cde0}.cls-2{fill:#464680}.cls-3{fill:#b9bebe}.cls-4{fill:#656f70}</style></defs><g id="Calque_2" data-name="Calque 2"><g id="Calque_1-2" data-name="Calque 1"><path d="M188.92,178.91a3.77,3.77,0,0,1-2.51,1.19,9.27,9.27,0,0,1-1.47,0l-.16,0c-1.94-.3-3.92-.58-5.86-.83a8.26,8.26,0,0,1-6.65-4.55A257,257,0,0,0,151,143.65c-2.15-2.71-4.4-5.44-6.68-8.1-.2-.23-.42-.47-.67-.72a.17.17,0,0,0-.25,0c-1.2,1.41-2.39,2.82-3.55,4.23-2.91,3.55-5.74,7.17-8.41,10.78-1.5,2-3,4.07-4.4,6.09-4.48,6.4-8.57,12.84-12.13,19.13a8.23,8.23,0,0,1-6.31,4.22c-2.62.43-3.45.57-6,.86l-.16,0a3.93,3.93,0,0,1-.49,0h-.42a4,4,0,0,1-3.37-5.63l.06-.11c2.94-5.79,6.32-11.78,10-17.79,1.21-1.95,2.5-3.95,3.81-6,4.72-7.2,9.86-14.3,15.27-21.12,1.55-2,3.14-3.89,4.75-5.81a.15.15,0,0,0,0-.21q-1.68-1.73-3.39-3.42c-3.21-3.19-6.52-6.33-9.86-9.35,0,0-15.74-13.53-20.06-17.58-3.32-3.1,2.13-3.28,4.27-3.28L115,89.85c3.46,0,4.57.61,6.38,2.08,7.18,5.82,7.18,5.82,14.33,12,2.79,2.42,5.28,5.23,7.82,7.89,2.53-2.66,5-5.47,7.81-7.89,7.15-6.2,7.15-6.2,14.33-12,1.81-1.47,2.93-2.08,6.38-2.08l11.89.06c2.15,0,7.59.18,4.28,3.28-4.33,4-20.07,17.58-20.07,17.58-3.33,3-6.65,6.16-9.86,9.35-1.08,1.07-2.16,2.16-3.22,3.25l.14.14a.15.15,0,0,0,0,.21c4,4.77,7.91,9.69,11.57,14.64,1.81,2.45,3.6,4.95,5.31,7.44a256.71,256.71,0,0,1,17.07,28.34,6.24,6.24,0,0,1,.6,2,3.4,3.4,0,0,1-.82,2.78m-55.77-117a3.91,3.91,0,0,1,3.9-3.91h13a3.91,3.91,0,0,1,3.9,3.91V74.82a3.91,3.91,0,0,1-3.9,3.9h-13a3.91,3.91,0,0,1-3.9-3.9Zm101.89,4L88.9,1.29A14.45,14.45,0,0,0,69.77,8.51L1.29,158.93c-3.29,7.28-.06,14.71,7.22,18l146.13,65.69a14.47,14.47,0,0,0,19.14-7.22L242.26,85A14.46,14.46,0,0,0,235,65.84" class="cls-1"/><path d="M520.24,171.52a3,3,0,0,0,2-1,2.74,2.74,0,0,0,.67-2.25,5.08,5.08,0,0,0-.49-1.62,206.86,206.86,0,0,0-13.82-22.94c-1.39-2-2.83-4-4.3-6-3-4-6.11-8-9.36-11.85a.12.12,0,0,1,0-.17l-.11-.11c.86-.88,1.73-1.77,2.61-2.64,2.59-2.57,5.28-5.12,8-7.56,0,0,12.74-11,16.24-14.24,2.69-2.51-1.72-2.65-3.45-2.65l-9.63,0c-2.8,0-3.7.49-5.17,1.68-5.81,4.71-6.26,4.53-11.6,9.73-2.15,2.09-4.27,4.24-6.33,6.39-2.05-2.15-4.18-4.3-6.33-6.39-5.34-5.2-5.78-5-11.6-9.73-1.47-1.19-2.37-1.68-5.17-1.68l-9.62,0c-1.74,0-6.14.14-3.46,2.65,3.5,3.28,16.24,14.24,16.24,14.24,2.71,2.44,5.39,5,8,7.56.93.92,1.85,1.85,2.75,2.77a.12.12,0,0,1,0,.17c-1.3,1.56-2.59,3.13-3.84,4.71-4.39,5.52-8.55,11.27-12.37,17.1C459,149.32,458,151,457,152.53c-3,4.86-5.76,9.71-8.14,14.4l-.05.09a3.22,3.22,0,0,0,2.73,4.56h.33l.4,0h.13c1.61-.26,3.26-.49,4.85-.71a6.29,6.29,0,0,0,5.1-3.41c2.89-5.1,6.2-10.31,9.83-15.49,1.14-1.63,2.34-3.29,3.56-4.93,2.16-2.92,4.45-5.86,6.81-8.73q1.41-1.71,2.87-3.42a.14.14,0,0,1,.2,0c.21.21.39.4.55.59,1.85,2.15,3.66,4.36,5.41,6.56a208.43,208.43,0,0,1,17.19,25.16,7,7,0,0,0,5.38,3.68,43.9,43.9,0,0,0,6.07.67" class="cls-1"/><path d="M304.3,135.63c-15.29,0-20.34,4.21-20.34,13.89,0,8.84,3.5,14,19.92,14,8,0,13.05-.84,17-2.24,2.24-.84,2.66-1.4,2.66-4.07V137a145,145,0,0,0-19.22-1.41m.42-40.26c22.45,0,28.2,12.48,28.2,27.64v36.76c0,4.91-1.12,6.31-5.05,8-5.19,2.25-12.77,3.65-23.29,3.65-24.41,0-30.31-7.72-30.31-21.75,0-16.13,8.84-21.6,30.87-21.6a122.84,122.84,0,0,1,18.24,1.4v-6.59c0-11-3.51-19.09-18.94-19.09-9.68,0-15.85,3.65-19.64,10.11-1.12,1.68-1.55,2-3.37,1.26l-3.37-1.4c-1.82-.71-2.38-1.69-1.4-3.65,4.77-9.26,13.89-14.73,28.06-14.73" class="cls-2"/><path d="M378.66,104.06c-14.6,0-21.47,6.74-21.47,20.21v17.82c0,11.92,6.45,18.66,19.64,18.66a58.21,58.21,0,0,0,20.91-4.07v-46.3c0-2.25-.28-2.67-2.67-3.65a48,48,0,0,0-16.41-2.67M378,95.37c10.53,0,18.8,2.1,23.72,4.21,4.49,2,5.47,3.08,5.47,7.71V173.8c0,18.23-8.28,30.3-29.61,30.3-15,0-23.15-6.17-27.92-15-1.12-1.82-.84-3.23,1.13-4.21l3.08-1.54c2-1.13,2.81-.7,4.07,1,3.65,6.73,8.84,11.22,19.36,11.22,14.31,0,20.35-8,20.35-21.32v-9a63.66,63.66,0,0,1-22.17,4.21c-19.08,0-27.64-10.25-27.64-27.08V124.13c0-18.66,9.68-28.76,30.16-28.76" class="cls-2"/><path d="M434.77,99.86v67.06c0,2-.56,2.53-2.52,2.53H427.9c-2,0-2.53-.56-2.53-2.53V99.86c0-2,.57-2.53,2.53-2.53h4.35c2,0,2.52.56,2.52,2.53m1-25.4v1c0,3.93-1.27,5-5.19,5h-.85c-3.93,0-5.19-1.12-5.19-5v-1c0-3.93,1.26-5.19,5.19-5.19h.85c3.92,0,5.19,1.26,5.19,5.19" class="cls-2"/><path d="M543.48,99.86v67.06c0,2-.56,2.53-2.53,2.53H536.6c-2,0-2.52-.56-2.52-2.53V99.86c0-2,.56-2.53,2.52-2.53H541c2,0,2.53.56,2.53,2.53m1-25.4v1c0,3.93-1.26,5-5.19,5h-.84c-3.93,0-5.19-1.12-5.19-5v-1c0-3.93,1.26-5.19,5.19-5.19h.84c3.93,0,5.19,1.26,5.19,5.19" class="cls-2"/><path d="M587,95.37c16.14,0,24.55,5.89,28.62,15.15,1,1.82.42,3-1.26,3.65l-3.51,1.54c-2,.84-2.52.42-3.51-1.26-2.94-6.46-8-10.67-20.2-10.67S568.73,108,568.73,116c0,11.09,8.84,12.35,21.19,13.47,15.29,1.4,27.36,4.35,27.36,20.49,0,13-9.4,21.46-28.91,21.46-15.29,0-25.53-5.33-30.16-17.4-.7-1.68-.28-2.8,1.54-3.36l3.65-1.27c1.68-.56,2.53-.28,3.37,1.55,3.36,8.84,10.52,12.2,21.46,12.2,13.47,0,19.79-4.63,19.79-12.77,0-10-8.14-11.5-20.35-12.76-14.17-1.4-28.34-3.51-28.34-21.33,0-12.91,9.26-20.9,27.64-20.9" class="cls-2"/><rect width="1.09" height="29.33" x="274.24" y="218.78" class="cls-3"/><path d="M294.51,223h2L305,241.84h-2.28l-2.2-5H290.35l-2.22,5H286Zm5.22,12-4.26-9.57L291.18,235Z" class="cls-4"/><path d="M308.6,223.08h2.12v16.81h10.56v2H308.6Z" class="cls-4"/><path d="M325.06,223.08h2.12v16.81h10.56v2H325.06Z" class="cls-4"/><path d="M358,242.16a9.23,9.23,0,0,1-8.69-5.86,9.93,9.93,0,0,1-.71-3.78v-.06a9.85,9.85,0,0,1,.71-3.75,9.55,9.55,0,0,1,2-3.09,9,9,0,0,1,3-2.09,9.35,9.35,0,0,1,3.8-.77,11,11,0,0,1,2.32.22,9.37,9.37,0,0,1,1.92.6,8.44,8.44,0,0,1,1.63.94,12.67,12.67,0,0,1,1.45,1.22l-1.45,1.55a11.66,11.66,0,0,0-2.58-1.85,7.09,7.09,0,0,0-3.31-.72,6.87,6.87,0,0,0-2.88.59,7,7,0,0,0-2.31,1.63,7.81,7.81,0,0,0-1.53,2.45,8.39,8.39,0,0,0-.55,3v.05a8.47,8.47,0,0,0,.55,3,7.81,7.81,0,0,0,1.53,2.45,7.2,7.2,0,0,0,2.31,1.64,6.73,6.73,0,0,0,2.88.61,7.29,7.29,0,0,0,3.32-.71,11.85,11.85,0,0,0,2.74-2l1.39,1.37a12.78,12.78,0,0,1-1.52,1.35,8.85,8.85,0,0,1-1.7,1,9.54,9.54,0,0,1-1.95.67A10.52,10.52,0,0,1,358,242.16Z" class="cls-4"/><path d="M377.77,242.16a9.5,9.5,0,0,1-3.9-.77,9.27,9.27,0,0,1-4.95-5.19,10,10,0,0,1-.69-3.68v-.06a9.93,9.93,0,0,1,.7-3.7,9.4,9.4,0,0,1,5-5.21,9.63,9.63,0,0,1,3.92-.79,9.5,9.5,0,0,1,3.9.78,9.21,9.21,0,0,1,4.95,5.18,10,10,0,0,1,.69,3.69s0,0,0,.05a9.89,9.89,0,0,1-.7,3.7,9.38,9.38,0,0,1-8.9,6Zm.06-1.95a7.16,7.16,0,0,0,5.28-2.25,7.89,7.89,0,0,0,1.51-2.44,8,8,0,0,0,.55-3v-.06a8.13,8.13,0,0,0-.55-3,7.42,7.42,0,0,0-3.89-4.12,7,7,0,0,0-3-.61,7.22,7.22,0,0,0-3,.6,7,7,0,0,0-2.32,1.65,7.89,7.89,0,0,0-1.51,2.44,8,8,0,0,0-.55,3v.05a8.14,8.14,0,0,0,.55,3,7.55,7.55,0,0,0,1.54,2.45,7.38,7.38,0,0,0,2.34,1.66A7.12,7.12,0,0,0,377.83,240.21Z" class="cls-4"/><path d="M391.71,223.08h2l11.82,15v-15h2.06v18.76h-1.68l-12.12-15.38v15.38h-2.06Z" class="cls-4"/><path d="M412.75,223.08h2l11.82,15v-15h2.06v18.76h-1.69l-12.11-15.38v15.38h-2.06Z" class="cls-4"/><path d="M433.78,223.08h13.56V225H435.9v6.45h10.24v1.91H435.9v6.59h11.58v1.9h-13.7Z" class="cls-4"/><path d="M460.18,242.16a9.19,9.19,0,0,1-8.69-5.86,9.93,9.93,0,0,1-.71-3.78v-.06a9.85,9.85,0,0,1,.71-3.75,9.52,9.52,0,0,1,2-3.09,9,9,0,0,1,3-2.09,9.35,9.35,0,0,1,3.8-.77,11,11,0,0,1,2.32.22,9.37,9.37,0,0,1,1.92.6,8.44,8.44,0,0,1,1.63.94,13.59,13.59,0,0,1,1.45,1.22l-1.45,1.55a11.66,11.66,0,0,0-2.58-1.85,7.12,7.12,0,0,0-3.31-.72,7,7,0,0,0-2.89.59,7.08,7.08,0,0,0-2.3,1.63,7.81,7.81,0,0,0-1.53,2.45,8.39,8.39,0,0,0-.55,3v.05a8.47,8.47,0,0,0,.55,3,7.81,7.81,0,0,0,1.53,2.45,7.26,7.26,0,0,0,2.3,1.64,6.81,6.81,0,0,0,2.89.61,7.29,7.29,0,0,0,3.32-.71,11.6,11.6,0,0,0,2.73-2l1.4,1.37a13.61,13.61,0,0,1-1.52,1.35,9.17,9.17,0,0,1-1.7,1,9.43,9.43,0,0,1-2,.67A10.37,10.37,0,0,1,460.18,242.16Z" class="cls-4"/><path d="M476.21,225h-6.3v-2h14.71v2h-6.29v16.8h-2.12Z" class="cls-4"/><path d="M488.48,223.08H502V225H490.6v6.45h10.24v1.91H490.6v6.59h11.58v1.9h-13.7Z" class="cls-4"/><path d="M506.3,223.08h6.52a11.15,11.15,0,0,1,4,.71,9.61,9.61,0,0,1,3.16,2,8.7,8.7,0,0,1,2,3,9.42,9.42,0,0,1,.73,3.69v.05a9.43,9.43,0,0,1-.73,3.7,8.68,8.68,0,0,1-2,3,9.63,9.63,0,0,1-3.16,2,10.94,10.94,0,0,1-4,.72H506.3Zm6.52,16.81a8.65,8.65,0,0,0,3.21-.57,7,7,0,0,0,2.46-1.55,6.88,6.88,0,0,0,1.55-2.35,7.56,7.56,0,0,0,.55-2.9v-.06a7.65,7.65,0,0,0-.55-2.91,6.93,6.93,0,0,0-4-3.93,8.46,8.46,0,0,0-3.21-.58h-4.4v14.85Z" class="cls-4"/></g></g></svg>