<svg xmlns="http://www.w3.org/2000/svg" xmlns:xlink="http://www.w3.org/1999/xlink" id="Calque_1" x="0" y="0" version="1.1" viewBox="0 0 177.58 80" style="enable-background:new 0 0 177.58 80" xml:space="preserve"><style type="text/css">.st0{fill:#221c35}.st1{fill:#00b2a9}</style><g><g><path d="M110.51,31.59h-0.1c-0.68,1.71-2,3.9-5.75,3.9c-6.14,0-8.58-5.12-8.58-14.14c0-11.65,4.09-13.45,8.09-13.45 c2.83,0,4.97,1.41,5.95,3.75h0.1V0h5.26v34.8h-4.97V31.59z M105.73,12.09c-3.02,0-4.09,2.44-4.09,9.51c0,5.95,0.78,9.7,4.44,9.7 c3.61,0,4.44-3.7,4.44-9.31C110.51,15.7,109.78,12.09,105.73,12.09L105.73,12.09z" class="st0"/><path d="M138.24,29.34c0,0.98,0.59,1.85,1.37,1.85c0.34,0,0.68-0.05,0.88-0.15v3.41c-0.63,0.29-1.56,0.63-2.58,0.63 c-2.34,0-4.29-0.93-4.44-3.46h-0.1c-1.41,2.58-3.46,3.85-6.53,3.85c-4.19,0-6.82-2.34-6.82-7.36c0-5.85,2.53-7.07,6.09-8.24 l4.1-1.12c1.9-0.54,3.07-1.07,3.07-3.36c0-2.39-0.83-3.9-3.61-3.9c-3.51,0-4,2.49-4,5.02h-4.97c0-5.56,2.29-8.63,9.21-8.63 c4.63,0,8.34,1.8,8.34,6.43V29.34z M133.27,20.96c-1.36,1.07-4.29,1.71-5.85,2.44c-1.51,0.73-2.14,2.29-2.14,4.24 c0,2.19,1.07,3.95,3.27,3.95c3.17,0,4.73-2.39,4.73-6.24V20.96z" class="st0"/><path d="M141.75,8.58h3.61V1.12h5.26v7.46h4.29v3.9h-4.29v15.65c0,2.05,0.58,2.78,2.39,2.78 c0.78,0,1.41-0.05,1.9-0.15v3.9c-1.12,0.29-2.58,0.44-4.24,0.44c-3.56,0-5.31-0.98-5.31-6.34V12.48h-3.61V8.58z" class="st0"/><path d="M175.34,29.34c0,0.98,0.59,1.85,1.37,1.85c0.34,0,0.68-0.05,0.88-0.15v3.41c-0.63,0.29-1.56,0.63-2.58,0.63 c-2.34,0-4.29-0.93-4.44-3.46h-0.1c-1.41,2.58-3.46,3.85-6.53,3.85c-4.19,0-6.82-2.34-6.82-7.36c0-5.85,2.54-7.07,6.09-8.24 l4.1-1.12c1.9-0.54,3.07-1.07,3.07-3.36c0-2.39-0.83-3.9-3.61-3.9c-3.51,0-4,2.49-4,5.02h-4.97c0-5.56,2.29-8.63,9.21-8.63 c4.63,0,8.34,1.8,8.34,6.43V29.34z M170.36,20.96c-1.36,1.07-4.29,1.71-5.85,2.44c-1.51,0.73-2.14,2.29-2.14,4.24 c0,2.19,1.07,3.95,3.27,3.95c3.17,0,4.73-2.39,4.73-6.24V20.96z" class="st0"/></g><g><path d="M97.35,44.12h5.26v5.26h-5.26V44.12z M97.35,53.09h5.26v26.22h-5.26V53.09z" class="st0"/><polygon points="108.41 44.51 113.68 44.51 113.68 64.06 113.78 64.06 121.72 53.09 127.81 53.04 119.92 63.18 128.84 79.32 123.09 79.32 116.65 67.38 113.68 70.98 113.68 79.32 108.41 79.32" class="st0"/><path d="M144.87,76.25h-0.15c-1.32,2.34-3.8,3.75-6.73,3.75c-3.9,0-6.53-1.8-6.53-8.58V53.09h5.26v18.82 c0,2.92,1.32,3.9,3.56,3.9c2.24,0,4.29-1.46,4.29-4.39V53.09h5.26v26.22h-4.97V76.25z" class="st0"/></g><g><path d="M40,0C17.91,0,0,17.91,0,40c0,22.09,17.91,40,40,40c22.09,0,40-17.91,40-40C80,17.91,62.09,0,40,0 M61.76,51.13H41.67v-3.11h20.09V51.13z M59.3,22.03c0,0-1.37,1.81-0.64,6.65c1.37,9.08-3.4,17.17-11.86,17.17h-6.24 c0,0-6.11-0.31-9.78,3.37C19.9,60.09,17.31,62.91,16.53,63.33c-0.5,0.26-0.62-0.31-0.62-0.31l32.15-39.64 c-0.68-7.15,7.8-9.05,10.92-3.75l2.95-0.83L59.3,22.03z" class="st1"/><path d="M53.96,19.99c-0.87,0-1.58,0.71-1.58,1.58c0,0.87,0.71,1.58,1.58,1.58c0.87,0,1.58-0.71,1.58-1.58 C55.55,20.7,54.84,19.99,53.96,19.99" class="st1"/></g></g></svg>