<?xml version="1.0" encoding="UTF-8" standalone="no"?>
<svg
   xmlns:dc="http://purl.org/dc/elements/1.1/"
   xmlns:cc="http://creativecommons.org/ns#"
   xmlns:rdf="http://www.w3.org/1999/02/22-rdf-syntax-ns#"
   xmlns:svg="http://www.w3.org/2000/svg"
   xmlns="http://www.w3.org/2000/svg"
   viewBox="0 0 793.70667 1122.52"
   height="1122.52"
   width="793.70667"
   xml:space="preserve"
   id="svg2"
   version="1.1"><metadata
     id="metadata8"><rdf:RDF><cc:Work
         rdf:about=""><dc:format>image/svg+xml</dc:format><dc:type
           rdf:resource="http://purl.org/dc/dcmitype/StillImage" /></cc:Work></rdf:RDF></metadata><defs
     id="defs6"><clipPath
       id="clipPath18"
       clipPathUnits="userSpaceOnUse"><path
         id="path16"
         d="M 0,841.89 H 595.28 V 0 H 0 Z" /></clipPath></defs><g
     transform="matrix(1.3333333,0,0,-1.3333333,0,1122.52)"
     id="g10"><g
       id="g12"><g
         clip-path="url(#clipPath18)"
         id="g14"><g
           transform="translate(136.0597,414.3553)"
           id="g20"><path
             id="path22"
             style="fill:#757a7d;fill-opacity:1;fill-rule:nonzero;stroke:none"
             d="M 0,0 7.556,4.047 13.173,-7.626 H 4.817 c 0,-0.006 -1.608,-0.006 -2.251,1.444 C 1.967,-4.58 0.013,-0.002 0,0" /></g><path
           id="path24"
           style="fill:#757a7d;fill-opacity:1;fill-rule:nonzero;stroke:none"
           d="M 151.026,397.565 H 90.254 v 5.44 h 60.772 z" /><g
           transform="translate(155.5358,437.4262)"
           id="g26"><path
             id="path28"
             style="fill:#007b5d;fill-opacity:1;fill-rule:nonzero;stroke:none"
             d="m 0,0 c -0.013,0.002 -9.562,-5.485 -11.799,-6.32 -2.056,-0.812 -2.829,0.262 -3.075,0.638 -0.552,0.843 -1.458,3.627 -1.586,4.046 0.055,-0.012 0.583,-0.116 1.805,0.194 1.454,0.369 14.642,7.743 14.655,7.739 z" /></g><g
           transform="translate(140.2398,426.1272)"
           id="g30"><path
             id="path32"
             style="fill:#757a7d;fill-opacity:1;fill-rule:nonzero;stroke:none"
             d="m 0,0 -6.275,13.907 h -9.129 l -12.823,-23.925 c 0.01,-0.004 6.309,0.194 10.346,3.236 1.021,0.6 3.898,8.158 6.534,13.241 L -7.245,-3.81 c -6.2,-3.175 -12.088,-5.96 -15.259,-6.856 -8.366,-2.41 -18.555,-3.855 -22.216,-0.614 -3.443,3.056 4.507,15.853 19.543,18.701 2.438,0.543 3.861,0.403 3.861,0.388 0,0.015 -1.031,4.376 -1.833,5.295 -1.121,1.371 -2.22,1.654 -3.858,1.446 -3.254,-0.194 -17.1,-3.885 -22.563,-15.421 -3.047,-6.554 1.005,-13.174 3.627,-15.09 1.219,-0.891 9.081,-7.94 27.262,-0.814 17.916,6.951 33.964,17.897 33.977,17.897 V 8.445 C 15.289,8.454 8.214,4.4 0,0" /></g><g
           transform="translate(172.6392,410.5824)"
           id="g34"><path
             id="path36"
             style="fill:#757a7d;fill-opacity:1;fill-rule:nonzero;stroke:none"
             d="M 0,0 V 2.479 H 15.233 V 0 H 9.277 V -13.019 H 5.956 L 5.956,0 Z" /></g><g
           transform="translate(191.19,402.0365)"
           id="g38"><path
             id="path40"
             style="fill:#757a7d;fill-opacity:1;fill-rule:nonzero;stroke:none"
             d="M 0,0 V 11.025 H 14.037 V 8.546 H 3.321 V 4.805 h 9.83 V 2.391 H 3.321 V 0 c 0,-1.351 0.642,-1.993 1.948,-1.993 h 9.078 v -2.48 H 4.472 C 1.638,-4.473 0,-2.813 0,0" /></g><g
           transform="translate(218.6187,413.3275)"
           id="g42"><path
             id="path44"
             style="fill:#757a7d;fill-opacity:1;fill-rule:nonzero;stroke:none"
             d="m 0,0 c 2.391,0 4.871,-0.731 6.908,-2.191 l -1.55,-2.015 c -1.66,1.151 -3.055,1.793 -5.159,1.793 -3.653,0 -6.509,-2.28 -6.509,-5.602 0,-3.321 2.856,-5.601 6.509,-5.601 2.215,0 3.675,0.686 5.447,1.882 l 1.55,-2.015 c -2.081,-1.483 -4.694,-2.28 -7.196,-2.28 -5.026,0 -9.764,2.966 -9.764,8.037 C -9.764,-2.922 -5.026,0 0,0" /></g><g
           transform="translate(229.4639,413.0619)"
           id="g46"><path
             id="path48"
             style="fill:#757a7d;fill-opacity:1;fill-rule:nonzero;stroke:none"
             d="M 0,0 H 3.321 V -6.044 H 12.93 V 0 h 3.321 V -15.498 H 12.93 v 6.975 H 3.321 v -6.975 H 0 Z" /></g><g
           transform="translate(253.9034,408.6117)"
           id="g50"><path
             id="path52"
             style="fill:#757a7d;fill-opacity:1;fill-rule:nonzero;stroke:none"
             d="M 0,0 V -11.048 H -3.321 V 4.45 H 0 L 9.498,-6.575 V 4.45 h 3.321 V -11.048 H 9.498 Z" /></g><g
           transform="translate(274.0474,405.3129)"
           id="g54"><path
             id="path56"
             style="fill:#757a7d;fill-opacity:1;fill-rule:nonzero;stroke:none"
             d="m 0,0 c 0,-3.122 2.59,-5.602 6.354,-5.602 3.764,0 6.355,2.48 6.355,5.602 0,3.122 -2.591,5.602 -6.355,5.602 C 2.59,5.602 0,3.122 0,0 m -3.454,0 c 0,4.384 4.074,8.015 9.808,8.015 5.735,0 9.809,-3.631 9.809,-8.015 0,-4.384 -4.074,-8.015 -9.809,-8.015 -5.734,0 -9.808,3.631 -9.808,8.015" /></g><g
           transform="translate(294.0806,413.0619)"
           id="g58"><path
             id="path60"
             style="fill:#757a7d;fill-opacity:1;fill-rule:nonzero;stroke:none"
             d="m 0,0 h 3.321 v -13.019 h 9.852 v -2.479 l -13.173,0 z" /></g><g
           transform="translate(312.1661,405.3129)"
           id="g62"><path
             id="path64"
             style="fill:#757a7d;fill-opacity:1;fill-rule:nonzero;stroke:none"
             d="m 0,0 c 0,-3.122 2.591,-5.602 6.354,-5.602 3.764,0 6.355,2.48 6.355,5.602 0,3.122 -2.591,5.602 -6.355,5.602 C 2.591,5.602 0,3.122 0,0 m -3.454,0 c 0,4.384 4.074,8.015 9.808,8.015 5.735,0 9.809,-3.631 9.809,-8.015 0,-4.384 -4.074,-8.015 -9.809,-8.015 -5.734,0 -9.808,3.631 -9.808,8.015" /></g><g
           transform="translate(340.9678,413.3275)"
           id="g66"><path
             id="path68"
             style="fill:#757a7d;fill-opacity:1;fill-rule:nonzero;stroke:none"
             d="m 0,0 c 2.391,0 4.87,-0.731 6.907,-2.191 l -1.55,-2.015 c -1.66,1.151 -3.055,1.793 -5.158,1.793 -3.653,0 -6.51,-2.236 -6.51,-5.558 0,-3.276 2.546,-5.645 6.399,-5.645 1.705,0 3.277,0.465 4.384,1.195 v 2.967 h -4.671 v 2.369 h 7.992 v -6.509 c -1.859,-1.328 -4.494,-2.435 -7.838,-2.435 -5.845,0 -9.72,3.454 -9.72,8.037 C -9.765,-2.922 -5.026,0 0,0" /></g><path
           id="path70"
           style="fill:#757a7d;fill-opacity:1;fill-rule:nonzero;stroke:none"
           d="m 353.297,413.062 h 3.32 v -15.498 h -3.32 z" /><g
           transform="translate(361.1534,402.0365)"
           id="g72"><path
             id="path74"
             style="fill:#757a7d;fill-opacity:1;fill-rule:nonzero;stroke:none"
             d="M 0,0 V 11.025 H 14.037 V 8.546 H 3.321 V 4.805 h 9.831 V 2.391 H 3.321 V 0 c 0,-1.351 0.643,-1.993 1.949,-1.993 h 9.078 v -2.48 H 4.473 C 1.639,-4.473 0,-2.813 0,0" /></g><g
           transform="translate(378.5977,399.7562)"
           id="g76"><path
             id="path78"
             style="fill:#757a7d;fill-opacity:1;fill-rule:nonzero;stroke:none"
             d="M 0,0 1.55,2.235 C 3.565,0.752 6.31,0.066 8.679,0.066 c 2.458,0 4.472,0.731 4.472,1.882 0,1.196 -2.236,1.66 -4.804,2.214 C 4.804,4.915 0.598,5.801 0.598,8.9 c 0,2.878 3.587,4.671 7.682,4.671 2.812,0 5.757,-0.797 7.882,-2.235 L 14.612,9.1 c -1.749,1.328 -4.095,1.992 -6.265,1.992 -2.214,0 -4.34,-0.687 -4.34,-1.793 0,-1.041 2.037,-1.462 4.472,-1.948 3.609,-0.732 8.082,-1.639 8.082,-5.004 0,-3.056 -3.675,-4.805 -7.838,-4.805 C 5.513,-2.458 2.28,-1.506 0,0" /></g><g
           transform="translate(426.169,399.7562)"
           id="g80"><path
             id="path82"
             style="fill:#757a7d;fill-opacity:1;fill-rule:nonzero;stroke:none"
             d="M 0,0 1.55,2.235 C 3.564,0.752 6.31,0.066 8.679,0.066 c 2.458,0 4.472,0.731 4.472,1.882 0,1.196 -2.236,1.66 -4.804,2.214 C 4.804,4.915 0.598,5.801 0.598,8.9 c 0,2.878 3.587,4.671 7.682,4.671 2.812,0 5.757,-0.797 7.882,-2.235 L 14.612,9.1 c -1.749,1.328 -4.095,1.992 -6.265,1.992 -2.214,0 -4.34,-0.687 -4.34,-1.793 0,-1.041 2.037,-1.462 4.472,-1.948 3.609,-0.732 8.082,-1.639 8.082,-5.004 0,-3.056 -3.675,-4.805 -7.838,-4.805 C 5.513,-2.458 2.28,-1.506 0,0" /></g><g
           transform="translate(446.1573,402.0365)"
           id="g84"><path
             id="path86"
             style="fill:#757a7d;fill-opacity:1;fill-rule:nonzero;stroke:none"
             d="M 0,0 V 11.025 H 14.037 V 8.546 H 3.321 V 4.805 h 9.831 V 2.391 H 3.321 V 0 c 0,-1.351 0.643,-1.993 1.949,-1.993 h 9.078 v -2.48 H 4.473 C 1.639,-4.473 0,-2.813 0,0" /></g><g
           transform="translate(472.9669,405.3793)"
           id="g88"><path
             id="path90"
             style="fill:#757a7d;fill-opacity:1;fill-rule:nonzero;stroke:none"
             d="m 0,0 c 2.347,0 3.853,0.975 3.853,2.657 0,1.639 -1.44,2.546 -3.875,2.546 H -4.827 V 0 Z m -8.147,7.683 h 8.39 c 3.897,0 7.064,-1.572 7.064,-4.982 0,-2.656 -1.95,-4.052 -4.584,-4.649 l 5.07,-5.867 H 3.919 l -4.606,5.402 h -4.14 v -5.402 h -3.32 z" /></g><g
           transform="translate(500.6387,413.0619)"
           id="g92"><path
             id="path94"
             style="fill:#757a7d;fill-opacity:1;fill-rule:nonzero;stroke:none"
             d="m 0,0 -7.705,-15.498 h -3.387 L -18.797,0 h 3.808 L -9.188,-12.243 -3.388,0 Z" /></g><path
           id="path96"
           style="fill:#757a7d;fill-opacity:1;fill-rule:nonzero;stroke:none"
           d="m 502.982,413.062 h 3.32 v -15.498 h -3.32 z" /><g
           transform="translate(519.9405,413.3275)"
           id="g98"><path
             id="path100"
             style="fill:#757a7d;fill-opacity:1;fill-rule:nonzero;stroke:none"
             d="m 0,0 c 2.391,0 4.87,-0.731 6.907,-2.191 l -1.55,-2.015 c -1.66,1.151 -3.055,1.793 -5.158,1.793 -3.653,0 -6.509,-2.28 -6.509,-5.602 0,-3.321 2.856,-5.601 6.509,-5.601 2.214,0 3.675,0.686 5.447,1.882 l 1.549,-2.015 c -2.081,-1.483 -4.693,-2.28 -7.195,-2.28 -5.026,0 -9.765,2.966 -9.765,8.037 C -9.765,-2.922 -5.026,0 0,0" /></g><g
           transform="translate(530.4532,402.0365)"
           id="g102"><path
             id="path104"
             style="fill:#757a7d;fill-opacity:1;fill-rule:nonzero;stroke:none"
             d="M 0,0 V 11.025 H 14.037 V 8.546 H 3.321 V 4.805 h 9.831 V 2.391 H 3.321 V 0 c 0,-1.351 0.643,-1.993 1.948,-1.993 h 9.079 v -2.48 H 4.473 C 1.639,-4.473 0,-2.813 0,0" /></g><g
           transform="translate(547.8975,399.7562)"
           id="g106"><path
             id="path108"
             style="fill:#757a7d;fill-opacity:1;fill-rule:nonzero;stroke:none"
             d="M 0,0 1.55,2.235 C 3.565,0.752 6.31,0.066 8.679,0.066 c 2.458,0 4.472,0.731 4.472,1.882 0,1.196 -2.236,1.66 -4.804,2.214 C 4.804,4.915 0.598,5.801 0.598,8.9 c 0,2.878 3.587,4.671 7.682,4.671 2.812,0 5.757,-0.797 7.882,-2.235 L 14.612,9.1 c -1.749,1.328 -4.095,1.992 -6.265,1.992 -2.214,0 -4.34,-0.687 -4.34,-1.793 0,-1.041 2.037,-1.462 4.473,-1.948 3.608,-0.732 8.081,-1.639 8.081,-5.004 0,-3.056 -3.675,-4.805 -7.838,-4.805 C 5.513,-2.458 2.28,-1.506 0,0" /></g><g
           transform="translate(184.5854,440.3846)"
           id="g110"><path
             id="path112"
             style="fill:#007b5d;fill-opacity:1;fill-rule:nonzero;stroke:none"
             d="m 0,0 c 3.18,0 6.479,-0.972 9.188,-2.915 l -2.061,-2.68 c -2.209,1.531 -4.064,2.385 -6.862,2.385 -4.859,0 -8.658,-3.033 -8.658,-7.451 0,-4.417 3.799,-7.45 8.658,-7.45 2.945,0 4.888,0.913 7.244,2.503 l 2.062,-2.68 C 6.803,-20.261 3.328,-21.322 0,-21.322 c -6.685,0 -12.987,3.947 -12.987,10.691 C -12.987,-3.887 -6.685,0 0,0" /></g><g
           transform="translate(209.3784,429.8124)"
           id="g114"><path
             id="path116"
             style="fill:#007b5d;fill-opacity:1;fill-rule:nonzero;stroke:none"
             d="m 0,0 c 3.122,0 5.124,1.296 5.124,3.534 0,2.179 -1.914,3.387 -5.153,3.387 H -6.42 V 0 Z M -10.837,10.219 H 0.324 c 5.183,0 9.394,-2.091 9.394,-6.626 0,-3.534 -2.591,-5.389 -6.096,-6.184 l 6.744,-7.805 H 5.212 L -0.913,-3.21 H -6.42 v -7.186 h -4.417 z" /></g><g
           transform="translate(238.2061,445.9212)"
           id="g118"><path
             id="path120"
             style="fill:#007b5d;fill-opacity:1;fill-rule:nonzero;stroke:none"
             d="m 0,0 -3.416,-3.622 h -3.77 L -4.594,0 Z M -14.224,-20.556 V -5.89 H 4.447 V -9.188 H -9.807 v -4.977 H 3.269 v -3.21 H -9.807 v -3.181 c 0,-1.796 0.854,-2.65 2.592,-2.65 H 4.859 v -3.299 H -8.275 c -3.77,0 -5.949,2.209 -5.949,5.949" /></g><g
           transform="translate(257.9341,422.7152)"
           id="g122"><path
             id="path124"
             style="fill:#007b5d;fill-opacity:1;fill-rule:nonzero;stroke:none"
             d="m 0,0 c 5.006,0 8.363,2.798 8.363,6.979 0,4.212 -3.357,7.039 -8.363,7.039 H -5.183 V 0 Z m -9.601,17.316 h 9.307 c 7.951,0 13.252,-4.123 13.252,-10.307 0,-6.184 -5.301,-10.308 -13.252,-10.308 h -9.307 z" /></g><path
           id="path126"
           style="fill:#007b5d;fill-opacity:1;fill-rule:nonzero;stroke:none"
           d="m 275.571,440.032 h 4.418 v -20.615 h -4.418 z" /><g
           transform="translate(284.375,436.7333)"
           id="g128"><path
             id="path130"
             style="fill:#007b5d;fill-opacity:1;fill-rule:nonzero;stroke:none"
             d="M 0,0 V 3.298 H 20.262 V 0 H 12.339 V -17.317 H 7.922 L 7.922,0 Z" /></g><g
           transform="translate(332.4912,427.6039)"
           id="g132"><path
             id="path134"
             style="fill:#007b5d;fill-opacity:1;fill-rule:nonzero;stroke:none"
             d="M 0,0 -4.064,8.187 -8.128,0 Z M 1.62,-3.21 H -9.748 l -2.474,-4.978 h -4.505 l 10.69,20.616 h 4.506 L 9.159,-8.188 H 4.094 Z" /></g><g
           transform="translate(355.9307,440.3846)"
           id="g136"><path
             id="path138"
             style="fill:#007b5d;fill-opacity:1;fill-rule:nonzero;stroke:none"
             d="m 0,0 c 3.181,0 6.479,-0.972 9.188,-2.915 l -2.061,-2.68 c -2.209,1.531 -4.064,2.385 -6.861,2.385 -4.86,0 -8.659,-2.974 -8.659,-7.392 0,-4.358 3.387,-7.509 8.511,-7.509 2.268,0 4.359,0.618 5.831,1.59 v 3.946 h -6.214 v 3.151 h 10.631 v -8.658 c -2.474,-1.767 -5.977,-3.24 -10.425,-3.24 -7.774,0 -12.928,4.595 -12.928,10.691 C -12.987,-3.887 -6.685,0 0,0" /></g><g
           transform="translate(382.6973,429.8124)"
           id="g140"><path
             id="path142"
             style="fill:#007b5d;fill-opacity:1;fill-rule:nonzero;stroke:none"
             d="m 0,0 c 3.121,0 5.124,1.296 5.124,3.534 0,2.179 -1.914,3.387 -5.153,3.387 H -6.42 V 0 Z M -10.838,10.219 H 0.324 c 5.183,0 9.394,-2.091 9.394,-6.626 0,-3.534 -2.591,-5.389 -6.096,-6.184 l 6.744,-7.805 H 5.213 L -0.913,-3.21 H -6.42 v -7.186 h -4.418 z" /></g><path
           id="path144"
           style="fill:#007b5d;fill-opacity:1;fill-rule:nonzero;stroke:none"
           d="m 398.036,440.032 h 4.418 v -20.615 h -4.418 z" /><g
           transform="translate(420.417,440.3846)"
           id="g146"><path
             id="path148"
             style="fill:#007b5d;fill-opacity:1;fill-rule:nonzero;stroke:none"
             d="m 0,0 c 3.181,0 6.479,-0.972 9.189,-2.915 l -2.062,-2.68 c -2.209,1.531 -4.063,2.385 -6.861,2.385 -4.86,0 -8.659,-3.033 -8.659,-7.451 0,-4.417 3.799,-7.45 8.659,-7.45 2.944,0 4.888,0.913 7.244,2.503 l 2.061,-2.68 C 6.803,-20.261 3.328,-21.322 0,-21.322 c -6.685,0 -12.987,3.947 -12.987,10.691 C -12.987,-3.887 -6.685,0 0,0" /></g><g
           transform="translate(436.7588,429.724)"
           id="g150"><path
             id="path152"
             style="fill:#007b5d;fill-opacity:1;fill-rule:nonzero;stroke:none"
             d="m 0,0 c 0,-4.152 3.445,-7.451 8.452,-7.451 5.006,0 8.451,3.299 8.451,7.451 0,4.152 -3.445,7.451 -8.451,7.451 C 3.445,7.451 0,4.152 0,0 m -4.595,0 c 0,5.831 5.419,10.661 13.047,10.661 7.627,0 13.046,-4.83 13.046,-10.661 0,-5.831 -5.419,-10.661 -13.046,-10.661 -7.628,0 -13.047,4.83 -13.047,10.661" /></g><g
           transform="translate(462.9365,440.0316)"
           id="g154"><path
             id="path156"
             style="fill:#007b5d;fill-opacity:1;fill-rule:nonzero;stroke:none"
             d="m 0,0 h 4.418 v -17.316 h 13.105 v -3.299 H 0 Z" /></g><g
           transform="translate(483.8135,425.3656)"
           id="g158"><path
             id="path160"
             style="fill:#007b5d;fill-opacity:1;fill-rule:nonzero;stroke:none"
             d="M 0,0 V 14.666 H 18.671 V 11.368 H 4.417 V 6.391 H 17.493 V 3.181 H 4.417 V 0 c 0,-1.796 0.855,-2.65 2.592,-2.65 H 19.083 V -5.949 H 5.949 C 2.18,-5.949 0,-3.74 0,0" /></g><g
           transform="translate(413.1779,409.387)"
           id="g162"><path
             id="path164"
             style="fill:#757a7d;fill-opacity:1;fill-rule:nonzero;stroke:none"
             d="m 0,0 v 0.044 c 0,1.041 -0.739,1.749 -1.791,1.749 -1.119,0 -1.859,-0.775 -1.859,-1.859 v -0.045 c 0,-0.775 0.313,-1.351 1.187,-2.302 C -0.85,-1.838 0,-1.107 0,0 m 0.09,-8.436 -3.494,3.521 c -1.455,-0.62 -2.083,-1.572 -2.083,-2.568 v -0.045 c 0,-1.306 1.098,-2.258 2.621,-2.258 1.075,0 2.06,0.509 2.956,1.35 m 1.568,-1.594 c -1.344,-1.24 -2.912,-2.015 -4.815,-2.015 -2.911,0 -5.106,1.749 -5.106,4.429 v 0.044 c 0,1.992 1.187,3.431 3.337,4.34 -0.896,1.129 -1.299,2.103 -1.299,3.232 v 0.044 c 0,2.081 1.702,3.896 4.501,3.896 2.486,0 4.165,-1.66 4.165,-3.741 V 0.154 c 0,-2.036 -1.365,-3.254 -3.448,-4.029 L 1.68,-6.576 c 0.605,0.886 1.165,1.904 1.679,2.989 L 5.443,-4.672 C 4.816,-5.912 4.121,-7.13 3.315,-8.214 l 2.463,-2.48 -2.037,-1.439 z" /></g></g></g></g></svg>