<svg xmlns="http://www.w3.org/2000/svg" xmlns:xlink="http://www.w3.org/1999/xlink" id="Calque_1" x="0" y="0" version="1.1" viewBox="0 0 595.28 283.46" xml:space="preserve" style="enable-background:new 0 0 595.28 283.46"><style type="text/css">.st0{fill:#ed1a37}.st1{fill:#fff}.st2{fill:#435465}</style><g><g><g><polygon points="217.94 137.81 217.94 122.89 232.81 122.89 232.81 108.16 217.93 108.16 217.93 122.9 203.01 122.9 203.01 108.16 113.44 108.16 113.44 227.52 232.81 227.52 232.81 137.81" class="st0"/></g><rect width="16.65" height="16.64" x="191.09" y="75.47" class="st0"/><rect width="12.49" height="12.49" x="263.48" y="85.12" class="st0"/><rect width="16.65" height="16.65" x="251.19" y="55.94" class="st0"/><rect width="12.48" height="12.49" x="244.5" y="103.25" class="st0"/><rect width="12.48" height="12.48" x="243.12" y="132.51" class="st0"/><rect width="12.48" height="12.49" x="220.22" y="73.38" class="st0"/><g><path d="M198.25,191.47h24.83v-12.42h-24.83v-14.02h26.33v-12.51h-41.55c0,0,0,39.15,0,55.08 c0,13.87,15.92,12.4,15.92,12.4h27.03v-12.51h-27.73V191.47z" class="st1"/><g><g><path d="M270.79,181.74c-8.81-3.41-12.51-5.3-12.51-9.61c0-3.41,3.2-6.51,9.81-6.51c6.51,0,11.42,1.9,14.02,3.21 l3.4-12.22c-4-1.9-9.51-3.41-17.22-3.41c-15.82,0-25.53,8.71-25.53,20.23c0,9.91,7.41,16.12,18.62,20.12 c8.11,2.8,11.31,5.31,11.31,9.41c0,4.5-3.71,7.41-10.71,7.41c-6.51,0-12.91-2.1-16.92-4.2l-3.1,12.51 c3.8,2.11,11.41,4.2,19.12,4.2c18.52,0,27.13-9.61,27.13-20.92C288.21,192.36,282.7,186.15,270.79,181.74z M459.12,202.67 c-1.7-6.21-4.31-10.61-9.01-12.52v-0.3c5.81-2.1,11.92-8.01,11.92-16.52c0-6.21-2.21-10.92-6.31-14.12 c-4.81-3.91-11.81-5.41-21.83-5.41c-8.21,0-15.42,0.6-20.33,1.5v25.04h6.79v12.83h-6.79v28.6h15.12v-26.53h4.5 c6.31,0.1,9.21,2.3,11.11,10.81c1.91,8.31,3.61,13.82,4.61,15.72h15.62C463.23,219.19,461.22,210.38,459.12,202.67z M434.69,184.25h-6.01v-18.53c1.1-0.3,3.2-0.5,6.91-0.5c7.01,0,11.21,3.2,11.21,9.31C446.81,180.44,442.3,184.25,434.69,184.25 z M352.69,154.31h-18.83l-15.21,22.43c-1.61,2.4-3.21,4.81-4.71,7.41h-0.2v-29.84h-15.12v67.48h15.12v-22.03l5.71-7.11 l16.62,29.14h17.72l-23.43-38.74L352.69,154.31z" class="st2"/><path d="M374.88,194.36h24.83v-12.42h-24.83v-14.02h26.34v-12.51h-41.55c0,0,0,39.15,0,55.08 c0,13.87,15.92,12.4,15.92,12.4h27.03v-12.51h-27.74V194.36z" class="st2"/></g><g><path d="M481.84,160.27c0,1.28-0.32,2.46-0.95,3.55c-0.63,1.09-1.5,1.95-2.59,2.59c-1.1,0.64-2.28,0.96-3.54,0.96 c-1.25,0-2.43-0.31-3.53-0.95c-1.1-0.63-1.97-1.5-2.6-2.59c-0.64-1.09-0.95-2.26-0.95-3.51c0-1.26,0.31-2.44,0.95-3.55 c0.63-1.11,1.5-1.98,2.59-2.6c1.1-0.63,2.27-0.95,3.53-0.95c1.26,0,2.44,0.31,3.53,0.94c1.09,0.63,1.95,1.5,2.59,2.6 C481.52,157.85,481.84,159.02,481.84,160.27z M480.84,160.28c0-1.07-0.27-2.08-0.81-3.03c-0.55-0.95-1.29-1.69-2.22-2.24 c-0.94-0.54-1.94-0.81-3.02-0.81c-1.08,0-2.1,0.27-3.05,0.81c-0.95,0.54-1.7,1.29-2.24,2.24c-0.54,0.95-0.81,1.96-0.81,3.05 c0,1.08,0.27,2.09,0.81,3.03c0.54,0.94,1.29,1.67,2.24,2.22c0.95,0.55,1.97,0.82,3.05,0.82c1.07,0,2.08-0.27,3.02-0.82 c0.94-0.54,1.68-1.29,2.22-2.22C480.57,162.39,480.84,161.37,480.84,160.28z M471.82,156.18h3.38c0.79,0,1.36,0.08,1.71,0.24 c0.35,0.16,0.63,0.42,0.85,0.77c0.22,0.36,0.33,0.77,0.33,1.25c0,0.41-0.07,0.76-0.2,1.07c-0.12,0.22-0.38,0.46-0.78,0.72 c0.37,0.18,0.61,0.38,0.74,0.62c0.13,0.23,0.19,0.64,0.19,1.21v0.91c0,0.43,0.09,0.79,0.28,1.07l0.13,0.22h-1.49 c-0.07-0.33-0.12-0.73-0.15-1.19l-0.05-0.99c-0.02-0.36-0.08-0.62-0.17-0.77c-0.09-0.15-0.22-0.26-0.39-0.32 c-0.17-0.07-0.51-0.1-1.01-0.1h-2.03v3.36h-1.32V156.18z M473.14,157.34v2.4h1.96c0.6,0,1-0.07,1.21-0.21 c0.32-0.2,0.47-0.53,0.47-1c0-0.41-0.11-0.71-0.33-0.9c-0.22-0.19-0.64-0.29-1.26-0.29H473.14z" class="st2"/></g></g></g></g></g></svg>