<svg xmlns="http://www.w3.org/2000/svg" id="Calque_1" x="0" y="0" version="1.1" viewBox="0 0 595.28 283.46" xml:space="preserve" style="enable-background:new 0 0 595.28 283.46"><style id="style148" type="text/css">.st0{fill:#ed1a37}.st1{fill:#fff}.st2{fill:#435465}</style><g id="g184" transform="matrix(1.4,0,0,1.4,-119.056,-56.692)"><g id="g182"><g id="g152"><polygon id="polygon150" points="217.94 122.89 232.81 122.89 232.81 108.16 217.93 108.16 217.93 122.9 203.01 122.9 203.01 108.16 113.44 108.16 113.44 227.52 232.81 227.52 232.81 137.81 217.94 137.81" class="st0"/></g><rect id="rect154" width="16.65" height="16.64" x="191.09" y="75.47" class="st0"/><rect id="rect156" width="12.49" height="12.49" x="263.48" y="85.12" class="st0"/><rect id="rect158" width="16.65" height="16.65" x="251.19" y="55.94" class="st0"/><rect id="rect160" width="12.48" height="12.49" x="244.5" y="103.25" class="st0"/><rect id="rect162" width="12.48" height="12.48" x="243.12" y="132.51" class="st0"/><rect id="rect164" width="12.48" height="12.49" x="220.22" y="73.38" class="st0"/><g id="g180"><path id="path166" d="m 198.25,191.47 h 24.83 v -12.42 h -24.83 v -14.02 h 26.33 v -12.51 h -41.55 c 0,0 0,39.15 0,55.08 0,13.87 15.92,12.4 15.92,12.4 h 27.03 v -12.51 h -27.73 v -16.02 z" class="st1"/><g id="g178"><g id="g172"><path id="path168" d="m 270.79,181.74 c -8.81,-3.41 -12.51,-5.3 -12.51,-9.61 0,-3.41 3.2,-6.51 9.81,-6.51 6.51,0 11.42,1.9 14.02,3.21 l 3.4,-12.22 c -4,-1.9 -9.51,-3.41 -17.22,-3.41 -15.82,0 -25.53,8.71 -25.53,20.23 0,9.91 7.41,16.12 18.62,20.12 8.11,2.8 11.31,5.31 11.31,9.41 0,4.5 -3.71,7.41 -10.71,7.41 -6.51,0 -12.91,-2.1 -16.92,-4.2 l -3.1,12.51 c 3.8,2.11 11.41,4.2 19.12,4.2 18.52,0 27.13,-9.61 27.13,-20.92 0,-9.6 -5.51,-15.81 -17.42,-20.22 z m 188.33,20.93 c -1.7,-6.21 -4.31,-10.61 -9.01,-12.52 v -0.3 c 5.81,-2.1 11.92,-8.01 11.92,-16.52 0,-6.21 -2.21,-10.92 -6.31,-14.12 -4.81,-3.91 -11.81,-5.41 -21.83,-5.41 -8.21,0 -15.42,0.6 -20.33,1.5 v 25.04 h 6.79 v 12.83 h -6.79 v 28.6 h 15.12 v -26.53 h 4.5 c 6.31,0.1 9.21,2.3 11.11,10.81 1.91,8.31 3.61,13.82 4.61,15.72 h 15.62 c -1.29,-2.58 -3.3,-11.39 -5.4,-19.1 z m -24.43,-18.42 h -6.01 v -18.53 c 1.1,-0.3 3.2,-0.5 6.91,-0.5 7.01,0 11.21,3.2 11.21,9.31 0.01,5.91 -4.5,9.72 -12.11,9.72 z m -82,-29.94 h -18.83 l -15.21,22.43 c -1.61,2.4 -3.21,4.81 -4.71,7.41 h -0.2 v -29.84 h -15.12 v 67.48 h 15.12 v -22.03 l 5.71,-7.11 16.62,29.14 h 17.72 l -23.43,-38.74 z" class="st2"/><path id="path170" d="m 374.88,194.36 h 24.83 v -12.42 h -24.83 v -14.02 h 26.34 v -12.51 h -41.55 c 0,0 0,39.15 0,55.08 0,13.87 15.92,12.4 15.92,12.4 h 27.03 v -12.51 h -27.74 z" class="st2"/></g><g id="g176"><path id="path174" d="m 481.84,160.27 c 0,1.28 -0.32,2.46 -0.95,3.55 -0.63,1.09 -1.5,1.95 -2.59,2.59 -1.1,0.64 -2.28,0.96 -3.54,0.96 -1.25,0 -2.43,-0.31 -3.53,-0.95 -1.1,-0.63 -1.97,-1.5 -2.6,-2.59 -0.64,-1.09 -0.95,-2.26 -0.95,-3.51 0,-1.26 0.31,-2.44 0.95,-3.55 0.63,-1.11 1.5,-1.98 2.59,-2.6 1.1,-0.63 2.27,-0.95 3.53,-0.95 1.26,0 2.44,0.31 3.53,0.94 1.09,0.63 1.95,1.5 2.59,2.6 0.65,1.09 0.97,2.26 0.97,3.51 z m -1,0.01 c 0,-1.07 -0.27,-2.08 -0.81,-3.03 -0.55,-0.95 -1.29,-1.69 -2.22,-2.24 -0.94,-0.54 -1.94,-0.81 -3.02,-0.81 -1.08,0 -2.1,0.27 -3.05,0.81 -0.95,0.54 -1.7,1.29 -2.24,2.24 -0.54,0.95 -0.81,1.96 -0.81,3.05 0,1.08 0.27,2.09 0.81,3.03 0.54,0.94 1.29,1.67 2.24,2.22 0.95,0.55 1.97,0.82 3.05,0.82 1.07,0 2.08,-0.27 3.02,-0.82 0.94,-0.54 1.68,-1.29 2.22,-2.22 0.54,-0.94 0.81,-1.96 0.81,-3.05 z m -9.02,-4.1 h 3.38 c 0.79,0 1.36,0.08 1.71,0.24 0.35,0.16 0.63,0.42 0.85,0.77 0.22,0.36 0.33,0.77 0.33,1.25 0,0.41 -0.07,0.76 -0.2,1.07 -0.12,0.22 -0.38,0.46 -0.78,0.72 0.37,0.18 0.61,0.38 0.74,0.62 0.13,0.23 0.19,0.64 0.19,1.21 v 0.91 c 0,0.43 0.09,0.79 0.28,1.07 l 0.13,0.22 h -1.49 c -0.07,-0.33 -0.12,-0.73 -0.15,-1.19 l -0.05,-0.99 c -0.02,-0.36 -0.08,-0.62 -0.17,-0.77 -0.09,-0.15 -0.22,-0.26 -0.39,-0.32 -0.17,-0.07 -0.51,-0.1 -1.01,-0.1 h -2.03 v 3.36 h -1.32 v -8.07 z m 1.32,1.16 v 2.4 h 1.96 c 0.6,0 1,-0.07 1.21,-0.21 0.32,-0.2 0.47,-0.53 0.47,-1 0,-0.41 -0.11,-0.71 -0.33,-0.9 -0.22,-0.19 -0.64,-0.29 -1.26,-0.29 z" class="st2"/></g></g></g></g></g></svg>