<?xml version="1.0" encoding="UTF-8"?>
<svg id="Calque_2" data-name="Calque 2" xmlns="http://www.w3.org/2000/svg" viewBox="0 0 1000 536.91">
  <defs>
    <style>
      .cls-1 {
        fill: #1c1c1c;
      }

      .cls-1, .cls-2 {
        stroke-width: 0px;
      }

      .cls-2 {
        fill: #f5ed63;
      }
    </style>
  </defs>
  <g id="Elements">
    <g>
      <circle class="cls-2" cx="268.45" cy="268.45" r="268.45"/>
      <g>
        <path class="cls-1" d="m697.18,114.64h73.26l18.14,123.13h6.2l25.3-123.13h56.79l25.53,123.13h6.2l17.9-123.13h73.5l-36.99,200.45h-97.6l-13.84-86.38h-6.2l-13.84,86.38h-97.36l-36.99-200.45Z"/>
        <path class="cls-1" d="m119,214.86c0-64.96,45.3-107.38,114.09-107.38,50.57,0,102.83,22.29,108.34,93.24h-69.03c-4.55-20.85-18.7-30.68-39.31-30.68-23.25,0-42.19,17.02-42.19,44.82s18.94,44.82,42.19,44.82c20.61,0,34.76-9.83,39.31-31.16h69.03c-5.51,71.43-57.05,93.72-108.34,93.72-68.79,0-114.09-42.43-114.09-107.38Z"/>
        <path class="cls-1" d="m536.97,257.34c0,33.17-22.43,57.75-86.62,57.75h-125.04V114.64h129.81c61.57,0,76.84,27.44,76.84,52.97s-11.45,32.45-25.06,40.57v4.3c21.24,8.83,30.07,22.91,30.07,44.86Zm-139.6-85.8v24.34h48.92c14.56,0,16.7-9.54,16.7-11.93,0-4.3-2.15-12.41-16.7-12.41h-48.92Zm66.58,76.84c0-4.3-2.39-12.89-16.7-12.89h-49.87v26.25h49.87c14.32,0,16.7-9.78,16.7-13.36Z"/>
        <path class="cls-1" d="m725.86,174.77h-71.11v140.31h-72.3v-140.31h-70.87v-60.13h214.29v60.13Z"/>
      </g>
    </g>
  </g>
</svg>