<svg xmlns="http://www.w3.org/2000/svg" xmlns:xlink="http://www.w3.org/1999/xlink" viewBox="0 0 3061.42 3061.42"><defs><clipPath id="a"><rect width="3061.42" height="3061.42" style="fill:none"/></clipPath></defs><title>Plan de travail 1</title><g style="clip-path:url(#a)"><path d="M2745.44,1122.32a12.39,12.39,0,0,1-4,17l-511.6,315.08a12.38,12.38,0,0,1-13-21.08l493.34-303.84L2298.63,907.26,1888.21,1160l13.69,481.81L2326,1870.89l410.42-252.77-4.51-158.7a12.38,12.38,0,0,1,24.74-.71l4.71,165.85a12.36,12.36,0,0,1-5.88,10.89l-422.58,260.26a12.37,12.37,0,0,1-12.37.35l-436.69-235.84a12.36,12.36,0,0,1-6.48-10.54l-14.1-496.1a12.37,12.37,0,0,1,5.88-10.89l422.58-260.25a12.35,12.35,0,0,1,12.37-.35l436.69,235.83a12.38,12.38,0,0,1,4.65,4.4" style="fill:#a2c038"/><path d="M2710.76,1476.61a40.1,40.1,0,1,1,55.17,13.12,40.1,40.1,0,0,1-55.17-13.12" style="fill:#a2c038"/><path d="M2506.63,1269.39a12.38,12.38,0,0,1-16.57,17.3l-196.78-109.88-68.61,42.26a12.38,12.38,0,0,1-13-21.08l74.8-46.06a12.38,12.38,0,0,1,12.53-.27l203.1,113.43a12.27,12.27,0,0,1,4.51,4.3" style="fill:#a2c038"/><path d="M2356,1362.16a12.37,12.37,0,0,1,1.83,6.94l-8,213.64a12.4,12.4,0,0,1-5.88,10.08l-2.12,1.3a12.37,12.37,0,1,1-13-21.07l-3.51,2.16,7.74-207a12.37,12.37,0,0,1,22.91-6" style="fill:#a2c038"/><path d="M2623.77,1197.26a12.3,12.3,0,0,1,1.82,6.15l10.25,373.72A12.37,12.37,0,0,1,2630,1588l-256.37,157.89a12.37,12.37,0,0,1-13-21.07l250.29-154.15-10.05-366.58a12.38,12.38,0,0,1,22.92-6.83" style="fill:#a2c038"/><path d="M2162.72,1242.69a40.1,40.1,0,1,1,55.17,13.11,40.09,40.09,0,0,1-55.17-13.11" style="fill:#a2c038"/><path d="M2184.68,1467.68a40.09,40.09,0,1,1,55.17,13.12,40.1,40.1,0,0,1-55.17-13.12" style="fill:#a2c038"/><path d="M2291.27,1610.75a40.1,40.1,0,1,1,55.17,13.11,40.11,40.11,0,0,1-55.17-13.11" style="fill:#a2c038"/><path d="M2333,1756.38a40.1,40.1,0,1,1,55.17,13.12,40.1,40.1,0,0,1-55.17-13.12" style="fill:#a2c038"/></g><path d="M1531.5,2071.55a15.73,15.73,0,0,1-.13,2.19,6.52,6.52,0,0,1-.39,1.57,2,2,0,0,1-.66.89,1.52,1.52,0,0,1-.85.26,6.07,6.07,0,0,1-2.62-1.24,40.37,40.37,0,0,0-4.9-2.75,45.76,45.76,0,0,0-7.36-2.75,36.77,36.77,0,0,0-10.18-1.24,29.8,29.8,0,0,0-12.56,2.55,27,27,0,0,0-9.42,7.06,31.42,31.42,0,0,0-5.92,10.74,46.15,46.15,0,0,0,.19,27.87,30.76,30.76,0,0,0,6.25,10.6,25.92,25.92,0,0,0,9.52,6.54,32.3,32.3,0,0,0,12.14,2.23,34.66,34.66,0,0,0,8-1,29.47,29.47,0,0,0,7.49-2.85V2107.6h-19.63a1.78,1.78,0,0,1-1.67-1.11,8.18,8.18,0,0,1-.55-3.47,14.4,14.4,0,0,1,.13-2.12,4.48,4.48,0,0,1,.42-1.44,2.21,2.21,0,0,1,.69-.82,1.76,1.76,0,0,1,1-.26h26.89a4.3,4.3,0,0,1,1.44.26,4.07,4.07,0,0,1,1.31.78,3.48,3.48,0,0,1,.92,1.44,6.48,6.48,0,0,1,.32,2.1v32.25a6.72,6.72,0,0,1-.59,2.95,5.1,5.1,0,0,1-2.48,2.19,50.63,50.63,0,0,1-4.91,2.06,57.31,57.31,0,0,1-6.21,1.9,54.52,54.52,0,0,1-13,1.57,47.45,47.45,0,0,1-17.53-3,35.85,35.85,0,0,1-13.06-8.67,37.92,37.92,0,0,1-8.14-13.48,56,56,0,0,1,.23-35.79,39.8,39.8,0,0,1,8.57-13.94,38.35,38.35,0,0,1,13.28-8.93,45,45,0,0,1,17.17-3.17,46.19,46.19,0,0,1,9.1.85,59.54,59.54,0,0,1,7.56,2,31.51,31.51,0,0,1,5.56,2.49,18.12,18.12,0,0,1,3.11,2.19,4.63,4.63,0,0,1,1.17,2A11.88,11.88,0,0,1,1531.5,2071.55Z" style="fill:#1a7371"/><path d="M1585.61,2088c0,1,0,1.77-.07,2.42a5.86,5.86,0,0,1-.26,1.54,2.22,2.22,0,0,1-.49.85,1.08,1.08,0,0,1-.82.29,3.53,3.53,0,0,1-1.27-.29c-.5-.2-1.07-.39-1.7-.59s-1.34-.38-2.13-.56a12,12,0,0,0-2.55-.26,8.24,8.24,0,0,0-3.21.66,12.21,12.21,0,0,0-3.3,2.16,26.11,26.11,0,0,0-3.63,4c-1.27,1.66-2.66,3.68-4.19,6.08v38.74a1.48,1.48,0,0,1-.26.88,2.06,2.06,0,0,1-.85.62,5.55,5.55,0,0,1-1.64.39,21.82,21.82,0,0,1-2.68.13,21.2,21.2,0,0,1-2.62-.13,6,6,0,0,1-1.67-.39,1.83,1.83,0,0,1-.85-.62,1.62,1.62,0,0,1-.23-.88v-58.89a1.82,1.82,0,0,1,.2-.88,1.74,1.74,0,0,1,.79-.66,4.67,4.67,0,0,1,1.5-.39,29,29,0,0,1,4.81,0,4.08,4.08,0,0,1,1.47.39,2.06,2.06,0,0,1,.75.66,1.54,1.54,0,0,1,.23.88v8.57a47.5,47.5,0,0,1,4.55-5.76,25.51,25.51,0,0,1,4-3.5,12.3,12.3,0,0,1,3.77-1.76,14.54,14.54,0,0,1,3.76-.49c.57,0,1.21,0,1.93.09a19.9,19.9,0,0,1,2.26.36,20.47,20.47,0,0,1,2.12.59,4.46,4.46,0,0,1,1.34.66,1.79,1.79,0,0,1,.53.62,4.87,4.87,0,0,1,.23.75,10.38,10.38,0,0,1,.13,1.34C1585.6,2086.24,1585.61,2087,1585.61,2088Z" style="fill:#1a7371"/><path d="M1650.53,2113a44,44,0,0,1-1.9,13.25,29.26,29.26,0,0,1-5.65,10.43,25.49,25.49,0,0,1-9.43,6.84,32.64,32.64,0,0,1-13.12,2.46,34,34,0,0,1-12.66-2.16,23.11,23.11,0,0,1-9-6.29,26.55,26.55,0,0,1-5.37-10,46.3,46.3,0,0,1-1.76-13.34,44.9,44.9,0,0,1,1.86-13.25,28.73,28.73,0,0,1,5.63-10.44,25.22,25.22,0,0,1,9.39-6.8,32.94,32.94,0,0,1,13.15-2.42,34.18,34.18,0,0,1,12.66,2.15,23,23,0,0,1,9,6.29,26.88,26.88,0,0,1,5.4,10A45.34,45.34,0,0,1,1650.53,2113Zm-11.19.72a43.56,43.56,0,0,0-.89-9,22,22,0,0,0-2.94-7.46,14.5,14.5,0,0,0-5.54-5.07,21.09,21.09,0,0,0-17-.16,15.11,15.11,0,0,0-5.71,4.8,21.67,21.67,0,0,0-3.34,7.37,37.64,37.64,0,0,0-1.09,9.29,43.78,43.78,0,0,0,.9,9.09,21.29,21.29,0,0,0,3,7.43,15,15,0,0,0,5.57,5,18.45,18.45,0,0,0,8.72,1.86,18.72,18.72,0,0,0,8.25-1.7,15.21,15.21,0,0,0,5.75-4.78,21,21,0,0,0,3.3-7.33A39,39,0,0,0,1639.34,2113.69Z" style="fill:#1a7371"/><path d="M1716.88,2143.07a1.62,1.62,0,0,1-.23.88,1.77,1.77,0,0,1-.82.62,5.38,5.38,0,0,1-1.54.39,16.84,16.84,0,0,1-2.32.13,18.12,18.12,0,0,1-2.45-.13,4.9,4.9,0,0,1-1.51-.39,1.55,1.55,0,0,1-.75-.62,1.82,1.82,0,0,1-.2-.88v-7.79a36.62,36.62,0,0,1-9.94,8.11,21.38,21.38,0,0,1-9.95,2.56,22.47,22.47,0,0,1-9.91-2,17.43,17.43,0,0,1-6.51-5.33,21.54,21.54,0,0,1-3.57-7.85,47.24,47.24,0,0,1-1.08-10.9v-35.72a1.62,1.62,0,0,1,.23-.88,2.06,2.06,0,0,1,.89-.66,5.69,5.69,0,0,1,1.7-.39c.7-.07,1.57-.1,2.62-.1s1.91,0,2.61.1a5.33,5.33,0,0,1,1.67.39,2.3,2.3,0,0,1,.88.66,1.42,1.42,0,0,1,.27.88v34.28a36.6,36.6,0,0,0,.75,8.28,15.36,15.36,0,0,0,2.29,5.3,10.52,10.52,0,0,0,3.89,3.4,11.83,11.83,0,0,0,5.5,1.21,13.8,13.8,0,0,0,8.08-2.87,46,46,0,0,0,8.54-8.45v-41.15a1.54,1.54,0,0,1,.23-.88,2,2,0,0,1,.88-.66,5.63,5.63,0,0,1,1.67-.39c.67-.07,1.56-.1,2.65-.1s1.92,0,2.61.1a5,5,0,0,1,1.64.39,2.66,2.66,0,0,1,.88.66,1.32,1.32,0,0,1,.3.88Z" style="fill:#1a7371"/><path d="M1791,2112.71a53.15,53.15,0,0,1-1.67,13.87,30.1,30.1,0,0,1-4.91,10.43,21.87,21.87,0,0,1-8,6.61,24.69,24.69,0,0,1-10.93,2.33,21.05,21.05,0,0,1-4.84-.53,18.69,18.69,0,0,1-4.35-1.63,25.23,25.23,0,0,1-4.22-2.82q-2.1-1.69-4.45-4v29.44a1.65,1.65,0,0,1-.26.92,2,2,0,0,1-.85.66,6.26,6.26,0,0,1-1.64.39,24,24,0,0,1-2.68.13,23.38,23.38,0,0,1-2.62-.13,6.87,6.87,0,0,1-1.67-.39,1.76,1.76,0,0,1-.85-.66,1.82,1.82,0,0,1-.23-.92v-82.24a2,2,0,0,1,.2-.95,1.53,1.53,0,0,1,.79-.62,5.32,5.32,0,0,1,1.5-.36,25.14,25.14,0,0,1,4.48,0,5.27,5.27,0,0,1,1.47.36,1.72,1.72,0,0,1,.82.62,1.78,1.78,0,0,1,.23.95v7.92a60.79,60.79,0,0,1,5.17-4.78,31.65,31.65,0,0,1,5-3.37,23.62,23.62,0,0,1,5.17-2,22.07,22.07,0,0,1,5.59-.68,22.35,22.35,0,0,1,10.93,2.48,20.63,20.63,0,0,1,7.36,6.81,30.43,30.43,0,0,1,4.15,10A54.5,54.5,0,0,1,1791,2112.71Zm-11.19,1.24a54,54,0,0,0-.69-8.73,25.29,25.29,0,0,0-2.37-7.5,14,14,0,0,0-4.51-5.23,12,12,0,0,0-7-2,14,14,0,0,0-4.15.62,17.06,17.06,0,0,0-4.15,2,30.37,30.37,0,0,0-4.41,3.53,55.66,55.66,0,0,0-4.87,5.4v23.43a47,47,0,0,0,8.49,8.31,14.25,14.25,0,0,0,8.43,2.87,12.28,12.28,0,0,0,7-2,14.87,14.87,0,0,0,4.74-5.23,26.16,26.16,0,0,0,2.67-7.33A39.58,39.58,0,0,0,1779.82,2114Z" style="fill:#1a7371"/><path d="M1851.6,2143.13a1.37,1.37,0,0,1-.53,1.18,3.63,3.63,0,0,1-1.44.59,13.84,13.84,0,0,1-2.68.19,15,15,0,0,1-2.71-.19,3.27,3.27,0,0,1-1.48-.59,1.47,1.47,0,0,1-.45-1.18v-5.89a29.26,29.26,0,0,1-8.61,6.42,22.89,22.89,0,0,1-10,2.29,27.59,27.59,0,0,1-8.41-1.21,18.21,18.21,0,0,1-6.41-3.51,15.6,15.6,0,0,1-4.12-5.62,18.69,18.69,0,0,1-1.47-7.59,17.57,17.57,0,0,1,2-8.64,16.93,16.93,0,0,1,5.83-6.08,28.26,28.26,0,0,1,9.29-3.63,57.38,57.38,0,0,1,12.36-1.22h8.12v-4.58a22.84,22.84,0,0,0-.72-6,10.46,10.46,0,0,0-2.32-4.35,10.14,10.14,0,0,0-4.16-2.61,19.29,19.29,0,0,0-6.28-.89,25.15,25.15,0,0,0-7.17.95,37.36,37.36,0,0,0-5.56,2.1q-2.39,1.14-4,2.09a5.53,5.53,0,0,1-2.39,1,1.62,1.62,0,0,1-.91-.26,2.36,2.36,0,0,1-.69-.79,4,4,0,0,1-.43-1.34,12.37,12.37,0,0,1-.13-1.8,11.6,11.6,0,0,1,.23-2.58,3.67,3.67,0,0,1,1.12-1.8,14.08,14.08,0,0,1,3-2,33.34,33.34,0,0,1,5-2.09,45.18,45.18,0,0,1,6.15-1.57,36.27,36.27,0,0,1,6.74-.62,35.73,35.73,0,0,1,10.8,1.43,17.42,17.42,0,0,1,7.19,4.23,16.12,16.12,0,0,1,4,6.9,33.36,33.36,0,0,1,1.25,9.62Zm-10.73-26.89h-9.23a34.86,34.86,0,0,0-7.72.75,16.11,16.11,0,0,0-5.43,2.23,9.15,9.15,0,0,0-3.17,3.53,10.56,10.56,0,0,0-1,4.74,9.5,9.5,0,0,0,2.91,7.3q2.91,2.72,8.15,2.71a15.17,15.17,0,0,0,7.89-2.15,34.16,34.16,0,0,0,7.62-6.61Z" style="fill:#1a7371"/><path d="M1958.77,2143.07a1.48,1.48,0,0,1-.26.88,2.06,2.06,0,0,1-.85.62,5.55,5.55,0,0,1-1.64.39,21,21,0,0,1-2.61.13,22,22,0,0,1-2.69-.13,6.14,6.14,0,0,1-1.67-.39,2.05,2.05,0,0,1-.88-.62,1.48,1.48,0,0,1-.26-.88v-35.79a33.23,33.23,0,0,0-.65-6.81,15.81,15.81,0,0,0-2.1-5.3,9.76,9.76,0,0,0-3.66-3.4,11,11,0,0,0-5.24-1.18,12.33,12.33,0,0,0-7.49,2.88,51.18,51.18,0,0,0-8.27,8.44v41.16a1.42,1.42,0,0,1-.27.88,2,2,0,0,1-.88.62,6,6,0,0,1-1.67.39,26.06,26.06,0,0,1-5.2,0,6,6,0,0,1-1.7-.39,1.73,1.73,0,0,1-.85-.62,1.54,1.54,0,0,1-.23-.88v-35.79a29.9,29.9,0,0,0-.72-6.81,16.74,16.74,0,0,0-2.16-5.3,9.83,9.83,0,0,0-3.63-3.4,10.79,10.79,0,0,0-5.2-1.18,12.46,12.46,0,0,0-7.53,2.88,48.88,48.88,0,0,0-8.24,8.44v41.16a1.48,1.48,0,0,1-.26.88,2.06,2.06,0,0,1-.85.62,5.63,5.63,0,0,1-1.64.39,21.82,21.82,0,0,1-2.68.13,21.2,21.2,0,0,1-2.62-.13,6,6,0,0,1-1.67-.39,1.77,1.77,0,0,1-.85-.62,1.62,1.62,0,0,1-.23-.88v-58.89a1.82,1.82,0,0,1,.2-.88,1.76,1.76,0,0,1,.78-.66,4.8,4.8,0,0,1,1.51-.39,22.42,22.42,0,0,1,2.42-.1,22.68,22.68,0,0,1,2.39.1,4.08,4.08,0,0,1,1.47.39,2.06,2.06,0,0,1,.75.66,1.62,1.62,0,0,1,.23.88V2092a38.21,38.21,0,0,1,9.65-8.15,19.4,19.4,0,0,1,9.46-2.58,23.31,23.31,0,0,1,6.57.85,17.61,17.61,0,0,1,5.14,2.38,15.93,15.93,0,0,1,3.79,3.67,21.28,21.28,0,0,1,2.62,4.74,60.52,60.52,0,0,1,5.6-5.43,33.44,33.44,0,0,1,5.1-3.6,20.79,20.79,0,0,1,4.78-2,17.68,17.68,0,0,1,4.67-.62,20.69,20.69,0,0,1,9.56,2,17.45,17.45,0,0,1,6.25,5.33,21.58,21.58,0,0,1,3.4,7.82,43.14,43.14,0,0,1,1,9.46Z" style="fill:#1a7371"/><path d="M2022.83,2143.13a1.37,1.37,0,0,1-.53,1.18,3.7,3.7,0,0,1-1.44.59,13.84,13.84,0,0,1-2.68.19,15,15,0,0,1-2.71-.19,3.27,3.27,0,0,1-1.48-.59,1.47,1.47,0,0,1-.45-1.18v-5.89a29.26,29.26,0,0,1-8.61,6.42,22.89,22.89,0,0,1-10,2.29,27.59,27.59,0,0,1-8.41-1.21,18.21,18.21,0,0,1-6.41-3.51,15.6,15.6,0,0,1-4.12-5.62,18.52,18.52,0,0,1-1.48-7.59,17.57,17.57,0,0,1,2-8.64,16.85,16.85,0,0,1,5.83-6.08,28.26,28.26,0,0,1,9.29-3.63,57.38,57.38,0,0,1,12.36-1.22h8.12v-4.58a22.84,22.84,0,0,0-.72-6,10.36,10.36,0,0,0-2.33-4.35,10,10,0,0,0-4.15-2.61,19.34,19.34,0,0,0-6.28-.89,25.15,25.15,0,0,0-7.17.95,37.36,37.36,0,0,0-5.56,2.1q-2.39,1.14-4,2.09a5.53,5.53,0,0,1-2.39,1,1.62,1.62,0,0,1-.91-.26,2.25,2.25,0,0,1-.69-.79,4,4,0,0,1-.43-1.34,12.37,12.37,0,0,1-.13-1.8,11.6,11.6,0,0,1,.23-2.58,3.67,3.67,0,0,1,1.12-1.8,14.08,14.08,0,0,1,3-2,33.34,33.34,0,0,1,5-2.09,44.81,44.81,0,0,1,6.15-1.57,36.2,36.2,0,0,1,6.74-.62,35.73,35.73,0,0,1,10.8,1.43,17.42,17.42,0,0,1,7.19,4.23,16.33,16.33,0,0,1,4,6.9,33.36,33.36,0,0,1,1.25,9.62Zm-10.73-26.89h-9.23a34.86,34.86,0,0,0-7.72.75,16.11,16.11,0,0,0-5.43,2.23,9.15,9.15,0,0,0-3.17,3.53,10.56,10.56,0,0,0-1,4.74,9.5,9.5,0,0,0,2.91,7.3q2.91,2.72,8.15,2.71a15.13,15.13,0,0,0,7.88-2.15,34.18,34.18,0,0,0,7.63-6.61Z" style="fill:#1a7371"/><path d="M2127.18,2064.88a15.08,15.08,0,0,1-.13,2.16,4.79,4.79,0,0,1-.42,1.47,2.17,2.17,0,0,1-.72.82,1.83,1.83,0,0,1-.95.26h-23.82V2143a1.65,1.65,0,0,1-.26.92,1.76,1.76,0,0,1-.92.62,10.08,10.08,0,0,1-1.73.39,22.86,22.86,0,0,1-5.4,0,10.44,10.44,0,0,1-1.77-.39,1.73,1.73,0,0,1-.91-.62,1.58,1.58,0,0,1-.26-.92v-73.41h-23.82a1.81,1.81,0,0,1-1-.26,2,2,0,0,1-.69-.82,6.26,6.26,0,0,1-.42-1.47,12.37,12.37,0,0,1-.16-2.16,12.9,12.9,0,0,1,.16-2.19,6.81,6.81,0,0,1,.42-1.54,1.88,1.88,0,0,1,.69-.85,1.72,1.72,0,0,1,1-.26H2125a1.74,1.74,0,0,1,.95.26,2.06,2.06,0,0,1,.72.85,5.21,5.21,0,0,1,.42,1.54A15.73,15.73,0,0,1,2127.18,2064.88Z" style="fill:#a2c038"/><path d="M2176.63,2111.07a4.53,4.53,0,0,1-1.28,3.63,4.41,4.41,0,0,1-2.93,1.08h-38.78a36.27,36.27,0,0,0,1,8.84,17,17,0,0,0,3.29,6.73,14.72,14.72,0,0,0,6,4.32,23.74,23.74,0,0,0,9,1.51,36.67,36.67,0,0,0,7.49-.69,44.33,44.33,0,0,0,5.69-1.54c1.6-.56,2.91-1.08,3.95-1.53a6.41,6.41,0,0,1,2.33-.69,1.51,1.51,0,0,1,.82.23,1.47,1.47,0,0,1,.56.68,5.14,5.14,0,0,1,.3,1.28,18.46,18.46,0,0,1,.1,2c0,.56,0,1-.07,1.47s-.1.78-.16,1.11a3,3,0,0,1-.33.88,3.46,3.46,0,0,1-.59.76,9.5,9.5,0,0,1-2.13,1.17,30.61,30.61,0,0,1-4.58,1.61,63,63,0,0,1-6.51,1.4,46.86,46.86,0,0,1-7.88.63,36.56,36.56,0,0,1-12.73-2,23.63,23.63,0,0,1-9.19-6,25.77,25.77,0,0,1-5.63-10,46.89,46.89,0,0,1-1.89-14,44.13,44.13,0,0,1,2-13.64,28.83,28.83,0,0,1,5.66-10.27,24.8,24.8,0,0,1,8.93-6.48,29.36,29.36,0,0,1,11.71-2.25,28.38,28.38,0,0,1,11.81,2.22,22.34,22.34,0,0,1,8,6,24.1,24.1,0,0,1,4.61,8.83,38.72,38.72,0,0,1,1.47,10.83Zm-10.86-3.2q.2-8.51-3.79-13.35t-11.81-4.84a15.63,15.63,0,0,0-7,1.5,15.28,15.28,0,0,0-5.08,4,18.4,18.4,0,0,0-3.16,5.79,24.53,24.53,0,0,0-1.25,6.91Z" style="fill:#a2c038"/><path d="M2235.39,2134.1c0,.74,0,1.39-.07,1.93a6.58,6.58,0,0,1-.23,1.38,5.26,5.26,0,0,1-.39,1,6.16,6.16,0,0,1-1,1.24,15.77,15.77,0,0,1-2.78,2,26.61,26.61,0,0,1-4.41,2.16,34.51,34.51,0,0,1-5.34,1.54,29.79,29.79,0,0,1-5.95.59,28.36,28.36,0,0,1-11.25-2.1,21.13,21.13,0,0,1-8.22-6.12,27.66,27.66,0,0,1-5-9.88,47.48,47.48,0,0,1-1.74-13.51,46.55,46.55,0,0,1,2.13-15,28.34,28.34,0,0,1,5.82-10.24,23.14,23.14,0,0,1,8.7-5.92,30,30,0,0,1,10.83-1.93,28.91,28.91,0,0,1,5.47.52,29.68,29.68,0,0,1,4.87,1.38,22.14,22.14,0,0,1,4,2,16,16,0,0,1,2.52,1.9,9.06,9.06,0,0,1,1.08,1.24,4.9,4.9,0,0,1,.49,1.08,6.32,6.32,0,0,1,.26,1.41c0,.52.07,1.18.07,2a7.73,7.73,0,0,1-.59,3.57,1.71,1.71,0,0,1-1.44,1,3.72,3.72,0,0,1-2.26-1.08,37.19,37.19,0,0,0-3.24-2.39,24.33,24.33,0,0,0-4.74-2.38,18,18,0,0,0-6.58-1.08q-7.79,0-11.94,6t-4.15,17.37a41,41,0,0,0,1.08,10,20.57,20.57,0,0,0,3.17,7.17,13,13,0,0,0,5.14,4.28,16.36,16.36,0,0,0,7,1.41,16.79,16.79,0,0,0,6.55-1.18,27,27,0,0,0,4.87-2.58q2.05-1.41,3.47-2.56a4.13,4.13,0,0,1,2.19-1.14,1.25,1.25,0,0,1,.79.26,2.08,2.08,0,0,1,.55.88,7,7,0,0,1,.33,1.57C2235.35,2132.48,2235.39,2133.23,2235.39,2134.1Z" style="fill:#a2c038"/><path d="M2300.42,2143.07a1.41,1.41,0,0,1-.26.88,1.94,1.94,0,0,1-.85.62,5.56,5.56,0,0,1-1.63.39,21.2,21.2,0,0,1-2.62.13,21.71,21.71,0,0,1-2.68-.13,5.55,5.55,0,0,1-1.64-.39,2,2,0,0,1-.85-.62,1.48,1.48,0,0,1-.26-.88v-34.49a33.55,33.55,0,0,0-.79-8.11,16.63,16.63,0,0,0-2.29-5.3,9.89,9.89,0,0,0-3.89-3.4,12.27,12.27,0,0,0-5.53-1.18,13.94,13.94,0,0,0-8.11,2.88,43.86,43.86,0,0,0-8.51,8.44v41.16a1.48,1.48,0,0,1-.26.88,2,2,0,0,1-.85.62,5.55,5.55,0,0,1-1.64.39,21.71,21.71,0,0,1-2.68.13,21.31,21.31,0,0,1-2.62-.13,6,6,0,0,1-1.66-.39,1.73,1.73,0,0,1-.85-.62,1.54,1.54,0,0,1-.23-.88v-87.42a1.69,1.69,0,0,1,.23-.91,1.66,1.66,0,0,1,.85-.66,6.77,6.77,0,0,1,1.66-.39,21.31,21.31,0,0,1,2.62-.13,21.71,21.71,0,0,1,2.68.13,6.26,6.26,0,0,1,1.64.39,1.9,1.9,0,0,1,.85.66,1.62,1.62,0,0,1,.26.91v35.27a35.13,35.13,0,0,1,9.36-7.3,20.81,20.81,0,0,1,9.49-2.38,22.18,22.18,0,0,1,9.91,2,17.92,17.92,0,0,1,6.51,5.33,21.14,21.14,0,0,1,3.56,7.82,46.35,46.35,0,0,1,1.08,10.83Z" style="fill:#a2c038"/><path d="M2370.83,2143.07a1.48,1.48,0,0,1-.26.88,2,2,0,0,1-.86.62,5.47,5.47,0,0,1-1.63.39,21.2,21.2,0,0,1-2.62.13,21.82,21.82,0,0,1-2.68-.13,5.63,5.63,0,0,1-1.64-.39,2.06,2.06,0,0,1-.85-.62,1.48,1.48,0,0,1-.26-.88v-34.49a34.13,34.13,0,0,0-.78-8.11,17.09,17.09,0,0,0-2.29-5.3,10,10,0,0,0-3.9-3.4,12.27,12.27,0,0,0-5.53-1.18,14,14,0,0,0-8.11,2.88,43.85,43.85,0,0,0-8.5,8.44v41.16a1.42,1.42,0,0,1-.27.88,1.94,1.94,0,0,1-.85.62,5.56,5.56,0,0,1-1.63.39,22,22,0,0,1-2.69.13,21,21,0,0,1-2.61-.13,6,6,0,0,1-1.67-.39,1.73,1.73,0,0,1-.85-.62,1.54,1.54,0,0,1-.23-.88v-58.89a1.71,1.71,0,0,1,.2-.88,1.76,1.76,0,0,1,.78-.66,4.66,4.66,0,0,1,1.51-.39,22.29,22.29,0,0,1,2.42-.1,22.68,22.68,0,0,1,2.39.1,4.08,4.08,0,0,1,1.47.39,2.06,2.06,0,0,1,.75.66,1.62,1.62,0,0,1,.23.88V2092a36.09,36.09,0,0,1,9.91-8.15,21.35,21.35,0,0,1,10-2.58,22.18,22.18,0,0,1,9.91,2,17.92,17.92,0,0,1,6.51,5.33,21.32,21.32,0,0,1,3.57,7.82,46.58,46.58,0,0,1,1.08,10.77Z" style="fill:#a2c038"/><path d="M2445.29,2113a44.28,44.28,0,0,1-1.9,13.25,29.27,29.27,0,0,1-5.66,10.43,25.53,25.53,0,0,1-9.42,6.84,32.7,32.7,0,0,1-13.12,2.46,34,34,0,0,1-12.66-2.16,23.14,23.14,0,0,1-9-6.29,26.39,26.39,0,0,1-5.36-10,46.29,46.29,0,0,1-1.77-13.34,44.9,44.9,0,0,1,1.86-13.25,28.88,28.88,0,0,1,5.63-10.44,25.38,25.38,0,0,1,9.39-6.8,33,33,0,0,1,13.15-2.42,34.18,34.18,0,0,1,12.66,2.15,23.14,23.14,0,0,1,9,6.29,26.88,26.88,0,0,1,5.4,10A45.34,45.34,0,0,1,2445.29,2113Zm-11.19.72a44.25,44.25,0,0,0-.89-9,22.39,22.39,0,0,0-2.94-7.46,14.6,14.6,0,0,0-5.55-5.07,21.09,21.09,0,0,0-17-.16,15.18,15.18,0,0,0-5.71,4.8,21.46,21.46,0,0,0-3.33,7.37,37.17,37.17,0,0,0-1.09,9.29,43.8,43.8,0,0,0,.89,9.09,21.29,21.29,0,0,0,3,7.43,15.1,15.1,0,0,0,5.58,5,18.41,18.41,0,0,0,8.71,1.86,18.8,18.8,0,0,0,8.26-1.7,15.25,15.25,0,0,0,5.74-4.78,20.61,20.61,0,0,0,3.3-7.33A38.43,38.43,0,0,0,2434.1,2113.69Z" style="fill:#a2c038"/><path d="M2472,2143.07a1.48,1.48,0,0,1-.26.88,2.06,2.06,0,0,1-.85.62,5.55,5.55,0,0,1-1.64.39,21.71,21.71,0,0,1-2.68.13,21.2,21.2,0,0,1-2.62-.13,6.14,6.14,0,0,1-1.67-.39,1.74,1.74,0,0,1-.84-.62,1.54,1.54,0,0,1-.23-.88v-87.42a1.69,1.69,0,0,1,.23-.91,1.67,1.67,0,0,1,.84-.66,7,7,0,0,1,1.67-.39,21.2,21.2,0,0,1,2.62-.13,21.71,21.71,0,0,1,2.68.13,6.26,6.26,0,0,1,1.64.39,2,2,0,0,1,.85.66,1.62,1.62,0,0,1,.26.91Z" style="fill:#a2c038"/><path d="M2546.7,2113a44,44,0,0,1-1.9,13.25,29.26,29.26,0,0,1-5.65,10.43,25.49,25.49,0,0,1-9.43,6.84,32.64,32.64,0,0,1-13.12,2.46,34,34,0,0,1-12.66-2.16,23.11,23.11,0,0,1-9-6.29,26.55,26.55,0,0,1-5.37-10,46.3,46.3,0,0,1-1.76-13.34,44.9,44.9,0,0,1,1.86-13.25,28.73,28.73,0,0,1,5.63-10.44,25.22,25.22,0,0,1,9.39-6.8,32.94,32.94,0,0,1,13.15-2.42,34.18,34.18,0,0,1,12.66,2.15,23,23,0,0,1,9,6.29,26.88,26.88,0,0,1,5.4,10A45.34,45.34,0,0,1,2546.7,2113Zm-11.19.72a43.56,43.56,0,0,0-.89-9,22,22,0,0,0-2.94-7.46,14.5,14.5,0,0,0-5.54-5.07,21.09,21.09,0,0,0-17-.16,15.11,15.11,0,0,0-5.71,4.8,21.67,21.67,0,0,0-3.34,7.37,37.64,37.64,0,0,0-1.09,9.29,43.78,43.78,0,0,0,.9,9.09,21.29,21.29,0,0,0,3,7.43,15,15,0,0,0,5.57,5,18.45,18.45,0,0,0,8.72,1.86,18.72,18.72,0,0,0,8.25-1.7,15.21,15.21,0,0,0,5.75-4.78,21,21,0,0,0,3.3-7.33A39,39,0,0,0,2535.51,2113.69Z" style="fill:#a2c038"/><path d="M2611.8,2086.86a6.56,6.56,0,0,1-.62,3.31,1.84,1.84,0,0,1-1.6,1h-8.44a13.38,13.38,0,0,1,3.21,5.2,19.23,19.23,0,0,1,.91,5.92,23.28,23.28,0,0,1-1.63,9A18,18,0,0,1,2599,2118a20.83,20.83,0,0,1-7.23,4.16,28.43,28.43,0,0,1-9.29,1.44,24.31,24.31,0,0,1-6.84-1,14.26,14.26,0,0,1-5-2.39,10.46,10.46,0,0,0-1.93,2.68,7.7,7.7,0,0,0-.75,3.47,4.51,4.51,0,0,0,2.13,3.8,10.23,10.23,0,0,0,5.66,1.63l15.37.66a31.39,31.39,0,0,1,8.05,1.21,20.06,20.06,0,0,1,6.35,3.07,14.22,14.22,0,0,1,4.19,4.91,14.59,14.59,0,0,1,1.5,6.77,18.15,18.15,0,0,1-1.7,7.72,18,18,0,0,1-5.2,6.45,26.23,26.23,0,0,1-8.93,4.38,45.55,45.55,0,0,1-12.83,1.6,52.29,52.29,0,0,1-12.14-1.21,26.37,26.37,0,0,1-8.21-3.3,12.89,12.89,0,0,1-4.64-5,14,14,0,0,1-1.44-6.31,16.64,16.64,0,0,1,.52-4.19,15.29,15.29,0,0,1,1.6-3.86,19.35,19.35,0,0,1,2.69-3.5,35.79,35.79,0,0,1,3.69-3.3,11.61,11.61,0,0,1-4.74-4.12,10,10,0,0,1-1.54-5.37,15.2,15.2,0,0,1,1.64-7.13,23.5,23.5,0,0,1,4.06-5.63,18.89,18.89,0,0,1-3.21-5.46,20.32,20.32,0,0,1-1.18-7.36,22.9,22.9,0,0,1,1.7-9,19.31,19.31,0,0,1,4.71-6.74,20.74,20.74,0,0,1,7.23-4.22,27.82,27.82,0,0,1,9.2-1.47,39.26,39.26,0,0,1,5,.29,35.42,35.42,0,0,1,4.35.82h17.8a1.79,1.79,0,0,1,1.67,1.08A7.53,7.53,0,0,1,2611.8,2086.86ZM2600.35,2149a6.6,6.6,0,0,0-3.1-5.85,15.77,15.77,0,0,0-8.41-2.2l-15.25-.52a28,28,0,0,0-3.43,3.11,17.21,17.21,0,0,0-2.13,2.81A9.49,9.49,0,0,0,2567,2149a12.57,12.57,0,0,0-.29,2.68q0,4.26,4.32,6.45t12,2.19a30.35,30.35,0,0,0,8.21-1,15.65,15.65,0,0,0,5.33-2.52,9.15,9.15,0,0,0,2.91-3.6A10.51,10.51,0,0,0,2600.35,2149Zm-5.43-46.65q0-6-3.3-9.39t-9.39-3.37a13.13,13.13,0,0,0-5.46,1,10.67,10.67,0,0,0-3.86,2.88,12.08,12.08,0,0,0-2.29,4.22,16.28,16.28,0,0,0-.76,5q0,5.82,3.31,9.16t9.26,3.34a14.12,14.12,0,0,0,5.56-1,10.48,10.48,0,0,0,3.89-2.82,11.77,11.77,0,0,0,2.29-4.15A16.1,16.1,0,0,0,2594.92,2102.37Z" style="fill:#a2c038"/><path d="M2637.71,2064.29q0,3.8-1.43,5.17t-5.3,1.37c-2.53,0-4.27-.44-5.21-1.34s-1.4-2.58-1.4-5.07.48-4.25,1.44-5.17,2.72-1.37,5.3-1.37,4.26.45,5.2,1.34S2637.71,2061.8,2637.71,2064.29Zm-1.24,78.78a1.48,1.48,0,0,1-.26.88,2,2,0,0,1-.85.62,5.55,5.55,0,0,1-1.64.39,21.71,21.71,0,0,1-2.68.13,21.2,21.2,0,0,1-2.62-.13,6.14,6.14,0,0,1-1.67-.39,1.74,1.74,0,0,1-.84-.62,1.54,1.54,0,0,1-.23-.88v-58.89a1.6,1.6,0,0,1,.23-.85,1.72,1.72,0,0,1,.84-.66,7,7,0,0,1,1.67-.39,23.38,23.38,0,0,1,2.62-.13,23.89,23.89,0,0,1,2.68.13,6.26,6.26,0,0,1,1.64.39,2,2,0,0,1,.85.66,1.54,1.54,0,0,1,.26.85Z" style="fill:#a2c038"/><path d="M2706.68,2111.07a4.53,4.53,0,0,1-1.28,3.63,4.43,4.43,0,0,1-2.93,1.08h-38.78a36.27,36.27,0,0,0,1,8.84,17,17,0,0,0,3.28,6.73,14.75,14.75,0,0,0,6,4.32,23.65,23.65,0,0,0,9,1.51,36.7,36.7,0,0,0,7.5-.69,44.33,44.33,0,0,0,5.69-1.54c1.6-.56,2.91-1.08,3.94-1.53a6.45,6.45,0,0,1,2.34-.69,1.53,1.53,0,0,1,.82.23,1.47,1.47,0,0,1,.56.68,4.78,4.78,0,0,1,.29,1.28,16.21,16.21,0,0,1,.1,2q0,.84-.06,1.47c-.05.41-.1.78-.17,1.11a2.71,2.71,0,0,1-.32.88,3.8,3.8,0,0,1-.59.76,9.5,9.5,0,0,1-2.13,1.17,31.45,31.45,0,0,1-4.58,1.61,64.21,64.21,0,0,1-6.51,1.4,47,47,0,0,1-7.88.63,36.52,36.52,0,0,1-12.73-2,23.55,23.55,0,0,1-9.19-6,25.65,25.65,0,0,1-5.63-10,46.55,46.55,0,0,1-1.9-14,44.43,44.43,0,0,1,2-13.64,29,29,0,0,1,5.66-10.27,24.92,24.92,0,0,1,8.94-6.48,29.32,29.32,0,0,1,11.71-2.25,28.38,28.38,0,0,1,11.81,2.22,22.22,22.22,0,0,1,8,6,24.12,24.12,0,0,1,4.62,8.83,38.72,38.72,0,0,1,1.47,10.83Zm-10.86-3.2q.19-8.51-3.79-13.35t-11.82-4.84a15.69,15.69,0,0,0-7,1.5,15.14,15.14,0,0,0-5.07,4,18.4,18.4,0,0,0-3.16,5.79,24.18,24.18,0,0,0-1.25,6.91Z" style="fill:#a2c038"/><path d="M2760.07,2127a18.61,18.61,0,0,1-1.67,8,16.38,16.38,0,0,1-4.74,6,21.56,21.56,0,0,1-7.33,3.66A33.27,33.27,0,0,1,2737,2146a36.3,36.3,0,0,1-11.09-1.74,26.23,26.23,0,0,1-3.83-1.57,11.11,11.11,0,0,1-2.29-1.47,3.73,3.73,0,0,1-1-1.83,12.43,12.43,0,0,1-.33-3.21,13.61,13.61,0,0,1,.13-2.09,7.38,7.38,0,0,1,.33-1.38,1.42,1.42,0,0,1,.55-.75,1.53,1.53,0,0,1,.82-.23,4.7,4.7,0,0,1,2.13.89c.94.58,2.09,1.23,3.47,1.93a31.5,31.5,0,0,0,4.87,1.92,21.6,21.6,0,0,0,6.48.89,19.52,19.52,0,0,0,5-.59A12.07,12.07,0,0,0,2746,2135a7.79,7.79,0,0,0,2.52-2.92,9.2,9.2,0,0,0,.88-4.18,6.78,6.78,0,0,0-1.27-4.19,12.38,12.38,0,0,0-3.37-3,27.91,27.91,0,0,0-4.71-2.32q-2.62-1-5.4-2.13a53.48,53.48,0,0,1-5.43-2.52,20.94,20.94,0,0,1-4.75-3.43,15.82,15.82,0,0,1-3.36-4.85,16,16,0,0,1-1.28-6.73,17,17,0,0,1,1.34-6.65,15.57,15.57,0,0,1,4-5.56,20.28,20.28,0,0,1,6.71-3.83,28.09,28.09,0,0,1,9.39-1.43,28.78,28.78,0,0,1,4.71.39,32.26,32.26,0,0,1,4.25,1,19.7,19.7,0,0,1,3.24,1.28,13.14,13.14,0,0,1,2,1.21,3.73,3.73,0,0,1,.92.91,2.77,2.77,0,0,1,.32.89c.07.32.13.73.2,1.21a12.49,12.49,0,0,1,.1,1.76,15.44,15.44,0,0,1-.1,1.93,4.68,4.68,0,0,1-.33,1.34,1.85,1.85,0,0,1-.55.76,1.26,1.26,0,0,1-.72.23,3.58,3.58,0,0,1-1.7-.72,23.55,23.55,0,0,0-2.88-1.54,31.46,31.46,0,0,0-4.16-1.54,18.91,18.91,0,0,0-5.46-.72,17.18,17.18,0,0,0-4.84.62,9.46,9.46,0,0,0-3.44,1.77,7.56,7.56,0,0,0-2,2.71,8.58,8.58,0,0,0-.68,3.41,6.84,6.84,0,0,0,1.31,4.28,12.27,12.27,0,0,0,3.4,3,28.26,28.26,0,0,0,4.77,2.36l5.47,2.16q2.77,1.11,5.49,2.49a20.19,20.19,0,0,1,4.81,3.33,15,15,0,0,1,3.37,4.71A15.49,15.49,0,0,1,2760.07,2127Z" style="fill:#a2c038"/><g style="clip-path:url(#a)"><path d="M1282.3,1397v34.37c-36.73,269-235.41,421.23-477.16,421.23s-451.66-221.77-451.66-461.23c0-248.62,199.36-465.81,448-465.81,134,0,277.58,34.91,393,192,0,0-41.63,17-81.37,53-62.45-83.26-157.06-140.71-289.54-141.93-206.27-1.89-363.23,165.71-362.38,359.34.93,212.17,165.57,356,351,363.56C956.52,1757.38,1132,1649.3,1169.87,1496l-230.15-.49V1397Z" style="fill:#1a7371"/><path d="M1429.54,2051.76v98.53h-558l538.95-607.84c35.52-43.54,76.76-97.39,76.76-154.68,0-90.51-80.2-165-169.56-165-88.23,0-158.52,60.92-164.24,148h-107.7c17.18-153.53,115-246.54,271.94-246.54,146.65,0,272.68,108.85,272.68,258.94,0,64.16-24.06,128.32-64.16,177.59l-445,491Z" style="fill:#a2c038"/><path d="M1906,1028.59c-32.08-53.85-64.86-81.7-130.17-81.7-68.74,0-146.25,43.19-146.25,118.81,0,67.6,62.67,95.55,116.52,116.17l61.87,24.06c113.17,44.07,270,156,285.77,295.43,24.6,217.63-107.87,365.24-278.18,403.08-136.46,30.33-308.47-30.27-397.41-183.56l68.13-73.8c64.34,126.79,181.42,152.27,244.12,153.28,117.33,1.89,249.79-102.19,251.69-264.93s-142-202.32-216.52-233.26L1706,1277c-98.54-42.39-174.7-86.44-174.7-206.75,5.68-128.68,116.21-224.15,246.83-224.15,101.37,12.2,158.26,56.44,205.24,140.07Z" style="fill:#1e6a56"/></g></svg>