<?xml version="1.0" encoding="UTF-8" standalone="no"?>
<!-- Generator: Adobe Illustrator 26.0.2, SVG Export Plug-In . SVG Version: 6.00 Build 0)  -->

<svg
   version="1.1"
   id="Layer_1"
   x="0px"
   y="0px"
   viewBox="0 0 1600.0001 1100.0001"
   xml:space="preserve"
   sodipodi:docname="logo-worldline.svg"
   width="1600"
   height="1100"
   inkscape:version="1.3.1 (9b9bdc1480, 2023-11-25, custom)"
   xmlns:inkscape="http://www.inkscape.org/namespaces/inkscape"
   xmlns:sodipodi="http://sodipodi.sourceforge.net/DTD/sodipodi-0.dtd"
   xmlns="http://www.w3.org/2000/svg"
   xmlns:svg="http://www.w3.org/2000/svg"><defs
   id="defs14">
	
	
</defs><sodipodi:namedview
   id="namedview14"
   pagecolor="#ffffff"
   bordercolor="#000000"
   borderopacity="0.25"
   inkscape:showpageshadow="2"
   inkscape:pageopacity="0.0"
   inkscape:pagecheckerboard="0"
   inkscape:deskcolor="#d1d1d1"
   inkscape:zoom="0.3537362"
   inkscape:cx="596.48969"
   inkscape:cy="1058.6985"
   inkscape:window-width="1854"
   inkscape:window-height="1131"
   inkscape:window-x="66"
   inkscape:window-y="32"
   inkscape:window-maximized="1"
   inkscape:current-layer="Layer_1" />
<style
   type="text/css"
   id="style1">
	.st0{fill:#46BEAA;}
</style>
<g
   id="g7"
   transform="matrix(3.7623398,0,0,3.7623398,-6227.3911,-261.09104)">
		<path
   class="st0"
   d="m 1735.01,123.38 c -7.15,6.27 -13.85,13.05 -20.04,20.27 29.99,30.12 51.64,76.1 58.92,129.35 h 28.85 c -5.81,-46.92 -21.92,-90.24 -46.77,-124.79 -6.55,-9.11 -13.57,-17.39 -20.96,-24.83 z"
   id="path1" />
		<path
   class="st0"
   d="m 1699.85,163.75 c -5.54,8.42 -10.47,17.28 -14.7,26.53 17.17,21.41 29.81,50.12 35.57,82.72 h 28.96 c -5.47,-35.03 -18.09,-67.31 -36.92,-93.42 -4.1,-5.67 -8.41,-10.95 -12.91,-15.83 z"
   id="path2" />
		<path
   class="st0"
   d="m 1667.18,273 h 29.05 c -4.18,-19.86 -11.47,-38.34 -21.54,-54.34 -4.89,17.27 -7.51,35.5 -7.51,54.34 z"
   id="path3" />
		<path
   class="st0"
   d="m 1982.42,111.57 c -3.76,-2.72 -7.63,-5.3 -11.58,-7.76 -1.8,1.88 -3.59,3.78 -5.34,5.73 -23.12,25.68 -49.32,64.97 -63.19,120.26 -4.25,-22.31 -10.22,-43.86 -17.83,-64.34 15.06,-33.69 33.76,-59.74 50.99,-78.98 -4.64,-1.73 -9.36,-3.29 -14.16,-4.67 -14.8,17.19 -30.35,39.12 -43.79,66.23 -9.68,-22.5 -21.43,-43.51 -35.1,-62.57 -2.23,-3.11 -4.5,-6.12 -6.8,-9.09 -10.58,1.63 -20.88,4.1 -30.84,7.33 23.87,27.63 43.35,62.64 56.69,102.58 -4.91,14.08 -9.17,29.2 -12.49,45.44 -9.4,-42.85 -26.3,-82.18 -49.78,-114.88 -6.01,-8.37 -12.34,-16.16 -18.96,-23.34 -8.87,4.25 -17.38,9.14 -25.47,14.62 37.73,38.2 64.47,97.06 72.03,164.88 h 29.89 c 2.22,-22.99 6.33,-44.05 11.76,-63.26 5.28,20.14 9.04,41.32 11.1,63.26 h 28.87 c 8.53,-74.19 40.12,-124.13 67.27,-154.28 2.23,-2.48 4.48,-4.85 6.73,-7.16 z"
   id="path4" />
		<path
   class="st0"
   d="m 2019.9,146.75 c -2.94,-3.57 -6,-7.04 -9.17,-10.4 -30.66,31.41 -56.29,76.97 -64.3,136.65 h 13.86 c 8.19,-57.93 33.36,-97.3 55.1,-121.42 1.49,-1.66 3,-3.26 4.51,-4.83 z"
   id="path5" />
		<path
   class="st0"
   d="m 1998.5,273 h 13.93 c 6.57,-35.91 21.34,-62.23 35.73,-80.37 -2.05,-4.63 -4.26,-9.16 -6.64,-13.6 -19.97,23.33 -36.3,54.67 -43.02,93.97 z"
   id="path6" />
		<path
   class="st0"
   d="m 2062.48,240.84 c -4.75,9.7 -8.66,20.42 -11.42,32.16 h 14.02 c 0,-10.95 -0.89,-21.69 -2.6,-32.16 z"
   id="path7" />
	</g><g
   id="g13"
   transform="translate(-36.155787,762.49446)">
		<polygon
   class="st0"
   points="882.11,273 882.11,235.28 807.2,235.28 807.2,81.8 764.25,81.8 764.25,273 "
   id="polygon7" />
		<polygon
   class="st0"
   points="1206.78,273 1206.78,259.05 1119.64,259.05 1119.64,81.8 1104.11,81.8 1104.11,273 "
   id="polygon8" />
		<rect
   x="1224.6801"
   y="81.800003"
   class="st0"
   width="15.54"
   height="191.2"
   id="rect8" />
		<polygon
   class="st0"
   points="1575.91,168.22 1491.4,168.22 1491.4,95.75 1582.22,95.75 1582.22,81.8 1475.87,81.8 1475.87,273 1585.38,273 1585.38,259.05 1491.4,259.05 1491.4,181.87 1575.91,181.87 "
   id="polygon9" />
		<polygon
   class="st0"
   points="1282.14,81.8 1282.14,273 1297.6,273 1297.6,95.75 1301.38,95.75 1412.13,273 1439.46,273 1439.46,81.8 1423.97,81.8 1423.97,259.05 1420.81,259.05 1310.07,81.8 "
   id="polygon10" />
		<polygon
   class="st0"
   points="311.2,273 353.1,81.8 308.94,81.8 275.81,235.28 272.6,235.28 241.11,87.04 196.41,87.04 168.26,235.28 164.11,235.28 125.77,81.8 81.8,81.8 128.95,273 194.82,273 218.51,156.55 244.02,273 "
   id="polygon11" />
		<path
   class="st0"
   d="m 1048.69,108.52 c -20.38,-19.93 -47.12,-28.37 -77.79,-28.29 0,0 -70.98,0 -70.98,0 v 193.82 h 70.98 c 17.29,0 32.39,-2.66 45.31,-7.99 24.37,-9.83 42.88,-28.39 51.99,-51.99 5.09,-12.98 6.82,-26.42 6.42,-40.07 -0.04,-24.51 -8.37,-48.11 -25.93,-65.48 z m -22.87,94.29 c -5.43,14.17 -15.48,24.23 -29.73,29.59 -7.16,2.71 -15.28,4.06 -24.36,4.06 H 942.87 V 117.81 h 28.86 c 9.08,0 17.2,1.22 24.36,3.67 14.28,4.83 24.31,14.85 29.73,28.81 5.35,14.83 5.48,37.46 0,52.52 z"
   id="path11" />
		<path
   class="st0"
   d="m 500.32,84.55 c -24.44,-11.36 -64.35,-11.34 -88.66,0 -24.24,10.66 -42.41,30.11 -51.34,54.22 -5.07,13.48 -6.8,27.07 -6.41,40.99 0.34,36.6 22.34,73.49 56.97,89.32 24.57,12.23 65.8,12.22 90.36,0 34.63,-15.82 56.63,-52.72 56.97,-89.32 1.11,-26.16 -7.79,-52.94 -25.93,-72.55 -8.56,-9.43 -19.21,-16.98 -31.96,-22.66 z m -44.14,154.57 c -36.41,0 -57.32,-28.64 -57.32,-61.89 0,-34.48 19.62,-61.89 57.32,-61.89 31.96,0 57.32,22.04 57.32,61.89 0,33.45 -21.33,61.89 -57.32,61.89 z"
   id="path12" />
		<path
   class="st0"
   d="m 723.61,183.81 c 7.12,-9.96 10.1,-24.74 9.55,-39.42 0,-14.14 -3.14,-25.97 -9.43,-35.49 -14.88,-21.96 -40.76,-28.47 -68.36,-28.68 0,0 -75.17,0 -75.17,0 V 273 h 42.96 v -59.2 c 0.85,-0.01 31.62,0.02 32.53,-0.01 L 696.24,273 H 746 l -48.83,-68.46 c 11.34,-4.63 20.16,-11.53 26.44,-20.73 z m -39.1,-20.42 c -5.65,9.88 -15.24,14.58 -26.98,14.54 h -34.37 v -60.11 h 34.37 c 6.28,0 11.7,0.09 16.24,2.62 4.54,2.53 8.12,6.11 10.74,10.74 5.15,8.8 5.33,23.24 0,32.21 z"
   id="path13" />
	</g>
</svg>
