<svg xmlns="http://www.w3.org/2000/svg" width="400" height="150" viewBox="0 0 400 150">
  <path d="M119.8 109.8a31.6 31.6 0 0 0-19.1 1.1c-.3.2-.6.5-.6.9l.1.4c.4 1-.2 2.1-3 2.8-4.4.9-7 5.4-8.7 6.9-1.8 1.7-7 2.8-6.2 1.8.6-.8 3-3.3 4.3-6 1.3-2.4 2.4-3.1 4-5.4.4-.7 2.1-3.1 2.6-5 .6-1.8.4-4.2.6-5.1.3-1.4 1.6-4.4 1.7-6 .1-1-4 1.4-5.9 1.4-1.9 0-3.8-1.1-5.5-1.2-2-.1-3.5 1.6-5.4 1.3-1-.2-2-1.1-3.9-1.2-2.7-.1-6 1.5-12.3 1.3-6-.2-11.8-7.8-12.6-9-.9-1.4-2-1.4-3.2-.3-1.2 1.1-2.7.2-3-.5-.9-1.4-3-5.5-6.4-6.4-4.6-1.2-7 2.6-6.6 5.5.3 3 2.3 3.9 3.2 5.5 1 1.6 1.4 2.6 3.1 3.4 1.2.5 1.7 1.3 1.3 2.2-.3.9-1.6 1.1-2.4 1.1a6 6 0 0 1-3.9-1 9 9 0 0 1-2.8-3.2 5.3 5.3 0 0 0-4.7-2.5c-.9 0-1.8.2-2.6.6-3 1.6-6.6 2.5-10.5 2.5H7a63 63 0 0 0 112.8 14.1z" fill="#fff"/>
  <path d="M129.3 106.4h.6l1 1.4h.5l-.9-1.4c.5-.1.8-.3.8-.9 0-.6-.4-.9-1-.9H129v3.3h.5v-1.5zm0-.4v-1h.7c.3 0 .7.1.7.5 0 .5-.4.5-.8.5zM132.3 116c0 1.8-1.4 3.2-3.2 3.2a3.2 3.2 0 0 1-3.2-3.2c0-1.8 1.4-3.2 3.2-3.2 1.7 0 3.2 1.5 3.2 3.2zm-3.2-2.6a2.6 2.6 0 0 0-2.6 2.6c0 1.4 1.2 2.6 2.6 2.6 1.4 0 2.6-1.2 2.6-2.6 0-1.4-1.2-2.6-2.6-2.6zm-10.1 6.2a31.6 31.6 0 0 0-19.1 1c-.3.3-.6.6-.6 1l.1.4c.4 1-.2 2-3 2.8-4.4.9-7 5.4-8.7 6.9-1.8 1.7-7 2.8-6.2 1.8.6-.8 3-3.3 4.3-6 1.3-2.4 2.4-3.1 4-5.4.4-.7 2.1-3.1 2.6-5 .6-1.8.4-4.2.6-5.1.3-1.4 1.6-4.4 1.7-6 .1-1-4 1.4-5.9 1.4-1.9 0-3.8-1.1-5.5-1.2-2-.1-3.5 1.6-5.4 1.3-1-.2-2-1.1-3.9-1.2-2.7-.1-6 1.5-12.3 1.3-6-.2-11.8-7.8-12.6-9-.9-1.4-2-1.4-3.2-.3-1.2 1-2.7.2-3-.5-.9-1.4-3-5.5-6.4-6.4-4.6-1.2-7 2.6-6.6 5.5.3 3 2.3 3.9 3.2 5.5 1 1.6 1.4 2.7 3.1 3.4 1.2.5 1.7 1.2 1.3 2.2-.3.9-1.6 1-2.4 1a6 6 0 0 1-3.9-1 9 9 0 0 1-2.8-3.1 5.3 5.3 0 0 0-4.7-2.5c-.9 0-1.8.2-2.6.6-3 1.6-6.6 2.5-10.5 2.5H6.2a63.1 63.1 0 1 1 112.8 14zm42.3-30.3c0-5.8 0-10-.4-14h9.5l.4 8.3h.3a12.9 12.9 0 0 1 14.4-9v10.3c-1-.2-2-.3-3.3-.3-5.2 0-8.8 3.3-9.8 8.3-.2 1-.3 2-.3 3.3v22.4h-10.9zm37.4 10.7c.3 7.8 6.4 11.3 13.4 11.3 5 0 8.6-.8 12-2l1.5 7.5a38.5 38.5 0 0 1-15 2.7c-14 0-22.4-8.7-22.4-22 0-11.8 7.2-23.1 21.1-23.1 14.1 0 18.6 11.6 18.6 21 0 2-.2 3.7-.4 4.7zm19-7.7c0-4-1.7-10.5-9-10.5-6.7 0-9.5 6-10 10.5zm46.5 7.6c0 1 0 2.2-.3 3.2a9.8 9.8 0 0 1-9.4 7.8c-6.9 0-10.8-5.8-10.8-13.7 0-8 4-14.2 11-14.2 4.8 0 8.3 3.5 9.3 7.7.2.9.2 2 .2 2.9zm11-41.1l-11-3.1V80h-.2c-1.9-3.2-6.2-5.6-12-5.6-10.5 0-19.5 8.6-19.5 23 0 13.4 8.2 22.2 18.5 22.2 6.2 0 11.5-3 14-7.8h.2l.5 6.8h9.7c-.2-3-.4-7.7-.4-12.1V58.8zM304 74.4c-3.3 0-6.2.9-8.7 2.5a15.2 15.2 0 0 0-5.9 6.2h-.2V62.9l-4.3-1.3v57h4.3V92A14.1 14.1 0 0 1 302.8 78c9 0 12 7 12 14.9v25.7h4.2V92.5c0-16.1-10.9-18.1-15-18.1zm53.4 34c0 3.4.1 7 .6 10.3h-3.8l-.6-6.2h-.2a16.4 16.4 0 0 1-13.8 7.2c-8.7 0-12.8-6.1-12.8-12 0-10 8.8-16 26.4-15.7v-1.2c0-4.3-.8-12.8-11-12.7-3.9 0-7.8 1-11 3.2l-1.4-3.1c4-2.7 8.8-3.7 12.7-3.7 12.5 0 15 9.4 15 17v16.9zm-4.2-13c-9.4-.2-21.9 1.3-21.9 11.6 0 6.2 4.1 9 8.6 9a13 13 0 0 0 12.8-8.7c.3-1 .4-2 .4-2.6v-9.2zm21.3-29.6v9.5h12.3v3.5h-12.3v28c0 5.6 1.7 9 6.4 9 2.2 0 3.8-.3 5-.7l.4 3.3c-1.4.6-3.4 1-6 1-3.2 0-5.8-1-7.5-3.1-2-2.3-2.6-6-2.6-10.3V78.6h-7.3V75h7.3v-8zm17.7 50.5h.6l1 1.4h.5l-.9-1.4c.5-.1.8-.3.8-1 0-.5-.4-.8-1.2-.8h-1.2v3.3h.5v-1.5zm0-.4v-1h.7c.3 0 .7 0 .7.5s-.4.5-.8.5z"/>
  <path d="M396.8 106.3c0 1.8-1.4 3.2-3.2 3.2a3.2 3.2 0 0 1-3.2-3.2c0-1.8 1.4-3.2 3.2-3.2 1.8 0 3.2 1.5 3.2 3.2zm-3.2-2.6a2.6 2.6 0 0 0-2.6 2.6c0 1.4 1.2 2.6 2.6 2.6 1.4 0 2.6-1.2 2.6-2.6 0-1.4-1.2-2.6-2.6-2.6zm-312.9.3c.3.3 1 1.4.2 2.7-.4.7-.8 1.2-1.5 1.8-.9.7-2.6 1.5-5 0-1.3-.8-1.4-1.1-3-.9-1.4.2-1.9-1.1-1.4-2.2s2.3-1.9 4.6-.6c1 .6 2.7 1.9 4.1.8.6-.5 1-.8 1.8-1.7l.1-.1.1.2z"/>
  <path d="M62 42.5c-7.4.5-8 1.3-9.5 2.8-1.9 2.1-4.5-2.7-4.5-2.7-1.5-.3-3.4-2.8-2.4-5.1s2.8-1.6 3.4-.9c.7.9 2.2 2.3 4.1 2.2 2-.1 4.1-.5 7.2-.5 3.1 0 5.2 1.2 5.3 2.2.1.9-.2 1.7-3.7 2zm7.6-12.1a.2.2 0 0 1-.2-.2l.1-.2a19 19 0 0 1 6-1.6l2-.1h.4c4 .1 7.3 1.7 7.2 3.6 0 1.9-3.4 3.4-7.4 3.3-1.3 0-2.5-.2-3.6-.5 0 0-.2-.1-.2-.3l.2-.3c2.5-.6 4.2-1.5 4.1-2.4-.2-1.2-3.5-1.8-7.4-1.5l-1.2.2zm32.8 28.3a9.7 9.7 0 0 1-5.5 6.8c-.6.3-.8-.2-.5-.6 1.5-2.5 1.8-3.2 2.2-4.2.6-1.5 1-3.5-.3-7.9a73 73 0 0 0-10.9-23.7C84 25.5 77.6 24.5 72 26c-2 .5-6.2 2.7-13.8 1-13.2-3-15 3.6-15.9 6.5-.8 2.9-2.6 11-2.6 11-.6 3.3-1.4 9.1 19 13 9.5 1.8 10 4.3 10.4 6 .8 3.2 2 5 3.3 5.9 1.4.9 0 1.7-1.5 1.8-4 .4-19-3.9-27.9-8.9-7.2-4.4-7.4-8.4-5.7-11.8-10.9-1.2-19.2 1-20.7 6.2-2.6 8.9 19.6 24.1 44.7 31.7 26.4 8 53.6 2.4 56.6-14.2 1.7-7.5-4.6-13.1-15.4-15.5z" fill="#c00"/>
</svg>
