<svg xmlns="http://www.w3.org/2000/svg" width="512" height="192"><path fill="#fff" d="M180.4 129.3a31.6 31.6 0 0 0-19.1 1.1c-.3.2-.6.5-.6.9v.4c.5 1-.1 2-3 2.8-4.3.9-7 5.4-8.6 6.9-1.8 1.7-7 2.8-6.2 1.8.6-.8 2.9-3.3 4.3-6 1.3-2.4 2.4-3.1 3.9-5.4.5-.7 2.2-3.1 2.7-5 .6-1.8.4-4.2.6-5.1.3-1.4 1.6-4.4 1.7-6 0-1-4 1.4-6 1.4-1.8 0-3.7-1.1-5.4-1.2-2.1-.1-3.5 1.6-5.4 1.3-1.1-.2-2-1.1-4-1.2-2.6-.1-6 1.5-12.2 1.3-6.1-.2-11.8-7.8-12.6-9-1-1.4-2-1.4-3.2-.3-1.2 1-2.7.2-3.1-.5-.8-1.4-3-5.5-6.3-6.4-4.6-1.2-7 2.6-6.6 5.5.3 3 2.3 3.9 3.2 5.5.9 1.6 1.4 2.6 3 3.4 1.3.5 1.8 1.3 1.4 2.2-.3.9-1.6 1-2.4 1a6 6 0 0 1-4-1 9 9 0 0 1-2.7-3.1A5.3 5.3 0 0 0 85 112c-1 0-1.8.2-2.6.6-3 1.6-6.6 2.5-10.5 2.5h-4.4a63 63 0 0 0 112.8 14z"/><path d="M189.9 125.9h.6l.9 1.4h.6l-1-1.4c.6-.1.9-.3.9-1 0-.5-.4-.8-1.1-.8h-1.2v3.3h.5v-1.5zm0-.4v-1h.7c.3 0 .7 0 .7.5s-.4.5-.8.5z"/><path d="M193.7 125.7c0 1.8-1.4 3.2-3.2 3.2a3.2 3.2 0 0 1-3.2-3.2c0-1.8 1.4-3.2 3.2-3.2 1.7 0 3.2 1.5 3.2 3.2zm-3.2-2.6a2.6 2.6 0 0 0-2.6 2.6c0 1.4 1.2 2.6 2.6 2.6 1.4 0 2.6-1.2 2.6-2.6 0-1.4-1.2-2.6-2.6-2.6zM180.4 129.3a31.6 31.6 0 0 0-19.1 1.1c-.3.2-.6.5-.6.9v.4c.5 1-.1 2-3 2.8-4.3.9-7 5.4-8.6 6.9-1.8 1.7-7 2.8-6.2 1.8.6-.8 2.9-3.3 4.3-6 1.3-2.4 2.4-3.1 3.9-5.4.5-.7 2.2-3.1 2.7-5 .6-1.8.4-4.2.6-5.1.3-1.4 1.6-4.4 1.7-6 0-1-4 1.4-6 1.4-1.8 0-3.7-1.1-5.4-1.2-2.1-.1-3.5 1.6-5.4 1.3-1.1-.2-2-1.1-4-1.2-2.6-.1-6 1.5-12.2 1.3-6.1-.2-11.8-7.8-12.6-9-1-1.4-2-1.4-3.2-.3-1.2 1-2.7.2-3.1-.5-.8-1.4-3-5.5-6.3-6.4-4.6-1.2-7 2.6-6.6 5.5.3 3 2.3 3.9 3.2 5.5.9 1.6 1.4 2.7 3 3.4 1.3.5 1.8 1.2 1.4 2.2-.3.9-1.6 1-2.4 1a6 6 0 0 1-4-1 9 9 0 0 1-2.7-3.1A5.3 5.3 0 0 0 85 112c-1 0-1.8.2-2.6.6-3 1.6-6.6 2.5-10.5 2.5h-4.4a63.1 63.1 0 1 1 112.8 14.1zM222.7 99c0-5.8-.1-10-.4-14h9.5l.4 8.3h.3a12.9 12.9 0 0 1 14.4-9v10.3c-1-.2-2-.3-3.3-.3-5.2 0-8.8 3.3-9.8 8.3-.2 1-.3 2-.3 3.3v22.4h-11zM260 109.7c.4 7.8 6.5 11.3 13.5 11.3 5 0 8.6-.8 11.9-2l1.6 7.5a38.5 38.5 0 0 1-15.1 2.7c-14 0-22.3-8.7-22.3-22 0-11.8 7.2-23.1 21-23.1 14.2 0 18.7 11.6 18.7 21 0 2-.2 3.7-.4 4.7zm19-7.7c0-4-1.6-10.5-9-10.5-6.6 0-9.4 6-10 10.5zM325.6 109.6c0 1-.1 2.2-.3 3.2a9.8 9.8 0 0 1-9.4 7.8c-7 0-10.8-5.8-10.8-13.7 0-8 3.9-14.2 10.9-14.2 4.9 0 8.4 3.5 9.4 7.7.2.9.2 2 .2 2.9zm10.9-41.1l-11-3.1v24.4h-.1c-2-3.2-6.2-5.6-12.1-5.6-10.4 0-19.4 8.6-19.4 23 0 13.4 8.2 22.2 18.5 22.2 6.2 0 11.5-3 14-7.8h.2l.5 6.8h9.7c-.2-3-.4-7.7-.4-12.1V68.5zM365.4 84c-3.3 0-6.2 1-8.7 2.6a15.2 15.2 0 0 0-6 6.2h-.1V72.6l-4.3-1.3v57h4.3v-26.5c0-1.8 0-3 .6-4.3 1.8-5.4 6.9-9.8 13-9.8 8.9 0 11.9 7 11.9 14.9v25.7h4.3v-26.1c0-16.1-11-18.1-15-18.1zM418.8 118c0 3.5 0 7 .6 10.4h-4l-.5-6.2h-.2a16.4 16.4 0 0 1-13.8 7.2c-8.7 0-12.8-6.1-12.8-12 0-10 8.8-16 26.4-15.7v-1.2c0-4.3-.8-12.8-11.1-12.7-3.8 0-7.7 1-11 3.2l-1.3-3.1c4-2.7 8.8-3.7 12.7-3.7 12.5 0 14.9 9.4 14.9 17v16.9zm-4.2-12.8c-9.4-.3-22 1.2-22 11.5 0 6.2 4.2 9 8.7 9A13 13 0 0 0 414 117c.3-1 .4-2 .4-2.6v-9.2zM435.9 75.5V85h12.3v3.5h-12.3v28c0 5.6 1.7 9 6.4 9 2.2 0 3.8-.3 4.9-.7l.5 3.3c-1.4.6-3.4 1-6 1-3.2 0-5.8-1-7.5-3.1-2-2.3-2.6-6-2.6-10.3V88.3h-7.3v-3.5h7.3v-8zM453.6 126h.6l.9 1.4h.6l-1-1.4c.6-.1.9-.3.9-1 0-.5-.4-.8-1.2-.8h-1.2v3.3h.5V126zm0-.4v-1h.7c.3 0 .7 0 .7.5s-.4.5-.8.5z"/><path d="M457.4 125.8c0 1.8-1.4 3.2-3.2 3.2a3.2 3.2 0 0 1-3.2-3.2c0-1.8 1.4-3.2 3.2-3.2 1.8 0 3.2 1.5 3.2 3.2zm-3.2-2.6a2.6 2.6 0 0 0-2.6 2.6c0 1.4 1.2 2.6 2.6 2.6 1.4 0 2.6-1.2 2.6-2.6 0-1.4-1.2-2.6-2.6-2.6zM141.3 123.5c.3.3.9 1.4.2 2.7-.4.7-.8 1.2-1.5 1.8-1 .7-2.6 1.5-5 0-1.3-.8-1.4-1.1-3.1-1-1.3.3-1.8-1-1.3-2.1s2.3-2 4.6-.6c1 .6 2.7 1.9 4 .8l1.9-1.7v-.1c0 .2.2.2.2.2z"/><path fill="#c00" d="M122.5 62c-7.3.5-8 1.3-9.4 2.8-2 2-4.5-2.7-4.5-2.7-1.5-.3-3.4-2.8-2.4-5.1s2.8-1.6 3.4-1c.7 1 2.2 2.4 4 2.3 2-.1 4.2-.5 7.3-.5 3 0 5.2 1.2 5.3 2.2 0 .9-.2 1.7-3.7 2zm7.7-12.1a.2.2 0 0 1-.2-.2v-.2c1.5-.7 3.6-1.3 6-1.6l2-.1h.5c4 0 7.3 1.7 7.2 3.6 0 1.9-3.4 3.4-7.4 3.3-1.3 0-2.5-.2-3.6-.5-.1 0-.2-.1-.2-.3 0-.1 0-.2.2-.3 2.5-.6 4.2-1.5 4-2.4-.1-1.2-3.4-1.8-7.3-1.5l-1.2.2zM163 78.2a9.7 9.7 0 0 1-5.5 6.8c-.6.3-.8-.2-.5-.6 1.5-2.5 1.8-3.2 2.2-4.2.6-1.5.9-3.5-.3-8a73 73 0 0 0-11-23.6c-3.4-3.6-9.7-4.6-15.4-3.1-2.1.5-6.2 2.7-13.8 1-13.2-3-15.1 3.6-16 6.5l-2.5 11c-.6 3.3-1.4 9 19 13 9.5 1.8 10 4.3 10.4 6 .8 3.2 2 5 3.3 5.9 1.4.9 0 1.7-1.5 1.8-4.1.4-19-4-28-9-7.1-4.3-7.3-8.3-5.6-11.7-11-1.2-19.2 1-20.7 6.2-2.6 8.9 19.6 24 44.7 31.7 26.4 8 53.6 2.4 56.6-14.2 1.7-7.5-4.6-13.1-15.4-15.5z"/></svg>