<?xml version="1.0" encoding="utf-8"?>
<!-- Generator: Adobe Illustrator 24.1.3, SVG Export Plug-In . SVG Version: 6.00 Build 0)  -->
<svg version="1.1" id="Layer_1" xmlns="http://www.w3.org/2000/svg" xmlns:xlink="http://www.w3.org/1999/xlink" x="0px" y="0px"
	 viewBox="0 0 372 122" style="enable-background:new 0 0 372 122;" xml:space="preserve">
<style type="text/css">
	.st0{fill-rule:evenodd;clip-rule:evenodd;fill:#000E9C;}
	.st1{fill:#000E9C;}
</style>
<g>
	<g>
		<path class="st0" d="M107.1,39.8c7.9,14.2,6.4,31.8-3.7,44.5H81.9l6.6-11.7h-8.7l10.3-18.1h8.8L107.1,39.8L107.1,39.8z M64.8,84.3
			H42.9c-10.3-12.7-11.8-30.4-3.8-44.6l14.2,24.6l15.6-27.2h23L64.8,84.3L64.8,84.3L64.8,84.3L64.8,84.3z"/>
		<g>
			<path class="st1" d="M125.2,61.4c0-12.6,6.3-18.6,16.6-18.6c10.3,0,16.6,6.1,16.6,18.6c0,12.5-6.3,18.6-16.6,18.6
				C131.4,80,125.2,73.9,125.2,61.4z M128.9,61.4c0,10.4,4.7,15.3,12.8,15.3c8.1,0,12.8-4.9,12.8-15.3c0-10.4-4.7-15.3-12.8-15.3
				C133.6,46.1,128.9,51,128.9,61.4z"/>
			<path class="st1" d="M185.4,44.2c0.2-0.4,0.7-1.2,1.7-1.2c1,0,1.8,0.8,1.8,1.8c0,0.3-0.1,0.6-0.2,0.8l-12.4,32.8
				c-0.3,0.7-1,1.2-1.7,1.2c-0.7,0-1.4-0.5-1.7-1.2l-12.4-32.8c-0.1-0.2-0.2-0.5-0.2-0.8c0-1,0.8-1.8,1.8-1.8s1.5,0.7,1.7,1.2
				l10.8,28.6L185.4,44.2z"/>
			<path class="st1" d="M196.4,62.6v15.3c0,1-0.8,1.8-1.8,1.8s-1.8-0.8-1.8-1.8v-33c0-1,0.8-1.8,1.8-1.8s1.8,0.8,1.8,1.8v14.4h18.5
				V44.9c0-1,0.8-1.8,1.8-1.8s1.8,0.8,1.8,1.8v33c0,1-0.8,1.8-1.8,1.8s-1.8-0.8-1.8-1.8V62.6H196.4z"/>
			<path class="st1" d="M235.5,54.4c4.7,0,7.3,2.5,8.2,3.7c0.3,0.4,0.4,0.6,0.4,1c0,0.9-0.7,1.5-1.5,1.5c-0.5,0-0.9-0.2-1.3-0.6
				c-0.8-0.9-2.2-2.5-5.7-2.5c-4.9,0-7.5,3.1-7.5,9.7c0,6.6,2.6,9.7,7.5,9.7c3.1,0,4.9-1.4,6.2-2.3c0.4-0.3,0.6-0.4,1-0.4
				c0.8,0,1.5,0.7,1.5,1.5c0,0.5-0.2,0.9-0.7,1.3c-1.2,1-3.7,2.9-8,2.9c-6.8,0-10.9-4.1-10.9-12.8S228.7,54.4,235.5,54.4z"/>
			<path class="st1" d="M252.5,43.1v30.3c0,2.1,0.7,3,2.1,3c0.8,0,1.6,0.7,1.6,1.6s-0.7,1.6-1.6,1.6c-3.6,0-5.5-2.1-5.5-6.2V43.1
				c0-0.9,0.8-1.7,1.7-1.7C251.7,41.4,252.5,42.2,252.5,43.1z"/>
			<path class="st1" d="M281.4,67.1c0,8.7-4.2,12.8-11.1,12.8c-6.8,0-11.1-4.1-11.1-12.8s4.3-12.7,11.1-12.7
				C277.2,54.4,281.4,58.4,281.4,67.1z M278,67.1c0-6.7-2.8-9.7-7.7-9.7s-7.7,3-7.7,9.7c0,6.8,2.8,9.7,7.7,9.7S278,73.9,278,67.1z"
				/>
			<path class="st1" d="M289.6,56.4v13.9c0,3.5,1.1,6.4,6.5,6.4c5.4,0,6.5-3,6.5-6.4V56.4c0-1,0.8-1.7,1.8-1.7
				c0.9,0,1.6,0.7,1.6,1.7v13.9c0,5-1.6,9.7-9.9,9.7c-8.2,0-9.9-4.6-9.9-9.7V56.4c0-1,0.7-1.7,1.7-1.7
				C288.8,54.7,289.6,55.4,289.6,56.4z"/>
			<path class="st1" d="M328.6,57.8V43.1c0-1,0.7-1.7,1.7-1.7s1.7,0.7,1.7,1.7v26.3c0,7-4.4,10.5-10.4,10.5
				c-6.8,0-10.9-4.1-10.9-12.8s3.8-12.7,10.7-12.7C324.8,54.4,327.4,56.1,328.6,57.8z M328.6,62.1c0,0-2-4.7-7-4.7
				c-4.8,0-7.5,3.1-7.5,9.7c0,6.6,2.6,9.7,7.5,9.7c4.1,0,7-2.3,7-7.4V62.1z"/>
		</g>
	</g>
</g>
</svg>
