<svg xmlns="http://www.w3.org/2000/svg" xmlns:xlink="http://www.w3.org/1999/xlink" id="Calque_1" x="0" y="0" version="1.1" viewBox="0 0 425.2 425.2" xml:space="preserve" style="enable-background:new 0 0 425.2 425.2"><style type="text/css">.st0{fill:#fd0}.st1{clip-path:url(#SVGID_2_)}.st2{fill:#010202}</style><rect width="307.8" height="307.8" x="58.7" y="62.4" class="st0"/><g><g><path d="M144,170.7c0,5.1-1.6,8.6-5.5,11.3v0.3c4.9,2.1,7.7,6.5,7.7,13.2c0,9.9-8,15.2-18.8,15.2h-22.8c-2.5,0-3.3-0.8-3.3-3.2 v-48c0-2.5,0.8-3.3,3.3-3.3h22.5C137.7,156.2,144,161.4,144,170.7z M124,168.5h-7.4v8.4h7.4c3.1,0,4.7-1.1,4.7-4.1 C128.6,169.8,127,168.5,124,168.5z M125.4,189.3h-8.9v9h8.9c3.3,0,4.9-1.3,4.9-4.5C130.3,190.7,128.7,189.3,125.4,189.3z"/><path d="M196,174.7c0,7.5-3.1,12.9-8.3,15.8c0.8,1,1.5,2.1,2.1,3.3l6.9,13.1c1.1,2.1,0.5,3.8-2,3.8h-8.3c-4.1,0-5.8-1-7-3.7 l-4.9-10.5c-1.3-2.6-2.6-3.9-5.7-3.9h-1.8v14.9c0,2.4-0.8,3.2-3.2,3.2h-8.7c-2.5,0-3.3-0.8-3.3-3.2v-48c0-2.4,0.8-3.2,3.3-3.2 h21.8C188.5,156.3,196,162.9,196,174.7z M175.2,169.7h-8.3v10.1h8.3c3.2,0,5.1-2,5.1-5.1C180.3,171.6,178.5,169.7,175.2,169.7z"/><path d="M248.8,210.7h-8.3c-4,0-5.1-0.8-5.7-3.2l-1.8-5.5h-16.6l-1.8,5.5c-0.8,2.4-1.8,3.2-5.6,3.2h-8c-2.4,0-2.8-1.1-2.1-3.1 l17.6-48.6c0.8-2.2,1.8-2.7,4-2.7h8.7c2.2,0,3.2,0.5,4,2.5l17.7,48.7C251.7,209.6,251,210.7,248.8,210.7z M225,170.2h-0.8 c0,0,0.1,5.5-1.5,10.7l-2.8,9h9.6l-2.8-9C225.2,175.7,225,170.2,225,170.2z"/><path d="M258.2,156.3h9c2.3,0,3.1,0.8,3.1,3.1v48.3c0,2.3-0.8,3.1-3.1,3.1h-9c-2.3,0-3.1-0.8-3.1-3.1v-48.3 C255.1,157,255.9,156.3,258.2,156.3z"/><path d="M324,159.5v48c0,2.4-0.8,3.2-3.2,3.2h-8.7c-1.6,0-2.5-0.5-3.1-1.5L297.2,191c-3.4-5.3-4.7-8.9-6.7-15.8h-0.6 c1.6,7.4,2.5,11.3,2.5,19.8v12.5c0,2.4-0.8,3.2-3.3,3.2h-7.7c-2.5,0-3.3-0.8-3.3-3.2v-48c0-2.4,0.8-3.2,3.3-3.2h9 c1.8,0,2.5,0.5,3.2,1.5l12.6,19.6c3.4,5.3,4,8.2,6.4,14h0.6c-2.5-7.9-3.4-11.6-3.4-19.4v-12.6c0-2.4,0.8-3.2,3.2-3.2h7.8 C323.1,156.3,324,157.1,324,159.5z"/></g><path d="M127.6,211.6c13.6,0,22.1,5.4,25.8,15.1c0.9,2.5,0.3,3.8-2.4,4.7l-9.4,3.3c-2.7,0.8-3.8,0.3-4.8-2.3 c-1.6-3.9-4.2-5.6-9.2-5.6c-7,0-9.7,2.9-9.7,9v15.7c0,6.1,2.7,9,9.7,9c4.9,0,7.8-1.9,9.2-5.6c1.1-2.7,2.1-3.3,4.8-2.3l9.4,3.3 c2.6,0.9,3.3,2.2,2.4,4.7c-3.7,9.7-12.2,15.1-25.8,15.1c-17.4,0-27.2-9.3-27.2-24.2v-15.6C100.4,220.8,110.2,211.6,127.6,211.6z"/><path d="M185.6,260.4c6.1,0,9.2-2.9,9.2-8.1v-36.7c0-2.7,0.9-3.7,3.7-3.7h10c2.8,0,3.8,1,3.8,3.7v35.9c0,14.8-9.2,24.4-26.7,24.4 c-17.4,0-26.6-9.5-26.6-24.4v-35.9c0-2.7,0.9-3.7,3.7-3.7h10c2.8,0,3.8,1,3.8,3.7v36.7C176.5,257.5,179.5,260.4,185.6,260.4z"/><path d="M269.7,228.5c0,5.9-1.9,9.9-6.4,13v0.4c5.7,2.5,8.9,7.5,8.9,15.2c0,11.4-9.3,17.5-21.7,17.5h-26.2c-2.8,0-3.8-1-3.8-3.7 v-55.3c0-2.8,1-3.8,3.8-3.8h25.9C262.4,211.7,269.7,217.7,269.7,228.5z M246.6,225.9H238v9.7h8.6c3.5,0,5.4-1.3,5.4-4.8 C252,227.4,250.1,225.9,246.6,225.9z M248.3,249.9H238v10.3h10.2c3.8,0,5.7-1.5,5.7-5.2C253.9,251.5,252.1,249.9,248.3,249.9z"/><path d="M323.2,215.5v7.9c0,2.8-1,3.8-3.8,3.8h-23.3v7.9h18.6c2.8,0,3.8,1,3.8,3.7v7.9c0,2.8-1,3.8-3.8,3.8h-18.6v8.5h24.1 c2.7,0,3.7,0.9,3.7,3.7v8c0,2.7-1,3.7-3.7,3.7h-37.8c-2.8,0-3.8-1-3.8-3.7v-55.3c0-2.7,1-3.7,3.8-3.7h37 C322.3,211.8,323.2,212.8,323.2,215.5z"/><g><defs><rect id="SVGID_1_" width="16.6" height="26.3" x="321" y="197.1"/></defs><clipPath id="SVGID_2_"><use xlink:href="#SVGID_1_" style="overflow:visible"/></clipPath><g class="st1"><path d="M329.5,205.3c3.7,0,6.7,3,6.7,6.7c0,3.7-3,6.7-6.7,6.7c-3.7,0-6.7-3-6.7-6.7 C322.7,208.4,325.8,205.3,329.5,205.3z M329.5,218c3.2,0,5.9-2.7,5.9-5.9c0-3.2-2.7-5.9-5.9-5.9c-3.3,0-5.9,2.7-5.9,5.9 C323.6,215.3,326.2,218,329.5,218z M332.6,210.8c0,1.2-0.6,1.9-1.7,2.1l1.4,2.4c0.1,0.2,0.1,0.3-0.1,0.3h-0.3 c-0.2,0-0.3,0-0.4-0.2l-1.4-2.4h-2.6v2.4c0,0.1,0,0.2-0.2,0.2h-0.4c-0.1,0-0.2-0.1-0.2-0.2v-6.6c0-0.2,0.1-0.3,0.3-0.3h3.2 C331.7,208.5,332.6,209.3,332.6,210.8z M331.8,210.8c0-1-0.6-1.5-1.6-1.5h-2.7v3h2.7C331.2,212.2,331.8,211.8,331.8,210.8z" class="st2"/></g></g></g><g><defs><rect id="SVGID_3_" width="16.6" height="26.3" x="316" y="196.1"/></defs><clipPath id="SVGID_4_"><use xlink:href="#SVGID_3_" style="overflow:visible"/></clipPath></g></svg>