<svg id="Layer_1" data-name="Layer 1" xmlns="http://www.w3.org/2000/svg" viewBox="0 0 58.55 20.52"><defs><style>.cls-1{fill:#fff;}</style></defs><title>Bonita_Logo</title><path class="cls-1" d="M374.48,303.09c.35-3.32-1.1-4.54-4.34-4.54h-5.58l-.81,7.67-.79,7.49c-.19,1.82.22,4.4,4.38,4.4h.88c4,0,5.43-2.61,5.77-5.85.26-2.45-.32-4.18-2.45-4.57v0C373.78,306.91,374.27,305.13,374.48,303.09Zm-3.79,9c-.25,2.36-.56,3.35-2.38,3.35h-.61c-1.36,0-1.49-.86-1.43-1.45l.27-2.57.28-2.66h2.31C370.83,308.74,370.86,310.42,370.69,312.06Zm.63-8.35c-.16,1.55-.49,2.89-2.29,2.89h-2l.59-5.6h2.2C371.23,301,371.5,302,371.31,303.71Zm39.61-1.29-.42,2.13h-1.33l-1,9.11c-.09.89-.22,2.07,1.07,2.26v2.16a7.07,7.07,0,0,1-1.52-.18c-2.57-.61-2.83-2.68-2.67-4.21l1.46-13.87,3.15-.32-.3,2.91Zm-29.25-.21c-4.16,0-5.11,2.57-5.3,4.39l-.75,7.1c-.19,1.82.22,4.39,4.38,4.39s5.11-2.57,5.3-4.39l.75-7.1C386.24,304.78,385.84,302.21,381.67,302.21Zm1.26,4.43-.74,7c-.1,1-.24,2.3-2,2.3s-1.58-1.33-1.48-2.3l.74-7c.1-1,.24-2.3,2-2.3S383,305.67,382.93,306.64Zm18.23-9.06h3.12L404,300.1H400.9ZM399,317.91h3.12l1.63-15.49h-3.12Zm-1-12.39-1.3,12.39h-3.12l1.07-10.23c.11-1,.28-2.7-1.44-2.7s-1.94,2-2,2.71l-1.07,10.22h-3.12l1.63-15.5s5-.19,6.47-.19A2.82,2.82,0,0,1,398.08,305.52Zm19.13-3.31c-2.51,0-4.69,1.2-5.06,4.72l0,.27H415l.07-.7c.14-1.29.8-2.16,1.9-2.16s1.59.77,1.46,2l0,.37a2,2,0,0,1-1.64,1.94l-2,.61c-2.37.74-3.5,1.6-3.8,4.47-.21,2,.37,4.32,2.68,4.32,1.38,0,6.56-.19,6.56-.19l1.16-11C421.71,304.14,421.16,302.21,417.2,302.21Zm.52,11.34a2.54,2.54,0,0,1-2.41,2.47c-.94,0-1.21-1-1.08-2.23l0-.44a2.64,2.64,0,0,1,2.25-2.59c.44-.12,1.54-.49,1.54-.49Z" transform="translate(-362.93 -297.58)"/></svg>