<svg xmlns="http://www.w3.org/2000/svg" viewBox="0 0 220 50">
  <g>
    <path d="M26.147 23.879q0 4.682-1.302 6.243-1.277 1.526-5.083 1.526l-3.958.102-3.218-.068q-5.133 0-6.614-1.764-1.456-1.798-1.456-5.564l-.153-4.75q0-5.565 1.226-8.143 1.225-2.613 5.005-2.613l4.852-.17q2.12 0 3.5.068 1.378.034 3.345.306 1.966.271 2.809 2.307.843 2.002.843 5.497h-5.031q0-1.561-.588-2.07-.562-.543-1.813-.543l-1.456-.034h-1.43l-2.63.034q-2.35 0-2.886 1.154-.51 1.153-.51 4.784 0 3.732.612 4.851.613 1.12 3.269 1.12l2.018.068 2.655-.034q1.558 0 2.222-.577.664-.577.664-2.714h5.082z"  fill="#2e1d66"/>
    <path d="M39.684 8.673l4.137.034q4.546 0 6.206 2.001 1.685 2.002 1.685 8.008V19.8q0 7.057-1.328 9.466-1.328 2.375-6.716 2.375l-3.908.102-1.634.034-3.525-.17q-2.962 0-4.57-1.764-1.61-1.798-1.61-5.768l-.05-4.173q0-6.888 1.327-8.991 1.328-2.138 6.308-2.138zm-2.81 17.473l2.784.068 2.656-.034q2.196 0 3.141-.61.97-.645.97-3.122l.052-3.054q0-1.56-.153-2.646-.128-1.12-.562-1.629-.434-.543-1.303-.712-.842-.17-1.813-.17l-5.159.034q-1.762 0-2.681.475-.92.475-1.073 2.036-.128 1.526-.128 2.544V20.853q0 3.122.537 4.207.562 1.086 2.732 1.086z"  fill="#2e1d66"/>
    <path d="M57.987 24.704q0 1.391.69 1.764.715.34 1.966.34l2.452.034 3.473-.136q1.43 0 1.865-.475.434-.475.434-1.493 0-.916-.51-1.459-.486-.543-1.89-.543h-.844l-8.53-.237q-2.4 0-3.396-1.595-.97-1.629-.97-4.954 0-2.816.612-4.377.639-1.56 2.273-2.103 1.66-.577 4.316-.679 2.682-.101 3.601-.101l3.627.067q2.17 0 3.499.475 1.328.442 1.864 1.663.562 1.221.715 2.205.153.984.153 2.715h-5.082q0-1.188-.536-1.663-.511-.475-1.456-.475l-2.503-.034-3.958.17q-.792 0-1.354.407-.536.373-.536 1.29 0 1.255.638 1.662.664.373 1.788.373h.536l3.474.068 3.422.034q3.294 0 4.775 1.39 1.507 1.358 1.507 5.497 0 4.004-1.353 5.497-1.328 1.493-4.418 1.493l-6.64.237-3.474-.101q-2.758 0-4.06-1.188-1.303-1.188-1.303-4.784v-1.357h5.108zM83.077 24.704q0 1.391.69 1.764.715.34 1.966.34l2.452.034 3.473-.136q1.43 0 1.864-.475.434-.475.434-1.493 0-.916-.51-1.459-.486-.543-1.89-.543h-.843l-8.53-.237q-2.4 0-3.396-1.595-.97-1.629-.97-4.954 0-2.816.612-4.377.638-1.56 2.273-2.103 1.66-.577 4.316-.679 2.681-.101 3.6-.101l3.627.067q2.171 0 3.5.475 1.327.442 1.863 1.663.562 1.221.715 2.205.154.984.154 2.715h-5.082q0-1.188-.537-1.663-.51-.475-1.455-.475l-2.503-.034-3.959.17q-.791 0-1.353.407-.537.373-.537 1.29 0 1.255.639 1.662.664.373 1.788.373h.536l3.473.068 3.422.034q3.295 0 4.776 1.39 1.507 1.358 1.507 5.497 0 4.004-1.354 5.497-1.328 1.493-4.418 1.493l-6.64.237-3.473-.101q-2.758 0-4.06-1.188-1.303-1.188-1.303-4.784v-1.357h5.107zM103.263 31.558V8.928h5.184v22.63zM129.847 25.892v5.666H112.89V8.928h5.184v16.964z"/>
    <path d="M150.73 8.927l-9.578 14.76v7.87h-5.21v-7.87l-9.73-14.76h6.538l5.772 9.33 5.72-9.33z"  fill="#2e1d66"/>
    <path d="M156.675 24.704q0 1.391.69 1.764.715.34 1.966.34l2.452.034 3.473-.136q1.43 0 1.864-.475.434-.475.434-1.493 0-.916-.51-1.459-.486-.543-1.89-.543h-.843l-8.53-.237q-2.4 0-3.396-1.595-.97-1.629-.97-4.954 0-2.816.612-4.377.638-1.56 2.273-2.103 1.66-.577 4.316-.679 2.681-.101 3.6-.101l3.627.067q2.171 0 3.5.475 1.327.442 1.863 1.663.562 1.221.715 2.205.154.984.154 2.715h-5.082q0-1.188-.537-1.663-.51-.475-1.455-.475l-2.503-.034-3.959.17q-.791 0-1.353.407-.537.373-.537 1.29 0 1.255.639 1.662.664.373 1.788.373h.536l3.473.068 3.422.034q3.295 0 4.776 1.39 1.507 1.358 1.507 5.497 0 4.004-1.354 5.497-1.328 1.493-4.418 1.493l-6.64.237-3.473-.101q-2.758 0-4.06-1.188-1.303-1.188-1.303-4.784v-1.357h5.107z" fill="#2e1d66"/>
    <path d="M175.612 31.575v-5.768q0-3.054.843-4.479.868-1.459 3.116-1.866l8.938-.95q1.2-.17 1.711-.61.536-.442.536-1.697l-.025-.475q0-1.323-.485-1.764-.46-.475-1.865-.475h-2.656l-3.013.067q-.715 0-1.251.238-.511.203-.767.678-.255.476-.332.917-.05.44-.05 1.017v.78h-4.7l-.025-1.594q0-4.445 1.353-5.53 1.354-1.086 4.93-1.086l5.72-.136 2.86.068q2.86 0 3.984 1.493 1.15 1.459 1.15 5.259 0 4.309-1.099 5.972-1.098 1.628-4.29 1.628l-4.214.373-3.576.34q-1.021 0-1.583.339-.536.34-.536 1.696v.984h15.297v4.58z"  fill="#c30018"/>
    <path d="M209.367 31.798V14.494l-6.18 5.632-2.299-4.614 7.279-6.345h6.282v22.63z"  fill="#c30018"/>
    <path d="M11.052 40.155h-.574q-.033-.347-.155-.449-.123-.11-.476-.153-.09-.008-.188-.008l-.189-.017q-.188-.008-.376-.008h-.377q-.27 0-.541.008-.27.008-.533.051-.254.034-.45.144-.189.102-.189.399 0 .39.197.492.205.101.533.101l.99.017h1.074q.631.009 1.016.22.385.213.385.942 0 .806-.418.975-.417.162-.991.187h-.131l-.115.017h-.27q-.131.008-.262.008-.14.008-.27.008h-.525q-.131 0-.27-.008-.205-.008-.41-.025-.197-.017-.36-.043-.492-.11-.664-.381-.172-.28-.172-.764v-.042q0-.025.008-.05v-.035-.05l.582-.009q.008.034.008.06v.042q0 .424.172.568.18.144.565.187.254.008.5.025.254.008.508.008.336 0 .664-.008.327-.008.655-.042.27-.043.426-.144.156-.102.156-.39 0-.45-.221-.586-.214-.144-.623-.144l-1.04-.017h-.992q-.574.008-.95-.178-.37-.186-.37-.873 0-.628.345-.865.352-.246.893-.28l.27-.017.279-.017q.131-.008.27-.008.14-.008.27-.008h.312q.156 0 .311.008.148 0 .304.008.155.008.31.025.59.043.828.289.246.237.27.84z"  fill="#77797a" />
    <path d="M14.859 41.07q0-.815.23-1.358.229-.55 1.122-.67.139-.017.278-.025l.295-.017q.14-.008.279-.008h.286q1.156 0 1.86.263.705.263.705 1.704 0 1.51-.606 1.815-.599.305-1.967.305-1.163 0-1.827-.288-.655-.288-.655-1.713zm.614-.043q0 1.009.377 1.28.385.263 1.278.263h.05q.032 0 .065-.008h.278q.082-.008.173-.008.688-.025 1.147-.195.467-.178.467-1.136v-.102-.102q-.009-.5-.156-.933-.14-.432-.721-.517-.328-.043-.664-.043-.327-.008-.663-.008-.86 0-1.246.238-.385.229-.385 1.28z"  fill="#77797a" />
    <path d="M23.773 37.426h.573v5.708h-.573v-5.708z" fill="#77797a" />
    <path d="M32.843 43.063h-.573v-.772q-.18.483-.582.645-.393.152-.836.178-.09.008-.18.008h-.18-.008q-.844 0-1.557-.23-.705-.228-.705-1.34V39.078h.574v2.18q0 .949.401 1.152.41.195 1.213.195.754 0 1.303-.186.557-.195.557-1.153v-2.188h.573v3.985z"  fill="#77797a" />
    <path d="M48.321 41.089q0-.814.23-1.357.229-.551 1.122-.67.14-.017.279-.026l.294-.017q.14-.008.279-.008h.287q1.155 0 1.86.263.704.263.704 1.705 0 1.51-.606 1.814-.598.306-1.966.306-1.164 0-1.827-.289-.656-.288-.656-1.713zm.615-.043q0 1.01.376 1.28.386.264 1.279.264h.049q.033 0 .065-.009h.279q.082-.008.172-.008.688-.025 1.147-.195.467-.178.467-1.136v-.102-.102q-.008-.5-.156-.932-.139-.433-.72-.518-.328-.042-.664-.042-.328-.008-.664-.008-.86 0-1.245.237-.385.23-.385 1.28z"  fill="#77797a" />
    <path d="M37.724 39.124h2.663v.509h-2.663v1.917q0 .678.221.89.23.212.869.212.483 0 .81-.119.337-.127.337-.72v-.11-.12q-.008-.05-.008-.101v-.119l.532-.008q0 1.009-.23 1.416-.229.399-1.376.399-.745 0-1.237-.195-.492-.204-.492-1.137v-2.205h-.934v-.508h.934v-.9h.574v.9z"  fill="#77797a" />
    <path d="M44.033 39.127h.574v3.986h-.574v-3.986zm0-1.721h.574v.746h-.574v-.746z"  fill="#77797a" />
    <path d="M57.413 39.148h.573v.822q.197-.585.656-.72.467-.145.991-.153h.164l.074-.008.286.017q.148 0 .304.008.31.017.606.102.303.084.54.28.296.237.353.568.065.322.065.678v2.392h-.573v-2.34q0-.815-.459-.993-.45-.178-1.122-.178h-.131q-.656 0-1.205.195-.549.186-.549 1.077v2.239h-.573v-3.986z"  fill="#77797a" />
    <path d="M70.414 40.216h-.574q-.032-.348-.155-.45-.123-.11-.476-.152-.09-.008-.188-.008l-.188-.017q-.189-.009-.377-.009h-.377q-.27 0-.54.009-.271.008-.533.05-.254.034-.451.145-.189.101-.189.398 0 .39.197.492.205.102.533.102l.991.017h1.073q.631.008 1.016.22t.385.942q0 .805-.418.975-.417.16-.99.186h-.132l-.115.017h-.27q-.131.008-.262.008-.14.009-.27.009h-.525q-.131 0-.27-.009-.205-.008-.41-.025-.197-.017-.36-.042-.492-.11-.664-.382-.172-.28-.172-.763v-.043q0-.025.008-.05v-.034-.051l.582-.008q.008.033.008.059v.042q0 .424.172.569.18.144.565.186.254.008.5.026.254.008.508.008.336 0 .664-.008.327-.009.655-.043.27-.042.426-.144.156-.102.156-.39 0-.45-.221-.585-.213-.144-.623-.144l-1.04-.017h-.992q-.574.008-.95-.178-.37-.187-.37-.874 0-.627.345-.865.352-.246.893-.28l.27-.017.279-.017q.131-.008.27-.008.14-.008.27-.008h.312q.156 0 .311.008.148 0 .304.008.155.008.31.026.59.042.828.288.246.237.27.84z"  fill="#77797a" />
    <path d="M84.641 37.383h.574v5.708h-.574v-.611q-.156.39-.483.517-.328.127-.68.153-.09.008-.18.008H82.863q-.066-.008-.132-.008h-.131q-1.18 0-1.778-.288-.59-.297-.59-1.705 0-1.255.443-1.67.442-.425 1.614-.425l.45-.008q.131.008.279.008.155 0 .311.009.221.017.426.042.213.025.353.085.188.085.31.229.132.144.222.33v-2.374zm-3.793 3.783q0 .72.204 1.068.205.34.95.373l.181.017h.189q.09.008.18.008h.18q.95 0 1.426-.203.475-.212.475-1.306 0-.585-.148-.975-.139-.39-.786-.492-.279-.043-.557-.051-.279-.017-.566-.017-.942 0-1.335.22t-.393 1.366z" fill="#77797a" />
    <path d="M93.597 41.18h-4.334q.017.5.14.874.13.364.671.483.148.034.303.05.164.018.32.018.123.008.238.008h.237l.312-.008q.09.008.18.008t.18-.008q.213-.008.418-.034.205-.034.352-.102.189-.093.27-.229.09-.144.107-.356l.606-.008q-.008.712-.491.958-.475.238-1.057.28-.164.008-.328.008-.156.008-.311.008-1.196 0-1.958-.246-.762-.254-.762-1.789 0-1.255.467-1.662.475-.407 1.638-.407H91q.05.008.09.008h.099q.032 0 .065.008h.074q1.073.043 1.671.314.607.263.607 1.628v.101q-.009.026-.009.052v.05zm-.59-.509q0-.034-.008-.076v-.093q-.008-.17-.057-.34-.05-.17-.188-.296-.14-.144-.377-.204-.23-.068-.476-.085-.122-.008-.245-.008-.115-.008-.23-.008l-.45-.008-.263.017q-.13 0-.27.008-.254.017-.5.085-.237.06-.393.195-.131.11-.188.271-.05.161-.066.331l-.016.11v.11l3.728-.008z"  fill="#77797a" />
    <path d="M111.503 39.025h.573v3.986h-.573v-3.986zm0-1.722h.573v.747h-.573v-.747z"  fill="#77797a" />
    <path d="M132.68 41.089q0-.814.23-1.357.23-.551 1.122-.67.14-.017.28-.026l.294-.017q.14-.008.279-.008h.286q1.156 0 1.86.263.705.263.705 1.705 0 1.51-.607 1.814-.598.306-1.966.306-1.163 0-1.827-.289-.655-.288-.655-1.713zm.615-.043q0 1.01.377 1.28.385.264 1.278.264h.05q.032 0 .065-.009h.278q.082-.008.172-.008.689-.025 1.147-.195.467-.178.467-1.136v-.102-.102q-.007-.5-.155-.932-.14-.433-.721-.518-.328-.042-.664-.042-.328-.008-.664-.008-.86 0-1.245.237-.385.23-.385 1.28z"  fill="#77797a" />
    <path d="M157.556 41.136q0-.814.23-1.357.229-.551 1.122-.67.14-.017.279-.025l.295-.017q.139-.008.278-.008h.287q1.155 0 1.86.262.704.263.704 1.705 0 1.51-.606 1.815-.598.305-1.966.305-1.164 0-1.827-.288-.656-.289-.656-1.713zm.615-.043q0 1.01.377 1.281.385.263 1.278.263h.049q.033 0 .065-.008h.279q.082-.008.172-.008.688-.026 1.147-.195.467-.179.467-1.137v-.102-.101q-.008-.5-.156-.933-.139-.433-.72-.517-.328-.043-.664-.043-.328-.008-.664-.008-.86 0-1.245.237-.385.23-.385 1.281z"  fill="#77797a" />
    <path d="M141.607 38.982h.573v.637q.213-.458.59-.569.385-.11.836-.11l.606-.008q1.205.008 1.786.33.59.314.59 1.714 0 .975-.311 1.484-.303.509-1.352.55-.18.018-.36.018h-.344l-.828-.008q-.41 0-.737-.127-.328-.136-.476-.577v2.374h-.573v-5.707zm.582 2.01q0 1.111.442 1.306.442.187 1.254.204H143.958q.033 0 .066.008h.188q.967 0 1.36-.212.402-.22.402-1.29 0-1.135-.377-1.339-.377-.203-1.393-.203l-.197-.009q-.098.009-.196.009t-.205.008q-.18 0-.352.017t-.303.05q-.55.128-.656.543-.106.416-.106.916z"  fill="#77797a" />
    <path d="M129.226 41.148h-4.335q.017.5.14.873.13.365.672.484.147.034.303.05.164.018.32.018.122.008.237.008h.237l.312-.008q.09.008.18.008t.18-.008q.213-.008.418-.034.205-.034.352-.102.189-.093.27-.229.09-.144.107-.356l.607-.008q-.008.712-.492.958-.475.237-1.057.28-.164.008-.328.008-.155.008-.311.008-1.196 0-1.958-.246-.762-.254-.762-1.79 0-1.254.467-1.661.475-.407 1.639-.407H126.628q.05.008.09.008h.099q.033 0 .065.008h.074q1.073.042 1.672.314.606.263.606 1.628V41.054q-.008.025-.008.05v.051zm-.59-.509q0-.034-.008-.076v-.093q-.008-.17-.057-.34-.05-.17-.189-.296-.14-.145-.377-.204-.23-.068-.475-.085-.123-.008-.246-.008-.115-.008-.23-.008l-.45-.008-.262.017q-.131 0-.27.008-.254.017-.5.085-.238.06-.393.195-.132.11-.189.271-.049.161-.065.33l-.017.111v.11l3.728-.008zm-2.99-2.34l2.056-.704.213.704-2.147.364-.123-.364z"  fill="#77797a" />
    <path d="M120.206 37.261h.573v5.707h-.573v-.61q-.156.39-.483.517-.328.127-.68.153-.09.008-.18.008H118.427q-.066-.008-.131-.008h-.131q-1.18 0-1.778-.289-.59-.297-.59-1.704 0-1.255.442-1.67.443-.425 1.614-.425l.451-.008q.131.008.279.008.155 0 .311.008.221.017.426.043.213.025.352.085.189.084.312.228.13.145.22.331v-2.374zm-3.793 3.782q0 .721.204 1.069.205.339.95.373l.181.017h.188q.09.008.18.008h.18q.951 0 1.427-.204.475-.212.475-1.306 0-.585-.148-.975-.139-.39-.786-.492-.279-.042-.557-.05-.279-.017-.566-.017-.942 0-1.335.22t-.393 1.365z"  fill="#77797a" />
    <path d="M105.35 42.54l1.966-3.51h.648l-2.237 3.985h-.754l-2.196-3.985h.648l1.925 3.51z"  fill="#77797a" />
    <path d="M201.59 41.16q0-.815.23-1.357.23-.552 1.122-.67.14-.017.279-.026l.295-.017q.14-.008.278-.008h.287q1.155 0 1.86.263.705.263.705 1.705 0 1.509-.607 1.814-.598.306-1.966.306-1.163 0-1.827-.289-.656-.288-.656-1.713zm.615-.043q0 1.01.377 1.28.385.263 1.278.263h.049q.033 0 .066-.008h.278q.082-.008.172-.008.688-.025 1.147-.195.467-.178.467-1.136v-.102-.102q-.008-.5-.155-.933-.14-.432-.721-.517-.328-.042-.664-.042-.328-.008-.664-.008-.86 0-1.245.237-.385.229-.385 1.28z"  fill="#77797a" />
    <path d="M185.794 41.544h.599q-.017.924-.525 1.187-.5.254-1.278.28-.156.008-.32.008h-.319q-1.114 0-1.761-.331-.648-.33-.648-1.67v-.28l.017-.306q.024-.212.065-.407.05-.203.14-.356.237-.39.622-.543.385-.152.803-.186.107-.008.213-.008.107-.009.213-.009h.18q.041.009.082.009H184.107q.073 0 .147.008h.131q.738.017 1.344.237.606.212.606 1.204l-.598-.008q-.008-.237-.082-.432-.074-.195-.295-.314-.123-.068-.32-.102-.196-.034-.4-.05-.156-.009-.312-.009-.148-.008-.27-.008l-.099-.008q-.13.008-.287.008-.155 0-.32.017-.18.008-.36.042-.172.026-.31.085-.157.068-.271.195-.115.127-.164.297-.041.127-.057.263-.017.136-.025.271-.008.102-.008.204v.195q0 .492.115.899.123.398.696.492.295.05.59.068.295.017.59.017h.197q.098 0 .204-.009.148-.008.295-.025.148-.017.295-.05.344-.086.492-.298.156-.22.164-.568z" fill="#77797a" />
    <path d="M178.126 41.195h-4.334q.017.5.14.874.13.364.671.483.148.034.303.05.164.018.32.018.123.008.237.008h.238l.311-.008q.09.008.18.008t.18-.008q.214-.008.419-.034.205-.034.352-.102.189-.093.27-.229.09-.144.107-.356l.606-.008q-.008.712-.491.958-.476.238-1.057.28-.164.008-.328.008-.156.008-.311.008-1.197 0-1.958-.246-.762-.254-.762-1.789 0-1.255.467-1.662.475-.407 1.638-.407H175.53q.05.008.09.008h.098q.033 0 .066.008h.074q1.073.043 1.671.314.606.263.606 1.628v.101q-.007.026-.007.052v.05zm-.59-.509q0-.033-.008-.076v-.093q-.007-.17-.057-.34-.049-.169-.188-.296-.14-.144-.377-.204-.23-.068-.475-.085-.123-.008-.246-.008-.115-.008-.23-.008l-.45-.008-.262.017q-.131 0-.27.008-.255.017-.5.085-.238.06-.394.195-.13.11-.188.271-.05.162-.066.331l-.016.11v.11l3.728-.008z" fill="#77797a" />
    <path d="M150.183 39.015h.574v.703q.14-.432.5-.576.36-.153.753-.17.074-.008.14-.008h.139q.967 0 1.467.238.508.237.508 1.39v.094q-.008.025-.008.05v.043l-.566-.008q0-.721-.22-1-.214-.28-.968-.28l-.196-.009q-.746.008-1.147.229-.402.212-.402 1.069V43h-.573v-3.985z"  fill="#77797a" />
    <path d="M167.44 39.11h2.663v.51h-2.663v1.916q0 .679.222.89.229.213.868.213.483 0 .811-.119.336-.127.336-.72v-.111-.119q-.008-.05-.008-.102v-.118l.533-.008q0 1.009-.23 1.416-.229.398-1.376.398-.746 0-1.237-.195-.492-.203-.492-1.136V39.62h-.934v-.509h.934v-.899h.574v.9z" fill="#77797a" />
    <path d="M190.961 39.08h2.663v.509h-2.663v1.916q0 .679.221.89.23.213.869.213.483 0 .81-.119.337-.127.337-.72v-.111-.119q-.008-.05-.008-.101v-.12l.532-.007q0 1.009-.229 1.416-.23.398-1.376.398-.746 0-1.238-.195-.491-.203-.491-1.136v-2.205h-.934v-.509h.934v-.899h.573v.9z" fill="#77797a" />
    <path d="M197.184 39.127h.574v3.986h-.574v-3.986zm0-1.721h.574v.746h-.574v-.746z"  fill="#77797a" />
    <path d="M210.556 39.096h.574v.822q.196-.585.655-.72.467-.145.991-.153h.164l.074-.008.287.017q.147 0 .303.008.311.017.606.102.303.084.54.28.296.237.353.568.066.322.066.678v2.391h-.574v-2.34q0-.814-.459-.992-.45-.178-1.122-.178h-.131q-.656 0-1.204.195-.55.186-.55 1.077v2.238h-.573v-3.985z" fill="#77797a" />
  </g>
</svg>

