<svg xmlns="http://www.w3.org/2000/svg" width="500.7" height="138"><defs><clipPath id="a"><path d="M0 216h482V0H0z"/></clipPath></defs><g clip-path="url(#a)" transform="matrix(1.33333 0 0 -1.33333 -67.1 210)"><path fill="#737373" d="M395 111.4h-11v-25h-7.3v25h-5.2v6h5.2v4.3a10.7 10.7 0 0 0 11.3 11.1 18.2 18.2 0 0 0 4.2-.5V126a7.6 7.6 0 0 1-3.4.8c-1.5 0-2.7-.5-3.5-1.5-.8-1-1.2-2.3-1.2-4.2v-3.7h10.8v7l7.4 2.2v-9.2h7.3v-6h-7.3V97c0-1.9.3-3.2 1-4 .7-.8 1.8-1.2 3.3-1.2l1.5.3 1.5.7v-6a15.7 15.7 0 0 0-5.5-1c-3 0-5.3.8-6.9 2.4-1.5 1.6-2.3 4.1-2.3 7.4zm-48.5-9.7c0-3.3.8-5.7 2.2-7.4 1.5-1.7 3.6-2.6 6.3-2.6 2.7 0 4.7.9 6 2.6 1.5 1.7 2.2 4.2 2.2 7.6 0 3.3-.8 5.8-2.2 7.5a7.5 7.5 0 0 1-6 2.6c-2.7 0-4.8-1-6.3-2.7a11.6 11.6 0 0 1-2.2-7.6m-7.6-.3c0 5.2 1.5 9.2 4.4 12.2 2.9 3 6.9 4.5 12 4.5 4.9 0 8.7-1.4 11.4-4.3 2.7-3 4-6.8 4-11.7 0-5-1.4-9-4.3-12s-6.8-4.4-11.8-4.4c-4.8 0-8.6 1.4-11.4 4.2a15.6 15.6 0 0 0-4.3 11.5m-16.4 7.8c0-1 .4-1.8 1-2.4a17 17 0 0 1 4.4-2.3c3-1.1 5-2.4 6.1-3.9a8.2 8.2 0 0 0 1.8-5.3c0-2.9-1.1-5.2-3.3-7a14.3 14.3 0 0 0-9.1-2.6 21.8 21.8 0 0 0-8.3 1.6v7.2a18 18 0 0 1 4.3-2.2c1.5-.6 3-.8 4.2-.8 1.6 0 2.8.2 3.6.7.8.4 1.2 1.2 1.2 2.3 0 1-.4 1.8-1.2 2.5a18 18 0 0 1-4.6 2.4 14.3 14.3 0 0 0-5.8 3.8 8.3 8.3 0 0 0-1.7 5.4c0 2.8 1.2 5 3.4 6.9 2.2 1.8 5 2.7 8.6 2.7a20.9 20.9 0 0 0 7-1.3v-7c-1 .7-2 1.2-3.3 1.7-1.3.5-2.6.7-3.9.7-1.4 0-2.4-.3-3.2-.8a2.6 2.6 0 0 1-1.2-2.3m-35-7.5c0-3.3.7-5.7 2.2-7.4 1.4-1.7 3.5-2.6 6.3-2.6 2.6 0 4.6.9 6 2.6 1.4 1.7 2 4.2 2 7.6 0 3.3-.6 5.8-2 7.5a7.5 7.5 0 0 1-6.1 2.6c-2.7 0-4.7-1-6.2-2.7a11.6 11.6 0 0 1-2.2-7.6m-7.6-.3c0 5.2 1.4 9.2 4.3 12.2s7 4.5 12 4.5c4.9 0 8.7-1.4 11.4-4.3 2.7-3 4-6.8 4-11.7 0-5-1.4-9-4.3-12-2.8-3-6.8-4.4-11.8-4.4-4.8 0-8.6 1.4-11.4 4.2a15.6 15.6 0 0 0-4.2 11.5m-3.2 16.5a9.2 9.2 0 0 0 2.8-.4V110c-.4.3-1 .5-1.7.8-.7.2-1.6.4-2.7.4-1.8 0-3.3-.8-4.5-2.3-1.2-1.5-1.9-3.8-1.9-7V86.4h-7.2v31h7.2v-4.9h.2c.6 1.7 1.6 3 3 4 1.3 1 3 1.4 4.8 1.4m-28-26.2c1.2 0 2.4.3 3.7.8a15 15 0 0 1 3.6 2v-6.8c-1.2-.7-2.5-1.2-4-1.5-1.5-.4-3-.5-4.9-.5a15 15 0 0 0-11 4.3 15 15 0 0 0-4.3 11c0 5 1.4 9.1 4.3 12.3 3 3.2 7 4.9 12.4 4.9a17 17 0 0 0 7.5-1.8v-7a15 15 0 0 1-3.5 2 10 10 0 0 1-3.6.6c-2.8 0-5.2-1-7-2.8a10.5 10.5 0 0 1-2.6-7.6c0-3 .9-5.5 2.6-7.3 1.7-1.7 4-2.6 6.9-2.6m-22.1-5.3h-7.3v31h7.3zm-8 40a4 4 0 0 0 1.2 3c1 .8 2 1.2 3.1 1.2 1.3 0 2.4-.4 3.2-1.3a4 4 0 0 0 1.3-3 4 4 0 0 0-1.3-3c-.9-.8-2-1.2-3.2-1.2-1.2 0-2.2.4-3.1 1.3a4 4 0 0 0-1.3 3m-6.3 3.2V86.4h-7.5v33.9l-13.5-33.9h-5l-13.7 33.9V86.4h-7v43.2h10.7l12.5-32h.1l13.1 32z"/><path fill="#f25022" d="M106.2 109.8H72V144h34.2z"/><path fill="#7fba00" d="M144 109.8h-34.2V144H144z"/><path fill="#00a4ef" d="M106.2 72H72v34.2h34.2z"/><path fill="#ffb900" d="M144 72h-34.2v34.2H144z"/></g></svg>