<svg xmlns="http://www.w3.org/2000/svg" xmlns:xlink="http://www.w3.org/1999/xlink" width="299" height="68" version="1.1" viewBox="0 0 299 68"><title>Group 3</title><desc>Created with Sketch.</desc><g id="Page-1" fill="none" fill-rule="evenodd" stroke="none" stroke-width="1"><g id="000-Company" fill="#333" transform="translate(-57.000000, -430.000000)"><g id="clever-cloud-black" transform="translate(11.000000, 408.000000)"><g id="Group-3" transform="translate(46.000000, 22.000000)"><path id="Combined-Shape" fill-rule="nonzero" d="M33.5251326,22.9298175 L38.5056558,22.9298175 C38.8619807,22.9298175 39.5457205,22.6770899 39.9131914,22.2527571 C40.5798638,21.4859072 41.055312,20.1581338 40.5864818,18.754438 C39.8567646,16.5769589 38.3980269,16.0330225 36.1176173,16.668135 C35.8448877,15.6690115 35.3882484,13.5827084 32.2889533,14.1269916 C30.1039816,14.5100698 30.0092403,17.3933836 30.3739247,17.7563545 C26.8179904,17.6884058 26.2262055,20.6462552 26.8179904,22.0215234 C27.0921133,22.6573293 28.0569421,22.9298175 28.4209299,22.9298175 L32.1962392,22.9298175 L32.7072084,23.7434341 L33.5251326,22.9298175 Z M3.95203534,0.202985075 L63.3277924,0.202985075 C65.5104413,0.202985075 67.2798278,1.97237157 67.2798278,4.15502042 L67.2798278,63.2360244 C67.2798278,65.4186732 65.5104413,67.1880597 63.3277924,67.1880597 L3.95203534,67.1880597 L3.95203534,67.1880597 C1.76938649,67.1880597 2.67297393e-16,65.4186732 0,63.2360244 L0,4.15502042 L0,4.15502042 C-2.67297393e-16,1.97237157 1.76938649,0.202985075 3.95203534,0.202985075 L3.95203534,0.202985075 Z M32.9406831,25.0901708 L31.8737983,25.0901708 C31.8737983,25.0901708 31.7501469,25.1726799 31.7915962,25.2947103 L31.8316523,25.4170873 L31.9563486,27.05167 C31.9563486,27.05167 31.7915962,27.1338325 31.7501469,27.4194945 C31.7093942,27.7055031 32.037854,28.4824066 32.037854,28.4824066 C32.037854,28.4824066 31.9563486,40.5939191 31.9563486,40.6282402 C31.9323149,44.0204761 27.1785299,46.1449135 27.2906869,50.2270369 C27.3725406,53.222674 30.0378369,53.4989758 32.4467742,53.4989758 C34.4339038,53.4989758 37.708749,53.7943446 38.4186123,51.4074726 C39.8839679,46.4843104 33.952186,44.539105 33.9257141,40.6282402 C33.9257141,40.5939191 33.8442087,28.4824066 33.8442087,28.4824066 C33.8442087,28.4824066 34.1726685,27.7055031 34.1319158,27.4194945 C34.0904665,27.1338325 33.9257141,27.05167 33.9257141,27.05167 L34.0497138,25.4170873 L34.0904665,25.2947103 C34.1319158,25.1726799 34.0079162,25.0901708 34.0079162,25.0901708 L32.9406831,25.0901708 Z"/><path id="cloud" d="M206.870209,36.8939827 C206.870209,35.581951 207.098053,34.3415033 207.553749,33.1726023 C208.009445,32.0037014 208.651007,30.9839102 209.478455,30.1131983 C210.305902,29.2424863 211.295227,28.5566619 212.446459,28.0557043 C213.59769,27.5547468 214.868823,27.3042717 216.259894,27.3042717 C218.03471,27.3042717 219.581654,27.703839 220.900773,28.5029856 C222.219893,29.3021322 223.215213,30.3815602 223.886765,31.7413022 L221.512362,32.4927348 C220.984714,31.5385299 220.247217,30.7930685 219.29985,30.2563283 C218.352482,29.719588 217.303198,29.451222 216.151967,29.451222 C215.192607,29.451222 214.299217,29.6420601 213.471769,30.023742 C212.644321,30.405424 211.924813,30.9242651 211.313221,31.5802809 C210.701629,32.2362968 210.221956,33.0175403 209.874189,33.9240349 C209.526421,34.8305295 209.352539,35.8205022 209.352539,36.8939827 C209.352539,37.9436081 209.532417,38.9335808 209.892176,39.8639305 C210.251936,40.7942803 210.743601,41.5993785 211.367185,42.2792495 C211.990768,42.9591205 212.716273,43.4958527 213.543721,43.8894622 C214.371168,44.2830717 215.252567,44.4798735 216.187943,44.4798735 C216.787542,44.4798735 217.381137,44.3963818 217.968745,44.2293959 C218.556353,44.0624101 219.10198,43.8298261 219.605644,43.5316371 C220.109308,43.2334481 220.541013,42.8935177 220.900773,42.5118358 C221.260533,42.1301538 221.512361,41.7246228 221.656265,41.2952306 L224.066644,42.0108807 C223.80282,42.6788241 223.419082,43.2930843 222.915418,43.8536797 C222.411755,44.414275 221.81816,44.9032977 221.134616,45.3207623 C220.451072,45.7382269 219.695588,46.0602662 218.86814,46.2868899 C218.040692,46.5135136 217.183278,46.6268237 216.29587,46.6268237 C214.928783,46.6268237 213.669642,46.370385 212.51841,45.8574999 C211.367179,45.3446147 210.371858,44.6408992 209.532418,43.7463321 C208.692979,42.8517651 208.039425,41.8200465 207.571737,40.6511456 C207.104049,39.4822446 206.870209,38.2298695 206.870209,36.8939827 Z M228.023983,20.147771 L230.470338,20.147771 L230.470338,42.0466632 C230.470338,42.7384618 230.662207,43.2811576 231.045951,43.6747671 C231.429694,44.0683766 231.969326,44.2651784 232.664862,44.2651784 C232.928686,44.2651784 233.240473,44.2293963 233.600233,44.1578309 C233.959993,44.0862656 234.295764,43.9908465 234.607555,43.8715709 L235.039265,45.8396086 C234.583569,46.0304496 234.02595,46.1855055 233.36639,46.3047812 C232.70683,46.4240568 232.137219,46.4836937 231.657539,46.4836937 C230.530292,46.4836937 229.642897,46.1676181 228.99533,45.5354573 C228.347762,44.9032966 228.023983,44.0147066 228.023983,42.8696608 L228.023983,20.147771 Z M245.688104,46.6268237 C244.321016,46.6268237 243.073868,46.370385 241.94662,45.8574999 C240.819372,45.3446147 239.842039,44.6468629 239.014592,43.7642234 C238.187144,42.8815839 237.545582,41.8558291 237.089886,40.6869281 C236.63419,39.5180271 236.406346,38.2895068 236.406346,37.0013302 C236.406346,35.6892985 236.640186,34.4488508 237.107874,33.2799498 C237.575562,32.1110489 238.22312,31.085294 239.050568,30.2026545 C239.878015,29.320015 240.855348,28.6162995 241.982596,28.0914868 C243.109843,27.5666741 244.345,27.3042717 245.688104,27.3042717 C247.031207,27.3042717 248.27236,27.5666741 249.4116,28.0914868 C250.550839,28.6162995 251.534168,29.320015 252.361616,30.2026545 C253.189064,31.085294 253.836622,32.1110489 254.304309,33.2799498 C254.771997,34.4488508 255.005838,35.6892985 255.005838,37.0013302 C255.005838,38.2895068 254.777993,39.5180271 254.322297,40.6869281 C253.866602,41.8558291 253.225039,42.8815839 252.397592,43.7642234 C251.570144,44.6468629 250.586815,45.3446147 249.447576,45.8574999 C248.308336,46.370385 247.055191,46.6268237 245.688104,46.6268237 Z M238.888676,37.0371127 C238.888676,38.0867381 239.068554,39.0588197 239.428314,39.9533868 C239.788073,40.8479538 240.273742,41.635161 240.885334,42.315032 C241.496925,42.994903 242.216434,43.5256715 243.043882,43.9073534 C243.87133,44.2890354 244.752728,44.4798735 245.688104,44.4798735 C246.623479,44.4798735 247.504878,44.2830717 248.332326,43.8894622 C249.159773,43.4958527 249.885278,42.9591205 250.508862,42.2792495 C251.132446,41.5993785 251.62411,40.8062076 251.98387,39.899713 C252.34363,38.9932184 252.523507,38.0151731 252.523507,36.9655477 C252.523507,35.9397775 252.34363,34.9676959 251.98387,34.0492737 C251.62411,33.1308515 251.132446,32.3317169 250.508862,31.6518459 C249.885278,30.971975 249.159773,30.4352428 248.332326,30.0416333 C247.504878,29.6480238 246.623479,29.451222 245.688104,29.451222 C244.752728,29.451222 243.877326,29.6480238 243.06187,30.0416333 C242.246414,30.4352428 241.526905,30.9779386 240.903322,31.6697372 C240.279738,32.3615357 239.788073,33.166634 239.428314,34.0850562 C239.068554,35.0034784 238.888676,35.9874874 238.888676,37.0371127 Z M264.971136,46.6268237 C262.932497,46.6268237 261.415532,45.9529266 260.420197,44.6051122 C259.424861,43.2572979 258.927201,41.247534 258.927201,38.5757604 L258.927201,27.6263143 L261.373555,27.6263143 L261.373555,38.1463703 C261.373555,42.3687269 262.824565,44.4798735 265.726628,44.4798735 C266.446148,44.4798735 267.153665,44.3605997 267.849201,44.1220484 C268.544736,43.8834972 269.186298,43.5376031 269.773906,43.0843558 C270.361514,42.6311085 270.889154,42.0943763 271.356842,41.4741432 C271.82453,40.85391 272.202272,40.1501945 272.49008,39.3629755 L272.49008,27.6263143 L274.936434,27.6263143 L274.936434,43.1201383 C274.936434,43.7880817 275.224238,44.1220484 275.799854,44.1220484 L275.799854,46.2689987 C275.512046,46.3167089 275.278206,46.3405637 275.098326,46.3405637 L274.72058,46.3405637 C274.144964,46.3167085 273.677283,46.113943 273.317523,45.7322611 C272.957763,45.3505791 272.777886,44.8377017 272.777886,44.1936134 L272.777886,42.0466632 C271.96243,43.5018256 270.853187,44.6289632 269.450124,45.4281098 C268.047061,46.2272564 266.55408,46.6268237 264.971136,46.6268237 Z M288.175531,46.6268237 C286.880396,46.6268237 285.681214,46.3584576 284.577951,45.8217174 C283.474687,45.2849771 282.527334,44.5752979 281.735862,43.6926584 C280.94439,42.8100189 280.326812,41.7902277 279.883108,40.6332543 C279.439404,39.4762809 279.217555,38.2656517 279.217555,37.0013302 C279.217555,35.6892985 279.433408,34.4428871 279.86512,33.2620586 C280.296832,32.0812301 280.890427,31.0495115 281.645922,30.166872 C282.401418,29.2842325 283.300804,28.5864807 284.344108,28.0735956 C285.387411,27.5607104 286.53263,27.3042717 287.779797,27.3042717 C289.362741,27.3042717 290.765783,27.7157664 291.988967,28.5387681 C293.21215,29.3617698 294.171496,30.3577062 294.867031,31.5266072 L294.867031,20.147771 L297.313386,20.147771 L297.313386,43.1201383 C297.313386,43.7880817 297.60119,44.1220484 298.176805,44.1220484 L298.176805,46.2689987 C297.817046,46.340564 297.529242,46.3763462 297.313386,46.3763462 C296.73777,46.3763462 296.234114,46.1914717 295.802402,45.8217174 C295.37069,45.451963 295.154838,45.0046861 295.154838,44.4798735 L295.154838,42.6549658 C294.411334,43.871577 293.404021,44.8376949 292.13287,45.5533486 C290.861718,46.2690022 289.542619,46.6268237 288.175531,46.6268237 Z M288.715168,44.4798735 C289.314768,44.4798735 289.95633,44.3605997 290.639874,44.1220484 C291.323418,43.8834972 291.96498,43.5554942 292.56458,43.1380296 C293.164179,42.720565 293.673832,42.2315423 294.093551,41.6709469 C294.513271,41.1103516 294.771095,40.5080188 294.867031,39.8639305 L294.867031,34.1029474 C294.627191,33.4588591 294.279429,32.8565264 293.823733,32.295931 C293.368037,31.7353356 292.846393,31.2403493 292.258785,30.8109571 C291.671178,30.3815649 291.041607,30.0475982 290.370055,29.809047 C289.698504,29.5704958 289.038954,29.451222 288.391386,29.451222 C287.384058,29.451222 286.472681,29.6659148 285.657225,30.095307 C284.841769,30.5246992 284.140248,31.0912499 283.55264,31.7949759 C282.965032,32.498702 282.515339,33.3038003 282.203547,34.2102949 C281.891756,35.1167896 281.735862,36.0471253 281.735862,37.0013302 C281.735862,38.0032453 281.915739,38.9574359 282.275499,39.8639305 C282.635259,40.7704251 283.126923,41.563596 283.750507,42.243467 C284.374091,42.923338 285.111587,43.4660338 285.963019,43.8715709 C286.814451,44.277108 287.731825,44.4798735 288.715168,44.4798735 Z"/><path id="clever" d="M87.1516916,36.8939827 C87.1516916,35.581951 87.3795361,34.3415033 87.8352319,33.1726023 C88.2909278,32.0037014 88.9324899,30.9839102 89.7599376,30.1131983 C90.5873853,29.2424863 91.57671,28.5566619 92.7279416,28.0557043 C93.8791732,27.5547468 95.1503056,27.3042717 96.5413771,27.3042717 C98.3161924,27.3042717 99.8631366,27.703839 101.182256,28.5029856 C102.501376,29.3021322 103.496696,30.3815602 104.168248,31.7413022 L101.793845,32.4927348 C101.266197,31.5385299 100.5287,30.7930685 99.5813327,30.2563283 C98.6339651,29.719588 97.5846812,29.451222 96.4334497,29.451222 C95.47409,29.451222 94.5806998,29.6420601 93.7532521,30.023742 C92.9258044,30.405424 92.2062955,30.9242651 91.5947037,31.5802809 C90.9831119,32.2362968 90.5034393,33.0175403 90.1556714,33.9240349 C89.8079036,34.8305295 89.6340223,35.8205022 89.6340223,36.8939827 C89.6340223,37.9436081 89.8138995,38.9335808 90.1736593,39.8639305 C90.5334192,40.7942803 91.0250837,41.5993785 91.6486674,42.2792495 C92.2722512,42.9591205 92.997756,43.4958527 93.8252037,43.8894622 C94.6526514,44.2830717 95.5340498,44.4798735 96.4694255,44.4798735 C97.0690252,44.4798735 97.6626201,44.3963818 98.2502279,44.2293959 C98.8378357,44.0624101 99.3834633,43.8298261 99.8871271,43.5316371 C100.390791,43.2334481 100.822496,42.8935177 101.182256,42.5118358 C101.542016,42.1301538 101.793844,41.7246228 101.937748,41.2952306 L104.348127,42.0108807 C104.084303,42.6788241 103.700565,43.2930843 103.196901,43.8536797 C102.693237,44.414275 102.099643,44.9032977 101.416099,45.3207623 C100.732555,45.7382269 99.9770707,46.0602662 99.1496231,46.2868899 C98.3221754,46.5135136 97.4647606,46.6268237 96.5773529,46.6268237 C95.2102654,46.6268237 93.9511248,46.370385 92.7998932,45.8574999 C91.6486617,45.3446147 90.653341,44.6408992 89.8139013,43.7463321 C88.9744616,42.8517651 88.3209077,41.8200465 87.8532198,40.6511456 C87.385532,39.4822446 87.1516916,38.2298695 87.1516916,36.8939827 Z M108.305466,20.147771 L110.751821,20.147771 L110.751821,42.0466632 C110.751821,42.7384618 110.94369,43.2811576 111.327434,43.6747671 C111.711177,44.0683766 112.250809,44.2651784 112.946345,44.2651784 C113.210169,44.2651784 113.521956,44.2293963 113.881716,44.1578309 C114.241476,44.0862656 114.577246,43.9908465 114.889038,43.8715709 L115.320748,45.8396086 C114.865052,46.0304496 114.307433,46.1855055 113.647873,46.3047812 C112.988313,46.4240568 112.418702,46.4836937 111.939022,46.4836937 C110.811775,46.4836937 109.92438,46.1676181 109.276813,45.5354573 C108.629245,44.9032966 108.305466,44.0147066 108.305466,42.8696608 L108.305466,20.147771 Z M126.077514,46.6268237 C124.710427,46.6268237 123.457282,46.370385 122.318042,45.8574999 C121.178803,45.3446147 120.189478,44.6408992 119.350038,43.7463321 C118.510599,42.8517651 117.857045,41.8200465 117.389357,40.6511456 C116.921669,39.4822446 116.687829,38.2298695 116.687829,36.8939827 C116.687829,35.581951 116.921669,34.347467 117.389357,33.1904936 C117.857045,32.0335202 118.504603,31.0196927 119.33205,30.1489808 C120.159498,29.2782688 121.148823,28.5864807 122.300055,28.0735956 C123.451286,27.5607104 124.698435,27.3042717 126.041538,27.3042717 C127.408626,27.3042717 128.661771,27.5607104 129.80101,28.0735956 C130.94025,28.5864807 131.917583,29.2842325 132.733038,30.166872 C133.548494,31.0495115 134.18406,32.063339 134.639756,33.2083848 C135.095452,34.3534307 135.323296,35.5700236 135.323296,36.8582002 L135.323296,37.4307203 C135.323296,37.6215612 135.311305,37.7527624 135.287321,37.8243278 L119.242111,37.8243278 C119.314063,38.8262429 119.547903,39.750615 119.943639,40.5974718 C120.339375,41.4443286 120.849027,42.1778626 121.472611,42.7980958 C122.096195,43.418329 122.809708,43.9013879 123.613171,44.2472872 C124.416635,44.5931865 125.27405,44.7661335 126.185442,44.7661335 C126.785041,44.7661335 127.384632,44.6826418 127.984232,44.515656 C128.583832,44.3486701 129.135455,44.1220499 129.639119,43.8357884 C130.142783,43.5495269 130.598472,43.1976692 131.0062,42.7802045 C131.413928,42.3627399 131.725715,41.9035357 131.941571,41.4025782 L134.064143,41.9750982 C133.776335,42.6668967 133.368614,43.2930843 132.840966,43.8536797 C132.313318,44.414275 131.701735,44.9032977 131.0062,45.3207623 C130.310664,45.7382269 129.543188,46.0602662 128.703748,46.2868899 C127.864308,46.5135136 126.988906,46.6268237 126.077514,46.6268237 Z M132.984869,35.9636376 C132.912917,34.9617225 132.679077,34.0492778 132.283341,33.2262761 C131.887605,32.4032744 131.383949,31.6935952 130.772357,31.0972171 C130.160765,30.5008391 129.453248,30.0356712 128.649784,29.7016995 C127.846321,29.3677278 126.988906,29.2007444 126.077514,29.2007444 C125.166123,29.2007444 124.302712,29.3677278 123.487256,29.7016995 C122.6718,30.0356712 121.958287,30.5008391 121.346696,31.0972171 C120.735104,31.6935952 120.243439,32.4092381 119.871688,33.2441673 C119.499936,34.0790966 119.278087,34.9855776 119.206135,35.9636376 L132.984869,35.9636376 Z M144.209321,46.2689987 L136.58245,27.6263143 L139.100756,27.6263143 L145.540425,44.0147009 L152.016071,27.6263143 L154.390474,27.6263143 L146.763603,46.2689987 L144.209321,46.2689987 Z M165.219192,46.6268237 C163.852104,46.6268237 162.598959,46.370385 161.45972,45.8574999 C160.32048,45.3446147 159.331155,44.6408992 158.491716,43.7463321 C157.652276,42.8517651 156.998722,41.8200465 156.531034,40.6511456 C156.063347,39.4822446 155.829506,38.2298695 155.829506,36.8939827 C155.829506,35.581951 156.063347,34.347467 156.531034,33.1904936 C156.998722,32.0335202 157.64628,31.0196927 158.473728,30.1489808 C159.301176,29.2782688 160.2905,28.5864807 161.441732,28.0735956 C162.592963,27.5607104 163.840112,27.3042717 165.183216,27.3042717 C166.550303,27.3042717 167.803448,27.5607104 168.942688,28.0735956 C170.081927,28.5864807 171.05926,29.2842325 171.874716,30.166872 C172.690171,31.0495115 173.325738,32.063339 173.781434,33.2083848 C174.237129,34.3534307 174.464974,35.5700236 174.464974,36.8582002 L174.464974,37.4307203 C174.464974,37.6215612 174.452982,37.7527624 174.428998,37.8243278 L158.383788,37.8243278 C158.45574,38.8262429 158.689581,39.750615 159.085317,40.5974718 C159.481052,41.4443286 159.990705,42.1778626 160.614288,42.7980958 C161.237872,43.418329 161.951385,43.9013879 162.754849,44.2472872 C163.558313,44.5931865 164.415727,44.7661335 165.327119,44.7661335 C165.926719,44.7661335 166.52631,44.6826418 167.125909,44.515656 C167.725509,44.3486701 168.277133,44.1220499 168.780796,43.8357884 C169.28446,43.5495269 169.740149,43.1976692 170.147877,42.7802045 C170.555605,42.3627399 170.867392,41.9035357 171.083248,41.4025782 L173.205821,41.9750982 C172.918013,42.6668967 172.510291,43.2930843 171.982643,43.8536797 C171.454995,44.414275 170.843413,44.9032977 170.147877,45.3207623 C169.452341,45.7382269 168.684865,46.0602662 167.845425,46.2868899 C167.005986,46.5135136 166.130583,46.6268237 165.219192,46.6268237 Z M172.126546,35.9636376 C172.054594,34.9617225 171.820754,34.0492778 171.425018,33.2262761 C171.029282,32.4032744 170.525626,31.6935952 169.914034,31.0972171 C169.302443,30.5008391 168.594925,30.0356712 167.791462,29.7016995 C166.987998,29.3677278 166.130583,29.2007444 165.219192,29.2007444 C164.3078,29.2007444 163.444389,29.3677278 162.628934,29.7016995 C161.813478,30.0356712 161.099965,30.5008391 160.488373,31.0972171 C159.876781,31.6935952 159.385117,32.4092381 159.013365,33.2441673 C158.641613,34.0790966 158.419765,34.9855776 158.347813,35.9636376 L172.126546,35.9636376 Z M187.596143,29.7732645 C185.941248,29.8209747 184.50223,30.2742152 183.279046,31.1329996 C182.055863,31.991784 181.192452,33.1725948 180.688788,34.6754675 L180.688788,46.2689987 L178.242434,46.2689987 L178.242434,27.6263143 L180.544885,27.6263143 L180.544885,32.0991272 C181.240421,30.6678199 182.175782,29.546646 183.350998,28.7355719 C184.526214,27.9244977 185.785354,27.5189668 187.128458,27.5189668 C187.32033,27.5189668 187.476223,27.5308941 187.596143,27.5547493 L187.596143,29.7732645 Z"/></g></g></g></g></svg>