<svg xmlns="http://www.w3.org/2000/svg" xml:space="preserve" height="450" width="850" version="1.1" y="0px" x="0px" viewBox="0 0 850 450"><style type="text/css">
	.st0{fill:#DC0096;}
	.st1{display:none;}
	.st2{display:inline;}
	.st3{fill:#5050DC;}
</style><g transform="translate(-168.85 -117.27)"><g fill="#dc0096"><path class="st0" d="m747.1 443.6v5.1h-25.2v-37.2h5.5v32.1z"/><path class="st0" d="m772.5 441.6 3.4 3.5c-2.5 2.7-7.4 4.3-11.3 4.3-7.8 0-14.4-6.1-14.4-14.7 0-8.4 6.2-14.6 14-14.6 8.6 0 13.5 6.5 13.5 16.5h-22.1c0.7 4.7 4.1 8 8.9 8 2.9 0 6.3-1.3 8-3zm-16.9-9.3h16.8c-0.6-4.3-3.3-7.5-8.1-7.5-4.3 0-7.9 3-8.7 7.5z"/><path class="st0" d="m824 410.9v37.9h-5.3v-4.9c-2.2 3.5-5.6 5.5-10 5.5-7.4 0-12.9-6.1-12.9-14.7s5.5-14.6 12.9-14.6c4.3 0 7.8 2.1 10 5.5v-14.7zm-5.3 23.8c0-5.9-3.6-10-8.7-10s-8.8 4.1-8.8 10 3.6 10 8.8 10c5.1 0 8.7-4.2 8.7-10z"/><path class="st0" d="m851.9 441.6 3.4 3.5c-2.5 2.7-7.4 4.3-11.3 4.3-7.8 0-14.4-6.1-14.4-14.7 0-8.4 6.2-14.6 14-14.6 8.6 0 13.5 6.5 13.5 16.5h-22.1c0.7 4.7 4.1 8 8.9 8 2.9 0 6.3-1.3 8-3zm-16.9-9.3h16.8c-0.6-4.3-3.3-7.5-8.1-7.5-4.3 0-7.9 3-8.7 7.5zm7.6-14.8h-3.9l6.4-8 5.3 1.1z"/><path class="st0" d="m860.6 434.7c0-8 6.8-14.6 14.8-14.6 4 0 7.6 1.7 10.3 4.3l-3.6 3.4c-1.7-1.9-4.1-3-6.7-3-5.1 0-9.3 4.6-9.3 10 0 5.5 4.2 10 9.4 10 2.6 0 5.1-1.2 6.8-3.1l3.6 3.3c-2.7 2.8-6.3 4.5-10.5 4.5-8-0.1-14.8-6.8-14.8-14.8z"/><path class="st0" d="m890.5 410.9h5.3v37.9h-5.3z"/><path class="st0" d="m901.9 412.8c0-1.7 1.4-3.2 3.3-3.2 1.7 0 3.2 1.5 3.2 3.2s-1.5 3.3-3.2 3.3c-1.8 0-3.3-1.6-3.3-3.3zm0.6 7.9h5.4v28h-5.4z"/><path class="st0" d="m913 434.7c0-8 6.8-14.6 14.8-14.6 4 0 7.6 1.7 10.3 4.3l-3.6 3.4c-1.7-1.9-4.1-3-6.7-3-5.1 0-9.3 4.6-9.3 10 0 5.5 4.2 10 9.4 10 2.6 0 5.1-1.2 6.8-3.1l3.6 3.3c-2.7 2.8-6.3 4.5-10.5 4.5-8-0.1-14.8-6.8-14.8-14.8z"/><path class="st0" d="m720.7 491.8c0-8 6.8-14.6 14.8-14.6 4 0 7.6 1.7 10.3 4.3l-3.6 3.4c-1.7-1.9-4.1-3-6.7-3-5.1 0-9.3 4.6-9.3 10 0 5.5 4.2 10 9.4 10 2.6 0 5.1-1.2 6.8-3.1l3.6 3.3c-2.7 2.8-6.3 4.5-10.5 4.5-8-0.1-14.8-6.8-14.8-14.8z"/><path class="st0" d="m748.5 491.8c0-8 6.8-14.6 14.8-14.6s14.7 6.7 14.7 14.6c0 8-6.7 14.7-14.7 14.7-8.1 0-14.8-6.7-14.8-14.7zm24.1 0c0-5.4-4.3-10-9.3-10-5.1 0-9.4 4.6-9.4 10 0 5.5 4.3 10 9.4 10 5 0 9.3-4.5 9.3-10z"/><path class="st0" d="m783.2 467.9h5.3v37.9h-5.3z"/><path class="st0" d="m795.2 467.9h5.3v37.9h-5.3z"/><path class="st0" d="m830.7 488.9v17h-5.3v-3.9c-2.1 2.9-5.9 4.5-9.3 4.5-6 0-10.3-3.5-10.3-8.9 0-5.6 5-9.3 11.2-9.3 2.8 0 5.7 0.6 8.5 1.5v-0.9c0-3.5-1.6-7.3-7.2-7.3-2.8 0-5.5 1.1-7.9 2.3l-2-4c4-2 7.5-2.8 10.6-2.8 7.5 0.1 11.7 4.8 11.7 11.8zm-5.3 8.1v-3.7c-2.3-0.7-4.9-1.1-7.6-1.1-3.7 0-6.9 2.1-6.9 5.1s2.7 4.9 6.2 4.9 7.4-1.7 8.3-5.2z"/><path class="st0" d="m865.8 491.8c0 8.6-5.5 14.7-12.9 14.7-4.3 0-7.8-2.1-10-5.5v4.9h-5.3v-37.9h5.3v14.7c2.2-3.4 5.6-5.5 10-5.5 7.4 0 12.9 6 12.9 14.6zm-5.4 0c0-5.9-3.6-10-8.8-10-5 0-8.7 4.1-8.7 10s3.6 10 8.7 10 8.8-4.2 8.8-10z"/><path class="st0" d="m869.7 491.8c0-8 6.8-14.6 14.8-14.6s14.7 6.7 14.7 14.6c0 8-6.7 14.7-14.7 14.7s-14.8-6.7-14.8-14.7zm24.1 0c0-5.4-4.3-10-9.3-10-5.1 0-9.4 4.6-9.4 10 0 5.5 4.3 10 9.4 10 5 0 9.3-4.5 9.3-10z"/><path class="st0" d="m920.4 477.2v4.7c-5.8 0-9.9 3.2-10.4 8.1v15.9h-5.4v-28h5.4v5.4c1.8-3.8 5.6-6.1 10.4-6.1z"/><path class="st0" d="m948.1 488.9v17h-5.3v-3.9c-2.1 2.9-5.9 4.5-9.3 4.5-6 0-10.3-3.5-10.3-8.9 0-5.6 5-9.3 11.2-9.3 2.8 0 5.7 0.6 8.5 1.5v-0.9c0-3.5-1.6-7.3-7.2-7.3-2.8 0-5.5 1.1-7.9 2.3l-2-4c4-2 7.5-2.8 10.6-2.8 7.5 0.1 11.7 4.8 11.7 11.8zm-5.3 8.1v-3.7c-2.3-0.7-4.9-1.1-7.6-1.1-3.7 0-6.9 2.1-6.9 5.1s2.7 4.9 6.2 4.9 7.4-1.7 8.3-5.2z"/><path class="st0" d="m969.8 504.5c-1.5 1.2-3.6 2-5.6 2-4.3 0-7.4-3.1-7.4-7.6v-16.5h-4.2v-4.6h4.2v-7.7h5.3v7.7h6.6v4.6h-6.6v16.1c0 2 1.3 3.4 2.9 3.4 1.2 0 2.3-0.4 2.9-1z"/><path class="st0" d="m973.6 469.9c0-1.7 1.4-3.2 3.3-3.2 1.7 0 3.2 1.5 3.2 3.2s-1.5 3.3-3.2 3.3c-1.9 0-3.3-1.6-3.3-3.3zm0.5 7.9h5.4v28h-5.4z"/><path class="st0" d="m993.5 477.8h6.6v4.6h-6.6v23.5h-5.3v-23.5h-4.2v-4.6h4.2v-3.4c0-4.5 3-7.6 7.4-7.6 2 0 4.1 0.8 5.6 2l-2 3.6c-0.6-0.6-1.7-1-2.9-1-1.6 0-2.9 1.4-2.9 3.4v3z"/></g></g><g transform="translate(-168.85 -117.27)"><g display="none" class="st1"><g display="inline" class="st2" fill="#5050dc"><polygon points="718 252.1 751.5 252.1 751.5 358.1 776.1 358.1 776.1 252.1 809.5 252.1 809.5 227.5 718 227.5" class="st3"/><rect class="st3" height="131.1" width="24.6" y="227" x="871.4"/><rect class="st3" height="88.6" width="24.6" y="269.5" x="824"/><path class="st3" d="m836.4 223.5c-4.2 0-7.8 1.4-10.6 4.3s-4.2 6.5-4.2 10.7 1.4 7.8 4.2 10.6 6.4 4.2 10.6 4.2 7.8-1.4 10.7-4.2 4.3-6.4 4.3-10.6-1.4-7.8-4.3-10.7-6.5-4.3-10.7-4.3z"/><path class="st3" d="m955.7 271.7c-2.8 0.7-5.6 1.6-8.3 2.6-1 0.4-2 0.8-3 1.3v-34.7h-24.6v117.2h24.6v-64c0.5-0.1 1-0.3 1.5-0.4 2.1-0.5 4.2-0.9 6.3-1.1s4.3-0.3 6.5-0.3c3.9 0 7.9 0.4 11.8 1v-24.2c-5 0.6-9.9 1.4-14.8 2.6z"/></g></g><g fill="#5050dc"><path class="st3" d="m861.1 172.1-11.4-4.6-11.4-4.6c-1.2 2.9-28.2 71.2 6.8 139.7l21.9-11.2c-29.8-58.3-6.2-118.7-5.9-119.3z"/><path class="st3" d="m911.5 281.2c3.9-5.3 8.7-9.7 14-12.8 5.5-3.2 11.5-4.9 17.5-5.2l-3.7-22.9c-9.4 2.2-18 6.6-25.1 12.6-2.6 2.2-5.1 4.7-7.2 7.3-2.1-19.3 0.7-38.7 4.9-50.7l-23.2-8.1c-5.5 15.6-10 43.9-4.5 72.1 6.4 33.2 24.2 56.3 51.4 67l8.9-22.9c-15.8-6.2-26.9-18.4-33-36.4z"/><path class="st3" d="m772.8 157.2-12.7-21c-16 9.6-62.1 33.2-102.2 44.3l6.6 23.7c13.4-3.7 27.4-8.7 40.9-14.2 15.2 21 22.6 43.5 22.2 67.1-0.4 19.9-6.4 33.2-6.5 33.3l11.1 5.2 11.1 5.3c0.3-0.7 8.1-17.3 8.8-42.1 0.6-19.8-3.4-48.5-23.7-78.9 18.7-8.4 34.7-16.9 44.4-22.7z"/><path class="st3" d="m778.8 248.9c3.5 12.6 9.8 45.2-8.2 75.1l21 12.7c22.9-38 15.2-78.6 10.8-94.3z"/><path class="st3" d="m771.8 224.8c6.3 5.4 15.8 4.6 21.2-1.7s4.6-15.8-1.7-21.2-15.8-4.6-21.2 1.7-4.7 15.8 1.7 21.2z"/></g></g><g transform="translate(-168.85 -117.27)"><g fill="#5050dc"><path class="st3" d="m247.9 248.9c11.5 0 18.5 5.5 21.4 16.7l22.7-9.1c-4.8-20.5-21.1-32.7-43.9-32.7-25.5 0-42.7 15.2-42.7 37.9 0 24.8 18 33.9 35.7 39.5l1.9 0.6c12.7 3.8 22.7 6.9 22.7 17.2 0 8.2-6.5 13.1-17.4 13.1-11.8 0-19-5.6-21.9-17.2l-22.4 9.7c4.8 20.8 20.8 32.7 44.1 32.7 25.9 0 42.7-15 42.7-38.3 0-24.3-16.8-33.2-34.9-39.1l-2.6-0.9c-13.2-4.2-22.8-7.3-22.8-17.1 0-6.3 4.5-13 17.4-13z"/><path class="st3" d="m365.6 311.3c0 15.4-6.1 26.2-19.4 26.2-10.4 0-15.1-6.5-15.1-19.2v-49.8h-24.1v55.8c0 22.1 10.2 36 31 36 13.4 0 22.4-6.6 28.5-15.8v13.6h22.9v-89.6h-23.8z"/><path class="st3" d="m464.7 266.1c-13.1 0-23.3 5.7-29.8 14.9v-12.5h-23.7v125.5h23.8v-48.8c6.1 8.6 16.1 15.2 30.1 15.2 21.9 0 40.5-16.9 40.5-47.2 0-30.2-18.6-47.1-40.9-47.1zm-7 71.2c-13.3 0-23.5-9.1-23.5-24 0-14.7 10.2-24 23.5-24 13.4 0 23.5 9.5 23.5 24s-10 24-23.5 24z"/><path class="st3" d="m565.7 266.3c-28.1 0-45.9 20.4-45.9 47 0 26.7 17.7 47 48 47 17.2 0 28.3-5.7 35.7-11.8l-9.9-19.5c-6.3 5.4-14.7 9.1-25.5 9.1-10.4 0-21.2-5.2-24-17.2l-0.2-0.4h66v-6.5c0-28.9-16.8-47.7-44.2-47.7zm-21.9 37c2.3-10.8 9.9-16.9 21.2-16.9 11.5 0 18.1 7.2 19.2 16.9z"/><path class="st3" d="m676.3 266.3c-12.5 0-20.6 6.5-25.5 16.9v-14.7h-22.8v89.6h23.7v-40.5c0-17.2 7-26 22.6-26 3.8 0 7.5 0.4 10.8 1.4v-25.5c-2.9-0.6-5.6-1.2-8.8-1.2z"/></g></g></svg>
