<svg xmlns="http://www.w3.org/2000/svg" id="Calque_1" viewBox="0 0 1080 1080"><defs><style>.cls-1,.cls-2{stroke-width:0}.cls-2{fill:#ff6e14}</style></defs><path d="M938.16,539.38v-103.96c0-11.79,7.7-18.77,16.85-18.77s16.85,6.98,16.85,18.77v4.57h.48c9.14-14.2,23.1-23.34,40.91-23.34,25.03,0,38.5,17.81,38.5,44.76v77.97h-36.1v-67.86c0-15.88-7.46-21.18-16.85-21.18-13.96,0-24.55,11.79-24.55,36.82v52.22h-36.1ZM900.38,416.64c-9.87,0-18.05,7.7-18.05,19.97v102.76h36.1v-102.76c0-12.27-8.18-19.97-18.05-19.97M900.38,397.63c12.27,0,21.9-10.11,21.9-21.9s-9.63-21.9-21.9-21.9-22.14,10.11-22.14,21.9c0,12.51,10.11,21.9,22.14,21.9M804.6,510.98c-16.12,0-25.99-12.75-25.99-31.77s9.87-31.77,25.99-31.77,25.99,12.75,25.99,31.77-9.87,31.77-25.99,31.77M804.6,541.78c38.02,0,62.57-25.99,62.57-62.57s-24.55-62.57-62.57-62.57-62.57,25.99-62.57,62.57,24.55,62.57,62.57,62.57M663.33,479.21c0,19.73,9.63,31.29,25.27,31.29,10.35,0,18.05-5.05,21.9-12.03h.48l26.23,16.85c-9.14,17.81-28.16,26.47-49.82,26.47-37.54,0-60.65-25.99-60.65-62.57s23.1-62.57,60.65-62.57c21.66,0,40.67,8.66,49.82,26.47l-26.23,16.85h-.48c-3.85-6.98-11.55-12.03-21.9-12.03-15.64,0-25.27,11.55-25.27,31.29M499.69,539.38v-103.96c0-11.79,7.7-18.77,16.85-18.77s16.85,6.98,16.85,18.77v4.57h.48c9.14-14.2,23.1-23.34,40.91-23.34,25.03,0,38.5,17.81,38.5,44.76v77.97h-36.1v-67.86c0-15.88-7.46-21.18-16.85-21.18-13.96,0-24.55,11.79-24.55,36.82v52.22h-36.1ZM422.68,510.98c-16.12,0-25.99-12.75-25.99-31.77s9.87-31.77,25.99-31.77,25.99,12.75,25.99,31.77-9.87,31.77-25.99,31.77M422.68,541.78c38.02,0,62.57-25.99,62.57-62.57s-24.55-62.57-62.57-62.57-62.57,25.99-62.57,62.57,24.55,62.57,62.57,62.57M286.47,510.98c-16.12,0-25.99-12.75-25.99-31.77s9.87-31.77,25.99-31.77,25.99,12.75,25.99,31.77-9.87,31.77-25.99,31.77M298.51,416.64c-14.68,0-27.43,6.02-37.54,19.01h-.48v-57.52c0-12.27-8.18-19.97-18.05-19.97s-18.05,7.7-18.05,19.97v161.24h33.69v-18.29h.48c8.18,13,22.14,20.7,38.75,20.7,31.04,0,52.22-26.71,52.22-63.05s-20.22-62.09-51.02-62.09" class="cls-1"/><path d="M192.55,492.49c-4.71,9.03-16.49,19.84-30.9,19.84-8.14,0-12.9-3.52-16.27-6.44l63.85-45.79c-7.41-24.18-25.2-43.46-58.35-43.46-38.21,0-56.39,31.75-56.39,57.26,0,10.82,2.1,20.71,5.8,29.4-8.2,4.47-14.5,7.82-20.28,7.82-10.72,0-15.78-6.28-15.78-17.98v-115.32c-.01-12.23-8.17-19.9-18-19.9-9.83,0-17.98,7.68-17.98,19.91v118.39c.01,27.21,19.1,45.31,46.17,45.31,13.38,0,26.87-4.55,42.56-14.96,11.03,9.69,25.2,15.22,40.4,15.22,31.16,0,49.82-13.69,58.9-32.17l-23.74-17.13ZM150.89,445.46c11.94,0,16.29,7.2,18.46,10.46l-40.02,29.8c-1.43-3.71-2.65-9.63-2.65-13.64,0-18.25,12.82-26.61,24.21-26.61Z" class="cls-1"/><g id="ueOfIV.tif"><path d="M1028.87,637.69c-5.94-.1-11.87-.25-17.81-.29-8.51-.05-17.02-.01-25.94-.01v88.75h-22.16v-177.43h21.9v66.23h44.56c0,3.34.07,6.31-.02,9.28-.13,4.51-.38,9.01-.57,13.52l.04-.04Z" class="cls-2"/><path d="M734.71,637.42h-22.03v88.75h-22.13v-88.75h-21.99v-22.18h21.9v-22.13h22.11v21.92h22.16v22.39Z" class="cls-2"/><path d="M818.26,637.47h22.11v44.25h-66.51c0,3.08-.07,5.82.02,8.55.14,4.5.37,8.99.57,13.48l.07-.06h-22.58v-66.21h22.34l-.15-.12v22.1h44.23v-22.1l-.09.1Z" class="cls-2"/><path d="M1028.83,637.74h22.57v88.39h-21.99c0-1.52,0-2.88,0-4.25,0-26.72,0-53.44-.02-80.16,0-1.34-.33-2.69-.52-4.03,0,0-.05.05-.05.05Z" class="cls-2"/><path d="M884.66,637.26c.09.92.26,1.84.26,2.76.02,20.53.01,41.06,0,61.6,0,.81-.12,1.62-.18,2.43l.1-.09h-21.87v-66.6h21.79l-.11-.1Z" class="cls-2"/><path d="M884.77,637.36v-21.97h55.54v21.88c-18.64,0-37.14,0-55.65,0,0,0,.11.09.11.09Z" class="cls-2"/><path d="M774.45,703.75c3.13.1,6.27.27,9.4.27,13.77.03,27.54.01,41.31.01,1.26,0,2.53,0,4.04,0v22.05h-55.34c0-6.1-.04-12.22.03-18.35.01-1.35.4-2.7.62-4.05,0,0-.06.06-.06.06Z" class="cls-2"/><path d="M884.75,704.05h55.5v22.04h-55.4c0-7.32,0-14.72,0-22.13,0,0-.1.09-.1.09Z" class="cls-2"/><path d="M774.28,637.48v-22.16h43.98c0,7.34,0,14.74,0,22.14,0,0,.09-.1.09-.1-14.74,0-29.48,0-44.23,0l.15.12Z" class="cls-2"/></g></svg>