<svg xmlns="http://www.w3.org/2000/svg" id="Calque_1" data-name="Calque 1" viewBox="0 0 422.47 87.91"><defs><style>.cls-1{fill:#9c9b9b}.cls-2{fill:#e95a9c}.cls-3{fill:#e75094}</style></defs><title>logo_conserto</title><path d="M179.35,69.5c-1.56-7.07-5.88-11.39-13.41-11.39-11.11,0-16.62,10.1-16.62,20.2s5.51,20.21,16.62,20.21c7.17,0,13-5.6,13.78-13.5h5.78c-1.56,11.39-9,18.36-19.56,18.36-14.51,0-22.4-11.47-22.4-25.07s7.89-25.06,22.4-25.06c10.1,0,17.91,5.41,19.2,16.25Z" class="cls-1" transform="translate(-48.73 -40.39)"/><path d="M233.26,78.31c0,13.6-7.9,25.07-22.41,25.07s-22.41-11.47-22.41-25.07,7.9-25.06,22.41-25.06S233.26,64.72,233.26,78.31Zm-39,0c0,10.11,5.51,20.21,16.62,20.21s16.62-10.1,16.62-20.21-5.51-20.2-16.62-20.2S194.23,68.21,194.23,78.31Z" class="cls-1" transform="translate(-48.73 -40.39)"/><path d="M239,54.62h5.79V62.8H245c2.12-5.7,8.45-9.55,15.16-9.55,13.31,0,17.35,7,17.35,18.27V102h-5.79V72.44c0-8.18-2.66-14.33-12-14.33-9.19,0-14.7,7-14.88,16.26V102H239Z" class="cls-1" transform="translate(-48.73 -40.39)"/><path d="M314.07,68.49c-.27-7.16-5.78-10.38-12.4-10.38-5.14,0-11.2,2-11.2,8.18,0,5.14,5.88,7,9.83,8L308,76c6.61,1,13.5,4.87,13.5,13.13,0,10.29-10.19,14.23-19,14.23-11,0-18.55-5.14-19.47-16.71h5.79c.46,7.81,6.24,11.85,14,11.85,5.41,0,12.94-2.39,12.94-9,0-5.51-5.14-7.35-10.37-8.63l-7.44-1.66c-7.53-2-13.22-4.59-13.22-12.67,0-9.64,9.45-13.31,17.81-13.31,9.46,0,17,5,17.36,15.24Z" class="cls-1" transform="translate(-48.73 -40.39)"/><path d="M330.51,79.88c.09,8.44,4.5,18.64,15.61,18.64,8.45,0,13-5,14.88-12.12h5.78c-2.48,10.74-8.72,17-20.66,17-15.06,0-21.4-11.57-21.4-25.07,0-12.48,6.34-25.06,21.4-25.06,15.24,0,21.3,13.31,20.85,26.63ZM361.18,75c-.28-8.72-5.69-16.9-15.06-16.9S331.43,66.38,330.51,75Z" class="cls-1" transform="translate(-48.73 -40.39)"/><path d="M372,54.62h5.32V65.73h.19c2.94-7.62,9.37-12.12,17.91-11.75v5.79c-10.47-.56-17.64,7.16-17.64,17V102H372Z" class="cls-1" transform="translate(-48.73 -40.39)"/><path d="M412.15,54.62h9.64v4.87h-9.64v32c0,3.76.55,6,4.68,6.24a43.4,43.4,0,0,0,5-.28v5c-1.74,0-3.4.19-5.14.19-7.72,0-10.38-2.57-10.29-10.65V59.49H398.1V54.62h8.26V40.39h5.79Z" class="cls-2" transform="translate(-48.73 -40.39)"/><path d="M471.2,78.31c0,13.6-7.9,25.07-22.41,25.07s-22.41-11.47-22.41-25.07,7.9-25.06,22.41-25.06S471.2,64.72,471.2,78.31Zm-39,0c0,10.11,5.51,20.21,16.62,20.21s16.62-10.1,16.62-20.21-5.51-20.2-16.62-20.2S432.17,68.21,432.17,78.31Z" class="cls-2" transform="translate(-48.73 -40.39)"/><path d="M306.63,120.27a3.39,3.39,0,0,0-3.43-2.7c-3,0-4.21,2.47-4.21,4.91s1.25,4.91,4.21,4.91a3.65,3.65,0,0,0,3.58-3.58h1.06c-.29,2.73-2,4.48-4.64,4.48-3.52,0-5.27-2.76-5.27-5.81s1.75-5.82,5.27-5.82a4.28,4.28,0,0,1,4.49,3.61Z" class="cls-1" transform="translate(-48.73 -40.39)"/><path d="M314.6,116.66c3.5,0,5.25,2.77,5.25,5.82s-1.75,5.81-5.25,5.81-5.27-2.76-5.27-5.81S311.08,116.66,314.6,116.66Zm0,10.73c2.93,0,4.19-2.47,4.19-4.91s-1.26-4.91-4.19-4.91-4.21,2.47-4.21,4.91S311.64,127.39,314.6,127.39Z" class="cls-1" transform="translate(-48.73 -40.39)"/><path d="M321.94,116.89h1.19l6.5,9.45h0v-9.45h1.06v11.17h-1.19l-6.5-9.45h0v9.45h-1.06Z" class="cls-1" transform="translate(-48.73 -40.39)"/><path d="M333.91,124.38c0,2.3,1.61,3,3.65,3,1.17,0,2.95-.64,2.95-2.27,0-1.27-1.26-1.77-2.29-2l-2.49-.61c-1.32-.33-2.52-.95-2.52-2.69,0-1.09.7-3.14,3.85-3.14,2.2,0,4.14,1.19,4.13,3.47h-1.07c-.06-1.7-1.47-2.56-3.05-2.56s-2.8.56-2.8,2.22c0,1,.79,1.48,1.69,1.7l2.72.67c1.58.43,2.9,1.11,2.9,2.94,0,.77-.32,3.19-4.27,3.19-2.65,0-4.58-1.18-4.46-3.91Z" class="cls-1" transform="translate(-48.73 -40.39)"/><path d="M343.71,116.89h7.72v.91h-6.65v4H351v.9h-6.22v4.41h6.72v.91h-7.79Z" class="cls-1" transform="translate(-48.73 -40.39)"/><path d="M353.52,116.89h1.06v11.17h-1.06Z" class="cls-1" transform="translate(-48.73 -40.39)"/><path d="M357.36,116.89h1.06v10.26h6.26v.91h-7.32Z" class="cls-1" transform="translate(-48.73 -40.39)"/><path d="M366.71,124.38c0,2.3,1.61,3,3.64,3,1.18,0,3-.64,3-2.27,0-1.27-1.27-1.77-2.3-2l-2.49-.61c-1.31-.33-2.51-.95-2.51-2.69,0-1.09.7-3.14,3.84-3.14,2.21,0,4.15,1.19,4.13,3.47h-1.06a2.75,2.75,0,0,0-3.05-2.56c-1.46,0-2.8.56-2.8,2.22,0,1,.78,1.48,1.69,1.7l2.72.67c1.58.43,2.89,1.11,2.89,2.94,0,.77-.31,3.19-4.27,3.19-2.64,0-4.58-1.18-4.46-3.91Z" class="cls-1" transform="translate(-48.73 -40.39)"/><path d="M387.45,126.61a4.23,4.23,0,0,1-3.28,1.68,3.06,3.06,0,0,1-3.38-3.12c0-1.6,1.49-2.65,2.74-3.32a4.67,4.67,0,0,1-1.38-2.69,2.48,2.48,0,0,1,4.94,0c0,1.39-1.07,2.19-2.18,2.89l2.43,2.94a3.8,3.8,0,0,0,.33-1.87h1a5.92,5.92,0,0,1-.66,2.67l1.88,2.27h-1.24Zm-3.39-4.12c-1.06.58-2.28,1.43-2.28,2.77a2.3,2.3,0,0,0,2.42,2.21,3.32,3.32,0,0,0,2.64-1.6Zm-.92-3.33a4.34,4.34,0,0,0,1.25,2.25c.78-.48,1.72-1.17,1.72-2.25a1.49,1.49,0,0,0-3,0Z" class="cls-1" transform="translate(-48.73 -40.39)"/><path d="M396.61,124.38c-.05,2.3,1.61,3,3.64,3,1.18,0,3-.64,3-2.27,0-1.27-1.27-1.77-2.3-2l-2.49-.61c-1.31-.33-2.51-.95-2.51-2.69,0-1.09.7-3.14,3.84-3.14,2.21,0,4.15,1.19,4.13,3.47h-1.06c-.06-1.7-1.47-2.56-3.05-2.56s-2.8.56-2.8,2.22c0,1,.78,1.48,1.69,1.7l2.72.67c1.58.43,2.89,1.11,2.89,2.94,0,.77-.31,3.19-4.27,3.19-2.64,0-4.58-1.18-4.45-3.91Z" class="cls-1" transform="translate(-48.73 -40.39)"/><path d="M406.41,116.89h7.71v.91h-6.64v4h6.22v.9h-6.22v4.41h6.72v.91h-7.79Z" class="cls-1" transform="translate(-48.73 -40.39)"/><path d="M416.13,116.89h5.12c1.84,0,3.39.9,3.39,2.91a2.68,2.68,0,0,1-2.17,2.85v0c1.45.19,1.87,1.19,1.95,2.52.05.76.05,2.3.52,2.86h-1.17a4.35,4.35,0,0,1-.3-1.74c-.09-1.56-.22-3.3-2.24-3.22h-4v5h-1.07Zm1.07,5.31h4a2.22,2.22,0,0,0,2.41-2.18,2.1,2.1,0,0,0-2.41-2.22h-4Z" class="cls-1" transform="translate(-48.73 -40.39)"/><path d="M425.87,116.89H427l3.63,10h0l3.6-10h1.12l-4.14,11.17H430Z" class="cls-1" transform="translate(-48.73 -40.39)"/><path d="M436.91,116.89H438v11.17h-1.06Z" class="cls-1" transform="translate(-48.73 -40.39)"/><path d="M448.91,120.27a3.37,3.37,0,0,0-3.42-2.7c-2.95,0-4.21,2.47-4.21,4.91s1.26,4.91,4.21,4.91a3.66,3.66,0,0,0,3.58-3.58h1.07c-.3,2.73-2,4.48-4.65,4.48-3.52,0-5.27-2.76-5.27-5.81s1.75-5.82,5.27-5.82a4.28,4.28,0,0,1,4.49,3.61Z" class="cls-1" transform="translate(-48.73 -40.39)"/><path d="M452.21,116.89h7.71v.91h-6.65v4h6.23v.9h-6.23v4.41H460v.91h-7.79Z" class="cls-1" transform="translate(-48.73 -40.39)"/><path d="M462.43,124.38c0,2.3,1.61,3,3.65,3,1.17,0,2.95-.64,2.95-2.27,0-1.27-1.27-1.77-2.3-2l-2.48-.61c-1.32-.33-2.52-.95-2.52-2.69,0-1.09.7-3.14,3.85-3.14,2.2,0,4.14,1.19,4.12,3.47h-1.06c-.06-1.7-1.47-2.56-3.05-2.56s-2.8.56-2.8,2.22c0,1,.78,1.48,1.69,1.7l2.72.67c1.58.43,2.89,1.11,2.89,2.94,0,.77-.31,3.19-4.26,3.19-2.65,0-4.59-1.18-4.46-3.91Z" class="cls-1" transform="translate(-48.73 -40.39)"/><g id="logo_petit" data-name="logo petit"><path d="M115.43,94c3.31,7.41,3.75,13.09,1.2,15.57a6.35,6.35,0,0,1-4.57,1.5c-5.34,0-13.14-3.54-21.33-9.37-1,.83-2,1.63-3,2.4,9.17,6.71,17.94,10.64,24.37,10.64a9.83,9.83,0,0,0,7.14-2.54c4.91-4.79,2.42-13.5-.53-20a79.84,79.84,0,0,0-7.22-12.32c-.75,1-1.52,2-2.32,3A71.51,71.51,0,0,1,115.43,94Z" class="cls-2" transform="translate(-48.73 -40.39)"/><path d="M75.92,88.92a116.68,116.68,0,0,1-8-9.1c-.78,1-1.53,2-2.24,3.05,2.36,2.94,4.92,5.84,7.63,8.62a121.82,121.82,0,0,0,9,8.37c1-.73,2-1.5,3-2.3A115.47,115.47,0,0,1,75.92,88.92Z" class="cls-3" transform="translate(-48.73 -40.39)"/><path d="M97,88.92c-12.71,13-27.57,22.14-36.14,22.14a6.38,6.38,0,0,1-4.58-1.5c-1.5-1.47-2-4-1.4-7.44a8.27,8.27,0,0,1-3.51-1.18c-.92,5-.14,8.82,2.35,11.25a9.82,9.82,0,0,0,7.14,2.54c9.78,0,25-9.12,38.77-23.24A111.6,111.6,0,0,0,114.1,73.43a8.53,8.53,0,0,1-3.24-1.76A107.58,107.58,0,0,1,97,88.92Z" class="cls-1" transform="translate(-48.73 -40.39)"/><path d="M116.64,47.7c1.76,1.72,2.08,5,1,9.27a8.4,8.4,0,0,1,3.44,1.34c1.54-5.91.91-10.5-1.9-13.24a9.82,9.82,0,0,0-7.14-2.55c-6.43,0-15.2,3.94-24.37,10.64,1,.77,2,1.57,3,2.4,8.19-5.82,16-9.36,21.33-9.36A6.35,6.35,0,0,1,116.64,47.7Z" class="cls-1" transform="translate(-48.73 -40.39)"/><path d="M75.92,68.33a113.54,113.54,0,0,1,9.4-8.63c-1-.8-2-1.57-3-2.3a121.63,121.63,0,0,0-9,8.36A108.32,108.32,0,0,0,57.81,85.55a8.43,8.43,0,0,1,3.29,1.64A105.67,105.67,0,0,1,75.92,68.33Z" class="cls-1" transform="translate(-48.73 -40.39)"/><path d="M116.4,58.25a7.06,7.06,0,1,0,7.06,7.06A7.06,7.06,0,0,0,116.4,58.25Zm0,11.83a4.77,4.77,0,1,1,4.77-4.77A4.76,4.76,0,0,1,116.4,70.08Z" class="cls-2" transform="translate(-48.73 -40.39)"/><path d="M55.79,86.67a7.07,7.07,0,1,0,7.06,7.06A7.06,7.06,0,0,0,55.79,86.67Zm0,11.9A4.65,4.65,0,0,1,52,96.65a4.77,4.77,0,1,1,7.54,0A4.67,4.67,0,0,1,55.79,98.57Z" class="cls-2" transform="translate(-48.73 -40.39)"/><path d="M99.67,65.76C85.9,51.65,70.68,42.52,60.9,42.52a9.82,9.82,0,0,0-7.14,2.55c-4.91,4.79-2.42,13.5.53,20a78.13,78.13,0,0,0,7.22,12.32c.74-1,1.52-2,2.32-3a72,72,0,0,1-6.3-11c-3.31-7.42-3.75-13.09-1.21-15.57a6.33,6.33,0,0,1,4.58-1.5c8.57,0,23.43,9.1,36.14,22.13a119.16,119.16,0,0,1,8,9.11c.78-1,1.52-2,2.24-3.06C104.94,71.44,102.38,68.54,99.67,65.76Z" class="cls-2" transform="translate(-48.73 -40.39)"/></g></svg>