<svg xmlns="http://www.w3.org/2000/svg" enable-background="new 0 0 283.5 283.5" version="1.1" viewBox="0 0 283.5 283.5" xml:space="preserve"><style type="text/css">.st0{fill:#1d1d1b}.st1{fill:#2979ff}</style><g><path d="m189 198.2v-7.1h5.4c2.8 0 4.4 1.2 4.4 3.5v0.1c0 2.2-1.7 3.5-4.4 3.5zm-3.8 10.7h3.7v-7.4h4.7l5.2 7.4h4.4l-5.7-8c2.9-0.8 5-2.9 5-6.4v-0.1c0-1.8-0.6-3.4-1.8-4.6-1.4-1.3-3.5-2.1-6.1-2.1h-9.5v21.2zm-20.3 0h15.9v-3.3h-12.2v-5.7h10.6v-3.3h-10.6v-5.6h12v-3.3h-15.7zm-16.5-10.2v-7.6h4.3c2.8 0 4.6 1.3 4.6 3.8v0.1c0 2.2-1.8 3.8-4.6 3.8h-4.3zm-3.7 10.2h3.7v-6.8h4.2c4.7 0 8.5-2.5 8.5-7.2v-0.1c0-4.3-3.1-7.1-8.1-7.1h-8.4v21.2zm-12 0.3c4.5 0 7.6-2.4 7.6-6.3v-0.1c0-3.5-2.3-5.1-6.8-6.2-4.1-1-5.1-1.7-5.1-3.3v-0.1c0-1.4 1.3-2.5 3.5-2.5 1.9 0 3.9 0.8 5.8 2.2l2-2.8c-2.2-1.7-4.6-2.7-7.7-2.7-4.2 0-7.2 2.5-7.2 6.2v0.1c0 3.9 2.5 5.2 7.1 6.3 3.9 0.9 4.8 1.7 4.8 3.2v0.1c0 1.6-1.5 2.7-3.8 2.7-2.6 0-4.7-1-6.7-2.8l-2.2 2.7c2.4 2.2 5.5 3.3 8.7 3.3m-16.8-0.3h3.7v-21.2h-3.7zm-28.3 0.1h3.2l5.2-15.3 5.2 15.3h3.2l7.4-21.4h-3.9l-5.1 15.7-5.2-15.8h-3.2l-5.2 15.8-5.1-15.7h-4z" class="st0" transform="matrix(1.728 0 0 1.728 -103.23 -103.16)"/><path d="m198.4 74.3c-7.8 0-14.2 6.3-14.2 14.2 0 4.9 2.5 9.2 6.2 11.7l-15.8 31.6c-1.4-0.5-3-0.8-4.6-0.8s-3.2 0.3-4.6 0.8l-15.8-31.6-1.8-3.7 8.1-8.1-14.2-14.2-14.2 14.2 8.1 8.1-17.6 35.3c-1.4-0.5-3-0.8-4.6-0.8s-3.2 0.3-4.6 0.8l-15.8-31.6c3.8-2.5 6.2-6.9 6.2-11.7 0-7.8-6.3-14.2-14.2-14.2s-14.2 6.3-14.2 14.2 6.3 14.2 14.2 14.2c1.6 0 3.2-0.3 4.6-0.8l15.8 31.6c-3.8 2.5-6.2 6.9-6.2 11.7 0 7.8 6.3 14.2 14.2 14.2 7.8 0 14.2-6.3 14.2-14.2 0-4.9-2.5-9.2-6.2-11.7l17.1-34.1 3.3 3.3 3.3-3.3 17.1 34.2c-3.8 2.5-6.2 6.9-6.2 11.7 0 7.8 6.3 14.2 14.2 14.2s14.2-6.3 14.2-14.2c0-4.9-2.5-9.2-6.2-11.7l15.8-31.6c1.4 0.5 3 0.8 4.6 0.8 7.8 0 14.2-6.3 14.2-14.2s-6.5-14.3-14.4-14.3zm-65.6 14.1 8.9-8.9 8.9 8.9-8.9 8.9z" class="st1" transform="matrix(1.728 0 0 1.728 -103.23 -103.16)"/></g></svg>