<svg width="500" height="500" version="1.0" viewBox="0 0 375 375" xmlns="http://www.w3.org/2000/svg">
    <g transform="matrix(.031391 0 0 -.030879 -.3132 357.09)">
        <path d="m347 11053c-4-3-7-1099-7-2435v-2428h3270v4870h-1628c-896 0-1632-3-1635-7zm3053-2428v-2225l-1422 2-1423 3-3 2210c-1 1216 0 2216 3 2223 3 9 298 12 1425 12h1420z"/>
        <path d="m897 10563c-4-3-7-177-7-385v-378h890v770h-438c-241 0-442-3-445-7z"/>
        <path d="m2217 10563c-4-3-7-620-7-1370v-1363h890l-2 1368-3 1367-436 3c-239 1-439-1-442-5z"/>
        <path d="m892 8003 3-1368 443-3 442-2v2740h-890z"/>
        <path d="m2212 7018 3-383h880l3 383 2 382h-890z"/>
        <path d="m4430 10823v-1362c-1-746 3-1358 8-1363 4-4 141-7 303-6l294 3 3 578 2 577h1040v-1160l303 2 302 3 3 1368 2 1367h-610v-1050l-517 2-518 3-3 523-2 522h-305c-168 0-305-3-305-7z"/>
        <path d="m7422 10568 3-263 308-3c169-1 307 1 307 5 0 5 1 123 1 263l1 255-311 3-311 2z"/>
        <path d="m8350 9872c0-527 2-961 4-963s144-3 315-1l311 3v1919h-630z"/>
        <path d="m9467 10823c-4-3-7-120-7-259 0-224 2-253 16-258 9-4 193-6 408-6l391 1 3-1100 2-1101 23-5c12-3 150-4 307-3l285 3 10 2206 407 2c223 1 408 4 410 7s2 121 0 263l-3 257h-1123c-617 0-1126-3-1129-7z"/>
        <path d="m7420 9035v-965l310 2 310 3 1 960v960l-311 3-310 2z"/>
        <path d="m8352 8358 3-263h620v520l-313 3-312 2z"/>
        <path d="m4397 7544c-4-4-7-106-7-226v-218h60v100c0 55 3 100 8 101 15 1 188 1 205 0 15-1 17-13 17-101v-100h60v450h-60v-191l-112 3-113 3-5 90c-5 81-7 90-25 93-12 2-24 0-28-4z"/>
        <path d="m4907 7543c-11-11-8-309 4-340 35-94 161-133 254-78 70 40 80 72 80 260v160l-27 3c-35 4-37-4-40-190-3-146-3-148-31-175-23-23-36-28-77-28s-54 5-77 28l-28 27-3 170c-3 169-3 170-26 170-12 0-26-3-29-7z"/>
        <path d="m5436 7538c-8-27-26-276-26-356v-83l28 3 27 3 6 145c4 80 7 151 8 158 2 20 25 14 36-11 110-243 108-238 133-235 20 3 33 22 79 123 30 66 60 126 66 134 17 21 25-17 26-130 1-53 4-117 7-143 6-43 9-47 33-44l26 3-4 105c-2 58-8 157-15 220-11 114-11 115-38 118-31 4-45-20-127-209-25-59-50-108-54-110-5-2-25 37-46 86-20 50-52 122-71 160-29 59-39 71-63 73-16 2-29-2-31-10z"/>
        <path d="m6173 7538c-10-14-53-105-53-113 0-3-8-24-19-48-10-23-33-80-51-127-17-47-36-93-41-102-17-33-11-48 20-48 23 0 31 6 41 33 28 76 27 75 72 82 51 7 155 2 165-9 5-4 15-28 24-54 14-41 19-47 47-50 18-2 32 1 32 6 0 15-77 222-115 307-7 17-23 54-36 83-19 44-27 52-50 52-14 0-31-6-36-12zm75-161c46-118 47-117-42-117-41 0-77 4-80 8-5 9 16 77 27 88 4 4 7 13 7 19 0 24 31 85 43 85 6 0 27-37 45-83z"/>
        <path d="m6530 7325v-225h60v170c0 97 4 170 9 170 13 0 146-179 199-267 35-58 49-73 68-73h24v451l-27-3-28-3-3-152c-1-84-6-153-10-153s-25 28-47 62c-41 63-169 227-189 240-6 4-21 8-33 8h-23z"/>
        <path d="m7278 7538c-2-7-4-107-4-223l1-210h60v440l-26 3c-15 2-28-3-31-10z"/>
        <path d="m7504 7537c-2-7-3-107-2-222l3-210 28-3 27-3v171c0 133 3 171 13 168 16-6 72-79 168-221 66-97 84-118 102-115 22 3 22 4 22 223v220l-54 6-3-152c-2-111-6-153-15-157-7-2-13 2-13 9 0 13-77 120-168 232-40 49-61 67-78 67-14 0-27-6-30-13z"/>
        <path d="m8047 7543c-4-3-7-105-7-225v-219l28 3 27 3 3 163c2 120 6 162 15 162 16-1 133-161 220-302 12-19 26-28 42-28h25v451l-27-3-28-3-5-152c-3-105-8-150-16-145-6 4-25 30-44 57-43 65-125 171-164 213-28 30-55 40-69 25z"/>
        <path d="m8685 7535c-116-40-168-202-105-325 75-147 306-146 382 3 26 52 29 164 5 218-43 98-169 144-282 104zm166-58c46-31 68-79 68-152 1-111-65-182-161-171-53 6-88 25-115 64-27 40-26 176 2 216 45 67 140 87 206 43z"/>
        <path d="m9080 7543c0-16 96-265 151-390 21-49 25-53 56-53 18 0 33 4 33 10 0 5 11 33 24 62 53 115 136 336 136 361 0 14-6 18-27 15-24-3-31-13-61-93-82-218-97-255-104-255-10 0-45 77-88 195-56 154-54 150-88 153-18 2-32 0-32-5z"/>
        <path d="m9681 7508c-10-24-45-108-76-188s-63-160-71-178c-12-28-12-33 0-38 30-12 51 2 66 43 9 24 21 48 27 54s47 13 91 16c86 6 132-9 132-43 0-8 7-28 15-44 12-23 22-30 46-30 32 0 33 8 9 65-4 11-27 70-51 130-23 61-57 143-75 183-31 66-36 72-63 72-26 0-33-6-50-42zm69-63c0-8 4-23 9-33 5-9 13-28 19-42 5-14 15-38 21-53 22-54 18-57-69-57-59 0-80 3-80 13 0 11 11 41 60 165 11 25 40 30 40 7z"/>
        <path d="m9974 7536c-11-27 7-36 71-36h65l2-197 3-198h60l2 185c0 102 2 190 2 197 1 8 25 13 69 15 59 3 67 5 67 23 0 19-8 20-168 23-140 2-168 0-173-12z"/>
        <path d="m10447 7543c-4-3-7-105-7-225v-218h60v450h-23c-13 0-27-3-30-7z"/>
        <path d="m10787 7535c-86-30-128-100-129-211 0-62 4-81 26-118 41-69 105-106 185-106 155 0 253 143 207 302-34 118-164 178-289 133zm164-58c45-30 69-80 69-144 0-115-53-178-150-177-66 0-103 21-131 75-24 48-25 140-1 189 38 77 142 105 213 57z"/>
        <path d="m11247 7543c-4-3-7-105-7-225v-218h60v165c0 125 3 165 13 165 14 0 120-140 192-253 42-67 53-78 75-75l25 3v440l-24 3c-13 2-27-2-31-9-5-6-7-77-6-156 0-78-2-143-6-143-5 0-29 30-56 67-57 81-172 225-186 235s-41 10-49 1z"/>
        <path d="m4407 6833c-4-3-7-105-7-225v-218h60v450h-23c-13 0-27-3-30-7z"/>
        <path d="m4634 6827c-2-7-3-107-2-222l3-210h58l-2 157c-3 222-5 222 165-24 79-114 100-138 120-138h24l-2 223-3 222-27 3-28 3v-155c0-92-4-156-10-156-5 0-24 21-41 48-35 50-110 150-167 220-35 42-77 57-88 29z"/>
        <path d="m5215 6826c-63-28-88-90-61-148 19-38 32-48 117-83 78-31 99-50 99-87 0-49-24-63-104-61-39 1-82 4-96 5-19 2-26-2-28-17-2-16 6-23 37-32 54-17 141-16 182 1 56 23 73 49 72 109-1 47-4 55-37 83-20 17-61 39-92 49-64 20-94 47-94 87 0 46 36 62 126 54 74-7 75-7 72 16-2 14-12 25-28 29-42 12-133 9-165-5z"/>
        <path d="m5574 6827c-2-7-3-107-2-222l3-210 28-3 27-3v451h-25c-14 0-28-6-31-13z"/>
        <path d="m5813 6834c-10-4-13-57-13-214 0-244-7-230 112-230 149 0 228 55 258 178 22 93-22 197-102 242-35 19-59 24-142 27-56 1-107 0-113-3zm201-58c68-28 102-105 90-199-6-40-15-58-45-88-31-31-47-39-93-44-31-4-67-4-81-1l-25 6v164c0 89 3 166 7 169 12 12 113 7 147-7z"/>
        <path d="m6330 6615v-225h290v25c0 24 0 24-112 27l-113 3v160l93 3c84 2 92 4 92 22s-7 20-79 20c-111 0-111 0-111 76v64h98c102 0 129 8 119 34-5 14-27 16-142 16h-135z"/>
        <path d="m6917 6826c-10-24 16-36 80-36h63v-400h60l2 198 3 197 67 5c72 5 84 11 75 35-5 13-32 15-176 15-134 0-170-3-174-14z"/>
        <path d="m7397 6833c-4-3-7-105-7-225v-218h290v25c0 24 0 24-112 27l-113 3v160l93 3c89 3 93 4 90 24s-8 21-81 19c-98-3-107 4-107 80v59h98c98 0 126 9 115 36-4 11-34 14-132 14-70 0-131-3-134-7z"/>
        <path d="m7917 6825c-175-62-181-343-9-416 76-33 222-18 222 22 0 26-8 28-75 16-83-13-136 2-172 50-25 33-28 44-28 117 0 69 4 86 23 114 13 18 36 39 52 47 34 17 107 20 146 5 21-8 31-8 42 4 19 19 9 33-36 46-50 14-119 12-165-5z"/>
        <path d="m8267 6833c-4-3-7-105-7-225v-218h60v99c0 73 3 100 13 104 18 7 166 7 195 0 21-5 22-10 22-104v-99h60v450h-60v-191l-112 3-113 3-3 93c-3 88-4 92-26 92-12 0-26-3-29-7z"/>
        <path d="m8780 6615v-225h60v170c0 94 4 170 9 170 15 0 157-193 214-292 21-37 34-48 52-48h25v451l-27-3-28-3-3-152c-1-84-6-153-10-153s-25 28-47 62c-41 63-169 227-189 240-6 4-21 8-33 8h-23z"/>
        <path d="m9427 6825c-82-29-127-102-127-208 0-112 47-183 141-215 111-38 229 16 274 125 32 77 11 193-45 252-54 56-160 76-243 46zm183-70c16-15 37-51 46-78 14-42 15-58 5-104-22-94-87-143-173-129-55 9-83 30-107 82-41 85-15 203 53 246 48 29 136 21 176-17z"/>
        <path d="m9884 6827c-2-7-3-107-2-222l3-210 124-3c69-1 130-1 137 2s10 14 7 25c-5 19-13 21-103 21-70 0-99 4-103 13-2 7-5 91-5 187s-1 181-1 188c-1 16-50 16-57-1z"/>
        <path d="m10376 6833c-112-29-180-192-130-311 55-132 221-173 341-83 97 73 98 274 2 356-47 38-143 56-213 38zm149-63c88-55 98-214 18-292-32-31-38-33-100-32-62 0-68 2-99 36-57 63-67 160-25 238 35 66 139 91 206 50z"/>
        <path d="m10937 6830c-87-26-137-108-137-224 0-67 3-78 33-122 44-65 101-94 187-93 36 0 80 6 98 13l34 12v189l-62 6v-80c0-78-1-81-26-87-35-9-109 2-139 22-91 59-81 254 15 305 38 21 113 25 156 9 21-8 31-8 42 4 8 8 11 19 8 25-17 27-146 40-209 21z"/>
        <path d="m11270 6825c0-8 4-15 9-15s11-8 14-17c8-23 51-96 91-153 28-41 31-53 36-145l5-100h60l5 101c5 97 6 102 46 165 59 91 94 154 94 167 0 7-11 12-25 12-18 0-32-11-50-40-14-22-25-42-25-45 0-17-67-105-79-103-11 3-59 75-78 118-19 45-46 70-74 70-19 0-29-5-29-15z"/>
        <path d="m1179 5174c-289-52-481-212-543-450-20-79-21-241-1-317 55-213 217-348 560-468 191-66 304-129 326-181 14-35 14-101-2-130-6-11-36-32-67-46-53-25-66-27-192-26-183 1-287 24-453 101-42 20-79 34-82 31-7-7-156-431-152-434 2-2 47-24 100-49 209-97 455-136 731-115 347 26 553 153 646 395 32 83 40 280 16 389-54 242-212 373-626 521-236 84-298 137-274 234 7 30 18 40 59 61 46 23 60 25 185 24 119-1 145-4 220-28 47-16 111-41 142-57 32-16 62-29 67-29s16 19 24 43c8 23 43 118 76 211 34 93 61 172 61 176 0 11-125 66-227 100-172 57-421 76-594 44z"/>
        <path d="m3045 5179c-33-5-100-20-150-34-496-141-761-595-694-1192 45-407 247-687 580-805 293-103 739-79 1025 56 86 41 96 48 91 68-3 13-35 112-73 221-54 160-70 197-83 193-9-2-56-21-105-41-137-57-255-78-411-72-149 4-206 21-298 87-128 92-196 286-184 525 10 182 57 307 149 397 90 88 187 121 346 120 153-1 280-31 414-98l66-33 32 87c82 225 121 345 116 357-8 21-162 92-261 120-176 50-396 68-560 44z"/>
        <path d="m6745 5180c-256-40-483-166-622-344-154-198-223-414-223-700 0-331 90-575 285-772 175-177 402-270 675-279 208-6 366 27 538 111 92 46 128 70 196 135 176 166 272 362 307 627 14 109 7 352-15 448-85 392-332 654-704 750-109 29-330 40-437 24zm246-480c119-23 227-97 286-197 55-95 75-177 81-334 4-124 1-157-16-226-29-114-68-189-132-254-96-97-228-139-375-118-187 26-321 161-371 377-22 92-21 289 2 378 68 278 271 422 525 374z"/>
        <path d="m8915 5184c-188-28-346-89-477-186-137-101-256-258-319-423-110-285-97-700 30-954 106-213 234-342 431-435 266-126 605-136 884-28 295 115 495 363 567 704 27 126 32 379 10 498-92 508-443 811-956 825-77 2-153 1-170-1zm244-489c166-39 275-157 328-355 25-90 24-319 0-409-56-209-185-334-369-360-250-35-431 95-505 362-24 89-24 318 1 407 41 149 125 268 224 319 95 48 212 61 321 36z"/>
        <path d="m4035 5138c-3-7-4-463-3-1013l3-1e3h530l3 408 2 407h620v-820l268 2 267 3v2020h-530l-3-367-2-368h-620l-2 368-3 367-263 3c-205 2-264 0-267-10z"/>
        <path d="m10230 4135v-1015h1380v470l-422 2-423 3-3 778-2 777h-530z"/>
        <path d="m2050 2472-155-27-3-907c-2-856-1-908 15-917 10-5 64-18 120-30 252-51 505-54 648-8 248 80 389 262 426 545 15 118 0 288-37 402-46 145-144 265-271 329-134 67-349 70-515 6-17-7-18 12-18 314v321l-27-1c-16 0-98-13-183-27zm535-900c72-37 107-91 131-200 26-123 15-237-32-342-51-114-134-163-275-163-47 0-99 4-117 8l-32 7v658l23 14c71 47 228 57 302 18z"/>
        <path d="m3180 2381c0-9 25-53 280-496 73-126 155-269 182-317 28-49 53-88 57-88 9 0 213 350 209 359-2 4-75 130-163 279l-159 272h-203c-116 0-203-4-203-9z"/>
        <path d="m6807 2384c-4-4-7-412-7-906v-898h410v770l338-2 337-3 3-382 2-383h410l-2 903-3 902-202 3-203 2v-690h-680l-2 343-3 342-196 3c-107 1-198-1-202-4z"/>
        <path d="m8779 2386c-2-2-3-81-1-175l3-171h399v350h-198c-109 0-201-2-203-4z"/>
        <path d="m9387 2384c-4-4-7-288-7-631v-623h410l-2 628-3 627-196 3c-107 1-198-1-202-4z"/>
        <path d="m10117 2383c-4-3-7-82-7-175v-168l273-2 272-3 3-727 2-728h405v1455l273 3 272 2v350h-743c-409 0-747-3-750-7z"/>
        <path d="m4434 2233c-48-82-99-168-114-193s-43-72-62-105-178-303-353-600-346-588-381-647l-62-108h435l278 483c357 620 702 1220 733 1275l24 42h-411z"/>
        <path d="m927 1898c-244-414-337-575-337-584 0-11 48-96 235-419 54-93 110-190 123-215 48-87 30-81 269-79 117 1 213 3 213 6 0 2-61 108-137 236-75 128-168 286-206 351l-70 120 23 40c167 289 390 679 390 682 0 2-94 4-209 4h-209z"/>
        <path d="m5198 2008c72-120 385-672 389-687 3-11-31-79-90-177-241-406-308-525-303-533 3-5 100-10 215-10l209-2 82 143c46 79 116 199 155 268 40 69 96 165 124 214l52 89-157 266c-87 146-183 310-213 363l-56 98h-427z"/>
        <path d="m8780 1210v-630h400v1260h-400z"/>
        <path d="m9380 755v-175h410v350h-410z"/>
    </g>
</svg>