<svg xmlns="http://www.w3.org/2000/svg" id="Layer_1" x="0" y="0" version="1.1" viewBox="0 0 2146.89 354.8" style="enable-background:new 0 0 2146.89 354.8" xml:space="preserve"><style type="text/css">.st0{fill:#46beaa}</style><g><g><path d="M1735.01,123.38c-7.15,6.27-13.85,13.05-20.04,20.27c29.99,30.12,51.64,76.1,58.92,129.35h28.85 c-5.81-46.92-21.92-90.24-46.77-124.79C1749.42,139.1,1742.4,130.82,1735.01,123.38z" class="st0"/><path d="M1699.85,163.75c-5.54,8.42-10.47,17.28-14.7,26.53c17.17,21.41,29.81,50.12,35.57,82.72h28.96 c-5.47-35.03-18.09-67.31-36.92-93.42C1708.66,173.91,1704.35,168.63,1699.85,163.75z" class="st0"/><path d="M1667.18,273h29.05c-4.18-19.86-11.47-38.34-21.54-54.34C1669.8,235.93,1667.18,254.16,1667.18,273z" class="st0"/><path d="M1982.42,111.57c-3.76-2.72-7.63-5.3-11.58-7.76c-1.8,1.88-3.59,3.78-5.34,5.73 c-23.12,25.68-49.32,64.97-63.19,120.26c-4.25-22.31-10.22-43.86-17.83-64.34c15.06-33.69,33.76-59.74,50.99-78.98 c-4.64-1.73-9.36-3.29-14.16-4.67c-14.8,17.19-30.35,39.12-43.79,66.23c-9.68-22.5-21.43-43.51-35.1-62.57 c-2.23-3.11-4.5-6.12-6.8-9.09c-10.58,1.63-20.88,4.1-30.84,7.33c23.87,27.63,43.35,62.64,56.69,102.58 c-4.91,14.08-9.17,29.2-12.49,45.44c-9.4-42.85-26.3-82.18-49.78-114.88c-6.01-8.37-12.34-16.16-18.96-23.34 c-8.87,4.25-17.38,9.14-25.47,14.62c37.73,38.2,64.47,97.06,72.03,164.88h29.89c2.22-22.99,6.33-44.05,11.76-63.26 c5.28,20.14,9.04,41.32,11.1,63.26h28.87c8.53-74.19,40.12-124.13,67.27-154.28C1977.92,116.25,1980.17,113.88,1982.42,111.57z" class="st0"/><path d="M2019.9,146.75c-2.94-3.57-6-7.04-9.17-10.4c-30.66,31.41-56.29,76.97-64.3,136.65h13.86 c8.19-57.93,33.36-97.3,55.1-121.42C2016.88,149.92,2018.39,148.32,2019.9,146.75z" class="st0"/><path d="M1998.5,273h13.93c6.57-35.91,21.34-62.23,35.73-80.37c-2.05-4.63-4.26-9.16-6.64-13.6 C2021.55,202.36,2005.22,233.7,1998.5,273z" class="st0"/><path d="M2062.48,240.84c-4.75,9.7-8.66,20.42-11.42,32.16h14.02C2065.08,262.05,2064.19,251.31,2062.48,240.84z" class="st0"/></g><g><polygon points="807.2 81.8 764.25 81.8 764.25 273 882.11 273 882.11 235.28 807.2 235.28" class="st0"/><polygon points="1119.64 81.8 1104.11 81.8 1104.11 273 1206.78 273 1206.78 259.05 1119.64 259.05" class="st0"/><rect width="15.54" height="191.2" x="1224.68" y="81.8" class="st0"/><polygon points="1491.4 259.05 1491.4 181.87 1575.91 181.87 1575.91 168.22 1491.4 168.22 1491.4 95.75 1582.22 95.75 1582.22 81.8 1475.87 81.8 1475.87 273 1585.38 273 1585.38 259.05" class="st0"/><polygon points="1423.97 259.05 1420.81 259.05 1310.07 81.8 1282.14 81.8 1282.14 273 1297.6 273 1297.6 95.75 1301.38 95.75 1412.13 273 1439.46 273 1439.46 81.8 1423.97 81.8" class="st0"/><polygon points="275.81 235.28 272.6 235.28 241.11 87.04 196.41 87.04 168.26 235.28 164.11 235.28 125.77 81.8 81.8 81.8 128.95 273 194.82 273 218.51 156.55 244.02 273 311.2 273 353.1 81.8 308.94 81.8" class="st0"/><path d="M1048.69,108.52c-20.38-19.93-47.12-28.37-77.79-28.29c0,0-70.98,0-70.98,0v193.82h70.98 c17.29,0,32.39-2.66,45.31-7.99c24.37-9.83,42.88-28.39,51.99-51.99c5.09-12.98,6.82-26.42,6.42-40.07 C1074.58,149.49,1066.25,125.89,1048.69,108.52z M1025.82,202.81c-5.43,14.17-15.48,24.23-29.73,29.59 c-7.16,2.71-15.28,4.06-24.36,4.06h-28.86V117.81h28.86c9.08,0,17.2,1.22,24.36,3.67c14.28,4.83,24.31,14.85,29.73,28.81 C1031.17,165.12,1031.3,187.75,1025.82,202.81z" class="st0"/><path d="M500.32,84.55c-24.44-11.36-64.35-11.34-88.66,0c-24.24,10.66-42.41,30.11-51.34,54.22 c-5.07,13.48-6.8,27.07-6.41,40.99c0.34,36.6,22.34,73.49,56.97,89.32c24.57,12.23,65.8,12.22,90.36,0 c34.63-15.82,56.63-52.72,56.97-89.32c1.11-26.16-7.79-52.94-25.93-72.55C523.72,97.78,513.07,90.23,500.32,84.55z M456.18,239.12 c-36.41,0-57.32-28.64-57.32-61.89c0-34.48,19.62-61.89,57.32-61.89c31.96,0,57.32,22.04,57.32,61.89 C513.5,210.68,492.17,239.12,456.18,239.12z" class="st0"/><path d="M723.61,183.81c7.12-9.96,10.1-24.74,9.55-39.42c0-14.14-3.14-25.97-9.43-35.49 c-14.88-21.96-40.76-28.47-68.36-28.68c0,0-75.17,0-75.17,0V273h42.96v-59.2c0.85-0.01,31.62,0.02,32.53-0.01L696.24,273H746 l-48.83-68.46C708.51,199.91,717.33,193.01,723.61,183.81z M684.51,163.39c-5.65,9.88-15.24,14.58-26.98,14.54h-34.37v-60.11 h34.37c6.28,0,11.7,0.09,16.24,2.62c4.54,2.53,8.12,6.11,10.74,10.74C689.66,139.98,689.84,154.42,684.51,163.39z" class="st0"/></g></g></svg>