<svg xmlns="http://www.w3.org/2000/svg" width="305" height="92" viewBox="0 0 305 92">
    <g fill="none" fill-rule="evenodd">
        <path fill="#FF2674" d="M34.561 78.975c0 7.844 5.104 12.282 11.45 12.306.016 0-.016 0 0 0 6.324.002 11.54-5.976 11.566-12.306L46.003 67.257 34.561 78.975z"/>
        <path fill="#FF4967" d="M30.494 12.753a11.432 11.432 0 0 0-8.062-3.546c-3.094-.058-5.99 1.068-8.21 3.192-4.584 4.39-4.742 11.688-.354 16.272l1.718 1.794 24.332.104 3.916-3.882-13.34-13.934zM78.353 62.739l-1.718-1.794-24.332-.104-3.916 3.882 13.34 13.934c4.388 4.58 11.69 4.74 16.272.354 4.582-4.39 4.742-11.688.354-16.272"/>
        <path fill="#FF2674" d="M79.246 34.335L55.92 57.255l24.742.106h.05c3.056 0 5.932-1.182 8.104-3.334A11.448 11.448 0 0 0 92.22 45.9c.026-6.344-4.974-11.728-12.974-11.566M11.558 34.05h-.054a11.425 11.425 0 0 0-8.098 3.334A11.439 11.439 0 0 0 0 45.508c-.014 3.074.578 11.556 13.16 11.556L36.3 34.156l-24.742-.106z"/>
        <path fill="#FF4967" d="M78.854 13.239c-4.468-4.506-11.768-4.54-16.274-.068L13.436 61.893c-4.506 4.47-4.538 11.77-.07 16.276 4.468 4.508 11.77 4.542 16.276.07l49.142-48.722c4.508-4.47 4.538-11.772.07-16.278"/>
        <path fill="#343A5E" d="M304.585 26.014c-.002-4.43-3.616-8.022-8.07-8.022h-6.08V3.26h-14.76l-.154 8.256c-.078 4.208-3.53 7.58-7.766 7.58h-4.54v14.382h4.552c6.24 0 6.152 7.858 6.152 7.858v13.32c0 13.932 7.824 18.938 17.448 18.938 7.52 0 9.444-1.614 9.444-1.614V58.758s-2.328.386-5.162.492c-3.944.148-5.214-2.834-5.214-5.938V34.04l6.08-.006c4.454 0 8.068-3.592 8.07-8.02M258.648 53.147V34.081l-.082-12.464c.048-.344.082-.692.082-1.05V8.731c0-4.26-3.564-7.712-7.96-7.712-4.27 0-7.744 3.256-7.942 7.344h-.02v46.078c0 13.394 7.542 18.208 16.82 18.208 1.644 0 3.012-.08 4.144-.204l-.016-13.588c-3.802.144-5.026-2.724-5.026-5.71M237.92 72.401h-14.227v-5.584c-6.392 8.364-19.998 5.048-22.304 4.238-8.61-3.026-10.474-9.522-10.724-10.254-.88-2.582-.77-4.836-.556-6.866.374-3.574 2.632-8.844 9.836-11.398 4.12-1.458 13.486-2.462 18.412-3.452 3.738-.75 3.61-3.018 3.61-3.018s.574-3.654-3.688-5.252c-5.872-1.876-11.918 2.16-11.978 2.202a6.865 6.865 0 0 1-3.892 1.198c-2.104 0-4.174-.944-5.486-2.72-2.154-2.916-1.446-6.962 1.58-9.038.358-.244 6.642-4.232 15.304-4.83.318-.032.648-.054.998-.062.084-.002.16.002.242 0a29.955 29.955 0 0 1 7.102.632l.104.022c.396.086.782.178 1.158.278l.044.01.022.008c11.972 3.194 14.442 13.58 14.442 17.658v36.228zm-20.767-12.5c6.534-2.624 4.602-11.66 4.602-11.66s-3.424 1.474-9.28 1.672c-5.856.196-7.018 4.42-6.494 7.12.526 2.704 4.636 5.494 11.172 2.868zM185.21 36.551c0-12.804-11.646-19.066-21.064-19.092-8.616 0-13.7 2.876-17.228 6.55-3.83-4.37-10.494-6.536-16.018-6.55-6.41 0-11.416 1.59-14.994 3.918a.975.975 0 0 1-1.224-.13l-.382-.382a6.84 6.84 0 0 0-9.668 0 6.824 6.824 0 0 0 0 9.666c.57.568 1.112.894 1.498 1.074a.984.984 0 0 1 .568.892v6.198l.002 25.96c0 4.27 3.46 7.73 7.728 7.73h.018a7.73 7.73 0 0 0 7.73-7.73V38.57c0-4.504 2.656-8.976 8.122-8.976 5.462 0 7.974 4.502 7.974 10.004v32.044h15.46V39.597c0-5.502 2.91-10.004 8.372-10.004s7.648 4.502 7.648 10.004v32.044h15.458v-35.09z"/>
        <path fill="#FF2674" d="M58.578 12.305c0-7.844-5.104-12.28-11.45-12.304-.016 0 .016 0 0 0C40.804 0 35.588 5.975 35.562 12.305l11.574 11.718 11.442-11.718z"/>
    </g>
</svg>
