<svg xmlns="http://www.w3.org/2000/svg" xmlns:xlink="http://www.w3.org/1999/xlink" id="Calque_1" x="0" y="0" version="1.1" viewBox="0 0 490.3 255.6" xml:space="preserve" style="enable-background:new 0 0 490.3 255.6"><style type="text/css">.st0{fill:#1c4d91}</style><g><path d="M91.4,92.7H50.7c0,0,0,0,0,0c0-8.7,7.1-15.8,15.9-15.8h82.9v0c0,8.7-7.1,15.8-15.9,15.8h-24.9v120.3h0 c-9.5,0-17.2-7.7-17.2-17.1V92.7z"/><path d="M181.5,193.5c-5,0-9-4-9-9c-5,6-12.7,10.5-23.8,10.5c-13.9,0-26.2-7.9-26.2-22.6v-0.3c0-16.2,12.7-24,29.8-24 c8.9,0,14.6,1.2,20.3,3v-1.4c0-10.1-6.4-15.6-18.1-15.6c-8.2,0-14.3,1.8-21,4.6l0,0c-1.3-3.9-0.9-8.1,1.2-11.7 c2.1-3.5,5.6-6,9.6-6.7c3.7-0.7,7.8-1.1,12.6-1.1c21.7,0,32.3,11.4,32.3,30.9v43.3H181.5z M172.8,162.9c-4.3-1.7-10.3-2.9-16.8-2.9 c-10.6,0-16.8,4.3-16.8,11.4v0.3c0,6.9,6.3,10.8,14.2,10.8c11.1,0,19.5-6.2,19.5-15.4V162.9z"/><path d="M206.3,92.4c9.3,0,16.8,7.5,16.8,16.8v84.3c-9.3,0-16.8-7.5-16.8-16.8V92.4z"/><path d="M295.3,193.5c-5,0-9-4-9-9c-5,6-12.7,10.5-23.8,10.5c-13.9,0-26.2-7.9-26.2-22.6v-0.3c0-16.2,12.7-24,29.8-24 c8.9,0,14.6,1.2,20.3,3v-1.4c0-10.1-6.4-15.6-18.1-15.6c-8.2,0-14.3,1.8-21,4.6l0,0c-1.3-3.9-0.9-8.1,1.2-11.7s5.6-6,9.6-6.7 c3.7-0.7,7.8-1.1,12.6-1.1c21.7,0,32.3,11.4,32.3,30.9v43.3H295.3z M286.7,162.9c-4.3-1.7-10.3-2.9-16.8-2.9 c-10.6,0-16.8,4.3-16.8,11.4v0.3c0,6.9,6.3,10.8,14.2,10.8c11.1,0,19.5-6.2,19.5-15.4V162.9z"/><path d="M320.1,120.4h5.4c6.3,0,11.4,5.1,11.4,11.4c4.7-6.9,11.6-12.9,23-12.9c16.6,0,26.2,11.1,26.2,28.1v46.5 c-9.3,0-16.8-7.5-16.8-16.8v-24.8c0-11.4-5.7-17.9-15.7-17.9c-9.7,0-16.6,6.8-16.6,18.1v41.3h-16.8V120.4z"/></g><path d="M422.3,73.6c0.9-0.3,1.9,0,2.6,0.6s1.1,1.6,1,2.5l-1.6,14.7c-0.1,0.7,0.1,1.4,0.5,1.9l11.2,16.8	c0.6,0.8,0.6,1.9,0.1,2.8c-0.5,0.9-1.4,1.5-2.5,1.4l-15.3-0.1c-1.1,0-2.2,0.7-2.5,1.8l-7.1,21.1c-0.5,1.5-2,2.5-3.6,2.4	c-1.6-0.1-2.9-1.3-3.2-2.8l-5-26.3c-0.2-0.9-1-1.6-1.9-1.6l-24.3-0.2c-1.2,0-2.2-0.7-2.6-1.8c-0.4-1.1-0.1-2.3,0.8-3.1l16.2-14.4	c0.5-0.5,0.8-1.2,0.6-1.9l-4.6-16c-0.4-1.3,0.1-2.8,1.2-3.6c1.1-0.9,2.6-1,3.8-0.3l17.5,10.1c0.8,0.4,1.7,0.6,2.5,0.3L422.3,73.6z" class="st0"/></svg>