<svg xmlns="http://www.w3.org/2000/svg" style="fill-rule:evenodd;clip-rule:evenodd;stroke-linejoin:round;stroke-miterlimit:1.41421" width="100%" height="100%" viewBox="35 206 508 164"><g id="Layer-1"><path d="M140.375,278.65l-40.356,0c-1.041,0 -1.886,0.845 -1.886,1.887l0,19.73c0,1.041 0.845,1.889 1.886,1.889l15.743,0l0,24.514c0,0 -3.535,1.205 -13.308,1.205c-11.53,0 -27.637,-4.213 -27.637,-39.632c0,-35.425 16.772,-40.086 32.518,-40.086c13.63,0 19.502,2.399 23.238,3.556c1.174,0.359 2.26,-0.81 2.26,-1.851l4.502,-19.064c0,-0.488 -0.165,-1.075 -0.721,-1.473c-1.517,-1.083 -10.774,-6.262 -34.16,-6.262c-26.941,0 -54.576,11.462 -54.576,66.562c0,55.101 31.64,63.312 58.302,63.312c22.076,0 35.468,-9.433 35.468,-9.433c0.552,-0.305 0.612,-1.077 0.612,-1.43l0,-61.537c0,-1.042 -0.844,-1.887 -1.885,-1.887" style="fill:#0e0d0d;fill-rule:nonzero"/><path d="M348.353,229.665c0,-1.05 -0.832,-1.897 -1.873,-1.897l-22.724,0c-1.038,0 -1.882,0.847 -1.882,1.897c0,0.005 0.007,43.913 0.007,43.913l-35.42,0l0,-43.913c0,-1.05 -0.836,-1.897 -1.875,-1.897l-22.721,0c-1.034,0 -1.876,0.847 -1.876,1.897l0,118.903c0,1.049 0.842,1.903 1.876,1.903l22.721,0c1.039,0 1.875,-0.854 1.875,-1.903l0,-50.859l35.42,0c0,0 -0.062,50.855 -0.062,50.859c0,1.049 0.844,1.903 1.882,1.903l22.776,0c1.041,0 1.873,-0.854 1.875,-1.903l0,-118.903Z" style="fill:#0e0d0d;fill-rule:nonzero"/><path d="M183.254,245.268c0,-8.182 -6.56,-14.793 -14.653,-14.793c-8.085,0 -14.65,6.611 -14.65,14.793c0,8.174 6.565,14.804 14.65,14.804c8.093,0 14.653,-6.63 14.653,-14.804" style="fill:#0e0d0d;fill-rule:nonzero"/><path d="M181.629,323.486l0,-54.886c0,-1.042 -0.841,-1.894 -1.88,-1.894l-22.651,0c-1.039,0 -1.969,1.072 -1.969,2.113l0,78.636c0,2.31 1.44,2.998 3.304,2.998l20.408,0c2.239,0 2.788,-1.1 2.788,-3.035l0,-23.932Z" style="fill:#0e0d0d;fill-rule:nonzero"/><path d="M434.71,266.885l-22.549,0c-1.034,0 -1.876,0.853 -1.876,1.901l0,58.302c0,0 -5.728,4.192 -13.859,4.192c-8.13,0 -10.288,-3.69 -10.288,-11.651l0,-50.843c0,-1.048 -0.84,-1.901 -1.875,-1.901l-22.885,0c-1.033,0 -1.879,0.853 -1.879,1.901l0,54.693c0,23.646 13.179,29.431 31.309,29.431c14.873,0 26.865,-8.216 26.865,-8.216c0,0 0.571,4.33 0.829,4.843c0.259,0.512 0.932,1.03 1.659,1.03l14.559,-0.065c1.033,0 1.879,-0.853 1.879,-1.898l-0.007,-79.818c0,-1.048 -0.843,-1.901 -1.882,-1.901" style="fill:#0e0d0d;fill-rule:nonzero"/><path d="M487.445,331.207c-7.821,-0.238 -13.126,-3.787 -13.126,-3.787l0,-37.654c0,0 5.233,-3.208 11.654,-3.782c8.12,-0.727 15.945,1.726 15.945,21.096c0,20.426 -3.532,24.457 -14.473,24.127m8.894,-66.993c-12.807,0 -21.518,5.714 -21.518,5.714l0,-40.263c0,-1.05 -0.839,-1.897 -1.875,-1.897l-22.787,0c-1.036,0 -1.878,0.847 -1.878,1.897l0,118.903c0,1.049 0.842,1.903 1.881,1.903l15.809,0c0.712,0 1.251,-0.368 1.65,-1.01c0.392,-0.639 0.96,-5.483 0.96,-5.483c0,0 9.317,8.831 26.957,8.831c20.708,0 32.584,-10.504 32.584,-47.155c0,-36.651 -18.967,-41.44 -31.783,-41.44" style="fill:#0e0d0d;fill-rule:nonzero"/><path d="M246.935,266.695l-17.045,0c0.001,0 -0.024,-22.513 -0.024,-22.518c0,-0.853 -0.44,-1.278 -1.425,-1.278l-23.228,0c-0.903,0 -1.387,0.397 -1.387,1.265l0,23.269c0,0 -11.641,2.81 -12.428,3.037c-0.783,0.228 -1.36,0.951 -1.36,1.813l0,14.622c0,1.052 0.839,1.9 1.878,1.9l11.91,0l0,35.179c0,26.129 18.328,28.695 30.695,28.695c5.651,0 12.411,-1.814 13.527,-2.226c0.675,-0.248 1.068,-0.947 1.068,-1.705l0.018,-16.086c0,-1.049 -0.886,-1.899 -1.884,-1.899c-0.993,0 -3.534,0.405 -6.15,0.405c-8.372,0 -11.209,-3.893 -11.209,-8.932c0,-5.035 -0.001,-33.431 -0.001,-33.431l17.046,0c1.039,0 1.881,-0.848 1.881,-1.9l0,-18.315c0,-1.05 -0.842,-1.895 -1.881,-1.895" style="fill:#0e0d0d;fill-rule:nonzero"/></g></svg>