<svg xmlns="http://www.w3.org/2000/svg" id="Calque_1" x="0" y="0" version="1.1" viewBox="0 0 595.3 207.1" xml:space="preserve" style="enable-background:new 0 0 595.3 207.1"><style type="text/css">.st0{fill:#0062ad}.st1{fill:#fdc300}</style><path d="M291.4,73.1c-3.2,0-5.6,2.5-5.6,5.7c0,3.2,2.4,5.6,5.6,5.6c3.2,0,5.7-2.4,5.7-5.6	C297.1,75.6,294.6,73.1,291.4,73.1" class="st0"/><path d="M141.5,123.8c0,16.1-11.5,27.8-27.1,27.8c-15.8,0-27-11.7-27-27.8c0-16.1,11.3-28,27-28	C130,95.8,141.5,107.7,141.5,123.8 M95.2,123.8c0,12,8,20.8,19.2,20.8c11.1,0,19.2-8.8,19.2-20.8c0-12-8-20.9-19.2-20.9	C103.2,102.9,95.2,111.8,95.2,123.8" class="st0"/><path d="M190.3,103.9l0.2-7.6h7.2v53.1c0,16.6-10.5,26.7-26.6,26.7c-10.5,0-18.3-4.4-23.7-11l5.1-5	c4.5,5.5,10.5,9.1,18.4,9.1c11.6,0,19-7.6,19-19.5v-5.9c-3.3,4-8.9,7.7-17.9,7.7c-14.7,0-24.9-11.7-24.9-27.9	c0-16.1,10.2-27.9,24.9-27.9C181.2,95.8,187,99.9,190.3,103.9 M155,123.7c0,12.3,7.6,20.9,18.2,20.9c8.1,0,13-4.1,16.7-9.8v-22.3	c-3.8-5.6-8.6-9.6-16.7-9.6C162.6,102.9,155,111.4,155,123.7" class="st0"/><path d="M255.2,123.2v3.2h-41.6c0.3,11.4,7,18.3,18.8,18.3c7.9,0,13.3-3.6,16.2-7.6l5.5,4.6c-5,6.2-12.1,9.7-21.7,9.7	c-16.7,0-26.6-11.7-26.6-27.8c0-16.1,10.3-28,25.3-28C246.7,95.8,255.2,108,255.2,123.2 M213.6,120h33.9	c-0.3-10.3-6.3-17.4-16.4-17.4C221,102.7,214.2,109.6,213.6,120" class="st0"/><rect width="7.8" height="80.9" x="265.6" y="69.5" class="st0"/><rect width="7.8" height="54.1" x="287.4" y="96.4" class="st0"/><path d="M353.9,118.6v31.8h-7.8V119c0-9.2-5.6-15.5-14.2-15.5c-7.2,0-11.8,4-15.9,9.3v37.6h-7.8V96.4h7.2l0.2,7.9	c3.3-4,9.2-8.2,17.9-8.2C346.4,96,353.9,105.1,353.9,118.6" class="st0"/><rect width="7.8" height="80.9" x="366" y="69.5" class="st0"/><g><path d="M458.4,120.9c-2.1,0-3.8-0.3-5.3-0.9c-1.5-0.6-2.6-1.3-3.4-2.1c-0.5-0.5-0.8-1-1.1-1.4 c-0.2-0.4-0.3-0.8-0.3-1.1c0-0.2,0.1-0.4,0.2-0.6s0.3-0.3,0.4-0.4c0.1-0.1,0.3-0.2,0.4-0.2c0.1,0,0.2,0,0.3,0 c0.3,0.6,0.7,1.2,1.2,1.8c0.5,0.6,1.1,1.1,1.8,1.6c0.7,0.5,1.5,0.9,2.5,1.1c1,0.3,2,0.4,3.3,0.4c2.3,0,4.1-0.5,5.4-1.5 c1.3-1,2-2.4,2-4.2c0-1-0.2-1.8-0.7-2.5c-0.4-0.7-1-1.2-1.8-1.7c-0.7-0.4-1.6-0.8-2.5-1.1c-1-0.3-2-0.5-3-0.8 c-1.1-0.3-2.1-0.6-3.1-0.9c-1-0.3-2-0.8-2.8-1.3c-0.8-0.6-1.5-1.3-2-2.1c-0.5-0.9-0.7-2-0.7-3.3c0-1.1,0.2-2.1,0.7-3 c0.5-0.9,1.1-1.7,1.9-2.4c0.8-0.7,1.8-1.2,2.9-1.6c1.1-0.4,2.3-0.6,3.6-0.6c1.9,0,3.5,0.3,4.8,0.8c1.3,0.5,2.3,1.2,3,1.9 c0.4,0.4,0.7,0.8,0.9,1.2s0.3,0.7,0.3,1c0,0.2-0.1,0.4-0.2,0.6c-0.1,0.2-0.3,0.3-0.4,0.4c-0.1,0.1-0.3,0.2-0.4,0.2 c-0.1,0.1-0.2,0.1-0.3,0c-0.5-1.1-1.4-2.2-2.7-3.1c-1.3-0.9-3-1.3-5-1.3c-1,0-1.9,0.1-2.8,0.4c-0.9,0.3-1.6,0.6-2.2,1.1 c-0.6,0.5-1.1,1.1-1.4,1.8c-0.3,0.7-0.5,1.5-0.5,2.3c0,0.9,0.2,1.7,0.6,2.3c0.4,0.6,0.9,1.1,1.6,1.6c0.7,0.4,1.5,0.8,2.4,1 c0.9,0.3,1.9,0.5,3,0.8c1.1,0.3,2.2,0.6,3.3,0.9c1.1,0.4,2,0.8,2.9,1.4c0.9,0.6,1.6,1.3,2.1,2.2c0.5,0.9,0.8,2,0.8,3.4 c0,1.1-0.2,2.2-0.7,3.1s-1.1,1.8-1.9,2.4c-0.8,0.7-1.8,1.2-3,1.6S459.8,120.9,458.4,120.9z" class="st1"/><path d="M480.6,120.9c-1.5,0-2.9-0.3-4.2-0.8s-2.4-1.3-3.3-2.2c-0.9-0.9-1.6-2.1-2.2-3.4c-0.5-1.3-0.8-2.7-0.8-4.2 c0-1.5,0.3-2.9,0.8-4.2c0.5-1.3,1.2-2.4,2.2-3.4c0.9-0.9,2-1.7,3.3-2.2c1.3-0.5,2.7-0.8,4.2-0.8c1.5,0,2.9,0.3,4.2,0.8 c1.3,0.5,2.4,1.3,3.3,2.2c0.9,0.9,1.6,2.1,2.2,3.4c0.5,1.3,0.8,2.7,0.8,4.2c0,1.5-0.3,2.9-0.8,4.2c-0.5,1.3-1.2,2.4-2.2,3.4 c-0.9,0.9-2,1.7-3.3,2.2C483.5,120.6,482.1,120.9,480.6,120.9z M480.6,119.1c1.2,0,2.3-0.2,3.3-0.7c1-0.4,1.9-1.1,2.6-1.8 c0.7-0.8,1.3-1.7,1.7-2.8c0.4-1.1,0.6-2.2,0.6-3.5c0-1.3-0.2-2.4-0.6-3.5c-0.4-1.1-1-2-1.7-2.8c-0.7-0.8-1.6-1.4-2.6-1.9 s-2.1-0.7-3.3-0.7s-2.3,0.2-3.3,0.7c-1,0.4-1.9,1.1-2.7,1.8c-0.7,0.8-1.3,1.7-1.7,2.8c-0.4,1.1-0.6,2.2-0.6,3.5 c0,1.2,0.2,2.4,0.6,3.5c0.4,1.1,1,2,1.7,2.8c0.7,0.8,1.6,1.4,2.7,1.9C478.3,118.8,479.4,119.1,480.6,119.1z" class="st1"/><path d="M501.7,110.6c0,1.2,0.3,2.4,0.7,3.4c0.4,1,1,1.9,1.7,2.7c0.7,0.8,1.6,1.3,2.6,1.8c1,0.4,2.1,0.6,3.3,0.6 c1.1,0,2-0.1,2.8-0.4c0.8-0.2,1.5-0.6,2.1-0.9c0.6-0.4,1.1-0.8,1.5-1.3c0.4-0.5,0.7-1,1-1.5c0,0,0.1,0,0.2,0c0.1,0,0.3,0.1,0.4,0.2 c0.1,0.1,0.3,0.2,0.4,0.4c0.1,0.2,0.2,0.4,0.2,0.6c0,0.2-0.1,0.5-0.3,0.9s-0.5,0.8-1,1.3c-0.6,0.6-1.6,1.2-2.8,1.8 c-1.2,0.5-2.7,0.8-4.4,0.8c-1.6,0-3-0.3-4.3-0.8s-2.4-1.3-3.3-2.2c-0.9-0.9-1.6-2-2.1-3.3s-0.8-2.7-0.8-4.2s0.3-2.9,0.8-4.2 c0.5-1.3,1.2-2.4,2.1-3.4s2-1.7,3.2-2.2c1.2-0.5,2.6-0.8,4.1-0.8c1.4,0,2.7,0.2,3.8,0.7c1.1,0.5,2.1,1.1,3,2 c0.8,0.9,1.5,1.9,1.9,3.1c0.4,1.2,0.7,2.6,0.7,4.1v0.2c0,0.3-0.1,0.5-0.2,0.6c-0.1,0.1-0.4,0.1-0.7,0.1H501.7z M517,108.8 c0-1.1-0.2-2.1-0.6-3s-0.9-1.6-1.5-2.3c-0.6-0.6-1.4-1.1-2.2-1.5s-1.8-0.5-2.9-0.5c-1.1,0-2,0.2-2.9,0.5s-1.7,0.9-2.4,1.5 c-0.7,0.6-1.3,1.4-1.7,2.3c-0.5,0.9-0.8,1.9-0.9,2.9H517z" class="st1"/><path d="M528.2,120.9c-2.2,0-3.9-0.5-5.2-1.5c-1.3-1-1.9-2.3-1.9-4.1c0-2.3,1.2-4,3.5-5c2.4-1,6.1-1.6,11.2-1.7h0.4v-1 c0-1.9-0.5-3.4-1.6-4.5c-1.1-1.1-2.6-1.6-4.6-1.6c-1.8,0-3.3,0.4-4.4,1.1c-1.1,0.7-2,1.7-2.6,2.8c-0.3-0.1-0.5-0.1-0.6-0.2 c-0.1-0.1-0.3-0.2-0.4-0.4c-0.1-0.2-0.2-0.4-0.2-0.6c0-0.2,0.1-0.5,0.3-0.9c0.2-0.4,0.5-0.7,0.9-1.1c0.7-0.7,1.6-1.2,2.7-1.8 c1.2-0.5,2.6-0.8,4.4-0.8c2.6,0,4.6,0.7,6,2.1c1.4,1.4,2.2,3.3,2.2,5.8v12.8c0,0-0.1,0.1-0.2,0.1c-0.1,0.1-0.3,0.1-0.5,0.1 c-0.4,0-0.7-0.1-0.9-0.4c-0.3-0.3-0.4-0.8-0.4-1.7l0-2.1c-0.7,1.3-1.7,2.4-3.1,3.2S530.1,120.9,528.2,120.9z M528.4,119.2 c1.1,0,2.2-0.2,3.1-0.5c1-0.4,1.8-0.8,2.5-1.5c0.7-0.6,1.3-1.3,1.7-2.2c0.4-0.8,0.6-1.7,0.6-2.7v-2h-0.6c-4.4,0.1-7.6,0.5-9.6,1.3 s-2.9,2-2.9,3.7c0,1.2,0.5,2.2,1.4,2.8C525.5,118.8,526.8,119.2,528.4,119.2z" class="st1"/><path d="M549.7,120.9c-1.8,0-3.3-0.2-4.5-0.7s-2.1-1-2.7-1.7c-0.4-0.4-0.6-0.7-0.8-0.9c-0.1-0.3-0.2-0.5-0.2-0.7 s0.1-0.4,0.2-0.6c0.1-0.1,0.2-0.3,0.4-0.3c0.1-0.1,0.3-0.1,0.4-0.2c0.1,0,0.2,0,0.2,0c0.6,1,1.5,1.8,2.7,2.5c1.2,0.7,2.7,1,4.5,1 c1.9,0,3.3-0.4,4.3-1.1c1-0.7,1.5-1.7,1.5-2.8c0-0.7-0.2-1.3-0.5-1.7c-0.3-0.4-0.7-0.8-1.3-1.1c-0.6-0.3-1.2-0.5-2-0.7 c-0.8-0.2-1.6-0.4-2.6-0.6c-0.8-0.2-1.7-0.4-2.5-0.6c-0.9-0.2-1.6-0.5-2.3-0.9c-0.7-0.4-1.3-0.9-1.7-1.6c-0.4-0.6-0.7-1.5-0.7-2.5 c0-0.9,0.2-1.7,0.6-2.4c0.4-0.7,0.9-1.4,1.6-1.9s1.5-0.9,2.4-1.2c0.9-0.3,2-0.4,3.1-0.4c1.6,0,3,0.2,4.1,0.7c1.1,0.4,1.9,1,2.5,1.6 c0.5,0.5,0.8,1,0.8,1.5c0,0.2-0.1,0.4-0.2,0.5c-0.1,0.2-0.2,0.3-0.4,0.4c-0.1,0.1-0.3,0.1-0.4,0.2c-0.1,0-0.2,0-0.2,0 c-0.5-0.9-1.3-1.6-2.4-2.2c-1.1-0.6-2.4-0.9-3.8-0.9c-1.8,0-3.2,0.4-4.2,1.1c-1,0.7-1.5,1.7-1.5,2.8c0,0.6,0.1,1.2,0.4,1.6 c0.3,0.4,0.7,0.8,1.2,1.1c0.5,0.3,1.2,0.5,1.9,0.7c0.8,0.2,1.6,0.4,2.5,0.6c0.9,0.2,1.7,0.4,2.6,0.6s1.7,0.6,2.4,1s1.3,0.9,1.8,1.6 s0.7,1.5,0.7,2.5c0,1.8-0.7,3.2-2.1,4.3C554.1,120.4,552.1,120.9,549.7,120.9z" class="st1"/><path d="M565.3,128.8c-0.3,0-0.5-0.1-0.8-0.2c-0.2-0.2-0.3-0.3-0.3-0.3l3.6-8.9c-0.4,0-0.6-0.1-0.8-0.2 c-0.2-0.1-0.3-0.3-0.5-0.6l-7.8-18c0-0.1,0.1-0.2,0.3-0.4c0.2-0.1,0.4-0.2,0.7-0.2c0.3,0,0.5,0.1,0.8,0.3c0.3,0.2,0.5,0.6,0.8,1.1 l7.2,16.9l6.3-16.7c0.2-0.6,0.5-1,0.8-1.2c0.3-0.2,0.6-0.3,0.8-0.3c0.3,0,0.5,0.1,0.7,0.2c0.2,0.1,0.3,0.3,0.3,0.3l-10.5,26.9 c-0.2,0.6-0.4,0.9-0.7,1.1C565.8,128.7,565.6,128.8,565.3,128.8z" class="st1"/></g><polygon points="382.9 123.9 402.3 96.4 393.2 96.4 373.8 123.9 408.7 173.3 417.8 173.3" class="st0"/><polygon points="415.4 69.5 406.4 69.5 425.3 96.4 406.4 123.3 415.4 123.3 434.4 96.4" class="st1"/><path d="M80,128.9c0-5.9-1.8-10.2-5.8-13.5c-3.9-3.3-10-5.8-19.1-7.8c-12.9-2.9-18.6-5.5-18.6-13.8	c0-4.6,1.6-8.1,4.6-10.5c2.8-2.2,6.7-3.3,11.5-3.3c9,0,15.6,3.8,19.6,7.1l4-6.2c-4.6-3.6-12.3-8-23.5-8c-14.5,0-23.8,8.3-23.8,21.1	c0,5.8,1.7,10.1,5.4,13.3c3.7,3.2,9.7,5.7,18.8,7.7c7.1,1.5,11.8,3.2,14.8,5.4c3.2,2.3,4.7,5.2,4.7,9.1c0,4.5-1.8,8.3-5.2,10.8	c-3.2,2.4-7.7,3.7-13,3.7c-8.5,0-17.1-3.3-22.6-8.6l-4.4,6.3c7.2,6.2,16.2,9.4,26.8,9.4C69.8,151.1,80,142.4,80,128.9z" class="st0"/></svg>