<svg xmlns="http://www.w3.org/2000/svg" viewBox="0 0 500 500"><defs><style>.cls-1{fill:#003a70}.cls-2{fill:#09f}</style></defs><title>LOGO_VISEO_DIGITAL_MAKERS_CARRE</title><g id="Calque_1" data-name="Calque 1"><path d="M109.14,173.61,66.06,258.86H43.6L1,173.61h16.5l36.66,73.33,1.38-.92,36.66-72.41Z" class="cls-1"/><path d="M143.51,258.86H128.84V173.61h14.67Z" class="cls-1"/><path d="M261.75,234.11c0,9.62-2.29,16-7.33,20.16-4.13,3.21-11.46,5-20.63,5H191.17c-18.79,0-27.95-8.24-27.95-24.28h14.66c0,7.33,5.5,11,16,11h36.67A25.16,25.16,0,0,0,242,243.73c3.21-1.83,5-5,5-10.08,0-5.5-2.75-9.17-8.7-11-3.67-1.37-8.71-1.83-15.59-1.83-2.74,0-6.87,0-12.37.46-5.5,0-9.62.45-12.37.45-11,0-18.79-1.37-24.29-4.12-7.34-3.67-11.46-10.54-11.46-20.16,0-8.71,2.75-15.13,7.79-18.8,4.58-3.2,11.46-5,20.62-5H231.5c20.17,0,30.25,8.25,30.25,24.29H246.63c0-7.33-5.5-11-16-11h-38.5c-8.71,0-13.29,3.67-13.29,11,0,7.79,8.25,11.46,24.29,11.46,2.29,0,6.41,0,11.46-.46s8.7-.46,11.45-.46c11,0,19.25,1.38,25.21,4.59C258.08,217.15,261.75,224,261.75,234.11Z" class="cls-1"/><path d="M382.28,233.65c0,11-3.67,17.87-10.54,21.08-5,2.75-15.58,3.67-31.62,3.67H321.33c-11.92,0-20.63-.92-26.12-3.21a20.67,20.67,0,0,1-12.38-12.37c-1.83-5.5-3.21-14.21-3.21-26.13q0-19.24,2.75-27.49a19.33,19.33,0,0,1,11.92-13.29c5.5-1.38,14.66-2.3,27-2.3h18.79c15.12,0,25.66,2.3,32.54,6.42,5.95,4.12,9.16,10.08,9.16,18.79H368.07c0-5.5-2.75-9.17-7.79-10.54q-4.8-1.38-20.62-1.38H322.24c-11.45,0-19.24.92-22.45,3.21-4.13,2.75-6.42,9.17-6.42,19.25v12.37c0,11.46,1.84,18.34,6,21.54,3.21,2.3,10.54,3.67,22.46,3.67h17.87c10.54,0,17.87-.46,20.62-1.37,5-1.38,7.79-5,7.79-11h14.21Zm-31.16-12.37H293.37V208.9h57.75Z" class="cls-1"/><path d="M499.15,221.28c0,11.45-1.38,19.7-4.13,25.2s-7.33,8.71-13.75,10.54c-5,1.38-13.29,2.29-25.2,2.29H440.48c-11.91,0-20.62-.91-26.12-3.2A20.64,20.64,0,0,1,402,243.73c-1.84-5.5-3.21-14.2-3.21-26.12,0-12.83.92-21.54,2.75-27a19.31,19.31,0,0,1,11.92-13.29c5.49-2.29,14.66-3.67,27-3.67h15.59q19.94,0,28.87,4.13c6,2.75,9.62,7.79,11.46,14.66C498.69,197.44,499.15,207.07,499.15,221.28Zm-14.21-.46v-8.25c0-8.25-.92-13.75-2.29-17.42-1.84-3.66-4.59-5.5-8.71-6.41-3.21-.92-8.71-.92-17.42-.92H441.86c-11.92,0-19.25,1.38-22.46,3.67-3.66,3.21-5.5,10.08-5.5,21.54v8.25c0,11,1.84,17.87,5.5,21.08,3.21,2.29,10.09,3.21,22,3.21h14.67a119.57,119.57,0,0,0,16.95-.92c4.13-.92,7.34-3.21,8.71-6.42C484,234.57,484.94,228.61,484.94,220.82Z" class="cls-1"/><path d="M133.11,306.4a10.78,10.78,0,0,1,4.17,4.06,11.1,11.1,0,0,1-4.18,15.41,12,12,0,0,1-5.9,1.48h-9V304.92h9A11.83,11.83,0,0,1,133.11,306.4ZM132,324.14a9.24,9.24,0,0,0,0-16,9.33,9.33,0,0,0-4.7-1.22h-6.77v18.45h6.86A9.24,9.24,0,0,0,132,324.14Z" class="cls-2"/><path d="M143.68,304.92h2.22v22.43h-2.22Z" class="cls-2"/><path d="M168.71,316.38h1.95v8.21a12.21,12.21,0,0,1-3.8,2.16,12.67,12.67,0,0,1-4.41.79,11.71,11.71,0,0,1-10.1-5.71,11,11,0,0,1-1.58-5.74,10.79,10.79,0,0,1,1.58-5.71,11.4,11.4,0,0,1,4.28-4.13,11.91,11.91,0,0,1,5.92-1.52,12.6,12.6,0,0,1,4.41.8,12,12,0,0,1,3.77,2.25l-1.29,1.57a9.78,9.78,0,0,0-3.17-2,10.31,10.31,0,0,0-3.72-.69,9.36,9.36,0,0,0-4.78,1.26,9.64,9.64,0,0,0-3.47,3.42,9.42,9.42,0,0,0,0,9.48,9.54,9.54,0,0,0,3.48,3.43,9.42,9.42,0,0,0,4.8,1.27,10.11,10.11,0,0,0,3.19-.53,11,11,0,0,0,2.94-1.49Z" class="cls-2"/><path d="M177.18,304.92h2.21v22.43h-2.21Z" class="cls-2"/><path d="M183.27,304.89h17v2h-7.42v20.44h-2.21V306.91h-7.41Z" class="cls-2"/><path d="M218.85,327.35l-2.67-6H203.74l-2.63,6h-2.38l10.11-22.43h2.31l10.11,22.43Zm-14.25-8h10.72l-5.39-12.12Z" class="cls-2"/><path d="M224.94,304.92h2.22v20.44H237v2h-12.1Z" class="cls-2"/><path d="M250.22,304.89H253l8.79,16.84,8.69-16.84h2.77v22.46h-2.06l0-19.38-8.79,17h-1.22l-8.82-17v19.38h-2.09Z" class="cls-2"/><path d="M297,327.35l-2.66-6H281.92l-2.63,6h-2.37L287,304.92h2.31l10.11,22.43Zm-14.24-8H293.5l-5.39-12.12Z" class="cls-2"/><path d="M321.12,327.35h-2.73l-8.49-10.91-4.56,4.94v6h-2.22V304.89h2.22v13.67l12.45-13.67h2.69l-9,9.82Z" class="cls-2"/><path d="M325.39,304.92h15v2H327.6v8h11.45v2H327.6v8.44h13.22v2H325.39Z" class="cls-2"/><path d="M361,327.35,356.19,320c-.69,0-1.21.07-1.58.07h-6.16v7.25h-2.21V304.92h8.37a9.81,9.81,0,0,1,6.5,1.94,6.85,6.85,0,0,1,2.29,5.51,7.71,7.71,0,0,1-1.35,4.65,7,7,0,0,1-3.85,2.6l5.39,7.73Zm-6.42-9.24a7.47,7.47,0,0,0,4.94-1.46,5.19,5.19,0,0,0,1.73-4.22,5,5,0,0,0-1.73-4.11,7.63,7.63,0,0,0-4.94-1.41h-6.16v11.2Z" class="cls-2"/><path d="M378.87,307.25a11.31,11.31,0,0,0-3.08-.47,6.68,6.68,0,0,0-3.71.92,2.83,2.83,0,0,0-1.39,2.48,3.22,3.22,0,0,0,.77,2.25,5.48,5.48,0,0,0,1.89,1.37,32,32,0,0,0,3.08,1.1,26.24,26.24,0,0,1,3.67,1.33,6.43,6.43,0,0,1,2.37,1.91,5.15,5.15,0,0,1,1,3.3,5.21,5.21,0,0,1-1,3.18,6.45,6.45,0,0,1-2.83,2.13,10.9,10.9,0,0,1-4.21.76,11.78,11.78,0,0,1-4.57-.93,12.38,12.38,0,0,1-3.83-2.47l1-1.83a11.23,11.23,0,0,0,3.5,2.31,10,10,0,0,0,3.91.83,7.1,7.1,0,0,0,4.08-1,3.26,3.26,0,0,0,1.51-2.81,3.45,3.45,0,0,0-.77-2.31,5.15,5.15,0,0,0-1.9-1.38c-.74-.32-1.79-.69-3.14-1.12a31.64,31.64,0,0,1-3.66-1.33,6.2,6.2,0,0,1-2.34-1.86,5.13,5.13,0,0,1-1-3.23,4.85,4.85,0,0,1,1-3,6,6,0,0,1,2.69-2,10.83,10.83,0,0,1,4-.69,13,13,0,0,1,3.68.54,13.14,13.14,0,0,1,3.26,1.45l-1,1.89A11.49,11.49,0,0,0,378.87,307.25Z" class="cls-2"/><rect width="98.53" height="4.58" x=".94" y="312.44" class="cls-1"/><rect width="98.53" height="4.58" x="399.7" y="312.44" class="cls-1"/></g></svg>