<svg xmlns="http://www.w3.org/2000/svg" xmlns:svg="http://www.w3.org/2000/svg" id="svg36" width="175.175" height="41.462" version="1.1" viewBox="0 0 175.175 41.462"><metadata id="metadata42"/><g id="Layer1000"><path style="fill:#fe8f00;fill-rule:evenodd" id="path2" d="M 55.424,19.4519 H 39.3663 v 3.441 h 3.7822 12.2755 z"/><path style="fill:#fe8f00;fill-rule:evenodd" id="path4" d="M 36.2713,19.4519 H 20.2139 v 3.441 h 3.7818 0.9886 11.287 z"/><g id="Layer1001"><path style="fill:#fe9300;fill-rule:evenodd" id="path6" d="m 83.7544,18.8908 c 1.1372,0 2.0592,0.922 2.0592,2.0592 0,1.1375 -0.922,2.0592 -2.0592,2.0592 -1.1372,0 -2.0592,-0.9217 -2.0592,-2.0592 0,-1.1372 0.922,-2.0592 2.0592,-2.0592 z"/><path style="fill:#fe9300;fill-rule:evenodd" id="path8" d="m 92.351,11.4188 c 1.3869,0 2.5113,1.1244 2.5113,2.5114 0,1.3869 -1.1244,2.5113 -2.5113,2.5113 -1.3869,0 -2.5114,-1.1244 -2.5114,-2.5113 0,-1.387 1.1245,-2.5114 2.5114,-2.5114 z"/><path style="fill:#fe9300;fill-rule:evenodd" id="path10" d="m 102.4945,4.8115 c 1.6367,0 2.9635,1.3269 2.9635,2.9635 0,1.6366 -1.3268,2.9635 -2.9635,2.9635 -1.6366,0 -2.9635,-1.3269 -2.9635,-2.9635 0,-1.6366 1.3269,-2.9635 2.9635,-2.9635 z"/><path style="fill:#fe9300;fill-rule:evenodd" id="path12" d="m 114.7909,0.6931 c 1.8864,0 3.4157,1.5294 3.4157,3.4157 0,1.8864 -1.5293,3.4158 -3.4157,3.4158 -1.8863,0 -3.4157,-1.5294 -3.4157,-3.4158 0,-1.8863 1.5294,-3.4157 3.4157,-3.4157 z"/><path style="fill:#fe9300;fill-rule:evenodd" id="path14" d="m 128.0814,4e-4 c 2.1361,0 3.8679,1.7318 3.8679,3.8679 0,2.136 -1.7318,3.8679 -3.8679,3.8679 -2.136,0 -3.8679,-1.7319 -3.8679,-3.8679 0,-2.1361 1.7319,-3.8679 3.8679,-3.8679 z"/><path style="fill:#fe9300;fill-rule:evenodd" id="path16" d="m 141.1692,5.7225 c 2.3856,0 4.3199,1.934 4.3199,4.32 0,2.3859 -1.9343,4.3202 -4.3199,4.3202 -2.3859,0 -4.3203,-1.9343 -4.3203,-4.3202 0,-2.386 1.9344,-4.32 4.3203,-4.32 z"/></g><path style="fill:#fe9300;fill-rule:evenodd" id="path19" d="m 134.9887,30.8027 c 0,-2.8138 1.6417,-5.2454 4.0205,-6.387 v -3.8245 c -4.3949,1.3148 -7.5969,5.3894 -7.5969,10.2122 0,5.8862 4.7714,10.6582 10.6576,10.6582 5.8862,0 10.6576,-4.772 10.6576,-10.6582 0,-4.8228 -3.2026,-8.8974 -7.5976,-10.2122 v 3.8245 c 2.3789,1.1416 4.0205,3.5732 4.0205,6.387 0,3.9112 -3.1694,7.0812 -7.0798,7.0812 -3.9118,0 -7.0819,-3.17 -7.0819,-7.0812 z"/><g id="Layer1002"><path style="fill:#181538;fill-rule:evenodd" id="path21" d="m 94.2943,31.9346 c 0,-1.2763 0.3359,-2.2735 1.013,-2.9812 0.6768,-0.7132 1.5603,-1.0696 2.645,-1.0696 1.1057,0 1.9634,0.3461 2.5681,1.0387 0.6044,0.6871 0.9041,1.6739 0.9041,2.9499 v 9.2794 h 3.782 V 30.7359 c 0,-1.9219 -0.5065,-3.4513 -1.514,-4.5882 -1.0126,-1.1366 -2.4438,-1.7049 -4.2987,-1.7049 -0.6353,0 -1.2087,0.0776 -1.7152,0.2325 -0.5064,0.1603 -0.9662,0.3722 -1.3899,0.6459 -0.4235,0.2685 -0.7956,0.5786 -1.1109,0.9195 -0.32,0.3462 -0.6146,0.7132 -0.8835,1.1109 v -2.5678 h -3.7819 v 16.368 h 3.7819 z"/><g id="Layer1003"><path style="fill:#181538;fill-rule:evenodd" id="path23" d="m 59.8056,41.1519 h 15.19 v -3.441 H 63.5875 v -18.259 h -3.7819 z m -43.6863,-21.7 H -7e-4 v 21.7 h 3.7822 v -8.835 H 14.7244 V 28.8756 H 3.7815 v -5.9827 h 12.3378 z m 4.0946,9.0209 v 12.6791 h 16.2126 v -3.441 H 23.9957 v -5.7971 h 10.881 v -3.441 h -9.8924 -0.9886 z m 19.1524,0 v 12.6791 h 16.213 v -3.441 H 43.1485 v -5.7971 h 10.8809 v -3.441 H 43.1485 Z"/><path style="fill:#181538;fill-rule:evenodd" id="path25" d="M 85.6455,41.1519 V 24.784 h -3.7822 v 16.3679 z"/><path style="fill:#181538;fill-rule:evenodd" id="path27" d="M 125.5452,33.7738 V 19.4519 h -3.906 v 14.2289 c 0,1.4466 -0.3152,2.5161 -0.9454,3.2085 -0.6305,0.6924 -1.4623,1.0387 -2.4956,1.0387 -0.93,0 -1.7307,-0.2222 -2.4026,-0.6667 -0.6715,-0.4441 -1.3276,-1.0695 -1.9683,-1.8754 l -2.511,2.5729 c 0.7235,0.9922 1.6428,1.8241 2.7588,2.4956 1.116,0.6715 2.511,1.0076 4.185,1.0076 1.075,0 2.0566,-0.1604 2.9452,-0.4807 0.8886,-0.3204 1.6531,-0.8008 2.2939,-1.4415 0.6407,-0.6404 1.142,-1.4415 1.5034,-2.4023 0.3617,-0.9611 0.5426,-2.0822 0.5426,-3.3637 z"/><path style="fill:#181538;fill-rule:evenodd" id="path29" d="m 166.8526,19.4519 h -9.7185 v 21.6999 h 10.0286 c 1.1936,0 2.2886,-0.1291 3.2806,-0.3873 0.9869,-0.2586 1.8343,-0.6408 2.5369,-1.1421 0.7029,-0.5061 1.2402,-1.1314 1.6224,-1.8755 0.3822,-0.7438 0.5735,-1.5964 0.5735,-2.5678 0,-0.744 -0.1034,-1.4002 -0.3101,-1.9634 -0.2012,-0.5683 -0.4958,-1.059 -0.8783,-1.4724 -0.3771,-0.4134 -0.8317,-0.7698 -1.3536,-1.0696 -0.5271,-0.2943 -1.1057,-0.558 -1.7413,-0.7853 0.3877,-0.2067 0.775,-0.4546 1.1524,-0.7489 0.377,-0.2895 0.7077,-0.6253 0.9868,-1.0078 0.2737,-0.3822 0.501,-0.8317 0.6717,-1.3484 0.1755,-0.5216 0.2634,-1.1108 0.2634,-1.7722 0,-1.7203 -0.6408,-3.0742 -1.9168,-4.0662 -1.2814,-0.9972 -3.0121,-1.493 -5.1977,-1.493 z m -0.744,9.176 H 160.916 V 22.831 h 5.4666 c 1.2399,0 2.1801,0.2428 2.8311,0.7335 0.6459,0.4858 0.9714,1.1781 0.9714,2.0719 0,1.0178 -0.3719,1.7721 -1.1108,2.2577 -0.7441,0.491 -1.731,0.7338 -2.9657,0.7338 z m 1.1108,9.1448 h -6.3034 v -5.9518 h 6.0297 c 1.5033,0 2.6193,0.2583 3.3531,0.775 0.7286,0.5165 1.0953,1.24 1.0953,2.1698 0,0.992 -0.3719,1.7413 -1.1108,2.2477 -0.7441,0.5062 -1.7618,0.7593 -3.0639,0.7593 z"/><path style="fill:#181538;fill-rule:evenodd" id="path31" d="m 140.8222,19.2302 v 6.5153 c 0,0.2442 0.2501,0.4434 0.5555,0.4434 h 1.3844 c 0.3054,0 0.5555,-0.1992 0.5555,-0.4434 v -6.5153 c 0,-0.2436 -0.2501,-0.4428 -0.5555,-0.4428 h -1.3844 c -0.3054,0 -0.5555,0.1992 -0.5555,0.4428 z"/></g></g></g></svg>