<svg xmlns="http://www.w3.org/2000/svg" width="2000" height="1200" version="1.1" viewBox="0 0 2000 1200"><clipPath id="a"><path d="m0 1080h1920v-1080h-1920z"/></clipPath><g><path fill="#003a70" d="m0 0-120.02-238.33h-62.218l-120.02 238.33h46.578l103.02-204.33 4.08 2.38 102 201.95z" transform="matrix(1.3333 0 0 -1.3333 -264.65 1291.6) translate(593.16 743.22)"/><path fill="#003a70" d="m675.43 504.89h-40.458v238.33h40.458z" transform="matrix(1.3333 0 0 -1.3333 -264.65 1291.6)"/><g clip-path="url(#a)" transform="matrix(1.3333 0 0 -1.3333 -264.65 1291.6)"><g fill="#003a70"><path d="m0 0c0-26.296-6.801-44.878-20.4-55.758-12.017-9.52-31.397-14.281-58.139-14.281h-119.34c-52.36 0-78.427 22.552-78.199 67.659h41.138c0-20.856 14.732-31.279 44.201-31.279h103.02c14.28 0 24.93 1.923 31.959 5.781 9.292 5.21 13.94 14.502 13.94 27.878 0 15.182-8.049 25.499-24.139 30.938-9.748 3.401-24.14 5.101-43.18 5.101-7.708 0-19.156-0.287-34.338-0.849-15.189-0.568-26.637-0.851-34.34-0.851-30.147 0-52.815 3.74-67.998 11.22-21.079 10.651-31.619 29.463-31.619 56.439 0 24.479 7.252 42.041 21.76 52.697 12.462 9.064 31.502 13.6 57.118 13.6h113.56c55.982 0 83.978-22.44 83.978-67.317h-42.839c0 20.851-14.959 31.279-44.879 31.279h-107.1c-24.709 0-37.061-10.317-37.061-30.939 0-21.536 22.552-32.299 67.659-32.299 7.023 0 17.51 0.392 31.45 1.189 13.938 0.791 24.42 1.19 31.449 1.19 30.822 0 54.17-4.196 70.038-12.58 21.531-11.336 32.3-30.939 32.3-58.818" transform="translate(992.3 574.93)"/><path d="m0 0h-162.18l0.34 34.68h161.84zm86.698-35.359c0-30.376-9.86-50.206-29.58-59.498-14.736-7.256-44.087-10.88-88.057-10.88h-52.7c-33.318 0-57.575 2.832-72.757 8.5-16.549 6.12-27.996 17.452-34.339 34-5.668 15.182-8.5 39.437-8.5 72.757 0 35.812 2.492 61.421 7.48 76.838 5.663 18.13 16.659 30.599 32.979 37.399 15.639 6.571 40.911 9.86 75.818 9.86h52.698c41.932 0 72.078-6.009 90.439-18.02 17.222-11.109 25.84-28.447 25.84-52.017h-38.42c0 15.182-7.257 25.042-21.76 29.578-9.297 2.72-28.559 4.08-57.799 4.08h-48.618c-32.417 0-53.379-3.06-62.899-9.18-11.788-7.708-17.796-25.617-18.02-53.718v-34.34c-0.228-31.736 5.44-51.795 17-60.177 9.063-6.578 30.032-9.86 62.898-9.86h49.979c29.92 0 49.3 1.36 58.139 4.08 14.502 4.302 21.643 14.502 21.419 30.598z" transform="translate(1228.6 610.63)"/><path d="m0 0v22.78c0 22.663-2.269 38.812-6.801 48.449-4.536 9.631-12.807 15.809-24.818 18.529-8.388 2.04-24.48 3.06-48.279 3.06h-39.439c-32.868 0-53.607-3.4-62.219-10.2-10.428-8.388-15.639-28.447-15.639-60.178v-22.78c0-30.828 5.323-50.318 15.979-58.477 8.384-6.12 28.671-9.18 60.859-9.18h41.138c23.343 0 39.1 0.902 47.26 2.72 12.011 2.49 20.34 8.44 24.988 17.849 4.644 9.403 6.971 25.212 6.971 47.428m40.798-1.36c0-31.736-3.738-55.025-11.219-69.869-7.479-14.848-20.176-24.765-38.079-29.748-14.28-4.08-37.627-6.12-70.039-6.12h-43.858c-33.32 0-57.576 2.832-72.758 8.5-16.777 6.12-28.219 17.452-34.339 34-5.668 15.41-8.5 39.777-8.5 73.097 0 35.36 2.38 60.742 7.14 76.158 5.662 18.131 16.77 30.711 33.319 37.739 15.639 6.8 40.91 10.2 75.818 10.2h43.518c37.4 0 64.312-3.857 80.749-11.56 16.431-7.708 27.141-21.537 32.13-41.479 4.08-14.958 6.118-41.935 6.118-80.918" transform="translate(1588.3 611.99)"/></g><path fill="none" stroke="#003b70" stroke-miterlimit="10" stroke-width="6.736" d="m0 0h179.76" transform="translate(290.91 359.25)"/><path fill="none" stroke="#003b70" stroke-miterlimit="10" stroke-width="6.736" d="m0 0h179.76" transform="translate(1449.3 359.25)"/><g fill="#09f"><path d="m0 0c2.219 1.797 3.328 4.381 3.328 7.755 0 3.371-1.109 5.957-3.328 7.754-2.219 1.798-5.437 2.696-9.651 2.696h-11.317v-20.901h11.317c4.214 0 7.432 0.898 9.651 2.696m4.792 19.67c3.462-2.886 5.194-6.857 5.194-11.915 0-5.06-1.732-9.032-5.194-11.915-3.46-2.886-8.209-4.328-14.243-4.328h-11.517v-14.112h-6.657v46.596h18.174c6.034 0 10.783-1.443 14.243-4.326" transform="translate(532.92 358.55)"/><path d="m0 0c-3.263 1.086-5.825 2.495-7.688 4.227l2.462 5.191c1.774-1.598 4.049-2.896 6.823-3.894 2.773-1 5.625-1.499 8.554-1.499 3.861 0 6.745 0.655 8.654 1.965 1.906 1.309 2.862 3.05 2.862 5.225 0 1.598-0.522 2.896-1.564 3.894-1.044 0.998-2.331 1.764-3.862 2.296-1.531 0.533-3.695 1.132-6.49 1.798-3.505 0.842-6.334 1.686-8.487 2.529-2.153 0.842-3.993 2.14-5.525 3.895-1.531 1.753-2.296 4.115-2.296 7.088 0 2.485 0.654 4.727 1.964 6.723 1.308 1.998 3.295 3.595 5.956 4.794 2.663 1.197 5.969 1.797 9.919 1.797 2.751 0 5.458-0.356 8.121-1.065 2.663-0.711 4.948-1.732 6.857-3.062l-2.197-5.326c-1.953 1.243-4.039 2.186-6.258 2.829s-4.393 0.966-6.523 0.966c-3.773 0-6.602-0.688-8.487-2.064-1.886-1.375-2.829-3.151-2.829-5.325 0-1.597 0.533-2.896 1.598-3.894 1.065-0.999 2.384-1.776 3.96-2.33 1.575-0.556 3.717-1.143 6.424-1.764 3.504-0.843 6.323-1.687 8.453-2.529 2.131-0.843 3.961-2.13 5.492-3.861s2.297-4.061 2.297-6.99c0-2.44-0.667-4.671-1.997-6.689-1.332-2.02-3.351-3.617-6.058-4.793s-6.035-1.765-9.984-1.765c-3.506 0-6.89 0.544-10.151 1.633" transform="translate(612.7 337.05)"/><path d="m0 0c-12.82 0-23.212-10.393-23.212-23.212v-13.616c0-0.048 0.06-0.069 0.085-0.028 3.62 6.113 11.943 18.967 20.671 24.133 0.786 0.463 1.821 0.138 2.177-0.745 0.289-0.716-0.084-1.522-0.744-1.922-1.671-1.012-4.104-3.005-4.866-3.766-4.585-4.005-7.545-8.295-10.752-13.13-2.165-3.264-4.149-6.55-5.054-8.142-0.018-0.031 7e-3 -0.066 0.043-0.066h15.765c12.796 0 23.169 10.373 23.169 23.169v17.278c0 0.026-0.021 0.047-0.047 0.047z" transform="translate(576.93 379.62)"/><path d="m650.61 382.54h6.656v-46.596h-6.656z"/><path d="m0 0h-15.976v5.791h38.542v-5.791h-15.975v-40.805h-6.591z" transform="translate(680.5 376.75)"/><path d="m710.32 382.54h6.656v-46.596h-6.656z"/><path d="m0 0-20.436-46.596h-6.59l-20.502 46.596h7.189l16.775-38.274 16.908 38.274z" transform="translate(770.96 382.54)"/><path d="m0 0v-5.791h-33.815v46.596h32.883v-5.791h-26.227v-14.312h23.365v-5.658h-23.365v-15.044z" transform="translate(810.7 341.74)"/></g><g fill="#003a70"><path d="m0 0c3.771 0 7.088 0.733 9.952 2.197 2.861 1.465 5.068 3.517 6.622 6.157 1.553 2.639 2.33 5.692 2.33 9.154 0 3.46-0.777 6.511-2.33 9.152-1.554 2.639-3.761 4.692-6.622 6.157-2.864 1.465-6.181 2.197-9.952 2.197h-12.582v-35.014zm-19.238 40.805h19.637c4.925 0 9.297-0.977 13.114-2.929 3.816-1.953 6.777-4.693 8.885-8.221 2.107-3.528 3.162-7.578 3.162-12.147 0-4.572-1.055-8.621-3.162-12.149-2.108-3.528-5.069-6.269-8.885-8.221-3.817-1.953-8.189-2.929-13.114-2.929h-19.637z" transform="translate(858.62 341.74)"/><path d="m894.37 382.54h6.656v-46.596h-6.656z"/><path d="m0 0h6.39v-18.172c-2.308-1.909-4.993-3.373-8.055-4.394-3.062-1.02-6.257-1.532-9.585-1.532-4.704 0-8.942 1.033-12.714 3.097-3.773 2.063-6.734 4.902-8.887 8.521-2.152 3.616-3.228 7.687-3.228 12.214 0 4.526 1.076 8.609 3.228 12.247 2.153 3.639 5.127 6.479 8.92 8.521 3.794 2.04 8.065 3.062 12.815 3.062 3.727 0 7.11-0.611 10.151-1.831 3.039-1.221 5.624-3.006 7.755-5.358l-4.127-4.127c-3.728 3.594-8.233 5.392-13.513 5.392-3.551 0-6.735-0.766-9.552-2.297-2.82-1.531-5.026-3.661-6.624-6.391-1.598-2.728-2.396-5.802-2.396-9.218 0-3.374 0.798-6.424 2.396-9.153s3.804-4.87 6.624-6.424c2.817-1.553 5.979-2.329 9.485-2.329 4.171 0 7.811 0.998 10.917 2.995z" transform="translate(947.29 359.51)"/><path d="m966.39 382.54h6.657v-46.596h-6.657z"/><path d="m0 0h-15.975v5.791h38.541v-5.791h-15.975v-40.805h-6.591z" transform="translate(996.28 376.75)"/><path d="m0 0-10.051 22.831-10.051-22.831zm2.33-5.325h-24.762l-5.126-11.65h-6.856l21.101 46.596h6.59l21.167-46.596h-6.988z" transform="translate(1051.1 352.92)"/><path d="m0 0h6.656v-40.805h25.229v-5.791h-31.885z" transform="translate(1072.5 382.54)"/><path d="m0 0-0.066 33.948-16.841-28.29h-3.063l-16.841 28.091v-33.749h-6.39v46.596h5.459l19.436-32.75 19.17 32.75h5.46l0.066-46.596z" transform="translate(1173.1 335.95)"/><path d="m0 0-10.051 22.831-10.052-22.831zm2.33-5.325h-24.763l-5.125-11.65h-6.856l21.101 46.596h6.59l21.167-46.596h-6.988z" transform="translate(1220.9 352.92)"/><path d="m0 0-8.521-8.653v-12.049h-6.656v46.596h6.656v-26.027l25.295 26.027h7.588l-19.902-20.969 21.168-25.627h-7.788z" transform="translate(1257.4 356.65)"/><path d="m0 0v-5.791h-33.816v46.596h32.883v-5.791h-26.227v-14.312h23.365v-5.658h-23.365v-15.044z" transform="translate(1323.9 341.74)"/><path d="m0 0c2.22 1.818 3.328 4.414 3.328 7.788 0 3.371-1.108 5.957-3.328 7.754-2.219 1.798-5.436 2.696-9.651 2.696h-11.317v-20.967h11.317c4.215 0 7.432 0.908 9.651 2.729m3.529-22.566-10.051 14.312c-1.244-0.09-2.221-0.134-2.929-0.134h-11.517v-14.178h-6.656v46.595h18.173c6.034 0 10.783-1.443 14.244-4.326 3.462-2.886 5.193-6.856 5.193-11.915 0-3.596-0.888-6.656-2.663-9.186s-4.304-4.373-7.589-5.526l11.05-15.642z" transform="translate(1362.3 358.51)"/><path d="m0 0c-3.263 1.086-5.824 2.495-7.688 4.227l2.462 5.191c1.774-1.598 4.049-2.896 6.823-3.894 2.773-1 5.625-1.499 8.553-1.499 3.862 0 6.746 0.655 8.655 1.965 1.906 1.309 2.861 3.05 2.861 5.225 0 1.598-0.521 2.896-1.563 3.894-1.044 0.998-2.331 1.764-3.862 2.296-1.531 0.533-3.695 1.132-6.49 1.798-3.506 0.842-6.335 1.686-8.487 2.529-2.153 0.842-3.993 2.14-5.525 3.895-1.531 1.753-2.296 4.115-2.296 7.088 0 2.485 0.655 4.727 1.963 6.723 1.309 1.998 3.296 3.595 5.957 4.794 2.663 1.197 5.969 1.797 9.919 1.797 2.751 0 5.458-0.356 8.121-1.065 2.662-0.711 4.948-1.732 6.857-3.062l-2.197-5.326c-1.953 1.243-4.039 2.186-6.258 2.829s-4.393 0.966-6.523 0.966c-3.772 0-6.601-0.688-8.487-2.064-1.887-1.375-2.829-3.151-2.829-5.325 0-1.597 0.533-2.896 1.597-3.894 1.066-0.999 2.385-1.776 3.961-2.33 1.575-0.556 3.717-1.143 6.423-1.764 3.505-0.843 6.324-1.687 8.454-2.529 2.131-0.843 3.961-2.13 5.492-3.861s2.297-4.061 2.297-6.99c0-2.44-0.667-4.671-1.998-6.689-1.331-2.02-3.35-3.617-6.057-4.793-2.706-1.176-6.034-1.765-9.985-1.765-3.505 0-6.888 0.544-10.15 1.633" transform="translate(1386.5 337.05)"/></g></g></g></svg>