<svg xmlns="http://www.w3.org/2000/svg" id="Calque_1" version="1.1" viewBox="0 0 425.2 170.1"><defs><style>.st0{fill:#ed0a22}</style></defs><path d="M360.8,55.7c0-.5-.2-.8-.5-1.1-.4-.2-.9-.4-1.5-.4h-1.7v4.8h.9v-1.9h1.1c.5,0,.8.2.8.6v1.3h.9c0-.2-.1-.5-.1-.8v-.3h.1c0-.5-.3-.9-.8-1.1.5-.2.8-.6.8-1.1ZM359.6,56.3c-.2,0-.4.2-.7.2h-1v-1.5h.9c.4,0,.7,0,.9.2.2.1.2.3.2.6s0,.4-.3.5Z" class="st0"/><path d="M362.7,54.7c-.4-.7-.9-1.2-1.6-1.5s-1.5-.6-2.3-.6-1.6.2-2.3.6c-.7.4-1.2.9-1.6,1.5-.4.7-.6,1.4-.6,2.1s.2,1.5.6,2.1c.4.7.9,1.2,1.6,1.6.7.4,1.5.6,2.3.6s1.6-.2,2.3-.6c.7-.4,1.2-.9,1.6-1.6.4-.7.6-1.3.6-2.1s-.2-1.5-.6-2.1ZM362.1,58.6c-.3.5-.8,1-1.4,1.3-.6.3-1.2.5-1.9.5s-1.3-.2-1.9-.5c-.6-.3-1-.8-1.4-1.3-.3-.5-.5-1.2-.5-1.8s.2-1.2.5-1.8c.3-.6.8-1,1.4-1.3.6-.3,1.2-.5,1.9-.5s1.3.2,1.9.5c.6.3,1,.8,1.4,1.3.3.5.5,1.1.5,1.8s-.2,1.2-.5,1.8Z" class="st0"/><rect width="46.9" height="10.2" x="61.9" y="106.9" class="st0"/><polygon points="61.9 89.9 104.2 89.9 104.2 79.7 73.5 79.7 73.5 62.7 108.8 62.7 108.8 52.6 61.9 52.6 61.9 89.9" class="st0"/><polygon points="243.1 117.1 290 117.1 290 106.9 254.6 106.9 254.6 90 285.4 90 285.4 79.8 254.6 79.8 254.6 62.7 290 62.7 290 52.6 243.1 52.6 243.1 117.1" class="st0"/><polygon points="233.3 52.6 218.6 52.6 196.3 80.5 221.8 117.1 237.2 117.1 210.3 80.5 233.3 52.6" class="st0"/><rect width="11.6" height="64.5" x="179.4" y="52.6" class="st0"/><path d="M351.7,70.8h0c0-11.2-7.5-18.2-18.3-18.2h-32.5v10.1h30.2c5,0,8.6,3.6,8.7,8.2.2,4.8-3.7,8.8-8.5,8.8h-30.4v37.3h11.6v-27h15c1.8,3.1,15.1,27,15.1,27h14.5s-13.6-22.6-17-28.3c8.5-3,11.5-10.9,11.5-17.9Z" class="st0"/><path d="M161,86v-.2c-2.3-1.6-7.3-3.9-16.1-7-7.3-2.4-9.7-3.6-10.5-4.2-2.7-1.6-4-3.4-3.9-5.9.1-2.8,1.3-4.7,3.7-5.8,2.1-1.1,5.2-1.7,9.1-1.5,4.5.2,7.5,1.4,9.7,3.2,2.1,1.6,3.5,4.3,4.2,8.3v.5h11.5v-.4c-.4-7.1-2.9-12.5-7.3-16-4.1-3.4-9.7-5.6-17.3-5.9-6.8-.2-12.6,1.4-17.3,4.3-5,3.1-7.6,7.7-7.8,13.5s2.2,10.4,7.2,13.7c1.9,1.1,6.2,2.8,14.3,5.8,8.3,2.9,11,4.2,11.9,4.8,3.6,2,5.2,4.4,5.1,7.5,0,2.4-1.4,4.2-3.9,5.6-2.8,1.4-6.2,2.3-10.6,2.1-5-.2-8.6-1.7-11-3.4-2.7-2.1-4.1-5-4.5-10.1v-.7h-11.5v.5c.3,8.2,3.1,14.4,8.3,18.4,4.4,3.3,10.5,5.7,18.2,6,8.1.3,14.4-1.6,19-4.7,4.8-3.3,7.3-7.9,7.5-13.8.2-6.1-2.5-11-8-14.6Z" class="st0"/></svg>