<?xml version="1.0" encoding="UTF-8"?>
<svg id="Layer_1" data-name="Layer 1" xmlns="http://www.w3.org/2000/svg" viewBox="0 0 900 182.34">
  <defs>
    <style>
      .cls-1 {
        fill: #141414;
        stroke-width: 0px;
      }
    </style>
  </defs>
  <path class="cls-1" d="M735.38,147.78h-66.03v-41.58h57.45v-31.93h-57.45v-39.51h62.3V2.82h-98.34v176.71h102.07v-31.74ZM554.79,179.53V34.75h48.13V2.82h-131.92v31.93h47.76v144.77h36.04ZM377.42,182.34c18.91,0,35.43-5.12,48.7-14.39l-23.51-25.38c-6.87,4.65-15.08,7.08-24.21,7.08-28.24,0-48.14-20.54-48.14-58,0-8.88,1.1-16.83,3.14-23.8l-27.49-29.67c-8.43,14.36-12.97,32.39-12.97,53.47,0,54.47,34.35,90.69,84.48,90.69M98.34,34.75V2.82H0v176.71h102.06v-31.74H36.03v-41.58h57.45v-31.93h-57.45v-39.51h62.31ZM224.79,90.6L278.8,2.82h-40.94l-32.7,58.51c-.72,1.29-1.5,2.78-2.28,4.38-.6-1.25-1.22-2.49-1.86-3.72L169.63,2.82h-43.7l52.79,87.9-57.37,88.8h43.36l36.44-63.74.15-.29c.05.08.09.17.13.25l35.51,63.78h43.03l-55.16-88.93ZM379.37,0C359.33,0,342.14,4.9,328.49,14.05l24.09,26.01c7.09-4.73,15.53-7.19,24.84-7.19,28.48,0,46.98,20.08,46.98,58.53,0,8.54-1.01,16.24-2.91,23.04l26.96,29.11c8.47-14.45,13.13-32.4,13.13-52.89C461.58,36.2,429.27,0,379.37,0M782.49,157.93c15.34,16.19,35.99,24.41,61.38,24.41,19.46,0,35.91-3.44,48.92-10.24l2.22-1.15v-36.03l-6.37,4.13c-10.84,7.05-23.9,10.61-38.8,10.61-16.18,0-28.75-4.93-38.43-15.07-9.76-10.24-14.72-24.22-14.72-41.53,0-18.26,5.32-33.05,15.83-43.97,10.5-10.91,23.93-16.22,41.05-16.22,12.73,0,24.57,3.21,35.2,9.57l6.24,3.73V8.37l-2.48-1.07C881.37,2.46,867.26,0,850.59,0c-26.05,0-48,8.83-65.23,26.23-17.12,17.31-25.81,40.23-25.81,68.14,0,26.08,7.72,47.47,22.95,63.56"/>
</svg>