<svg xmlns="http://www.w3.org/2000/svg" version="1.1" viewBox="0 0 1081.4 648.27"><defs><style>.cls-1{fill:none}.cls-2{fill:#003cdc}</style></defs><g data-name="Calque 2"><g data-name="Calque 1" transform="matrix(1.2 0 0 1.2 -108.14 -64.827)"><rect width="1081.4" height="648.27" class="cls-1"/><path d="m345.4 175.37h-171.4v171.44h171.41zm-7.81 53.87v63.7a175.31 175.31 0 0 0-14.07-31.85 175.31 175.31 0 0 0 14.07-31.85zm-46 109.86h-63.7a176.7 176.7 0 0 0 31.8-14.1 176.7 176.7 0 0 0 31.85 14.1zm-31.9-141.88a176.7 176.7 0 0 0-31.85-14.07h63.7a176.7 176.7 0 0 0-31.85 14.07zm58.71 55.49a170.45 170.45 0 0 0-50.34-50.33 160.48 160.48 0 0 1 68.72-18.38 160.39 160.39 0 0 1-18.38 68.71zm-4.84 8.38a161.62 161.62 0 0 1-53.87 53.91 161.62 161.62 0 0 1-53.87-53.87 161.62 161.62 0 0 1 53.87-53.87 161.72 161.72 0 0 1 53.87 53.83zm-112.56-8.38a160.4 160.4 0 0 1-18.41-68.71 160.4 160.4 0 0 1 68.72 18.39 170.54 170.54 0 0 0-50.31 50.32zm0 16.76a170.54 170.54 0 0 0 50.33 50.33 160.39 160.39 0 0 1-68.72 18.38 160.4 160.4 0 0 1 18.39-68.71zm117.42 0a160.39 160.39 0 0 1 18.38 68.71 160.39 160.39 0 0 1-68.71-18.38 170.54 170.54 0 0 0 50.31-50.33zm-122.7-8.38a176.7 176.7 0 0 0-14.07 31.85v-63.7a176.7 176.7 0 0 0 14.05 31.85z" class="cls-2"/><path d="m392.84 346.81h44.16v-171.44h-44.16z" class="cls-2"/><path d="m861.87 346.81h44.13v-135.32c0-34.83-13.14-39.63-27.35-39.63-10.64 0-19.68 4-29.3 13l-6.64 6.21v-15.7h-39.91v171.44h44.2v-124c0-7.89 5.71-8.5 7.46-8.5s7.45 0.61 7.45 8.5z" class="cls-2"/><path d="m777.57 189.79c-7.88-12.23-20.28-17.93-39-17.93-19.26 0-32.12 5.8-40.47 18.26-8.56 12.79-12.55 32.55-12.55 62.18v17.58c0 30 3.78 49.91 11.9 62.51 7.88 12.23 20.27 17.93 39 17.93 19.28 0 32.14-5.8 40.48-18.26 8.57-12.79 12.56-32.55 12.56-62.18v-17.58c-0.02-30.04-3.8-49.91-11.92-62.51zm-33.94 113.56c0 6-3.34 7.29-6.14 7.29s-6.14-1.26-6.14-7.29v-84.52c0-6 3.34-7.29 6.14-7.29s6.14 1.26 6.14 7.29z" class="cls-2"/><path d="m525.47 171.86c-9.84 0-18.69 4.12-27.84 13l-6.63 6.45v-15.94h-40v211.12h44.16v-51.31l6.81 7.23a24.05 24.05 0 0 0 18.58 7.91c22.58 0 34-21.14 34-62.85v-52.76c0.04-56.34-16.55-62.85-29.08-62.85zm-18.31 131.49c0 6-3.34 7.29-6.14 7.29s-6.14-1.26-6.14-7.29v-84.52c0-6 3.34-7.29 6.14-7.29s6.14 1.26 6.14 7.29z" class="cls-2"/><path d="m643.09 171.86c-9.85 0-18.7 4.12-27.85 13l-6.68 6.48v-15.97h-39.94v211.12h44.16v-51.31l6.81 7.23a24.05 24.05 0 0 0 18.58 7.91c22.58 0 34-21.14 34-62.85v-52.76c0.03-56.34-16.59-62.85-29.08-62.85zm-18.32 131.49c0 6-3.34 7.29-6.14 7.29s-6.14-1.26-6.14-7.29v-84.52c0-6 3.34-7.29 6.14-7.29s6.14 1.26 6.14 7.29z" class="cls-2"/><path d="m174 421.12h15.35c3.52 0 6.15 0.68 7.91 2.06a9.53 9.53 0 0 1 3.42 5.42 39.34 39.34 0 0 1 0.79 8.77 38.37 38.37 0 0 1-0.79 8.62 9.69 9.69 0 0 1-3.42 5.46c-1.76 1.4-4.39 2.11-7.91 2.11h-9.71v19.34h-5.64zm13.85 27.54a9.24 9.24 0 0 0 5.3-1.2 5.53 5.53 0 0 0 2.19-3.5 34.17 34.17 0 0 0 0.49-6.59 34.63 34.63 0 0 0-0.49-6.66 5.42 5.42 0 0 0-2.15-3.46q-1.65-1.17-5.27-1.17h-8.28v22.58z" class="cls-2"/><path d="m220.21 471.47c-2.1-1.36-3.46-3.75-4.06-7.19s-0.91-9.19-0.91-17.27 0.31-13.84 0.91-17.28 2-5.83 4.06-7.18 5.62-2 10.54-2 8.43 0.68 10.54 2 3.46 3.75 4.06 7.18 0.9 9.2 0.9 17.28-0.3 13.83-0.9 17.27-2 5.83-4.06 7.19-5.62 2-10.54 2-8.43-0.65-10.54-2zm17.24-4.07q1.88-1.12 2.48-5.34a124.65 124.65 0 0 0 0.61-15.05 124.73 124.73 0 0 0-0.61-15.06q-0.6-4.21-2.48-5.34t-6.7-1.13c-3.21 0-5.45 0.38-6.7 1.13s-2.08 2.53-2.48 5.34a125.35 125.35 0 0 0-0.57 15.05 125.27 125.27 0 0 0 0.6 15.05q0.6 4.21 2.48 5.34c1.25 0.76 3.49 1.13 6.7 1.13s5.41-0.36 6.67-1.12z" class="cls-2"/><path d="m261.83 472.52v-4.89q2.64 0.38 5.8 0.64c2.11 0.18 3.89 0.26 5.34 0.26a21.65 21.65 0 0 0 4.78-0.41 6.29 6.29 0 0 0 2.9-1.47 4.93 4.93 0 0 0 1.39-2.86 29.19 29.19 0 0 0 0.34-5 37.75 37.75 0 0 0-0.3-5.8 3.39 3.39 0 0 0-1.39-2.37 11.1 11.1 0 0 0-3.88-1.17l-8.73-1.35a8.38 8.38 0 0 1-4.74-2.14 8 8 0 0 1-2.07-4.18 37.73 37.73 0 0 1-0.49-6.85q0-7.83 3.31-11.1t10.61-3.28a45 45 0 0 1 11.45 1.21v4.66a57.82 57.82 0 0 0-10.17-0.9 18.71 18.71 0 0 0-5.11 0.56 6 6 0 0 0-2.86 1.7 5.63 5.63 0 0 0-1.28 2.78 24.43 24.43 0 0 0-0.3 4.22 29.16 29.16 0 0 0 0.3 5 3.17 3.17 0 0 0 1.2 2.15 8.39 8.39 0 0 0 3 1l8.43 1.35a14.82 14.82 0 0 1 5 1.58 6.82 6.82 0 0 1 2.78 3.61q0.92 2.19 0.91 8.66a26.68 26.68 0 0 1-1.25 9.11 8.57 8.57 0 0 1-4.13 4.82 17.5 17.5 0 0 1-7.95 1.5 78.85 78.85 0 0 1-12.89-1.04z" class="cls-2"/><path d="m304.13 472.9v-51.78h5.65v51.78z" class="cls-2"/><path d="m335.44 472.9v-46.67h-11.51v-5.11h28.68v5.11h-11.52v46.67z" class="cls-2"/><path d="m366.83 472.9v-51.78h5.65v51.78z" class="cls-2"/><path d="m399.12 472.9-12.95-51.78h5.83l10.62 44.33h0.45l10.61-44.33h5.65l-12.84 51.78z" class="cls-2"/><path d="m433 472.9v-51.78h24.46v5h-18.83v18.14h16.37v5h-16.37v18.74h18.82v5z" class="cls-2"/><path d="m502.53 472.9v-46.67h-11.53v-5.11h28.67v5.11h-11.49v46.67z" class="cls-2"/><path d="m533.69 472.9v-51.78h24.46v5h-18.81v18.14h16.33v5h-16.33v18.74h18.81v5z" class="cls-2"/><path d="m592.21 473.24a42 42 0 0 1-4.48 0.26q-6.76 0-9.89-2c-2.09-1.36-3.49-3.83-4.22-7.41s-1.09-9.27-1.09-17.05 0.36-13.39 1.09-17 2.13-6.07 4.22-7.45 5.38-2.07 9.89-2.07a35 35 0 0 1 4.45 0.3 24.57 24.57 0 0 1 3.83 0.76v4.59a46.09 46.09 0 0 0-7.07-0.68c-3.46 0-5.9 0.45-7.3 1.35s-2.32 2.77-2.75 5.58a111.67 111.67 0 0 0-0.64 14.6 111.77 111.77 0 0 0 0.64 14.6c0.43 2.81 1.34 4.67 2.75 5.57s3.84 1.35 7.3 1.35a38.87 38.87 0 0 0 7.3-0.67v4.74a38.61 38.61 0 0 1-4.03 0.63z" class="cls-2"/><path d="m635 472.9v-23.56h-18v23.56h-5.57v-51.78h5.57v23.1h18v-23.1h5.57v51.78z" class="cls-2"/><path d="m682.19 472.9-17.83-39.82h-0.31v39.82h-5.41v-51.78h5.94l17.54 39.13h0.3v-39.13h5.42v51.78z" class="cls-2"/><path d="m709.59 471.47c-2.11-1.36-3.46-3.75-4.06-7.19s-0.91-9.19-0.91-17.27 0.3-13.84 0.91-17.28 2-5.83 4.06-7.18 5.62-2 10.54-2 8.43 0.68 10.54 2 3.46 3.75 4.06 7.18 0.9 9.2 0.9 17.28-0.3 13.83-0.9 17.27-2 5.83-4.06 7.19-5.62 2-10.54 2-8.43-0.65-10.54-2zm17.24-4.07q1.88-1.12 2.48-5.34a125.27 125.27 0 0 0 0.6-15.05 125.35 125.35 0 0 0-0.6-15.06q-0.6-4.21-2.48-5.34t-6.7-1.13c-3.21 0-5.45 0.38-6.7 1.13s-2.08 2.53-2.48 5.34a122.62 122.62 0 0 0-0.61 15.06 122.54 122.54 0 0 0 0.61 15.05c0.4 2.81 1.22 4.59 2.48 5.34s3.49 1.13 6.7 1.13 5.44-0.37 6.7-1.13z" class="cls-2"/><path d="m752.42 472.9v-51.78h5.64v46.66h16.71v5.12z" class="cls-2"/><path d="m792.16 471.47c-2.11-1.36-3.46-3.75-4.07-7.19s-0.9-9.19-0.9-17.27 0.3-13.84 0.9-17.28 2-5.83 4.07-7.18 5.62-2 10.54-2 8.43 0.68 10.53 2 3.46 3.75 4.07 7.18 0.9 9.2 0.9 17.28-0.3 13.83-0.9 17.27-2 5.83-4.07 7.19-5.62 2-10.53 2-8.44-0.65-10.54-2zm17.23-4.07q1.89-1.12 2.49-5.34a125.27 125.27 0 0 0 0.6-15.05 125.35 125.35 0 0 0-0.6-15.06q-0.6-4.21-2.49-5.34t-6.69-1.13q-4.83 0-6.7 1.13t-2.49 5.39a125.35 125.35 0 0 0-0.6 15.06 125.27 125.27 0 0 0 0.6 15.05q0.6 4.21 2.49 5.34c1.25 0.76 3.48 1.13 6.7 1.13s5.44-0.42 6.69-1.18z" class="cls-2"/><path d="m848.68 450.17v-4.82h13.17v26.72a60.59 60.59 0 0 1-6.05 1 52.59 52.59 0 0 1-6.06 0.41q-6.86 0-10.16-2t-4.58-7.48q-1.28-5.5-1.28-17t1.28-16.85q1.29-5.5 4.6-7.57t10.23-2.07a55.47 55.47 0 0 1 11.89 1.43v4.67a48.35 48.35 0 0 0-4.93-0.79 40.9 40.9 0 0 0-4.62-0.34q-6.1 0-8.51 1.13t-3.33 5.39q-0.9 4.29-0.91 15a102.79 102.79 0 0 0 0.68 14.11c0.45 2.89 1.38 4.85 2.79 5.91s3.71 1.58 6.92 1.58a30.14 30.14 0 0 0 6.55-0.6v-17.83z" class="cls-2"/><path d="m887.07 472.9v-19.9l-13.33-31.83h6l10.09 25.13h0.45l10.08-25.13h5.64l-13.36 31.83v19.9z" class="cls-2"/></g></g></svg>