<svg xmlns="http://www.w3.org/2000/svg" width="195.177" height="61.462" viewBox="0 0 195.177 61.462"><g fill-rule="evenodd"><path fill="#fe8f00" d="M65.425 29.451H49.367v3.441h16.058zM46.272 29.451H30.215v3.441H46.272z"/><g fill="#fe9300"><path d="M93.755 28.89a2.06 2.06 0 1 1 0 4.119 2.06 2.06 0 0 1 0-4.119zM102.352 21.418a2.511 2.511 0 1 1 0 5.023 2.511 2.511 0 0 1 0-5.023zM112.495 14.811a2.964 2.964 0 1 1 0 5.927 2.964 2.964 0 0 1 0-5.927zM124.792 10.693a3.416 3.416 0 1 1 0 6.831 3.416 3.416 0 0 1 0-6.831zM138.082 10a3.868 3.868 0 1 1 0 7.736 3.868 3.868 0 0 1 0-7.736zM151.17 15.722a4.32 4.32 0 1 1 0 8.64 4.32 4.32 0 0 1 0-8.64z"/></g><path fill="#fe9300" d="M144.99 40.802a7.081 7.081 0 0 1 4.02-6.387v-3.824c-4.395 1.315-7.597 5.39-7.597 10.212 0 5.886 4.771 10.658 10.658 10.658 5.886 0 10.657-4.772 10.657-10.658 0-4.823-3.202-8.897-7.597-10.212v3.824a7.081 7.081 0 0 1 4.02 6.387 7.081 7.081 0 0 1-14.162 0z"/><g fill="#181538"><path d="M104.295 41.934c0-1.276.336-2.273 1.013-2.981.677-.713 1.56-1.07 2.645-1.07 1.106 0 1.963.346 2.568 1.04.605.686.904 1.673.904 2.949v9.28h3.782V40.735c0-1.922-.506-3.452-1.514-4.589-1.012-1.136-2.444-1.705-4.298-1.705-.636 0-1.21.078-1.716.233-.506.16-.966.372-1.39.646a5.577 5.577 0 0 0-1.11.92c-.32.345-.615.712-.884 1.11v-2.568h-3.782v16.368h3.782zM69.806 51.151h15.19v-3.44H73.588V29.45h-3.782zm-43.686-21.7H10v21.7h3.782v-8.835h10.943v-3.44H13.782v-5.983H26.12zm4.095 9.021v12.68h16.212V47.71h-12.43v-5.797h10.88v-3.44H33.996zm19.152 0v12.68H65.58V47.71H53.15v-5.797h10.88v-3.44H53.15zM95.646 51.151V34.784h-3.782V51.15zM135.546 43.773V29.451h-3.906v14.23c0 1.446-.315 2.516-.946 3.208-.63.692-1.462 1.039-2.495 1.039-.93 0-1.73-.223-2.403-.667-.671-.444-1.327-1.07-1.968-1.876l-2.511 2.573a9.297 9.297 0 0 0 2.759 2.496c1.116.671 2.51 1.008 4.185 1.008 1.075 0 2.056-.16 2.945-.481.889-.32 1.653-.8 2.294-1.442.64-.64 1.142-1.441 1.503-2.402.362-.961.543-2.082.543-3.364zM176.853 29.451h-9.718v21.7h10.028c1.194 0 2.289-.129 3.281-.387.987-.259 1.834-.64 2.537-1.142a5.222 5.222 0 0 0 1.622-1.876c.382-.743.574-1.596.574-2.567 0-.744-.104-1.4-.31-1.964a4.211 4.211 0 0 0-.879-1.472 5.577 5.577 0 0 0-1.353-1.07 11.52 11.52 0 0 0-1.742-.785 7.975 7.975 0 0 0 1.153-.749c.377-.29.708-.625.987-1.008.273-.382.5-.831.671-1.348.176-.522.264-1.11.264-1.772 0-1.72-.641-3.075-1.917-4.067-1.281-.997-3.012-1.493-5.198-1.493zm-.744 9.176h-5.192v-5.796h5.466c1.24 0 2.18.242 2.831.733.646.486.972 1.178.972 2.072 0 1.018-.372 1.772-1.111 2.258-.744.49-1.731.734-2.966.734zm1.111 9.145h-6.303v-5.951h6.03c1.503 0 2.619.258 3.352.775.73.516 1.096 1.24 1.096 2.17 0 .991-.372 1.74-1.111 2.247-.744.506-1.762.76-3.064.76zM150.823 29.23v6.515c0 .244.25.443.555.443h1.385c.305 0 .555-.199.555-.443V29.23c0-.244-.25-.443-.555-.443h-1.385c-.305 0-.555.2-.555.443z"/></g></g></svg>