<svg xmlns="http://www.w3.org/2000/svg" xmlns:xlink="http://www.w3.org/1999/xlink" id="Layer_1" width="194" height="135" x="0" y="0" enable-background="new 0 0 194 135" version="1.1" viewBox="0 0 194 135" xml:space="preserve"><path fill="#13110C" d="M2.126,93.214c-1.098,0-1.807,0.695-1.807,1.774v22.607c0,1.076,0.709,1.772,1.807,1.772	c1.098,0,1.808-0.696,1.808-1.772V94.988C3.934,93.909,3.224,93.214,2.126,93.214z"/><path fill="#13110C" d="M22.222,114.024c-0.412,0-0.755,0.158-1.523,0.713c-1.688,1.228-3.037,1.685-4.981,1.685	c-1.663,0-2.958-0.444-3.957-1.353c-1.003-0.915-1.444-1.896-1.577-3.569H21.95c1.44,0,2.002-0.515,2.002-1.841	c0-2.379-0.878-4.583-2.474-6.205c-1.597-1.622-3.767-2.516-6.11-2.516c-5.107,0-8.813,3.904-8.813,9.285	c0,5.47,3.588,9.145,8.93,9.145c3.453,0,8.08-1.925,8.08-3.89C23.564,114.703,22.938,114.024,22.222,114.024z M15.215,103.884	c3.033,0,4.885,1.814,5.11,4.991H10.187C10.508,105.563,12.197,103.884,15.215,103.884z"/><path fill="#13110C" d="M35.232,100.938c-2.282,0-3.817,0.638-4.892,2.058v-0.285c0-1.078-0.709-1.772-1.806-1.772	c-1.099,0-1.807,0.694-1.807,1.772v21.8c0,1.075,0.708,1.771,1.807,1.771c1.097,0,1.806-0.696,1.806-1.771v-7.251	c1.252,1.381,2.986,2.108,5.047,2.108c4.782,0,8.389-3.961,8.389-9.214C43.777,104.813,40.184,100.938,35.232,100.938z M35.079,103.884c3.088,0,5.084,2.461,5.084,6.271c0,3.807-1.98,6.268-5.047,6.268c-3.137,0-5.084-2.417-5.084-6.304	C30.032,106.331,32.012,103.884,35.079,103.884z"/><path fill="#13110C" d="M62.982,109.659c0-2.379-0.878-4.583-2.472-6.205c-1.599-1.622-3.768-2.516-6.112-2.516	c-5.106,0-8.814,3.904-8.814,9.285c0,5.47,3.589,9.145,8.931,9.145c3.453,0,8.079-1.923,8.079-3.89c0-0.775-0.626-1.454-1.341-1.454	c-0.413,0-0.753,0.158-1.523,0.713c-1.686,1.228-3.037,1.685-4.98,1.685c-1.664,0-2.959-0.444-3.959-1.353	c-1.002-0.913-1.441-1.896-1.576-3.569h11.77C62.422,111.5,62.982,110.985,62.982,109.659z M54.245,103.884	c3.034,0,4.887,1.814,5.111,4.991H49.217C49.539,105.563,51.229,103.884,54.245,103.884z"/><path fill="#13110C" d="M73.451,100.938c-1.493,0-3.105,1.017-4.233,2.626v-0.854c0-1.078-0.709-1.772-1.807-1.772	c-1.098,0-1.808,0.694-1.808,1.772v14.885c0,1.076,0.709,1.772,1.808,1.772c1.098,0,1.807-0.696,1.807-1.772v-8.363	c-0.037-2.596,1.435-4.342,4.04-4.787c0.925-0.168,2.154-0.539,2.154-1.806C75.412,101.654,74.589,100.938,73.451,100.938z"/><path fill="#13110C" d="M96.722,100.938c-2.485,0-4.143,0.805-5.834,2.853c-1.426-1.997-3.044-2.853-5.357-2.853	c-2.016,0-3.358,0.536-4.659,1.892v-0.119c0-1.078-0.71-1.772-1.807-1.772c-1.099,0-1.807,0.694-1.807,1.772v14.885	c0,1.076,0.708,1.772,1.807,1.772c1.097,0,1.807-0.696,1.807-1.772v-9.84c0-2.426,1.452-3.872,3.886-3.872	c2.455,0,3.922,1.446,3.922,3.872v9.84c0,1.076,0.709,1.772,1.808,1.772c1.097,0,1.807-0.696,1.807-1.772v-9.84	c0-2.426,1.452-3.872,3.884-3.872c2.457,0,3.924,1.446,3.924,3.872v9.84c0,1.076,0.71,1.772,1.809,1.772	c1.098,0,1.806-0.696,1.806-1.772v-9.77C103.718,103.641,100.972,100.938,96.722,100.938z"/><path fill="#13110C" d="M109.307,94.977c-1.208,0-2.156,0.888-2.156,2.02c0,1.112,0.948,1.983,2.156,1.983	c1.23,0,2.194-0.871,2.194-1.983C111.501,95.845,110.559,94.977,109.307,94.977z"/><path fill="#13110C" d="M109.307,100.938c-1.098,0-1.808,0.694-1.808,1.772v14.885c0,1.076,0.71,1.772,1.808,1.772	s1.81-0.696,1.81-1.772v-14.885C111.116,101.633,110.404,100.938,109.307,100.938z"/><path fill="#13110C" d="M122.152,108.497c-2.939-0.96-4.031-1.687-4.031-2.683c0-1.137,1.295-1.931,3.148-1.931	c1.305,0,2.184,0.293,3.365,1.127c0.766,0.514,1.157,0.672,1.67,0.672c0.935,0,1.613-0.584,1.613-1.386	c0-1.726-3.249-3.358-6.685-3.358c-3.834,0-6.726,2.216-6.726,5.158c0,2.16,1.669,3.593,5.956,5.112	c3.058,1.073,4.304,1.952,4.304,3.037c0,1.219-1.55,2.176-3.534,2.176c-1.52,0-2.663-0.372-4.219-1.375	c-0.87-0.566-1.352-0.777-1.784-0.777c-0.861,0-1.535,0.655-1.535,1.492c0,1.854,3.606,3.606,7.42,3.606	c4.234,0,7.307-2.302,7.307-5.477C128.422,111.51,126.605,109.946,122.152,108.497z"/><path fill="#13110C" d="M131.665,94.988v22.607c0,1.078,0.71,1.772,1.809,1.772c1.096,0,1.807-0.694,1.807-1.772V94.988	c0-1.078-0.711-1.774-1.807-1.774C132.375,93.214,131.665,93.91,131.665,94.988z"/><path fill="#13110C" d="M140.867,94.977c-1.208,0-2.154,0.89-2.154,2.021c0,1.112,0.946,1.981,2.154,1.981	c1.23,0,2.194-0.869,2.194-1.981C143.062,95.843,142.119,94.977,140.867,94.977z"/><path fill="#13110C" d="M140.867,100.938c-1.096,0-1.808,0.696-1.808,1.772v14.886c0,1.075,0.712,1.773,1.808,1.773	c1.099,0,1.808-0.698,1.808-1.773v-14.886C142.675,101.635,141.966,100.938,140.867,100.938z"/><path fill="#13110C" d="M155.271,100.938c-2.029,0-3.763,0.729-5.045,2.118v-8.068c0-1.079-0.71-1.774-1.807-1.774	c-1.1,0-1.809,0.695-1.809,1.774v22.608c0,1.075,0.709,1.773,1.809,1.773c1.097,0,1.807-0.698,1.807-1.773v-0.286	c1.071,1.42,2.606,2.06,4.891,2.06c4.952,0,8.544-3.877,8.544-9.216C163.661,104.899,160.054,100.938,155.271,100.938z M154.964,103.884c3.088,0,5.085,2.461,5.085,6.271c0,3.807-1.98,6.27-5.05,6.27c-3.136,0-5.083-2.417-5.083-6.306	C149.916,106.33,151.896,103.884,154.964,103.884z"/><path fill="#13110C" d="M174.479,100.938c-1.495,0-3.106,1.017-4.235,2.626v-0.854c0-1.076-0.708-1.772-1.806-1.772	c-1.099,0-1.809,0.696-1.809,1.772v14.886c0,1.075,0.71,1.773,1.809,1.773c1.098,0,1.806-0.698,1.806-1.773v-8.362	c-0.037-2.598,1.436-4.344,4.04-4.789c0.925-0.168,2.155-0.537,2.155-1.804C176.439,101.654,175.616,100.938,174.479,100.938z"/><defs><filter id="Adobe_OpacityMaskFilter" width="17.397" height="18.432" x="176.428" y="100.938" filterUnits="userSpaceOnUse"><feColorMatrix type="matrix" values="1 0 0 0 0 0 1 0 0 0 0 0 1 0 0 0 0 0 1 0"/></filter></defs><mask id="mask0_1_2907" width="17.397" height="18.432" x="176.428" y="100.938" maskUnits="userSpaceOnUse"><path fill="#FFF" d="M176.428,100.938h17.397v18.432h-17.397V100.938z" filter="url(#Adobe_OpacityMaskFilter)"/></mask><g mask="url(#mask0_1_2907)"><path fill="#13110C" d="M192.096,114.024c-0.411,0-0.753,0.158-1.524,0.713c-1.685,1.228-3.034,1.685-4.979,1.685 c-1.664,0-2.957-0.442-3.956-1.353c-1.005-0.913-1.444-1.896-1.58-3.565h11.769c1.439,0,2.001-0.517,2.001-1.845 c0-2.378-0.877-4.581-2.475-6.205c-1.596-1.622-3.766-2.516-6.109-2.516c-5.105,0-8.813,3.904-8.813,9.287 c0,5.468,3.589,9.145,8.928,9.145c3.456,0,8.082-1.927,8.082-3.89C193.438,114.705,192.812,114.024,192.096,114.024z M185.088,103.885c3.034,0,4.886,1.813,5.111,4.99h-10.139C180.383,105.563,182.07,103.885,185.088,103.885z"/></g><path fill="#13110C" d="M118.619,51.278c0.002-3.172,0-6.343-0.012-9.515c-0.004-1.252-0.241-2.289-1.022-3.556	c-0.637-0.997-1.876-2.081-3.509-3.144c0.002,0.001-0.01-0.034-0.029-0.091v-0.001c-0.075-0.23-0.266-0.824-0.29-0.908	c-0.215-0.722-0.429-1.442-0.646-2.164v-0.001l0,0c-0.527-1.759-1.056-3.519-1.535-5.293c-0.425-1.576-1.47-2.162-2.979-2.331	c-3.972-0.444-7.948-0.63-11.927-0.62c-3.981-0.01-7.957,0.176-11.929,0.62c-1.51,0.169-2.554,0.755-2.979,2.331	c-0.479,1.771-1.006,3.527-1.533,5.285l0,0c-0.217,0.724-0.434,1.448-0.648,2.173c-0.027,0.088-0.232,0.73-0.299,0.937	c-0.013,0.04-0.021,0.064-0.02,0.063c-1.635,1.063-2.873,2.147-3.51,3.144c-0.782,1.268-1.017,2.304-1.021,3.556	c-0.01,3.171-0.014,6.343-0.012,9.515c0,1.121,0.909,2.028,2.031,2.028h-0.089c0,0.242,0,0.481,0,0.72v0.001	c0,0.239,0,0.479,0.001,0.721c0,0.917,0.43,1.442,1.164,1.446c2.179,0.013,4.359,0.01,6.537-0.001	c0.765-0.004,1.16-0.519,1.182-1.489c0.006-0.308,0.005-0.615,0.002-0.931l0,0l0,0c0-0.152-0.001-0.31-0.001-0.467H96.67h11.07	c0,0.149-0.003,0.295-0.003,0.437l0,0c0,0.329-0.002,0.645,0.003,0.961c0.022,0.97,0.42,1.485,1.182,1.489	c2.18,0.011,4.36,0.014,6.539,0.001c0.731-0.004,1.163-0.529,1.165-1.446v-1.442h-0.037	C117.708,53.306,118.619,52.398,118.619,51.278z M96.67,33.731c-4.953,0.001-9.914,0.412-14.901,1.234	c0.069-0.286,0.134-0.567,0.198-0.845c0.141-0.609,0.276-1.201,0.448-1.782c0.245-0.833,0.503-1.662,0.762-2.491l0,0l0,0	c0.267-0.858,0.534-1.715,0.786-2.577c0.143-0.482,0.436-0.603,0.878-0.655c3.931-0.466,7.879-0.682,11.83-0.618	c3.95-0.064,7.896,0.152,11.827,0.618c0.443,0.053,0.737,0.173,0.879,0.655c0.253,0.87,0.522,1.736,0.793,2.599	c0.256,0.822,0.513,1.643,0.755,2.469c0.166,0.57,0.299,1.153,0.438,1.749c0.067,0.289,0.136,0.581,0.207,0.878	C106.582,34.143,101.618,33.732,96.67,33.731z M78.295,42.761c0.112-0.494,0.276-0.962,0.725-0.962	c3.12,0.002,6.126,0.511,6.568,1.269c0.42,0.718,1.106,2.358,1.128,2.886c0.013,0.37-0.286,0.676-0.656,0.667	c-1.708-0.04-6.316-0.307-7.362-0.82C78.08,45.498,78.061,43.794,78.295,42.761z M114.316,41.799c0.449,0,0.615,0.468,0.725,0.962	c0.234,1.033,0.215,2.737-0.401,3.039c-1.044,0.513-5.654,0.781-7.362,0.82c-0.371,0.009-0.669-0.297-0.655-0.667	c0.021-0.527,0.707-2.168,1.125-2.886C108.192,42.31,111.197,41.801,114.316,41.799z"/><path fill="#13110C" d="M96.303,10.169c4.221,0,8.315,0.827,12.169,2.456c3.722,1.575,7.065,3.83,9.938,6.701	c2.87,2.872,5.125,6.216,6.702,9.938c1.627,3.853,2.453,7.946,2.453,12.169v31.262H96.303c-4.222,0-8.315-0.824-12.169-2.453	c-3.722-1.577-7.066-3.832-9.938-6.701c-2.873-2.875-5.127-6.218-6.701-9.939c-1.631-3.852-2.455-7.946-2.455-12.168	c0-4.223,0.824-8.316,2.455-12.169c1.574-3.723,3.829-7.066,6.701-9.938c2.871-2.872,6.216-5.126,9.938-6.701	C87.988,10.996,92.081,10.169,96.303,10.169z M96.303,7.333c-18.833,0-34.1,15.266-34.1,34.101c0,18.833,15.266,34.099,34.1,34.099	h34.1V41.434C130.402,22.599,115.136,7.333,96.303,7.333z"/></svg>