<svg xmlns="http://www.w3.org/2000/svg" width="613" height="145" data-name="Layer 1" viewBox="0 0 613 145"><path fill="#e00" d="M127.5 83.5C140 83.5 158 80.9 158 66a14 14 0 0 0-.3-3.4l-7.5-32.4c-1.7-7-3.2-10.3-15.7-16.6-9.7-5-30.8-13.1-37-13.1C91.5.5 90 8 83 8c-6.7 0-11.7-5.6-18-5.6-6 0-9.8 4-12.9 12.5 0 0-8.4 23.7-9.5 27.2a6.4 6.4 0 0 0-.2 1.9c0 9.2 36.3 39.5 85 39.5M160 72c1.7 8.2 1.7 9 1.7 10.1 0 14-15.7 21.8-36.4 21.8-46.8 0-87.7-27.4-87.7-45.5a18.4 18.4 0 0 1 1.5-7.3C22.3 52 .5 55 .5 74.2c0 31.5 74.6 70.3 133.7 70.3 45.2 0 56.7-20.5 56.7-36.6 0-12.8-11-27.2-30.9-35.8"/><path d="M160 72c1.7 8.3 1.7 9.1 1.7 10.2 0 14-15.7 21.8-36.4 21.8-46.8 0-87.7-27.4-87.7-45.5a18.4 18.4 0 0 1 1.5-7.3l3.6-9.1a6.4 6.4 0 0 0-.2 1.9c0 9.2 36.3 39.5 85 39.5C140 83.5 158 80.9 158 66a14 14 0 0 0-.3-3.4zM579.7 92.8c0 11.9 7.2 17.7 20.2 17.7a52.1 52.1 0 0 0 12-1.7V95a24.8 24.8 0 0 1-7.8 1.2c-5.3 0-7.3-1.7-7.3-6.8V68.3h15.5V54.1h-15.5v-18l-17 3.7V54h-11.3v14.2h11.2zm-53 .3c0-3.7 3.7-5.5 9.3-5.5a43.1 43.1 0 0 1 10.1 1.3v7.2a21.5 21.5 0 0 1-10.6 2.6c-5.5 0-8.8-2.1-8.8-5.6m5.2 17.6a26 26 0 0 0 15.4-4.3v3.3h16.8V74.1c0-13.6-9.1-21-24.4-21-8.5 0-17 2-26 6l6.1 12.6c6.6-2.7 12-4.4 16.9-4.4 7 0 10.6 2.7 10.6 8.3v2.7a49.5 49.5 0 0 0-12.6-1.6c-14.3 0-23 6-23 16.8 0 9.8 7.8 17.2 20.2 17.2m-92.4-1h18V81H488v28.8H506V36.1h-18v28.3h-30.4V36.1h-18zM370.6 82a14 14 0 0 1 14.6-14.1A17.2 17.2 0 0 1 397 72v19.4a16.4 16.4 0 0 1-11.8 4.5c-8.2 0-14.6-6.1-14.6-14m26.6 27.8h16.9V32.4l-17 3.7v21a28.3 28.3 0 0 0-14.2-3.7c-16.2 0-29 12.5-29 28.5a28.3 28.3 0 0 0 28.4 28.6 25.1 25.1 0 0 0 15-4.9zM320 67c5.4 0 9.9 3.5 11.7 8.8h-23.2c1.6-5.5 5.9-8.8 11.5-8.8m-28.7 15c0 16.2 13.3 28.8 30.3 28.8 9.4 0 16.2-2.5 23.3-8.4l-11.3-10a15 15 0 0 1-11.1 4.2 14.4 14.4 0 0 1-13.7-8.8h39.6v-4.3c0-17.6-11.8-30.3-28-30.3a28.6 28.6 0 0 0-29 28.8M262 51.6c6 0 9.4 3.8 9.4 8.3s-3.4 8.3-9.4 8.3h-17.9V51.6zm-36 58.1h18V83H258l13.9 26.8H292l-16.2-29.4a22.3 22.3 0 0 0 13.9-20.7c0-13.3-10.4-23.5-26-23.5H226z"/></svg>