<svg xmlns="http://www.w3.org/2000/svg" xmlns:svg="http://www.w3.org/2000/svg" id="Calque_1" width="519.874" height="149.702" x="0" y="0" version="1.1" viewBox="0 0 519.874 149.702" xml:space="preserve"><metadata id="metadata67"/><style id="style3" type="text/css">.st0{fill:#006eab}.st1{fill:none}</style><g id="g5" transform="translate(-74.461876,-48.767826)"><g id="g7"><path id="path9" d="m 365.8,63.2 -9.5,0 0,24.1 c -3.8,-3.4 -8.4,-5.4 -16.4,-5.4 -13.4,0 -26.8,8.8 -26.8,33.5 0,7.6 1.5,13.9 4.1,18.7 -1.9,0.5 -3.9,0.9 -6,0.9 -5.4,0 -8,-1.8 -8,-8 l 0,-16.1 0,0 0,-38 c 0,-8.4 -1,-9.8 -6.8,-9.8 l -9.4,0 0,47.9 0,16.2 0,1.9 c 0,14.1 6.8,17.6 15.9,17.6 7,0 14.2,-2.4 19.8,-5.7 4.3,3.8 9.7,5.7 15.7,5.7 8.3,0 14.4,-3.5 18.4,-8 0.7,5.9 2.3,7.2 5,7.2 l 11,0 0,-72.8 c -0.1,-8.3 -1.1,-9.9 -7,-9.9 m -9.5,65.9 c -4.4,3.7 -7.9,5.5 -13,5.5 -8.4,0 -12.5,-5.5 -12.5,-19.9 0,-15.7 7.3,-19.3 14.5,-19.3 4.8,0 8.3,1.1 11,3.1 l 0,30.6 z" class="st0" style="fill:#006eab"/><path id="path11" d="m 260,90.6 c -0.6,-6.2 -2.4,-7.1 -5.4,-7.1 l -10.9,0 0,62.5 16.6,0 0,-45.4 c 3.4,-1.8 9.5,-3.7 18.1,-3.7 l 3,0 0,-13.8 c -1.2,-0.4 -2.5,-0.6 -3.8,-0.6 -7.8,0 -13.6,3.9 -17.6,8.1" class="st0" style="fill:#006eab"/><path id="path13" d="m 423.2,80.1 c 5.3,0 9.5,-4.1 9.5,-9.2 0,-5.2 -4.2,-9.4 -9.5,-9.4 -5.3,0 -9.6,4.2 -9.6,9.4 0.1,5.1 4.4,9.2 9.6,9.2" class="st0" style="fill:#006eab"/><path id="path15" d="m 206.7,147.5 0,0 c 17.8,0 32.7,-14.6 32.7,-32.7 0,-13.5 -8.3,-25.2 -20,-30.2 l 0,0 c -3.9,-1.7 -8.2,-2.6 -12.7,-2.6 -1.2,0 -2.3,0.1 -3.4,0.2 -4,5.4 -6.3,12.1 -6.3,19.3 0,13.6 8.3,25.2 20,30.1 -3,2.1 -6.5,3.3 -10.3,3.3 -10.4,0 -18.9,-9 -18.9,-20.2 0,-4.8 1.6,-9.2 4.2,-12.6 0,-5.1 1.8,-14.4 4.5,-18.5 -13.1,4.4 -22.5,16.9 -22.5,31.2 0,18.2 14.9,32.7 32.7,32.7 m 4.1,-45.9 c 0,-2.1 0.3,-4.2 0.9,-6.1 8,2.3 13.9,10.1 13.9,19.4 0,2.1 -0.3,4.2 -0.9,6.2 -8,-2.5 -13.9,-10.2 -13.9,-19.5" class="st0" style="fill:#006eab"/><path id="path17" d="m 571.2,113.2 c 0,-20.7 -9.8,-30.9 -28.3,-30.9 -17.5,0 -30.7,12.4 -30.7,32.7 0,7.6 1.7,14.1 4.9,19.2 -2.2,0.7 -4.5,1.2 -7,1.2 -4.7,0 -7.3,-1.4 -7.8,-5.8 l 0,-30.2 c 0,-14.1 -7.8,-17.6 -16.9,-17.6 -8.4,0 -15.9,3.6 -21.8,7.9 -0.7,-5.4 -2.4,-6.1 -5.4,-6.1 l -10.9,0 0,48.4 c -2.4,0.8 -5.1,1.5 -7.8,1.5 -5.3,0 -7.9,-1.8 -8,-7.8 l 0,-30.7 c 0,-9.6 -0.8,-11.5 -6.6,-11.5 l -9.7,0 0,25.8 0,18.1 0,0.3 0,6.1 c -2.5,0.8 -5.2,1.6 -8.1,1.6 -5.4,0 -8,-1.8 -8,-8 l 0,-54.3 c 0,-8.4 -1,-9.8 -6.8,-9.8 l -9.3,0 0,48.1 0,16 0,2.2 c 0,14.1 6.8,17.6 15.9,17.6 7.3,0 14.7,-2.5 20.4,-6 2.9,3.1 7.1,4.1 11.9,4.1 5.6,0 11.3,-1.5 16.2,-3.8 l 0,4.6 16.5,0 0,-47.2 c 4,-1.4 8.9,-2.9 14.3,-2.9 5.4,0 7.8,1.8 7.8,8 l 0,7.2 0,0 0,18.2 c 0,14.1 6.8,17.6 15.9,17.6 7.6,0 15.3,-2.7 21.1,-6.5 5.2,4.2 12.4,6.5 21.3,6.5 12.6,0 19.6,-3.2 24.7,-6.1 l 0,-11.5 -5.4,0 c -4.1,3 -9.6,5.3 -16.7,5.3 -9.7,0 -15.7,-3.5 -16.5,-16.1 l 40.6,0 c 0,-0.6 0.2,-3.2 0.2,-5.4 m -40.7,-5.1 c 1.3,-11.7 6.3,-14.7 12.5,-14.7 6.8,0 10.7,3.6 11,14.7 l -23.5,0 z" class="st0" style="fill:#006eab"/><path id="path19" d="m 90.2,96.9 14.1,49.4 13.8,0 11.9,-40.3 11.8,40.3 13.8,0 L 170,97 c 0.5,-1.8 1.7,-2.7 3.3,-2.7 l 3.6,0 0,-10.7 -26.6,0 0,10.7 4.3,0 c 0.9,0 2,0.1 2.4,0.7 0.3,0.4 0.6,1.5 -0.2,4.1 l -7,25.6 -11.9,-41 -12.8,0 -11.8,41 -8.3,-30.4 6.4,0 0,-10.7 -27.8,0 0,10.7 3.9,0 c 1.1,0 2.3,1.1 2.7,2.6" class="st0" style="fill:#006eab"/></g><g id="g21"><g id="g23"><path id="path25" d="m 311.6,172.8 c 0.2,3.1 1.6,4.6 4.1,4.6 2,0 2.7,-0.7 3.5,-1.7 l 2.5,0 0,2.9 c -1.3,0.8 -3,1.5 -6.3,1.5 -5.5,0 -8.2,-3.1 -8.2,-8.1 0,-5.1 3.2,-8.2 7.9,-8.2 4.7,0 7.2,2.4 7.2,7.8 0,0.5 -0.1,1.1 -0.1,1.2 l -10.6,0 z m 0,-2.5 6.2,0 c -0.2,-2.8 -1,-3.9 -2.8,-3.9 -1.8,0.1 -3,1.2 -3.4,3.9 z" class="st0" style="fill:#006eab"/><path id="path27" d="m 323.4,169.3 7,0 0,3.3 -7,0 0,-3.3 z" class="st0" style="fill:#006eab"/><path id="path29" d="m 331.4,182.5 1.1,0 c 0.4,0 0.8,-0.4 0.8,-0.8 l 0,-14.1 c 0,-0.3 -0.4,-0.8 -0.8,-0.8 l -1.2,0 0,-2.7 5.4,0 c 0.5,0 0.8,0.4 0.9,1.8 1.2,-1.2 2.7,-2.1 4.8,-2.1 3,0 6,2.2 6,7.8 0,5.9 -3.5,8 -6.8,8 -1.8,0 -3,-0.4 -3.9,-1.1 l 0,3.9 2,0 0,2.4 -8.2,0 0,-2.3 z m 6.2,-14.9 0,8.8 c 0.7,0.4 1.4,0.7 2.6,0.7 1.8,0 3.7,-0.8 3.7,-5.1 0,-4 -1.7,-5 -3.6,-5 -0.8,0 -1.8,0.3 -2.7,0.6 z" class="st0" style="fill:#006eab"/><path id="path31" d="m 349.1,175.3 c 0,-3.3 2.6,-4.8 6.2,-4.8 1.3,0 2.2,0.1 3.2,0.4 l 0,-1.7 c 0,-1.6 -0.9,-2.4 -2.7,-2.4 -1.9,0 -2.9,0.7 -3.7,1.4 l -2,0 0,-3.2 c 1.5,-0.7 3.5,-1.2 6.5,-1.2 4.1,0 6.3,1.3 6.3,4.9 l 0,7.9 c 0,0.4 0.4,0.8 0.8,0.8 l 0.8,0 0,2.1 c -0.6,0.4 -1.5,0.6 -2.7,0.6 -1.8,0 -2.8,-0.7 -3.2,-2 -1.2,1.4 -2.7,2 -4.6,2 -2.7,0 -4.9,-1.6 -4.9,-4.8 z m 9.5,1.1 0,-3.4 c -0.7,-0.1 -1.5,-0.2 -2.3,-0.2 -1.8,0 -2.9,0.7 -2.9,2.3 0,1.6 0.9,2.4 2.4,2.4 1.2,0 2.1,-0.4 2.8,-1.1 z" class="st0" style="fill:#006eab"/><path id="path33" d="m 367.5,184.8 0,-2.3 c 1.7,-0.5 3.2,-1.4 4.3,-2.8 l -5.2,-12.1 c -0.2,-0.5 -0.5,-0.8 -0.9,-0.8 l -0.7,0 0,-2.7 7.7,0 0,2.7 -2.1,0 3.4,8.2 2.5,-6.2 c 0.5,-1.1 0.6,-2 -0.7,-2 l -0.5,0 0,-2.7 7,0 0,2.7 -0.7,0 c -0.4,0 -0.8,0.4 -1.1,0.9 l -5.2,11.7 c -1.2,2.7 -2.8,4.5 -4.3,5.5 l -3.5,0 z" class="st0" style="fill:#006eab"/><path id="path35" d="m 383,177.4 1.1,0 c 0.4,0 0.8,-0.4 0.8,-0.8 l 0,-9.1 c 0,-0.3 -0.4,-0.8 -0.8,-0.8 l -1.2,0 0,-2.7 5.4,0 c 0.5,0 0.8,0.4 0.9,2.1 1.3,-1.1 3.2,-2.3 5.6,-2.3 1.7,0 3.3,0.6 3.8,2.5 1.4,-1.2 3.3,-2.5 5.8,-2.5 2.1,0 4,0.9 4,4 l 0,8.9 c 0,0.4 0.4,0.8 0.8,0.8 l 0.8,0 0,2.5 -7.7,0 0,-2.5 1.7,0 0,-8.2 c 0,-1.5 -0.5,-1.9 -1.9,-1.9 -1.1,0 -2.3,0.2 -3.3,0.6 l 0,9.6 1.7,0 0,2.5 -7.8,0 0,-2.5 1.7,0 0,-8.2 c 0,-1.5 -0.5,-1.9 -1.9,-1.9 -1.1,0 -2.3,0.2 -3.3,0.6 l 0,9.6 1.7,0 0,2.5 -7.9,0 0,-2.8 z" class="st0" style="fill:#006eab"/><path id="path37" d="m 415.1,172.8 c 0.2,3.1 1.6,4.6 4.1,4.6 2,0 2.7,-0.7 3.5,-1.7 l 2.5,0 0,2.9 c -1.3,0.8 -3,1.5 -6.3,1.5 -5.5,0 -8.2,-3.1 -8.2,-8.1 0,-5.1 3.2,-8.2 7.9,-8.2 4.7,0 7.2,2.4 7.2,7.8 0,0.5 -0.1,1.1 -0.1,1.2 l -10.6,0 z m 0.1,-2.5 6.2,0 c -0.2,-2.8 -1,-3.9 -2.8,-3.9 -1.9,0.1 -3.1,1.2 -3.4,3.9 z" class="st0" style="fill:#006eab"/><path id="path39" d="m 426.4,177.4 1.1,0 c 0.4,0 0.8,-0.4 0.8,-0.8 l 0,-9.1 c 0,-0.3 -0.4,-0.8 -0.8,-0.8 l -1.2,0 0,-2.7 5.4,0 c 0.5,0 0.8,0.4 0.9,2.1 1.5,-1.4 3.5,-2.3 5.9,-2.3 2.2,0 4.1,0.9 4.1,4 l 0,8.9 c 0,0.4 0.4,0.8 0.8,0.8 l 0.8,0 0,2.5 -7.8,0 0,-2.5 1.8,0 0,-8.1 c 0,-1.6 -0.6,-2 -2.1,-2 -1.3,0 -2.4,0.3 -3.5,0.6 l 0,9.5 1.8,0 0,2.5 -8.1,0 0,-2.6 z" class="st0" style="fill:#006eab"/><path id="path41" d="m 444.6,164.1 1.9,0 0,-4.2 4.4,0 0,4.2 3.2,0 0,2.7 -3.2,0 0,8.7 c 0,1.7 0.6,2 2.2,2 l 1.1,0 0,2.4 c -0.7,0.2 -1.6,0.4 -2.8,0.4 -3,0 -4.9,-1 -4.9,-4.3 l 0,-9.2 -1.9,0 0,-2.7 z" class="st0" style="fill:#006eab"/><path id="path43" d="m 460,179.3 0,-3.6 2.5,0 c 0.4,1.1 1.8,1.8 3.2,1.8 1.7,0 2.7,-0.7 2.7,-1.9 0,-1.2 -0.7,-1.7 -3.2,-2 -3.4,-0.5 -5,-1.7 -5,-4.8 0,-3.1 2.4,-4.9 6.5,-4.9 2.5,0 4.2,0.3 5.4,0.7 l 0,3.5 -2.4,0 c -0.5,-0.9 -1.5,-1.5 -3.1,-1.5 -1.6,0 -2.5,0.7 -2.5,1.7 0,1 0.6,1.5 3.3,1.9 3.8,0.6 5.4,1.6 5.4,4.8 0,3.1 -2.1,5.1 -6.9,5.1 -3.1,0 -4.6,-0.4 -5.9,-0.8 z" class="st0" style="fill:#006eab"/><path id="path45" d="m 477.8,172.8 c 0.2,3.1 1.6,4.6 4.1,4.6 2,0 2.7,-0.7 3.5,-1.7 l 2.5,0 0,2.9 c -1.3,0.8 -3,1.5 -6.3,1.5 -5.5,0 -8.2,-3.1 -8.2,-8.1 0,-5.1 3.2,-8.2 7.9,-8.2 4.7,0 7.2,2.4 7.2,7.8 0,0.5 -0.1,1.1 -0.1,1.2 l -10.6,0 z m 0.1,-2.5 6.2,0 c -0.2,-2.8 -1,-3.9 -2.8,-3.9 -1.9,0.1 -3.1,1.2 -3.4,3.9 z" class="st0" style="fill:#006eab"/><path id="path47" d="m 489.1,177.4 1.1,0 c 0.4,0 0.8,-0.4 0.8,-0.8 l 0,-9.1 c 0,-0.3 -0.4,-0.8 -0.8,-0.8 l -1.2,0 0,-2.7 5.4,0 c 0.5,0 0.8,0.5 0.9,2.3 1.1,-1.3 2.3,-2.4 4.4,-2.4 0.3,0 0.7,0.1 1,0.2 l 0,3.3 -0.8,0 c -2.3,0 -3.7,0.5 -4.6,1 l 0,9.1 2.2,0 0,2.5 -8.4,0 0,-2.6 z" class="st0" style="fill:#006eab"/><path id="path49" d="m 502.7,167.6 c -0.2,-0.5 -0.5,-0.8 -1,-0.8 l -0.6,0 0,-2.7 7.7,0 0,2.7 -2,0 3.2,9 0.1,0 2.6,-7.1 c 0.4,-1.2 0.5,-2 -0.8,-2 l -0.5,0 0,-2.7 6.7,0 0,2.7 -0.5,0 c -0.5,0 -0.9,0.4 -1.1,0.9 l -5,12.2 -3.8,0 -5,-12.2 z" class="st0" style="fill:#006eab"/><path id="path51" d="m 518.7,177.4 1.1,0 c 0.4,0 0.7,-0.4 0.7,-0.8 l 0,-9.1 c 0,-0.3 -0.4,-0.8 -0.7,-0.8 l -1.3,0 0,-2.7 5.7,0 c 0.5,0 0.7,0.5 0.7,1.7 l 0,10.9 c 0,0.4 0.4,0.8 0.8,0.8 l 1.1,0 0,2.5 -8.2,0 0,-2.5 z m 1.7,-16.9 c 0,-1.3 1.1,-2.4 2.4,-2.4 1.3,0 2.4,1.1 2.4,2.4 0,1.3 -1.1,2.3 -2.4,2.3 -1.3,0.1 -2.4,-1 -2.4,-2.3 z" class="st0" style="fill:#006eab"/><path id="path53" d="m 527.6,172.1 c 0,-5.1 3.3,-8.2 8.4,-8.2 2.6,0 4.3,0.4 5.3,0.8 l 0,3.6 -2.7,0 c -0.5,-1.1 -1.2,-1.6 -2.8,-1.6 -2.4,0 -3.8,1.7 -3.8,5.4 0,3.8 1.2,5.3 3.8,5.3 2,0 2.7,-0.9 3.4,-1.7 l 2.1,0 0,3.1 c -1.2,0.7 -2.9,1.3 -5.6,1.3 -5.4,0 -8.1,-3 -8.1,-8 z" class="st0" style="fill:#006eab"/><path id="path55" d="m 547.2,172.8 c 0.2,3.1 1.6,4.6 4.1,4.6 2,0 2.7,-0.7 3.5,-1.7 l 2.5,0 0,2.9 c -1.3,0.8 -3,1.5 -6.3,1.5 -5.5,0 -8.2,-3.1 -8.2,-8.1 0,-5.1 3.2,-8.2 7.9,-8.2 4.7,0 7.2,2.4 7.2,7.8 0,0.5 -0.1,1.1 -0.1,1.2 l -10.6,0 z m 0.1,-2.5 6.2,0 c -0.2,-2.8 -1,-3.9 -2.8,-3.9 -1.9,0.1 -3.1,1.2 -3.4,3.9 z" class="st0" style="fill:#006eab"/><path id="path57" d="m 558.6,179.3 0,-3.6 2.5,0 c 0.4,1.1 1.8,1.8 3.2,1.8 1.7,0 2.7,-0.7 2.7,-1.9 0,-1.2 -0.7,-1.7 -3.2,-2 -3.4,-0.5 -5,-1.7 -5,-4.8 0,-3.1 2.4,-4.9 6.5,-4.9 2.5,0 4.2,0.3 5.4,0.7 l 0,3.5 -2.4,0 c -0.5,-0.9 -1.5,-1.5 -3.1,-1.5 -1.6,0 -2.5,0.7 -2.5,1.7 0,1 0.6,1.5 3.3,1.9 3.8,0.6 5.4,1.6 5.4,4.8 0,3.1 -2.1,5.1 -6.9,5.1 -3,0 -4.6,-0.4 -5.9,-0.8 z" class="st0" style="fill:#006eab"/></g></g></g><g id="g59" transform="translate(-74.461876,-48.767826)"><rect id="rect61" width="654.8" height="263.6" x="0" y="0" class="st1" style="fill:none"/></g><rect style="fill:none;fill-opacity:1;stroke:#fff;stroke-width:3.5;stroke-miterlimit:3;stroke-dasharray:none;stroke-opacity:1" id="rect4162" width="497.71" height="127.538" x="6.416" y="9.527"/><rect style="fill:none;fill-opacity:1;stroke:#fff;stroke-width:3.5;stroke-miterlimit:3;stroke-dasharray:none;stroke-opacity:1" id="rect4164" width="516.374" height="146.202" x="1.75" y="1.75"/></svg>