<svg xmlns="http://www.w3.org/2000/svg" id="Calque_1" data-name="Calque 1" viewBox="0 0 600 600"><defs><style>.cls-1{fill:#06f}.cls-2{fill:#fff}</style></defs><title>Plan de travail 1</title><g id="_Groupe_" data-name="&lt;Groupe&gt;"><rect width="600" height="600" class="cls-1"/><path d="M172,373.3H105.64v-5.67c10.8,0,11.88-2.7,11.88-15.92V275.89c0-13.22-1.08-15.92-11.88-15.92v-5.66h54.51v20.5c5.4-11.6,19.43-23.2,36.42-23.2,24.83,0,38.32,17.54,38.32,39.12v61c0,13.22,1.08,15.92,11.87,15.92v5.67H180.39v-5.67c10.79,0,11.87-2.7,11.87-15.92V295.86c0-18.08-7.29-25.09-17.54-25.09-5.67,0-11.33,3.5-14.57,10.79v70.15c0,13.22,1.35,15.92,11.87,15.92Z" class="cls-2"/><path d="M264,260v-5.66h54.5v97.4c0,13.22,1.35,15.92,11.88,15.92v5.67H264v-5.67c10.79,0,11.87-2.7,11.87-15.92V275.89C275.87,262.67,274.79,260,264,260Z" class="cls-2"/><path d="M357.86,275.89c0-13.22-1.34-15.92-11.87-15.92v-5.66h54.5V377.89c0,34.53-23.2,49.37-51.53,49.37-14.57,0-24.29-3.77-29.41-8.09L322,414c4.58,3,8.36,4.59,14.84,4.59,12.41,0,21-8.09,21-26.71Z" class="cls-2"/><path d="M428,260v-5.66h54.5v97.4c0,13.22,1.35,15.92,11.88,15.92v5.67H428v-5.67c10.79,0,11.87-2.7,11.87-15.92V275.89C439.85,262.67,438.77,260,428,260Z" class="cls-2"/><circle cx="297.19" cy="195.64" r="22.9" class="cls-2"/><circle cx="379.18" cy="195.64" r="22.9" class="cls-2"/><circle cx="461.17" cy="195.64" r="22.9" class="cls-2"/></g></svg>