<svg xmlns="http://www.w3.org/2000/svg" xmlns:svg="http://www.w3.org/2000/svg" id="svg4171" width="235.611" height="133.346" version="1.1" viewBox="0 0 235.611 133.346" xml:space="preserve"><metadata id="metadata4177"/><defs id="defs4175"><clipPath id="clipPath4189" clipPathUnits="userSpaceOnUse"><path id="path4191" d="m 104.601,151.132 59.165,-0.021 c 15.25,0 23.87,9.139 23.877,23.565 v 0 c 0.003,17.844 -11.101,24.997 -28.549,25.001 v 0 l -18.431,0.005 -0.009,-32.98 -15.487,0.002 0.005,32.983 -20.563,0.005 z m 54.138,14.537 0.003,18.807 h 1.174 c 6.895,0 11.104,-2.898 11.101,-9.727 v 0 c -0.003,-6.375 -4.83,-9.082 -11.107,-9.082 v 0 z"/></clipPath><linearGradient id="linearGradient4197" x1="0" x2="1" y1="0" y2="0" gradientTransform="matrix(-19.277637,28.240047,28.240047,19.277637,152.54036,158.14452)" gradientUnits="userSpaceOnUse" spreadMethod="pad"><stop style="stop-opacity:1;stop-color:#656263" id="stop4199" offset="0"/><stop style="stop-opacity:1;stop-color:#868484" id="stop4201" offset="1"/></linearGradient><clipPath id="clipPath4209" clipPathUnits="userSpaceOnUse"><path id="path4211" d="m 223.924,174.926 c 0,-2.914 0.537,-5.678 1.484,-8.243 v 0 h -16.517 l 0.009,32.98 -18.896,0.008 -0.018,-48.567 36.862,-0.007 0.008,12.387 c 4.345,-7.897 13.111,-13.166 23.486,-13.171 v 0 c 3.304,0 10.068,0.554 13.215,1.834 v 0 17.585 c -2.847,-2.367 -6.069,-3.834 -10.047,-3.831 v 0 c -5.651,0.004 -10.546,4.125 -10.546,9.469 v 0 c 0,5.278 4.626,9.473 10.284,9.466 v 0 c 3.918,0 7.418,-1.898 10.309,-4.247 v 0 17.902 c -3.938,1.242 -8.259,1.931 -12.452,1.931 v 0 c -15.236,0.006 -27.174,-11.328 -27.181,-25.496"/></clipPath><linearGradient id="linearGradient4217" x1="0" x2="1" y1="0" y2="0" gradientTransform="matrix(20.29225,-20.123148,-20.123148,-20.29225,215.92738,185.55183)" gradientUnits="userSpaceOnUse" spreadMethod="pad"><stop style="stop-opacity:1;stop-color:#423e3f" id="stop4219" offset="0"/><stop style="stop-opacity:1;stop-color:#231f20" id="stop4221" offset="1"/></linearGradient><clipPath id="clipPath4229" clipPathUnits="userSpaceOnUse"><path id="path4231" d="M 0,371.484 H 371.484 V 0 H 0 Z"/></clipPath></defs><g id="g4179" transform="matrix(1.25,0,0,-1.25,-111.72523,301.39054)"><path style="fill:none;stroke:#100f0d;stroke-width:.17188266;stroke-linecap:butt;stroke-linejoin:miter;stroke-miterlimit:10;stroke-dasharray:none;stroke-opacity:1" id="path4183" d="M 277.7832,134.52187 H 89.466128 V 241.02649 H 277.7832 Z"/><g id="g4185"><g id="g4187" clip-path="url(#clipPath4189)"><g id="g4193"><g id="g4195"><path style="fill:url(#linearGradient4197);stroke:none" id="path4203" d="m 104.601,151.132 59.165,-0.021 c 15.25,0 23.87,9.139 23.877,23.565 v 0 c 0.003,17.844 -11.101,24.997 -28.549,25.001 v 0 l -18.431,0.005 -0.009,-32.98 -15.487,0.002 0.005,32.983 -20.563,0.005 z m 54.138,14.537 0.003,18.807 h 1.174 c 6.895,0 11.104,-2.898 11.101,-9.727 v 0 c -0.003,-6.375 -4.83,-9.082 -11.107,-9.082 v 0 z"/></g></g></g></g><g id="g4205"><g id="g4207" clip-path="url(#clipPath4209)"><g id="g4213"><g id="g4215"><path style="fill:url(#linearGradient4217);stroke:none" id="path4223" d="m 223.924,174.926 c 0,-2.914 0.537,-5.678 1.484,-8.243 v 0 h -16.517 l 0.009,32.98 -18.896,0.008 -0.018,-48.567 36.862,-0.007 0.008,12.387 c 4.345,-7.897 13.111,-13.166 23.486,-13.171 v 0 c 3.304,0 10.068,0.554 13.215,1.834 v 0 17.585 c -2.847,-2.367 -6.069,-3.834 -10.047,-3.831 v 0 c -5.651,0.004 -10.546,4.125 -10.546,9.469 v 0 c 0,5.278 4.626,9.473 10.284,9.466 v 0 c 3.918,0 7.418,-1.898 10.309,-4.247 v 0 17.902 c -3.938,1.242 -8.259,1.931 -12.452,1.931 v 0 c -15.236,0.006 -27.174,-11.328 -27.181,-25.496"/></g></g></g></g><g id="g4225"><g id="g4227" clip-path="url(#clipPath4229)"><g id="g4233" transform="translate(104.2809,215.238)"><path style="fill:#100f0d;fill-opacity:1;fill-rule:nonzero;stroke:none" id="path4235" d="m 0,0 v 0.042 c 0,4.058 2.939,7.77 7.425,7.77 2.447,0 3.992,-0.708 5.494,-1.975 L 12.188,5 C 11.009,6.031 9.615,6.803 7.36,6.803 3.69,6.803 1.159,3.714 1.159,0.086 V 0.042 c 0,-3.883 2.423,-6.78 6.437,-6.78 1.889,0 3.691,0.793 4.787,1.716 v 4.314 H 7.36 v 1.03 h 6.096 V -5.473 C 12.082,-6.675 10.022,-7.726 7.554,-7.726 2.81,-7.726 0,-4.229 0,0"/></g><g id="g4237" transform="translate(141.2697,215.0022)"><path style="fill:#100f0d;fill-opacity:1;fill-rule:nonzero;stroke:none" id="path4239" d="m 0,0 c 2.511,0 4.379,1.288 4.379,3.434 v 0.042 c 0,2.039 -1.567,3.283 -4.315,3.283 H -5.064 V 0 Z m -6.181,7.791 h 6.31 C 1.996,7.791 3.434,7.233 4.356,6.309 5.066,5.601 5.494,4.613 5.494,3.52 V 3.476 c 0,-2.511 -1.889,-3.948 -4.398,-4.292 L 6.053,-7.233 H 4.636 l -4.786,6.225 h -0.042 -4.872 v -6.225 h -1.117 z"/></g><g id="g4241" transform="translate(177.2062,215.238)"><path style="fill:#100f0d;fill-opacity:1;fill-rule:nonzero;stroke:none" id="path4243" d="m 0,0 v 0.042 c 0,3.713 -2.703,6.761 -6.417,6.761 -3.711,0 -6.373,-3.004 -6.373,-6.717 V 0.042 c 0,-3.711 2.704,-6.759 6.417,-6.759 C -2.662,-6.717 0,-3.713 0,0 m -13.948,0 v 0.042 c 0,4.121 3.025,7.77 7.575,7.77 4.549,0 7.534,-3.626 7.534,-7.726 0.021,-0.021 0.021,-0.021 0,-0.044 0,-4.121 -3.027,-7.768 -7.578,-7.768 -4.548,0 -7.531,3.626 -7.531,7.726"/></g><g id="g4245" transform="translate(195.2453,214.0149)"><path style="fill:#100f0d;fill-opacity:1;fill-rule:nonzero;stroke:none" id="path4247" d="M 0,0 V 8.778 H 1.116 V 0.106 c 0,-3.584 1.89,-5.579 5.086,-5.579 3.027,0 5.001,1.845 5.001,5.473 v 8.778 h 1.116 V 0.129 c 0,-4.293 -2.51,-6.61 -6.159,-6.61 C 2.555,-6.481 0,-4.206 0,0"/></g><g id="g4249" transform="translate(230.3449,214.4011)"><path style="fill:#100f0d;fill-opacity:1;fill-rule:nonzero;stroke:none" id="path4251" d="m 0,0 c 2.789,0 4.678,1.438 4.678,3.691 v 0.043 c 0,2.382 -1.866,3.626 -4.549,3.626 h -4.25 V 0 Z m -5.237,8.392 h 5.452 c 3.305,0 5.58,-1.696 5.58,-4.593 V 3.755 c 0,-3.176 -2.706,-4.786 -5.859,-4.786 h -4.057 v -5.601 h -1.116 z"/></g><g id="g4253" transform="translate(252.7609,222.7927)"><path style="fill:#100f0d;fill-opacity:1;fill-rule:nonzero;stroke:none" id="path4255" d="M 0,0 H 10.688 V -1.031 H 1.117 V -6.932 H 9.724 V -7.961 H 1.117 v -6.031 h 9.679 v -1.031 H 0 Z"/></g></g></g></g></svg>