<svg xmlns="http://www.w3.org/2000/svg" xmlns:xlink="http://www.w3.org/1999/xlink" id="Logo" width="800" height="600" x="0" y="0" enable-background="new 0 0 800 600" version="1.1" viewBox="0 0 800 600" xml:space="preserve"><g id="HipTest"><path id="Fond" fill="#F3554C" d="M224.771,244.498c0,49.978-40.51,90.492-90.489,90.492c-49.972,0-90.487-40.514-90.487-90.492 c0-49.969,40.515-90.479,90.487-90.479C184.261,154.019,224.771,194.529,224.771,244.498z"/><g><defs><path id="Fond_1_" d="M224.771,244.498c0,49.978-40.51,90.492-90.489,90.492c-49.972,0-90.487-40.514-90.487-90.492 c0-49.969,40.515-90.479,90.487-90.479C184.261,154.019,224.771,194.529,224.771,244.498z"/></defs><clipPath id="Fond_2_"><use overflow="visible" xlink:href="#Fond_1_"/></clipPath><g id="Flèche_ombre" clip-path="url(#Fond_2_)" opacity=".3"><linearGradient id="SVGID_1_" x1="296.286" x2="142.953" y1="410.639" y2="241.306" gradientUnits="userSpaceOnUse"><stop offset="0" style="stop-color:#fff"/><stop offset=".323" style="stop-color:#fdfdfd"/><stop offset=".466" style="stop-color:#f6f6f6"/><stop offset=".574" style="stop-color:#e9e9e9"/><stop offset=".663" style="stop-color:#d7d7d7"/><stop offset=".742" style="stop-color:silver"/><stop offset=".813" style="stop-color:#a3a3a3"/><stop offset=".879" style="stop-color:gray"/><stop offset=".939" style="stop-color:#595959"/><stop offset=".994" style="stop-color:#2d2d2d"/><stop offset="1" style="stop-color:#282828"/></linearGradient><path fill="url(#SVGID_1_)" d="M339.771,357.529L170.456,188.214l-33.314,19.677l-0.102-9.298 c-24.079,0.38-43.515,20.134-43.409,44.283c0.043,11.78,4.676,22.843,13.039,31.135c8.37,8.301,19.46,12.84,31.245,12.795 c24.322-0.104,44.037-19.969,43.934-44.294l19.563-0.077c0.093,22.971-12.051,43.186-30.293,54.461 c-9.637,5.957-20.977,9.425-33.12,9.47c-15.283,0.062-29.754-5.241-41.299-15.005L251.32,445.98L339.771,357.529z"/></g></g><path id="Flèche_1_" fill="#FFF" d="M137.916,286.807c-11.784,0.045-22.875-4.495-31.245-12.795 c-8.363-8.292-12.996-19.355-13.039-31.135c-0.106-24.148,19.33-43.903,43.409-44.283l0.102,9.298l33.606-19.85l-33.997-19.185 l0.104,10.184c-34.834,0.482-62.94,29.015-62.795,63.917c0.072,17.01,6.768,32.973,18.84,44.947 c12.08,11.976,28.093,18.529,45.099,18.461c12.143-0.045,23.483-3.513,33.12-9.47c18.242-11.275,30.386-31.49,30.293-54.461 l-19.563,0.077C181.953,266.838,162.238,286.703,137.916,286.807z"/><rect width="537.586" height="130.702" x="243.395" y="203.316" fill="none"/><text transform="matrix(1 0 0 1 243.394 292.0317)"><tspan x="0" y="0" fill="#F3554C" font-family="'MuseoSans-300'" font-size="126.197">HIP</tspan><tspan x="204.563" y="0" fill="#282828" font-family="'MuseoSans-300'" font-size="126.197">TEST</tspan></text></g></svg>