<svg xmlns="http://www.w3.org/2000/svg" width="2000" height="1000" viewBox="0 0 2000 1000"><defs><style>.cls-1{fill:#e64639;fill-rule:evenodd}</style></defs><g id="saagie-logo-red"><path d="M2569.83,455.579c-54.67-18.612-109.93-42.461-109.35-96.556,0-49.439,47.11-79.1,102.95-79.685,33.16-.582,69.22,8.725,101.21,26.756,8.72,5.236,16.87,9.887,25.01-.581,8.72-11.053,0-16.87-6.4-20.941-34.9-21.521-79.1-32.572-119.24-31.989-69.21,1.162-132.61,35.48-132.61,106.44,0,74.453,66.89,102.373,138.43,126.8,61.65,20.939,117.49,41.3,115.16,100.625-1.74,50.022-48.85,72.706-110.51,74.454-51.76,1.16-79.1-9.308-122.14-30.246-6.98-3.491-13.96-5.237-20.94,5.814-6.4,10.472-2.33,13.963,5.82,19.2,31.4,20.355,80.26,34.9,134.94,33.735,77.35-1.164,140.76-31.991,143.08-104.117C2715.24,502.11,2641.95,480.009,2569.83,455.579Zm430.99-22.1c-40.72-22.684-75.03-33.155-115.75-33.155-75.03,0-138.43,58.747-138.43,144.251,0,93.065,59.91,144.832,127.96,144.832,37.22,0,77.36-16.288,110.51-49.442v25.593c0,9.308,2.33,14.542,13.96,14.542s13.96-5.234,13.96-14.542V454.416C3013.03,444.528,3009.54,438.129,3000.82,433.476Zm-15.71,173.915c-30.82,39.553-72.12,57.582-109.93,56.42-52.93-1.747-99.46-43.043-99.46-118.658,0-73.289,50.6-119.238,109.35-119.238,28.5,0,61.07,6.4,100.04,25.593V607.391Zm328.63-173.915c-40.71-22.684-75.03-33.155-115.75-33.155-75.03,0-138.43,58.747-138.43,144.251,0,93.065,59.91,144.832,127.96,144.832,37.23,0,77.36-16.288,110.52-49.442v25.593c0,9.308,2.32,14.542,13.96,14.542s13.96-5.234,13.96-14.542V454.416C3325.96,444.528,3322.47,438.129,3313.74,433.476Zm-15.7,173.915c-30.83,39.553-72.13,57.582-109.93,56.42-52.93-1.747-99.47-43.043-99.47-118.658,0-73.289,50.61-119.238,109.35-119.238,28.5,0,61.07,6.4,100.05,25.593V607.391ZM3654,539.918c0-31.409-11.05-65.145-31.99-90.155l24.43-19.777c8.14-6.4,8.72-10.469,2.32-18.032s-11.63-7.56-18.61-1.745l-25.59,21.521c-26.76-23.264-58.75-31.409-91.32-31.409-76.78,0-140.76,62.82-140.76,139.6S3436.46,680.1,3513.24,680.1c26.76,0,51.77-7.561,74.45-21.52,22.1,16.867,33.16,41.3,31.99,65.727-1.74,39.552-35.48,77.939-100.62,77.939-51.77,0-86.09-23.846-109.93-58.163-5.82-8.725-9.31-11.633-19.2-6.981-8.14,4.073-11.05,7.559-5.24,18.032,24.44,44.2,75.04,73.869,139.02,73.869,79.1,0,119.82-51.768,122.73-103.535,1.74-31.409-11.64-60.492-40.72-80.269A139.2,139.2,0,0,0,3654,539.918ZM3513.24,654.505c-59.91,0-111.68-50.605-111.68-114.587s51.77-114,111.68-114c60.49,0,111.68,50.022,111.68,114S3573.73,654.505,3513.24,654.505ZM3728.44,252a22.1,22.1,0,1,0,22.11,22.1A22.094,22.094,0,0,0,3728.44,252Zm0.58,157.628c-12.21,0-13.96,5.234-13.96,14.542V665.555c0,9.308,1.75,14.542,13.96,14.542s13.96-5.234,13.96-14.542V424.17C3742.98,414.862,3741.24,409.628,3729.02,409.628Zm210.55-9.307c-82.59,0-136.68,64.564-136.68,147.159,0.58,142.506,144.82,168.678,230.91,118.075,9.89-5.816,13.96-9.886,6.98-19.776-6.4-8.725-13.38-5.817-23.85-.583a157.832,157.832,0,0,1-69.8,16.287c-59.33,0-114.58-33.154-115.16-114h169.84C4098.36,547.48,4066.37,398.577,3939.57,400.321Zm-105.86,122.73c8.14-56.421,47.12-96.556,105.86-97.136,89.58-1.164,115.75,97.136,61.66,97.136H3833.71Zm306.08-56.922c-8.28,6.049-20.46,3.022-20.46-9.632-0.16-12.019,10.82-15.521,19.58-9.632a1.184,1.184,0,0,0,1.83-.238c0.96-1.114.48-1.592-.08-2.149-9.95-7.72-25.23-2.866-25.07,12.019,0.16,14.724,16.71,20.218,25.94,11.939,0.72-.637.96-1.115,0.17-1.99A1.286,1.286,0,0,0,4139.79,466.129Zm-9.4-39.48a30.089,30.089,0,0,0,0,60.173c16.48,0,29.61-13.611,29.61-30.165A29.791,29.791,0,0,0,4130.39,426.649Zm0,56.511c-14.17,0-25.55-11.779-25.55-26.5,0-14.647,11.38-26.346,25.55-26.346,14.09,0,25.47,11.7,25.47,26.346C4155.86,471.381,4144.48,483.16,4130.39,483.16Z" class="cls-1" transform="translate(-2252)"/></g></svg>