<?xml version="1.0" encoding="UTF-8" standalone="no"?>
<svg
        version="1.1"
        width="1000"
        height="1000"
        xmlns="http://www.w3.org/2000/svg">
    
<path
   d="m 504.6224,912.50557 c 18.51533,-24.11078 143.18383,-201.40362 147.87483,-210.33207 25.7151,-48.83885 -34.1088,-106.85302 -83.68896,-81.21978 -10.03901,5.18422 -46.32828,51.88354 -108.70429,139.93336 -51.51317,72.70285 -96.27865,132.23934 -99.57017,132.36276 -11.64435,0.41126 -53.24135,-20.16094 -51.47198,-25.50978 0.98509,-3.00349 65.25543,-94.22154 142.81339,-202.72029 97.92437,-136.97096 141.86711,-202.63802 143.84251,-214.73457 9.2572,-56.98556 -64.76211,-92.82263 -104.96062,-50.85489 -7.57093,7.89971 -73.77287,98.87085 -147.17483,202.14424 a 28850.719,28850.716 0 0 1 -136.68312,191.6112 c -1.80788,2.05732 -11.93212,-6.54198 -22.42409,-19.1323 l -19.13217,-22.87652 52.82979,-74.80121 c 61.553,-87.10349 64.55638,-92.28774 64.51504,-111.25546 0,-28.80135 -32.29877,-62.54008 -59.86584,-62.54008 -27.48446,0 -42.21419,11.68512 -77.76347,61.51141 -19.74969,27.56703 -37.68849,51.30758 -39.91019,52.66533 C 99.09984,620.5011 89.5129,576.80535 86.38626,530.84665 83.05376,481.88441 93.95672,412.26738 112.84218,362.0296 175.25898,196.25707 345.47514,86.647417 522.76764,98.086197 c 59.65986,3.826063 110.59699,18.349963 168.36479,47.974193 37.8527,19.42047 54.8044,32.46347 96.8959,74.55474 43.6129,43.69567 54.4342,58.01403 74.9656,99.2821 32.2157,64.8032 44.9305,115.65814 45.6704,182.72408 a 421.81626,421.81626 0 0 1 -72.9085,241.51987 c -41.5561,60.31828 -119.1138,120.67761 -188.2371,146.43428 -62.0051,23.04111 -154.70416,37.31833 -142.89633,21.93011 z"
   id="path1"
   fill="#212529"
   style="stroke-width:41.1447" /></svg>
