<?xml version="1.0" encoding="UTF-8" standalone="no"?>
<svg
   version="1.1"
   width="1000"
   height="1000"
   xmlns="http://www.w3.org/2000/svg">
    
<path
   d="m 482.26315,897.03921 c -31.6832,-11.52053 -38.6764,-26.74408 -51.4286,-116.8511 -15.2282,-104.50778 -18.5142,-169.10506 -9.4686,-189.67746 a 86.815487,86.81548 0 0 1 86.8208,-41.14475 85.992592,85.99259 0 0 1 87.2268,41.14475 c 8.6373,20.5724 5.3454,85.16968 -9.8789,189.67746 -9.8716,73.23767 -15.6353,91.75282 -29.6198,104.09624 a 73.237705,73.237713 0 0 1 -73.2396,12.75486 z M 347.31135,789.65137 a 370.30297,370.30298 0 0 1 -205.72434,-265.38379 489.62285,489.62285 0 0 1 0,-134.13205 372.36029,372.36029 0 0 1 96.68674,-190.08864 370.30297,370.30298 0 0 1 537.7606,-2.8804 363.30834,363.30841 0 0 1 99.5692,195.02627 518.42421,518.42421 0 0 1 0,126.31453 373.59455,373.59455 0 0 1 -142.7676,233.70233 432.02018,432.02022 0 0 1 -100.8065,54.72256 c -3.7073,0 -4.115,-4.11449 -2.4772,-20.5724 3.296,-25.92118 6.5847,-31.27003 21.3957,-37.85316 a 337.38718,337.38722 0 0 0 177.3333,-219.30169 416.79659,416.79659 0 0 0 -2.4805,-154.7044 329.15817,329.15827 0 0 0 -246.8647,-236.171 397.86996,397.87 0 0 0 -132.4878,0 331.62693,331.62693 0 0 0 -253.4559,243.98862 442.7178,442.7178 0 0 0 0,147.29821 340.26737,340.26735 0 0 0 140.7188,199.14072 288.01348,288.01347 0 0 0 36.6215,20.57241 c 14.812,6.58313 17.6908,11.93197 20.5735,37.85319 0,16.04646 0,20.57238 -2.4813,20.57238 a 278.13875,278.13875 0 0 1 -41.1473,-16.86937 z m 0,-143.59526 a 269.08682,269.08684 0 0 1 -81.4707,-130.42896 302.82555,302.82555 0 0 1 0,-120.1428 259.21209,259.21212 0 0 1 168.6925,-179.39114 311.46599,311.46597 0 0 1 128.7877,-4.93747 251.80602,251.80602 0 0 1 192.1433,272.78996 246.86868,246.86868 0 0 1 -53.4831,127.13735 223.82762,223.82757 0 0 1 -57.1937,50.60806 84.758241,84.758242 0 0 1 -2.0688,-26.74411 v -26.33263 l 18.1006,-22.21817 a 200.37509,200.3751 0 0 0 -11.1121,-274.43558 191.73464,191.73465 0 0 0 -106.9722,-55.1341 133.72052,133.72052 0 0 0 -63.778,0 193.7919,193.79191 0 0 0 -110.2614,55.1341 200.78649,200.78649 0 0 0 -11.5207,274.43558 l 18.098,22.21817 v 26.74406 a 78.175074,78.175084 0 0 1 -2.4773,26.74412 123.43431,123.43432 0 0 1 -22.6282,-16.04644 z m 123.432,-144.41819 a 82.289546,82.28955 0 0 1 -48.9627,-78.17509 86.404041,86.404043 0 0 1 49.3735,-76.94067 93.810092,93.810094 0 0 1 74.4737,0 96.690237,96.690241 0 0 1 45.258,55.95689 85.581139,85.581139 0 0 1 -119.7317,99.15887 z"
   id="path1"
   fill="#212529"
   style="stroke-width:41.1447" /></svg>
