<?xml version="1.0" encoding="UTF-8" standalone="no"?>
<svg
        version="1.1"
        width="1000"
        height="1000"
        xmlns="http://www.w3.org/2000/svg">
<path
   d="m 499.7826,78.030383 c -227.12129,0 -411.448397,184.328827 -411.448397,411.447887 0,227.11901 184.327107,411.44787 411.448397,411.44787 227.11943,0 411.44851,-184.32886 411.44851,-411.44787 0,-227.11905 -184.32909,-411.447887 -411.44851,-411.447887 z M 666.8319,683.43465 c -6.9575,0 -11.2761,-2.13918 -17.69405,-5.96575 -103.55697,-62.37562 -224.03183,-65.00874 -342.9855,-40.65146 -6.45645,1.64382 -14.9336,4.32081 -19.74808,4.32081 a 25.83892,25.83892 0 0 1 -26.20552,-26.2097 c 0,-17.11598 10.11868,-25.22135 22.58608,-27.89577 135.86023,-30.03604 274.72225,-27.3613 393.1774,43.48957 10.12616,6.45997 16.0918,12.2615 16.0918,27.3617 A 25.09831,25.098311 0 0 1 666.8319,683.3935 Z m 44.64064,-108.828 c -8.64259,0 -14.40538,-3.82577 -20.40665,-6.99418 -103.68567,-61.34665 -258.30783,-86.0749 -395.81212,-48.75699 -7.98655,2.13934 -12.34783,4.32043 -19.75754,4.32043 -17.76841,0 -32.208,-14.44168 -32.208,-32.17535 0,-17.733 8.63797,-29.54152 25.71426,-34.35577 a 558.0466,558.04655 0 0 1 162.27079,-22.58873 c 107.67977,0 211.69522,26.74417 293.65391,75.50106 13.41714,7.9816 18.72354,18.268 18.72354,32.70978 a 32.134071,32.134071 0 0 1 -32.17819,32.33975 z m 51.42918,-126.43753 c -8.64083,0 -13.94239,-2.13884 -21.39456,-6.46008 -118.1279,-70.5218 -329.32295,-87.43263 -466.04602,-49.33274 -5.96585,1.64385 -13.45729,4.32035 -21.3983,4.32035 a 38.264652,38.264652 0 0 1 -38.676,-39.1286 c 0,-22.58832 13.99244,-35.38435 28.89095,-39.66384 58.4221,-17.0746 123.75924,-25.2216 194.93859,-25.2216 121.09064,0 248.02349,25.2216 340.76405,79.28625 12.9569,7.48815 21.39324,17.77424 21.39324,37.52432 0,22.54661 -18.22787,38.67594 -38.47195,38.67594 z"
   fill="#212529"
   id="path1-6"
   style="stroke-width:41.1447" />
</svg>
