<?xml version="1.0" encoding="UTF-8" standalone="no"?>
<svg
        version="1.1"
        width="1000"
        height="1000"
        xmlns="http://www.w3.org/2000/svg">
    
<path
   fill-rule="evenodd"
   clip-rule="evenodd"
   d="m 770.70432,225.02396 c 7.32963,-42.48288 18.08592,-69.19748 30.00049,-69.24824 h 0.0235 c 22.21724,0.0762 40.22612,92.72228 40.22612,207.10719 0,114.38601 -18.03454,207.10658 -40.2746,207.10658 -9.11857,0 -17.53241,-15.74351 -24.30571,-42.12626 -10.70488,96.57798 -32.91926,162.96718 -58.63723,162.96718 -19.89765,0 -37.75529,-39.88089 -49.7441,-102.77498 -8.1856,119.61404 -28.78796,204.48002 -52.86827,204.48002 -15.11294,0 -28.89064,-33.6297 -39.09054,-88.3867 -12.26556,113.03192 -40.60269,192.2316 -73.64748,192.2316 -33.04482,0 -61.4333,-79.17399 -73.64751,-192.2316 -10.12571,54.757 -23.90343,88.3867 -39.09112,88.3867 -24.07915,0 -44.63188,-84.86598 -52.86825,-204.48002 -11.98908,62.89409 -29.79652,102.77498 -49.74492,102.77498 -25.69093,0 -47.93124,-66.36635 -58.63585,-162.96718 -6.72509,26.4598 -15.18801,42.12626 -24.30573,42.12626 -22.24034,0 -40.27459,-92.72057 -40.27459,-207.10658 0,-114.38491 18.03425,-207.10719 40.27459,-207.10719 11.93863,0 22.61812,26.79075 30.02308,69.24824 11.86326,-73.25435 31.13152,-120.86574 52.9185,-120.86574 25.86747,0 48.28414,67.33473 58.88802,165.10933 10.37708,-71.16215 26.11912,-116.52841 43.75024,-116.52841 24.70915,0 45.71377,89.22693 53.4971,213.69047 14.63363,-63.81368 35.81802,-103.84716 59.26776,-103.84716 23.44692,0 44.63135,40.05889 59.23931,103.84716 7.80896,-124.46354 28.78793,-213.69047 53.49877,-213.69047 17.60372,0 33.32154,45.36626 43.74967,116.52841 10.57939,-97.7746 32.99631,-165.10933 58.86265,-165.10933 21.71222,0 41.0535,47.63711 52.91676,120.86574 z M 106.26797,342.51277 c 0,-51.1327 10.22605,-92.59478 22.84488,-92.59478 12.61877,0 22.84486,41.46208 22.84486,92.59478 0,51.13128 -10.22609,92.59563 -22.84486,92.59563 -12.61883,0 -22.84488,-41.46435 -22.84488,-92.59563 z m 746.52906,0 c 0,-51.1327 10.22559,-92.59478 22.84493,-92.59478 12.61646,0 22.84492,41.46208 22.84492,92.59478 0,51.13128 -10.22846,92.59563 -22.84492,92.59563 -12.61934,0 -22.84493,-41.46435 -22.84493,-92.59563 z"
   fill="#212529"
   id="path2"
   style="stroke-width:2.85311" /></svg>
