<?xml version="1.0" encoding="UTF-8" standalone="no"?>
<svg
        version="1.1"
        width="1000"
        height="1000"
        xmlns="http://www.w3.org/2000/svg">
    
<path
   d="M 911.67239,479.71719 A 411.44777,411.4478 0 1 0 306.84035,852.48884 V 489.18049 A 195.84915,195.84915 0 0 1 465.66078,297.44584 v 68.30029 a 128.37169,128.37172 0 0 0 -92.15668,123.43436 128.78316,128.78316 0 0 0 252.21559,34.97306 h 68.29746 A 195.02624,195.02623 0 0 1 465.25345,678.85794 188.85454,188.85454 0 0 1 373.5041,634.01011 v 246.86866 a 425.02557,425.02557 0 0 0 126.7211,19.74952 411.44777,411.4478 0 0 0 230.82455,-70.76905 v 70.76905 h 180.62264 z m -409.38931,82.28956 a 75.294945,75.294945 0 1 1 74.88085,-75.29494 74.472048,74.472052 0 0 1 -74.47198,74.8835 z M 697.30945,489.18049 H 631.06624 A 128.78316,128.78316 0 0 0 502.28308,360.39732 v -68.71178 a 195.43768,195.43774 0 0 1 195.02637,197.49495 z m 114.38108,0 H 747.09545 A 243.98855,243.98856 0 0 0 502.28308,242.31183 V 177.3031 a 309.82015,309.82018 0 0 1 309.40745,311.87739 z"
   id="path1-7"
   fill="#212529"
   style="stroke-width:41.1447" /></svg>
