<svg xmlns="http://www.w3.org/2000/svg" viewBox="0 0 554.47 554.47"><path fill="#fff" d="M535.8 8.57c6.12 6.12 9.18 13.46 9.18 22.03s-3.06 15.91-9.18 22.03l-75.88 76.5c-6.12 6.12-13.26 9.18-21.42 9.18a30.04 30.04 0 0 1-22.04-9.18 30.04 30.04 0 0 1-9.18-22.03c0-8.98 3.06-16.32 9.18-22.03l75.9-76.5C498.05 2.86 505.3 0 514.07 0s16.01 2.86 21.72 8.57zM156.98 346.39c5.7-5.71 12.95-8.56 21.72-8.56s16.02 2.85 21.73 8.56a30.05 30.05 0 0 1 9.18 22.03c0 9.39-3.06 16.73-9.18 22.04L62.12 529.99c-6.12 6.12-13.26 9.18-21.42 9.18-8.57 0-15.92-3.06-22.04-9.18s-9.18-13.46-9.18-22.03c0-8.98 3.06-16.32 9.18-22.03l138.32-139.54zM290.39 244.8c0-10.6-3.77-19.79-11.32-27.54-7.55-7.75-16.83-11.63-27.85-11.63-10.6 0-19.78 3.88-27.54 11.63-7.75 7.75-11.62 16.93-11.62 27.54 0 6.94-2.25 12.65-6.74 17.14-4.48 4.48-10 6.73-16.52 6.73s-12.04-2.25-16.52-6.73-6.74-10.2-6.74-17.14a85.5 85.5 0 0 1 6.74-33.66c4.48-10.6 10.6-19.79 18.36-27.54s16.83-13.87 27.23-18.36a83.3 83.3 0 0 1 33.35-6.73 83.3 83.3 0 0 1 33.36 6.73 86.64 86.64 0 0 1 27.23 18.36 85.71 85.71 0 0 1 18.36 27.54 85.5 85.5 0 0 1 6.73 33.66c0 6.94-2.24 12.65-6.73 17.14-4.49 4.48-10 6.73-16.52 6.73-6.53 0-12.04-2.25-16.52-6.73-4.5-4.5-6.74-10.2-6.74-17.14zM251.23 67.93c23.66 0 45.9 4.49 66.7 13.47a170.7 170.7 0 0 1 54.47 37.02c15.5 15.71 27.75 34.07 36.73 55.08 8.97 21.01 13.46 43.35 13.46 67.02 0 20.4-3.47 40.39-10.4 59.97-.82 2.04-1.64 3.47-2.45 4.29a415.7 415.7 0 0 1-13.47 23.86 1082.3 1082.3 0 0 1-13.15 20.5 200.36 200.36 0 0 1-13.16 18.06 24.17 24.17 0 0 1-3.06 3.67 39.95 39.95 0 0 0-3.67 4.29c-5.72 6.52-9.9 12.13-12.55 16.83-2.65 4.69-3.78 12.34-3.37 22.94.82 22.04 1.02 38.25.61 48.66-.4 10.4-1.22 18.66-2.44 24.78-3.68 21.22-12.96 37.54-27.85 48.96-14.9 11.43-35.6 17.14-62.12 17.14h-1.22c-7.35 0-13.67-2.65-18.97-7.96-5.3-5.3-8.16-11.83-8.57-19.58-.41-3.67.1-7.24 1.53-10.71a26.82 26.82 0 0 1 5.81-8.87c5.3-6.12 11.83-9.18 19.59-9.18 8.56-.41 15.2-1.23 19.89-2.45s8.26-2.65 10.7-4.29c2.45-1.63 3.98-3.36 4.6-5.2s1.12-3.77 1.53-5.81l.6-3.06c.82-4.49 1.23-12.44 1.23-23.87s-.2-23.87-.6-37.33c-.42-10.6.3-19.89 2.13-27.85s4.19-14.99 7.04-21.11c2.86-6.12 6.12-11.53 9.8-16.22s7.34-9.08 11.01-13.16a69.97 69.97 0 0 0 5.51-6.73c2.45-2.85 5.2-6.63 8.26-11.32 3.06-4.69 6.23-9.59 9.49-14.69s6.22-10 8.87-14.68c2.65-4.7 5-8.68 7.04-11.94a101.8 101.8 0 0 0 4.59-18.05 124.83 124.83 0 0 0 1.53-19.9c0-15.9-3.06-31-9.18-45.28-6.12-14.28-14.38-26.62-24.79-37.03s-22.64-18.66-36.72-24.78a111.59 111.59 0 0 0-44.98-9.18c-15.91 0-30.9 3.06-44.98 9.18a117.76 117.76 0 0 0-36.72 24.78c-10.4 10.4-18.67 22.75-24.79 37.03s-9.18 29.37-9.18 45.29c0 7.75-2.65 14.38-7.95 19.89-5.3 5.5-11.84 8.26-19.59 8.26s-14.38-2.76-19.89-8.26a27.11 27.11 0 0 1-8.26-19.9c0-23.66 4.49-46 13.46-67s21.22-39.38 36.72-55.09 33.66-28.05 54.47-37.02c20.8-8.98 43.04-13.47 66.7-13.47z"/></svg>