<svg xmlns="http://www.w3.org/2000/svg" xmlns:svg="http://www.w3.org/2000/svg" id="svg1154" width="60" height="65" version="1.1" viewBox="0 0 15.875 17.198"><g id="layer1"><rect style="fill:#fff;fill-opacity:1;stroke:#2c233d;stroke-width:.529167;stroke-linecap:round;stroke-linejoin:round;stroke-dasharray:none;stroke-opacity:1" id="rect727-5-2-9-1-1-5" width="15.069" height="13.991" x=".391" y="2.425" ry="1.436"/><g id="g2094-6-6-5-1-9-6" transform="matrix(1.0347143,0,0,1,-66.075543,-377.26192)"><rect style="fill:#2c233d;fill-opacity:1;stroke-width:.955957;stroke-linecap:round;stroke-linejoin:round" id="rect727-3-2-1-0-5-6-2" width="15.069" height="3.727" x="63.963" y="378.962" rx="1.967" ry="1.864"/><rect style="fill:#2c233d;fill-opacity:1;stroke-width:8.02166;stroke-linecap:round;stroke-linejoin:round" id="rect2090-9-8-4-9-9-9" width="15.068" height="1.985" x="63.964" y="380.723" rx="0" ry="0"/></g><rect style="fill:#ff8a4b;fill-opacity:1;stroke:none;stroke-width:.644338;stroke-linecap:round;stroke-linejoin:round;stroke-dasharray:none;stroke-opacity:1" id="rect2148-1-7-8-7-3-1" width="1.351" height="3.795" x="3.571" y=".183" rx=".675" ry=".593"/><rect style="fill:#ff8a4b;fill-opacity:1;stroke:none;stroke-width:.644338;stroke-linecap:round;stroke-linejoin:round;stroke-dasharray:none;stroke-opacity:1" id="rect2148-6-2-9-7-7-3-2" width="1.351" height="3.795" x="11.651" y=".181" rx=".675" ry=".593"/><g id="text4218-7-2-17-6-8-7" aria-label="25" style="font-weight:700;font-size:7.05556px;line-height:1.15;font-family:Lato;-inkscape-font-specification:'Lato Bold';text-align:center;text-anchor:middle;fill:#2c233d;stroke:#2c233d;stroke-width:.529167;stroke-linecap:round;stroke-linejoin:round"><path d="m 5.9973316,6.2524106 q 0.3810003,0 0.6843894,0.1128889 0.3069168,0.1093612 0.5221114,0.3069169 0.2151946,0.1975557 0.3280835,0.4727225 0.1164168,0.2716391 0.1164168,0.5997226 0,0.2822225 -0.081139,0.5221115 Q 7.4895826,8.506662 7.3519992,8.7253844 7.2144157,8.940579 7.0309712,9.1451902 6.8510544,9.3462737 6.6464432,9.5544127 L 5.6410258,10.584524 q 0.1940279,-0.05644 0.3810003,-0.08819 0.1905001,-0.03528 0.3563058,-0.03528 H 7.337888 q 0.176389,0 0.2786947,0.09878 0.1023056,0.09525 0.1023056,0.254 v 0.635001 H 4.1064415 v -0.352778 q 0,-0.102306 0.042333,-0.218723 0.042333,-0.116417 0.1481667,-0.211667 L 5.7786093,9.1734125 Q 5.9691094,8.9829123 6.1102206,8.8100511 6.2513318,8.6371899 6.3430541,8.4713842 6.4347763,8.3020508 6.4806375,8.1362451 q 0.045861,-0.1693334 0.045861,-0.3563058 0,-0.3069168 -0.1481667,-0.4691947 -0.144639,-0.1658057 -0.4445003,-0.1658057 -0.2434168,0 -0.4127503,0.1305279 Q 5.3552757,7.4024669 5.2917756,7.592967 5.2176922,7.7869949 5.0977477,7.8504949 4.9778032,7.913995 4.755553,7.8787172 L 4.1769971,7.7764116 Q 4.2334416,7.3918835 4.3921917,7.1061334 4.5544696,6.8203832 4.7908308,6.629883 5.0307199,6.4393829 5.3376368,6.3476606 q 0.3069168,-0.09525 0.6596948,-0.09525 z" style="font-weight:900;-inkscape-font-specification:'Lato Heavy'" id="path1991"/><path d="m 11.567696,6.7604109 q 0,0.112889 -0.03528,0.2046113 -0.03528,0.091722 -0.112889,0.1622778 -0.07408,0.067028 -0.197556,0.1058334 -0.123472,0.035278 -0.296333,0.035278 H 9.6979722 l -0.144639,0.850195 q 0.144639,-0.024694 0.2786946,-0.035278 0.1340556,-0.014111 0.2610562,-0.014111 0.405694,0 0.716139,0.1234723 0.310445,0.1234723 0.522111,0.3386669 0.211667,0.2116668 0.317501,0.5009448 0.109361,0.2857502 0.109361,0.6138337 0,0.41275 -0.148167,0.754945 -0.144639,0.338667 -0.405695,0.585611 -0.261055,0.246945 -0.624417,0.384528 -0.359833,0.134056 -0.7902226,0.134056 -0.2504723,0 -0.479778,-0.05292 -0.225778,-0.05292 -0.4268614,-0.141111 -0.1975557,-0.09172 -0.3668892,-0.208139 -0.1693334,-0.119944 -0.3069168,-0.254 l 0.3386669,-0.451556 q 0.052917,-0.07055 0.1234723,-0.105833 0.070556,-0.03881 0.1516945,-0.03881 0.1058334,0 0.1975557,0.05997 0.09525,0.05645 0.2046112,0.127001 0.112889,0.06703 0.2610558,0.123472 0.1481667,0.05644 0.3668891,0.05644 0.2187225,0 0.3739445,-0.07056 0.155222,-0.07408 0.250473,-0.197556 0.09878,-0.127 0.141111,-0.292806 0.04586,-0.1693332 0.04586,-0.3598333 0,-0.3739447 -0.211667,-0.5679726 -0.211667,-0.1975557 -0.5997225,-0.1975557 -0.3457225,0 -0.6773338,0.1305279 L 8.4985269,8.8806067 8.9359717,6.3088551 h 2.6317243 z" style="font-weight:900;-inkscape-font-specification:'Lato Heavy'" id="path1993"/></g><g id="text4272-9-2-2-3-5-9" aria-label="AVR" style="font-weight:700;font-size:2.82223px;line-height:1.15;font-family:Lato;-inkscape-font-specification:'Lato Bold';text-align:center;text-anchor:middle;fill:#2c233d;stroke-width:.529167;stroke-linecap:round;stroke-linejoin:round"><path d="M 7.1388581,15.495767 H 6.7691459 q -0.062089,0 -0.1001891,-0.02822 -0.0381,-0.02963 -0.057856,-0.07479 L 6.4897452,15.034332 H 5.7079874 l -0.1213559,0.358423 q -0.015522,0.03951 -0.056445,0.07197 -0.039511,0.03105 -0.098778,0.03105 H 5.0588745 L 5.8547434,13.439772 H 6.3429892 Z M 5.8180544,14.709776 H 6.3796782 L 6.1905888,14.146741 q -0.021167,-0.05362 -0.045156,-0.12559 -0.023989,-0.07338 -0.047978,-0.158044 -0.022578,0.08608 -0.046567,0.159456 -0.022578,0.07338 -0.043745,0.127 z" style="font-weight:900;-inkscape-font-specification:'Lato Heavy'" id="path1996"/><path d="m 6.8933176,13.439772 h 0.3838233 q 0.062089,0 0.1001892,0.02963 0.0381,0.02822 0.057856,0.07338 l 0.3979344,1.10067 q 0.028222,0.07197 0.055034,0.156634 0.026811,0.08467 0.0508,0.1778 0.019756,-0.09313 0.043745,-0.1778 0.0254,-0.08467 0.053622,-0.156634 l 0.3951122,-1.10067 q 0.015522,-0.03951 0.055034,-0.07056 0.040922,-0.03246 0.1001892,-0.03246 H 8.9733012 L 8.14921,15.495767 H 7.7174088 Z" style="font-weight:900;-inkscape-font-specification:'Lato Heavy'" id="path1998"/><path d="m 9.6125323,14.735176 v 0.760591 H 9.1355754 v -2.055995 h 0.6688685 q 0.2229561,0 0.3795901,0.04657 0.158045,0.04516 0.256823,0.127 0.100189,0.08184 0.145345,0.193323 0.04515,0.111478 0.04515,0.242712 0,0.100189 -0.02681,0.189089 -0.02681,0.0889 -0.08043,0.165101 -0.05221,0.07479 -0.129823,0.134056 -0.0762,0.05927 -0.176389,0.09737 0.04798,0.02399 0.0889,0.06068 0.04092,0.03528 0.07338,0.08467 l 0.437446,0.715436 h -0.431802 q -0.119944,0 -0.172156,-0.09031 L 9.8721774,14.808554 q -0.023989,-0.0381 -0.053622,-0.05503 -0.029633,-0.01834 -0.084667,-0.01834 z m 0,-0.32879 h 0.1919116 q 0.097367,0 0.1651005,-0.02399 0.069145,-0.0254 0.1128896,-0.06914 0.04374,-0.04374 0.0635,-0.1016 0.01975,-0.05927 0.01975,-0.127 0,-0.135467 -0.0889,-0.211668 -0.087489,-0.0762 -0.2723451,-0.0762 H 9.6125323 Z" style="font-weight:900;-inkscape-font-specification:'Lato Heavy'" id="path2000"/></g></g></svg>