<svg xmlns="http://www.w3.org/2000/svg" width="60" height="65" version="1.1" viewBox="0 0 15.875 17.198"><rect width="15.069" height="13.991" x=".467" y="2.443" fill="#fff" stroke="#2c233d" stroke-linecap="round" stroke-linejoin="round" stroke-width=".529" ry="1.436"/><g fill="#2c233d" stroke-linecap="round" stroke-linejoin="round" transform="matrix(1.0347 0 0 1 -66 -377.24)"><rect width="15.069" height="3.727" x="63.963" y="378.96" stroke-width=".956" rx="1.967" ry="1.864"/><rect width="15.068" height="1.985" x="63.964" y="380.72" stroke-width="8.022" rx="0" ry="0"/></g><g fill="#ff8a4b"><rect width="1.351" height="3.795" x="3.646" y=".201" rx=".675" ry=".593"/><rect width="1.351" height="3.795" x="11.726" y=".2" rx=".675" ry=".593"/><g stroke="#ff8a4b" stroke-linecap="round" stroke-linejoin="round" stroke-width=".529" aria-label="16"><path d="m4.7502 10.677h0.98778v-2.5929q0-0.1905 0.010583-0.39864l-0.58208 0.48331q-0.077611 0.059972-0.15522 0.074083-0.074083 0.010583-0.14111 0-0.067028-0.014111-0.11994-0.045861-0.052917-0.035278-0.077611-0.070556l-0.34572-0.45861 1.6016-1.3441h0.90311v4.3533h0.84667v0.79022h-2.9281z"/><path d="m10.06 8.1473q-0.03528 0.038805-0.070556 0.081139-0.03175 0.038806-0.0635 0.077611 0.12347-0.045861 0.25753-0.070556 0.13758-0.024695 0.29281-0.024695 0.27869 0 0.55033 0.091722t0.48683 0.28222q0.2152 0.1905 0.34572 0.48331 0.13406 0.28928 0.13406 0.68439 0 0.35983-0.13406 0.68439-0.13406 0.32103-0.381 0.56444-0.24342 0.23989-0.58914 0.381t-0.76553 0.14111q-0.43039 0-0.77258-0.13406-0.34219-0.13758-0.58208-0.381-0.23636-0.24342-0.36336-0.58208-0.12347-0.33867-0.12347-0.74436 0-0.75847 0.58561-1.5416l1.1571-1.5628q0.08114-0.10231 0.23283-0.17639 0.15522-0.074083 0.35278-0.074083h0.97367zm-0.72672 1.6828q0 0.1905 0.045861 0.34219 0.045861 0.1517 0.14111 0.26106 0.09525 0.10936 0.23989 0.16933 0.14464 0.05644 0.34219 0.05644 0.16933 0 0.31397-0.0635 0.14817-0.0635 0.254-0.17286 0.10583-0.11289 0.1658-0.26106 0.0635-0.15169 0.0635-0.32808 0-0.19756-0.05997-0.35278-0.05644-0.15522-0.16228-0.26106-0.10583-0.10583-0.25753-0.16228-0.14817-0.056445-0.33161-0.056445-0.16581 0-0.30339 0.059972-0.13759 0.056449-0.23989 0.16581-0.098778 0.10936-0.15522 0.26106-0.056444 0.15169-0.056444 0.34219z"/></g><g stroke-linecap="round" stroke-linejoin="round" stroke-width=".529" aria-label="DEC"><path d="m7.2979 14.485q0 0.22296-0.077611 0.41204-0.0762 0.18768-0.2159 0.32597-0.1397 0.13688-0.33726 0.21449-0.19614 0.0762-0.43603 0.0762h-0.79869v-2.056h0.79869q0.23989 0 0.43603 0.07761 0.19756 0.07761 0.33726 0.21449 0.1397 0.13688 0.2159 0.32597 0.077611 0.18768 0.077611 0.40922zm-0.48825 0q0-0.1524-0.039511-0.27517t-0.1143-0.20743q-0.073378-0.08608-0.18062-0.13123-0.10724-0.04657-0.24412-0.04657h-0.31891v1.3222h0.31891q0.13688 0 0.24412-0.04516 0.10724-0.04657 0.18062-0.13123 0.074789-0.08608 0.1143-0.20884 0.039511-0.12277 0.039511-0.27658z"/><path d="m8.9038 13.458v0.36689h-0.84385v0.47978h0.64629v0.35278h-0.64629v0.48966h0.84385v0.36689h-1.3236v-2.056z"/><path d="m10.541 14.982q0.01693 0 0.03387 0.0071 0.01693 0.0056 0.03246 0.02117l0.18909 0.19897q-0.12418 0.16228-0.31186 0.24553-0.18627 0.08184-0.44168 0.08184-0.23425 0-0.42051-0.07902-0.18486-0.080478-0.31469-0.22018-0.12841-0.14111-0.19756-0.33302-0.069145-0.19332-0.069145-0.4191 0-0.23001 0.074789-0.42192 0.074789-0.19332 0.21026-0.33302 0.13547-0.1397 0.32456-0.21731 0.18909-0.07761 0.41628-0.07761 0.11571 0 0.21731 0.02117 0.10301 0.01976 0.19191 0.05645 0.0889 0.03528 0.16369 0.08608 0.07479 0.0508 0.13264 0.11007l-0.16087 0.2159q-0.01552 0.01976-0.03669 0.03669-0.02117 0.01552-0.05927 0.01552-0.0254 0-0.04798-0.01129t-0.04798-0.02681q-0.0254-0.01693-0.05644-0.03528-0.02963-0.01975-0.07197-0.03528-0.04092-0.01693-0.09737-0.02822-0.05503-0.01129-0.12982-0.01129-0.11853 0-0.21731 0.04374-0.097367 0.04374-0.16933 0.12841-0.070556 0.08326-0.11007 0.20602-0.0381 0.12136-0.0381 0.27799 0 0.15804 0.042333 0.28081 0.043745 0.12277 0.11712 0.20743 0.074789 0.08325 0.17357 0.127 0.098778 0.04374 0.21167 0.04374 0.06491 0 0.11853-0.0056 0.05362-0.0071 0.10019-0.02117 0.04657-0.01552 0.08749-0.03951 0.04092-0.0254 0.08326-0.0635 0.01693-0.01411 0.03669-0.02258 0.01976-0.0099 0.04092-0.0099z"/></g></g></svg>