<?xml version="1.0" encoding="UTF-8" standalone="no"?>
<!-- Created with Inkscape (http://www.inkscape.org/) -->

<svg
   width="60"
   height="65"
   version="1.1"
   viewBox="0 0 15.875 17.198"
   id="svg18"
   sodipodi:docname="jan19.svg"
   inkscape:version="1.3.1 (9b9bdc1480, 2023-11-25, custom)"
   xmlns:inkscape="http://www.inkscape.org/namespaces/inkscape"
   xmlns:sodipodi="http://sodipodi.sourceforge.net/DTD/sodipodi-0.dtd"
   xmlns="http://www.w3.org/2000/svg"
   xmlns:svg="http://www.w3.org/2000/svg">
  <defs
     id="defs18" />
  <sodipodi:namedview
     id="namedview18"
     pagecolor="#ffffff"
     bordercolor="#000000"
     borderopacity="0.25"
     inkscape:showpageshadow="2"
     inkscape:pageopacity="0.0"
     inkscape:pagecheckerboard="0"
     inkscape:deskcolor="#d1d1d1"
     showgrid="false"
     inkscape:zoom="9.7254379"
     inkscape:cx="60.614237"
     inkscape:cy="7.3004425"
     inkscape:window-width="1850"
     inkscape:window-height="1136"
     inkscape:window-x="70"
     inkscape:window-y="27"
     inkscape:window-maximized="1"
     inkscape:current-layer="svg18" />
  <rect
     x=".46666"
     y="2.443"
     width="15.069"
     height="13.991"
     ry="1.4362"
     fill="#fff"
     stroke="#2c233d"
     stroke-linecap="round"
     stroke-linejoin="round"
     stroke-width=".52917"
     id="rect1" />
  <g
     transform="matrix(1.0347 0 0 1 -66 -377.24)"
     fill="#2c233d"
     stroke-linecap="round"
     stroke-linejoin="round"
     id="g3">
    <rect
       x="63.963"
       y="378.96"
       width="15.069"
       height="3.7274"
       rx="1.9673"
       ry="1.8637"
       stroke-width=".95596"
       id="rect2" />
    <rect
       x="63.964"
       y="380.72"
       width="15.068"
       height="1.9849"
       rx="0"
       ry="0"
       stroke-width="8.0217"
       id="rect3" />
  </g>
  <g
     fill="#ff8a4b"
     id="g10">
    <rect
       x="3.6464"
       y=".20134"
       width="1.3505"
       height="3.7953"
       rx=".67527"
       ry=".5931"
       id="rect4" />
    <rect
       x="11.726"
       y=".19951"
       width="1.3505"
       height="3.7953"
       rx=".67527"
       ry=".5931"
       id="rect5" />
    <g
       stroke="#ff8a4b"
       stroke-linecap="round"
       stroke-linejoin="round"
       stroke-width=".52917"
       aria-label="16"
       id="g6">
      <path
         d="m4.7502 10.677h0.98778v-2.5929q0-0.1905 0.010583-0.39864l-0.58208 0.48331q-0.077611 0.059972-0.15522 0.074083-0.074083 0.010583-0.14111 0-0.067028-0.014111-0.11994-0.045861-0.052917-0.035278-0.077611-0.070556l-0.34572-0.45861 1.6016-1.3441h0.90311v4.3533h0.84667v0.79022h-2.9281z"
         id="path5" />
      <path
         d="m10.06 8.1473q-0.03528 0.038805-0.070556 0.081139-0.03175 0.038806-0.0635 0.077611 0.12347-0.045861 0.25753-0.070556 0.13758-0.024695 0.29281-0.024695 0.27869 0 0.55033 0.091722t0.48683 0.28222q0.2152 0.1905 0.34572 0.48331 0.13406 0.28928 0.13406 0.68439 0 0.35983-0.13406 0.68439-0.13406 0.32103-0.381 0.56444-0.24342 0.23989-0.58914 0.381t-0.76553 0.14111q-0.43039 0-0.77258-0.13406-0.34219-0.13758-0.58208-0.381-0.23636-0.24342-0.36336-0.58208-0.12347-0.33867-0.12347-0.74436 0-0.75847 0.58561-1.5416l1.1571-1.5628q0.08114-0.10231 0.23283-0.17639 0.15522-0.074083 0.35278-0.074083h0.97367zm-0.72672 1.6828q0 0.1905 0.045861 0.34219 0.045861 0.1517 0.14111 0.26106 0.09525 0.10936 0.23989 0.16933 0.14464 0.05644 0.34219 0.05644 0.16933 0 0.31397-0.0635 0.14817-0.0635 0.254-0.17286 0.10583-0.11289 0.1658-0.26106 0.0635-0.15169 0.0635-0.32808 0-0.19756-0.05997-0.35278-0.05644-0.15522-0.16228-0.26106-0.10583-0.10583-0.25753-0.16228-0.14817-0.056445-0.33161-0.056445-0.16581 0-0.30339 0.059972-0.13759 0.056449-0.23989 0.16581-0.098778 0.10936-0.15522 0.26106-0.056444 0.15169-0.056444 0.34219z"
         id="path6" />
    </g>
    <g
       stroke-linecap="round"
       stroke-linejoin="round"
       stroke-width=".52917"
       aria-label="DEC"
       id="g9">
      <path
         d="m7.2979 14.485q0 0.22296-0.077611 0.41204-0.0762 0.18768-0.2159 0.32597-0.1397 0.13688-0.33726 0.21449-0.19614 0.0762-0.43603 0.0762h-0.79869v-2.056h0.79869q0.23989 0 0.43603 0.07761 0.19756 0.07761 0.33726 0.21449 0.1397 0.13688 0.2159 0.32597 0.077611 0.18768 0.077611 0.40922zm-0.48825 0q0-0.1524-0.039511-0.27517t-0.1143-0.20743q-0.073378-0.08608-0.18062-0.13123-0.10724-0.04657-0.24412-0.04657h-0.31891v1.3222h0.31891q0.13688 0 0.24412-0.04516 0.10724-0.04657 0.18062-0.13123 0.074789-0.08608 0.1143-0.20884 0.039511-0.12277 0.039511-0.27658z"
         id="path7" />
      <path
         d="m8.9038 13.458v0.36689h-0.84385v0.47978h0.64629v0.35278h-0.64629v0.48966h0.84385v0.36689h-1.3236v-2.056z"
         id="path8" />
      <path
         d="m10.541 14.982q0.01693 0 0.03387 0.0071 0.01693 0.0056 0.03246 0.02117l0.18909 0.19897q-0.12418 0.16228-0.31186 0.24553-0.18627 0.08184-0.44168 0.08184-0.23425 0-0.42051-0.07902-0.18486-0.080478-0.31469-0.22018-0.12841-0.14111-0.19756-0.33302-0.069145-0.19332-0.069145-0.4191 0-0.23001 0.074789-0.42192 0.074789-0.19332 0.21026-0.33302 0.13547-0.1397 0.32456-0.21731 0.18909-0.07761 0.41628-0.07761 0.11571 0 0.21731 0.02117 0.10301 0.01976 0.19191 0.05645 0.0889 0.03528 0.16369 0.08608 0.07479 0.0508 0.13264 0.11007l-0.16087 0.2159q-0.01552 0.01976-0.03669 0.03669-0.02117 0.01552-0.05927 0.01552-0.0254 0-0.04798-0.01129t-0.04798-0.02681q-0.0254-0.01693-0.05644-0.03528-0.02963-0.01975-0.07197-0.03528-0.04092-0.01693-0.09737-0.02822-0.05503-0.01129-0.12982-0.01129-0.11853 0-0.21731 0.04374-0.097367 0.04374-0.16933 0.12841-0.070556 0.08326-0.11007 0.20602-0.0381 0.12136-0.0381 0.27799 0 0.15804 0.042333 0.28081 0.043745 0.12277 0.11712 0.20743 0.074789 0.08325 0.17357 0.127 0.098778 0.04374 0.21167 0.04374 0.06491 0 0.11853-0.0056 0.05362-0.0071 0.10019-0.02117 0.04657-0.01552 0.08749-0.03951 0.04092-0.0254 0.08326-0.0635 0.01693-0.01411 0.03669-0.02258 0.01976-0.0099 0.04092-0.0099z"
         id="path9" />
    </g>
  </g>
  <rect
     x=".43972"
     y="2.3731"
     width="15.069"
     height="13.991"
     ry="1.4362"
     fill="#fff"
     stroke="#2c233d"
     stroke-linecap="round"
     stroke-linejoin="round"
     stroke-width=".52917"
     id="rect10" />
  <g
     transform="matrix(1.0347 0 0 1 -66.027 -377.31)"
     fill="#2c233d"
     stroke-linecap="round"
     stroke-linejoin="round"
     id="g12">
    <rect
       x="63.963"
       y="378.96"
       width="15.069"
       height="3.7274"
       rx="1.9673"
       ry="1.8637"
       stroke-width=".95596"
       id="rect11" />
    <rect
       x="63.964"
       y="380.72"
       width="15.068"
       height="1.9849"
       rx="0"
       ry="0"
       stroke-width="8.0217"
       id="rect12" />
  </g>
  <rect
     x="3.6195"
     y=".13143"
     width="1.3505"
     height="3.7953"
     rx=".67527"
     ry=".5931"
     fill="#ff8a4b"
     id="rect13" />
  <rect
     x="11.699"
     y=".1296"
     width="1.3505"
     height="3.7953"
     rx=".67527"
     ry=".5931"
     fill="#ff8a4b"
     id="rect14" />
  <g
     fill="#2c233d"
     stroke-linecap="round"
     stroke-linejoin="round"
     stroke-width=".52917"
     aria-label="JAN"
     id="g18">
    <path
       d="m6.3453 14.699q0 0.17216-0.043745 0.31327-0.042333 0.14111-0.12982 0.24271-0.086078 0.10019-0.21731 0.15663-0.13123 0.05503-0.30903 0.05503-0.080434 0-0.15946-0.0085-0.077611-0.0085-0.16228-0.02822l0.0254-0.27799q0.00423-0.03669 0.029634-0.05927 0.0254-0.02258 0.071967-0.02258 0.023989 0 0.059267 0.0085 0.035278 0.0071 0.084667 0.0071 0.069145 0 0.11994-0.01834 0.052211-0.01976 0.086078-0.0635 0.033867-0.04516 0.0508-0.11712 0.016933-0.07197 0.016933-0.1778v-1.3208h0.47696z"
       id="path16" />
    <path
       d="m8.5339 15.444h-0.36971q-0.062089 0-0.10019-0.02822-0.0381-0.02963-0.057856-0.07479l-0.12136-0.35842h-0.78176l-0.12136 0.35842q-0.015522 0.03951-0.056445 0.07197-0.039511 0.03105-0.098778 0.03105h-0.37253l0.79587-2.056h0.48825zm-1.3208-0.78599h0.56162l-0.18909-0.56304q-0.021167-0.05362-0.045156-0.12559-0.023989-0.07338-0.047978-0.15804-0.022578 0.08608-0.046567 0.15946-0.022578 0.07338-0.043744 0.127z"
       id="path17" />
    <path
       d="m8.9474 13.388q0.031045 0 0.052211 0.0028 0.021167 0.0028 0.0381 0.01129 0.016933 0.0071 0.032456 0.02117 0.015522 0.01411 0.035278 0.0381l0.97649 1.2347q-0.0056-0.05927-0.0085-0.1143-0.0028-0.05644-0.0028-0.10583v-1.088h0.42051v2.056h-0.24836q-0.05503 0-0.09313-0.01693-0.03669-0.01834-0.07338-0.06209l-0.96943-1.2248q0.00423 0.05362 0.00706 0.10583 0.00282 0.0508 0.00282 0.09596v1.1021h-0.42051v-2.056h0.25118z"
       id="path18" />
  </g>
  <path
     style="font-weight:900;font-size:7.43722px;line-height:1.15;font-family:Lato;-inkscape-font-specification:'Lato Heavy';text-align:center;text-anchor:middle;fill:#2c233d;stroke:#2c233d;stroke-width:0.490496;stroke-linecap:round;stroke-linejoin:round;paint-order:stroke fill markers"
     d="M 4.297395,11.36299 H 5.3386059 V 8.6298121 q 0,-0.200805 0.011156,-0.420203 L 4.736191,8.7190587 q -0.081809,0.063216 -0.1636188,0.078091 -0.078091,0.011156 -0.1487444,0 Q 4.3531742,8.7822751 4.297395,8.7488076 4.2416159,8.7116215 4.2155856,8.6744354 L 3.8511618,8.1910161 5.5394108,6.7742256 H 6.491375 V 11.36299 h 0.8924664 v 0.832969 H 4.297395 Z m 5.801031,-1.219704 q 0.05206,-0.06322 0.09668,-0.118995 0.04834,-0.059498 0.09296,-0.1189957 -0.167337,0.089247 -0.3644234,0.1338697 -0.1970864,0.04462 -0.4127657,0.04462 -0.2640213,0 -0.5280427,-0.092966 Q 8.7188219,9.8941395 8.5031425,9.7007717 8.2911818,9.507404 8.1573118,9.2136338 q -0.13387,-0.2937702 -0.13387,-0.69538 0,-0.3681424 0.13387,-0.6953801 Q 8.2949004,7.495636 8.5440473,7.2502077 8.7969127,7.0047795 9.1464621,6.8634723 9.4960114,6.7184465 9.9273702,6.7184465 q 0.4387958,0 0.7846268,0.13387 0.345831,0.1338699 0.583822,0.3755796 0.241709,0.2417096 0.368142,0.5763845 0.130151,0.3309563 0.130151,0.7325662 0,0.5317612 -0.1599,0.9519642 -0.1599,0.4202029 -0.42764,0.792064 l -1.167644,1.6585 q -0.07809,0.10784 -0.2379906,0.182212 -0.1561816,0.07437 -0.3569865,0.07437 H 8.3804284 Z m 0.594978,-1.7105603 q 0,-0.1970863 -0.0595,-0.3458307 -0.05578,-0.152463 -0.1599,-0.2528655 -0.100403,-0.1004025 -0.245428,-0.152463 -0.145026,-0.05206 -0.3160823,-0.05206 -0.1747746,0 -0.3123632,0.063216 -0.13387,0.059498 -0.2305538,0.1673375 -0.092965,0.1078397 -0.1450258,0.2565841 -0.048342,0.1450258 -0.048342,0.3160818 0,0.810657 0.7511592,0.810657 0.3681428,0 0.5652288,-0.219398 0.200805,-0.2231166 0.200805,-0.591259 z"
     id="text18"
     transform="scale(1.0218639,0.97860391)"
     aria-label="19" />
</svg>
