<svg xmlns="http://www.w3.org/2000/svg" xmlns:svg="http://www.w3.org/2000/svg" id="svg1154" width="60" height="65" version="1.1" viewBox="0 0 15.875 17.198"><g id="layer1"><rect style="fill:#fff;fill-opacity:1;stroke:#2c233d;stroke-width:.529167;stroke-linecap:round;stroke-linejoin:round;stroke-dasharray:none;stroke-opacity:1" id="rect727-5-2-2-5-8-6" width="15.069" height="13.991" x=".445" y="2.402" ry="1.436"/><g id="g2094-6-6-8-9-1-2" transform="matrix(1.0347143,0,0,1,-66.021812,-377.28484)"><rect style="fill:#2c233d;fill-opacity:1;stroke-width:.955957;stroke-linecap:round;stroke-linejoin:round" id="rect727-3-2-1-9-4-2-6" width="15.069" height="3.727" x="63.963" y="378.962" rx="1.967" ry="1.864"/><rect style="fill:#2c233d;fill-opacity:1;stroke-width:8.02166;stroke-linecap:round;stroke-linejoin:round" id="rect2090-9-8-7-9-9-7" width="15.068" height="1.985" x="63.964" y="380.723" rx="0" ry="0"/></g><rect style="fill:#ff8a4b;fill-opacity:1;stroke:none;stroke-width:.644338;stroke-linecap:round;stroke-linejoin:round;stroke-dasharray:none;stroke-opacity:1" id="rect2148-1-7-3-0-3-5" width="1.351" height="3.795" x="3.624" y=".16" rx=".675" ry=".593"/><rect style="fill:#ff8a4b;fill-opacity:1;stroke:none;stroke-width:.644338;stroke-linecap:round;stroke-linejoin:round;stroke-dasharray:none;stroke-opacity:1" id="rect2148-6-2-9-6-9-9-6" width="1.351" height="3.795" x="11.704" y=".159" rx=".675" ry=".593"/><g id="text4218-7-2-1-1-0-9" aria-label="26" style="font-weight:700;font-size:7.05556px;line-height:1.15;font-family:Lato;-inkscape-font-specification:'Lato Bold';text-align:center;text-anchor:middle;fill:#ff8a4b;stroke:#ff8a4b;stroke-width:.529167;stroke-linecap:round;stroke-linejoin:round"><path d="m 6.0511222,6.2294995 q 0.3810002,0 0.6843893,0.112889 0.3069169,0.1093612 0.5221115,0.3069168 0.2151946,0.1975557 0.3280835,0.4727226 0.1164168,0.271639 0.1164168,0.5997226 0,0.2822224 -0.081139,0.5221114 Q 7.5433732,8.483751 7.4057897,8.7024733 7.2682063,8.9176679 7.0847617,9.1222792 6.904845,9.3233626 6.7002337,9.5315016 L 5.6948164,10.561613 q 0.1940279,-0.05644 0.3810003,-0.08819 0.1905001,-0.03528 0.3563057,-0.03528 h 0.9595562 q 0.176389,0 0.2786946,0.09878 0.1023057,0.09525 0.1023057,0.254 V 11.42592 H 4.1602321 v -0.352778 q 0,-0.102306 0.042333,-0.218723 0.042333,-0.116417 0.1481668,-0.211667 L 5.8323998,9.1505014 Q 6.0229,8.9600013 6.1640112,8.7871401 6.3051224,8.6142788 6.3968446,8.4484732 6.4885669,8.2791397 6.5344281,8.1133341 q 0.045861,-0.1693335 0.045861,-0.3563058 0,-0.3069169 -0.1481668,-0.4691948 -0.1446389,-0.1658056 -0.4445003,-0.1658056 -0.2434168,0 -0.4127502,0.1305278 -0.1658057,0.1270001 -0.2293057,0.3175002 -0.074083,0.1940279 -0.1940279,0.257528 -0.1199445,0.0635 -0.3421947,0.028222 L 4.2307877,7.7535005 Q 4.2872322,7.3689725 4.4459823,7.0832223 4.6082601,6.7974721 4.8446214,6.606972 5.0845105,6.4164719 5.3914273,6.3247496 q 0.3069169,-0.09525 0.6596949,-0.09525 z" style="font-weight:900;-inkscape-font-specification:'Lato Heavy'" id="path1783"/><path d="m 10.037513,8.1062785 q -0.03528,0.038806 -0.070556,0.081139 -0.03175,0.038806 -0.0635,0.077611 0.1234727,-0.045861 0.2575277,-0.070556 0.137584,-0.024695 0.292806,-0.024695 0.278695,0 0.550334,0.091722 0.271639,0.091722 0.486833,0.2822224 0.215195,0.1905002 0.345723,0.4833059 0.134055,0.289278 0.134055,0.6843893 0,0.3598336 -0.134055,0.6843896 -0.134056,0.321028 -0.381001,0.564445 -0.243416,0.239889 -0.589139,0.381 -0.345722,0.141111 -0.765528,0.141111 -0.4303892,0 -0.7725839,-0.134056 -0.3421946,-0.137583 -0.5820837,-0.381 Q 8.5099841,10.723891 8.3829841,10.385224 8.2595118,10.046558 8.2595118,9.6408628 q 0,-0.7584727 0.5856115,-1.5416399 L 10.002235,6.5364164 q 0.08114,-0.1023056 0.232834,-0.176389 0.155222,-0.074083 0.352778,-0.074083 h 0.973667 z M 9.3107902,9.7890296 q 0,0.1905001 0.045861,0.3421944 0.045861,0.151695 0.1411112,0.261056 0.09525,0.109361 0.239889,0.169333 0.144639,0.05645 0.3421944,0.05645 0.169334,0 0.313973,-0.0635 0.148166,-0.0635 0.254,-0.172861 0.105833,-0.112889 0.165806,-0.261056 0.0635,-0.1516946 0.0635,-0.3280836 0,-0.1975557 -0.05997,-0.352778 Q 10.760708,9.284557 10.654874,9.1787236 10.549041,9.0728902 10.397346,9.0164458 10.24918,8.9600013 10.065735,8.9600013 q -0.1658055,0 -0.3033889,0.059972 Q 9.6247626,9.076418 9.522457,9.1857792 9.4236792,9.2951404 9.3672347,9.4468349 9.3107902,9.5985295 9.3107902,9.7890296 Z" style="font-weight:900;-inkscape-font-specification:'Lato Heavy'" id="path1785"/></g><g id="text4272-9-2-9-7-8-7" aria-label="JAN" style="font-weight:700;font-size:2.82223px;line-height:1.15;font-family:Lato;-inkscape-font-specification:'Lato Bold';text-align:center;text-anchor:middle;fill:#ff8a4b;stroke-width:.529167;stroke-linecap:round;stroke-linejoin:round"><path d="m 6.3501977,14.727787 q 0,0.172156 -0.043744,0.313267 -0.042333,0.141112 -0.1298226,0.242712 -0.086078,0.100189 -0.2173117,0.156634 -0.1312337,0.05503 -0.3090342,0.05503 -0.080434,0 -0.159456,-0.0085 -0.077611,-0.0085 -0.1622783,-0.02822 l 0.0254,-0.277989 q 0.00423,-0.03669 0.029633,-0.05927 0.0254,-0.02258 0.071967,-0.02258 0.023989,0 0.059267,0.0085 0.035278,0.0071 0.084667,0.0071 0.069145,0 0.1199448,-0.01834 0.052211,-0.01976 0.086078,-0.0635 0.033867,-0.04516 0.0508,-0.117123 0.016933,-0.07197 0.016933,-0.1778 v -1.320804 h 0.4769569 z" style="font-weight:900;-inkscape-font-specification:'Lato Heavy'" id="path1788"/><path d="M 8.538832,15.472856 H 8.1691198 q -0.062089,0 -0.1001891,-0.02822 -0.0381,-0.02963 -0.057856,-0.07479 L 7.8897191,15.011421 H 7.1079613 l -0.1213559,0.358423 q -0.015522,0.03951 -0.056445,0.07197 -0.039511,0.03105 -0.098778,0.03105 H 6.4588484 L 7.2547173,13.416861 H 7.7429631 Z M 7.2180283,14.686864 H 7.7796521 L 7.5905627,14.12383 q -0.021167,-0.05362 -0.045156,-0.12559 -0.023989,-0.07338 -0.047978,-0.158045 -0.022578,0.08608 -0.046567,0.159456 -0.022578,0.07338 -0.043745,0.127001 z" style="font-weight:900;-inkscape-font-specification:'Lato Heavy'" id="path1790"/><path d="m 8.9522847,13.416861 q 0.031045,0 0.052211,0.0028 0.021167,0.0028 0.0381,0.01129 0.016933,0.0071 0.032456,0.02117 0.015522,0.01411 0.035278,0.0381 l 0.9764914,1.234726 q -0.0056,-0.05927 -0.0085,-0.114301 -0.0028,-0.05644 -0.0028,-0.105833 v -1.08797 h 0.420513 v 2.055995 h -0.248357 q -0.05503,0 -0.09313,-0.01693 -0.03669,-0.01834 -0.07338,-0.06209 L 9.1117407,14.168985 q 0.00423,0.05362 0.00706,0.105834 0.00282,0.0508 0.00282,0.09596 v 1.102081 H 8.7011062 v -2.055995 h 0.2511785 z" style="font-weight:900;-inkscape-font-specification:'Lato Heavy'" id="path1792"/></g></g></svg>