<?xml version="1.0" encoding="UTF-8" standalone="no"?>
<!-- Created with Inkscape (http://www.inkscape.org/) -->

<svg
   width="75"
   height="75"
   viewBox="0 0 19.843749 19.84375"
   version="1.1"
   id="svg1"
   sodipodi:docname="jan27.svg"
   inkscape:version="1.3.1 (9b9bdc1480, 2023-11-25, custom)"
   xmlns:inkscape="http://www.inkscape.org/namespaces/inkscape"
   xmlns:sodipodi="http://sodipodi.sourceforge.net/DTD/sodipodi-0.dtd"
   xmlns="http://www.w3.org/2000/svg"
   xmlns:svg="http://www.w3.org/2000/svg">
  <sodipodi:namedview
     id="namedview1"
     pagecolor="#ffffff"
     bordercolor="#000000"
     borderopacity="0.25"
     inkscape:showpageshadow="2"
     inkscape:pageopacity="0.0"
     inkscape:pagecheckerboard="0"
     inkscape:deskcolor="#d1d1d1"
     inkscape:document-units="mm"
     inkscape:zoom="3.3638608"
     inkscape:cx="66.590151"
     inkscape:cy="74.170727"
     inkscape:window-width="1854"
     inkscape:window-height="1131"
     inkscape:window-x="66"
     inkscape:window-y="32"
     inkscape:window-maximized="1"
     inkscape:current-layer="layer1" />
  <defs
     id="defs1" />
  <g
     inkscape:label="Layer 1"
     inkscape:groupmode="layer"
     id="layer1">
    <rect
       style="fill:#ffffff;fill-opacity:1;stroke:#2c233d;stroke-width:0.529167;stroke-linecap:round;stroke-linejoin:round;stroke-dasharray:none;stroke-opacity:1"
       id="rect727-5-2-9-1-1-2-8"
       width="15.068812"
       height="13.99104"
       x="2.3038747"
       y="3.8071291"
       ry="1.4361818" />
    <g
       id="g2094-6-6-5-1-9-7-7"
       transform="matrix(1.0347143,0,0,1,-64.162531,-375.87975)">
      <rect
         style="fill:#2c233d;fill-opacity:1;stroke-width:0.955957;stroke-linecap:round;stroke-linejoin:round"
         id="rect727-3-2-1-0-5-6-0-9"
         width="15.068812"
         height="3.7274084"
         x="63.963314"
         y="378.96231"
         ry="1.8637042"
         rx="1.9672697" />
      <rect
         style="fill:#2c233d;fill-opacity:1;stroke-width:8.02166;stroke-linecap:round;stroke-linejoin:round"
         id="rect2090-9-8-4-9-9-93-2"
         width="15.068185"
         height="1.9848517"
         x="63.964188"
         y="380.72256"
         rx="0"
         ry="0" />
    </g>
    <rect
       style="fill:#ff8a4b;fill-opacity:1;stroke:none;stroke-width:0.644338;stroke-linecap:round;stroke-linejoin:round;stroke-dasharray:none;stroke-opacity:1"
       id="rect2148-1-7-8-7-3-6-0"
       width="1.3505394"
       height="3.7953029"
       x="5.4836388"
       y="1.565491"
       ry="0.59310055"
       rx="0.67526972" />
    <rect
       style="fill:#ff8a4b;fill-opacity:1;stroke:none;stroke-width:0.644338;stroke-linecap:round;stroke-linejoin:round;stroke-dasharray:none;stroke-opacity:1"
       id="rect2148-6-2-9-7-7-3-0-2"
       width="1.3505394"
       height="3.7953029"
       x="13.563656"
       y="1.5636599"
       ry="0.59310055"
       rx="0.67526972" />
    <path
       style="font-weight:900;font-size:7.05556px;line-height:1.15;font-family:Lato;-inkscape-font-specification:'Lato Heavy';text-align:center;text-anchor:middle;fill:#2c233d;stroke:#2c233d;stroke-width:0.529167;stroke-linecap:round;stroke-linejoin:round"
       d="m 9.5155084,12.040832 v 0.790223 H 6.5874509 V 12.040832 H 7.5752293 V 9.4479136 q 0,-0.098778 0.00353,-0.1975557 0.00353,-0.1023056 0.010583,-0.2046112 L 7.003729,9.5325803 q -0.077611,0.059972 -0.1552224,0.074083 -0.074083,0.010583 -0.1411112,0 Q 6.6403676,9.5925526 6.5874509,9.5608026 6.5345342,9.5255248 6.5098398,9.490247 L 6.1641173,9.0316356 7.7657295,7.6875514 h 0.9031117 v 4.3532806 z m 2.4306396,0.02117 q 0.183445,0 0.3175,-0.05645 0.134056,-0.05644 0.218723,-0.151694 0.08819,-0.09878 0.127,-0.229306 0.04233,-0.134056 0.04233,-0.28575 0,-0.165806 -0.03528,-0.303389 -0.03528,-0.137584 -0.116416,-0.232834 -0.08114,-0.09878 -0.218723,-0.151694 -0.134055,-0.05645 -0.335139,-0.05645 -0.201083,0 -0.338667,0.05645 -0.134055,0.05292 -0.215194,0.151694 -0.08114,0.09525 -0.116417,0.232834 -0.03528,0.137583 -0.03528,0.303389 0,0.151694 0.03881,0.28575 0.04233,0.130528 0.127,0.229306 0.08819,0.09525 0.218722,0.151694 0.134056,0.05645 0.321028,0.05645 z m 0,-3.630086 q -0.165806,0 -0.278695,0.052917 -0.112889,0.052917 -0.186972,0.1411112 -0.07055,0.084667 -0.102306,0.1975556 -0.03175,0.112889 -0.03175,0.2328335 0,0.1340557 0.02469,0.2610558 0.02469,0.127 0.09172,0.2257779 0.06703,0.098778 0.183445,0.1587501 0.116417,0.059972 0.299861,0.059972 0.183445,0 0.299861,-0.059972 0.116417,-0.059972 0.183445,-0.1587501 0.06703,-0.098778 0.09172,-0.2257779 0.02469,-0.1270001 0.02469,-0.2610558 0,-0.1199445 -0.03175,-0.2328335 Q 12.482371,8.7106076 12.408287,8.6259409 12.337732,8.5377464 12.221315,8.4848297 12.108426,8.431913 11.946148,8.431913 Z m 0.97014,1.718029 q 0.229305,0.08114 0.391583,0.201083 0.165806,0.119945 0.268111,0.275167 0.105834,0.155222 0.155223,0.342195 0.04939,0.183444 0.04939,0.391583 0,0.345723 -0.134056,0.627945 -0.130528,0.282223 -0.373945,0.483306 -0.239889,0.197556 -0.578556,0.306917 -0.338666,0.109361 -0.747889,0.109361 -0.409222,0 -0.747889,-0.109361 -0.338667,-0.109361 -0.582084,-0.306917 -0.239889,-0.201083 -0.373945,-0.483306 -0.130528,-0.282222 -0.130528,-0.627945 0,-0.208139 0.04939,-0.391583 0.04939,-0.186973 0.151695,-0.342195 0.105833,-0.155222 0.268111,-0.275167 0.165806,-0.119944 0.395112,-0.201083 -0.349251,-0.1587503 -0.522112,-0.4374449 -0.172861,-0.2822224 -0.172861,-0.6773338 0,-0.2998613 0.123472,-0.5538614 0.123473,-0.257528 0.345723,-0.4445003 0.22225,-0.1869724 0.525639,-0.2928058 0.306917,-0.1093611 0.670278,-0.1093611 0.363361,0 0.666751,0.1093611 0.306916,0.1058334 0.529167,0.2928058 0.22225,0.1869723 0.345722,0.4445003 0.123472,0.2540001 0.123472,0.5538614 0,0.3951114 -0.172861,0.6773338 -0.172861,0.2786946 -0.522111,0.4374449 z"
       id="text4218-7-2-17-6-8-6-3"
       aria-label="18" />
    <text
       xml:space="preserve"
       style="font-weight:bold;font-size:2.82223px;line-height:1.15;font-family:Lato;-inkscape-font-specification:'Lato Bold';text-align:center;text-anchor:middle;fill:#2c233d;fill-opacity:1;stroke:none;stroke-width:0.529167;stroke-linecap:round;stroke-linejoin:round;stroke-dasharray:none;stroke-opacity:1"
       x="9.8569298"
       y="16.877991"
       id="text4272-9-2-2-3-5-6-5"><tspan
         sodipodi:role="line"
         id="tspan4270-3-3-2-6-6-1-9"
         style="font-style:normal;font-variant:normal;font-weight:900;font-stretch:normal;font-family:Lato;-inkscape-font-specification:'Lato Heavy';fill:#2c233d;fill-opacity:1;stroke-width:0.529167"
         x="9.8569298"
         y="16.877991">NOV</tspan></text>
    <rect
       style="fill:#ffffff;fill-opacity:1;stroke:#2c233d;stroke-width:0.529167;stroke-linecap:round;stroke-linejoin:round;stroke-dasharray:none;stroke-opacity:1"
       id="rect727-5-2-9-1-1-2"
       width="15.068812"
       height="13.99104"
       x="2.2371805"
       y="3.7820842"
       ry="1.4361818" />
    <g
       id="g2094-6-6-5-1-9-7"
       transform="matrix(1.0347143,0,0,1,-64.229223,-375.90478)">
      <rect
         style="fill:#2c233d;fill-opacity:1;stroke-width:0.955957;stroke-linecap:round;stroke-linejoin:round"
         id="rect727-3-2-1-0-5-6-0"
         width="15.068812"
         height="3.7274084"
         x="63.963314"
         y="378.96231"
         ry="1.8637042"
         rx="1.9672697" />
      <rect
         style="fill:#2c233d;fill-opacity:1;stroke-width:8.02166;stroke-linecap:round;stroke-linejoin:round"
         id="rect2090-9-8-4-9-9-93"
         width="15.068185"
         height="1.9848517"
         x="63.964188"
         y="380.72256"
         rx="0"
         ry="0" />
    </g>
    <rect
       style="fill:#ff8a4b;fill-opacity:1;stroke:none;stroke-width:0.644338;stroke-linecap:round;stroke-linejoin:round;stroke-dasharray:none;stroke-opacity:1"
       id="rect2148-1-7-8-7-3-6"
       width="1.3505394"
       height="3.7953029"
       x="5.416944"
       y="1.540446"
       ry="0.59310055"
       rx="0.67526972" />
    <rect
       style="fill:#ff8a4b;fill-opacity:1;stroke:none;stroke-width:0.644338;stroke-linecap:round;stroke-linejoin:round;stroke-dasharray:none;stroke-opacity:1"
       id="rect2148-6-2-9-7-7-3-0"
       width="1.3505394"
       height="3.7953029"
       x="13.496962"
       y="1.538615"
       ry="0.59310055"
       rx="0.67526972" />
    <path
       style="font-weight:900;font-size:7.05556px;line-height:1.15;font-family:Lato;-inkscape-font-specification:'Lato Heavy';text-align:center;text-anchor:middle;fill:#2c233d;stroke:#2c233d;stroke-width:0.529167;stroke-linecap:round;stroke-linejoin:round"
       d="m 9.1842306,11.818232 q 0.176389,0 0.2786946,0.09878 0.1023057,0.09525 0.1023057,0.254 v 0.635 H 5.9527841 v -0.352778 q 0,-0.102305 0.042333,-0.218722 0.042333,-0.116417 0.1481668,-0.211667 l 1.4816676,-1.492251 q 0.1905001,-0.1905 0.3316113,-0.363361 0.1411112,-0.1728615 0.2328335,-0.3386671 0.091722,-0.1693335 0.1375835,-0.3351391 0.045861,-0.1693335 0.045861,-0.3563058 0,-0.3069169 -0.1481668,-0.4691948 -0.144639,-0.1658056 -0.4445003,-0.1658056 -0.2434168,0 -0.4127502,0.1305278 -0.1658057,0.1270001 -0.2293057,0.3175002 -0.074083,0.1940279 -0.1940279,0.257528 -0.1199446,0.0635 -0.3421947,0.028222 L 6.0233397,9.1335912 Q 6.0797842,8.7490632 6.2385343,8.463313 6.4008121,8.1775628 6.6371734,7.9870627 6.8770624,7.7965626 7.1839793,7.7048403 q 0.3069169,-0.09525 0.6596949,-0.09525 0.3810002,0 0.6843893,0.112889 0.3069169,0.1093612 0.5221115,0.3069169 0.2151945,0.1975556 0.3280835,0.4727225 0.1164168,0.271639 0.1164168,0.5997226 0,0.2822224 -0.081139,0.5221114 -0.077611,0.2398891 -0.2151946,0.4586114 -0.1375834,0.215195 -0.321028,0.419806 -0.1799167,0.201083 -0.384528,0.409222 l -1.0054173,1.030112 q 0.1940279,-0.05997 0.384528,-0.09172 0.1905001,-0.03175 0.352778,-0.03175 z M 13.724483,7.6660347 v 0.4586114 q 0,0.2046113 -0.04586,0.3316113 -0.04586,0.1234723 -0.0882,0.2081391 L 11.80537,12.446177 q -0.07408,0.148166 -0.211666,0.254 -0.134056,0.105833 -0.359834,0.105833 h -0.797278 l 1.834445,-3.6794744 q 0.08114,-0.1481667 0.162278,-0.2681112 0.08467,-0.1234723 0.186973,-0.2328335 h -2.261307 q -0.04939,0 -0.09525,-0.017639 -0.04233,-0.021167 -0.07761,-0.052917 -0.03175,-0.035278 -0.05292,-0.077611 -0.02117,-0.045861 -0.02117,-0.091722 V 7.6660347 Z"
       id="text4218-7-2-17-6-8-6"
       aria-label="27" />
    <path
       style="font-weight:900;font-size:2.82223px;line-height:1.15;font-family:Lato;-inkscape-font-specification:'Lato Heavy';text-align:center;text-anchor:middle;fill:#2c233d;stroke-width:0.529167;stroke-linecap:round;stroke-linejoin:round"
       d="m 8.1427655,16.107875 q 0,0.172156 -0.043745,0.313267 -0.042333,0.141112 -0.1298226,0.242712 -0.086078,0.100189 -0.2173117,0.156634 -0.1312337,0.05503 -0.3090342,0.05503 -0.080434,0 -0.159456,-0.0085 -0.077611,-0.0085 -0.1622782,-0.02822 l 0.0254,-0.277989 q 0.00423,-0.03669 0.029633,-0.05927 0.0254,-0.02258 0.071967,-0.02258 0.023989,0 0.059267,0.0085 0.035278,0.0071 0.084667,0.0071 0.069145,0 0.1199447,-0.01834 0.052211,-0.01976 0.086078,-0.0635 0.033867,-0.04516 0.0508,-0.117123 0.016933,-0.07197 0.016933,-0.177801 v -1.320803 h 0.4769569 z m 1.4308654,-0.04092 -0.1905005,-0.563035 q -0.021167,-0.05362 -0.045156,-0.125589 -0.023989,-0.07338 -0.047978,-0.158045 -0.021167,0.08608 -0.045156,0.159456 -0.023989,0.07338 -0.045156,0.127001 L 9.010596,16.066952 Z M 10.3314,16.852943 H 9.9616876 q -0.062089,0 -0.1001892,-0.02822 -0.0381,-0.02963 -0.057856,-0.07479 L 9.6822868,16.391509 H 8.9005291 l -0.1213559,0.358423 q -0.015522,0.03951 -0.056445,0.07197 -0.039511,0.03104 -0.098778,0.03104 H 8.2514161 L 9.047285,14.796949 h 0.4882458 z m 1.957212,-2.055994 v 2.055994 h -0.248356 q -0.05503,0 -0.09313,-0.01693 -0.03669,-0.01834 -0.07338,-0.06209 l -0.969436,-1.226259 q 0.0056,0.05503 0.0071,0.107245 0.0028,0.0508 0.0028,0.09596 v 1.10208 h -0.420512 v -2.055994 h 0.251178 q 0.03105,0 0.05221,0.0028 0.02117,0.0028 0.0381,0.01129 0.01693,0.0071 0.03245,0.02117 0.01552,0.01411 0.03528,0.0381 l 0.977903,1.234725 q -0.0071,-0.05927 -0.0099,-0.1143 -0.0028,-0.05644 -0.0028,-0.105834 v -1.087969 z"
       id="text4272-9-2-2-3-5-6"
       aria-label="JAN" />
    <g
       id="g2094-6-6-8-9-1-2-2"
       transform="matrix(1.0347143,0,0,1,-64.187552,-375.94419)">
      <rect
         style="fill:#2c233d;fill-opacity:1;stroke-width:0.955957;stroke-linecap:round;stroke-linejoin:round"
         id="rect727-3-2-1-9-4-2-6-8"
         width="15.068812"
         height="3.7274084"
         x="63.963314"
         y="378.96231"
         ry="1.8637042"
         rx="1.9672697" />
      <rect
         style="fill:#2c233d;fill-opacity:1;stroke-width:8.02166;stroke-linecap:round;stroke-linejoin:round"
         id="rect2090-9-8-7-9-9-7-9"
         width="15.068185"
         height="1.9848517"
         x="63.964188"
         y="380.72256"
         rx="0"
         ry="0" />
    </g>
    <rect
       style="fill:#ff8a4b;fill-opacity:1;stroke:none;stroke-width:0.644338;stroke-linecap:round;stroke-linejoin:round;stroke-dasharray:none;stroke-opacity:1"
       id="rect2148-1-7-3-0-3-5-7"
       width="1.3505394"
       height="3.7953029"
       x="5.4586291"
       y="1.5010118"
       ry="0.59310055"
       rx="0.67526972" />
    <rect
       style="fill:#ff8a4b;fill-opacity:1;stroke:none;stroke-width:0.644338;stroke-linecap:round;stroke-linejoin:round;stroke-dasharray:none;stroke-opacity:1"
       id="rect2148-6-2-9-6-9-9-6-3"
       width="1.3505394"
       height="3.7953029"
       x="13.538662"
       y="1.4991808"
       ry="0.59310055"
       rx="0.67526972" />
    <g
       id="g2094-6-6-5-1-9-6-1"
       transform="matrix(1.0347143,0,0,1,-64.176479,-376.00323)">
      <rect
         style="fill:#2c233d;fill-opacity:1;stroke-width:0.955957;stroke-linecap:round;stroke-linejoin:round"
         id="rect727-3-2-1-0-5-6-2-9"
         width="15.068812"
         height="3.7274084"
         x="63.963314"
         y="378.96231"
         ry="1.8637042"
         rx="1.9672697" />
      <rect
         style="fill:#2c233d;fill-opacity:1;stroke-width:8.02166;stroke-linecap:round;stroke-linejoin:round"
         id="rect2090-9-8-4-9-9-9-4"
         width="15.068185"
         height="1.9848517"
         x="63.964188"
         y="380.72256"
         rx="0"
         ry="0" />
    </g>
    <rect
       style="fill:#ff8a4b;fill-opacity:1;stroke:none;stroke-width:0.644338;stroke-linecap:round;stroke-linejoin:round;stroke-dasharray:none;stroke-opacity:1"
       id="rect2148-1-7-8-7-3-1-7"
       width="1.3505394"
       height="3.7953029"
       x="5.4696622"
       y="1.441933"
       ry="0.59310055"
       rx="0.67526972" />
    <rect
       style="fill:#ff8a4b;fill-opacity:1;stroke:none;stroke-width:0.644338;stroke-linecap:round;stroke-linejoin:round;stroke-dasharray:none;stroke-opacity:1"
       id="rect2148-6-2-9-7-7-3-2-8"
       width="1.3505394"
       height="3.7953029"
       x="13.549679"
       y="1.440102"
       ry="0.59310055"
       rx="0.67526972" />
  </g>
</svg>
