<svg xmlns="http://www.w3.org/2000/svg" width="60" height="65" version="1.1" viewBox="0 0 15.875 17.198"><rect width="15.069" height="13.991" x=".445" y="2.402" fill="#fff" stroke="#2c233d" stroke-linecap="round" stroke-linejoin="round" stroke-width=".529" ry="1.436"/><g fill="#2c233d" stroke-linecap="round" stroke-linejoin="round" transform="matrix(1.0347 0 0 1 -66.022 -377.28)"><rect width="15.069" height="3.727" x="63.963" y="378.96" stroke-width=".956" rx="1.967" ry="1.864"/><rect width="15.068" height="1.985" x="63.964" y="380.72" stroke-width="8.022" rx="0" ry="0"/></g><g fill="#ff8a4b"><rect width="1.351" height="3.795" x="3.624" y=".16" rx=".675" ry=".593"/><rect width="1.351" height="3.795" x="11.704" y=".159" rx=".675" ry=".593"/><g stroke-linecap="round" stroke-linejoin="round" stroke-width=".529" aria-label="JAN"><path d="m6.3502 14.728q0 0.17216-0.043744 0.31327-0.042333 0.14111-0.12982 0.24271-0.086078 0.10019-0.21731 0.15663-0.13123 0.05503-0.30903 0.05503-0.080434 0-0.15946-0.0085-0.077611-0.0085-0.16228-0.02822l0.0254-0.27799q0.00423-0.03669 0.029633-0.05927 0.0254-0.02258 0.071967-0.02258 0.023989 0 0.059267 0.0085 0.035278 0.0071 0.084667 0.0071 0.069145 0 0.11994-0.01834 0.052211-0.01976 0.086078-0.0635 0.033867-0.04516 0.0508-0.11712 0.016933-0.07197 0.016933-0.1778v-1.3208h0.47696z"/><path d="m8.5388 15.473h-0.36971q-0.062089 0-0.10019-0.02822-0.0381-0.02963-0.057856-0.07479l-0.12136-0.35842h-0.78176l-0.12136 0.35842q-0.015522 0.03951-0.056445 0.07197-0.039511 0.03105-0.098778 0.03105h-0.37253l0.79587-2.056h0.48825zm-1.3208-0.78599h0.56162l-0.18909-0.56303q-0.021167-0.05362-0.045156-0.12559-0.023989-0.07338-0.047978-0.15804-0.022578 0.08608-0.046567 0.15946-0.022578 0.07338-0.043745 0.127z"/><path d="m8.9523 13.417q0.031045 0 0.052211 0.0028 0.021167 0.0028 0.0381 0.01129 0.016933 0.0071 0.032456 0.02117 0.015522 0.01411 0.035278 0.0381l0.97649 1.2347q-0.0056-0.05927-0.0085-0.1143-0.0028-0.05644-0.0028-0.10583v-1.088h0.42051v2.056h-0.24836q-0.05503 0-0.09313-0.01693-0.03669-0.01834-0.07338-0.06209l-0.96943-1.2248q0.00423 0.05362 0.00706 0.10583 0.00282 0.0508 0.00282 0.09596v1.1021h-0.42051v-2.056h0.25118z"/></g><g stroke="#ff8a4b" stroke-linecap="round" stroke-linejoin="round" stroke-width=".529" aria-label="29"><path d="m6.281 6.4805q0.381 0 0.68439 0.11289 0.30692 0.10936 0.52211 0.30692 0.21519 0.19756 0.32808 0.47272 0.11642 0.27164 0.11642 0.59972 0 0.28222-0.081139 0.52211-0.077611 0.23989-0.21519 0.45861-0.13758 0.21519-0.32103 0.41981-0.17992 0.20108-0.38453 0.40922l-1.0054 1.0301q0.19403-0.05645 0.381-0.0882 0.1905-0.03528 0.35631-0.03528h0.95956q0.17639 0 0.27869 0.09878 0.10231 0.09525 0.10231 0.254v0.635h-3.6124v-0.35278q0-0.10231 0.042333-0.21872 0.042333-0.11642 0.14817-0.21167l1.4817-1.4922q0.1905-0.1905 0.33161-0.36336t0.23283-0.33867q0.091722-0.16933 0.13758-0.33514 0.045861-0.16933 0.045861-0.35631 0-0.30692-0.14817-0.46919-0.14464-0.16581-0.4445-0.16581-0.24342 0-0.41275 0.13053-0.16581 0.127-0.22931 0.3175-0.074083 0.19403-0.19403 0.25753-0.11994 0.0635-0.34219 0.028222l-0.57856-0.10231q0.056444-0.38453 0.21519-0.67028 0.16228-0.28575 0.39864-0.47625 0.23989-0.1905 0.54681-0.28222 0.30692-0.09525 0.65969-0.09525z"/><path d="m10.461 9.7296q0.04939-0.059972 0.09172-0.11289 0.04586-0.056444 0.08819-0.11289-0.15875 0.084667-0.34572 0.127-0.18697 0.042333-0.39158 0.042333-0.25047 0-0.50094-0.088195-0.25047-0.091721-0.45508-0.27517-0.20108-0.18344-0.32808-0.46214-0.127-0.27869-0.127-0.65969 0-0.34925 0.127-0.65969 0.13053-0.31044 0.36689-0.54328 0.23989-0.23283 0.5715-0.36689 0.33161-0.13758 0.74083-0.13758 0.41628 0 0.74436 0.127 0.32808 0.127 0.55386 0.35631 0.2293 0.22931 0.34925 0.54681 0.12347 0.31397 0.12347 0.69497 0 0.50447-0.15169 0.90311-0.1517 0.39864-0.4057 0.75142l-1.1077 1.5734q-0.07408 0.10231-0.22578 0.17286-0.14817 0.07056-0.33867 0.07056h-1.0089zm0.56444-1.6228q0-0.18697-0.05644-0.32808-0.05292-0.14464-0.1517-0.23989-0.09525-0.09525-0.23283-0.14464-0.13758-0.049389-0.29986-0.049389-0.1658 0-0.29633 0.059972-0.127 0.056445-0.21873 0.15875-0.088194 0.10231-0.13758 0.24342-0.045861 0.13758-0.045861 0.29986 0 0.76906 0.71261 0.76906 0.34925 0 0.53622-0.20814 0.1905-0.21167 0.1905-0.56092z"/></g></g></svg>