<?xml version="1.0" encoding="UTF-8" standalone="no"?>
<!-- Created with Inkscape (http://www.inkscape.org/) -->

<svg
   width="75"
   height="75"
   viewBox="0 0 19.843749 19.84375"
   version="1.1"
   id="svg1"
   inkscape:version="1.3.1 (9b9bdc1480, 2023-11-25, custom)"
   sodipodi:docname="nov18.svg"
   xmlns:inkscape="http://www.inkscape.org/namespaces/inkscape"
   xmlns:sodipodi="http://sodipodi.sourceforge.net/DTD/sodipodi-0.dtd"
   xmlns="http://www.w3.org/2000/svg"
   xmlns:svg="http://www.w3.org/2000/svg">
  <sodipodi:namedview
     id="namedview1"
     pagecolor="#ffffff"
     bordercolor="#000000"
     borderopacity="0.25"
     inkscape:showpageshadow="2"
     inkscape:pageopacity="0.0"
     inkscape:pagecheckerboard="0"
     inkscape:deskcolor="#d1d1d1"
     inkscape:document-units="mm"
     inkscape:zoom="3.3638608"
     inkscape:cx="66.590151"
     inkscape:cy="74.170727"
     inkscape:window-width="1854"
     inkscape:window-height="1131"
     inkscape:window-x="66"
     inkscape:window-y="32"
     inkscape:window-maximized="1"
     inkscape:current-layer="layer1" />
  <defs
     id="defs1" />
  <g
     inkscape:label="Layer 1"
     inkscape:groupmode="layer"
     id="layer1">
    <rect
       style="fill:#ffffff;fill-opacity:1;stroke:#2c233d;stroke-width:0.529167;stroke-linecap:round;stroke-linejoin:round;stroke-dasharray:none;stroke-opacity:1"
       id="rect727-5-2-9-1-1-2-8"
       width="15.068812"
       height="13.99104"
       x="2.3038747"
       y="3.8071291"
       ry="1.4361818" />
    <g
       id="g2094-6-6-5-1-9-7-7"
       transform="matrix(1.0347143,0,0,1,-64.162531,-375.87975)">
      <rect
         style="fill:#2c233d;fill-opacity:1;stroke-width:0.955957;stroke-linecap:round;stroke-linejoin:round"
         id="rect727-3-2-1-0-5-6-0-9"
         width="15.068812"
         height="3.7274084"
         x="63.963314"
         y="378.96231"
         ry="1.8637042"
         rx="1.9672697" />
      <rect
         style="fill:#2c233d;fill-opacity:1;stroke-width:8.02166;stroke-linecap:round;stroke-linejoin:round"
         id="rect2090-9-8-4-9-9-93-2"
         width="15.068185"
         height="1.9848517"
         x="63.964188"
         y="380.72256"
         rx="0"
         ry="0" />
    </g>
    <rect
       style="fill:#ff8a4b;fill-opacity:1;stroke:none;stroke-width:0.644338;stroke-linecap:round;stroke-linejoin:round;stroke-dasharray:none;stroke-opacity:1"
       id="rect2148-1-7-8-7-3-6-0"
       width="1.3505394"
       height="3.7953029"
       x="5.4836388"
       y="1.565491"
       ry="0.59310055"
       rx="0.67526972" />
    <rect
       style="fill:#ff8a4b;fill-opacity:1;stroke:none;stroke-width:0.644338;stroke-linecap:round;stroke-linejoin:round;stroke-dasharray:none;stroke-opacity:1"
       id="rect2148-6-2-9-7-7-3-0-2"
       width="1.3505394"
       height="3.7953029"
       x="13.563656"
       y="1.5636599"
       ry="0.59310055"
       rx="0.67526972" />
    <path
       style="font-weight:900;font-size:7.05556px;line-height:1.15;font-family:Lato;-inkscape-font-specification:'Lato Heavy';text-align:center;text-anchor:middle;fill:#2c233d;stroke:#2c233d;stroke-width:0.529167;stroke-linecap:round;stroke-linejoin:round"
       d="m 9.5155084,12.040832 v 0.790223 H 6.5874509 V 12.040832 H 7.5752293 V 9.4479136 q 0,-0.098778 0.00353,-0.1975557 0.00353,-0.1023056 0.010583,-0.2046112 L 7.003729,9.5325803 q -0.077611,0.059972 -0.1552224,0.074083 -0.074083,0.010583 -0.1411112,0 Q 6.6403676,9.5925526 6.5874509,9.5608026 6.5345342,9.5255248 6.5098398,9.490247 L 6.1641173,9.0316356 7.7657295,7.6875514 h 0.9031117 v 4.3532806 z m 2.4306396,0.02117 q 0.183445,0 0.3175,-0.05645 0.134056,-0.05644 0.218723,-0.151694 0.08819,-0.09878 0.127,-0.229306 0.04233,-0.134056 0.04233,-0.28575 0,-0.165806 -0.03528,-0.303389 -0.03528,-0.137584 -0.116416,-0.232834 -0.08114,-0.09878 -0.218723,-0.151694 -0.134055,-0.05645 -0.335139,-0.05645 -0.201083,0 -0.338667,0.05645 -0.134055,0.05292 -0.215194,0.151694 -0.08114,0.09525 -0.116417,0.232834 -0.03528,0.137583 -0.03528,0.303389 0,0.151694 0.03881,0.28575 0.04233,0.130528 0.127,0.229306 0.08819,0.09525 0.218722,0.151694 0.134056,0.05645 0.321028,0.05645 z m 0,-3.630086 q -0.165806,0 -0.278695,0.052917 -0.112889,0.052917 -0.186972,0.1411112 -0.07055,0.084667 -0.102306,0.1975556 -0.03175,0.112889 -0.03175,0.2328335 0,0.1340557 0.02469,0.2610558 0.02469,0.127 0.09172,0.2257779 0.06703,0.098778 0.183445,0.1587501 0.116417,0.059972 0.299861,0.059972 0.183445,0 0.299861,-0.059972 0.116417,-0.059972 0.183445,-0.1587501 0.06703,-0.098778 0.09172,-0.2257779 0.02469,-0.1270001 0.02469,-0.2610558 0,-0.1199445 -0.03175,-0.2328335 Q 12.482371,8.7106076 12.408287,8.6259409 12.337732,8.5377464 12.221315,8.4848297 12.108426,8.431913 11.946148,8.431913 Z m 0.97014,1.718029 q 0.229305,0.08114 0.391583,0.201083 0.165806,0.119945 0.268111,0.275167 0.105834,0.155222 0.155223,0.342195 0.04939,0.183444 0.04939,0.391583 0,0.345723 -0.134056,0.627945 -0.130528,0.282223 -0.373945,0.483306 -0.239889,0.197556 -0.578556,0.306917 -0.338666,0.109361 -0.747889,0.109361 -0.409222,0 -0.747889,-0.109361 -0.338667,-0.109361 -0.582084,-0.306917 -0.239889,-0.201083 -0.373945,-0.483306 -0.130528,-0.282222 -0.130528,-0.627945 0,-0.208139 0.04939,-0.391583 0.04939,-0.186973 0.151695,-0.342195 0.105833,-0.155222 0.268111,-0.275167 0.165806,-0.119944 0.395112,-0.201083 -0.349251,-0.1587503 -0.522112,-0.4374449 -0.172861,-0.2822224 -0.172861,-0.6773338 0,-0.2998613 0.123472,-0.5538614 0.123473,-0.257528 0.345723,-0.4445003 0.22225,-0.1869724 0.525639,-0.2928058 0.306917,-0.1093611 0.670278,-0.1093611 0.363361,0 0.666751,0.1093611 0.306916,0.1058334 0.529167,0.2928058 0.22225,0.1869723 0.345722,0.4445003 0.123472,0.2540001 0.123472,0.5538614 0,0.3951114 -0.172861,0.6773338 -0.172861,0.2786946 -0.522111,0.4374449 z"
       id="text4218-7-2-17-6-8-6-3"
       aria-label="18" />
    <path
       style="font-weight:900;font-size:2.82223px;line-height:1.15;font-family:Lato;-inkscape-font-specification:'Lato Heavy';text-align:center;text-anchor:middle;fill:#2c233d;stroke-width:0.529167;stroke-linecap:round;stroke-linejoin:round"
       d="m 8.6391442,14.821996 v 2.055995 H 8.3907879 q -0.055033,0 -0.093134,-0.01693 -0.036689,-0.01834 -0.073378,-0.06209 L 7.2548403,15.572709 q 0.00564,0.05503 0.00706,0.107245 0.00282,0.0508 0.00282,0.09596 v 1.102081 H 6.8442058 v -2.055995 h 0.2511785 q 0.031045,0 0.052211,0.0028 0.021167,0.0028 0.0381,0.01129 0.016933,0.0071 0.032456,0.02117 0.015522,0.01411 0.035278,0.0381 L 8.2313319,16.1301 q -0.00706,-0.05927 -0.00988,-0.114301 -0.00282,-0.05644 -0.00282,-0.105833 v -1.08797 z m 2.4158248,1.027292 q 0,0.222956 -0.07761,0.414868 -0.0762,0.191911 -0.215901,0.334434 -0.1397,0.141111 -0.337256,0.221545 -0.196145,0.08043 -0.4360349,0.08043 -0.2398896,0 -0.4374457,-0.08043 -0.1975561,-0.08043 -0.3386676,-0.221545 -0.1397004,-0.142523 -0.2173117,-0.334434 -0.0762,-0.191912 -0.0762,-0.414868 0,-0.222956 0.0762,-0.414868 0.077611,-0.191912 0.2173117,-0.333023 0.1411115,-0.141112 0.3386676,-0.221545 0.1975561,-0.08043 0.4374457,-0.08043 0.2398899,0 0.4360349,0.08185 0.197556,0.08043 0.337256,0.221545 0.139701,0.141111 0.215901,0.333023 0.07761,0.191912 0.07761,0.413457 z m -0.488246,0 q 0,-0.152401 -0.03951,-0.273756 -0.03951,-0.122767 -0.1143,-0.207434 -0.07338,-0.08467 -0.180623,-0.129823 -0.107245,-0.04516 -0.2441229,-0.04516 -0.1382893,0 -0.2469451,0.04516 -0.1072448,0.04516 -0.1820339,0.129823 -0.073378,0.08467 -0.1128892,0.207434 -0.039511,0.121355 -0.039511,0.273756 0,0.153811 0.039511,0.276578 0.039511,0.121356 0.1128892,0.206023 0.074789,0.08467 0.1820339,0.129823 0.1086558,0.04374 0.2469451,0.04374 0.1368779,0 0.2441229,-0.04374 0.107245,-0.04516 0.180623,-0.129823 0.07479,-0.08467 0.1143,-0.206023 0.03951,-0.122767 0.03951,-0.276578 z m 2.538591,-1.027292 -0.824091,2.055995 h -0.431801 l -0.824091,-2.055995 h 0.383823 q 0.06209,0 0.100189,0.02963 0.0381,0.02822 0.05786,0.07338 l 0.397934,1.10067 q 0.02822,0.07197 0.05503,0.158045 0.02681,0.08467 0.0508,0.177801 0.01975,-0.09313 0.04374,-0.177801 0.0254,-0.08608 0.05362,-0.158045 l 0.395112,-1.10067 q 0.01552,-0.03951 0.05503,-0.07056 0.04092,-0.03246 0.10019,-0.03246 z"
       id="text4272-9-2-2-3-5-6-5"
       aria-label="NOV" />
  </g>
</svg>
