<?xml version="1.0" encoding="UTF-8" standalone="no"?>
<svg
   xmlns:dc="http://purl.org/dc/elements/1.1/"
   xmlns:cc="http://creativecommons.org/ns#"
   xmlns:rdf="http://www.w3.org/1999/02/22-rdf-syntax-ns#"
   xmlns:svg="http://www.w3.org/2000/svg"
   xmlns="http://www.w3.org/2000/svg"
   xmlns:sodipodi="http://sodipodi.sourceforge.net/DTD/sodipodi-0.dtd"
   xmlns:inkscape="http://www.inkscape.org/namespaces/inkscape"
   viewBox="0 0 765 197.0125"
   height="197.0125"
   width="765"
   xml:space="preserve"
   version="1.1"
   id="svg2"
   inkscape:version="0.91 r13725"
   sodipodi:docname="logo-pivotal.svg"><defs
     id="defs52"><filter
       style="color-interpolation-filters:sRGB;"
       inkscape:label="Greyscale"
       id="filter4188"><feColorMatrix
         values="0.21 0.72 0.072 0 0 0.21 0.72 0.072 0 0 0.21 0.72 0.072 0 0 0 0 0 1 0 "
         id="feColorMatrix4190" /></filter></defs><sodipodi:namedview
     pagecolor="#ffffff"
     bordercolor="#666666"
     borderopacity="1"
     objecttolerance="10"
     gridtolerance="10"
     guidetolerance="10"
     inkscape:pageopacity="0"
     inkscape:pageshadow="2"
     inkscape:window-width="1352"
     inkscape:window-height="530"
     id="namedview50"
     showgrid="false"
     inkscape:zoom="0.47973856"
     inkscape:cx="382.5"
     inkscape:cy="98.506248"
     inkscape:window-x="0"
     inkscape:window-y="0"
     inkscape:window-maximized="0"
     inkscape:current-layer="svg2" /><metadata
     id="metadata4"><rdf:RDF><cc:Work
         rdf:about=""><dc:format>
          image/svg+xml
        </dc:format><dc:type
           rdf:resource="http://purl.org/dc/dcmitype/StillImage" /></cc:Work></rdf:RDF></metadata><g
     transform="matrix(1.25,0,0,-1.25,0,197.0125)"
     id="g6"
     style="filter:url(#filter4188)"><g
       transform="scale(0.1,0.1)"
       id="g8"><path
         d="m2061.31 1368.99c-5.97 0-68.01 0-68.01 0l0-214.54 66.52 1.5c88.19 1.49 136.04 36.63 136.04 109.13 0 66.52-47.09 103.91-134.55 103.91zm-4.5-257.89-63.53-0.74 0-164.434-47.85 0 0 467.164c0 0 111.37 0 117.35 0 123.34 0 182.38-59.79 182.38-145.76 0.02-102.42-72.49-154.74-188.35-156.23"
         fill="#3d3c3f"
         id="path10" /><path
         d="m2328.14 945.906 0 342.344 46.36 9.72 0-352.064-46.36 0zm23.19 420.834c-20.92 0-31.4 16.45-31.4 34.39 0 17.17 10.46 32.89 31.4 32.89 20.94 0 31.4-15.72 31.4-32.89-0.02-17.94-10.48-34.39-31.4-34.39"
         fill="#3d3c3f"
         id="path12" /><path
         d="m2609.2 945.168-41.86 0-135.29 343.082 50.07 0 108.38-282.55 104.65 282.55 48.58 0-134.53-343.082"
         fill="#3d3c3f"
         id="path14" /><path
         d="m2941.08 1256.11c-72.51 0-120.33-57.55-120.33-138.29 0-83.72 48.58-139.777 121.08-139.777 72.51 0 120.34 57.547 120.34 138.287 0 83.72-48.59 139.78-121.09 139.78zm-1.49-319.911c-94.94 0-165.2 70.261-165.2 180.151 0 109.13 73.26 181.64 168.94 181.64 95.67 0 164.44-70.26 164.44-180.15 0-109.15-73.26-181.641-168.18-181.641"
         fill="#3d3c3f"
         id="path16" /><path
         d="m3287.9 934.707c-65.03 0-94.18 35.879-91.94 107.633l5.23 202.56-52.32 2.98 2.23 29.16 51.57 11.95 2.24 77.73 44.09 0-2.24-79.98 114.38 0-2.25-41.11-113.63 0-5.23-204.81c-1.49-43.347 14.2-64.285 50.1-64.285 22.41 0 44.84 7.477 65.76 16.445l8.23-40.371c-23.9-11.179-51.56-17.902-76.22-17.902"
         fill="#3d3c3f"
         id="path18" /><path
         d="m3618.27 1121.56c-117.37-13.46-159.21-39.61-159.21-85.21 0-36.612 29.89-59.799 70.26-59.799 36.63 0 68.03 20.922 88.95 44.839l0 100.17zm0.74-134.529c-23.17-28.398-59.78-50.832-100.15-50.832-62.78 0-108.4 40.371-108.4 94.941 0 62.04 48.6 112.87 207.81 121.84 0 0 0 17.94 0 20.18 0 53.82-23.92 81.48-80.74 81.48-37.38 0-82.98-19.43-112.12-41.11l-10.47 43.36c30.64 21.67 82.23 41.1 127.07 41.1 79.23 0 123.32-35.88 122.58-122.58 0-2.23 0-164.44 0-164.44 0-24.661 4.48-35.122 34.38-34.384l-3-38.121c-44.84-2.985-69.52 14.953-74.75 48.582l-2.21 0 0-0.016"
         fill="#3d3c3f"
         id="path20" /><path
         d="m3767.76 945.906 0 503.804 46.33 9.72 0-513.504-46.33 0 0-0.02"
         fill="#3d3c3f"
         id="path22" /><path
         d="m2127.09 208.738-92.69 0-128.56 467.172 97.16 0 81.48-355.789 97.18 355.789 104.64 0 98.68-355.789 80.73 355.789 92.69 0-128.56-467.172-94.18 0-103.15 361.043-105.42-361.043"
         fill="#3d3c3f"
         id="path24" /><path
         d="m2804.28 416.551c0 1.488 0 5.23 0 5.988 0 46.332-20.18 75.492-65.78 75.492-48.58 0-77.74-39.621-82.23-82.23l148.01 0.75zM2654.04 361.98c3.74-56.058 41.86-94.179 103.15-94.179 36.63 0 76.25 11.969 107.65 31.398l11.21-73.258c-32.89-17.921-78.49-28.402-124.83-28.402-110.62 0-183.88 70.262-183.88 180.152 0 112.118 74.75 186.86 177.9 186.86 91.2 0 142.03-55.313 142.03-139.781 0-18.68-2.99-42.598-7.48-57.559-0.74 0-225.73-2.981-225.73-2.981l0-2.25-0.02 0"
         fill="#3d3c3f"
         id="path26" /><path
         d="m3119.7 490.551c-29.15 0-51.56-11.219-70.99-28.403 0 2.25 0-174.156 0-174.156 16.44-12.73 38.85-19.433 65.02-19.433 59.05 0 92.69 47.839 92.69 112.121-0.01 67.25-32.15 109.871-86.72 109.871zm2.25-292.25c-22.43 0-54.57 4.469-76.98 11.949l-84.46-12.711 0 510.527 88.2 11.969c0 0 0-195.844 0-199.574 23.16 22.43 54.56 44.098 96.42 44.098 91.2 0 150.98-73.989 150.98-180.149-0.02-109.89-76.24-186.109-174.16-186.109"
         fill="#3d3c3f"
         id="path28" /><path
         d="m3772.23 336.57c0 38.879-35.13 53.071-103.9 71.77-67.28 18.672-145.01 48.601-145.01 140.531 0 82.969 63.53 138.274 167.42 138.274 63.54 0 115.88-15.711 160.7-41.106l-22.41-77c-41.11 24.66-93.43 40.367-137.53 40.367-54.55 0-78.49-23.168-78.49-55.304 0-38.122 41.86-53.063 106.15-70.262 70.26-19.43 142.76-51.578 142.76-140.531 0-85.207-68.01-145.77-177.9-145.77-62.05 0-124.07 16.473-168.18 43.359l20.92 78.493c43.35-26.161 92.67-44.852 148.75-44.852 50.85-0.019 86.72 24.66 86.72 62.031"
         fill="#3d3c3f"
         id="path30" /><path
         d="m4155.68 416.551c0 1.488 0 5.23 0 5.988 0 46.332-20.16 75.492-65.76 75.492-48.6 0-77.76-39.621-82.23-82.23l147.99 0.75zM4005.44 361.98c3.74-56.058 41.86-94.179 103.15-94.179 36.63 0 76.25 11.969 107.64 31.398l11.22-73.258c-32.89-17.921-78.49-28.402-124.83-28.402-110.62 0-183.88 70.262-183.88 180.152 0 112.118 74.75 186.86 177.9 186.86 91.2 0 142.03-55.313 142.03-139.781 0-18.68-2.99-42.598-7.48-57.559-0.76 0-225.73-2.981-225.73-2.981l0-2.25-0.02 0"
         fill="#3d3c3f"
         id="path32" /><path
         d="m4400.11 208.738-88.2 0 0 342.344 88.2 12.727 0-56.059c21.67 36.629 49.33 56.801 89.68 56.801 20.93 0 42.62-4.481 61.29-15.699l-19.43-79.243c-16.44 8.973-32.89 13.461-49.33 13.461-30.65 0-59.05-19.429-82.23-61.289l0-213.043 0.02 0"
         fill="#3d3c3f"
         id="path34" /><path
         d="m4787.28 208-94.19 0-131.55 345.332 94.17 0 86.7-251.902 82.99 251.902 94.92 0L4787.28 208"
         fill="#3d3c3f"
         id="path36" /><path
         d="m4966.65 208.738 0 342.344 88.2 12.727 0-355.047-88.2 0 0-0.024zm44.11 407.375c-34.38 0-53.81 20.922-53.81 53.075 0 31.382 19.43 53.058 53.81 53.058 35.14 0 54.57-21.676 54.57-53.058 0-32.137-19.43-53.075-54.57-53.075"
         fill="#3d3c3f"
         id="path38" /><path
         d="m5307.5 197.539c-112.13 0-178.65 69.52-178.65 182.402 0 112.118 73.26 184.618 181.64 184.618 47.11 0 87.46-10.457 118.84-29.129l-18.68-71.02c-28.39 17.922-61.29 27.649-93.42 27.649-63.54 0-97.92-43.348-97.92-109.868 0-70.281 39.61-111.39 97.92-111.39 35.87 0 68.76 9.73 95.67 26.91l14.2-71.77C5397.19 208 5353.86 197.539 5307.5 197.539"
         fill="#3d3c3f"
         id="path40" /><path
         d="m5713.36 416.551c0 1.488 0 5.23 0 5.988 0 46.332-20.16 75.492-65.76 75.492-48.6 0-77.75-39.621-82.23-82.23l147.99 0.75zM5563.12 361.98c3.74-56.058 41.86-94.179 103.15-94.179 36.63 0 76.25 11.969 107.65 31.398l11.21-73.258c-32.89-17.921-78.49-28.402-124.82-28.402-110.63 0-183.89 70.262-183.89 180.152 0 112.118 74.75 186.86 177.9 186.86 91.2 0 142.03-55.313 142.03-139.781 0-18.68-2.98-42.598-7.48-57.559-0.75 0-225.73-2.981-225.73-2.981l0-2.25-0.02 0"
         fill="#3d3c3f"
         id="path42" /><path
         d="m5976.46 196.809c-44.84 0-99.41 12.703-133.79 32.132l19.43 68.77c34.38-19.43 78.49-32.141 116.61-32.141 34.38 0 56.8 14.2 56.8 38.121 0 26.911-29.14 36.629-69.51 46.34-65.03 14.969-116.61 41.879-116.61 106.91 0 65.028 54.55 107.618 137.53 107.618 42.62 0 93.43-11.207 125.57-27.637l-19.43-68.774c-33.63 17.192-77.74 28.403-108.38 28.403-32.14 0-51.57-11.969-51.57-34.379 0-26.152 29.16-35.141 69.52-44.863 65.77-15.707 117.35-41.11 117.35-108.379 0-64.301-55.3-112.121-143.52-112.121"
         fill="#3d3c3f"
         id="path44" /><path
         d="m788.066 1576.13c435.234 0 788.064-352.83 788.064-788.064C1576.13 352.832 1223.3 0 788.066 0 352.828 0 0 352.832 0 788.066 0 1223.3 352.828 1576.13 788.066 1576.13"
         fill="#2a786f"
         id="path46" /><path
         d="m1025.43 599.086c-70.625 0-130.512 78.789-178.602 142.117l-13.109 17.184C778.957 829.594 713.84 904.75 623.57 924.25c18.832 81.05 91.496 141.69 178.203 141.69 88.055 0 161.774-62.5 179.165-145.467-39.137-10.95-71.485-32.68-99.094-54.653l61.902-77.773c39.547 31.473 67.104 42.703 98.304 40.035 56.54-4.824 104.28-56.848 104.28-113.609 0-63.645-54.24-115.387-120.9-115.387zm55.8 322.703c-19.08 137.341-136.972 243.531-279.476 243.531-142.445 0-260.289-106.1-279.453-243.355-94.5-24.168-164.512-107.906-164.512-207.512 0-108.785 87.899-204.402 195.965-213.121 74.293-6.113 129.738 30.359 174.09 66.758l-63.008 76.859c-36.262-29.695-66.344-47.386-103.117-44.547-56.672 4.582-104.555 56.801-104.555 114.051 0 63.61 54.234 115.367 120.895 115.367 69.472 0 127.707-68.152 176.851-132.039l12.742-16.711c58.149-76.523 137.817-181.379 257.758-181.379 121.48 0 220.29 96.344 220.29 214.762 0.02 97.535-71.41 184.52-164.47 207.336"
         fill="#fff"
         id="path48" /></g></g></svg>