<svg xmlns="http://www.w3.org/2000/svg" viewBox="0 0 765 197.0125" height="197.012" width="765"><defs><filter id="a" color-interpolation-filters="sRGB"><feColorMatrix values="0.21 0.72 0.072 0 0 0.21 0.72 0.072 0 0 0.21 0.72 0.072 0 0 0 0 0 1 0"/></filter></defs><g transform="matrix(1.25 0 0 -1.25 0 197.012)" filter="url(#a)"><path d="M206.131 136.899h-6.801v-21.454l6.652.15c8.819.149 13.604 3.663 13.604 10.913 0 6.652-4.709 10.391-13.455 10.391zm-.45-25.789l-6.353-.074V94.593h-4.785v46.716h11.735c12.334 0 18.238-5.979 18.238-14.576.002-10.242-7.249-15.474-18.835-15.623m27.133-16.52v34.235l4.636.972V94.591h-4.636zm2.319 42.084c-2.092 0-3.14 1.645-3.14 3.439 0 1.717 1.046 3.289 3.14 3.289 2.094 0 3.14-1.572 3.14-3.289-.002-1.794-1.048-3.439-3.14-3.439m25.787-42.157h-4.186l-13.529 34.308h5.007l10.838-28.255 10.465 28.255h4.858L260.92 94.517m33.188 31.094c-7.251 0-12.033-5.755-12.033-13.829 0-8.372 4.858-13.978 12.108-13.978 7.251 0 12.034 5.755 12.034 13.829 0 8.372-4.859 13.978-12.109 13.978zm-.149-31.991c-9.494 0-16.52 7.026-16.52 18.015 0 10.913 7.326 18.164 16.894 18.164 9.567 0 16.444-7.026 16.444-18.015 0-10.915-7.326-18.164-16.818-18.164m34.831-.15c-6.503 0-9.418 3.589-9.194 10.764l.523 20.256-5.232.298.223 2.916 5.157 1.195.224 7.773h4.409l-.224-7.998h11.438l-.225-4.111h-11.363l-.523-20.481c-.149-4.335 1.42-6.428 5.01-6.428 2.241 0 4.484.747 6.576 1.644l.823-4.037c-2.39-1.118-5.156-1.79-7.622-1.79m33.037 18.685c-11.737-1.346-15.921-3.961-15.921-8.521 0-3.661 2.989-5.98 7.026-5.98 3.663 0 6.803 2.092 8.895 4.484v10.017zm.074-13.453c-2.317-2.84-5.978-5.083-10.015-5.083-6.278 0-10.84 4.037-10.84 9.494 0 6.204 4.86 11.287 20.781 12.184v2.018c0 5.382-2.392 8.148-8.074 8.148-3.738 0-8.298-1.943-11.212-4.111l-1.047 4.336c3.064 2.167 8.223 4.11 12.707 4.11 7.923 0 12.332-3.588 12.258-12.258v-16.444c0-2.466.448-3.512 3.438-3.438l-.3-3.812c-4.484-.299-6.952 1.495-7.475 4.858h-.221v-.002m14.875-4.113v50.381l4.633.972v-51.35h-4.633v-.002M212.709 20.874h-9.269L190.584 67.59h9.716l8.148-35.579 9.718 35.579h10.464l9.868-35.579 8.073 35.579h9.269l-12.856-46.717h-9.418l-10.315 36.104-10.542-36.104m67.719 20.782v.599c0 4.633-2.018 7.55-6.578 7.55-4.858 0-7.774-3.963-8.223-8.224l14.801.075zm-15.024-5.457c.374-5.606 4.186-9.418 10.315-9.418 3.663 0 7.625 1.197 10.765 3.14l1.121-7.326c-3.289-1.792-7.849-2.84-12.483-2.84-11.062 0-18.388 7.026-18.388 18.015 0 11.212 7.475 18.686 17.79 18.686 9.12 0 14.203-5.531 14.203-13.978 0-1.868-.299-4.26-.748-5.756l-22.573-.298v-.225h-.002m46.566 12.857c-2.915 0-5.156-1.122-7.099-2.84V28.799c1.644-1.273 3.885-1.943 6.502-1.943 5.905 0 9.269 4.784 9.269 11.212-.001 6.725-3.215 10.987-8.672 10.987zm.225-29.225c-2.243 0-5.457.447-7.698 1.195l-8.446-1.271v51.053l8.82 1.197V52.046c2.316 2.243 5.456 4.41 9.642 4.41 9.12 0 15.098-7.399 15.098-18.015-.002-10.989-7.624-18.61-17.416-18.61m65.028 13.826c0 3.888-3.513 5.307-10.39 7.177-6.728 1.867-14.501 4.86-14.501 14.053 0 8.297 6.353 13.828 16.742 13.828 6.354 0 11.588-1.572 16.07-4.111l-2.241-7.7c-4.111 2.466-9.343 4.037-13.753 4.037-5.455 0-7.849-2.317-7.849-5.53 0-3.813 4.186-5.307 10.615-7.027 7.026-1.943 14.276-5.158 14.276-14.053 0-8.52-6.801-14.577-17.79-14.577-6.205 0-12.407 1.647-16.818 4.336l2.092 7.85c4.335-2.617 9.267-4.486 14.875-4.486 5.085-.002 8.672 2.466 8.672 6.203m38.345 7.998v.599c0 4.633-2.016 7.55-6.576 7.55-4.86 0-7.776-3.963-8.223-8.224l14.799.075zm-15.024-5.457c.374-5.606 4.186-9.418 10.315-9.418 3.663 0 7.625 1.197 10.764 3.14l1.122-7.326c-3.289-1.792-7.849-2.84-12.483-2.84-11.062 0-18.388 7.026-18.388 18.015 0 11.212 7.475 18.686 17.79 18.686 9.12 0 14.203-5.531 14.203-13.978 0-1.868-.299-4.26-.748-5.756-.076 0-22.573-.298-22.573-.298v-.225h-.002m39.467-15.324h-8.82v34.234l8.82 1.273v-5.606c2.167 3.663 4.933 5.68 8.968 5.68 2.093 0 4.262-.448 6.129-1.57l-1.943-7.924c-1.644.897-3.289 1.346-4.933 1.346-3.065 0-5.905-1.943-8.223-6.129V20.874h.002m38.717-.074h-9.419l-13.155 34.533h9.417l8.67-25.19 8.299 25.19h9.492L478.728 20.8m17.937.074v34.234l8.82 1.273V20.876h-8.82v-.002zm4.411 40.737c-3.438 0-5.381 2.093-5.381 5.308 0 3.138 1.943 5.306 5.381 5.306 3.514 0 5.457-2.168 5.457-5.306 0-3.214-1.943-5.308-5.457-5.308m29.674-41.857c-11.213 0-17.865 6.952-17.865 18.24 0 11.212 7.326 18.462 18.164 18.462 4.711 0 8.746-1.046 11.884-2.913l-1.868-7.102c-2.839 1.792-6.129 2.765-9.342 2.765-6.354 0-9.792-4.335-9.792-10.987 0-7.028 3.961-11.139 9.792-11.139 3.587 0 6.876.973 9.567 2.691l1.42-7.177c-2.991-1.794-7.324-2.84-11.96-2.84m40.586 21.901v.599c0 4.633-2.016 7.55-6.576 7.55-4.86 0-7.775-3.963-8.223-8.224l14.799.075zm-15.024-5.457c.374-5.606 4.186-9.418 10.315-9.418 3.663 0 7.625 1.197 10.765 3.14l1.121-7.326c-3.289-1.792-7.849-2.84-12.482-2.84-11.063 0-18.389 7.026-18.389 18.015 0 11.212 7.475 18.686 17.79 18.686 9.12 0 14.203-5.531 14.203-13.978 0-1.868-.298-4.26-.748-5.756l-22.573-.298v-.225h-.002m41.334-16.518c-4.484 0-9.941 1.271-13.379 3.214l1.943 6.877c3.438-1.943 7.849-3.214 11.661-3.214 3.438 0 5.68 1.42 5.68 3.812 0 2.691-2.914 3.663-6.951 4.634-6.503 1.497-11.661 4.188-11.661 10.691 0 6.503 5.455 10.762 13.753 10.762 4.262 0 9.343-1.12 12.557-2.764l-1.943-6.877c-3.363 1.719-7.774 2.84-10.838 2.84-3.214 0-5.157-1.197-5.157-3.438 0-2.615 2.916-3.514 6.952-4.486 6.577-1.57 11.735-4.111 11.735-10.838 0-6.43-5.53-11.212-14.352-11.212" fill="#3d3c3f"/><path d="M78.807 157.613c43.523 0 78.806-35.283 78.806-78.806C157.613 35.283 122.33 0 78.807 0 35.283 0 0 35.283 0 78.807c0 43.523 35.283 78.806 78.807 78.806" fill="#2a786f"/><path d="M102.543 59.909c-7.063 0-13.051 7.879-17.86 14.211l-1.311 1.719c-5.476 7.12-11.988 14.636-21.015 16.586 1.883 8.105 9.15 14.169 17.82 14.169 8.806 0 16.178-6.25 17.917-14.547-3.914-1.095-7.149-3.268-9.91-5.465l6.19-7.777c3.955 3.147 6.711 4.27 9.831 4.003 5.654-.482 10.428-5.685 10.428-11.36 0-6.365-5.424-11.54-12.09-11.54zm5.58 32.27c-1.908 13.734-13.697 24.353-27.948 24.353-14.244 0-26.029-10.61-27.945-24.335-9.45-2.417-16.45-10.791-16.45-20.752 0-10.878 8.79-20.44 19.596-21.312 7.43-.611 12.974 3.036 17.41 6.676l-6.301 7.686c-3.627-2.97-6.635-4.739-10.312-4.455-5.667.458-10.456 5.68-10.456 11.405 0 6.361 5.424 11.537 12.09 11.537 6.947 0 12.77-6.815 17.685-13.204l1.274-1.671c5.815-7.652 13.782-18.138 25.776-18.138 12.148 0 22.029 9.634 22.029 21.476.002 9.754-7.141 18.452-16.447 20.734" fill="#fff"/></g></svg>