<svg xmlns="http://www.w3.org/2000/svg" width="580" height="120" viewBox="0 0 580 120"><path d="M322.41 99.656H298l-12.373-18.378 12.167-18.188z" fill="#ff8d4e"/><path d="M322.31 19.97H297.9l-12.088 16.42 12.263 16.78z" fill="#92929a"/><path d="M294.425 58.234l-27.97-38.142h-24.41l27.872 38.142-27.97 41.544h24.41zm-145.708-8.83l32.468-29.626h9.474V99.7h-21.082V58.675l-20.86 19.075-20.975-18.97V99.7h-21.077V19.78h9.475zm57.34-29.627h20.972V99.7h-20.973z" fill="#fff"/><path d="M337.91 19.777h20.97V99.7h-20.97zm33.925.001h62.832v20.86H413.51V99.7h-20.944V40.638h-20.73z" fill="#ff8d4e"/><path d="M73.27 78.58l-3.966 22.385h-8.16q-1.19 0-2.266-.567-1.02-.567-1.757-1.53-.68-.963-.962-2.21-.284-1.247 0-2.663l2.72-15.414h-9.35L46.75 94.846q-.282 1.643-1.076 2.833-.736 1.133-1.813 1.87-1.02.737-2.322 1.077-1.247.34-2.607.34h-7.82L35.08 78.58h-4.99q-2.662 0-3.796-1.53-1.133-1.585-.51-5.325l.907-5.44h10.03L39.1 52.91H27.825l1.36-7.14q.51-2.605 2.21-3.852 1.757-1.247 5.497-1.247h3.854L43.69 24.07q.51-2.663 2.55-4.137 2.098-1.53 4.818-1.53h8.046l-3.966 22.27h9.406L68.51 18.4h7.82q1.36 0 2.438.455 1.133.453 1.87 1.246.793.738 1.133 1.815.34 1.02.114 2.266l-2.946 16.49H89.93l-1.36 7.14q-.51 2.665-2.266 3.91-1.7 1.19-5.44 1.19h-3.57l-2.38 13.375h6.177q2.664 0 3.798 1.586 1.133 1.53.51 5.27l-.907 5.44zM51.115 66.286h9.407L62.9 52.91h-9.406z" style="--font-specification:'Lato Heavy'" font-weight="900" font-size="85" font-family="Lato" fill="#ff8a4b" letter-spacing="0" word-spacing="0"/><g aria-label="19" style="line-height:1.25" font-weight="900" font-size="106.369" stroke-width="2.231" font-family="Lato" letter-spacing="0" word-spacing="0" fill="#fff"><path d="M451.685 86.591h14.627V46.793q0-2.923.157-6.118l-8.62 7.418q-1.15.92-2.299 1.137-1.097.163-2.09 0-.992-.217-1.775-.704-.784-.541-1.15-1.083l-5.12-7.039 23.718-20.63h13.373v66.817h12.538v12.13h-43.36zM533.187 68.831q.732-.92 1.358-1.733.68-.866 1.306-1.732-2.35 1.3-5.12 1.95-2.768.649-5.798.649-3.709 0-7.418-1.354-3.709-1.408-6.739-4.223-2.977-2.816-4.858-7.094-1.88-4.277-1.88-10.125 0-5.36 1.88-10.125 1.933-4.765 5.433-8.339 3.552-3.574 8.463-5.631 4.91-2.112 10.97-2.112 6.164 0 11.023 1.95 4.858 1.949 8.201 5.468 3.396 3.52 5.172 8.393 1.829 4.819 1.829 10.667 0 7.743-2.247 13.861-2.246 6.119-6.007 11.534L532.35 94.984q-1.097 1.57-3.343 2.653-2.194 1.083-5.015 1.083h-14.94zm8.359-24.907q0-2.87-.836-5.036-.784-2.22-2.247-3.682-1.41-1.462-3.447-2.22-2.038-.758-4.44-.758-2.456 0-4.389.92-1.88.867-3.239 2.437-1.306 1.57-2.037 3.736-.68 2.112-.68 4.603 0 11.804 10.553 11.804 5.172 0 7.94-3.195 2.822-3.249 2.822-8.61z" style="-inkscape-font-specification:'Lato Heavy'"/></g></svg>