<svg xmlns="http://www.w3.org/2000/svg" id="svg142" width="100" height="100" version="1.1" viewBox="0 0 26.458 26.458" xml:space="preserve"><path style="fill:none;stroke:#fff;stroke-width:1.01647;stroke-linecap:butt;stroke-linejoin:miter;stroke-dasharray:none;stroke-opacity:1" id="path381" d="M 2.2054649,9.065143 C 1.8064626,8.9958068 1.576428,9.2841961 1.3943338,9.6740795 L 1.354994,12.169922 C 2.5627192,12.48759 2.9968268,13.185068 3.1996471,14.32076 2.8175537,15.54703 2.2391231,16.280247 1.3686,16.419631 l -0.012961,2.236423 c 0.1712377,0.349309 0.2589394,0.765991 0.7630968,0.846798 l 13.8932352,-0.12441 c 0.300112,0.06833 0.517859,-0.151114 0.691967,-0.523031 l -0.04333,-2.49546 c -1.343624,-0.298466 -1.649862,-1.107285 -1.739471,-2.022679 0.07478,-1.343951 0.898484,-1.738513 1.816328,-2.013732 l 5.5e-4,-2.4221342 C 16.735463,9.5947024 16.329576,9.1822261 15.983738,9.0718881 Z"/><path style="fill:none;stroke:#fff;stroke-width:1.01647;stroke-linecap:butt;stroke-linejoin:miter;stroke-dasharray:none;stroke-opacity:1" id="path381-3" d="m 9.666086,9.0607949 c -0.4038271,0.025649 1.738485,-0.1444863 1.646107,0.2778725 l -0.0305,10.0393136 4.582503,0.06119 c 0.578501,-0.108394 1.244098,-0.417263 1.012711,-1.479326 l 7.897821,-2.025004 c 0.307268,-0.0035 0.471546,-0.26818 0.560062,-0.671172 L 24.748414,12.842708 C 23.374374,12.865797 22.899667,12.14938 22.61276,11.278536 22.39255,9.9517919 23.108964,9.3750025 23.943114,8.8924874 L 23.41548,6.5327173 C 23.346119,6.2345226 22.86076,5.9274987 22.499784,5.9007912 Z"/><path style="fill:none;stroke:#fff;stroke-width:1.01647;stroke-linecap:butt;stroke-linejoin:miter;stroke-dasharray:none;stroke-opacity:1" id="path1033" d="m 11.260508,9.3436781 -0.04395,9.9745299"/></svg>