<svg xmlns="http://www.w3.org/2000/svg" width="48" height="48"><path fill="#fff" d="M10.29 11.239c1.264 0 2.288 1.138 2.288 2.542s-1.024 2.542-2.287 2.542c-1.264 0-2.287-1.138-2.287-2.542s1.023-2.542 2.287-2.542m0 10.894c3.24 0 6.708 2.653 6.667 3.433l-2.721.463-10.59-.023v-1.331c0-.78 3.403-2.542 6.644-2.542m0-13.194c-2.407 0-4.357 2.167-4.357 4.842 0 2.669 1.95 4.842 4.357 4.842s4.357-2.173 4.357-4.842c0-2.675-1.95-4.842-4.357-4.842zm0 10.894c-2.903 0-8.714 1.616-8.714 4.842v3.631h17.428v-3.631c0-3.226-5.811-4.842-8.714-4.842zM24.507 22.751c1.263 0 2.287 1.138 2.287 2.542s-1.024 2.542-2.287 2.542c-1.264 0-2.288-1.138-2.288-2.542s1.024-2.542 2.288-2.542m0 10.895c3.24 0 6.708 2.653 6.667 3.433l-2.721.462-10.59-.022v-1.331c0-.781 3.403-2.542 6.644-2.542m0-13.195c-2.407 0-4.357 2.167-4.357 4.842 0 2.67 1.95 4.842 4.357 4.842s4.357-2.173 4.357-4.842c0-2.675-1.95-4.842-4.357-4.842zm0 10.895c-2.903 0-8.714 1.616-8.714 4.842v3.63H33.22v-3.63c0-3.226-5.811-4.842-8.714-4.842zM38.453 11.377c1.263 0 2.287 1.138 2.287 2.542s-1.024 2.542-2.287 2.542c-1.264 0-2.287-1.138-2.287-2.542s1.023-2.542 2.287-2.542m0 10.894c3.24 0 6.708 2.654 6.667 3.434l-2.721.462-10.59-.022v-1.332c0-.78 3.403-2.542 6.644-2.542m0-13.194c-2.407 0-4.357 2.167-4.357 4.842 0 2.67 1.95 4.842 4.357 4.842s4.357-2.173 4.357-4.842c0-2.675-1.95-4.842-4.357-4.842zm0 10.895c-2.903 0-8.714 1.616-8.714 4.841v3.632h17.428v-3.632c0-3.225-5.811-4.841-8.714-4.841z" style="fill:#212529;fill-opacity:1;stroke-width:.574125"/></svg>