<?xml version="1.0" encoding="UTF-8"?>
<!-- Created with Inkscape (http://www.inkscape.org/) -->
<svg width="100" height="100" version="1.1" viewBox="0 0 26.458 26.458" xmlns="http://www.w3.org/2000/svg">
 <g fill="none">
  <g transform="matrix(.39399 0 0 .40097 7.1464 33.268)" stroke-width="0">
   <path d="m-11.525-37.138 10.072-0.48477 3.5904-1.3428c2.1255-1.0749 3.4213-2.6869 3.4036-5.1488l3.587-20.871c3.2659-0.78731 5.2825 1.3535 6.4665 5.4455l-0.45107 26.663c-0.0096 2.1848-0.02996 4.3695-5.0059 6.4694l-10.351 1.7052-12.977 0.21928"/>
   <path d="m43.148-37.237-10.072-0.48477-3.5904-1.3428c-2.1255-1.0749-3.4213-2.6869-3.4036-5.1488l-3.587-20.871c-3.2659-0.78731-5.2825 1.3535-6.4665 5.4455l0.45107 26.663c0.0096 2.1848 0.02996 4.3695 5.0059 6.4694l10.351 1.7052 12.977 0.21928"/>
   <path d="m-2.6564-71.073 5.4614 5.0207"/>
   <path d="m6.2325-74.551 2.0046 3.803"/>
   <path d="m15.946-77.278 0.02923 7.4997"/>
   <path d="m25.917-74.317-1.7421 2.8605"/>
   <path d="m34.667-70.849-4.9738 4.5249"/>
   <path d="m8.1244-34.431 2.7591-12.828 0.99514-3.4535c0.75434-1.4335 1.4473-3.1547 3.1808 0.0021"/>
   <path d="m23.717-34.674-2.7591-12.828-0.99514-3.4535c-0.75434-1.4335-1.4473-3.1547-3.1808 0.0021"/>
  </g>
  <g stroke="#fff" stroke-width="1.0583">
   <ellipse cx="6.4357" cy="8.3356" rx="4.1573" ry="4.1747" stroke-linecap="round" stroke-linejoin="round"/>
   <ellipse cx="16.146" cy="7.7153" rx="4.5857" ry="4.6796" stroke-linecap="round" stroke-linejoin="round"/>
   <path d="m3.0747 20.667 0.057459-6.4962c0.33895-1.0668 1.0512-1.6134 2.0387-1.7764l11.504-0.02342c1.5972 0.14133 2.0232 0.73532 2.1129 1.4593l-0.11752 7.7919c-0.0154 1.1123-0.59896 1.3974-1.3357 1.4596l-12.648-0.13499c-1.3903-0.22074-1.7941-1.0651-1.612-2.2797z"/>
   <path d="m18.626 15.517 4.9881-3.3431c0.47302 0.25768 0.84077 0.59492 0.84399 1.2076l0.03096 8.4968c-0.12448 0.6469-0.50545 0.97567-0.95718 1.2167l-4.9091-4.2916"/>
  </g>
 </g>
</svg>
