<svg xmlns="http://www.w3.org/2000/svg" width="100" height="100" viewBox="0 0 26.458 26.458"><path style="fill:none;stroke:#fff;stroke-width:1.05832;stroke-linecap:round;stroke-linejoin:round;stroke-dasharray:none;stroke-opacity:1" d="M19.795 14.15c1.028 1.69-2.944 8.616-3.692 7.747l1.623 1.712-7.618.076c-3.95-.495-6.46-2.677-7.813-6.208-.304-2.147-1.275-4.94 1.527-8.36 1.862-2.38 5.46-3.698 9.076-2.923"/><ellipse style="fill:none;stroke:#fff;stroke-width:1.05832;stroke-linecap:round;stroke-linejoin:round;stroke-dasharray:none;stroke-opacity:1" cx="4.729" cy="14.582" rx="1.076" ry="1.1"/><ellipse style="fill:none;stroke:#fff;stroke-width:1.05832;stroke-linecap:round;stroke-linejoin:round;stroke-dasharray:none;stroke-opacity:1" cx="8.318" cy="14.626" rx="1.076" ry="1.1"/><ellipse style="fill:none;stroke:#fff;stroke-width:1.05832;stroke-linecap:round;stroke-linejoin:round;stroke-dasharray:none;stroke-opacity:1" cx="11.993" cy="14.649" rx="1.076" ry="1.1"/><path style="fill:none;stroke:#fff;stroke-width:1.05832;stroke-linecap:round;stroke-linejoin:round;stroke-dasharray:none;stroke-opacity:1;paint-order:stroke fill markers" d="m15.71 12.485-1.434 1.435 6.01-.102c1.315-.361 2.276.48 4.177-2.854.453-1.126.704-1.897.774-3.057.077-1.264-.367-2.803-1.323-3.681-1.086-1.028-2.501-1.722-4.455-1.87-1.927-.065-3.67.832-4.395 1.739-1.156 1.318-1.438 1.775-1.53 4.371.022.975.298 1.85.854 2.611z"/><path style="font-weight:700;font-size:10.3269px;line-height:1.15;font-family:Lato;-inkscape-font-specification:'Lato Bold';text-align:center;text-anchor:middle;fill:#fff;fill-opacity:1;stroke-width:.430289;stroke-linecap:round;stroke-linejoin:round;paint-order:stroke fill markers" d="M17.887 5.13q.173-.158.375-.3.208-.142.447-.247.238-.105.517-.163.279-.063.603-.063.441 0 .801.126.365.127.624.363.258.232.4.563.142.331.142.741 0 .4-.111.694-.112.29-.279.505-.167.216-.37.373l-.375.3q-.178.137-.31.274-.126.131-.152.3l-.116.767h-.857l-.086-.857q-.03-.247.065-.431.102-.19.264-.342.167-.158.37-.3.203-.147.38-.315.178-.174.295-.384.121-.216.121-.51 0-.19-.07-.337-.067-.152-.188-.257-.122-.11-.294-.169-.168-.057-.365-.057-.29 0-.492.068-.198.063-.34.147-.137.079-.233.147-.097.063-.173.063-.182 0-.263-.157zm.958 6.2q0-.163.056-.31.061-.148.162-.253.102-.105.244-.168.142-.063.304-.063t.3.063q.141.063.243.168.106.105.167.252.06.148.06.31 0 .169-.06.316-.06.142-.167.247-.102.105-.244.163-.137.063-.299.063-.162 0-.304-.063-.142-.058-.244-.163-.101-.105-.162-.247-.056-.147-.056-.315z" aria-label="?"/></svg>