<?xml version="1.0" encoding="UTF-8"?>
<svg width="101.07" height="50.192" version="1.1" viewBox="0 0 101.07 50.192" xmlns="http://www.w3.org/2000/svg">
 <g transform="translate(-1.9595 -.1832)" fill="#dcb9b9" fill-opacity=".2">
  <g stroke-width="1.034">
   <path d="m10.295 41.125h8.295v8.956h-8.295zm-8.295-8.956h8.295v8.956h-8.295zm8.295 0h8.295v8.956h-8.295zm8.296 0h8.295v8.956h-8.295z"/>
   <path d="m26.886 32.169h8.295v8.956h-8.295zm8.295 0h8.295v8.956h-8.295zm-8.295 8.956h8.295v8.956h-8.295zm0-17.912h8.295v8.956h-8.295zm0-8.956h8.295v8.956h-8.295zm8.295 0h8.295v8.956h-8.295z"/>
   <path d="m18.591 14.257h8.295v8.956h-8.295zm-8.296 0h8.295v8.956h-8.295zm-8.295 0h8.295v8.956h-8.295zm8.295 8.956h8.295v8.956h-8.295zm0-17.912h8.295v8.956h-8.295zm16.591 0h8.295v8.956h-8.295z"/>
  </g>
  <path d="m50.091 0.6079h9.29v49.701h-9.29z" stroke-width="2.578"/>
  <g fill="#dcb9b9" fill-opacity=".2">
   <rect x="65.272" y="4.7872" width="9.5089" height="10.037"/>
   <rect x="93.247" y="10.313" width="9.5089" height="10.037"/>
   <rect x="83.755" y="17.533" width="9.5089" height="10.037"/>
   <rect x="74.319" y="25.234" width="9.5089" height="10.037"/>
   <rect x="65.334" y="31.54" width="9.5089" height="10.037"/>
   <rect x="68.17" y="40.312" width="30.929" height="10.037"/>
   <rect x="74.729" y=".2869" width="18.643" height="10.037"/>
  </g>
 </g>
</svg>
