<svg xmlns="http://www.w3.org/2000/svg" width="101.68" height="240.13" viewBox="0 0 101.68 240.13"><title>mxt-icon--mic</title><g id="Layer_2" data-name="Layer 2"><g id="Layer_1-2" data-name="Layer 1"><g style="opacity:.7000000000000001"><g style="opacity:.7000000000000001"><path d="M2.16,28.39a1,1,0,0,0,.05.14l.24-.35C3,27.32,3.51,26.48,4,25.61A23.33,23.33,0,0,1,8.83,19.5,25.93,25.93,0,0,0,11,17.39a14.2,14.2,0,0,1,4.25-3.15c2.32-1.19,4.6-2.46,6.89-3.7.13-.07.21-.23.29-.33-.11-.37-.69-.41-.47-.89a.52.52,0,0,1,.16-.08.69.69,0,0,1,.35,0c1.2.62,2.28.16,3.38-.34A70.08,70.08,0,0,1,36.87,5c.8-.21,1.6-.45,2.39-.69.08,0,.13-.15.19-.22L39,3.25a6.76,6.76,0,0,1,1.1-.32c.76-.08,1.54-.1,2.3-.16.09,0,.17-.13.26-.21l-.53-1a7.45,7.45,0,0,1,2.14.79,4.27,4.27,0,0,0,2.23.41c1.42-.12,2.84-.14,4.26-.22.33,0,.72.08,1-.33-.06-.17-.15-.37-.23-.58a2.56,2.56,0,0,1-.15-.51.88.88,0,0,1,1.07-1A23,23,0,0,1,54.7,1a8.87,8.87,0,0,0,1.95.8,7.08,7.08,0,0,1,3,1.37A5.61,5.61,0,0,0,61.22,4a32.12,32.12,0,0,0,5.65,1.51,4.23,4.23,0,0,1,1.46.57A8.47,8.47,0,0,1,69.42,7c.42-.16.81-.37,1.17,0A30,30,0,0,1,73,9.58c2.47,3.35,3.42,7.24,3.81,11.3a5.09,5.09,0,0,0,.5,2.37l-1.34,1a10.86,10.86,0,0,1,.76,1.69,9.78,9.78,0,0,1,.13,1.75,3.4,3.4,0,0,0,2.35-.88c.06-.06.22,0,.4,0l.81.68a4.35,4.35,0,0,0,0,2.78A1.51,1.51,0,0,1,79.73,32c-.38.27-.78.51-1.2.78a14.85,14.85,0,0,0,.8,3.48c.56,0,1,0,1.49,0s.92.11,1.41.17a4,4,0,0,0,.23.91c.17.31.45.55.64.84A1.73,1.73,0,0,1,83,40.51c-.2.28-.52.45-.5.89,0,.17-.21.39-.38.53a9.69,9.69,0,0,1-.84.59,13.55,13.55,0,0,0,1.51,2.91c.29,0,.52-.08.74-.13a1.27,1.27,0,0,1,1.67.92,18.87,18.87,0,0,1,1.05,3.11l-1.45,1.5a8.17,8.17,0,0,0,1.55,2,2.1,2.1,0,0,1,.93,1.39,10.22,10.22,0,0,0,1.36,3.91c-.06.15-.07.22-.11.25l-1.46,1c.36,1.14.72,2.26,2,2.75a1,1,0,0,1,.51.47c.63,1.45,1.44,2.83,2,4.3a2.89,2.89,0,0,0-1.3,1.85,12.26,12.26,0,0,0,1.28,2.48c.86,0,1.32-.82,2.16-.58a14.65,14.65,0,0,1,.38,1.7c.08.76,0,1.54.11,2.31a1.79,1.79,0,0,1-.69,1.69c.19.82.36,1.57.55,2.31.06.22.15.44.23.66l1.48-.13a2.73,2.73,0,0,1,.74,1.72,13.06,13.06,0,0,0,.81,3.26c.09.19-.08.56-.22.78a3.76,3.76,0,0,1-.69.63c.2.53.36,1,.58,1.51s.3,1.17.91,1.46c.87-.32.29,1,1,.89a9.08,9.08,0,0,1,.52-1.08c.23-.35.68-.34,1.09,0s.53.73.24,1.06-.6.55-1,.87l.94,4a2.1,2.1,0,0,1-.08,1.55,2,2,0,0,0,0,1.19c.27,1.33.6,2.66.9,4a3.53,3.53,0,0,1-.08,2.08,9.77,9.77,0,0,0-.53,3.66c0,1.48,0,3,0,4.44,0,.25-.06.46-.42.39-.42-.89.11-1.94-.44-3-.23.53-.38.9-.55,1.25a5.52,5.52,0,0,1-2,2.47,10.19,10.19,0,0,0-3.1,3.8,6.38,6.38,0,0,1-2.71,2.69,8.34,8.34,0,0,0-3.57,3.24,3.56,3.56,0,0,0-2.08.66c-.64.57-1.46,0-2.16.25-.33.12-.61.37-.93.51-1.63.74-1.61.73-1.35,2.44A35.62,35.62,0,0,0,83,132.19c.13.37.32.72.49,1.1l.67-.53c.58.92,1.19,1.73,1.64,2.62.82,1.58,1.56,3.19,2.31,4.8a8.9,8.9,0,0,1,.58,1.67,1.84,1.84,0,0,1,0,1c-.82,2.09-.68,4.27-.79,6.58a4.1,4.1,0,0,1-2.18,1.89c-.17.76.57,1.38.13,2.07-.73-.28-.33-1.32-1.07-1.5L79,154.62a3.19,3.19,0,0,0,1.2,3.29c2.53,2.24,5,4.54,7.5,6.81.31.28.62.55.92.84a1.42,1.42,0,0,1,.43,1.29c-.27,1.94-.51,3.87-.76,5.81-.51,3.93-1.11,7.86-1.52,11.8-.51,4.83-.79,9.68-1.93,14.43a2.06,2.06,0,0,0-.14,1,2.13,2.13,0,0,1-.22,1.85c-.2.38-.12.78.4,1.19.15-.7.28-1.26.38-1.82.15-.82.25-1.64.41-2.45,0-.18.22-.33.5-.73a6.41,6.41,0,0,1,.1,1.13c-.15,1.12-.29,2.23-.5,3.34a5.51,5.51,0,0,0,.53,4.29c.08.12,0,.34,0,.51l-.85-.06c-.84,1.63-.84,1.63-.85,2.68s-.19,1.08-1.13,1.16a5.39,5.39,0,0,0-3.13,1.26c.94,0,1.73-.6,2.67-.41A5.11,5.11,0,0,1,83,214c-.16,1.47-.38,2.94-.44,4.42a130.48,130.48,0,0,1-1.62,14.11,4.19,4.19,0,0,1-.38.87l-.57-1a3.37,3.37,0,0,0-1,2.43,7.71,7.71,0,0,1-.09.88c0,.26-.15.43-.54.32a4.43,4.43,0,0,0-.1-.81c-.18-.61-.41-1.21-.61-1.82-.88-.14-.7-.83-.68-1.38q.18-4.62.4-9.23c.13-2.6.3-5.21.44-7.81,0-.27.09-.61-.45-.76l-1.66,1.45A9.49,9.49,0,0,1,71.31,218c-1.33.28-2.61.75-3.92,1.1a1.36,1.36,0,0,0-1.06,1.42,68.92,68.92,0,0,0-.17,11.36,4.5,4.5,0,0,1,0,.87c0,.07-.17.12-.26.18-.42-.22-.08-.92-.71-1.15-.07.32-.13.53-.17.75-.37,2.22-.74,4.44-1.12,6.66-.06.33-.07.74-.71.72a22.77,22.77,0,0,1,.2-3.51c.17-1.53.3-3.07.51-4.59a3,3,0,0,0-.74-2.45c-.83-1-1.62-2-2.4-3.09-2.17-2.89-4.32-5.8-6.49-8.69a9.22,9.22,0,0,0-.84-.86,3.61,3.61,0,0,0,.38,4c.23.34.5.66.75,1l4.2,5.29,3.51,4.47c.2.25.33.49,0,.83a6.26,6.26,0,0,1-.62-.57c-1.14-1.36-2.26-2.74-3.41-4.1q-2.34-2.79-4.72-5.56a4.62,4.62,0,0,0-.7-.54,2.47,2.47,0,0,0,.43,2.87c2.43,2.84,4.81,5.71,7.21,8.57.72.86,1.46,1.72,2.17,2.59.14.17.33.37,0,.68a2.55,2.55,0,0,1-.52-.34c-.45-.47-.87-1-1.3-1.46q-3.77-4.26-7.54-8.52a8.16,8.16,0,0,0-.93-.78,1,1,0,0,0,.09,1.28c.32.35.68.66,1,1a51.4,51.4,0,0,1,6.32,7c.22.29.42.58,0,.91-.66-.07-1-.62-1.37-1-1.91-2-3.8-4.08-5.7-6.11-.22-.23-.38-.59-.8-.55a1,1,0,0,0-.16,1.31,15,15,0,0,0,.83,1.36,84.27,84.27,0,0,0,6,7.5c.5.58,1,1.19,1.44,1.8.08.11,0,.31.06.64a7.88,7.88,0,0,1-1.54-1.63c-.53-.56-1-1.15-1.53-1.73s-.92-1.08-1.38-1.63-1-1.19-1.45-1.8-.85-1.14-1.29-1.7a7.42,7.42,0,0,0-1.49-1.81l-1.09,1.94c-.19-.63-.19-1.15-.44-1.34-.59-.45-.5-1-.52-1.6,0-.95-.06-1.89-.13-2.84,0-.35-.2-.69-.19-1a5.7,5.7,0,0,1,.27-1.14c-.81.53-1.46,1-1.49,1.9,0,.24-.26.47-.48.86a2.79,2.79,0,0,1-.33-.77,14.87,14.87,0,0,1,.06-1.6c.43-5.85.93-11.69.86-17.57,0-2.31.17-4.61.24-6.92a2.85,2.85,0,0,0-.18-1.37,38.23,38.23,0,0,0-3.26-5.08l-.71.5a2.8,2.8,0,0,0-.4-.93,2.22,2.22,0,0,1-.49-2c.08-1.06.11-2.13.21-3.19.21-2.06.45-4.12.71-6.18,0-.23.25-.44.42-.73.5.7.07,1.49.47,2.13A11.37,11.37,0,0,0,47.11,176a3.37,3.37,0,0,0-.69,1.07c-.09.15-.3.22-.5.36-.05-.25-.12-.37-.09-.47.54-1.87,1.09-3.75,1.66-5.62a1.72,1.72,0,0,1,.44-.75,1.1,1.1,0,0,0,.38-.95,13.69,13.69,0,0,1,.43-3.16c.21-1.28.36-2.57.54-3.86a2.49,2.49,0,0,1,.15-.86A7.43,7.43,0,0,0,50.1,159a47.51,47.51,0,0,1,.77-4.73,4.32,4.32,0,0,0-.42-3.22A13.3,13.3,0,0,1,49,145.4a4.33,4.33,0,0,0-.36-1.53c-1.52-3.54-3.09-7.05-4.6-10.59a2.65,2.65,0,0,0-1.73-1.63c-1.75-.56-3.47-1.19-5.22-1.74a16.34,16.34,0,0,1-4.5-2.08,9.71,9.71,0,0,0-1.21-.63l-.91.52a47.15,47.15,0,0,1-5.44-13.2l-1-.17c-.13-1.1-.29-2.22-.37-3.33s-.72-2.08-.63-3.25c.87.28.46,1.32,1.25,1.77l-.29-2.6a2.14,2.14,0,0,1-1.7-2.26A15.43,15.43,0,0,0,21,99.91a1.93,1.93,0,0,0-.43-.76,1.72,1.72,0,0,1-.56-1,13.67,13.67,0,0,0-.65-1.64c-.25-.69-1-.64-1.53-1,.39-.38,1-.29,1.08-.94.05-.46.38-.9.15-1.37a10.2,10.2,0,0,1-.83-1.54c-.2-.71-1-.52-1.19-.84,0-.72,0-1.18,0-1.64a11.58,11.58,0,0,0-.29-1.57c-.15-.6.28-1,.56-1.35a5.5,5.5,0,0,1-.61-.9c-.28-.65-.49-1.33-.72-2a2.12,2.12,0,0,0-1-1.32,3,3,0,0,1-1.52-2.28,5.86,5.86,0,0,1-.12-1.86A11.54,11.54,0,0,0,13,75.29a2.1,2.1,0,0,0-.92-1.81,2.74,2.74,0,0,1-1.31-1.83,7.91,7.91,0,0,0-1-2.46,4.39,4.39,0,0,1-.68-2.88,2,2,0,0,0-.71-1.88,3.37,3.37,0,0,1-1.14-2.67c0-1.73-1.18-3.06-1.71-4.62a.5.5,0,0,0-.25-.25c-1.16-.54-1.45-1.66-1.8-2.73-.49-1.51-.46-1.56.5-3.05a6,6,0,0,0-.6-1.36,7.24,7.24,0,0,1-1-2.26c-.42-1.3-.74-2.62-1.21-3.9A27.17,27.17,0,0,1,0,33.59a4.41,4.41,0,0,1,.12-.88,28.43,28.43,0,0,1,3.69-9.17,2.39,2.39,0,0,1,.33-.42,1.14,1.14,0,0,1,.3-.16c.26.3,0,.52-.11.77-.58,1.1-1.16,2.2-1.72,3.3a1.22,1.22,0,0,0-.13,1.18Zm58.09,193.7c-.29-.5-.62-1-.91-1.46-1.21-2.06-2.4-4.13-3.62-6.19-.16-.27-.29-.66-.75-.58l-.08-.37s-.08.09-.07.11a2.78,2.78,0,0,0,.2.22,6.13,6.13,0,0,0,.37,1q2,3.44,4,6.85a4.82,4.82,0,0,0,.43.54l.53-.13a.8.8,0,0,0,0,1.09,1.27,1.27,0,0,0,.21.11l-.26-.05Zm15.68-12.26.15,0L76,210c-.35,0-.78-.29-1,.25h-.14l.09-.05,1-.19A2.16,2.16,0,0,0,75.93,209.83Zm-11.15-196c.19-.27-.08-.21-.19-.27l-.13-.38s-.07.11-.05.12a2.54,2.54,0,0,0,.23.21Zm-3.35-.61A6.51,6.51,0,0,0,62.76,16s.11,0,.17,0a1.94,1.94,0,0,0-.05.3s.05.09.08.13.17-.17.15-.21S63,16.1,62.89,16a5.15,5.15,0,0,0-1.33-2.77s-.11,0-.17,0l-.13-.95A1.09,1.09,0,0,0,61,12.2s-.06.05-.08.08h.44C61.09,12.63,61,13,61.43,13.24Zm28,74.71-.17.15s.1,0,.14,0a.21.21,0,0,0,.1-.11c0-.09.07-.18.1-.28l1.64,0a11.15,11.15,0,0,0,1.36-.21,3,3,0,0,0,.73-.51c-1.28-.16-1.62,0-2.07.72l-1.59,0A1.47,1.47,0,0,0,89.42,87.95ZM77.65,108.79l.14,0-.19.2a1.39,1.39,0,0,1,.38,1.19l.36,1.06.23.15.17.12s0-.11,0-.14a.2.2,0,0,0-.12-.07l-.27,0c0-.39.33-.9-.36-1.06,0-.43.24-.91-.34-1.16Zm2.91-45.61,1.68-.73a1.31,1.31,0,0,0-1.72.56s0,.11,0,.17c-.38,0-.89-.33-1.07.34h0Zm-11.36-28a.87.87,0,0,0-.78.55h-.27c.13-.29.18-.1.25,0l.75-.64c.41.06.81.09,1-.37h.34l-.29,0Zm4.3,12.46c-.13-.15-.21-.29-.25-.27-.26.07-.52.18-.77.27l-.31.22c.05,0,.13,0,.14,0a2.13,2.13,0,0,0,.12-.28Zm-13,146.37.37-.47,1.56.93a2.33,2.33,0,0,0-.08-.62A11,11,0,0,1,61,190.28a3.7,3.7,0,0,0-.63-1.18c-.5.09-.42.45-.49.68a7.69,7.69,0,0,0,.22,4c0,.1.29.14.44.21-.41.5,0,1-.1,1.56l.54.53c.33-.68-.25-.46-.54-.53A1.81,1.81,0,0,0,60.53,194.06Zm-8.25-65.57c.4-.22.72-.28.79-.45a2.18,2.18,0,0,0,0-.82l.21-.1,0,.24-.16-.18Zm31.88,10s-.06-.08-.09-.12-.11.2-.09.25.16.09.25.14a1.56,1.56,0,0,0,.51,1.53,2.17,2.17,0,0,0-.55-1.49A2.65,2.65,0,0,0,84.16,138.46Zm-29.41,78.7c.13-.59-.06-.8-.36-1-.12-.31-.23-.63-.38-.93-.06-.13-.22-.21-.46-.42a1.19,1.19,0,0,0,.71,1.46Zm28.88-19.38.45-1.13v-2.21a3,3,0,0,0,0,2.2C83.46,196.84,83.56,197.32,83.63,197.78ZM62,27.17c.9.35,1.35.22,2.14-.55l.61.06,0-.21-.54.2A3.9,3.9,0,0,0,62,27.17ZM77.62,45.34c-.74.15-1.61-.06-2.15.71l-.27,0a.26.26,0,0,0,.09,0l.14,0A3.6,3.6,0,0,0,77.62,45.34Zm9.12,73.32c.29-.39.26-.41.2-1.74a10.2,10.2,0,0,0-.59,1.09,6.71,6.71,0,0,0-.22,1l.14.19-.09-.21C86.37,118.85,86.63,118.81,86.74,118.66ZM72.33,10.32a1.11,1.11,0,0,0-.55-1,2.36,2.36,0,0,0-1.44-1.51,2.84,2.84,0,0,0,1.39,1.56Zm6.2,98.09a1.8,1.8,0,0,0,.11.34c.24-.28.17-.47-.12-.62,0-.58-.06-1.16-.16-1.72,0-.13-.3-.22-.69-.49.15,1,.26,1.69.89,2.18A1.49,1.49,0,0,0,78.53,108.41ZM49.22,17.89s-.09.08-.09.09.11.17.17.25a4.17,4.17,0,0,0,.91,2.31,2,2,0,0,0-1-2.28ZM83.49,90.25c.57.16.79.31.93.25.53-.23,1-.52,1.55-.79l.27-.18-.23.22C85.22,89.49,84.57,89.9,83.49,90.25ZM60.21,196c0-.17-.18-.37-.51-.48l.16,1.83a10.24,10.24,0,0,0,.36,1.35c.09.22.36.36.7.69-.38-1.52-.38-1.52-1-2A11.36,11.36,0,0,0,60.21,196Zm32.27-78.5c.2-.12.16-.25-.22-.74a8.58,8.58,0,0,0-1.54,1.35c-.08.09,0,.31,0,.47-.41-.21-.59,0-.71.48l.67-.53C91.26,118.19,91.87,117.85,92.47,117.5ZM76.87,53.88A3.32,3.32,0,0,0,80.18,53h.3l-.25,0A10.42,10.42,0,0,0,76.87,53.88ZM72.38,37.74c-.76.29-1.54.55-2.29.91a8,8,0,0,0,3.35-.91c.13-.07.13-.39.19-.59l.29.13.16,0a.55.55,0,0,0-.14-.11,2.74,2.74,0,0,0-.31-.07C73.21,37.35,72.81,37.58,72.38,37.74Zm-15,173.42a.78.78,0,0,0-.53-1,15.64,15.64,0,0,0-3.13-4.44,2.23,2.23,0,0,0,.09.68,11.24,11.24,0,0,0,3,3.84C56.78,210.67,57,210.89,57.39,211.16Zm2.71-39.57q-.57,1.87-1.08,3.75a.74.74,0,0,0,.61,1c.5-1.64.5-3.37.89-5l0-.18,0,.18C60.36,171.43,60.13,171.48,60.1,171.59ZM20.42,12.89c1-.49,2-.94,3-1.43a3.67,3.67,0,0,0,.66-.55,2.34,2.34,0,0,0-.43-.16.64.64,0,0,0-.35,0l-4.08,2.09.12.61c-.09-.06-.19-.13-.29-.18a.53.53,0,0,0-.16,0s.08.11.13.13a2.34,2.34,0,0,0,.31.09C19.72,13.29,20.06,13.06,20.42,12.89ZM67.31,38.16c.1,0,.22.13.31.1l5.27-1.52c.27-.08.6-.13.52-.55l.9.14c-.42-.43-.64-.23-.86-.09C70.27,36.85,68.24,37.48,67.31,38.16ZM62.65,193.23l.58.64a4.47,4.47,0,0,0,.29.81c.68,1.16,1.37,2.32,2.08,3.47.14.23.34.43.72.91,0-.64.15-1,0-1.24a18.25,18.25,0,0,0-3.13-3.9C63.24,193.61,63.18,193.37,62.65,193.23Zm22.87-6.93q.48-3.51.88-7a9.18,9.18,0,0,0-.12-1.5c-.29.44-.47.6-.5.78a10.37,10.37,0,0,0-.11,1.24c-.14,2.18-.27,4.37-.42,6.55a2.3,2.3,0,0,1-.15.5L85,188.51h.22l-.12-1.67C85.24,186.65,85.49,186.49,85.52,186.3ZM55.3,10.6c.16.66.16.66.83,1.18,1.22,2.2,1.74,4.69,2.94,6.89,0,0,.11,0,.21.06a5.1,5.1,0,0,0,0-1,13.14,13.14,0,0,0-2.86-5.78c-.06-.07-.21-.07-.31-.1C56.12,11.23,55.69,10.93,55.3,10.6ZM79.77,139.84a1.66,1.66,0,0,0-.55-1.83,5.13,5.13,0,0,0-1.46-3.13c-1.42.59-1.87,2-2.72,3a5.57,5.57,0,0,0,2.37-1v-1.1a4.59,4.59,0,0,1,1.3,1.58,4.66,4.66,0,0,0,.55.59C79.06,138.62,79.5,139.06,79.77,139.84Zm-16,33.53c.52.7,1.11,1.35,1.85,2.24a4.5,4.5,0,0,0-.64-2c-.24-.6-.5-1.19-.8-1.76s-.42-1.24-1.2-1.58c-.15.28-.32.56-.46.85-.24.5-.11,1.18-.69,1.53a4.69,4.69,0,0,0,0,1c.05.22.28.4.5.68a1.81,1.81,0,0,0-.54-1.7A1.68,1.68,0,0,1,63.77,173.37Zm3.13,34.91c.1.18.59.14,1.13.25a7.89,7.89,0,0,0-2.69-2.94,15.43,15.43,0,0,0-4.61-5.47.65.65,0,0,0-.18,0c-.46.1-1,.2-.92.83a1.32,1.32,0,0,0,1.24,1.23,1.79,1.79,0,0,1,1.28.5c.82.76,1.62,1.56,2.42,2.34.24.23.38.61.81.59C65.55,206.65,66.39,207.38,66.9,208.29Zm7.56-4.11c-2,.84-4,1.7-6,2.55.34,1.23.58,1.49,1.52,1.32a27.91,27.91,0,0,0,3.61-.87A36.83,36.83,0,0,0,80.3,204a2,2,0,0,0,1-1.35c.1-.45.21-.89.33-1.41a2.21,2.21,0,0,0-1.84.63,35.33,35.33,0,0,1-5.21,3.33,1.58,1.58,0,0,1-.52.1c-.12-.71.82-.6.83-1.15.06,0,.13,0,.17,0a2.15,2.15,0,0,0,.28-.18s-.09-.1-.14-.1-.36,0-.28.29A1.32,1.32,0,0,0,74.46,204.18Zm-1.11-49.1a3.17,3.17,0,0,0-2.26,1,.78.78,0,0,0-.16.48,6.33,6.33,0,0,0,.19.88c.73-.2,1-.83,1.47-1.22a1.86,1.86,0,0,1-.66,1.4,3.93,3.93,0,0,0-1.08,2.73c0,.65-.1,1.3-.15,1.95a4.27,4.27,0,0,1-.55,2.38,2.1,2.1,0,0,0-.17,1c0,.57,0,1.14-.08,2.13-.31-.54-.48-.71-.5-.89a10,10,0,0,1,0-1.77c.14-1.41-.66-2.3-1.66-3.33-.17.42-.39.68-.36.91a16.45,16.45,0,0,0,.46,1.89,7.23,7.23,0,0,0,.35,1c.25.55-.36,1.12.07,1.68s.64,1,.94,1.46c-.3.43-.53.24-.72,0q-1.14-1.36-2.26-2.74c-.64-.78-1.25-1.57-1.9-2.35-.22-.26-.49-.47-.91-.87,0,.43-.15.66-.08.81a8.45,8.45,0,0,0,2,2.92c1.24,1.19,2.45,2.4,3.67,3.61.45.45.94.83.85,1.64,0,.36.44.78.66,1.14a23.8,23.8,0,0,0,6.39-2.46,6,6,0,0,1-.94-.17c-.2-.07-.48-.23-.51-.38-.07-.38.28-.46.57-.5.88-.13,1.75-.28,2.64-.36a14.78,14.78,0,0,0,4.61-1.22c1.24-.54,2.46-1.14,3.78-1.75a8,8,0,0,0-.6-.76q-2.67-2.6-5.36-5.18a2.81,2.81,0,0,0-.74-.37c-.05-.69-.55-.94-1.14-1.25a2.54,2.54,0,0,0-.2,1.41c0,.47,0,.94,0,1.53L80.1,161l-.39-1.05.58-.22a17.09,17.09,0,0,0,.88,1.5c.87,1.2,1.78,2.36,2.68,3.54a1.36,1.36,0,0,1,.18,1.72,7.09,7.09,0,0,1-.89-.37c-.48-.28-.74-.91-1.52-1l.43,1.2c-.54,0-1.07-.18-1.4.36a1.64,1.64,0,0,1-.33-.11c-1.36-.8-1.49-.75-2,.8-.06,0-.15.06-.17,0-.19-.21-.37-.44-.63-.76l-3.31,1.12c-.79.26-1.57.52-2.37.74-.24.07-.47,0-.5-.4a4.16,4.16,0,0,1,1.73-.63,2.42,2.42,0,0,0,1.59-1,3.78,3.78,0,0,1,1.26-.93c.59-.38,1.2-.73,1.8-1.09a30.4,30.4,0,0,0-.16-5c-.43,1.42-.16,2.92-.45,4.33-.5.11-.58-.22-.61-.47-.2-1.35-.36-2.7-.55-4-.05-.39,0-.84-.53-1.12l-.53,7.06c-.3-.55-.51-.75-.51-1,0-2.61,0-5.21,0-7.82,0-1,.76-1.39,1.21-2.24.21.31.4.47.43.65.18,1.28.32,2.57.53,4.26a3.86,3.86,0,0,0,.28-1,6.39,6.39,0,0,1,.69-3.77.71.71,0,0,0-.55-1.06,2,2,0,0,0-2.07.7c-.51.57-1,1.19-1.45,1.79a1.17,1.17,0,0,1-.88.52ZM49.62,171.93c-.93,4.4-1.85,8.74-2.79,13.08a5.51,5.51,0,0,1-.52,1c-.31-1.33.42-2.4,0-3.71a5.74,5.74,0,0,0-1.22,3.25q0,.53,0,1.07c.11,3.14.12,3.13,2.06,5.62a65.4,65.4,0,0,0,5,5.75A65.45,65.45,0,0,1,62.4,211.44c.7,1.22.71,1.21,2.21,1.64-.28-.49-.49-.89-.73-1.27-1-1.55-2-3.1-2.94-4.66a13.31,13.31,0,0,1-2-5.1,6.07,6.07,0,0,0-.9-2.1,1.91,1.91,0,0,1-.38-1.78l1.56-.2a6,6,0,0,0-.38-2.66c-.77.41-.53,1.55-1.42,1.72-.46-.22-.38-.61-.37-.94.07-1.84.16-3.67.24-5.5.06-1.3.11-2.6.17-3.91.12-2.42.35-4.85.35-7.27a15.18,15.18,0,0,1,1.08-5.87,11.74,11.74,0,0,0,.57-1.87,4.67,4.67,0,0,1,1.8-2.91l1,.15.19-1.31a5.17,5.17,0,0,0-.34-.54,10,10,0,0,1-1.92-3.58,1.33,1.33,0,0,0-1.37-1.14,2,2,0,0,1-2.15-1.49,2.83,2.83,0,0,0-.49-.74q-1.18-1.56-2.37-3.1c-.24-.31-.52-.6-.81-.93a3.48,3.48,0,0,0-1.23,2.38c-.27,1.87-.52,3.75-.69,5.64-.13,1.41,0,2.85-.17,4.26a25.91,25.91,0,0,1-.6,3.12c0,.12-.24.19-.37.29a11.14,11.14,0,0,1,.19-1.36,7.08,7.08,0,0,0,.1-3c-.54,1.68-1,3-.29,4.35ZM10.52,21.68l-.11-.61a8.5,8.5,0,0,0-2.2,2.11A64.24,64.24,0,0,0,2.88,32a4.14,4.14,0,0,0-.42,2.07c.07,2.31.1,4.62.2,6.93.05,1.12.26,2.23.38,3.35.06.58.06,1.17.1,1.76,0,.34.07.69.12,1.14L4.51,47a9.92,9.92,0,0,1,1.38-.28,1.15,1.15,0,0,1,1.38,1.07c.17,1.53.27,3.06.39,4.59,0,.08-.13.17-.19.26-1.62-.77-1.62-.77-2.59-.05l.7,2.9c1.1.4,2.1-.49,3.15-.17a6.9,6.9,0,0,1,1.84,5c-.55.49-1.23.29-1.86.33s-.94.33-.83,1c0,.12.06.23.08.35.29,1.49.31,2,2.34,1.8a16,16,0,0,1,1.84,0c.2.37.4.78.63,1.18s.44.7.67,1a2.48,2.48,0,0,1,.28,2.21,1.52,1.52,0,0,1-1.18,1.18c-.93.23-1.16.64-1,1.53A4.63,4.63,0,0,0,12,72.28c.46.89.94,1.19,1.87.9a2.37,2.37,0,0,1,2.18.33,2.47,2.47,0,0,1,1,1.8,4.36,4.36,0,0,1,.2,2.24c-.57.52-1.25.34-1.88.42-.91.11-1.16.35-1.22,1.19s.07,1.25,1.25,2.25c.51-.13,1.08-.28,1.65-.4a1.13,1.13,0,0,1,1.36.6c.54,1.12,1.05,2.25,1.49,3.41.26.68,0,1.1-.6,1.49s-1.11.62-1.76,1c.3.55.56,1,.79,1.46A1.63,1.63,0,0,0,20,90a1.84,1.84,0,0,1,2,1.37,8.53,8.53,0,0,1,.52,2.23,1.82,1.82,0,0,1-1.47,2.12c-.26.09-.52.16-.91.27l1.37,2.26,1.54.09a2.11,2.11,0,0,1,1.75,1.06,7.5,7.5,0,0,1,.93,3.39c0,.19-.29.55-.5.61a14.11,14.11,0,0,1-1.78.29,5.93,5.93,0,0,0,1.09,2.3,8.88,8.88,0,0,1,1.56.2,1.67,1.67,0,0,1,1,.67A25.13,25.13,0,0,1,29,111.19c-.73,1-1.91.18-2.76.9A19.29,19.29,0,0,0,33.4,125l.66-.44a17.59,17.59,0,0,1,2.12,1.8,6.93,6.93,0,0,0,5.75,1.89l.22-1.43a1.39,1.39,0,0,1,.42,0,.49.49,0,0,1,.26.23,1.64,1.64,0,0,0,2.39,1.05c.89-.3,1.84-.46,2.76-.67a5.27,5.27,0,0,1,2.72-.27c.45-.47.82-.92,1.25-1.29s.87-.62,1.3-.93a5,5,0,0,0,2.27-4.38c0-1.13,0-2.25,0-3.38,0-.77,0-1.54,0-2.31a1.91,1.91,0,0,1,1.21-2.13c1.19-.55,2.31-1.33,3.89-.39,1.8,2.74,1.49,6,1.21,9.34h-1l.31,1.5A5.57,5.57,0,0,0,60,127.52a5.94,5.94,0,0,0,2.8-.54,10.33,10.33,0,0,0,1.73-.89,1,1,0,0,0,.44-.69c0-.31,0-.62.29-.77a2,2,0,0,0,.88-1.65,15.34,15.34,0,0,1,.37-1.74,8.88,8.88,0,0,0,.17-4.72,11,11,0,0,1,.53-5.95,2,2,0,0,1,1.42-1.45,4.31,4.31,0,0,0,2-1.07c-.05,2.4,1.18,4.36,1.68,6.53a2.47,2.47,0,0,0,.39,1,2,2,0,0,1,.18,2.19c-.64,1.58-.51,3.24-.8,5,1.61.27,3-.3,4.32-.41.14-.26.23-.36.24-.46.14-2.84.39-5.68-.51-8.46-.33-1-.6-2-.89-3.07-.08-.28-.28-.68-.16-.84.53-.74.15-1.49.14-2.23a1.78,1.78,0,0,1,1.87-1.92,3.09,3.09,0,0,1,2.37,1,8.11,8.11,0,0,1,2.2,4.94c.17,1.47.25,3,.35,4.43,0,.57.19,1.19-.43,1.61-.11.08-.15.31-.15.48,0,.71,0,1.42,0,2.13s-.15,1.27-.24,2a1.79,1.79,0,0,0,2.19-.74l1.49-1.87c0-.17.07-.64.1-1.1a16.92,16.92,0,0,1,.11-2.3,9.67,9.67,0,0,0-.26-4c-.25-1.1-.53-2.19-.72-3.3-.21-1.27-.52-2.57.17-3.82a1.32,1.32,0,0,0,0-.69c0-.41-.09-.82-.15-1.23-.18-1.18.68-1.33,1.42-1.07a3.74,3.74,0,0,1,.88.58c.47.35.94.71,1.55,1.18a42.17,42.17,0,0,1,1.4,6.57,36.38,36.38,0,0,1,0,7,9.84,9.84,0,0,0,1.87-1.31,4.11,4.11,0,0,0,.79-.7,1.85,1.85,0,0,0,.32-.8,42.71,42.71,0,0,0,.44-8.33,9.78,9.78,0,0,0-.31-1.92c-.33-1.43-.7-2.85-1.07-4.35a5.83,5.83,0,0,0,.85,0c1.62-.24,2.62.64,3,2.24a27.73,27.73,0,0,1,.64,3.85c.19,1.76.29,3.54.44,5.31.35.22.54,0,.7-.28a8.78,8.78,0,0,0,1.7-5.14c0-1.07,0-2.13,0-3.2a24.76,24.76,0,0,1,.57-5.65,5.08,5.08,0,0,0,0-2.46,18.5,18.5,0,0,0-1-3.59,3.21,3.21,0,0,0-2.28.26c-2,1-3.94,1.92-5.9,2.88-1.24,1.39-3.06,1.7-4.63,2.46a9.56,9.56,0,0,1-3.3.49c-.46.05-1-.3-1.5-.49l.32-.53c-1.6-1.94-1.6-1.94-1.32-4.09a9.11,9.11,0,0,1,4.9-3,3.74,3.74,0,0,0,1.88-.92,3.12,3.12,0,0,1,1.28-.58,41.85,41.85,0,0,0,7.12-2.74c.56-.31,1.1-.08,1.91.23-.78-1.72-1.5-3.13-.77-4.91a5.94,5.94,0,0,0-1,.25c-2.62,1.38-5.28,2.69-7.83,4.19a12.94,12.94,0,0,1-3.28,1.19c-1.51.41-2.77-.2-4.09-.64A1.28,1.28,0,0,1,79,83.74a5.66,5.66,0,0,1-.06-1.41c.06-.76.38-1,1.19-.86a1.55,1.55,0,0,0,1.32-.27,8.73,8.73,0,0,0,1.93-1.54,3.18,3.18,0,0,1,1.33-.81c2.09-.82,4.21-1.6,6.31-2.4s2.18-.88,1.94-3.27a9,9,0,0,1,.1-1.51c-1-.16-1.07.71-1.21,1.55l-1-.47a.63.63,0,0,0-.19,0,3.48,3.48,0,0,0-1.78,1.08,2.46,2.46,0,0,0-1.87.27c-.66.26-1.34.49-2,.8a10.88,10.88,0,0,0-1.85,1,3.89,3.89,0,0,1-2.49.78c-.46,0-.92.06-1.34.09l-1.58-1.43A2,2,0,0,1,77,73.85a2.35,2.35,0,0,1,.34-1.33,5,5,0,0,1,2.84-2A15.65,15.65,0,0,0,87,67.28a7.34,7.34,0,0,1,1.2-.64,3.73,3.73,0,0,0,.29.47,1.38,1.38,0,0,0,.35.2L90,66.8c.08-.17.17-.28.16-.39a4.58,4.58,0,0,0-1.15-3.12c-.86.82-2,.91-2.94,1.54a21.88,21.88,0,0,1-3,1.59c-1,.46-2,.85-2.95,1.24s-2.11.78-3.17,1.15-2.13.73-3.2,1.07c-.83.26-.84.24-1.9-.6a8.26,8.26,0,0,0,0-1,7.26,7.26,0,0,0-.23-1,2.71,2.71,0,0,1-.08-1.74c.19-.5-.34-.52-.55-.89.76-.46,1.26-1.29,2.35-1.29a3.37,3.37,0,0,0,1.3-.55,40.43,40.43,0,0,1,9.84-3.52,20.78,20.78,0,0,0,2.81-1l-1-4.11a4.38,4.38,0,0,0-2.19.84l1.26.38a7.34,7.34,0,0,1-1,.6c-2.62.93-5.24,1.87-7.88,2.75a1.14,1.14,0,0,0-.91,1.06l-4.21.59.09,1.44c-.59.05-.46-.52-.74-.69s-.6-.31-.89-.49a.53.53,0,0,1-.2-.28c-.36-1.19-.75-2.37-1-3.58a1.28,1.28,0,0,1,.72-1.48c.3-.17.8-.32.84-.54.14-.76.65-.9,1.25-1a72.89,72.89,0,0,0,9.49-3l4.22-1.44c0-1.3-1.24-2.07-1-3.3-3.22.13-4.32.5-6.61,2.12a2.66,2.66,0,0,1-.79.36L68.16,50.9a5,5,0,0,1-.74.09,6.93,6.93,0,0,1-1.36-2.24,1,1,0,0,1,0-.69,7.52,7.52,0,0,0,.34-1,2.54,2.54,0,0,0-.24-.85,2.56,2.56,0,0,0,.73-.17,15.71,15.71,0,0,1,4-1.49c.67-.2,1.32-.36,1.66-1.16.13-.31.77-.47,1.2-.59,2.5-.73,5-1.42,7.51-2.13a6.73,6.73,0,0,0,1.16-.44.68.68,0,0,0,.27-1c-.3-.49-.62-1-1-1.58a8.74,8.74,0,0,0-1.31.19c-2,.6-4.08,1.24-6.12,1.87a1.59,1.59,0,0,0-.66.25A4.84,4.84,0,0,1,71,41L64.68,42.6a5.47,5.47,0,0,1-1.39-3.93.82.82,0,0,1,0-.35,1.94,1.94,0,0,0-.34-2,2,2,0,0,1,1.35-1c.51-.16,1-.27,1.54-.41l7.68-2.19c1.42-.4,2.85-.77,4.28-1.16l1.55-.41a7.34,7.34,0,0,0-.29-2.55,8.1,8.1,0,0,0-1.24,0c-2.34.38-4.65.88-7,1a12.81,12.81,0,0,0-3.11.71,35,35,0,0,0-6.23,3c-1.55-1.27-1.7-2-.72-4.13l-.72-.89A5.79,5.79,0,0,1,64,25.88c2.39-.4,4.74-1.06,7.12-1.52a18.77,18.77,0,0,0,3.35-1.14c.35-.14.67-.28.75-.68.12-.62.56-.1.9-.22.27-2.28-1.09-4-1.77-6a7.64,7.64,0,0,1-1.5-.49,4.38,4.38,0,0,1-1.2-1q-1.9-2.35-3.71-4.77a2.1,2.1,0,0,1-.38-1A1.72,1.72,0,0,0,66.4,7.62C65.22,7.09,64.09,6.45,62.86,6c-.32.4,0,.58.17.77a46.63,46.63,0,0,1,4.37,7.31c.17.34.52.68.25,1.24l-1-.53c-.05.09-.15.18-.14.26,0,.53.12,1.06.15,1.59A1.53,1.53,0,0,1,66.26,18a3.05,3.05,0,0,1-2.2-1.34l-.37,1.07c-.64.14-.8-.31-1-.65-1.34-2.5-2.74-5-4-7.54a12,12,0,0,0-4.13-4.77,3,3,0,0,0-3.4-.32,15.87,15.87,0,0,0,3.13,4.3,16.77,16.77,0,0,1,5.05,7.4c.15.45.27.91.41,1.36.28.91.33,1.73-.62,2.34-.22.14-.31.48-.48.76l-1.54-.37c-.1-.11-.22-.18-.26-.29a18.25,18.25,0,0,0-3.78-6c-1.61-1.82-3.14-3.7-4.76-5.52-.78-.88-1.67-1.68-2.5-2.52a1.74,1.74,0,0,0-1.63-.5l-4.45.8c-.15.43.12.49.31.62.64.42,1.28.86,1.93,1.26.24.15.55.36.78.31A1.42,1.42,0,0,1,44.2,9c.48.52,1,1.05,1.4,1.61a45,45,0,0,1,5,8.35,7.06,7.06,0,0,1,.48,4.68,2.68,2.68,0,0,1-.42,1A1.28,1.28,0,0,1,49,25a3.3,3.3,0,0,1-1-.78,12.75,12.75,0,0,1-1.28-1.91q-2-3.78-3.86-7.6a6.16,6.16,0,0,0-2-2.4,24.39,24.39,0,0,0-4.54-2.41,3.67,3.67,0,0,1-1.9-1.16c.33,0,.57-.12.73,0,1.35.61,2.71,1.2,4,1.88s2.34,1.38,3.49,2.07c.35-.26.11-.44,0-.6a7,7,0,0,0-2.67-2c-2-.82-4-1.57-6-2.32A1.91,1.91,0,0,0,31.87,8a2,2,0,0,1,.57.35c.08.1.06.41,0,.45-.46.27-.94.49-1.42.71l-1.49.68c0,.49.28.46.47.56l3.35,1.64c.57.28,1,.79,1.77.69.2,0,.51.27.67.49q2.44,3.39,4.84,6.81c.17.24.27.53.44.77,1,1.45.64,2.93.09,4.4-.34.93-1.16,1.05-2,.47a15.17,15.17,0,0,1-5.35-6.94,5.68,5.68,0,0,0-2.29-2.85c-1.2-.75-2.44-1.45-3.68-2.14a8.81,8.81,0,0,0-1.14-.48,7.31,7.31,0,0,0-2.47-.87,7.11,7.11,0,0,0-2.45,1C20.86,14.1,20,14.53,19,15a10,10,0,0,0-.88.57l2.11.86,3.64,1.43a1.57,1.57,0,0,1,1.1,1c.1.34.5.63.82.85a23.85,23.85,0,0,1,6.31,6.91A17,17,0,0,1,33,28.26a2.84,2.84,0,0,1-2.23.93,5.71,5.71,0,0,0-1.9.29,1.37,1.37,0,0,1-1.18-.12c-.63-.4-1.17-1-2.06-.82-.16,0-.43-.19-.56-.37-.72-.94-1.43-1.89-2.1-2.86-.33-.48-.29-.55.24-1.4a5.54,5.54,0,0,0-2-1.9,14.11,14.11,0,0,0-8.39-1.73,1.88,1.88,0,0,0-.92.45c-.41.33-.77.72-1.15,1.09ZM83.09,195.37q1.05-8.64,2-17.29c.21-1.82.33-3.66.5-5.48a1,1,0,0,1,.57-.95c.28,1.54-.38,3-.08,4.61a52.68,52.68,0,0,0,1.11-7c-.3-.37-.58-.23-.86-.15-2.88.92-5.75,1.85-8.63,2.76-.73.23-1.49.38-2.23.56a4.47,4.47,0,0,0-.69.15,42.17,42.17,0,0,0-4.74,2.18c0,.67-.06,1.32-.08,2-.12,3.49-.17,7-.39,10.48s-.61,7-.92,10.44c-.1,1.06-.23,2.12-.27,3.19a13.34,13.34,0,0,0,.16,1.8c-.68,1.15-.73,1.4-.62,3.12,1.7-.28,11.58-4.25,14-5.61A20.87,20.87,0,0,0,83.09,195.37ZM66,159l-.16-1.38,1.35-.14c.21-1.07.41-2.17.66-3.26s.56-2.3.91-3.42a4.55,4.55,0,0,0,0-1.93c-.23-2.12-.47-4.24-.67-6.36a15.76,15.76,0,0,1,0-1.62c.31-.44.63-.3.9-.31a1.88,1.88,0,0,0,1.52-.79A10.47,10.47,0,0,1,74,137.07a6.48,6.48,0,0,0,1.8-1.4,6,6,0,0,1,1-1,1.24,1.24,0,0,1,1.86.3,15.86,15.86,0,0,1,1,1.87c.27.55.53,1.08,1.23,1,.42,1.48.77,2.86,1.22,4.2s1,2.66,1.45,4a2.12,2.12,0,0,0,1.62-.6c-.35-1.58-4.51-12.93-5.23-14.27-1.68,0-14.79,2.24-16.21,2.73,0,.82,1,1.33.73,2.37l-1.57-.86c.89,2,2.44,3.3,3.07,5.15,0,0,0,.11-.06.15a.79.79,0,0,1-.13.12c-.57-.07-.66-.6-.93-1-1.13-1.59-2.27-3.17-3.4-4.77a2.2,2.2,0,0,0-2.29-1c-.88.12-1.77.17-2.65.23a15.53,15.53,0,0,1-1.6.07,1.06,1.06,0,0,1-1.12-1.13c-.57,0-1.1,0-1.62-.12a12.72,12.72,0,0,1-1.34-.35c-.55.28-.5.74-.34,1.22q.71,2.1,1.43,4.2c.13.38.29.76.44,1.14a5,5,0,0,0,2.17-.06,4.57,4.57,0,0,1,4.06,1.3,15,15,0,0,1,3.18,4.24,20.92,20.92,0,0,1,2.24,10.3c-.06,1.59-.17,3.17-.27,4.89A3.9,3.9,0,0,0,66,159Zm-13-8c1.8-.75,3-2.24,4.47-3.44.63-.52.66-.85.25-1.54a3.93,3.93,0,0,0-3.18-2.31l-.77,1-.22-1.36a6.4,6.4,0,0,0-.9.67c-.19.21-.23.63-.44.74a1.53,1.53,0,0,0-.76,1.95c.13.61.21,1.21-.64,1.34a43.29,43.29,0,0,0,3.82,7.58,3.81,3.81,0,0,0,3.51,1.69,1.3,1.3,0,0,0,1.44-1.27,12.92,12.92,0,0,0-.05-5.1c-.18-.73-.4-1.45-.64-2.29-.53.32-.94.54-1.33.8-1,.69-2.06,1.38-3.06,2.11a1.1,1.1,0,0,1-1.74-.25C52.83,151.19,52.87,151,53,151Zm12.32,65.9c1-.19,1.9.05,2.77-.37s1.65-.65,2.47-1c1.69-.71,3.36-1.48,5.06-2.16,1.05-.42,1.92-1.27,3-1.57s2-.51,3-.91c.6-.24,1.18-.51,1.84-.79v-1.68a9.65,9.65,0,0,0-3.1.79c-2.45.9-4.88,1.84-7.32,2.75a3.82,3.82,0,0,1-2.22.38,2.41,2.41,0,0,0-2.17,1,2.55,2.55,0,0,0-2.55.33,2.06,2.06,0,0,1-1,.21c-.34,0-.68,0-1.12,0A13.49,13.49,0,0,0,65.28,216.9Zm9.15-75.59c0-.15-.2-.28-.35-.49a2.59,2.59,0,0,0-.77.29A8,8,0,0,1,71,142.44c-1.11.41-1.21.83-.76,1.89a15.08,15.08,0,0,1,.68,2c.26,1,.46,2,.68,2.94.07.34.24.76.13,1-.51,1.18-.07,2.46-.65,3.73,1.07-.24.9-1.08,1.18-1.69.27-.06.56-.11.84-.18a.78.78,0,0,0,.66-.74,2.71,2.71,0,0,1,1.92-2.53C75.27,146.31,74.86,143.81,74.43,141.31Zm5.51,8.34a1.59,1.59,0,0,0,.15-1c-.39-2.39-.8-4.77-1.25-7.15-.17-.91-.65-1.36-2.14-2.25-.26.19-.52.39-.8.58s-.49.28-.7.4c0,.21,0,.39.1.42a1.73,1.73,0,0,1,1.1,1.22c.59,2.22,1.19,4.44,1.56,6.72a2.8,2.8,0,0,1-.72,2.6A3.13,3.13,0,0,0,79.94,149.65ZM54.19,211a8.94,8.94,0,0,0,.91,1.51,75.22,75.22,0,0,1,7.43,13.27,16,16,0,0,1,.61,1.85c.14.45.24.92.76,1.11.4-.09.34-.43.36-.7a8,8,0,0,0,.14-2.62A7.57,7.57,0,0,0,63,223.21a92.58,92.58,0,0,1-8.19-13.45c-.16-.31-.33-.62-.65-1.23A2.77,2.77,0,0,0,54.19,211Zm6.4-23.35A14.93,14.93,0,0,0,61.7,190c1.36,2.07,2.8,4.08,4.21,6.11a3.17,3.17,0,0,0,.49.42c.42-1.71.72-3.22-.71-4.61s-2.55-2.77-3.84-4.15c-.34-.36-.63-.84-1.34-.89A2.67,2.67,0,0,0,60.59,187.64Zm-1,25.22c.62.66,1.31,1.27,2.13,2.06-.94,0-1.26-.77-1.9-.77,0,.13-.1.27-.06.34q2.28,3.68,4.59,7.34a2.66,2.66,0,0,0,.45.41c.39-.57.22-1.17.28-1.72a4.87,4.87,0,0,0-1.49-4.16c-1.63-1.7-3.15-3.51-4.73-5.25-.21-.23-.35-.61-.88-.53A8.55,8.55,0,0,0,59.57,212.86ZM62,176.58a30.55,30.55,0,0,0,4.83,8.17,3.59,3.59,0,0,0,.19-3,38,38,0,0,0-4.79-6.56s-.11,0-.45-.11A10.53,10.53,0,0,0,62,176.58Zm.23,6c1.2,1.36,2.23,2.87,3.33,4.33.38.51.74,1,1.13,1.61a2.27,2.27,0,0,0,.16-2.34,2.24,2.24,0,0,0-.2-.29L62.07,180c-.07-.08-.19-.12-.44-.26A2.4,2.4,0,0,0,62.2,182.58ZM64.5,224c0-.19.06-.39,0-.51a105.29,105.29,0,0,0-7.84-12C57.34,214,62.8,222.49,64.5,224Zm-6.11-44.74c-.18,5.19-.55,10.37-.66,15.79.26-.29.43-.39.45-.51a24.87,24.87,0,0,0,.33-2.81c.06-2.49.06-5,.08-7.46a5.13,5.13,0,0,1,.49-2.58,3,3,0,0,0,.05-2.41c-.06-.19-.26-.33-.44-.56C58.55,178.94,58.4,179.08,58.39,179.23ZM81.63,213a1,1,0,0,0-.2.48q-.35,6.74-.68,13.47a2.68,2.68,0,0,0,.12.51,8.17,8.17,0,0,0,.39-1.31,111.08,111.08,0,0,0,.8-13.28C81.84,212.89,81.68,212.89,81.63,213ZM45.71,193.45c.56,1,1.16,1.93,1.76,2.88.16.25.32.59.56.67,1,.33,1.53,1.21,2.3,1.91.1-2-2.2-4.47-5-6.81A7.81,7.81,0,0,0,45.71,193.45Zm22-15.81a8.13,8.13,0,0,0,.61-2.74,1,1,0,0,0-.12-.51,9.09,9.09,0,0,0-3.26-2.8A24.37,24.37,0,0,0,67.72,177.64ZM54.44,204.75a9.34,9.34,0,0,0,.91,1.52c1.9,2.34,4,4.53,6,6.75.12-.11.19-.14.19-.18a.28.28,0,0,0-.06-.16c-.29-.45-.55-.92-.87-1.34-.94-1.22-1.87-2.45-2.86-3.63s-2-2.21-3-3.3a1.24,1.24,0,0,0-.35-.17C54.43,204.43,54.37,204.63,54.44,204.75Zm-2.8-6.16a5.48,5.48,0,0,0,1.66,3.17l4.87,4.88c.05.05.17,0,.27.07A32.56,32.56,0,0,0,51.64,198.6ZM69,145.31c.51,2.9.35,5.87.94,8.77,0,0,.11,0,.23,0,.35-.26.27-.7.28-1.07a32.84,32.84,0,0,0-.92-8.42c0-.2-.26-.36-.54-.73A9.81,9.81,0,0,0,69,145.31ZM68,182c.16.46.39.88-.1,1.27-.31,1.51-.66,3,.91,4.29a4.77,4.77,0,0,0,.26-.89c.08-1.12.14-2.24.19-3.37a3.26,3.26,0,0,0-1-2.49A.85.85,0,0,0,68,182Zm-17.9,28.4q0-4.06,0-8.12a4.61,4.61,0,0,0-.18-1.21c-.05-.18-.28-.31-.55-.59-.05.46-.11.74-.11,1q0,4.32,0,8.65a4,4,0,0,0,.14,1c0,.13.25.2.61.46C50.08,211.09,50.14,210.75,50.14,210.41Zm29,10A16.43,16.43,0,0,1,80.38,214a5.83,5.83,0,0,0,.22-.82c-1.25.09-1.38.16-1.46.91-.1.94-.16,1.88-.2,2.82q-.19,3.62-.35,7.25c0,.65,0,1.29,0,1.94l.17.05C78.91,224.27,79.15,222.34,79.19,220.4ZM65.84,201.52c.35-1,.42-1.36,0-1.91-1.18-1.39-2.44-2.73-3.67-4.08,0,0-.08,0-.12,0A15.26,15.26,0,0,0,65.84,201.52Zm1.48-21a1.76,1.76,0,0,0-.33-1.94c-1-1.37-2.07-2.73-3.38-4.44A15.47,15.47,0,0,0,67.32,180.52Zm-.79,9.14c-1.12-1.5-2.26-3-3.41-4.49-.1.14-.16.19-.17.24a.26.26,0,0,0,0,.17q1.66,2.82,3.33,5.64c.05.08.18.12.44.27A2.13,2.13,0,0,0,66.53,189.66Zm6.69-61.07c.81.44.81.45,2.36.21a7.34,7.34,0,0,0,3.3-1.22C76.57,126.94,74.92,127.77,73.22,128.59Zm-9.32,60.57a14.7,14.7,0,0,0-2.75-5.22,2.83,2.83,0,0,0-.39,2C61.66,187.06,62.7,188,63.89,189.16Zm-2.7,8.29a3.15,3.15,0,0,0,.1.83,12.68,12.68,0,0,0,3.57,4.53c.07.06.19,0,.29.07A13.14,13.14,0,0,0,61.19,197.45Zm7.12-18.68c-.08.46.14.74.92,1.75a14.54,14.54,0,0,0,.22-4.06,4.5,4.5,0,0,0-.33-1.13A10.42,10.42,0,0,0,68.31,178.77ZM68.15,212a23.59,23.59,0,0,0,4-1.88,28.32,28.32,0,0,0-5.23.7ZM52,.91a2.12,2.12,0,0,0,.22.63,3.59,3.59,0,0,0,2,1.28,1.22,1.22,0,0,0,.8-.14c.16-.09.22-.37.32-.56C53.94,1.05,53.13.76,52,.91ZM61.26,205c-.33.67,0,1.12.22,1.57a8.37,8.37,0,0,0,2.62,3.7A36,36,0,0,0,61.26,205Zm19.91-91.84a11.06,11.06,0,0,0-.68-4.07c-.26-.64-.31-.69-1-1.29A19.79,19.79,0,0,0,81.17,113.15ZM76,124.43c.13,0,.2-.24.4-.49-1.33-.37-2.45.27-3.6.4a1,1,0,0,0-.95.92A16.25,16.25,0,0,0,76,124.43Zm-8.28,64.06a2.47,2.47,0,0,1,.53,2,10.5,10.5,0,0,0,.22,2.84c.15-1.32.31-2.64.43-4,0-.53,0-.54-1.1-1.5C67.73,188.17,67.62,188.41,67.69,188.48ZM95.19,87.85c-.35.36-.09.63-.05.9s.08.56.12.8c-.44.29-.59,0-.8-.21-.09,0-.21.06-.26.13a2.89,2.89,0,0,0-.35.61.44.44,0,0,0,.44.59,4.64,4.64,0,0,0,2.1-.86C96,89.08,95.84,88.32,95.19,87.85Zm-46-63.37a.94.94,0,0,0,1.12-.27,1.86,1.86,0,0,0,.32-1.51c-.83.43-.83.43-2.08.22C48.43,23.89,48.56,24.22,49.18,24.48ZM78.5,114.32a14.65,14.65,0,0,0-1.27-3.93A20.77,20.77,0,0,0,78,115.3C78.21,114.86,78.54,114.56,78.5,114.32ZM65,207.11a6.9,6.9,0,0,0-3.24-3.68A17.82,17.82,0,0,0,65,207.11Zm-3.34-54.3c-.45,0-.6.28-.56.65.11,1,.27,2.06.42,3.19A3.42,3.42,0,0,0,61.69,152.81ZM31,125.6a2.13,2.13,0,0,0,2.07.61,14.8,14.8,0,0,0-3-2.41A2.27,2.27,0,0,0,31,125.6Zm52.74,78.9c-.29-.44-.53-.12-.85,0l-.75-.84a1.3,1.3,0,0,0-.77,1.5,4.32,4.32,0,0,0,2.23,0ZM45.36,17a7.71,7.71,0,0,0,1.95,3.86A5.38,5.38,0,0,0,45.36,17ZM32.8,13.15c0,.2-.12.32-.08.39a1.34,1.34,0,0,0,.32.41l2.54,2.15.25-.28A7.73,7.73,0,0,0,32.8,13.15Zm-6.95-.86a11.17,11.17,0,0,0,3.63,1.81A4.11,4.11,0,0,0,25.85,12.29ZM42.22,9.75c.41-.27.19-.48.06-.63a6.18,6.18,0,0,0-2.94-1.85c-.09,0-.21.07-.44.15ZM59,132.8a9.64,9.64,0,0,0-3.34.93,13.65,13.65,0,0,0,4.25-.39C59.34,133,59.15,132.79,59,132.8ZM63,29.62c-.11,0-.27,0-.32.12a1.36,1.36,0,0,0-.23.59c0,.08.26.26.38.24a6.79,6.79,0,0,0,1.51-.39,9.16,9.16,0,0,0,1.34-.93ZM59.75,185.71a9.64,9.64,0,0,0,.74-4c0-.07-.17-.12-.37-.24A14.8,14.8,0,0,0,59.75,185.71ZM1.82,30.61c0-.08-.08-.2-.12-.31-.81.81-1,1.58-.91,3.46C1.18,32.57,1.51,31.6,1.82,30.61ZM62.15,6.75A14.77,14.77,0,0,0,61,5.43c-.05-.06-.21,0-.32,0a8.57,8.57,0,0,0,2.58,3.1A5.93,5.93,0,0,0,62.15,6.75Zm8.93,51.47c-.41.11-.51.45-.31.84,1.12-.14,1.29-.21,2.93-1.38C72.56,57.91,71.81,58,71.08,58.22Zm14.65,86.06a1.13,1.13,0,0,0,.55-1.18c-.13-.6-.59-.81-1.39-.89A4.41,4.41,0,0,0,85.73,144.28ZM44,4.64c-1.14-.18-1.87-.06-3.75.65A8.14,8.14,0,0,0,44,4.64ZM71.11,49.15c-1-.48-1.32-.4-2.7.9A5.1,5.1,0,0,0,71.11,49.15Zm-8.4,83c-.08,0-.18.33-.13.43s.35.23.42.17c.94-.69,2.11-.55,3.14-1.13C65,131.8,63.84,132,62.7,132.15Zm.52,74.05c-.34.26-.06.44,0,.58.46.61.94,1.21,1.42,1.8.11.14.13.13.84.07A22,22,0,0,0,63.23,206.2Zm24.72-39.5c-1.11-.13-1.72.19-2.73,1.42A4.78,4.78,0,0,0,87.95,166.71ZM50.16,138.54c.15-1,.06-1.37-.76-3.06A2.7,2.7,0,0,0,50.16,138.54ZM69.1,162.17a1.72,1.72,0,0,0,.19-1.61.93.93,0,0,0-.57-.54c-.21,0-.47.23-.89.48Zm.2-42.06a1,1,0,0,0,.51-1c0-.81-.16-1.61-.25-2.41H69.3Zm5.66-95a.5.5,0,0,0,.2-.42c0-.13-.18-.34-.29-.34a1.71,1.71,0,0,0-1.66.81A2.6,2.6,0,0,0,75,25.13Zm-4.16-13c-.11-.93-.55-1.55-1.86-2.61A4.66,4.66,0,0,0,70.79,12.15ZM65.58,162l.82,1.22c.14-.11.26-.16.28-.23.11-.59.2-1.19.32-1.94Zm9.17,53.45c-1.11.09-1.2.13-2.88,1.44A3.9,3.9,0,0,0,74.75,215.47ZM81,148.16c.49.13.66-.16.6-.44-.16-.67-.42-1.32-.63-2l-.29,0ZM48,176.23a5.83,5.83,0,0,0,.5-3.47A7.35,7.35,0,0,0,48,176.23Zm30.82-47.68.32.52-.89.72c.07.28.07.28,1.42-.07a2.63,2.63,0,0,0-.29-1.48Zm-29.6,87.93c.76-.54.26-1.14.24-1.66A1.53,1.53,0,0,0,49.22,216.48Zm8.14-102.84c.21.55.51,1.07.81,1.68a4.55,4.55,0,0,0-.33-2.3C57.43,113.08,57.24,113.34,57.36,113.64Zm12.48-.54a2.92,2.92,0,0,0-.52-2.63A4.47,4.47,0,0,0,69.84,113.11Zm11.75,38.53c-.14,0-.27.2-.37.33s-.1.27-.05.32.31.25.4.21a4.45,4.45,0,0,0,1.49-.93A2.7,2.7,0,0,0,81.59,151.63ZM48.62,7.38a5,5,0,0,0,2,2.11A4.09,4.09,0,0,0,48.62,7.38ZM85.47,62.94a10.9,10.9,0,0,0-1,.65.51.51,0,0,0-.11.46c.08.25.3.31.55.19l1.1-.51ZM68.28,156.07c1.16-.66.59-1.51.56-2.55A3,3,0,0,0,68.28,156.07ZM23.44,101.41c-.07-.86-.07-.86-1.18-2.17A3.22,3.22,0,0,0,23.44,101.41Zm12.27-83a2.14,2.14,0,0,0,.21.49c.47.57,1,1.14,1.44,1.7C36.85,19.09,36.85,19.09,35.7,18.37ZM82.52,95.45c1.33.27,1.38.25,2.29-.7A2.77,2.77,0,0,0,82.52,95.45ZM76,65.36a2.88,2.88,0,0,0,2.33-.59A4.07,4.07,0,0,0,76,65.36Zm1.73-31.68c.06,0,.07-.22,0-.3s-.17-.21-.24-.19c-.49.11-1,.24-1.46.37A1.08,1.08,0,0,0,77.76,33.68ZM69,46.8c.34,0,.67.16,1,.18.1,0,.3-.19.31-.31a.47.47,0,0,0-.23-.4,2,2,0,0,0-2,.61A5.67,5.67,0,0,1,69,46.8ZM52.63,209.17c.76-.85.77-1.36,0-2ZM80.1,84.41a2.91,2.91,0,0,0-.22-2.51A2,2,0,0,0,80.1,84.41Zm2.8-2.84.85-.55c0-.39-.31-.3-.5-.24-.61.2-1.17.48-1.19,1.37ZM45.46,13c-.28-1.09-.28-1.09-1.72-2.13A4.33,4.33,0,0,0,45.46,13ZM59.89,158.38c-.49,0-.57.3-.47.56a3.25,3.25,0,0,0,.62,1c.1.11.38,0,.73.08ZM49.57,22.22c.05-.85,0-1.5-.73-1.93C49,20.92,48.88,21.64,49.57,22.22ZM25,20.33a2.25,2.25,0,0,0-2.18-1A5.12,5.12,0,0,0,25,20.33Zm53.58,53.8.94-.18c-.17-.59-.18-1.17-1-1.28ZM74,67.57c.59.17.89-.16,1.21-.51-.28-.47-.69-.54-1.34-.44Zm-3.08,61.1s0-.09,0-.1-.11-.08-.15-.07l-2.35.48A3.19,3.19,0,0,0,70.87,128.67ZM48.55,128c-.08,0-.16.33-.1.43s.33.25.41.21a9.25,9.25,0,0,0,.94-.65l-.09-.2A10.58,10.58,0,0,0,48.55,128Zm27.3,22.1L75,151.28c.56.29.92.12,1.4-.28ZM59.66,199.35l-1.27-.83c-.32.66.1,1,.44,1.47ZM51.31,6.48C51.2,5.3,51.14,5.24,49.7,5ZM86.07,60.16c0-.13-.23-.32-.33-.31a1.24,1.24,0,0,0-.61.29.47.47,0,0,0-.08.44c.06.13.26.2.36.27A.6.6,0,0,0,86.07,60.16ZM50.91,200.36c0,.55,0,.76.09.89.26.42.49.91,1.18,1C52.27,201.37,51.51,201.15,50.91,200.36Zm5.36-84a5.91,5.91,0,0,0,0-2.46A5.28,5.28,0,0,0,56.27,116.39Zm22.92,37a.69.69,0,0,0,.73-.75c0-.11-.17-.32-.27-.33-.42,0-.7.31-.75.83C79,153.21,79.08,153.39,79.19,153.39ZM14.3,16.37c-.91-.48-.91-.47-1.53,1Zm66,108.77a10.15,10.15,0,0,0,.57,1.37,2.21,2.21,0,0,0,0-1.84C80.48,124.64,80.22,124.79,80.3,125.14ZM37,8l1.89.8A1.58,1.58,0,0,0,37,8Zm14.4,202.16h-.13v1.88l.13-.08ZM81.65,72c-1-.2-1.49-.13-2,.44C80.4,72.77,80.81,72.3,81.65,72Zm4.43,68.42c.36-.23.28-.74-.35-1.28Zm-8.44-2.37c-.05-.06-.34,0-.43.05a.43.43,0,0,0-.06.42,6.17,6.17,0,0,0,.73.59l.24-.23A6.5,6.5,0,0,0,77.65,138.09Zm-2-110c.15-.51,0-.89-.53-1.35C74.84,27.78,74.86,27.84,75.62,28.12ZM50.85,204.35c.47-1.28.47-1.28,0-1.94ZM79,205.49c.87.09,1.37,0,1.47-.85Zm4.59-152.9a6.83,6.83,0,0,0,.17.88c.07.2.13.46.57.41A1.14,1.14,0,0,0,83.55,52.59ZM15.63,17A2.59,2.59,0,0,0,17.54,17C16.77,16.5,16.26,16.43,15.63,17ZM68,197.73h0v-1h0ZM76.21,36.89c0,.18.21.36.36.5a.35.35,0,0,0,.3-.06,1.37,1.37,0,0,0,0-.61c0-.14-.21-.24-.41-.45C76.37,36.52,76.19,36.71,76.21,36.89Zm8.66,113.37c.09-.12,0-.39,0-.67a2.9,2.9,0,0,0-.59.23,4.45,4.45,0,0,0-.49.48A.7.7,0,0,0,84.86,150.25ZM26.72,9.69a1.21,1.21,0,0,0-1.43.45C26,10.48,26.23,10.11,26.72,9.69Zm43.8,46.82.93-.86c-.53-.38-.85-.2-1.2.16ZM67.83,217.57l-.08-.21-1.2.41.14.35ZM5.62,25.31a1.64,1.64,0,0,0,0-.58s-.13-.06-.14,0a1.28,1.28,0,0,0-.25.38,2.39,2.39,0,0,0,0,.57C5.4,25.49,5.59,25.42,5.62,25.31ZM60.37,180.12c.57-.42.57-.42.08-1.22Zm17.8-53.75c.57.52.68.58.91.32s0-.39,0-.7Zm-14.75,41.3a.93.93,0,0,0-.91-1.23ZM68,157.33a.49.49,0,0,0,.09.44c.16.17.52-.06.57-.38,0-.13-.07-.27-.15-.56C68.23,157.05,68,157.17,68,157.33Zm-1.58,54.91c-.73-.1-.73-.1-1,.85Zm.65-86c-.45-.56-.45-.56-.88.35ZM89.2,71.4c-.08-.05-.27.07-.42.11,0,.15,0,.39.14.44a6.27,6.27,0,0,0,1.1.27A7.51,7.51,0,0,0,89.2,71.4ZM79,75.14c.1.33.4.34.67.31.06,0,.18-.21.16-.23-.16-.18-.34-.34-.59-.59C79.12,74.89,79,75,79,75.14Zm7.38,69.94c-.19.22-.36.46-.12.75,0,0,.1,0,.15.07a4,4,0,0,0,.21-.56c0-.1,0-.22-.08-.33S86.42,145,86.39,145.08Zm.48-64a.33.33,0,0,0,.44.34c.13,0,.33-.25.31-.3a2,2,0,0,0-.4-.45C87.05,80.82,86.88,80.93,86.87,81ZM29.24,25.2l.18-.14-.49-.72-.25.24ZM68.68,142.83h.13l.05-.8h-.18ZM19.26,17.93v.15l.81,0,0-.19ZM66.7,202.45a2,2,0,0,0,.26-.39c0-.06-.08-.17-.12-.26l-.32.35ZM74.19,65c.1,0,.27.08.29,0a2.65,2.65,0,0,0,.3-.57,2.62,2.62,0,0,0-.37-.23ZM84.33,193.36h.09v-.71h-.09ZM65.42,38.6c0,.06.23.23.3.21a.56.56,0,0,0,.29-.33c0-.06-.18-.18-.33-.32C65.56,38.35,65.43,38.47,65.42,38.6ZM61,173h-.12v.8H61Zm23.78,17.52h-.07v.61h.07ZM73.22,65.11c.08-.12.24-.25.23-.37a.43.43,0,0,0-.27-.32c-.11,0-.25.12-.5.27ZM29.62,28.5l-1-1.07C28.52,28.13,28.77,28.44,29.62,28.5Zm29.6,84.88c.07-.13.23-.29.2-.38s-.23-.21-.35-.31l-.13.37Zm20.12,5.76h.13v-.92h-.13Zm-28,95.68H51.2v.9h.15Zm28.44,12.37h0v.52h0ZM77.32,148h-.13v1h.13ZM88,92.31a.9.9,0,0,0-1.24.43C87.32,93,87.58,92.63,88,92.31Zm-3.55-20.6a2.35,2.35,0,0,0,.47-.38c-.56-.24-.85,0-1.33.53A5.31,5.31,0,0,0,84.41,71.71ZM4.71,48.11a4.21,4.21,0,0,0,.43-.39S5,47.49,5,47.49c-.17.07-.33.16-.5.24ZM87.79,91.3s.06-.11,0-.16-.08-.12-.12-.11c-.28,0-.59,0-.83.41Zm-7.3,72.58c.07-.39.07-.39-.45-.54Zm1-89.48c.56.56.77,0,1.06-.31Zm-55.42,35-.17.13.41.6.21-.2ZM84.76,108l0,0,0,.13Zm-24.39,95.2c0-.13-.22-.22-.34-.33,0,.15-.12.31-.09.44s.18.26.34.47C60.32,203.56,60.41,203.38,60.36,203.25ZM87.72,72l-.23.36c.1,0,.21.12.29.1s.11-.16.17-.25ZM49.12,220.94h.17v-.75h-.17ZM85,84.06v.22l.72,0,0-.24Zm4.39-3.67c-.1-.16-.21-.32-.32-.48s-.22.1-.21.13a4.48,4.48,0,0,0,.16.56ZM16.84,81.9c-.11,0-.24-.09-.32-.06-.29.14-.23.36,0,.65ZM52.42,213.21l-.08-.2v.18ZM86.73,62.37l.07.9C87.46,62.79,87.46,62.79,86.73,62.37Zm-63.46,40.7.29-.28-.35-.34-.23.29ZM83.54,64.62c.06,0,.13-.25.12-.27a2.24,2.24,0,0,0-.39-.19l-.13.38A1.21,1.21,0,0,0,83.54,64.62Zm-60,34.88a2.24,2.24,0,0,0,.37.33c0-.1.12-.21.1-.3a2.91,2.91,0,0,0-.25-.53C23.59,99.33,23.49,99.46,23.52,99.5Zm35.38,77.9a3.55,3.55,0,0,0,.31.53.33.33,0,0,0,.26-.08c.14-.3,0-.51-.26-.66a1.26,1.26,0,0,0-.24-.06C58.93,177.31,58.89,177.37,58.91,177.4Zm3.49-14.2a.44.44,0,0,0-.16-.25c-.07,0-.19,0-.29,0l.2.41C62.26,163.29,62.4,163.23,62.39,163.2Zm5.19-31.76v.07l.44,0v-.07ZM84,147.1c0,.08,0,.21,0,.32.08-.06.19-.11.24-.19s0-.18,0-.28C84.14,147,84,147,84,147.1Zm-1.08.71c-.13.07-.19.24-.29.37a1.15,1.15,0,0,0,.46,0c.13-.06.21-.23.39-.44A1.71,1.71,0,0,0,82.89,147.81ZM26.71,26.66a1.15,1.15,0,0,0-.11-.2s-.09,0-.13,0l.1.21ZM57.54,127.45c.47.34.6-.15.86-.23C57.92,126.88,57.72,127.11,57.54,127.45Zm-2.3-2.11c.09,0,.26,0,.27,0a4,4,0,0,0,.15-.57c-.09,0-.2,0-.25,0a2.59,2.59,0,0,0-.26.38C55.19,125.26,55.21,125.34,55.24,125.34Zm32.84-43a1.64,1.64,0,0,0-.28,0s-.08.06-.11.09l.24.12Zm-8,141.51,0,.09.06,0ZM65.19,37.16c-.07,0-.09.17-.14.25s.2.08.25,0,.13-.16.2-.25C65.39,37.19,65.27,37.13,65.19,37.16Zm15.22,6-.31.49c.11,0,.25.12.31.08a1.36,1.36,0,0,0,.28-.34Zm0,21c0,.05,0,.12.08.15s.09,0,.14-.06l-.06-.09ZM63.68,28.75a.52.52,0,0,0,.16,0,.55.55,0,0,0-.09-.16s-.09,0-.14.06S63.65,28.74,63.68,28.75Zm-5.32,88.17s0,.08.07.12a.41.41,0,0,0,0-.14s0-.08-.07-.12A.38.38,0,0,0,58.36,116.92ZM47.8,177.24h-.08a.94.94,0,0,0,0,.14h.08A.92.92,0,0,0,47.8,177.24Zm34.91-31s-.13-.06-.19-.08a3,3,0,0,0,0,.33s.07,0,.11.07A1.44,1.44,0,0,0,82.7,146.28Zm1.49,2.3c0,.08,0,.19,0,.28.08-.06.2-.11.24-.2s0-.19-.06-.29C84.34,148.44,84.22,148.5,84.19,148.58ZM69.47,173.89c.08,0,.18-.06.28-.1s-.09-.2-.17-.24-.15.06-.23.1S69.42,173.88,69.47,173.89Zm16.37-57.13a1.77,1.77,0,0,0,0-.29s-.07-.06-.11-.09l-.09.27Zm-25.68,4,0,.12,0-.15ZM18.11,86c0,.06.06.2.09.3l.49-.37-.27-.25A1.47,1.47,0,0,0,18.11,86Zm43.84,84.51a1.16,1.16,0,0,0,.17-.33c0-.06-.11-.14-.17-.21l-.13.28Zm-6.15-47.89c0,.09.08.18.12.27.05-.09.14-.18.15-.27s-.08-.18-.12-.28C55.89,122.46,55.8,122.55,55.79,122.64Zm11.14,1c0-.1.13-.2.13-.3s-.1-.19-.15-.28l-.14.31Zm5.83-.08a.35.35,0,0,0-.13,0s-.07,0-.1.07l.13,0ZM100,88.7c0,.11-.1.23-.08.32s.17.09.26.13l.12-.32ZM22.44,21.29s.08,0,.12-.08-.09-.07-.13-.07-.08.05-.12.08S22.4,21.29,22.44,21.29ZM62,178.79s.11-.09.1-.12a1.76,1.76,0,0,0-.14-.28l-.11.13Zm-24.08-49.4s.08-.06.11-.09-.1-.06-.15-.05-.07.06-.11.09S37.86,129.39,37.91,129.39Zm46.55,5.52-.17-.1.05.15ZM61,158a.53.53,0,0,0,0-.16s-.07,0-.11,0l0,.16ZM64.09,9.55l0,.11h.08ZM58.16,3l0,.1.11-.07Zm3.9,162.43s-.07,0-.1,0a.39.39,0,0,0,0,.14s.07,0,.11,0A.31.31,0,0,0,62.05,165.47Zm26.45-97-.15.06.15.06Zm-68,25.8c.08,0,.16-.1.24-.16-.09,0-.17-.14-.26-.14s-.15.1-.23.15C20.36,94.16,20.44,94.25,20.52,94.25Zm75-8.06s-.07-.07-.11-.1a1.58,1.58,0,0,0-.09.27s.07.06.11.1A1.42,1.42,0,0,0,95.49,86.19Zm-2.11-6.45s-.07-.1-.11-.1-.12.08-.11.1a1.36,1.36,0,0,0,.12.25A1.28,1.28,0,0,0,93.39,79.74ZM82.87,83.59c.09,0,.17-.1.26-.15-.09-.05-.18-.15-.26-.15s-.18.1-.28.15C82.68,83.49,82.77,83.59,82.87,83.59ZM59.2,213.41s-.07,0-.1,0l.08.23A.63.63,0,0,0,59.2,213.41ZM58,212.05a1.75,1.75,0,0,0,.11-.18L58,211.8l-.07.12ZM21.39,91.86a.72.72,0,0,0,.12-.15s-.06-.07-.09-.1l-.08.12Zm36.74,27.72-.14-.09,0,.13Zm7.76-78.14.18.12s.05-.06.08-.09L66,41.39Zm5.22,15.65-.13.05.13.05Zm6.78,6.73-.07.13.12,0Zm-1.77-9.55-.12,0v.08Zm5.6.63,0,.18a.42.42,0,0,0,.14,0s0-.07,0-.11Z" style="fill:#dbb9b8"/><path d="M63.12,64.06a3.79,3.79,0,0,0-1.21.24c-1.86.59-3.74,1.13-5.57,1.8-3.5,1.29-7,2.67-10.44,4a5,5,0,0,1-2.13.55l-.32-.75-1.18.31.08.73c-5.35,1.34-10.56,2.68-15.8,3.92a32,32,0,0,1-4.22.5c-.11,0-.23-.19-.35-.29.47-.67,1.66-.14,1.83-1.29a4.21,4.21,0,0,0-1-.09,5.55,5.55,0,0,0-1.09.41c-.22-.63-.44-1.24-.64-1.85a.92.92,0,0,1,.58-1.29,19.79,19.79,0,0,0,2-.73,28.89,28.89,0,0,1,5-1.92c.39-.12.77-.27,1.11-.39.15-.56.3-1,.84-1.15s1-.37,1.52-.49C35.49,65.49,39,64.74,42.42,64a16.82,16.82,0,0,0,2.38-.69,102.88,102.88,0,0,1,10.64-3.41,36.12,36.12,0,0,0,7.68-2.71,3.93,3.93,0,0,1,1.06-.2c-.09.3-.19.47-.17.61.2,1,.39,2.07.65,3.09.06.23.36.41.57.6s.3.24.59.47l-1.4.72s0,.11,0,.17l.37.63A2,2,0,0,1,63.12,64.06ZM42.31,65.58l.83.23,0-.17-.86-.06-.78.6-.32.08s-.08.06-.11.1l.12.09.27-.32C42.17,66.17,42.17,66.17,42.31,65.58Zm-11.16,3c-.53-.11-.53-.11-.8.32l-.75-.13v.23l.69-.13C30.59,68.74,30.86,68.64,31.15,68.54Zm2.32,1.32a3.2,3.2,0,0,0,.81-.17c.16-.07.25-.28.38-.43l.4.05s-.05-.11-.06-.1l-.31.1-.65.1c-.3,0-.51.16-.53.5-.91-.22-.91-.22-1.29.4l-.78-.14v.14h.77Zm12.3-3.66a5.34,5.34,0,0,0-.62.29c.19.41.41.16.57.11l5.76-1.79c.31-.09.55-.21.52-.58.62.41,1.27,0,1.9.08.61-.19,1.2-.45,1.81-.59,1.66-.39,3.32-.74,5-1.11A5.11,5.11,0,0,0,62.37,62a8.62,8.62,0,0,0-3.91.19c-1.45.48-2.87,1-4.29,1.59-.14.05-.17.37-.26.57A2.17,2.17,0,0,0,52,64.27Q48.88,65.22,45.76,66.2Zm-14.28,1a12.8,12.8,0,0,0,1.31,0,46.21,46.21,0,0,0,9.5-2.13c.27-.09.51-.24.77-.36C41.11,64.77,33.57,66.51,31.48,67.24ZM26,72.44a3,3,0,0,0,2.56-.76C26.77,71.8,26.77,71.8,26,72.44ZM62.11,58.73c.19.52.56.59.88.44.52-.25.22-.68.18-1.46Zm.37,2.37c-.2-.28-.27-.49-.4-.53-.47-.14-.77.14-1.11.61ZM24.93,74.59c.12,0,.21-.19.31-.29-.12-.09-.24-.24-.36-.25s-.23.16-.42.3C24.68,74.47,24.82,74.61,24.93,74.59Zm-2.56-2.87.85-.36C22.69,71.29,22.41,71.24,22.37,71.72Zm.63,1v.19h.91v-.19Zm36.78-13,.29-.07s0-.1-.06-.1l-.29.07S59.77,59.7,59.79,59.7Zm-25.65,11,0-.09-.11.07ZM32.88,71,33,71V71Zm11.59-5.7-.14,0v.1ZM31.52,71.36l.12,0v-.09ZM63,60.32s0,.1,0,.14l.21,0-.06-.13S63,60.29,63,60.32Z" style="fill:#dbb9b8"/><path d="M22.72,61.55a3.32,3.32,0,0,0,.84-.29c2.85-1.15,5.7-2.32,8.56-3.45,1.43-.56,2.88-1.06,4.33-1.59l4.32-1.6c1.1-.42,2.19-.9,3.31-1.27,4.71-1.58,9.5-2.92,14-5.08l.16-.08c.78-.31,1-.21,1.45.49.32.55.68,1.07,1.08,1.7a1.12,1.12,0,0,0-.14,1.37,1.62,1.62,0,0,0,1.44.87c.34,0,.68.08,1,.12,0,.19,0,.38-.06.4-1,.46-1.78,1.34-2.94,1.51a9.59,9.59,0,0,0-1.36.41c-3.45,1.06-6.88,2.17-10.35,3.17a83.4,83.4,0,0,0-10.92,3.67c-1.35.6-2.86.87-4.14,1.58a13.78,13.78,0,0,1-3.86,1.23c-.81.18-1.63.29-2.44.47-2.82.63-5.75.82-8.33,2.32-.17.1-.45.17-.53-.16.15-.64,1.05-.5,1.21-1.17-.4-.38-.8-.73-1.17-1.1a.86.86,0,0,1-.21-1c.15-.38.35-.74.5-1.06A14.94,14.94,0,0,1,22.72,61.55Zm28.1-7.06c1.57-.29,3.14-.58,4.71-.89.64-.13,1.27-.29,1.9-.44a2,2,0,0,1,1.39,0,1.07,1.07,0,0,0,.67,0c.28-.08.58-.23.55-.59a.57.57,0,0,0-.62-.51,2.87,2.87,0,0,0-.88.1q-3.68,1-7.36,2c-.13,0-.21.24-.32.36-.49-.08-1-.22-1.24.43L49,54.91V55h.67ZM59.09,50a.48.48,0,0,0,0-.17c0-.11-.07-.27-.14-.29a.59.59,0,0,0-.46,0c-.36.27-.3.58,0,.86l-.63-.16,0,.1.64.06ZM35.74,61.44A7.77,7.77,0,0,0,32,62c-.1,0-.13.3-.19.46l-.73-.18,0,.18.7,0C33.11,62.14,34.43,61.79,35.74,61.44Zm.68-2.27a6.57,6.57,0,0,0,4.19-1.12A11.54,11.54,0,0,0,36.42,59.18ZM21.87,64.86a1.14,1.14,0,0,0-1.19-.79C20.43,65,20.56,65.1,21.87,64.86Zm3.57-3.57c-.09,0-.18.09-.34.19a2.63,2.63,0,0,0,.5.07c.09,0,.18-.09.34-.18A2.58,2.58,0,0,0,25.45,61.29Zm-6.54,3a4.44,4.44,0,0,0,.44.47c0-.09.16-.21.13-.27a4.34,4.34,0,0,0-.36-.57C19,64.11,18.88,64.25,18.9,64.28Z" style="fill:#dbb9b8"/><path d="M20.14,51.33c.83-.32,1.66-.62,2.49-.93A55.58,55.58,0,0,1,34.72,47a1.55,1.55,0,0,0,.81-.3,9.28,9.28,0,0,1,3.33-1.61c3.23-1.15,6.47-2.26,9.71-3.4A6.48,6.48,0,0,0,50.2,41c2-1.42,4.37-1.7,6.7-2.44a17.18,17.18,0,0,1,1.26,2.94,7.63,7.63,0,0,1,.32,3.27c-.53.16-1,.29-1.43.44-4.92,1.69-9.91,3.15-14.95,4.47a32.41,32.41,0,0,0-7.69,2.65,3.39,3.39,0,0,1-.66.25L18.82,57.08a10.85,10.85,0,0,1-1.56.31,1.54,1.54,0,0,1-.53-.15v-1c-.36-.38-.93-.22-1.17-.79-.35-.87-.87-1.67-1.3-2.52a4.82,4.82,0,0,1-.35-1,.45.45,0,0,1,.58-.46,2.76,2.76,0,0,1,.72.48c.41.42.77.88,1.21,1.4C17.44,52.19,18.83,51.84,20.14,51.33Zm4.61-1.07-.17.15a.35.35,0,0,0,.14,0,.18.18,0,0,0,.11-.09,2.12,2.12,0,0,0,.08-.28l.5,0h-.5ZM19.07,55c.4.16.6.09.58-.33l.31.06a.37.37,0,0,0-.11,0H19.7C19.49,54.79,19.3,54.89,19.07,55ZM50,43.93a35.72,35.72,0,0,0-6.45,1.55A11.77,11.77,0,0,0,50,43.93Zm-19.57,6c.19.54.57.51.9.44a7.36,7.36,0,0,0,3.24-1.57ZM52,41.14c.85.34.85.34,3.41-.43C54.12,40,53.55,40.13,52,41.14ZM54,43.79A6.28,6.28,0,0,0,56.61,43a.53.53,0,0,0,.2-.76c-.12-.23-.66-.34-.75-.11-.42,1-1.44,1.05-2.25,1.46C53.87,43.65,53.91,43.79,54,43.79Zm3.5.16a.47.47,0,0,0-.21-.4c-.57-.11-.84.22-.94.75A.8.8,0,0,0,57.46,43.94ZM18.67,53.1c-.25.08-.49.17-.73.27a.72.72,0,0,0,0,.13c.26-.05.51-.11.77-.18,0,0,0-.1.07-.15S18.71,53.08,18.67,53.1ZM56.51,40.38c-.05-.43,0-.69-.12-.81-.27-.3-.48,0-.93.09ZM33.7,50.73c-.06,0-.07.17-.1.26s.21.08.29,0a4.91,4.91,0,0,0,.62-.45A5.7,5.7,0,0,0,33.7,50.73Zm5.91-1.46,0,.09.1-.07Zm11.55-5.6,0-.09-.12.07Z" style="fill:#dbb9b8"/><path d="M37.75,105.37c5.43-.91,10.75-2.34,16.1-3.65a7.46,7.46,0,0,0,1.33-.48c.86-.39,1.67-.88,2.55-1.23q4.79-1.88,9.61-3.69c2.14-.81,4.22-1.87,6.51-1.77.48-.6-.4-1,.09-1.7.94.85,1.17,2.07,1.82,3a6.07,6.07,0,0,1,1,3c-1.59.53-3.11,1-4.6,1.55s-3,1.15-4.46,1.74c-.06,0-.08.16-.12.24l.93.31c-.06.49-.39.46-.67.51l-7,1.39c-.69.14-1.4.17-1.81.91-.12.21-.49.33-.77.39a27.81,27.81,0,0,1-5.23.94c-.67,0-1.44-.12-1.8.76-.06.15-.4.22-.63.25-.94.14-1.88.25-2.82.37-.47.06-.94.07-1,.74,0,.4-.47.49-.82.56-2,.38-4.07.78-6.11,1.1a17.4,17.4,0,0,0-3.44.82,6.48,6.48,0,0,1-1.54.32.92.92,0,0,1-1-.61c-.37-1-.69-2-1-3-.05-.18.09-.42.12-.55.6-.33.85.61,1.42.14l-.48-.88A13.63,13.63,0,0,1,37.75,105.37Zm35.56-9.69c.05,0,.1-.14.15-.22s-.12,0-.17,0-.31.15-.46.23l-.18.22s.08-.05.1-.09a.74.74,0,0,0,0-.17A3.32,3.32,0,0,0,73.31,95.68ZM43,106.1c.48.27.94.43,1.3-.13h.59l-.08-.23-.47.28Zm21.5-4.83c.49.15.64.25.74.22.91-.26,1.82-.52,2.71-.84.17-.06.26-.33.39-.5l.93.2c-.38-.44-.64-.14-.88-.16C67.2,100.51,66,100.84,64.5,101.27ZM34.81,109c-.1.85,0,1.07.53,1,.87-.13,1.73-.31,2.6-.47A6.45,6.45,0,0,0,34.81,109Zm19.92-4.44c-.08,0-.11.18-.16.28s.17.22.22.21a10.87,10.87,0,0,0,3.93-1.81C57.39,103.67,56.06,104.1,54.73,104.55Zm19.86-6.48c.1,0,.13-.23.19-.36a1.74,1.74,0,0,0-.44,0c-.09,0-.16.14-.4.37A2,2,0,0,0,74.58,98.08ZM36.06,110.91v-.15h-.74V111ZM70.45,99.8l-.15,0v.1Z" style="fill:#dbb9b8"/><path d="M67.9,72.23c-1.09.26-2.2.49-3.29.75-.4.1-.91.15-1.14.42a6,6,0,0,1-3,1.53Q53.27,77.37,46,79.72a12,12,0,0,1-2.78.53,15.32,15.32,0,0,0-3.3.65c-3.17,1-6.35,1.91-9.54,2.82a10.73,10.73,0,0,1-2.62.44c-2,.05-2.75-.53-3.41-2.42A7.74,7.74,0,0,1,24,80.56c-.13-.73.13-1.17.85-1.3A19,19,0,0,1,27.71,79,8.83,8.83,0,0,0,31,78.36,112.16,112.16,0,0,1,48.46,73a33.59,33.59,0,0,0,6.68-2.35c2.25-1.06,4.59-1.91,6.89-2.84a3.42,3.42,0,0,1,2.08-.25,1.28,1.28,0,0,0,.86-.1c1-.58,2.08-.36,3.12-.5.11,0,.25.16.49.32l-1.36.84c.14.25.22.4.31.55a2.4,2.4,0,0,1,.37.6,1.21,1.21,0,0,1,0,.82c-.11.18-.47.21-.75.32l-.42,1.1a22.77,22.77,0,0,0-6.25,1.72c.92-.16,1.82-.38,2.72-.6s1.73-.4,2.58-.64c1.72-.48,1.72-.49,2.78-.1A3.33,3.33,0,0,1,67.9,72.23ZM57.24,75.38s.1,0,.14-.06a.42.42,0,0,0-.14.06,1.63,1.63,0,0,0-.15.21h-.73v.06l.72,0A1.88,1.88,0,0,1,57.24,75.38Zm-31.69,7.5c.05.09.17.15.34.3a9.21,9.21,0,0,0,1.06-.3c.35-.14.8-.15,1.07-.66A10.94,10.94,0,0,0,25,82l1.47-2.29c-.66,0-1.29-.1-1.81.41-.15.68.26,1.24.38,1.84C25.22,82.27,25.38,82.58,25.55,82.87Zm39-11.78a5.3,5.3,0,0,0,1-.41c.07,0,.11-.21.09-.3a.39.39,0,0,0-.21-.24.54.54,0,0,0-.35,0c-1.66.6-3.33,1.2-5,1.83-.12,0-.17.28-.26.42l-.62-.12v.18l.56-.09C61.41,71.95,63,71.53,64.6,71.09ZM45,74.74a45.55,45.55,0,0,0-7.32,2.59c.08.33.36.2.52.18A32.17,32.17,0,0,0,46,74.62,7.57,7.57,0,0,0,45,74.74ZM29.66,80.47a4.2,4.2,0,0,0,3.25-.74A9.47,9.47,0,0,0,29.66,80.47Zm20.89-4.21a4.23,4.23,0,0,0-2.87.53A3.11,3.11,0,0,0,50.55,76.26ZM35,78.52s0-.06,0-.09l-.34,0s0,.06,0,.09ZM57.62,73.8a.61.61,0,0,0,.14.13s.09,0,.14,0l-.14-.13ZM59,73.56s.1.05.15,0a1.69,1.69,0,0,0,.25-.12l-.28-.09ZM46.79,78.88l.15-.06-.15-.06Zm9.73-4.64,0-.09-.11.07Z" style="fill:#dbb9b8"/><path d="M15.45,46.89,15.2,47c-1.29,0-1.5,1-1.75,2.12a3.72,3.72,0,0,1-.9-3.11.86.86,0,0,1,.4-.54A1.7,1.7,0,0,0,13.82,44a1.37,1.37,0,0,1,1-1.17c.83-.32,1.66-.63,2.51-.87,2.16-.61,4.34-1.16,6.51-1.76a3.65,3.65,0,0,0,1.47-.57,8,8,0,0,1,3.2-1.47c2.37-.75,4.76-1.43,7.13-2.16.33-.1.8-.2.92-.44.41-.8,1.18-.93,1.88-1.19,3-1.08,6.1-1.9,9.19-2.7a30.42,30.42,0,0,0,5-1.3c.45-.2.77.14,1.09.4-.18,1.14,0,1.55,1.39,3-.2-1-.38-1.75-.53-2.55,0-.23,0-.48.42-.46.64,1,.55,2.23,1,3.23l1.29.31a18.42,18.42,0,0,1-3.93,1.6c-.76.23-1.67.1-2,1.14,0,.15-.38.25-.6.32-.45.15-.91.25-1.37.38L33.52,42.23a16.84,16.84,0,0,0-4.08,1.69,7.53,7.53,0,0,1-3.55,1,6.16,6.16,0,0,0-1.72.34c-1.84.64-3.65,1.38-5.5,2a29,29,0,0,1-3.1.74.48.48,0,0,1-.62-.25l.21-.78Zm14-5.23a8.2,8.2,0,0,0-3.55,1.25c-.07,0-.08.2-.11.31l-.25,0s.08,0,.12,0,.08.06.12.09c1-.34,1.94-.67,2.89-1.06.28-.11.71-.1.76-.57.42.1.81.11,1-.35l.37-.14s-.11-.06-.13,0a2.34,2.34,0,0,0-.2.23C30.1,41.31,29.67,41.19,29.43,41.66Zm12.8-6.14a11.13,11.13,0,0,0,3-.77c.06,0,.06-.19.09-.29.79.33,1.43-.15,2.15-.37-.81-.12-.81-.12-2.11.41A8.7,8.7,0,0,0,42.23,35.52ZM21.06,43.65a2.79,2.79,0,0,0,.91.07,6.34,6.34,0,0,0,2.77-1.39l.37-.12s-.1-.06-.12-.05a2.5,2.5,0,0,0-.21.22A7.6,7.6,0,0,0,21.06,43.65ZM16.65,44c2.09-.78,4.17-1.58,6.25-2.39a5.83,5.83,0,0,0,.87-.63,57.62,57.62,0,0,0-7.9,2.09,1.59,1.59,0,0,0-1.24.84A2.91,2.91,0,0,0,16.65,44Zm.71.59c-.16.47,0,.81.3.77a9.61,9.61,0,0,0,2.82-.86l-.1-.34Zm19.13-4.39a3.29,3.29,0,0,0-2,.31l.09.35Zm16.75-6.4c.09.11.39,0,.74.05l-.49-.9C53,33.16,52.95,33.47,53.23,33.79ZM15.06,45.39c.67.41,1.06.45,1.46,0C16,44.88,15.67,45.22,15.06,45.39ZM52.34,32.63c-.32-.4-.55-.23-.85,0Zm-.55,1.45.15-.06L51.79,34Zm-10.2,1.75,0-.1-.13.07ZM37,36.58s0-.06,0-.1l-.23.06A.71.71,0,0,0,37,36.58Z" style="fill:#dbb9b8"/><path d="M31.22,97.13a18.68,18.68,0,0,1,2.63-1.05c1.25-.36,2.53-.6,3.8-.89s2.84-.38,3.9-1.49a32.11,32.11,0,0,1,5.9-1.93,42.74,42.74,0,0,0,5-1c4-1.16,8-2.27,12-3.4A4.3,4.3,0,0,0,65,87.1l.22-.83a23.4,23.4,0,0,1,2.5.25,3,3,0,0,1,2.32,2,2.35,2.35,0,0,1-.61,2.75,4.14,4.14,0,0,0-.39.49,25.94,25.94,0,0,0-3,.64c-3.09,1-6.17,2.09-9.21,3.25a76.28,76.28,0,0,1-14.33,4.07,52.83,52.83,0,0,0-6.23,1.41,12.88,12.88,0,0,1-3,.48,3.37,3.37,0,0,1-3.49-2.05l1.34-1.63C31,97.7,30.76,97.34,31.22,97.13Zm7.05,1.09a3.34,3.34,0,0,0-1.28.58,2.32,2.32,0,0,0,.67,0c1.89-.45,3.77-.92,5.65-1.41.17,0,.28-.33.42-.5l1,.18V97h-1C41.93,97.36,40.1,97.78,38.27,98.21Zm12.66-6.28c-.69,0-1,0-1.28,0s-.7.14-1,.19a18.41,18.41,0,0,0-4.28,1.1c-.18.07-.3.29-.45.45l-.25,0a.29.29,0,0,1,.1,0l.12.06A37.41,37.41,0,0,0,50.93,91.94ZM38.35,96.32c0-.71-.48-.59-.75-.52-1.66.41-3.31.86-5,1.31-.09,0-.15.16-.33.35C34.51,97.55,36.4,96.73,38.35,96.32Zm-5.41,3.88c-.68-1.31-.68-1.31-1.89-1.12.19.32.34.63.54.92a8.38,8.38,0,0,0,.62.7ZM68.53,88.27c-.41-.54-.73-.78-1.18-.73-.15,0-.27.26-.55.55Zm-3,.88s.08.11.12.11.32-.06.52-.1C65.95,88.93,65.75,88.93,65.57,89.15ZM46.12,96.65l.12,0-.12,0ZM66,91.22l0,.11.12-.08Z" style="fill:#dbb9b8"/><path d="M30.28,87.82c.94-.16,2,0,2.66-1.09.09-.16.42-.19.64-.25l7.24-1.8c1.84-.45,3.7-.83,5.51-1.36,1.53-.45,3-1.06,4.51-1.61.67-.25,1.33-.5,2-.81A36.49,36.49,0,0,1,59,78.69c1.37-.38,2.76-.7,4.1-1.16a4.31,4.31,0,0,1,3.4.25,4.09,4.09,0,0,1,.11,3.93l-1-.06a4.81,4.81,0,0,0-.78.91,1.84,1.84,0,0,1-1.22.92q-4.47,1.46-8.93,3a5.09,5.09,0,0,0-2.39,1.1,1.7,1.7,0,0,1-.82.29c-5.18,1.24-10.36,2.49-15.55,3.71a19.62,19.62,0,0,1-2.27.26c-.47.05-1.07-.05-1.37.2-.83.71-1.65.45-2.51.23A3,3,0,0,1,28,90.9a2.23,2.23,0,0,1-.17-2A5.12,5.12,0,0,1,30.28,87.82Zm6.91-1.56c-.47-.12-.48.12-.44.42a2.71,2.71,0,0,0-.46-.17c-.09,0-.19.05-.31.09.24.31.49,0,.73,0A5.08,5.08,0,0,0,37.19,86.25Zm3.06,2.61a5.69,5.69,0,0,0,3.27-.56s0-.11,0-.17l1.06.07a.66.66,0,0,0-1,0A11.15,11.15,0,0,0,40.25,88.86Zm8.14-3.17c.17-.05.27-.31.41-.47l1.13.15c-.45-.39-.77-.15-1.08-.11-1.21.28-2.4.57-3.58.9-.14,0-.21.35-.31.53l-.76-.22,0,.24.74-.07C46.08,86.34,47.24,86,48.39,85.69Zm-11,4c.1,0,.16-.26.19-.4s-.17-.19-.25-.18a14.74,14.74,0,0,0-3.85,1A11,11,0,0,0,37.4,89.7Zm-4.82,1.44c-1.46-.78-1.46-.78-2.55-.65A2,2,0,0,0,32.58,91.14ZM63.65,78.49l.12,1.24,1.14-.53Zm-8,4.11.08.17.75-.35-.08-.17Zm.8.77-.29.08s.05.1.07.09l.29-.08S56.5,83.36,56.48,83.36Zm7-.6a.72.72,0,0,0-.17-.12s-.08.06-.11.09l.14.07Zm-17.39,5v-.1H45.8v.1ZM57.6,83.08l-.11,0v.08Z" style="fill:#dbb9b8"/></g></g></g></g></svg>