<svg xmlns="http://www.w3.org/2000/svg" width="50" height="51" viewBox="0 0 50 51">
  <rect width="50" height="51" fill="#ff8d4e"/>
  <g transform="translate(11.684 54.007)" stroke-width="0">
    <g fill="#ff8d4e">
      <rect x="14.835" y="-45.622" width="7.5048" height="7.45" style="paint-order:markers fill stroke"/>
      <rect x="7.3297" y="-45.622" width="7.5048" height="7.45" style="paint-order:markers fill stroke"/>
      <rect x="3.7843" y="-41.924" width="7.5048" height="7.45" style="paint-order:markers fill stroke"/>
      <rect x="7.2778" y="-31.091" width="7.5048" height="7.45" style="paint-order:markers fill stroke"/>
      <rect x="14.783" y="-31.091" width="7.5048" height="7.45" style="paint-order:markers fill stroke"/>
      <rect x="18.454" y="-27.257" width="7.5048" height="7.45" style="paint-order:markers fill stroke"/>
      <rect x="14.841" y="-18.606" width="8.0255" height="7.836" style="paint-order:markers fill stroke"/>
      <rect x="7.8568" y="-18.606" width="7.5048" height="7.836" style="paint-order:markers fill stroke"/>
      <rect x="1.8018" y="-18.279" width="7.5048" height="7.45" style="paint-order:markers fill stroke"/>
      <rect x="3.7843" y="-34.474" width="7.5048" height="7.45" style="paint-order:markers fill stroke"/>
      <rect x="18.061" y="-21.259" width="7.9081" height="7.45" style="paint-order:markers fill stroke"/>
    </g>
    <g fill="#242539">
      <rect x="22.339" y="-46.14" width="2.0195" height="8.7496" style="paint-order:markers fill stroke"/>
      <rect transform="rotate(90)" x="-47.642" y="-24.359" width="2.0195" height="17.299" style="paint-order:markers fill stroke"/>
      <rect transform="rotate(90)" x="-38.172" y="-24.357" width="2.0195" height="13.067" style="paint-order:markers fill stroke"/>
      <rect x="5.3106" y="-47.651" width="2.0195" height="5.7373" style="paint-order:markers fill stroke"/>
      <rect x="1.7738" y="-43.192" width="2.0195" height="18.069" style="paint-order:markers fill stroke"/>
      <rect transform="rotate(90)" x="-43.933" y="-7.3301" width="2.0195" height="5.5535" style="paint-order:markers fill stroke"/>
      <rect transform="rotate(90)" x="-27.143" y="-7.3272" width="2.0195" height="5.5535" style="paint-order:markers fill stroke"/>
      <rect transform="rotate(90)" x="-23.637" y="-18.446" width="2.0195" height="13.067" style="paint-order:markers fill stroke"/>
      <rect x="5.3077" y="-27.143" width="2.0195" height="5.5018" style="paint-order:markers fill stroke"/>
      <rect x="8.8363" y="-23.637" width="9.6094" height="5.3742" style="paint-order:markers fill stroke"/>
      <rect x="22.866" y="-13.941" width="2.0195" height="5.0874" style="paint-order:markers fill stroke"/>
      <rect x="22.273" y="-32.722" width="2.0195" height="5.5018" style="paint-order:markers fill stroke"/>
      <rect x="11.284" y="-37.117" width="6.4809" height="5.5018" style="paint-order:markers fill stroke"/>
      <rect transform="rotate(90)" x="-33.037" y="-24.278" width="2.0195" height="13.003" style="paint-order:markers fill stroke"/>
      <rect transform="rotate(90)" x="-29.239" y="-27.978" width="2.0195" height="5.7047" style="paint-order:markers fill stroke"/>
      <rect x="25.957" y="-28.171" width="2.0195" height="16.065" style="paint-order:markers fill stroke"/>
      <rect transform="rotate(90)" x="-13.941" y="-27.964" width="2.0195" height="5.0982" style="paint-order:markers fill stroke"/>
      <rect transform="rotate(90)" x="-10.856" y="-24.813" width="2.0195" height="24.023" style="paint-order:markers fill stroke"/>
      <rect x="-.21464" y="-19.922" width="2.0195" height="11.084" style="paint-order:markers fill stroke"/>
      <rect transform="rotate(90)" x="-20.267" y="-18.082" width="2.0195" height="18.325" style="paint-order:markers fill stroke"/>
    </g>
  </g>
</svg>
