<?xml version="1.0" ?><svg enable-background="new 0 0 64 64" height="64px" id="Layer_1" version="1.1" viewBox="0 0 64 64" width="64px" xml:space="preserve" xmlns="http://www.w3.org/2000/svg" xmlns:xlink="http://www.w3.org/1999/xlink"><circle cx="32" cy="32" fill="#F5CF87" r="32"/><g opacity="0.2"><path d="M31.271,26.715L16.198,44.198c-0.674,0.674-0.674,1.767,0,2.441l0.771,0.771l-2.029,2.029   c-0.586,0.585-0.586,1.536,0,2.121C15.232,51.854,15.616,52,16,52c0.384,0,0.768-0.146,1.06-0.439l2.03-2.029l0.563,0.563   c0.674,0.674,1.767,0.674,2.441,0l17.678-14.86c-2.068-0.451-3.969-1.475-5.501-3.007C32.704,30.66,31.71,28.736,31.271,26.715z" fill="#231F20"/></g><circle cx="42.164" cy="24.836" fill="#231F20" opacity="0.2" r="9.164"/><circle cx="42.164" cy="21.836" fill="#E0995E" r="9.164"/><g><path d="M31.271,24.215L16.198,41.698c-0.674,0.674-0.674,1.767,0,2.441l0.771,0.771l-2.029,2.029   c-0.586,0.585-0.586,1.536,0,2.121C15.232,49.354,15.616,49.5,16,49.5c0.384,0,0.768-0.146,1.06-0.439l2.03-2.029l0.563,0.563   c0.674,0.674,1.767,0.674,2.441,0l17.678-14.86c-2.068-0.451-3.969-1.475-5.501-3.007C32.704,28.16,31.71,26.236,31.271,24.215z" fill="#4F5D73"/><path d="M48.045,28.867c-2.815-0.909-5.399-2.466-7.551-4.618c-2.505-2.505-4.138-5.547-4.942-8.756   c-3.439,3.592-3.399,9.288,0.135,12.821C37.477,30.105,39.824,31,42.172,31C44.261,31,46.348,30.286,48.045,28.867z" fill="#4F5D73"/><path d="M48.657,15.343c-1.791-1.791-4.138-2.686-6.485-2.686c-1.425,0-2.848,0.335-4.148,0.995   c0.551,3.15,2.031,6.17,4.464,8.603c2.165,2.165,4.797,3.566,7.569,4.241C52.142,22.977,51.682,18.368,48.657,15.343z" fill="#4F5D73"/></g></svg>