<svg xmlns="http://www.w3.org/2000/svg" width="50" height="51" viewBox="0 0 50 51"><rect width="50" height="51" fill="#ff8d4e"/><g stroke-width="0"><g fill="#ff8d4e" transform="translate(11.684 54.007)"><rect width="7.505" height="7.45" x="14.835" y="-45.622" style="paint-order:markers fill stroke"/><rect width="7.505" height="7.45" x="7.33" y="-45.622" style="paint-order:markers fill stroke"/><rect width="7.505" height="7.45" x="3.784" y="-41.924" style="paint-order:markers fill stroke"/><rect width="7.505" height="7.45" x="7.278" y="-31.091" style="paint-order:markers fill stroke"/><rect width="7.505" height="7.45" x="14.783" y="-31.091" style="paint-order:markers fill stroke"/><rect width="7.505" height="7.45" x="18.454" y="-27.257" style="paint-order:markers fill stroke"/><rect width="8.025" height="7.836" x="14.841" y="-18.606" style="paint-order:markers fill stroke"/><rect width="7.505" height="7.836" x="7.857" y="-18.606" style="paint-order:markers fill stroke"/><rect width="7.505" height="7.45" x="1.802" y="-18.279" style="paint-order:markers fill stroke"/><rect width="7.505" height="7.45" x="3.784" y="-34.474" style="paint-order:markers fill stroke"/><rect width="7.908" height="7.45" x="18.061" y="-21.259" style="paint-order:markers fill stroke"/></g><g fill="#242539" transform="translate(11.684 54.007)"><rect width="2.019" height="8.75" x="22.339" y="-46.14" style="paint-order:markers fill stroke"/><rect width="2.019" height="17.299" x="-47.642" y="-24.359" transform="rotate(90)" style="paint-order:markers fill stroke"/><rect width="2.019" height="13.067" x="-38.172" y="-24.357" transform="rotate(90)" style="paint-order:markers fill stroke"/><rect width="2.019" height="5.737" x="5.311" y="-47.651" style="paint-order:markers fill stroke"/><rect width="2.019" height="18.069" x="1.774" y="-43.192" style="paint-order:markers fill stroke"/><rect width="2.019" height="5.553" x="-43.933" y="-7.33" transform="rotate(90)" style="paint-order:markers fill stroke"/><rect width="2.019" height="5.553" x="-27.143" y="-7.327" transform="rotate(90)" style="paint-order:markers fill stroke"/><rect width="2.019" height="13.067" x="-23.637" y="-18.446" transform="rotate(90)" style="paint-order:markers fill stroke"/><rect width="2.019" height="5.502" x="5.308" y="-27.143" style="paint-order:markers fill stroke"/><rect width="9.609" height="5.374" x="8.836" y="-23.637" style="paint-order:markers fill stroke"/><rect width="2.019" height="5.087" x="22.866" y="-13.941" style="paint-order:markers fill stroke"/><rect width="2.019" height="5.502" x="22.273" y="-32.722" style="paint-order:markers fill stroke"/><rect width="6.481" height="5.502" x="11.284" y="-37.117" style="paint-order:markers fill stroke"/><rect width="2.019" height="13.003" x="-33.037" y="-24.278" transform="rotate(90)" style="paint-order:markers fill stroke"/><rect width="2.019" height="5.705" x="-29.239" y="-27.978" transform="rotate(90)" style="paint-order:markers fill stroke"/><rect width="2.019" height="16.065" x="25.957" y="-28.171" style="paint-order:markers fill stroke"/><rect width="2.019" height="5.098" x="-13.941" y="-27.964" transform="rotate(90)" style="paint-order:markers fill stroke"/><rect width="2.019" height="24.023" x="-10.856" y="-24.813" transform="rotate(90)" style="paint-order:markers fill stroke"/><rect width="2.019" height="11.084" x="-.215" y="-19.922" style="paint-order:markers fill stroke"/><rect width="2.019" height="18.325" x="-20.267" y="-18.082" transform="rotate(90)" style="paint-order:markers fill stroke"/></g></g></svg>