<svg version="1.1" viewBox="0 0 660 300" xmlns="http://www.w3.org/2000/svg">
  <path d="m226 239.43h-24.4l-12.4-18.4 12.2-18.3z" fill="#ff8d4e"/>
  <path d="m225.9 159.73h-24.3l-12 16.4 12 16.8z" fill="#92929a"/>
  <path d="m198 197.93-28-38.1h-24.4l28 38.1-28 41.6h24.4zm-145.7-8.8 32.5-29.6h9.5v79.9h-21.1v-41l-20.9 19-21-19v41h-21v-80h9.4zm57.4-29.6h21v79.9h-21z" fill="#2c233d"/>
  <path d="m241.6 159.53h20.9v79.9h-21zm33.8 0h62.9v20.8h-21.2v59.1h-21v-59h-20.7z" fill="#ff8d4e"/>
  <path d="m406.94 240.82h-58.898l34.612-43.84q6.1638-7.8326 6.1638-13.298 0-4.3952-2.5814-7.1t-6.6906-2.7048q-10.273 0-10.273 13.186v1.0143h-18.544v-0.5635q0-14.2 7.6389-22.145 7.6389-8.0016 20.967-8.0016 12.222 0 19.913 6.4239 8.4291 7.0437 8.4291 19.778 0 11.044-10.431 23.328l-13.908 16.397h23.601z" fill="#26233d" stroke-width=".90019"/>
  <path d="m465.84 240.82h-58.898l34.612-43.84q6.1638-7.8326 6.1638-13.298 0-4.3952-2.5814-7.1t-6.6906-2.7048q-10.273 0-10.273 13.186v1.0143h-18.544v-0.5635q0-14.2 7.6389-22.145 7.6389-8.0016 20.967-8.0016 12.222 0 19.913 6.4239 8.4291 7.0437 8.4291 19.778 0 11.044-10.431 23.328l-13.908 16.397h23.601z" fill="#2c233d" stroke-width=".90019"/>
  <path d="m572.23 93.859c0.39542 0.49419 0.60294 1.0631 0.65236 1.6487-0.0233 0.45683-0.29672 0.87209-0.78579 1.1005-0.76112 0.37378-1.6111 0.58973-2.486 0.66033h-10.984c-0.5435-0.08279-1.0429-0.3322-1.4382-0.66033l-0.7858-0.8804-18.961-25.931-18.176 26.041-0.78579 0.88041c-0.39541 0.29063-0.82041 0.52328-1.3097 0.66032h-10.583c-0.82047-0.04151-1.626-0.20746-2.3525-0.54815-0.39543-0.24904-0.66717-0.6645-0.65236-1.1005 0.0522-0.63535 0.34606-1.2417 0.78579-1.7567l23.799-31.645-23.276-30.436c-0.44478-0.52325-0.69684-1.1296-0.78578-1.7567-0.012-0.46092 0.29671-0.88869 0.78578-1.1005 0.75619-0.37378 1.6062-0.60633 2.486-0.66031h10.854l1.3097 0.5482c0.2967 0.24914 0.58314 0.5523 0.78579 0.8804l18.045 24.173 17.653-24.283c0.19742-0.29081 0.49413-0.55234 0.78586-0.7683l1.1762-0.66028h9.9378c0.77587-0.12453 1.5765-0.12453 2.3524 0 0.44478 0.24912 0.69191 0.66028 0.65236 1.1005-0.0987 0.66448-0.34606 1.2999-0.78578 1.8688l-22.36 30.656z" fill="#ff8d4e" stroke-width="11.987"/>
  <g fill="none" stroke="#ff8d4e" stroke-linecap="round">
    <path d="m511.58 61.559-31.067-0.12234" stroke-width="6.8214"/>
    <path d="m594.58 62.447-31.067-0.12234" stroke-width="6.8214"/>
    <path d="m537.42 36.637 0.19633-31.694" stroke-width="5.8469"/>
    <path d="m537.73 120.46 0.19633-31.694" stroke-width="5.8469"/>
  </g>
  <g transform="matrix(1.0144 0 0 .93618 763.22 -89.227)">
    <path d="m-245.64 260.38c0.43404 0.23329 0.77321 0.59083 1.0159 1.0178 0.1493 0.35527 0.12148 0.76886-0.11329 1.118-0.35874 0.55721-0.83188 1.0265-1.3734 1.3943l-7.1179 3.9448c-0.38197 0.13235-0.79532 0.12225-1.1696 0.0151l-0.82595-0.38638-21.616-12.883-2.4094 26.304-0.19247 0.95082c-0.15168 0.36272-0.34337 0.69204-0.61116 0.97185l-6.8582 3.8009c-0.54663 0.26309-1.1283 0.42641-1.7217 0.42861-0.34584-0.0471-0.67141-0.26503-0.81869-0.6015-0.19472-0.50127-0.22248-1.0673-0.12279-1.6163l4.0371-32.579-26.034-14.755c-0.47648-0.23763-0.85796-0.60757-1.1412-1.0519-0.17335-0.34587-0.12745-0.78146 0.11329-1.118 0.35554-0.55544 0.82271-1.0373 1.3734-1.3943l7.0334-3.898 1.046-0.0541c0.28191 0.0826 0.5766 0.21 0.82596 0.38639l20.391 11.877 2.7028-24.781c0.0233-0.29174 0.12149-0.59692 0.23283-0.8657l0.52467-0.92387 6.4399-3.5691c0.45797-0.37325 0.97682-0.6608 1.5244-0.84487 0.37786 0.0294 0.68593 0.25294 0.81868 0.60146 0.1751 0.54006 0.2434 1.1114 0.16313 1.7014l-3.4606 31.311z" fill="#aecbd6" stroke-width="9.4485"/>
    <g fill="none" stroke="#aecbd6" stroke-linecap="round">
      <path d="m-242.46 228.5-20.176 11.065" stroke-width="5.377"/>
      <path d="m-288.79 229.42-11.276-24.14" stroke-width="4.6088"/>
      <path d="m-258.43 292.97-11.276-24.14" stroke-width="4.6088"/>
    </g>
  </g>
  <path d="m618.98 172.1c5e-3 0.46132-0.15261 0.90006-0.41589 1.2904-0.24445 0.28148-0.62664 0.44327-1.0515 0.40599-0.67037-0.0463-1.3176-0.22614-1.9075-0.50746l-6.9608-4.0953c-0.30279-0.2552-0.49378-0.59983-0.57932-0.95561l-0.0553-0.85215 1.0274-23.539-24.617 9.7633-0.9408 0.2662c-0.39676 0.0371-0.78311 0.0265-1.1621-0.0689l-6.7068-3.9458c-0.49903-0.3323-0.92609-0.73802-1.2151-1.2253-0.12535-0.30559-0.0886-0.6708 0.14015-0.94223 0.3527-0.38406 0.84388-0.65964 1.3816-0.82275l30.999-11.226 0.55888-28.01c-0.0185-0.49818 0.12656-0.97725 0.3856-1.4087 0.2245-0.29708 0.63504-0.45381 1.0515-0.40599 0.6672 0.0445 1.3229 0.21374 1.9075 0.50746l6.8781 4.0466 0.55428 0.83648c0.0626 0.26884 0.0918 0.56822 0.0554 0.85216l-0.72304 22.081 23.401-8.8417c0.27139-0.11108 0.59097-0.16658 0.88444-0.19499l1.0776 0.0192 6.2977 3.7052c0.55438 0.21016 1.0617 0.50869 1.4908 0.87709 0.15658 0.32405 0.10636 0.67736-0.14011 0.94221-0.39683 0.38522-0.87311 0.69656-1.438 0.89398l-29.589 11.134z" fill="#aecbd6" stroke-width="9.2074"/>
  <g fill="none" stroke="#aecbd6" stroke-linecap="round">
    <path d="m596.79 128.97-19.626-11.661" stroke-width="5.2398"/>
    <path d="m648.94 160.48-19.626-11.661" stroke-width="5.2398"/>
    <path d="m625.7 122.77 16.066-20.057" stroke-width="4.4914"/>
    <path d="m583.73 176.13 16.066-20.057" stroke-width="4.4912"/>
  </g>
  <g transform="matrix(.38954 -.17083 .17642 .34266 493.27 69.664)">
    <path d="m-166.97 97.63c0.38983 0.52787 0.59441 1.1356 0.64313 1.7611-0.0229 0.48796-0.29252 0.93154-0.77468 1.1755-0.75034 0.39926-1.5883 0.62994-2.4508 0.70535h-10.829c-0.5358-0.0884-1.0281-0.35485-1.4179-0.70535l-0.77467-0.94041-18.692-27.699-17.919 27.817-0.77468 0.94042c-0.38982 0.31044-0.80879 0.55896-1.2912 0.70534h-10.433c-0.80885-0.0444-1.603-0.22161-2.3192-0.58552-0.38983-0.26602-0.65773-0.70979-0.64313-1.1756 0.0515-0.67866 0.34117-1.3264 0.77468-1.8764l23.462-33.802-22.946-32.511c-0.43848-0.55892-0.68698-1.2066-0.77467-1.8764-0.0114-0.49235 0.29251-0.94928 0.77467-1.1755 0.74549-0.39926 1.5835-0.64765 2.4508-0.70532h10.7l1.2912 0.58557c0.29251 0.26612 0.57489 0.58995 0.77467 0.94042l17.79 25.821 17.403-25.938c0.19463-0.31062 0.48714-0.58998 0.77473-0.82067l1.1596-0.70529h9.7972c0.76489-0.13306 1.5542-0.13306 2.3192 0 0.43849 0.26611 0.68212 0.70529 0.64313 1.1755-0.0973 0.70977-0.34117 1.3885-0.77467 1.9962l-22.044 32.745z" fill="#ff8d4e" stroke-width="12.3"/>
    <g fill="none" stroke="#ff8d4e" stroke-linecap="round">
      <path d="m-226.75 63.128-30.628-0.13067" stroke-width="7"/>
      <path d="m-144.93 64.076-30.628-0.13067" stroke-width="7"/>
      <path d="m-201.28 36.508 0.19355-33.855" stroke-width="6"/>
      <path d="m-200.98 126.05 0.19355-33.855" stroke-width="6"/>
    </g>
  </g>
  <g fill="none" stroke-linecap="round">
    <path d="m500.4 295.8 19.435-49.527" stroke="#ff8d4e" stroke-width="5.8469"/>
    <path d="m522.73 226.61 7.7589-37.538 5.6194-48.118" stroke="#ff8d4e" stroke-width="5.8469"/>
    <g stroke="#aecbd6" stroke-width="4.4914">
      <path d="m522.61 290.19 19.435-49.527"/>
      <path d="m549.6 225.32 17.232-35.575"/>
      <path d="m505.02 208.03-2.6539 56.799"/>
    </g>
  </g>
  <g fill="#26233d" aria-label="Anniversary édition">
    <path d="m147.86 277.19h-5.24q-0.88 0-1.42-0.4-0.54-0.42-0.82-1.06l-1.72-5.08h-11.08l-1.72 5.08q-0.22 0.56-0.8 1.02-0.56 0.44-1.4 0.44h-5.28l11.28-29.14h6.92zm-18.72-11.14h7.96l-2.68-7.98q-0.3-0.76-0.64-1.78-0.34-1.04-0.68-2.24-0.32 1.22-0.66 2.26-0.32 1.04-0.62 1.8z"/>
    <path d="m149.44 277.19v-20.74h3.84q1.16 0 1.52 1.04l0.36 1.2q0.6-0.56 1.24-1.04t1.36-0.8q0.74-0.34 1.58-0.52 0.86-0.2 1.86-0.2 1.7 0 3 0.6 1.32 0.58 2.22 1.64 0.9 1.04 1.36 2.5 0.46 1.44 0.46 3.14v13.18h-6.2v-13.18q0-1.52-0.7-2.36-0.7-0.86-2.06-0.86-1.02 0-1.92 0.44t-1.72 1.18v14.78z"/>
    <path d="m172.24 277.19v-20.74h3.84q1.16 0 1.52 1.04l0.36 1.2q0.6-0.56 1.24-1.04t1.36-0.8q0.74-0.34 1.58-0.52 0.86-0.2 1.86-0.2 1.7 0 3 0.6 1.32 0.58 2.22 1.64 0.9 1.04 1.36 2.5 0.46 1.44 0.46 3.14v13.18h-6.2v-13.18q0-1.52-0.7-2.36-0.7-0.86-2.06-0.86-1.02 0-1.92 0.44t-1.72 1.18v14.78z"/>
    <path d="m201.38 256.45v20.74h-6.2v-20.74zm0.64-5.68q0 0.74-0.3 1.4-0.3 0.64-0.82 1.14-0.52 0.48-1.22 0.78-0.68 0.28-1.46 0.28-0.76 0-1.42-0.28-0.66-0.3-1.18-0.78-0.5-0.5-0.8-1.14-0.28-0.66-0.28-1.4 0-0.76 0.28-1.42 0.3-0.66 0.8-1.16 0.52-0.5 1.18-0.78t1.42-0.28q0.78 0 1.46 0.28 0.7 0.28 1.22 0.78t0.82 1.16 0.3 1.42z"/>
    <path d="m217.22 277.19h-5.64l-8.04-20.74h5.16q0.66 0 1.1 0.32 0.46 0.3 0.62 0.76l2.88 9.3q0.38 1.14 0.66 2.22 0.3 1.08 0.52 2.16 0.22-1.08 0.52-2.16t0.7-2.22l3-9.3q0.16-0.46 0.6-0.76 0.44-0.32 1.04-0.32h4.92z"/>
    <path d="m235.72 256.13q2.06 0 3.76 0.64 1.72 0.64 2.94 1.86 1.24 1.22 1.92 3 0.7 1.76 0.7 4 0 0.7-0.06 1.14t-0.22 0.7-0.44 0.36q-0.26 0.1-0.68 0.1h-11.96q0.3 2.6 1.58 3.78 1.28 1.16 3.3 1.16 1.08 0 1.86-0.26t1.38-0.58q0.62-0.32 1.12-0.58 0.52-0.26 1.08-0.26 0.74 0 1.12 0.54l1.8 2.22q-0.96 1.1-2.08 1.8-1.1 0.68-2.28 1.08-1.16 0.38-2.34 0.52-1.16 0.16-2.22 0.16-2.18 0-4.1-0.7-1.9-0.72-3.34-2.12-1.42-1.4-2.26-3.48-0.82-2.08-0.82-4.84 0-2.08 0.7-3.94 0.72-1.86 2.04-3.26 1.34-1.4 3.22-2.22 1.9-0.82 4.28-0.82zm0.12 4.28q-1.78 0-2.78 1.02-1 1-1.32 2.9h7.74q0-0.74-0.2-1.44-0.18-0.7-0.62-1.24-0.42-0.56-1.12-0.9t-1.7-0.34z"/>
    <path d="m248.14 277.19v-20.74h3.68q0.46 0 0.76 0.08 0.32 0.08 0.52 0.26 0.22 0.16 0.32 0.44 0.12 0.28 0.2 0.68l0.3 1.76q0.98-1.68 2.22-2.64 1.26-0.98 2.88-0.98 1.4 0 2.28 0.66l-0.4 4.56q-0.1 0.44-0.34 0.6-0.22 0.16-0.62 0.16-0.16 0-0.42-0.02t-0.54-0.04q-0.28-0.04-0.58-0.06-0.28-0.04-0.52-0.04-1.36 0-2.18 0.74-0.8 0.72-1.36 2v12.58z"/>
    <path d="m276.58 260.99q-0.24 0.38-0.52 0.54-0.26 0.16-0.68 0.16-0.44 0-0.88-0.18-0.44-0.2-0.96-0.42-0.5-0.22-1.14-0.4-0.64-0.2-1.46-0.2-1.18 0-1.82 0.46-0.62 0.44-0.62 1.24 0 0.58 0.4 0.96 0.42 0.38 1.1 0.68 0.68 0.28 1.54 0.54t1.76 0.58 1.76 0.76q0.86 0.42 1.54 1.06 0.68 0.62 1.08 1.52 0.42 0.9 0.42 2.16 0 1.54-0.56 2.84t-1.68 2.24q-1.1 0.94-2.74 1.46-1.62 0.52-3.74 0.52-1.06 0-2.12-0.2t-2.06-0.54q-0.98-0.34-1.82-0.8-0.84-0.48-1.44-1.02l1.44-2.28q0.24-0.4 0.6-0.62 0.38-0.24 0.96-0.24 0.54 0 0.96 0.24 0.44 0.24 0.94 0.52t1.16 0.52q0.68 0.24 1.7 0.24 0.72 0 1.22-0.14 0.5-0.16 0.8-0.42t0.44-0.58 0.14-0.66q0-0.62-0.42-1.02t-1.1-0.68q-0.68-0.3-1.56-0.54-0.86-0.26-1.76-0.58t-1.78-0.76q-0.86-0.46-1.54-1.14-0.68-0.7-1.1-1.7t-0.42-2.42q0-1.32 0.5-2.5 0.52-1.2 1.54-2.1t2.56-1.42q1.54-0.54 3.6-0.54 1.12 0 2.16 0.2 1.06 0.2 1.98 0.56t1.68 0.86q0.76 0.48 1.34 1.06z"/>
    <path d="m295.12 277.19q-0.88 0-1.34-0.24-0.44-0.24-0.74-1l-0.44-1.14q-0.78 0.66-1.5 1.16t-1.5 0.86q-0.76 0.34-1.64 0.5-0.86 0.18-1.92 0.18-1.42 0-2.58-0.36-1.16-0.38-1.98-1.1-0.8-0.72-1.24-1.78-0.44-1.08-0.44-2.48 0-1.1 0.56-2.26t1.94-2.1q1.38-0.96 3.72-1.6t5.9-0.72v-0.88q0-1.82-0.76-2.62-0.74-0.82-2.12-0.82-1.1 0-1.8 0.24t-1.26 0.54q-0.54 0.3-1.06 0.54t-1.24 0.24q-0.64 0-1.08-0.32t-0.72-0.76l-1.12-1.94q1.88-1.66 4.16-2.46 2.3-0.82 4.92-0.82 1.88 0 3.38 0.62 1.52 0.6 2.56 1.7 1.06 1.08 1.62 2.58t0.56 3.28v12.96zm-7.12-3.78q1.2 0 2.1-0.42t1.82-1.36v-2.88q-1.86 0.08-3.06 0.32t-1.9 0.6-0.98 0.82q-0.26 0.46-0.26 1 0 1.06 0.58 1.5 0.58 0.42 1.7 0.42z"/>
    <path d="m301.92 277.19v-20.74h3.68q0.46 0 0.76 0.08 0.32 0.08 0.52 0.26 0.22 0.16 0.32 0.44 0.12 0.28 0.2 0.68l0.3 1.76q0.98-1.68 2.22-2.64 1.26-0.98 2.88-0.98 1.4 0 2.28 0.66l-0.4 4.56q-0.1 0.44-0.34 0.6-0.22 0.16-0.62 0.16-0.16 0-0.42-0.02t-0.54-0.04q-0.28-0.04-0.58-0.06-0.28-0.04-0.52-0.04-1.36 0-2.18 0.74-0.8 0.72-1.36 2v12.58z"/>
    <path d="m325.8 282.57q-0.28 0.62-0.68 0.9-0.4 0.3-1.28 0.3h-4.64l4-8.4-8.28-18.92h5.48q0.72 0 1.1 0.32 0.4 0.32 0.58 0.76l3.4 8.94q0.48 1.24 0.78 2.48 0.2-0.64 0.42-1.26 0.24-0.64 0.48-1.26l3.08-8.9q0.18-0.46 0.64-0.76 0.46-0.32 1-0.32h5z"/>
    <path d="m356.08 256.13c1.3733 0 2.6267 0.21333 3.76 0.64 1.1467 0.42667 2.1267 1.0467 2.94 1.86 0.82667 0.81333 1.4667 1.8133 1.92 3 0.46667 1.1733 0.7 2.5067 0.7 4 0 0.46667-0.02 0.84667-0.06 1.14s-0.11333 0.52667-0.22 0.7-0.25333 0.29333-0.44 0.36c-0.17333 0.0667-0.4 0.1-0.68 0.1h-11.96c0.2 1.7333 0.72667 2.9933 1.58 3.78 0.85333 0.77333 1.9533 1.16 3.3 1.16 0.72 0 1.34-0.0867 1.86-0.26 0.52-0.17333 0.98-0.36667 1.38-0.58 0.41333-0.21333 0.78667-0.40667 1.12-0.58 0.34667-0.17333 0.70667-0.26 1.08-0.26 0.49333 0 0.86667 0.18 1.12 0.54l1.8 2.22c-0.64 0.73333-1.3333 1.3333-2.08 1.8-0.73333 0.45333-1.4933 0.81333-2.28 1.08-0.77333 0.25333-1.5533 0.42667-2.34 0.52-0.77333 0.10667-1.5133 0.16-2.22 0.16-1.4533 0-2.82-0.23333-4.1-0.7-1.2667-0.48-2.38-1.1867-3.34-2.12-0.94667-0.93333-1.7-2.0933-2.26-3.48-0.54667-1.3867-0.82-3-0.82-4.84 0-1.3867 0.23333-2.7 0.7-3.94 0.48-1.24 1.16-2.3267 2.04-3.26 0.89333-0.93333 1.9667-1.6733 3.22-2.22 1.2667-0.54667 2.6933-0.82 4.28-0.82zm0.12 4.28c-1.1867 0-2.1133 0.34-2.78 1.02-0.66667 0.66667-1.1067 1.6333-1.32 2.9h7.74c0-0.49333-0.0667-0.97333-0.2-1.44-0.12-0.46667-0.32667-0.88-0.62-1.24-0.28-0.37333-0.65333-0.67333-1.12-0.9s-1.0333-0.34-1.7-0.34zm0.56-12.36c-237.84-165.37-118.92-82.683 0 0z"/>
    <path d="m383.44 277.19q-1.16 0-1.52-1.04l-0.48-1.58q-0.62 0.66-1.3 1.2t-1.48 0.94q-0.78 0.38-1.7 0.58-0.9 0.22-1.96 0.22-1.62 0-3-0.72t-2.38-2.08-1.58-3.32q-0.56-1.98-0.56-4.5 0-2.32 0.64-4.3 0.64-2 1.8-3.44 1.18-1.46 2.82-2.28t3.62-0.82q1.6 0 2.7 0.48 1.12 0.46 2.02 1.22v-10.5h6.2v29.94zm-6.28-4.44q0.68 0 1.22-0.12 0.56-0.14 1.02-0.38t0.86-0.6q0.42-0.36 0.82-0.84v-8.8q-0.72-0.78-1.54-1.08-0.8-0.32-1.7-0.32-0.86 0-1.58 0.34t-1.26 1.1q-0.52 0.74-0.82 1.94t-0.3 2.9q0 1.64 0.24 2.76t0.66 1.82q0.44 0.68 1.04 0.98t1.34 0.3z"/>
    <path d="m397.82 256.45v20.74h-6.2v-20.74zm0.64-5.68q0 0.74-0.3 1.4-0.3 0.64-0.82 1.14-0.52 0.48-1.22 0.78-0.68 0.28-1.46 0.28-0.76 0-1.42-0.28-0.66-0.3-1.18-0.78-0.5-0.5-0.8-1.14-0.28-0.66-0.28-1.4 0-0.76 0.28-1.42 0.3-0.66 0.8-1.16 0.52-0.5 1.18-0.78t1.42-0.28q0.78 0 1.46 0.28 0.7 0.28 1.22 0.78t0.82 1.16 0.3 1.42z"/>
    <path d="m400.58 277.19m24-20.7v20.7h-6.2v-16.46h-8.68v10.3q0 0.72 0.34 1.2 0.36 0.46 1.02 0.46 0.34 0 0.56-0.06 0.24-0.08 0.4-0.16 0.18-0.1 0.32-0.16 0.16-0.08 0.36-0.08 0.28 0 0.44 0.14 0.18 0.12 0.36 0.4l1.88 2.94q-1.2 0.9-2.7 1.36-1.5 0.44-3.1 0.44-1.48 0-2.62-0.42-1.12-0.44-1.9-1.22-0.76-0.8-1.16-1.92t-0.4-2.5v-10.72h-1.76q-0.48 0-0.82-0.3-0.34-0.32-0.34-0.92v-2.42l3.3-0.64 1.22-5.06q0.24-0.96 1.36-0.96h3.24v6.06zm0.86-5.74q0 0.74-0.3 1.4t-0.82 1.16q-0.52 0.48-1.22 0.76-0.68 0.28-1.46 0.28-0.76 0-1.42-0.28t-1.18-0.76q-0.5-0.5-0.8-1.16-0.28-0.66-0.28-1.4t0.28-1.4q0.3-0.68 0.8-1.16 0.52-0.5 1.18-0.78 0.66-0.3 1.42-0.3 0.78 0 1.46 0.3 0.7 0.28 1.22 0.78 0.52 0.48 0.82 1.16 0.3 0.66 0.3 1.4z"/>
    <path d="m438.48 256.13q2.36 0 4.3 0.74t3.32 2.12q1.4 1.38 2.16 3.36 0.78 1.96 0.78 4.42 0 2.48-0.78 4.48-0.76 1.98-2.16 3.38-1.38 1.38-3.32 2.14-1.94 0.74-4.3 0.74-2.38 0-4.34-0.74-1.94-0.76-3.36-2.14-1.4-1.4-2.18-3.38-0.76-2-0.76-4.48 0-2.46 0.76-4.42 0.78-1.98 2.18-3.36 1.42-1.38 3.36-2.12 1.96-0.74 4.34-0.74zm0 16.78q2.14 0 3.14-1.5 1.02-1.52 1.02-4.6t-1.02-4.58q-1-1.5-3.14-1.5-2.2 0-3.22 1.5t-1.02 4.58 1.02 4.6q1.02 1.5 3.22 1.5z"/>
    <path d="m452.16 277.19v-20.74h3.84q1.16 0 1.52 1.04l0.36 1.2q0.6-0.56 1.24-1.04t1.36-0.8q0.74-0.34 1.58-0.52 0.86-0.2 1.86-0.2 1.7 0 3 0.6 1.32 0.58 2.22 1.64 0.9 1.04 1.36 2.5 0.46 1.44 0.46 3.14v13.18h-6.2v-13.18q0-1.52-0.7-2.36-0.7-0.86-2.06-0.86-1.02 0-1.92 0.44t-1.72 1.18v14.78z"/>
  </g>
</svg>
