<svg xmlns="http://www.w3.org/2000/svg" xmlns:osb="http://www.openswatchbook.org/uri/2009/osb" xmlns:svg="http://www.w3.org/2000/svg" xmlns:xlink="http://www.w3.org/1999/xlink" id="svg6" width="48" height="48" version="1.1" viewBox="0 0 48 48"><metadata id="metadata12"/><defs id="defs10"><linearGradient id="linearGradient4544" osb:paint="solid"><stop style="stop-color:#fff;stop-opacity:1" id="stop4542" offset="0"/></linearGradient><linearGradient id="linearGradient4546" x1="19.247" x2="39.832" y1="28.437" y2="28.437" gradientUnits="userSpaceOnUse" xlink:href="#linearGradient4544"/></defs><title id="title2">mxt-icon--social1</title><path style="fill:#fff;fill-opacity:1;fill-rule:evenodd;stroke:none;stroke-width:.59898084" id="path28" d="M 15.515143,38.771058 V 18.576312 H 8.7713633 V 38.771058 Z M 12.143223,15.81906 c 2.351692,0 3.815423,-1.55073 3.815423,-3.488693 -0.04383,-1.981588 -1.463731,-3.4892907 -3.770815,-3.4892907 -2.3068438,0 -3.8151207,1.5077027 -3.8151207,3.4892907 0,1.937963 1.4634284,3.488693 3.7265647,3.488693 h 0.04383 z"/><path style="fill:url(#linearGradient4546);fill-opacity:1;fill-rule:evenodd;stroke:none;stroke-width:.59898084" id="path30" d="m 19.246693,38.771058 h 6.743722 V 27.493457 c 0,-0.60356 0.04383,-1.206521 0.2219,-1.637977 0.48751,-1.205924 1.597134,-2.454874 3.460117,-2.454874 2.440249,0 3.416409,1.851912 3.416409,4.566735 v 10.803717 h 6.743182 V 27.191677 c 0,-6.202919 -3.327013,-9.089249 -7.76389,-9.089249 -3.63807,0 -5.235203,2.024017 -6.122567,3.402642 h 0.04503 v -2.928758 h -6.743721 c 0.0885,1.894938 0,20.194746 0,20.194746 z"/></svg>