<?xml version="1.0" encoding="UTF-8" standalone="no"?>
<svg
        height="48"
        width="48"
        viewBox="0 0 512 512"
        fill="#"
        version="1.1"
        id="svg1"
        sodipodi:docname="mxt-icon--like-maybe-dark.svg"
        inkscape:version="1.3.1 (9b9bdc1480, 2023-11-25, custom)"
        xmlns:inkscape="http://www.inkscape.org/namespaces/inkscape"
        xmlns:sodipodi="http://sodipodi.sourceforge.net/DTD/sodipodi-0.dtd"
        xmlns="http://www.w3.org/2000/svg"
>
  <defs
     id="defs1" />
  <sodipodi:namedview
     id="namedview1"
     pagecolor="#ffffff"
     bordercolor="#000000"
     borderopacity="0.25"
     inkscape:showpageshadow="2"
     inkscape:pageopacity="0.0"
     inkscape:pagecheckerboard="0"
     inkscape:deskcolor="#d1d1d1"
     showgrid="false"
     inkscape:zoom="9.3125"
     inkscape:cx="-2.2550336"
     inkscape:cy="37.154362"
     inkscape:window-width="1850"
     inkscape:window-height="1136"
     inkscape:window-x="70"
     inkscape:window-y="27"
     inkscape:window-maximized="1"
     inkscape:current-layer="svg1" />
  <path
     fill="#212529"
     d="m 331.19623,150.25721 c -28.93191,-6.40861 -28.99051,-5.3253 -59.88404,-9.38939 L 239.66274,140.328 204.10959,148.99398 158.3,195.6 c -8.9,9.8 -8.2,25 1.6,33.9 9.8,8.9 25,8.2 33.9,-1.6 l 25.81328,-29.69817 c 13.3702,-10.51514 12.39961,-11.3209 43.52473,-15.41883 30.87486,3.52877 3.20883,0.29595 31.66199,3.317 -5.2,7.3 -5.8,16.9 -1.7,24.9 4.1,8 12.3,13 21.3,13 H 448 c 8.8,0 16,7.2 16,16 0,6.8 -4.3,12.7 -10.4,15 -7.4,2.8 -13,9 -14.9,16.7 -1.9,7.7 0.1,15.8 5.3,21.7 2.5,2.8 4,6.5 4,10.6 0,7.8 -5.6,14.3 -13,15.7 -8.2,1.6 -15.1,7.3 -18,15.2 -2.9,7.9 -1.6,16.7 3.6,23.3 2.1,2.7 3.4,6.1 3.4,9.9 0,6.7 -4.2,12.6 -10.2,14.9 -11.5,4.5 -17.7,16.9 -14.4,28.8 0.4,1.3 0.6,2.8 0.6,4.3 0,8.8 -7.2,16 -16,16 h -97.5 c -12.6,0 -25,-3.7 -35.5,-10.7 l -61.7,-41.1 c -11,-7.4 -25.9,-4.4 -33.3,6.7 -7.4,11.1 -4.4,25.9 6.7,33.3 l 61.7,41.1 c 18.4,12.3 40,18.8 62.1,18.8 H 384 c 34.7,0 62.9,-27.6 64,-62 14.6,-11.7 24,-29.7 24,-50 0,-4.5 -0.5,-8.8 -1.3,-13 15.4,-11.7 25.3,-30.2 25.3,-51 0,-6.5 -1,-12.8 -2.8,-18.7 11.6,-11.8 18.8,-27.8 18.8,-45.5 0,-35.3 -28.6,-64 -64,-64 h -92.3 c 9.21849,13.15018 22.60773,12.13454 25.70773,1.13454 L 363.83764,162.19017 Z M 32,192 C 14.3,192 0,206.3 0,224 v 224 c 0,17.7 14.3,32 32,32 h 64 c 17.7,0 32,-14.3 32,-32 V 224 c 0,-17.7 -14.3,-32 -32,-32 z"
     id="path1"
     sodipodi:nodetypes="cccccsccccsssscscscscsccsssccsccsscscscssccccsssssssss" />
</svg>
