<svg xmlns="http://www.w3.org/2000/svg" width="50" height="50" viewBox="0 0 50 50"><title>mxt-icon--cat3</title><g data-name="Layer 1"><path fill="#aecbd6" d="M0 0h50v50H0z"/><path fill="#242539" d="M12.5 12.67h24.07v25.57H12.5z"/><path fill="#aecbd6" d="M18.21 43.36v-5.78h-5.78V12.42h5.78V6.64h13.58v5.78h5.78v7.8h-7.78v-5.8h-9.58v21.16h9.58v-5.79h7.78v7.79h-5.78v5.78H18.21z"/><path d="M30.79 7.64v5.79H19.21V7.64h11.58m5.79 5.79v5.79h-5.79v-5.8h5.79m-17.36 0v23.16h-5.79V13.42h5.79m17.35 17.37v5.79h-5.78v-5.79h5.79m-5.79 5.79v5.79H19.21v-5.79h11.58m2-30.94H17.21v5.79h-5.78v27.15h5.79v5.79h15.57v-5.79h5.79v-9.79h-9.79v5.79h-7.58V15.42h7.57v5.79h9.79v-9.79h-5.78V5.64z" fill="#242539"/></g></svg>