<?xml version="1.0" encoding="UTF-8" standalone="no"?>
<svg
        version="1.1"
        viewBox="0 0 580 120"
        id="svg16"
        sodipodi:docname="mxt-icon--logo-23-inversed.svg"
        width="580"
        height="120"
        inkscape:version="1.2.1 (8a69933317, 2022-10-28, custom)"
        inkscape:export-filename="/home/devmind/Workspace/pictures/mixit-images/logo/mxt-icon--logo-22.png"
        inkscape:export-xdpi="96"
        inkscape:export-ydpi="96"
        xmlns:inkscape="http://www.inkscape.org/namespaces/inkscape"
        xmlns:sodipodi="http://sodipodi.sourceforge.net/DTD/sodipodi-0.dtd"
        xmlns="http://www.w3.org/2000/svg"
        xmlns:rdf="http://www.w3.org/1999/02/22-rdf-syntax-ns#"
        xmlns:cc="http://creativecommons.org/ns#"
        xmlns:dc="http://purl.org/dc/elements/1.1/">
  <metadata
     id="metadata22">
    <rdf:RDF>
      <cc:Work
         rdf:about="">
        <dc:format>image/svg+xml</dc:format>
        <dc:type
           rdf:resource="http://purl.org/dc/dcmitype/StillImage" />
      </cc:Work>
    </rdf:RDF>
  </metadata>
  <defs
     id="defs20" />
  <sodipodi:namedview
     pagecolor="#ffffff"
     bordercolor="#666666"
     borderopacity="1"
     objecttolerance="10"
     gridtolerance="10"
     guidetolerance="10"
     inkscape:pageopacity="0"
     inkscape:pageshadow="2"
     inkscape:window-width="1846"
     inkscape:window-height="1136"
     id="namedview18"
     showgrid="false"
     inkscape:zoom="2.3431034"
     inkscape:cx="405.0184"
     inkscape:cy="127.82193"
     inkscape:window-x="74"
     inkscape:window-y="27"
     inkscape:window-maximized="1"
     inkscape:current-layer="svg16"
     inkscape:document-rotation="0"
     inkscape:showpageshadow="0"
     inkscape:pagecheckerboard="1"
     inkscape:deskcolor="#d1d1d1" />
  <path
     d="m 313.36198,97.245588 h -24.4 l -12.4,-18.4 12.2,-18.3 z"
     fill="#ff8d4e"
     id="path2" />
  <path
     d="m 313.26198,17.545588 h -24.3 l -12,16.4 12,16.8 z"
     fill="#92929a"
     id="path4" />
  <path
     d="m 285.36198,55.745588 -28,-38.1 h -24.4 l 28,38.1 -28,41.6 h 24.4 z m -145.7,-8.8 32.5,-29.6 h 9.5 v 79.9 h -21.1 v -41 l -20.9,19 -21,-19 v 41 H 97.661982 v -80 h 9.399998 z m 57.4,-29.6 h 21 v 79.9 h -21 z"
     fill="#ffffff"
     id="path6"
     style="fill:#ffffff;fill-opacity:1"
     inkscape:export-xdpi="96"
     inkscape:export-ydpi="96" />
  <path
     d="m 328.96198,17.345588 h 20.9 v 79.9 h -21 z m 33.8,0 h 62.9 v 20.8 h -21.2 v 59.1 h -21 v -59 h -20.7 z"
     fill="#ff8d4e"
     id="path8" />
  <path
     d="m 64.265982,76.145588 -4,22.4 h -8.2 q -1.1,0 -2.199997,-0.6 -1,-0.6 -1.8,-1.5 -0.7,-1 -1,-2.2 -0.2,-1.3 0,-2.7 l 2.9,-15.4 h -9.4 l -2.8,16.2 q -0.2,1.7 -1,2.9 -0.800004,1.1 -1.800004,1.8 -1,0.8 -2.4,1.1 -1.2,0.4 -2.6,0.4 h -7.8 l 4,-22.4 h -5 q -2.7,0 -3.8,-1.5 -1.1,-1.6 -0.5,-5.4 l 0.9,-5.4 h 10 l 2.4,-13.4 h -11.4 l 1.4,-7.1 q 0.5,-2.6 2.2,-3.9 1.8,-1.2 5.5,-1.2 h 3.8 l 3,-16.6 q 0.5,-2.7 2.500004,-4.2 2.1,-1.5 4.9,-1.5 h 7.999997 l -3.999997,22.3 h 9.399997 l 4,-22.3 h 7.8 q 1.4,0 2.5,0.5 1.1,0.4 1.8,1.2 0.8,0.7 1.2,1.8 0.3,1 0,2.3 l -2.8,16.5 h 11 l -1.3,7.1 q -0.5,2.7 -2.3,4 -1.7,1.1 -5.4,1.1 h -3.6 l -2.4,13.4 h 6.2 q 2.7,0 3.8,1.6 1.1,1.5 0.5,5.2 l -1,5.5 z m -22.299997,-12.3 h 9.399997 l 2.6,-13.4 h -9.399997 z"
     fill="#ff8a4b"
     font-size="85px"
     font-weight="900"
     letter-spacing="0"
     word-spacing="0"
     id="path10" />
  <g
     aria-label="23"
     transform="matrix(1.0033532,0,0,0.996658,7.6620896,1.7780483)"
     id="text1128"
     style="font-size:110.523px;line-height:1.25;fill:#ffffff;stroke-width:2.76308;fill-opacity:1">
    <path
       d="m 463.13806,15.909943 q 5.96825,0 10.72074,1.768368 4.80775,1.713107 8.1787,4.807751 3.37095,3.094644 5.13932,7.405041 1.82363,4.255136 1.82363,9.394456 0,4.42092 -1.27102,8.178702 -1.21575,3.757782 -3.37095,7.183995 -2.1552,3.370951 -5.0288,6.576119 -2.81833,3.149905 -6.0235,6.410334 l -15.74953,16.136358 q 3.03939,-0.884184 5.96824,-1.381537 2.98413,-0.552615 5.58142,-0.552615 h 15.03112 q 2.76308,0 4.36566,1.547322 1.60259,1.49206 1.60259,3.978828 v 9.94707 H 433.5179 v -5.52615 q 0,-1.602584 0.66314,-3.426213 0.66314,-1.82363 2.32098,-3.31569 l 23.20983,-23.375615 q 2.98412,-2.984122 5.19458,-5.691935 2.21046,-2.707814 3.64726,-5.305104 1.4368,-2.652552 2.1552,-5.249843 0.7184,-2.652552 0.7184,-5.581411 0,-4.807751 -2.32098,-7.34978 -2.26573,-2.597291 -6.96295,-2.597291 -3.81305,0 -6.4656,2.044676 -2.59729,1.989414 -3.592,4.973535 -1.16049,3.039383 -3.03938,4.03409 -1.87889,0.994707 -5.36036,0.442092 l -9.06289,-1.602584 q 0.88418,-6.023504 3.37095,-10.499685 2.54203,-4.476182 6.24455,-7.460303 3.75778,-2.984121 8.56553,-4.42092 4.80775,-1.492061 10.3339,-1.492061 z"
       style="font-weight:900;font-family:Lato;-inkscape-font-specification:'Lato Heavy';fill:#ffffff;fill-opacity:1"
       id="path1130" />
    <path
       d="m 527.68349,15.909943 q 5.96824,0 10.61021,1.713107 4.64196,1.657845 7.84713,4.531443 3.20517,2.873598 4.86301,6.686642 1.65785,3.757782 1.65785,7.957656 0,3.813044 -0.77366,6.741903 -0.77366,2.873598 -2.32099,5.028797 -1.49206,2.099937 -3.75778,3.591997 -2.21046,1.492061 -5.08406,2.486768 13.37329,4.641966 13.37329,18.181034 0,6.410334 -2.32099,11.162823 -2.32098,4.752489 -6.24455,7.902395 -3.8683,3.149905 -9.00762,4.752489 -5.13932,1.547322 -10.72073,1.547322 -5.7472,0 -10.22338,-1.215753 -4.47618,-1.271015 -7.95766,-3.868305 -3.48147,-2.652552 -6.13402,-6.741903 -2.59729,-4.089351 -4.53145,-9.726025 l 7.62609,-3.094644 q 2.98412,-1.160491 5.52615,-0.607876 2.54203,0.552615 3.64726,2.542029 2.48677,4.586704 5.24984,6.686642 2.81834,2.044675 6.57612,2.044675 2.8736,0 4.97354,-0.939445 2.1552,-0.994707 3.53673,-2.486768 1.4368,-1.547322 2.1552,-3.481475 0.7184,-1.934152 0.7184,-3.923566 0,-2.597291 -0.38683,-4.641966 -0.33157,-2.099937 -1.98941,-3.591998 -1.65785,-1.49206 -5.0288,-2.265721 -3.31569,-0.828923 -9.28393,-0.828923 V 50.227336 q 5.02879,0 8.12344,-0.773661 3.09464,-0.773661 4.75249,-2.099937 1.7131,-1.381538 2.26572,-3.31569 0.55261,-1.934153 0.55261,-4.255136 0,-4.752489 -2.32098,-7.294518 -2.26572,-2.597291 -6.96295,-2.597291 -3.81304,0 -6.46559,2.044676 -2.59729,1.989414 -3.592,4.973535 -1.16049,3.039383 -3.03938,4.03409 -1.8789,0.994707 -5.36037,0.442092 l -9.06289,-1.602584 q 0.88419,-6.023504 3.37096,-10.499685 2.54202,-4.476182 6.24455,-7.460303 3.75778,-2.984121 8.56553,-4.42092 4.80775,-1.492061 10.3339,-1.492061 z"
       style="font-weight:900;font-family:Lato;-inkscape-font-specification:'Lato Heavy';fill:#ffffff;fill-opacity:1"
       id="path1132" />
  </g>
</svg>
