<svg xmlns="http://www.w3.org/2000/svg" width="580" height="120" version="1.1" viewBox="0 0 580 120"><metadata/><path fill="#ff8d4e" d="m313.36 97.246h-24.4l-12.4-18.4 12.2-18.3z"/><path fill="#92929a" d="m313.26 17.546h-24.3l-12 16.4 12 16.8z"/><path fill="#fff" d="m285.36 55.746-28-38.1h-24.4l28 38.1-28 41.6h24.4zm-145.7-8.8 32.5-29.6h9.5v79.9h-21.1v-41l-20.9 19-21-19v41h-21v-80h9.4zm57.4-29.6h21v79.9h-21z"/><path fill="#ff8d4e" d="m328.96 17.346h20.9v79.9h-21zm33.8 0h62.9v20.8h-21.2v59.1h-21v-59h-20.7z"/><path fill="#ff8a4b" d="m64.266 76.146-4 22.4h-8.2q-1.1 0-2.2-0.6-1-0.6-1.8-1.5-0.7-1-1-2.2-0.2-1.3 0-2.7l2.9-15.4h-9.4l-2.8 16.2q-0.2 1.7-1 2.9-0.8 1.1-1.8 1.8-1 0.8-2.4 1.1-1.2 0.4-2.6 0.4h-7.8l4-22.4h-5q-2.7 0-3.8-1.5-1.1-1.6-0.5-5.4l0.9-5.4h10l2.4-13.4h-11.4l1.4-7.1q0.5-2.6 2.2-3.9 1.8-1.2 5.5-1.2h3.8l3-16.6q0.5-2.7 2.5-4.2 2.1-1.5 4.9-1.5h8l-4 22.3h9.4l4-22.3h7.8q1.4 0 2.5 0.5 1.1 0.4 1.8 1.2 0.8 0.7 1.2 1.8 0.3 1 0 2.3l-2.8 16.5h11l-1.3 7.1q-0.5 2.7-2.3 4-1.7 1.1-5.4 1.1h-3.6l-2.4 13.4h6.2q2.7 0 3.8 1.6 1.1 1.5 0.5 5.2l-1 5.5zm-22.3-12.3h9.4l2.6-13.4h-9.4z" font-size="85" font-weight="900" letter-spacing="0" word-spacing="0"/><g fill="#fff" stroke="#fff" stroke-linecap="round" stroke-linejoin="round" stroke-width="3.913" aria-label="24"><path d="m458.97 18.262q5.657 0 10.162 1.6762 4.5571 1.6238 7.7522 4.5571t4.8713 7.0189q1.7285 4.0333 1.7285 8.9046 0 4.1904-1.2047 7.7522-1.1524 3.5618-3.1952 6.8094-2.0428 3.1952-4.7666 6.2332-2.6714 2.9857-5.7094 6.0761l-14.928 15.295q2.8809-0.83808 5.657-1.3095 2.8285-0.5238 5.2904-0.5238h14.247q2.619 0 4.138 1.4666 1.519 1.4143 1.519 3.7714v9.4284h-53.637v-5.238q0-1.519 0.62856-3.2476t2.2-3.1428l22-22.157q2.8285-2.8285 4.9237-5.3951t3.4571-5.0285q1.3619-2.5142 2.0428-4.9761 0.68094-2.5142 0.68094-5.2904 0-4.5571-2.2-6.9665-2.1476-2.4619-6.5999-2.4619-3.6142 0-6.1285 1.9381-2.4619 1.8857-3.4047 4.7142-1.1 2.8809-2.8809 3.8237t-5.0809 0.41904l-8.5903-1.519q0.83808-5.7094 3.1952-9.9522 2.4095-4.2428 5.9189-7.0713 3.5618-2.8285 8.1189-4.1904 4.5571-1.4143 9.7951-1.4143z" transform="scale(1.0191 .98124)"/><path d="m539.06 65.771h7.857v9.1141q0 1.2047-0.83808 2.0952-0.7857 0.89046-2.3047 0.89046h-4.7142v17.547h-14.143v-17.547h-30.695q-1.519 0-2.7761-0.94284-1.2047-0.94284-1.519-2.3571l-1.6762-8.0141 35.304-47.456h15.504zm-14.143-19.904q0-1.8333 0.10476-3.9285 0.15714-2.1476 0.41904-4.3999l-20.166 28.233h19.642z" transform="scale(1.0191 .98124)"/></g></svg>