<svg xmlns="http://www.w3.org/2000/svg" width="50" height="50" viewBox="0 0 50 50"><title>mxt-icon--cat1</title><g data-name="Layer 1"><path fill="#ff8d4e" d="M0 0h50v50H0z"/><path fill="#242539" stroke="#242539" stroke-miterlimit="10" d="M11.66 10.76H38v29.55H11.66z"/><path fill="#ff8d4e" d="M32.17 42.35v-21.8h-3.45V26h-7.45v-5.45h-3.45v21.8h-7.44V7.65h7.44v5.45h5.45v5.45h3.45V13.1h5.45V7.65h7.45v34.7h-7.45z"/><path d="M38.62 8.65v32.7h-5.45v-21.8h-5.45V14.1h5.45V8.65h5.45m-21.8 0v5.45h5.45v5.45h-5.45v21.8h-5.44V8.65h5.45m10.9 10.9V25h-5.46v-5.45h5.45m12.9-12.9h-9.45v5.45h-5.45v5.45h-1.45V12.1h-5.45V6.65H9.38v36.7h9.45v-21.8h1.45V27h9.45v-5.45h1.45v21.8h9.45V6.65z" fill="#242539"/></g></svg>