<svg xmlns="http://www.w3.org/2000/svg" width="48.13" height="40.12" viewBox="0 0 48.13 40.12"><title>mxt-icon--social2</title><path d="M46.8.74a19.42 19.42 0 0 1-6.27 2.46A9.74 9.74 0 0 0 33.32 0a10 10 0 0 0-9.87 10.13 10.32 10.32 0 0 0 .25 2.31A27.8 27.8 0 0 1 3.34 1.85 10.31 10.31 0 0 0 2 6.95a10.48 10.48 0 0 0 4.72 8.43c-1.62 0-4.16-.51-4.16-1.26v.12c0 4.91 3.08 9 7.61 9.93a10.6 10.6 0 0 1-2.76.36 10.47 10.47 0 0 1-1.94-.18 9.86 9.86 0 0 0 9.19 7 19.56 19.56 0 0 1-12.29 4.36A20 20 0 0 1 0 35.57a27.48 27.48 0 0 0 15.14 4.55c18.17 0 28.1-15.43 28.1-28.81V10a20.26 20.26 0 0 0 4.92-5.24 19.35 19.35 0 0 1-5.67 1.59A10.11 10.11 0 0 0 46.8.74" fill="#fff" fill-rule="evenodd" data-name="Layer 1"/></svg>