<?xml version="1.0" ?><svg enable-background="new 0 0 64 64" height="64px" version="1.1" viewBox="0 0 64 64" width="64px" xml:space="preserve" xmlns="http://www.w3.org/2000/svg" xmlns:xlink="http://www.w3.org/1999/xlink"><g id="Layer_1"><g><circle cx="32" cy="32" fill="#C75C5C" r="32"/></g><g opacity="0.2"><g><path d="M49.982,31.003c-0.094-5.522-4.574-10.442-10.107-10.442c-3.2,0-6.019,1.674-7.875,4.131     c-1.856-2.457-4.676-4.131-7.875-4.131c-5.533,0-10.012,4.921-10.107,10.442H14c0,0.034,0.007,0.065,0.007,0.099     c0,0.025-0.007,0.049-0.007,0.076c0,0.155,0.038,0.272,0.045,0.421c0.495,14.071,17.813,19.84,17.813,19.84     s17.572-5.762,18.092-19.818C49.959,31.464,50,31.34,50,31.178c0-0.027-0.007-0.052-0.007-0.076c0-0.036,0.007-0.065,0.007-0.099     H49.982z" fill="#231F20"/></g></g><g><g><path d="M49.982,29.003c-0.094-5.522-4.574-10.442-10.107-10.442c-3.2,0-6.019,1.674-7.875,4.131     c-1.856-2.457-4.676-4.131-7.875-4.131c-5.533,0-10.012,4.921-10.107,10.442H14c0,0.034,0.007,0.065,0.007,0.099     c0,0.025-0.007,0.049-0.007,0.076c0,0.155,0.038,0.272,0.045,0.421c0.495,14.071,17.813,19.84,17.813,19.84     s17.572-5.762,18.092-19.818C49.959,29.464,50,29.34,50,29.178c0-0.027-0.007-0.052-0.007-0.076c0-0.036,0.007-0.065,0.007-0.099     H49.982z" fill="#FFFFFF"/></g></g></g><g id="Layer_2"/></svg>