<?xml version="1.0" encoding="UTF-8"?>
<svg width="50" height="51" version="1.1" viewBox="0 0 50 51" xmlns="http://www.w3.org/2000/svg">
 <rect x=".15281" y=".15281" width="50" height="51" fill="#ff8d4e"/>
 <g fill="#242539" stroke-width="0">
  <rect transform="rotate(90)" x="6.1623" y="-31.744" width="2.0195" height="17.299" style="paint-order:markers fill stroke"/>
  <rect x="12.696" y="6.1533" width="2.0195" height="5.7373" style="paint-order:markers fill stroke"/>
  <rect x="9.1592" y="10.612" width="2.0195" height="29.297" style="paint-order:markers fill stroke"/>
  <rect x="14.691" y="15.607" width="20.093" height="19.327" style="paint-order:markers fill stroke"/>
  <rect transform="rotate(90)" x="9.8713" y="-14.716" width="2.0195" height="5.5535" style="paint-order:markers fill stroke"/>
  <rect transform="rotate(90)" x="15.599" y="-20.287" width="2.0195" height="5.5535" style="paint-order:markers fill stroke"/>
  <rect transform="rotate(90)" x="38.661" y="-14.713" width="2.0195" height="5.5535" style="paint-order:markers fill stroke"/>
  <rect x="12.712" y="39.425" width="2.0195" height="5.5018" style="paint-order:markers fill stroke"/>
  <rect transform="rotate(90)" x="42.953" y="-32.268" width="2.0195" height="19.56" style="paint-order:markers fill stroke"/>
  <rect transform="matrix(0,1,1,0,0,0)" x="6.1617" y="17.886" width="2.0195" height="17.299" style="paint-order:markers fill stroke"/>
  <rect transform="matrix(0,1,1,0,0,0)" x="11.997" y="18.284" width="26.697" height="13.092" style="paint-order:markers fill stroke"/>
  <rect transform="matrix(0,1,1,0,0,0)" x="36.649" y="18.232" width="2.0195" height="13.092" style="paint-order:markers fill stroke"/>
  <rect transform="scale(-1,1)" x="-36.934" y="6.1527" width="2.0195" height="5.7373" style="paint-order:markers fill stroke"/>
  <rect transform="scale(-1,1)" x="-40.471" y="10.612" width="2.0195" height="29.297" style="paint-order:markers fill stroke"/>
  <rect transform="matrix(0,1,1,0,0,0)" x="9.8707" y="34.915" width="2.0195" height="5.5535" style="paint-order:markers fill stroke"/>
  <rect transform="matrix(0,1,1,0,0,0)" x="38.661" y="34.917" width="2.0195" height="5.5535" style="paint-order:markers fill stroke"/>
  <rect transform="scale(-1,1)" x="-36.919" y="39.424" width="2.0195" height="5.5018" style="paint-order:markers fill stroke"/>
  <rect transform="matrix(0,1,1,0,0,0)" x="42.952" y="17.362" width="2.0195" height="19.56" style="paint-order:markers fill stroke"/>
 </g>
</svg>
