<svg xmlns="http://www.w3.org/2000/svg" width="580" height="120" version="1.1" viewBox="0 0 580 120"><path fill="#ff8d4e" d="M322.41 99.656H298l-12.373-18.378 12.167-18.188z"/><path fill="#92929a" d="M322.31 19.97H297.9l-12.088 16.42 12.263 16.78z"/><path fill="#2c233d" d="M294.425 58.234l-27.97-38.142h-24.41l27.872 38.142-27.97 41.544h24.41zM148.717 49.404l32.468-29.626h9.474V99.7h-21.082V58.675l-20.86 19.075-20.975-18.97V99.7h-21.077V19.78h9.475zM206.057 19.777h20.972V99.7h-20.973z"/><path fill="#ff8d4e" d="M337.91 19.777h20.97V99.7h-20.97zM371.835 19.778h62.832v20.86H413.51V99.7h-20.944V40.638h-20.73z"/><path fill="#ff8a4b" stroke-width=".75" d="M73.27 78.58l-3.966 22.385h-8.16q-1.19 0-2.266-.567-1.02-.567-1.757-1.53-.68-.963-.962-2.21-.284-1.247 0-2.663l2.72-15.414h-9.35L46.75 94.846q-.282 1.643-1.076 2.833-.736 1.133-1.813 1.87-1.02.737-2.322 1.077-1.247.34-2.607.34h-7.82L35.08 78.58H30.09q-2.662 0-3.796-1.53-1.133-1.585-.51-5.325l.907-5.44h10.03L39.1 52.91H27.825l1.36-7.14q.51-2.605 2.21-3.852 1.757-1.247 5.497-1.247h3.854L43.69 24.07q.51-2.663 2.55-4.137 2.098-1.53 4.818-1.53h8.046l-3.966 22.27h9.406L68.51 18.4h7.82q1.36 0 2.438.455 1.133.453 1.87 1.246.793.738 1.133 1.815.34 1.02.114 2.266l-2.946 16.49H89.93l-1.36 7.14q-.51 2.665-2.266 3.91-1.7 1.19-5.44 1.19h-3.57l-2.38 13.375h6.177q2.664 0 3.798 1.586 1.133 1.53.51 5.27l-.907 5.44zM51.115 66.286h9.407L62.9 52.91h-9.406z" font-family="Lato" font-size="85" font-weight="900" letter-spacing="0" word-spacing="0" style="--font-specification:'Lato Heavy'"/><g fill="#2c233d" stroke-width=".839" font-family="sans-serif" font-size="80.506" font-weight="900" letter-spacing="0" word-spacing="0"><g fill="#2c233d" aria-label="19"><g fill="#2c233d" aria-label="21"><path d="m523.87 90.692h-56.773l33.363-39.508q5.9414-7.0586 5.9414-11.984 0-3.9609-2.4883-6.3984-2.4883-2.4375-6.4492-2.4375-9.9024 0-9.9024 11.883v0.91406h-17.875v-0.50781q0-12.797 7.3633-19.957 7.3633-7.2109 20.211-7.2109 11.781 0 19.195 5.7891 8.125 6.3477 8.125 17.824 0 9.9531-10.055 21.023l-13.406 14.777h22.75z" transform="matrix(1.087 0 0 1.059 -48.002 1.2803) scale(.98224 1.0181) scale(.97165 1.0292)"/><path d="m547.99 90.185v-56.773h-15.945l8.7344-16.859h25.695v73.633z" transform="matrix(1.087 0 0 1.059 -48.002 1.2803) scale(.98224 1.0181) scale(.97165 1.0292)"/></g></g></g></svg>