<svg xmlns="http://www.w3.org/2000/svg" xmlns:svg="http://www.w3.org/2000/svg" id="svg10" width="100" height="100" version="1.1" viewBox="0 0 26.458 26.458" xml:space="preserve"><ellipse style="fill:none;stroke:#212529;stroke-width:1.05832;stroke-linecap:round;stroke-linejoin:round;stroke-dasharray:none;stroke-opacity:1" id="path15" cx="12.426" cy="4.922" rx="1.587" ry="1.64"/><ellipse style="fill:none;stroke:#212529;stroke-width:1.05832;stroke-linecap:round;stroke-linejoin:round;stroke-dasharray:none;stroke-opacity:1" id="path16" cx="10.657" cy="18.341" rx="5.584" ry="5.124"/><path style="fill:none;stroke:#212529;stroke-width:1.05832;stroke-linecap:round;stroke-linejoin:round;stroke-dasharray:none;stroke-opacity:1" id="path17" d="m 20.405629,23.088405 c 0.88707,0.827715 1.482446,0.523887 1.878994,-0.551242 l -1.707769,-6.65598 c -0.129566,-0.256286 0.0591,-0.583263 -0.815882,-0.673965 L 15.395767,15.165298 14.264446,8.4116354 10.14438,7.5148052 6.5871921,10.834314 l 1.249683,5.54346 c 0.646283,0.526895 1.322088,1.344058 1.737198,-0.401942 l -1.054314,-4.745626 1.5954169,-1.044884 0.606475,5.840605 c 0.395118,1.03308 1.052274,1.370832 1.888271,1.234023 l 6.198271,-0.179541 z"/><ellipse style="fill:none;stroke:#212529;stroke-width:1.05832;stroke-linecap:round;stroke-linejoin:round;stroke-dasharray:none;stroke-opacity:1" id="path18" cx="10.648" cy="18.376" rx="3.322" ry="3.007"/></svg>