<svg xmlns="http://www.w3.org/2000/svg" width="50" height="50" viewBox="0 0 50 50"><title>mxt-icon--cat2</title><g data-name="Layer 1"><path fill="#e1629e" d="M0 0h50v50H0z"/><path fill="#242539" d="M11.93 11.86h25V38h-25z"/><path d="M29.55 42.65v-11.1h-9.1v11.1H12.9V12.9h5.55V7.35h13.1v5.55h5.55v29.75zm0-18.65v-9.1h-9.1V24z" fill="#e1629e"/><path d="M30.55 8.35v5.55h-11.1V8.35h11.1m5.55 5.55v27.75h-5.55v-11.1h-11.1v11.1H13.9V13.9h5.55V25h11.1V13.9h5.55m-3.55-7.55h-15.1v5.55H11.9v31.75h9.55v-11.1h7.1v11.1h9.55V11.9h-5.55V6.35zm-11.1 9.55h7.1V23h-7.1v-7.1z" fill="#242539"/></g></svg>