<svg xmlns="http://www.w3.org/2000/svg" width="100" height="100" version="1.1" viewBox="0 0 26.458 26.458"><g fill="none" stroke="#fff" stroke-linecap="round" stroke-linejoin="round" stroke-width="1.417" transform="matrix(.77868 0 0 .71677 3.803 17.846)"><ellipse cx="12.263" cy="-18.992" rx="3.308" ry="4.068"/><ellipse cx="4.802" cy="-5.62" rx="2.928" ry="3.547"/><ellipse cx="19.853" cy="-5.555" rx="2.928" ry="3.547"/><path d="m-2.8736 0.056162c0.80919-0.64484 5.5802 5.8856 3.8544 7.6948-0.23047 0.24161-1.0784 0.92949-1.0784 0.92949-0.33026-0.095983-0.66726-0.25644-1.0514-0.86942-0.11758-1.1348 0.049476-2.4066 0.37511-3.7548 0.54033-1.7932 1.6211-3.0507 3.1278-3.8862 1.7078-0.82438 3.0046-0.74926 4.183-0.41496 1.8048 0.49444 2.9049 1.3186 3.6491 2.3091 0.92741 1.8488 1.8103 3.7015 1.5197 5.6577-0.2713 0.62649-0.61926 1.0594-1.1091 1.134-0.54956 0.064473-0.96573-0.098766-1.2356-0.51162l-0.064541-16.896c-0.16084-0.77568-0.46659-1.5042-1.375-2.0366l-4.4642-3.9107c-0.4499-2.157 0.48148-2.4086 1.7044-2.2581l3.534 2.9797c2.0935 0.99813 4.1779 2.0438 6.8069 0.22113l3.8978-3.341c1.3753-0.02588 2.2896 0.40738 1.6709 2.3674l-5.5659 4.7685c-0.19864 0.46874-0.28947 0.90046-0.20392 1.2716l-0.06274 16.264c-0.68356 1.0178-1.4254 1.1633-2.2594-0.070007-0.13442-1.9202 0.48184-3.9415 1.6856-6.0418 0.70579-0.82379 1.7211-1.2791 2.7127-1.7625 1.8013-0.52443 3.1257-0.24345 4.4417 0.05166 1.3892 0.83281 2.5013 1.7203 3.0509 2.7189 0.52934 1.443 1.0366 2.8873 0.98556 4.3644-0.0929 0.59138-0.18648 1.1824-0.60071 1.6133l-0.81877 5.828e-4c-0.39443-0.037424-0.69252-0.3608-0.9584-0.77976-0.1459-1.0931-0.19966-2.2156 0.26722-3.5048 0.040136-0.9335 0.5951-1.8841 1.4802-2.8456 0.63701-0.55624 1.276-1.1104 2.2391-1.3258"/></g></svg>