<svg xmlns="http://www.w3.org/2000/svg" width="100" height="100" fill="#fff" version="1.1" viewBox="0 0 100 100"><!--! Font Awesome Pro 6.2.1 by @fontawesome - https://fontawesome.com License - https://fontawesome.com/license (Commercial License) Copyright 2022 Fonticons, Inc.--><path fill="#fff" d="m72.398 85.514c1.493 0 2.7146-1.265 2.7146-2.811v-5.6221h8.1439v5.6221c0 6.2019-4.8694 11.244-10.859 11.244h-43.434c-5.9977 0-10.859-5.0423-10.859-11.244v-5.6221h8.1439v5.6221c0 1.5461 1.2148 2.811 2.7146 2.811zm-10.859-53.41c-3.0031 0-5.4293-2.5124-5.4293-5.6221v-14.055h-27.146c-1.4998 0-2.7146 1.2579-2.7146 2.811v22.488h-8.1439v-22.488c0-6.2107 4.8609-11.244 10.859-11.244h28.08c2.8843 0 5.6329 1.1847 7.6689 3.2942l15.372 15.909c2.036 2.1083 3.1727 4.9545 3.1727 7.9412v6.5884h-8.1439v-5.6221zm-28.504 11.244c5.2427 0 9.5013 4.4098 9.5013 9.8387 0 5.4288-4.2586 9.8387-9.5013 9.8387h-1.3573v5.6221c0 1.5461-1.2148 2.811-2.7146 2.811s-2.7146-1.265-2.7146-2.811v-22.488c0-1.5461 1.2148-2.8111 2.7146-2.8111zm4.072 9.8387c0-2.3367-1.8154-4.2166-4.072-4.2166h-1.3573v8.4332h1.3573c2.2565 0 4.072-1.8799 4.072-4.2166zm8.1439-7.0276c0-1.5461 1.2216-2.8111 2.7146-2.8111h4.072c4.4961 0 8.1439 3.7773 8.1439 8.4332v11.244c0 4.6558-3.6478 8.4332-8.1439 8.4332h-4.072c-1.4931 0-2.7146-1.265-2.7146-2.811zm5.4293 19.677h1.3573c1.4931 0 2.7146-1.265 2.7146-2.811v-11.244c0-1.5461-1.2216-2.8111-2.7146-2.8111h-1.3573zm24.432-22.488c1.493 0 2.7146 1.265 2.7146 2.8111 0 1.5461-1.2216 2.811-2.7146 2.811h-5.4293v5.6221h5.4293c1.493 0 2.7146 1.265 2.7146 2.811 0 1.5461-1.2216 2.811-2.7146 2.811h-5.4293v8.4332c0 1.5461-1.2216 2.811-2.7146 2.811-1.4931 0-2.7146-1.265-2.7146-2.811v-22.488c0-1.5461 1.2216-2.8111 2.7146-2.8111z"/></svg>