<?xml version="1.0" encoding="UTF-8" standalone="no"?>
<svg
   xmlns:dc="http://purl.org/dc/elements/1.1/"
   xmlns:cc="http://creativecommons.org/ns#"
   xmlns:rdf="http://www.w3.org/1999/02/22-rdf-syntax-ns#"
   xmlns:svg="http://www.w3.org/2000/svg"
   xmlns="http://www.w3.org/2000/svg"
   xmlns:sodipodi="http://sodipodi.sourceforge.net/DTD/sodipodi-0.dtd"
   xmlns:inkscape="http://www.inkscape.org/namespaces/inkscape"
   width="580"
   height="120"
   viewBox="0 0 580 120"
   version="1.1"
   id="svg18"
   sodipodi:docname="mxt-icon--logo-20-inversed.svg"
   inkscape:version="1.0.1 (0767f8302a, 2020-10-17)">
  <metadata
     id="metadata24">
    <rdf:RDF>
      <cc:Work
         rdf:about="">
        <dc:format>image/svg+xml</dc:format>
        <dc:type
           rdf:resource="http://purl.org/dc/dcmitype/StillImage" />
        <dc:title />
      </cc:Work>
    </rdf:RDF>
  </metadata>
  <defs
     id="defs22" />
  <sodipodi:namedview
     pagecolor="#ffffff"
     bordercolor="#666666"
     borderopacity="1"
     objecttolerance="10"
     gridtolerance="10"
     guidetolerance="10"
     inkscape:pageopacity="0"
     inkscape:pageshadow="2"
     inkscape:window-width="1863"
     inkscape:window-height="1032"
     id="namedview20"
     showgrid="true"
     inkscape:zoom="1.2922986"
     inkscape:cx="370.37894"
     inkscape:cy="197.98426"
     inkscape:window-x="57"
     inkscape:window-y="20"
     inkscape:window-maximized="1"
     inkscape:current-layer="svg18"
     inkscape:document-rotation="0">
    <inkscape:grid
       type="xygrid"
       id="grid838" />
  </sodipodi:namedview>
  <path
     d="M322.41 99.656H298l-12.373-18.378 12.167-18.188z"
     fill="#ff8d4e"
     id="path2" />
  <path
     d="M322.31 19.97H297.9l-12.088 16.42 12.263 16.78z"
     fill="#92929a"
     id="path4" />
  <path
     d="M294.425 58.234l-27.97-38.142h-24.41l27.872 38.142-27.97 41.544h24.41zM148.717 49.404l32.468-29.626h9.474V99.7h-21.082V58.675l-20.86 19.075-20.975-18.97V99.7h-21.077V19.78h9.475zM206.057 19.777h20.972V99.7h-20.973z"
     fill="#2c233d"
     id="path6"
     style="fill:#ffffff;fill-opacity:1" />
  <path
     d="M337.91 19.777h20.97V99.7h-20.97zM371.835 19.778h62.832v20.86H413.51V99.7h-20.944V40.638h-20.73z"
     fill="#ff8d4e"
     id="path8" />
  <path
     d="M73.27 78.58l-3.966 22.385h-8.16q-1.19 0-2.266-.567-1.02-.567-1.757-1.53-.68-.963-.962-2.21-.284-1.247 0-2.663l2.72-15.414h-9.35L46.75 94.846q-.282 1.643-1.076 2.833-.736 1.133-1.813 1.87-1.02.737-2.322 1.077-1.247.34-2.607.34h-7.82L35.08 78.58H30.09q-2.662 0-3.796-1.53-1.133-1.585-.51-5.325l.907-5.44h10.03L39.1 52.91H27.825l1.36-7.14q.51-2.605 2.21-3.852 1.757-1.247 5.497-1.247h3.854L43.69 24.07q.51-2.663 2.55-4.137 2.098-1.53 4.818-1.53h8.046l-3.966 22.27h9.406L68.51 18.4h7.82q1.36 0 2.438.455 1.133.453 1.87 1.246.793.738 1.133 1.815.34 1.02.114 2.266l-2.946 16.49H89.93l-1.36 7.14q-.51 2.665-2.266 3.91-1.7 1.19-5.44 1.19h-3.57l-2.38 13.375h6.177q2.664 0 3.798 1.586 1.133 1.53.51 5.27l-.907 5.44zM51.115 66.286h9.407L62.9 52.91h-9.406z"
     style="--font-specification:'Lato Heavy'"
     font-weight="900"
     font-size="85"
     font-family="Lato"
     fill="#ff8a4b"
     letter-spacing="0"
     word-spacing="0"
     stroke-width=".75"
     id="path10" />
  <g
     style="line-height:1.25;fill:#ffffff;fill-opacity:1;stroke:none;stroke-opacity:1"
     font-size="80.506px"
     font-family="sans-serif"
     letter-spacing="0"
     word-spacing="0"
     stroke-width="0.839"
     font-weight="900"
     fill="#2b233c"
     id="g16"
     transform="matrix(1.0870209,0,0,1.0589932,-48.00202,1.280265)">
    <g
       aria-label="19"
       transform="scale(0.98223549,1.0180858)"
       style="font-style:normal;font-weight:normal;font-size:106.369px;line-height:1.25;font-family:sans-serif;letter-spacing:0px;word-spacing:0px;fill:#ffffff;fill-opacity:1;stroke:none;stroke-width:2.2311;stroke-opacity:1"
       id="text4539">
      <text
         xml:space="preserve"
         style="font-style:normal;font-variant:normal;font-weight:normal;font-stretch:normal;font-size:104px;line-height:1.25;font-family:'Eurostile Extended';-inkscape-font-specification:'Eurostile Extended';letter-spacing:0px;word-spacing:0px;fill:#ffffff;fill-opacity:1;stroke:none;stroke-width:2.96097;stroke-opacity:1"
         x="465.62692"
         y="90.692482"
         id="text897"
         transform="scale(0.97165139,1.0291757)"><tspan
           sodipodi:role="line"
           id="tspan895"
           x="465.62692"
           y="90.692482"
           style="font-style:normal;font-variant:normal;font-weight:bold;font-stretch:normal;font-size:104px;font-family:'Tintin Majuscules';-inkscape-font-specification:'Tintin Majuscules Bold';fill:#ffffff;fill-opacity:1;stroke:none;stroke-width:2.96097;stroke-opacity:1">21</tspan></text>
    </g>
  </g>
</svg>
