<svg xmlns="http://www.w3.org/2000/svg" id="svg18" width="480" height="120" version="1.1" viewBox="0 0 480 120"><metadata id="metadata24"/><path id="path2" fill="#ff8d4e" d="M 294.41,99.656 H 270 L 257.627,81.278 269.794,63.09 Z"/><path id="path4" fill="#92929a" d="M 294.31,19.97 H 269.9 l -12.088,16.42 12.263,16.78 z"/><path id="path6" fill="#2c233d" d="m 266.425,58.234 -27.97,-38.142 h -24.41 l 27.872,38.142 -27.97,41.544 h 24.41 z m -145.708,-8.83 32.468,-29.626 h 9.474 V 99.7 H 141.577 V 58.675 L 120.717,77.75 99.742,58.78 V 99.7 H 78.665 V 19.78 h 9.475 z m 57.34,-29.627 h 20.972 V 99.7 h -20.973 z"/><path id="path8" fill="#ff8d4e" d="m 309.91,19.777 h 20.97 V 99.7 h -20.97 z m 33.925,10e-4 h 62.832 v 20.86 H 385.51 V 99.7 H 364.566 V 40.638 h -20.73 z"/></svg>