<svg xmlns="http://www.w3.org/2000/svg" width="580" height="120" version="1.1" viewBox="0 0 580 120"><metadata/><path fill="#ff8d4e" d="m313.36 97.246h-24.4l-12.4-18.4 12.2-18.3z"/><path fill="#92929a" d="m313.26 17.546h-24.3l-12 16.4 12 16.8z"/><path fill="#2c233d" d="m285.36 55.746-28-38.1h-24.4l28 38.1-28 41.6h24.4zm-145.7-8.8 32.5-29.6h9.5v79.9h-21.1v-41l-20.9 19-21-19v41h-21v-80h9.4zm57.4-29.6h21v79.9h-21z"/><path fill="#ff8d4e" d="m328.96 17.346h20.9v79.9h-21zm33.8 0h62.9v20.8h-21.2v59.1h-21v-59h-20.7z"/><path fill="#ff8a4b" d="m64.266 76.146-4 22.4h-8.2q-1.1 0-2.2-0.6-1-0.6-1.8-1.5-0.7-1-1-2.2-0.2-1.3 0-2.7l2.9-15.4h-9.4l-2.8 16.2q-0.2 1.7-1 2.9-0.8 1.1-1.8 1.8-1 0.8-2.4 1.1-1.2 0.4-2.6 0.4h-7.8l4-22.4h-5q-2.7 0-3.8-1.5-1.1-1.6-0.5-5.4l0.9-5.4h10l2.4-13.4h-11.4l1.4-7.1q0.5-2.6 2.2-3.9 1.8-1.2 5.5-1.2h3.8l3-16.6q0.5-2.7 2.5-4.2 2.1-1.5 4.9-1.5h8l-4 22.3h9.4l4-22.3h7.8q1.4 0 2.5 0.5 1.1 0.4 1.8 1.2 0.8 0.7 1.2 1.8 0.3 1 0 2.3l-2.8 16.5h11l-1.3 7.1q-0.5 2.7-2.3 4-1.7 1.1-5.4 1.1h-3.6l-2.4 13.4h6.2q2.7 0 3.8 1.6 1.1 1.5 0.5 5.2l-1 5.5zm-22.3-12.3h9.4l2.6-13.4h-9.4z" font-size="85" font-weight="900" letter-spacing="0" word-spacing="0"/><g fill="#2c233d" stroke-width="2.763" aria-label="23"><path d="m463.14 15.91q5.9682 0 10.721 1.7684 4.8078 1.7131 8.1787 4.8078t5.1393 7.405q1.8236 4.2551 1.8236 9.3945 0 4.4209-1.271 8.1787-1.2158 3.7578-3.371 7.184-2.1552 3.371-5.0288 6.5761-2.8183 3.1499-6.0235 6.4103l-15.75 16.136q3.0394-0.88418 5.9682-1.3815 2.9841-0.55262 5.5814-0.55262h15.031q2.7631 0 4.3657 1.5473 1.6026 1.4921 1.6026 3.9788v9.9471h-56.588v-5.5262q0-1.6026 0.66314-3.4262 0.66314-1.8236 2.321-3.3157l23.21-23.376q2.9841-2.9841 5.1946-5.6919 2.2105-2.7078 3.6473-5.3051 1.4368-2.6526 2.1552-5.2498 0.7184-2.6526 0.7184-5.5814 0-4.8078-2.321-7.3498-2.2657-2.5973-6.963-2.5973-3.813 0-6.4656 2.0447-2.5973 1.9894-3.592 4.9735-1.1605 3.0394-3.0394 4.0341t-5.3604 0.44209l-9.0629-1.6026q0.88418-6.0235 3.371-10.5 2.542-4.4762 6.2446-7.4603 3.7578-2.9841 8.5655-4.4209 4.8078-1.4921 10.334-1.4921z" transform="scale(1.0034 .99666)"/><path d="m527.68 15.91q5.9682 0 10.61 1.7131 4.642 1.6578 7.8471 4.5314t4.863 6.6866q1.6578 3.7578 1.6578 7.9577 0 3.813-0.77366 6.7419-0.77366 2.8736-2.321 5.0288-1.4921 2.0999-3.7578 3.592-2.2105 1.4921-5.0841 2.4868 13.373 4.642 13.373 18.181 0 6.4103-2.321 11.163-2.321 4.7525-6.2446 7.9024-3.8683 3.1499-9.0076 4.7525-5.1393 1.5473-10.721 1.5473-5.7472 0-10.223-1.2158-4.4762-1.271-7.9577-3.8683-3.4815-2.6526-6.134-6.7419-2.5973-4.0894-4.5314-9.726l7.6261-3.0946q2.9841-1.1605 5.5262-0.60788t3.6473 2.542q2.4868 4.5867 5.2498 6.6866 2.8183 2.0447 6.5761 2.0447 2.8736 0 4.9735-0.93944 2.1552-0.99471 3.5367-2.4868 1.4368-1.5473 2.1552-3.4815 0.7184-1.9342 0.7184-3.9236 0-2.5973-0.38683-4.642-0.33157-2.0999-1.9894-3.592-1.6578-1.4921-5.0288-2.2657-3.3157-0.82892-9.2839-0.82892v-11.826q5.0288 0 8.1234-0.77366 3.0946-0.77366 4.7525-2.0999 1.7131-1.3815 2.2657-3.3157 0.55261-1.9342 0.55261-4.2551 0-4.7525-2.321-7.2945-2.2657-2.5973-6.963-2.5973-3.813 0-6.4656 2.0447-2.5973 1.9894-3.592 4.9735-1.1605 3.0394-3.0394 4.0341-1.8789 0.99471-5.3604 0.44209l-9.0629-1.6026q0.88419-6.0235 3.371-10.5 2.542-4.4762 6.2446-7.4603 3.7578-2.9841 8.5655-4.4209 4.8078-1.4921 10.334-1.4921z" transform="scale(1.0034 .99666)"/></g></svg>