<svg xmlns="http://www.w3.org/2000/svg" id="svg130" width="100mm" height="100mm" version="1.1" viewBox="0 0 100 100"><g id="layer1"><path id="path6" fill="#fff" d="m 51.147041,37.806205 29.666377,-27.01926 h 8.671748 V 83.720703 H 70.224782 V 46.295379 L 51.147041,63.638805 31.977977,46.295379 V 83.720703 H 12.808914 V 10.695692 h 8.580426 z" style="fill:#2c233d;fill-opacity:1;stroke-width:.912811"/><path id="path8" fill="#ff8d4e" d="m 63.498455,60.199258 h 33.213598 v 4.070621 H 63.33941 Z" style="stroke-width:.2829;stroke-miterlimit:4;stroke-dasharray:none"/><path id="path8-3" fill="#ff8d4e" d="m 63.498455,67.921152 h 33.213598 v 4.07062 H 63.33941 Z" style="stroke-width:.284539"/><path id="path8-6" fill="#ff8d4e" d="m 5.534279,63.327787 h 33.2136 v 4.070621 H 5.375234 Z" style="stroke-width:.284539"/><path id="path8-3-7" fill="#ff8d4e" d="m 5.534279,71.049681 h 33.2136 v 4.07062 H 5.375234 Z" style="stroke-width:.284539"/><ellipse style="fill:#ff8d4e;fill-opacity:1;fill-rule:evenodd;stroke-width:.756771" id="path507" cx="50.165" cy="56.454" rx="9.207" ry="9.653"/><ellipse style="fill:#ff8d4e;fill-opacity:1;fill-rule:evenodd;stroke-width:.241503" id="path507-7-3" cx="42.234" cy="32.221" rx="3.691" ry="2.452" transform="matrix(-0.01648988,0.99986403,0.99997309,0.00733563,0,0)"/><ellipse style="fill:#ff8d4e;fill-opacity:1;fill-rule:evenodd;stroke-width:.241503" id="path507-7-3-6" cx="42.049" cy="70.931" rx="3.691" ry="2.452" transform="matrix(-0.01648988,0.99986403,0.99997309,0.00733563,0,0)"/></g></svg>