<svg xmlns="http://www.w3.org/2000/svg" viewBox="0 0 837.406 84.667"><path fill="#6c6978" d="M.168 85.542l.157-13.347 22.679-.755s5.102 1.322 6.425 1.322c1.323 0 11.34-.567 11.34-.567l6.614-1.511 8.316.567 5.858 1.133 4.347-1.511 10.205 1.7h5.48l3.592-1.133.756-9.26 3.401-.19.19 8.883 8.126-.378 1.89.567 2.646 1.322 10.583-.566.378-10.962 15.875-1.323.378 12.473 3.969-1.511 4.346 1.7 1.134-2.456 6.993.189 2.268 2.456 2.646.19.756-52.161 6.425-4.158.19-13.418.755-.19.189 13.041 14.174-6.804 2.457.378.567 59.91 8.693-.756 8.505.378.378 2.079 3.213-.756 1.323-.756 7.748-.567.756 2.079 38.554.378-.378-43.279 2.267-.567 8.694-9.638 8.882 10.772.378.756 1.323 41.389 7.56-.567 5.102 1.323 2.835-.19 6.237-.566 5.292-1.512 4.535 1.134 2.646.756L332 70.495l1.701 1.134 2.079.189 5-3.7 12.009 4.644 7.937-.189 6.237.19 11.906-.19 4.347.378h4.536l3.401 1.134 2.835.378 5.103.378c10.28 1.184 4.914 0 4.914 0l41.577 2.268 8.162-5.507 14.74-.782 13.1 8.827 45.874-1.268-.152-8.03 72.037-2.105 1.011-5.368 2.91-2.873 2.315-5.544 2.284 2.757.195 2.671 3.487 1.754 1.603 3.055.739 3.764 21.35.088.39-3.401 2.984-4.782 1.874-1.41 2.282 1.3 2.751 3.042 1.503 3.327 17.706.348.242 7.834 5.301-.472 4.715-6.217 15.602.137 15.973-.487.048-5.035c2.211-10.17 14.102-11.469 17.247-.456l.19 5.497 26.998-.79 10.334 1.868 8.437-1.814 11.906 2.981 12.453-3.2 25.077 4.974 18.179 3.073.021 9.79-837.28.887"/></svg>