<svg xmlns="http://www.w3.org/2000/svg" width="100" height="100" version="1.1" viewBox="0 0 26.458 26.458"><g fill="none" stroke="#fff" stroke-width="1.058"><ellipse cx="12.873" cy="5.276" stroke-linecap="round" stroke-linejoin="round" rx="3.155" ry="3.474"/><ellipse cx="15.859" cy="16.127" stroke-linecap="round" stroke-linejoin="round" rx="2.579" ry="2.823"/><path d="m10.063 15.976c0.43098-0.48486 0.83371-0.57029 1.2061-0.22627 0.87486 0.72128 0.96381 1.4957 1.2939 2.2538 1.1861 1.2608 2.5036 1.8656 3.9552 1.7998l-1.0924 1.2771-1.2482 0.7667-2.0045-0.54805c-1.517-0.089894-3.1836 0.25552-4.3244-0.92906 0.57523-0.49956 1.9689-0.77394 2.9536-1.1608-0.44444-0.72684-1.0277-1.3863-0.993-2.3457z"/><path d="m14.645 21.787c0.42335 0.53454 0.8705 1.0501 1.9161 1.0887 1.4804-0.27636 2.9449-0.58312 3.9448-1.7861 0.76642-1.1239 1.4301-2.2993 1.3457-3.85-0.53323-1.6875-0.86818-3.4092-2.0579-4.9832-0.51611-0.93898-1.4718-1.7676-3.1523-2.4142-2.2292 0.64434-4.4328 0.58273-6.6212 0.09961-1.5024 0.46284-2.4015 1.5922-3.3423 2.6755l-2.3135 5.4102c-0.138 3.7265 0.82064 3.6712 1.3556 5.0769 2.5102 0.71044 4.9956 1.1649 7.445 1.2503 1.0122-0.1907 1.8548-0.54249 1.2943-2.2266"/></g></svg>