<svg xmlns="http://www.w3.org/2000/svg" width="900" height="505" version="1.1" viewBox="0 0 238.12 133.61" xml:space="preserve"><rect width="237.8" height="133.2" x="-.189" y=".069" fill="#2c233d" ry=".244"/><text x="50.956" y="25.161" fill="#2c233d" stroke-linecap="round" stroke-linejoin="round" stroke-width="1.058" font-family="Lato" font-size="25.4" text-align="center" text-anchor="middle" style="line-height:1.15" xml:space="preserve"><tspan x="50.956" y="25.161" stroke-width="1.058">Player</tspan></text><g data-name="Layer 2"><g data-name="Layer 1" transform="matrix(.26458 0 0 .26458 95.379 18.951)"><polygon fill="none" points="108.19 24.05 108.18 24.04 104.14 29.77"/><line x1="100.67" x2="100.66" y1="34.7" y2="34.72" fill="none" stroke-width="0"/><polygon fill="#ff8d4e" points="109.58 24.98 123.79 46.08 109.69 46.08 102.55 35.48"/><polygon fill="#b4b4b5" points="110.53 19.26 124.52 .11 110.43 .11 103.45 9.58"/><g fill="#fff"><polygon points="92.27 .18 78.17 .18 94.27 22.18 78.12 46.15 92.21 46.15 108.42 22.18"/><path d="m24.28 17.09 18.72-17.09h5.5v46.1h-12.17v-23.66l-12 11-12.16-10.94v23.6h-12.17v-46.1h5.47z"/><path d="m57.39 0h12.11v46.1h-12.11z"/></g><path fill="#ff8d4e" d="m133.53 0h12.11v46.1h-12.11z"/><path fill="#ff8d4e" d="m153.12 0h36.28v12h-12.21v34.1h-12.1v-34.1h-12z"/></g></g><g fill="#fff" stroke-linecap="round" stroke-linejoin="round" stroke-width="1.058" aria-label="Player not available"><path d="m51.646 45.669v4.5381h-1.6341v-12.133h3.5814q1.1515 0 1.9981 0.27093 0.85513 0.26247 1.4139 0.75353t0.82973 1.1853q0.2794 0.69426 0.2794 1.5494 0 0.84666-0.29633 1.5494-0.29633 0.70273-0.87206 1.2107-0.56727 0.508-1.4139 0.79586-0.8382 0.2794-1.9389 0.2794zm0-1.3039h1.9473q0.70273 0 1.2361-0.18627 0.54187-0.18627 0.90593-0.51647 0.37253-0.33867 0.5588-0.80433 0.18627-0.46567 0.18627-1.0245 0-1.1599-0.71966-1.8119-0.7112-0.65193-2.1675-0.65193h-1.9473z"/><path d="m61.29 37.736v12.471h-1.5071v-12.471z"/><path d="m69.181 50.207q-0.22013 0-0.33867-0.06773-0.11853-0.0762-0.18627-0.28787l-0.16933-0.80433q-0.33867 0.3048-0.66886 0.55033-0.32173 0.23707-0.67733 0.4064-0.34713 0.16087-0.75353 0.24553-0.39793 0.09313-0.889 0.09313-0.49953 0-0.9398-0.13547-0.44027-0.14393-0.77047-0.42333-0.32173-0.2794-0.51646-0.70273-0.18627-0.4318-0.18627-1.016 0-0.508 0.2794-0.97366 0.2794-0.47413 0.90593-0.8382 0.62653-0.36407 1.6341-0.59266 1.0075-0.23707 2.4723-0.27093v-0.66886q0-0.99906-0.4318-1.5071-0.4318-0.51647-1.2615-0.51647-0.5588 0-0.9398 0.14393-0.37253 0.13547-0.65193 0.31327-0.27093 0.16933-0.47413 0.31327-0.19473 0.13547-0.38947 0.13547-0.1524 0-0.26247-0.0762-0.11007-0.08467-0.18627-0.2032l-0.27093-0.4826q0.7112-0.6858 1.5325-1.0245t1.8203-0.33867q0.71967 0 1.2785 0.23707 0.5588 0.23707 0.9398 0.6604 0.381 0.42333 0.57573 1.0245t0.19473 1.3208v5.4864zm-3.2343-0.92286q0.39793 0 0.72813-0.0762 0.3302-0.08467 0.61807-0.2286 0.29633-0.1524 0.5588-0.36407 0.27093-0.22013 0.52493-0.49107v-1.778q-1.0414 0.03387-1.778 0.16933-0.72813 0.127-1.1938 0.33867-0.4572 0.21167-0.66887 0.49953-0.2032 0.28787-0.2032 0.64346 0 0.33867 0.11007 0.5842 0.11007 0.24553 0.29633 0.4064 0.19473 0.1524 0.44873 0.2286 0.26247 0.06773 0.5588 0.06773z"/><path d="m74.557 52.739q-0.0762 0.16933-0.19473 0.27093-0.11007 0.1016-0.34713 0.1016h-1.1176l1.5663-3.4036-3.5391-8.0772h1.3039q0.19473 0 0.3048 0.1016 0.11853 0.09313 0.16087 0.21167l2.2945 5.4017q0.06773 0.19473 0.127 0.381 0.05927 0.1778 0.1016 0.37253 0.11007-0.381 0.254-0.762l2.2267-5.3933q0.0508-0.13547 0.16933-0.22013 0.127-0.09313 0.2794-0.09313h1.1938z"/><path d="m83.947 41.495q0.77047 0 1.4224 0.26247 0.6604 0.254 1.1345 0.74506 0.4826 0.4826 0.75353 1.2023 0.27093 0.7112 0.27093 1.6256 0 0.3556-0.0762 0.47413t-0.28787 0.11853h-5.7319q0.01693 0.8128 0.22013 1.4139 0.2032 0.60113 0.5588 1.0075 0.3556 0.39793 0.84666 0.60113 0.49107 0.19473 1.1007 0.19473 0.56726 0 0.97366-0.127 0.41487-0.13547 0.7112-0.28787t0.49107-0.2794q0.2032-0.13547 0.34713-0.13547 0.18627 0 0.28787 0.14393l0.42333 0.55033q-0.2794 0.33867-0.66886 0.59267-0.38947 0.24553-0.8382 0.4064-0.44026 0.16087-0.9144 0.23707-0.47413 0.08467-0.9398 0.08467-0.889 0-1.6425-0.29633-0.74506-0.3048-1.2954-0.88053-0.54186-0.5842-0.84666-1.4393-0.3048-0.85513-0.3048-1.9643 0-0.89746 0.27093-1.6764 0.2794-0.77893 0.79586-1.3462 0.51647-0.57573 1.2615-0.89746 0.74506-0.3302 1.6764-0.3302zm0.03387 1.1091q-1.0922 0-1.7187 0.635-0.62653 0.62653-0.77893 1.7441h4.6905q0-0.52493-0.1524-0.95673-0.14393-0.44027-0.4318-0.75353-0.2794-0.32173-0.6858-0.49106-0.4064-0.1778-0.92286-0.1778z"/><path d="m89.374 50.207v-8.5767h0.8636q0.24553 0 0.33867 0.09313 0.09313 0.09313 0.127 0.32173l0.09313 1.3039q0.4064-0.88053 0.99906-1.3716 0.60113-0.49953 1.4563-0.49953 0.27093 0 0.51647 0.05927 0.254 0.05927 0.44873 0.18627l-0.11007 1.1261q-0.0508 0.21167-0.254 0.21167-0.11853 0-0.34713-0.0508-0.2286-0.0508-0.51646-0.0508-0.4064 0-0.72813 0.127-0.32173 0.11853-0.57573 0.3556-0.24553 0.2286-0.44027 0.56727t-0.3556 0.77893v5.4187z"/><path d="m99.517 50.207v-8.5767h0.90593q0.32173 0 0.39793 0.31327l0.11853 0.93133q0.5588-0.61807 1.2531-0.99906 0.69426-0.381 1.6002-0.381 0.70273 0 1.2361 0.23707 0.54186 0.2286 0.89746 0.6604 0.36407 0.42333 0.55033 1.0245 0.18627 0.60113 0.18627 1.3293v5.461h-1.5155v-5.461q0-0.97366-0.44873-1.5071-0.44027-0.54187-1.3462-0.54187-0.67733 0-1.2615 0.32173-0.57573 0.32173-1.0583 0.87206v6.3161z"/><path d="m112.58 41.495q0.9398 0 1.6933 0.31327t1.2869 0.889 0.8128 1.397q0.28786 0.8128 0.28786 1.8203 0 1.016-0.28786 1.8288-0.2794 0.8128-0.8128 1.3885t-1.2869 0.889q-0.75353 0.3048-1.6933 0.3048-0.94827 0-1.7103-0.3048-0.75353-0.31327-1.2869-0.889-0.53339-0.57573-0.82126-1.3885-0.2794-0.8128-0.2794-1.8288 0-1.0075 0.2794-1.8203 0.28787-0.82126 0.82126-1.397 0.5334-0.57573 1.2869-0.889 0.762-0.31327 1.7103-0.31327zm0 7.6539q1.27 0 1.8965-0.84666 0.62653-0.85513 0.62653-2.3791 0-1.5325-0.62653-2.3876-0.62653-0.85513-1.8965-0.85513-0.64347 0-1.1261 0.22013-0.47413 0.22013-0.79586 0.635-0.31327 0.41486-0.47413 1.0245-0.1524 0.60113-0.1524 1.3631 0 1.524 0.62653 2.3791 0.635 0.84666 1.9219 0.84666z"/><path d="m121.05 50.343q-1.016 0-1.5663-0.56726-0.54186-0.56727-0.54186-1.6341v-5.2493h-1.0329q-0.13547 0-0.2286-0.0762-0.0931-0.08467-0.0931-0.254v-0.60113l1.4055-0.1778 0.34713-2.6501q0.0254-0.127 0.11007-0.2032 0.0931-0.08467 0.23706-0.08467h0.762v2.9549h2.4807v1.0922h-2.4807v5.1477q0 0.54187 0.26247 0.80433 0.26246 0.26247 0.67733 0.26247 0.23707 0 0.4064-0.05927 0.1778-0.06773 0.3048-0.14393 0.127-0.0762 0.21166-0.13547 0.0931-0.06773 0.16087-0.06773 0.11853 0 0.21167 0.14393l0.44026 0.71966q-0.38946 0.36407-0.93979 0.57573-0.55034 0.2032-1.1345 0.2032z"/><path d="m134.27 50.207q-0.22014 0-0.33867-0.06773-0.11853-0.0762-0.18626-0.28787l-0.16934-0.80433q-0.33866 0.3048-0.66886 0.55033-0.32174 0.23707-0.67733 0.4064-0.34714 0.16087-0.75354 0.24553-0.39793 0.09313-0.88899 0.09313-0.49954 0-0.9398-0.13547-0.44027-0.14393-0.77047-0.42333-0.32173-0.2794-0.51646-0.70273-0.18627-0.4318-0.18627-1.016 0-0.508 0.2794-0.97366 0.2794-0.47413 0.90593-0.8382t1.6341-0.59266q1.0075-0.23707 2.4723-0.27093v-0.66886q0-0.99906-0.4318-1.5071-0.4318-0.51647-1.2615-0.51647-0.5588 0-0.9398 0.14393-0.37253 0.13547-0.65193 0.31327-0.27094 0.16933-0.47414 0.31327-0.19473 0.13547-0.38946 0.13547-0.1524 0-0.26247-0.0762-0.11007-0.08467-0.18626-0.2032l-0.27094-0.4826q0.7112-0.6858 1.5325-1.0245 0.82126-0.33867 1.8203-0.33867 0.71966 0 1.2785 0.23707t0.9398 0.6604q0.381 0.42333 0.57573 1.0245t0.19473 1.3208v5.4864zm-3.2343-0.92286q0.39793 0 0.72813-0.0762 0.3302-0.08467 0.61806-0.2286 0.29634-0.1524 0.5588-0.36407 0.27094-0.22013 0.52494-0.49107v-1.778q-1.0414 0.03387-1.778 0.16933-0.72813 0.127-1.1938 0.33867-0.4572 0.21167-0.66886 0.49953-0.2032 0.28787-0.2032 0.64346 0 0.33867 0.11006 0.5842 0.11007 0.24553 0.29634 0.4064 0.19473 0.1524 0.44873 0.2286 0.26246 0.06773 0.5588 0.06773z"/><path d="m136.06 41.631h1.2277q0.18627 0 0.3048 0.09313t0.16086 0.22013l2.1759 5.5203q0.1016 0.31327 0.1778 0.6096t0.14394 0.59266q0.0677-0.29633 0.14393-0.59266 0.0762-0.29633 0.18627-0.6096l2.2013-5.5203q0.0508-0.13547 0.16934-0.22013 0.11853-0.09313 0.2794-0.09313h1.1769l-3.4967 8.5767h-1.3547z"/><path d="m151.06 50.207q-0.22013 0-0.33866-0.06773-0.11854-0.0762-0.18627-0.28787l-0.16933-0.80433q-0.33867 0.3048-0.66887 0.55033-0.32173 0.23707-0.67733 0.4064-0.34713 0.16087-0.75353 0.24553-0.39794 0.09313-0.889 0.09313-0.49953 0-0.9398-0.13547-0.44027-0.14393-0.77046-0.42333-0.32174-0.2794-0.51647-0.70273-0.18627-0.4318-0.18627-1.016 0-0.508 0.2794-0.97366 0.2794-0.47413 0.90593-0.8382 0.62654-0.36407 1.6341-0.59266 1.0075-0.23707 2.4723-0.27093v-0.66886q0-0.99906-0.4318-1.5071-0.4318-0.51647-1.2615-0.51647-0.5588 0-0.9398 0.14393-0.37253 0.13547-0.65193 0.31327-0.27093 0.16933-0.47413 0.31327-0.19474 0.13547-0.38947 0.13547-0.1524 0-0.26246-0.0762-0.11007-0.08467-0.18627-0.2032l-0.27093-0.4826q0.71119-0.6858 1.5325-1.0245 0.82126-0.33867 1.8203-0.33867 0.71966 0 1.2785 0.23707t0.9398 0.6604q0.381 0.42333 0.57573 1.0245 0.19474 0.60113 0.19474 1.3208v5.4864zm-3.2343-0.92286q0.39793 0 0.72813-0.0762 0.3302-0.08467 0.61807-0.2286 0.29633-0.1524 0.5588-0.36407 0.27093-0.22013 0.52493-0.49107v-1.778q-1.0414 0.03387-1.778 0.16933-0.72813 0.127-1.1938 0.33867-0.4572 0.21167-0.66887 0.49953-0.2032 0.28787-0.2032 0.64346 0 0.33867 0.11007 0.5842 0.11006 0.24553 0.29633 0.4064 0.19473 0.1524 0.44873 0.2286 0.26247 0.06773 0.5588 0.06773z"/><path d="m155.62 41.631v8.5767h-1.5071v-8.5767zm0.32173-2.6924q0 0.22013-0.0931 0.41486-0.0847 0.18627-0.23707 0.33867-0.14393 0.14393-0.34713 0.2286-0.19474 0.08467-0.41487 0.08467t-0.41486-0.08467q-0.18627-0.08467-0.3302-0.2286-0.14394-0.1524-0.2286-0.33867-0.0847-0.19473-0.0847-0.41486 0-0.22013 0.0847-0.41487 0.0847-0.2032 0.2286-0.34713 0.14393-0.1524 0.3302-0.23707 0.19473-0.08467 0.41486-0.08467t0.41487 0.08467q0.2032 0.08467 0.34713 0.23707 0.1524 0.14393 0.23707 0.34713 0.0931 0.19473 0.0931 0.41487z"/><path d="m159.65 37.736v12.471h-1.5071v-12.471z"/><path d="m167.54 50.207q-0.22013 0-0.33867-0.06773-0.11853-0.0762-0.18626-0.28787l-0.16934-0.80433q-0.33866 0.3048-0.66886 0.55033-0.32174 0.23707-0.67733 0.4064-0.34714 0.16087-0.75354 0.24553-0.39793 0.09313-0.88899 0.09313-0.49954 0-0.9398-0.13547-0.44027-0.14393-0.77047-0.42333-0.32173-0.2794-0.51646-0.70273-0.18627-0.4318-0.18627-1.016 0-0.508 0.2794-0.97366 0.2794-0.47413 0.90593-0.8382t1.6341-0.59266q1.0075-0.23707 2.4723-0.27093v-0.66886q0-0.99906-0.4318-1.5071-0.4318-0.51647-1.2615-0.51647-0.5588 0-0.9398 0.14393-0.37253 0.13547-0.65193 0.31327-0.27094 0.16933-0.47414 0.31327-0.19473 0.13547-0.38946 0.13547-0.1524 0-0.26247-0.0762-0.11006-0.08467-0.18626-0.2032l-0.27094-0.4826q0.7112-0.6858 1.5325-1.0245 0.82126-0.33867 1.8203-0.33867 0.71966 0 1.2785 0.23707t0.9398 0.6604q0.381 0.42333 0.57573 1.0245t0.19473 1.3208v5.4864zm-3.2343-0.92286q0.39793 0 0.72813-0.0762 0.3302-0.08467 0.61807-0.2286 0.29633-0.1524 0.55879-0.36407 0.27094-0.22013 0.52494-0.49107v-1.778q-1.0414 0.03387-1.778 0.16933-0.72813 0.127-1.1938 0.33867-0.4572 0.21167-0.66886 0.49953-0.2032 0.28787-0.2032 0.64346 0 0.33867 0.11006 0.5842 0.11007 0.24553 0.29634 0.4064 0.19473 0.1524 0.44873 0.2286 0.26247 0.06773 0.5588 0.06773z"/><path d="m170.5 50.207v-12.471h1.5155v5.1393q0.5334-0.635 1.2192-1.0075 0.6858-0.37253 1.5748-0.37253 0.75353 0 1.3547 0.28787 0.6096 0.28787 1.0329 0.8382 0.42333 0.54187 0.64346 1.3208 0.2286 0.77893 0.2286 1.7526 0 1.0414-0.254 1.8965t-0.7366 1.4647q-0.47413 0.60113-1.1599 0.9398-0.6858 0.3302-1.5409 0.3302-0.84666 0-1.4309-0.31327-0.57573-0.32173-1.0075-0.90593l-0.0762 0.77893q-0.0677 0.32173-0.38947 0.32173zm3.81-7.5099q-0.7366 0-1.2869 0.33867t-1.0075 0.95673v4.1487q0.41486 0.5588 0.90593 0.7874 0.49953 0.2286 1.0922 0.2286 1.2107 0 1.8542-0.85513 0.64347-0.85513 0.64347-2.5485 0-1.5748-0.57573-2.3114-0.56727-0.74506-1.6256-0.74506z"/><path d="m181.54 37.736v12.471h-1.5071v-12.471z"/><path d="m187.49 41.495q0.77046 0 1.4224 0.26247 0.6604 0.254 1.1345 0.74506 0.4826 0.4826 0.75353 1.2023 0.27093 0.7112 0.27093 1.6256 0 0.3556-0.0762 0.47413t-0.28786 0.11853h-5.7319q0.0169 0.8128 0.22014 1.4139 0.2032 0.60113 0.5588 1.0075 0.3556 0.39793 0.84666 0.60113 0.49107 0.19473 1.1007 0.19473 0.56726 0 0.97366-0.127 0.41487-0.13547 0.7112-0.28787t0.49106-0.2794q0.2032-0.13547 0.34714-0.13547 0.18626 0 0.28786 0.14393l0.42334 0.55033q-0.2794 0.33867-0.66887 0.59267-0.38947 0.24553-0.8382 0.4064-0.44026 0.16087-0.9144 0.23707-0.47413 0.08467-0.93979 0.08467-0.889 0-1.6425-0.29633-0.74507-0.3048-1.2954-0.88053-0.54187-0.5842-0.84667-1.4393t-0.3048-1.9643q0-0.89746 0.27094-1.6764 0.2794-0.77893 0.79586-1.3462 0.51647-0.57573 1.2615-0.89746 0.74507-0.3302 1.6764-0.3302zm0.0339 1.1091q-1.0922 0-1.7187 0.635-0.62654 0.62653-0.77894 1.7441h4.6905q0-0.52493-0.1524-0.95673-0.14393-0.44027-0.4318-0.75353-0.2794-0.32173-0.6858-0.49106-0.4064-0.1778-0.92286-0.1778z"/></g><g fill="#fff" stroke-linecap="round" stroke-linejoin="round" stroke-width="1.058" aria-label="Click to open"><path d="m144.23 123.48q0.13547 0 0.23707 0.11007l0.65193 0.70273q-0.74506 0.8636-1.8119 1.3462-1.0583 0.4826-2.5654 0.4826-1.3039 0-2.3707-0.44874-1.0668-0.4572-1.8203-1.27-0.75353-0.82127-1.1684-1.9643-0.41486-1.143-0.41486-2.5146t0.4318-2.5146q0.4318-1.143 1.2107-1.9643 0.7874-0.82126 1.8796-1.27 1.0922-0.4572 2.413-0.4572 1.2954 0 2.286 0.41487 0.9906 0.41487 1.7441 1.1261l-0.54186 0.75354q-0.0508 0.0847-0.13547 0.14393-0.0762 0.0508-0.21166 0.0508-0.1524 0-0.37254-0.16087-0.22013-0.16933-0.57573-0.37253t-0.889-0.36407q-0.5334-0.16933-1.3123-0.16933-0.9398 0-1.7187 0.3302-0.77893 0.32173-1.3462 0.9398-0.5588 0.61806-0.87207 1.5071t-0.31327 2.0066q0 1.1345 0.32174 2.0235 0.3302 0.889 0.889 1.5071 0.56726 0.6096 1.3293 0.93133 0.77046 0.32174 1.6595 0.32174 0.54187 0 0.97367-0.0593 0.44026-0.0677 0.80433-0.2032 0.37253-0.13547 0.6858-0.33867 0.32173-0.21166 0.635-0.49953 0.14393-0.127 0.28786-0.127z"/><path d="m148.23 113.51v12.471h-1.5071v-12.471z"/><path d="m152.26 117.41v8.5767h-1.5071v-8.5767zm0.32174-2.6924q0 0.22013-0.0931 0.41486-0.0847 0.18627-0.23706 0.33867-0.14394 0.14393-0.34714 0.2286-0.19473 0.0847-0.41486 0.0847-0.22014 0-0.41487-0.0847-0.18626-0.0847-0.3302-0.2286-0.14393-0.1524-0.2286-0.33867-0.0847-0.19473-0.0847-0.41486t0.0847-0.41487q0.0847-0.2032 0.2286-0.34713 0.14394-0.1524 0.3302-0.23707 0.19473-0.0847 0.41487-0.0847 0.22013 0 0.41486 0.0847 0.2032 0.0847 0.34714 0.23707 0.1524 0.14393 0.23706 0.34713 0.0931 0.19474 0.0931 0.41487z"/><path d="m160.7 118.93q-0.0677 0.0931-0.13547 0.14393-0.0677 0.0508-0.18626 0.0508-0.127 0-0.2794-0.1016-0.1524-0.11006-0.381-0.23706-0.22014-0.127-0.55034-0.2286-0.32173-0.11007-0.79586-0.11007-0.635 0-1.1176 0.2286-0.4826 0.22013-0.8128 0.64347-0.32173 0.42333-0.49106 1.0245-0.16087 0.60113-0.16087 1.3462 0 0.77893 0.1778 1.3885 0.1778 0.60113 0.49953 1.016 0.3302 0.4064 0.7874 0.62653 0.46567 0.21167 1.0414 0.21167 0.55033 0 0.90593-0.127 0.3556-0.13547 0.5842-0.29634 0.23707-0.16086 0.38947-0.28786 0.16086-0.13547 0.31326-0.13547 0.18627 0 0.28787 0.14393l0.42333 0.55034q-0.2794 0.34713-0.635 0.59266t-0.77046 0.41487q-0.4064 0.16086-0.85513 0.23706-0.44874 0.0762-0.9144 0.0762-0.80433 0-1.4986-0.29633-0.6858-0.29633-1.1938-0.85513-0.508-0.56727-0.79586-1.3885-0.28787-0.82127-0.28787-1.8711 0-0.95673 0.26247-1.7695 0.27093-0.8128 0.77893-1.397 0.51646-0.59266 1.2615-0.92286 0.75353-0.3302 1.7272-0.3302 0.90593 0 1.5917 0.29633 0.69426 0.28787 1.2277 0.82126z"/><path d="m164.33 113.51v7.3406h0.38947q0.16933 0 0.2794-0.0423 0.11853-0.0508 0.24553-0.19474l2.7093-2.9041q0.11853-0.14393 0.24553-0.22013 0.13547-0.0847 0.3556-0.0847h1.3631l-3.1581 3.3613q-0.2286 0.28787-0.49106 0.44874 0.1524 0.1016 0.27093 0.23706 0.127 0.127 0.23707 0.29633l3.3528 4.2333h-1.3462q-0.19473 0-0.33866-0.0593-0.13547-0.0677-0.23707-0.23706l-2.8194-3.5137q-0.127-0.1778-0.254-0.2286-0.11854-0.0593-0.37254-0.0593h-0.4318v4.0979h-1.5155v-12.471z"/><path d="m178.38 126.12q-1.016 0-1.5663-0.56727-0.54186-0.56726-0.54186-1.6341v-5.2493h-1.0329q-0.13547 0-0.2286-0.0762-0.0931-0.0847-0.0931-0.254v-0.60113l1.4055-0.1778 0.34713-2.6501q0.0254-0.127 0.11007-0.2032 0.0931-0.0847 0.23706-0.0847h0.762v2.9549h2.4807v1.0922h-2.4807v5.1477q0 0.54186 0.26247 0.80433 0.26246 0.26247 0.67733 0.26247 0.23706 0 0.4064-0.0593 0.1778-0.0677 0.3048-0.14393 0.127-0.0762 0.21166-0.13547 0.0931-0.0677 0.16087-0.0677 0.11853 0 0.21167 0.14393l0.44026 0.71966q-0.38946 0.36407-0.9398 0.57574-0.55033 0.2032-1.1345 0.2032z"/><path d="m185.44 117.27q0.9398 0 1.6933 0.31326 0.75354 0.31327 1.2869 0.889 0.5334 0.57573 0.8128 1.397 0.28787 0.8128 0.28787 1.8203 0 1.016-0.28787 1.8288-0.2794 0.8128-0.8128 1.3885-0.53339 0.57573-1.2869 0.88899-0.75353 0.3048-1.6933 0.3048-0.94826 0-1.7103-0.3048-0.75353-0.31326-1.2869-0.88899-0.5334-0.57574-0.82127-1.3885-0.2794-0.81279-0.2794-1.8288 0-1.0075 0.2794-1.8203 0.28787-0.82127 0.82127-1.397t1.2869-0.889q0.762-0.31326 1.7103-0.31326zm0 7.6538q1.27 0 1.8965-0.84667 0.62654-0.85513 0.62654-2.3791 0-1.5325-0.62654-2.3876-0.62653-0.85513-1.8965-0.85513-0.64346 0-1.1261 0.22013-0.47413 0.22013-0.79587 0.635-0.31326 0.41487-0.47413 1.0245-0.1524 0.60114-0.1524 1.3631 0 1.524 0.62653 2.3791 0.635 0.84667 1.9219 0.84667z"/><path d="m199.37 117.27q0.93979 0 1.6933 0.31326 0.75353 0.31327 1.2869 0.889t0.8128 1.397q0.28786 0.8128 0.28786 1.8203 0 1.016-0.28786 1.8288-0.2794 0.8128-0.8128 1.3885-0.5334 0.57573-1.2869 0.88899-0.75354 0.3048-1.6933 0.3048-0.94827 0-1.7103-0.3048-0.75353-0.31326-1.2869-0.88899-0.5334-0.57574-0.82126-1.3885-0.2794-0.81279-0.2794-1.8288 0-1.0075 0.2794-1.8203 0.28786-0.82127 0.82126-1.397t1.2869-0.889q0.762-0.31326 1.7103-0.31326zm0 7.6538q1.27 0 1.8965-0.84667 0.62653-0.85513 0.62653-2.3791 0-1.5325-0.62653-2.3876-0.62654-0.85513-1.8965-0.85513-0.64347 0-1.1261 0.22013-0.47413 0.22013-0.79586 0.635-0.31327 0.41487-0.47414 1.0245-0.15239 0.60114-0.15239 1.3631 0 1.524 0.62653 2.3791 0.635 0.84667 1.9219 0.84667z"/><path d="m205.36 128.89v-11.481h0.90593q0.32173 0 0.39793 0.31327l0.127 1.016q0.55033-0.66887 1.2615-1.0753t1.6256-0.4064q0.74506 0 1.3462 0.28787 0.60113 0.2794 1.0245 0.8382 0.42333 0.55033 0.65193 1.3716 0.2286 0.82126 0.2286 1.8881 0 0.94826-0.254 1.7695-0.254 0.8128-0.7366 1.4139-0.47413 0.59266-1.1684 0.9398-0.6858 0.33866-1.5494 0.33866-0.7874 0-1.3547-0.26246-0.5588-0.26247-0.9906-0.74507v3.7931zm3.8269-10.414q-0.7366 0-1.2954 0.33867-0.55034 0.33866-1.016 0.95673v4.1487q0.4064 0.5588 0.89746 0.7874 0.49953 0.2286 1.1091 0.2286 1.2023 0 1.8457-0.85514 0.64347-0.85513 0.64347-2.4384 0-0.8382-0.1524-1.4393-0.14393-0.60113-0.42333-0.98213-0.2794-0.38947-0.6858-0.56727t-0.92287-0.1778z"/><path d="m218.36 117.27q0.77047 0 1.4224 0.26246 0.6604 0.254 1.1345 0.74507 0.4826 0.4826 0.75353 1.2023 0.27093 0.7112 0.27093 1.6256 0 0.3556-0.0762 0.47413-0.0762 0.11854-0.28786 0.11854h-5.7319q0.0169 0.81279 0.22013 1.4139 0.2032 0.60113 0.5588 1.0075 0.3556 0.39793 0.84666 0.60113 0.49107 0.19473 1.1007 0.19473 0.56726 0 0.97366-0.127 0.41487-0.13546 0.7112-0.28786t0.49107-0.2794q0.2032-0.13547 0.34713-0.13547 0.18626 0 0.28786 0.14393l0.42334 0.55034q-0.2794 0.33866-0.66887 0.59266-0.38946 0.24553-0.8382 0.4064-0.44026 0.16087-0.91439 0.23707-0.47414 0.0847-0.9398 0.0847-0.889 0-1.6425-0.29633-0.74507-0.3048-1.2954-0.88053-0.54187-0.5842-0.84667-1.4393-0.30479-0.85513-0.30479-1.9643 0-0.89747 0.27093-1.6764 0.2794-0.77893 0.79586-1.3462 0.51647-0.57573 1.2615-0.89746 0.74507-0.3302 1.6764-0.3302zm0.0339 1.1091q-1.0922 0-1.7187 0.635-0.62653 0.62653-0.77893 1.7441h4.6905q0-0.52494-0.1524-0.95673-0.14393-0.44027-0.4318-0.75354-0.2794-0.32173-0.6858-0.49106-0.4064-0.1778-0.92286-0.1778z"/><path d="m223.79 125.98v-8.5767h0.90593q0.32174 0 0.39794 0.31327l0.11853 0.93133q0.5588-0.61806 1.2531-0.99906 0.69427-0.381 1.6002-0.381 0.70273 0 1.2361 0.23706 0.54187 0.2286 0.89747 0.6604 0.36406 0.42333 0.55033 1.0245 0.18626 0.60113 0.18626 1.3293v5.461h-1.5155v-5.461q0-0.97366-0.44873-1.5071-0.44026-0.54187-1.3462-0.54187-0.67733 0-1.2615 0.32173-0.57573 0.32174-1.0583 0.87207v6.3161z"/></g></svg>