<svg xmlns="http://www.w3.org/2000/svg" width="100" height="100" version="1.1" viewBox="0 0 26.458 26.458"><g fill="none"><g stroke="#fff"><g stroke-linecap="round"><path stroke-width="1.058" d="m16.934 18.13 0.05054 4.3949c-0.03306 0.52359-0.35934 0.50875-0.66978 0.523l-13.167-0.097183c-0.32681 0.060448-0.36608-0.24618-0.42447-0.5284l0.031464-18.18c-0.086675-0.33849 0.17658-0.51997 0.50381-0.67274l10.051 0.00309 3.5915 3.8014 0.08379 3.3941"/><g stroke-width=".748"><path d="m5.035 7.3747 5.9682 0.00158"/><path d="m5.1679 9.2478 9.3998-0.060484"/><path d="m5.1818 11.04 9.4397 0.0047h0.0049l-0.15048 0.03104"/><path d="m5.1332 12.99 9.3988 0.02276 0.01309 0.08482"/><path d="m5.1525 14.841 5.9977 0.0093"/></g><path stroke-width="1.058" d="m13.359 3.7817 0.0056 3.6018 3.451-0.019639"/></g><g stroke-width="1.058"><path d="m12.89 18.846 9.3762-9.1125"/><path d="m14.455 17.323c1.5083-4.5389 4.5895-8.0861 10.34-9.9506"/><path d="m14.485 17.327c5.0978-1.6583 8.7792-4.7391 10.34-9.9506"/></g></g></g></svg>