<?xml version="1.0" ?><svg enable-background="new 0 0 64 64" height="64px" id="Layer_1" version="1.1" viewBox="0 0 64 64" width="64px" xml:space="preserve" xmlns="http://www.w3.org/2000/svg" xmlns:xlink="http://www.w3.org/1999/xlink"><circle cx="32" cy="32" fill="#C75C5C" r="32"/><path d="M32,16c9.925,0,18,8.075,18,18s-8.075,18-18,18s-18-8.075-18-18S22.075,16,32,16 M32,12  c-12.15,0-22,9.85-22,22s9.85,22,22,22s22-9.85,22-22S44.15,12,32,12L32,12z" fill="#231F20" opacity="0.2"/><g opacity="0.2"><path d="M28,44.619c-0.345,0-0.69-0.089-1-0.268c-0.619-0.357-1-1.018-1-1.732V25.381c0-0.714,0.381-1.375,1-1.732   c0.619-0.357,1.381-0.357,2,0l12,8.619c0.619,0.357,1,1.017,1,1.732s-0.381,1.375-1,1.732l-12,8.619   C28.69,44.529,28.345,44.619,28,44.619z" fill="#231F20"/></g><path d="M32,14c9.925,0,18,8.075,18,18s-8.075,18-18,18s-18-8.075-18-18S22.075,14,32,14 M32,10  c-12.15,0-22,9.85-22,22s9.85,22,22,22s22-9.85,22-22S44.15,10,32,10L32,10z" fill="#E0E0D1"/><g><path d="M28,42.619c-0.345,0-0.69-0.089-1-0.268c-0.619-0.357-1-1.018-1-1.732V23.381c0-0.714,0.381-1.375,1-1.732   c0.619-0.357,1.381-0.357,2,0l12,8.619c0.619,0.357,1,1.017,1,1.732c0,0.714-0.381,1.375-1,1.732l-12,8.619   C28.69,42.529,28.345,42.619,28,42.619z" fill="#F5CF87"/></g></svg>