<svg xmlns="http://www.w3.org/2000/svg" width="100" height="100" version="1.1" viewBox="0 0 26.458 26.458"><g fill="none"><g stroke="#fff" stroke-width="1.058"><g stroke-linecap="round" stroke-linejoin="round"><path d="m10.287 4.8018c3.2019-5.352 6.5558-0.48326 6.4691-5.018e-4l-0.09059 10.098c-1.2258 2.5193-4.4885 3.9957-6.4191 0.09337z"/><path d="m6.3742 10.947-0.10122 4.2006c1.2305 3.7193 3.2458 4.5393 5.3159 5.1567l-0.05715-0.01473 3.8393-0.0067c2.1281-0.85322 4.2066-1.8076 5.0402-5.3075l0.12511-3.8482-0.01406 0.76541"/><path d="m13.335 20.569 0.03808 3.0389"/><path d="m8.4698 23.731 9.4915-0.059214"/></g><g><path d="m10.456 5.7818 2.0656 0.01958"/><path d="m10.481 7.9912 1.8474-0.038087"/><path d="m10.654 9.8256 1.8474-0.03809"/></g></g></g></svg>