<svg xmlns="http://www.w3.org/2000/svg" width="201.9" height="50" viewBox="0 0 201.9 50"><title>mxt-icon--logo</title><g data-name="Layer 1"><path d="M25.65 19.35L45.46 1.3h5.78V50H38.38V25L25.65 36.62 12.86 25.06V50H0V1.3h5.78zM61 1.3h12.77V50H61z" fill="#fff"/><path d="M142.13.07h11.43V50h-11.43zM162.55 0h39.35v13h-13.25v37h-13.12V13h-13z" fill="#ff8d4e"/><path fill="none" d="M110.99 30.04l4.3-6.08v-.01l-4.3 6.09z"/><path fill="#242539" d="M115.29 23.96l-4.3 6.08-3.7 5.24.01.01 8.01-11.32-.02-.01z"/><path fill="#ff8d4e" d="M133.53 49.85h-15.91l-8.27-11.67 8.03-11.29 16.15 22.96z"/><path fill="none" d="M107.3 35.29l-.01.02M115.31 23.97l-8.01 11.32"/><path fill="#92929a" d="M131.87.18h-15.9l-6.46 9.21 7.99 11.43L131.87.18z"/><path fill="#fff" d="M115.42 23.76L99.01.29H83.33l16.34 23.47-17.98 25.56h15.69l18.04-25.56z"/></g></svg>