<?xml version="1.0" encoding="UTF-8" standalone="no"?>
<svg
        viewBox="0 0 512 512"
        version="1.1"
        id="svg12922"
        sodipodi:docname="mxt-icon-poster.svg"
        width="512"
        height="512"
        inkscape:version="1.2.2 (732a01da63, 2022-12-09, custom)"
        xmlns:inkscape="http://www.inkscape.org/namespaces/inkscape"
        xmlns:sodipodi="http://sodipodi.sourceforge.net/DTD/sodipodi-0.dtd"
        xmlns="http://www.w3.org/2000/svg"
>
  <defs
     id="defs12926" />
  <sodipodi:namedview
     id="namedview12924"
     pagecolor="#505050"
     bordercolor="#ffffff"
     borderopacity="1"
     inkscape:showpageshadow="0"
     inkscape:pageopacity="0"
     inkscape:pagecheckerboard="1"
     inkscape:deskcolor="#505050"
     showgrid="false"
     inkscape:zoom="0.921875"
     inkscape:cx="378.57627"
     inkscape:cy="365.01695"
     inkscape:window-width="1846"
     inkscape:window-height="1136"
     inkscape:window-x="74"
     inkscape:window-y="27"
     inkscape:window-maximized="1"
     inkscape:current-layer="svg12922" />
  <!--! Font Awesome Pro 6.3.0 by @fontawesome - https://fontawesome.com License - https://fontawesome.com/license (Commercial License) Copyright 2023 Fonticons, Inc. -->
  <path
     d="m 121.18839,485.42583 c -9.68,0 -17.6,-7.92 -17.6,-17.6 V 45.425829 c 0,-9.68 7.92,-17.6 17.6,-17.6 h 176 L 400.96746,28.2695 c 19.46983,0.08324 20.25945,17.098912 20.10494,36.5683 l -0.68401,86.18803 v 316.8 c 0,9.68 -7.92,17.6 -17.6,17.6 z m 61.6,-228.8 c -14.63,0 -26.4,11.77 -26.4,26.4 0,14.63 11.77,26.4 26.4,26.4 h 158.4 c 14.63,0 26.4,-11.77 26.4,-26.4 0,-14.63 -11.77,-26.4 -26.4,-26.4 z m 0,105.6 c -14.63,0 -26.4,11.77 -26.4,26.4 0,14.63 11.77,26.4 26.4,26.4 h 158.4 c 14.63,0 26.4,-11.77 26.4,-26.4 0,-14.63 -11.77,-26.4 -26.4,-26.4 z"
     id="path12920-3"
     style="fill:none;stroke:#fff;stroke-width:26.4;stroke-dasharray:none;stroke-opacity:1"
     sodipodi:nodetypes="sssscsscsssssssssssssssss" />
</svg>
