<?xml version="1.0" encoding="UTF-8" standalone="no"?>
<svg
   width="580"
   height="120"
   version="1.1"
   viewBox="0 0 580 120"
   id="svg2730"
   sodipodi:docname="mxt-icon--logo-25.svg"
   inkscape:version="1.3.1 (9b9bdc1480, 2023-11-25, custom)"
   xmlns:inkscape="http://www.inkscape.org/namespaces/inkscape"
   xmlns:sodipodi="http://sodipodi.sourceforge.net/DTD/sodipodi-0.dtd"
   xmlns="http://www.w3.org/2000/svg"
   xmlns:svg="http://www.w3.org/2000/svg"
   xmlns:rdf="http://www.w3.org/1999/02/22-rdf-syntax-ns#"
   xmlns:cc="http://creativecommons.org/ns#"
   xmlns:dc="http://purl.org/dc/elements/1.1/">
  <path
     style="font-weight:900;font-size:102.93px;line-height:1.15;font-family:Lato;-inkscape-font-specification:'Lato Heavy';text-align:center;text-anchor:middle;fill:#2c233d;stroke:#2c233d;stroke-width:4.13558;stroke-linecap:round;stroke-linejoin:round;paint-order:stroke fill markers"
     d="m 468.23318,17.925591 q 5.55822,0 9.98421,1.64688 4.47745,1.595415 7.61682,4.477455 3.13936,2.88204 4.78624,6.89631 1.69835,3.962805 1.69835,8.74905 0,4.1172 -1.1837,7.61682 -1.13223,3.49962 -3.13936,6.69045 -2.00714,3.139365 -4.68332,6.124335 -2.62471,2.933505 -5.60968,5.96994 l -14.66753,15.02778 q 2.83058,-0.82344 5.55822,-1.286625 2.77911,-0.51465 5.19797,-0.51465 h 13.99848 q 2.57325,0 4.06573,1.44102 1.49249,1.389555 1.49249,3.70548 v 9.2637 h -52.70016 v -5.1465 q 0,-1.492485 0.61758,-3.19083 0.61758,-1.698345 2.16153,-3.0879 l 21.6153,-21.769695 q 2.77911,-2.77911 4.83771,-5.300895 2.0586,-2.521785 3.39669,-4.94064 1.33809,-2.47032 2.00713,-4.889175 0.66905,-2.47032 0.66905,-5.197965 0,-4.477455 -2.16153,-6.844845 -2.11007,-2.418855 -6.48459,-2.418855 -3.55109,0 -6.02141,1.904205 -2.41885,1.85274 -3.34522,4.63185 -1.08077,2.830575 -2.83058,3.756945 -1.74981,0.92637 -4.9921,0.41172 l -8.44026,-1.492485 q 0.82344,-5.609685 3.13936,-9.77835 2.36739,-4.168665 5.81555,-6.947775 3.49962,-2.77911 7.97707,-4.1172 4.47746,-1.389555 9.62396,-1.389555 z m 81.26323,7.41096 q 0,1.64688 -0.51465,2.98497 -0.51465,1.33809 -1.64688,2.36739 -1.08077,0.977835 -2.88204,1.54395 -1.80128,0.51465 -4.32306,0.51465 h -17.90982 l -2.11007,12.403065 q 2.11007,-0.360255 4.06574,-0.51465 1.95567,-0.20586 3.80841,-0.20586 5.91847,0 10.44739,1.801275 4.52892,1.801275 7.61682,4.94064 3.0879,3.0879 4.63185,7.30803 1.59542,4.168665 1.59542,8.95491 0,6.021405 -2.16153,11.01351 -2.11007,4.94064 -5.91848,8.54319 -3.80841,3.60255 -9.1093,5.609685 -5.24943,1.95567 -11.52816,1.95567 -3.65402,0 -6.99924,-0.771975 -3.29376,-0.771975 -6.22727,-2.0586 -2.88204,-1.33809 -5.35236,-3.036435 -2.47032,-1.74981 -4.47745,-3.70548 l 4.94064,-6.58752 q 0.77197,-1.0293 1.80127,-1.54395 1.0293,-0.566115 2.213,-0.566115 1.54395,0 2.88204,0.874905 1.38955,0.82344 2.98497,1.85274 1.64688,0.977835 3.80841,1.801275 2.16153,0.82344 5.35236,0.82344 3.19083,0 5.45529,-1.0293 2.26446,-1.080765 3.65401,-2.88204 1.44102,-1.85274 2.0586,-4.271595 0.66905,-2.47032 0.66905,-5.24943 0,-5.45529 -3.0879,-8.285865 -3.0879,-2.88204 -8.74905,-2.88204 -5.04357,0 -9.88128,1.904205 l -9.88128,-2.67618 6.38166,-37.517985 h 38.39289 z"
     id="text1"
     transform="scale(1.007828,0.9922328)"
     aria-label="25" />
  <defs
     id="defs2734" />
  <sodipodi:namedview
     id="namedview2732"
     pagecolor="#ffffff"
     bordercolor="#000000"
     borderopacity="0.25"
     inkscape:showpageshadow="2"
     inkscape:pageopacity="0.0"
     inkscape:pagecheckerboard="0"
     inkscape:deskcolor="#d1d1d1"
     showgrid="false"
     inkscape:zoom="1.9666667"
     inkscape:cx="315.25423"
     inkscape:cy="60.762711"
     inkscape:window-width="1854"
     inkscape:window-height="1131"
     inkscape:window-x="66"
     inkscape:window-y="32"
     inkscape:window-maximized="1"
     inkscape:current-layer="svg2730" />
  <metadata
     id="metadata2712">
    <rdf:RDF>
      <cc:Work
         rdf:about="">
        <dc:format>image/svg+xml</dc:format>
        <dc:type
           rdf:resource="http://purl.org/dc/dcmitype/StillImage" />
      </cc:Work>
    </rdf:RDF>
  </metadata>
  <path
     d="m313.36 97.246h-24.4l-12.4-18.4 12.2-18.3z"
     fill="#ff8d4e"
     id="path2714" />
  <path
     d="m313.26 17.546h-24.3l-12 16.4 12 16.8z"
     fill="#92929a"
     id="path2716" />
  <path
     d="m285.36 55.746-28-38.1h-24.4l28 38.1-28 41.6h24.4zm-145.7-8.8 32.5-29.6h9.5v79.9h-21.1v-41l-20.9 19-21-19v41h-21v-80h9.4zm57.4-29.6h21v79.9h-21z"
     fill="#2c233d"
     id="path2718" />
  <path
     d="m328.96 17.346h20.9v79.9h-21zm33.8 0h62.9v20.8h-21.2v59.1h-21v-59h-20.7z"
     fill="#ff8d4e"
     id="path2720" />
  <path
     d="m64.266 76.146-4 22.4h-8.2q-1.1 0-2.2-0.6-1-0.6-1.8-1.5-0.7-1-1-2.2-0.2-1.3 0-2.7l2.9-15.4h-9.4l-2.8 16.2q-0.2 1.7-1 2.9-0.8 1.1-1.8 1.8-1 0.8-2.4 1.1-1.2 0.4-2.6 0.4h-7.8l4-22.4h-5q-2.7 0-3.8-1.5-1.1-1.6-0.5-5.4l0.9-5.4h10l2.4-13.4h-11.4l1.4-7.1q0.5-2.6 2.2-3.9 1.8-1.2 5.5-1.2h3.8l3-16.6q0.5-2.7 2.5-4.2 2.1-1.5 4.9-1.5h8l-4 22.3h9.4l4-22.3h7.8q1.4 0 2.5 0.5 1.1 0.4 1.8 1.2 0.8 0.7 1.2 1.8 0.3 1 0 2.3l-2.8 16.5h11l-1.3 7.1q-0.5 2.7-2.3 4-1.7 1.1-5.4 1.1h-3.6l-2.4 13.4h6.2q2.7 0 3.8 1.6 1.1 1.5 0.5 5.2l-1 5.5zm-22.3-12.3h9.4l2.6-13.4h-9.4z"
     fill="#ff8a4b"
     font-size="85px"
     font-weight="900"
     letter-spacing="0"
     word-spacing="0"
     id="path2722" />
</svg>
