<svg xmlns="http://www.w3.org/2000/svg" xmlns:svg="http://www.w3.org/2000/svg" id="svg2730" width="580" height="120" version="1.1" viewBox="0 0 580 120"><metadata id="metadata2712"/><path id="path2714" fill="#ff8d4e" d="m313.36 97.246h-24.4l-12.4-18.4 12.2-18.3z"/><path id="path2716" fill="#92929a" d="m313.26 17.546h-24.3l-12 16.4 12 16.8z"/><path id="path2718" fill="#2c233d" d="m285.36 55.746-28-38.1h-24.4l28 38.1-28 41.6h24.4zm-145.7-8.8 32.5-29.6h9.5v79.9h-21.1v-41l-20.9 19-21-19v41h-21v-80h9.4zm57.4-29.6h21v79.9h-21z"/><path id="path2720" fill="#ff8d4e" d="m328.96 17.346h20.9v79.9h-21zm33.8 0h62.9v20.8h-21.2v59.1h-21v-59h-20.7z"/><path id="path2722" fill="#ff8a4b" d="m64.266 76.146-4 22.4h-8.2q-1.1 0-2.2-0.6-1-0.6-1.8-1.5-0.7-1-1-2.2-0.2-1.3 0-2.7l2.9-15.4h-9.4l-2.8 16.2q-0.2 1.7-1 2.9-0.8 1.1-1.8 1.8-1 0.8-2.4 1.1-1.2 0.4-2.6 0.4h-7.8l4-22.4h-5q-2.7 0-3.8-1.5-1.1-1.6-0.5-5.4l0.9-5.4h10l2.4-13.4h-11.4l1.4-7.1q0.5-2.6 2.2-3.9 1.8-1.2 5.5-1.2h3.8l3-16.6q0.5-2.7 2.5-4.2 2.1-1.5 4.9-1.5h8l-4 22.3h9.4l4-22.3h7.8q1.4 0 2.5 0.5 1.1 0.4 1.8 1.2 0.8 0.7 1.2 1.8 0.3 1 0 2.3l-2.8 16.5h11l-1.3 7.1q-0.5 2.7-2.3 4-1.7 1.1-5.4 1.1h-3.6l-2.4 13.4h6.2q2.7 0 3.8 1.6 1.1 1.5 0.5 5.2l-1 5.5zm-22.3-12.3h9.4l2.6-13.4h-9.4z" font-size="85" font-weight="900" letter-spacing="0" word-spacing="0"/><g id="text483" aria-label="24" transform="matrix(1.0191139,0,0,0.98124458,-0.88585495,0.63616931)" style="font-weight:900;font-size:104.76px;line-height:1.15;font-family:Lato;-inkscape-font-specification:'Lato Heavy';fill:#2c233d;fill-opacity:1;stroke:#2c233d;stroke-width:3.913;stroke-linecap:round;stroke-linejoin:round;stroke-opacity:1"><path id="path1925" d="m 458.9715,18.261876 q 5.65704,0 10.16172,1.67616 4.55706,1.62378 7.75224,4.55706 3.19518,2.93328 4.87134,7.01892 1.72854,4.033261 1.72854,8.904601 0,4.1904 -1.20474,7.75224 -1.15236,3.56184 -3.19518,6.8094 -2.04282,3.19518 -4.76658,6.23322 -2.67138,2.98566 -5.70942,6.07608 l -14.9283,15.294961 q 2.8809,-0.83808 5.65704,-1.3095 2.82852,-0.523801 5.29038,-0.523801 h 14.24736 q 2.619,0 4.13802,1.466641 1.51902,1.41426 1.51902,3.77136 v 9.4284 h -53.63712 v -5.238 q 0,-1.51902 0.62856,-3.24756 0.62856,-1.72854 2.19996,-3.1428 l 21.9996,-22.156741 q 2.82852,-2.82852 4.92372,-5.39514 2.0952,-2.56662 3.45708,-5.02848 1.36188,-2.51424 2.04282,-4.9761 0.68094,-2.51424 0.68094,-5.29038 0,-4.55706 -2.19996,-6.96654 -2.14758,-2.461861 -6.59988,-2.461861 -3.61422,0 -6.12846,1.938061 -2.46186,1.88568 -3.4047,4.7142 -1.09998,2.8809 -2.8809,3.82374 -1.78092,0.94284 -5.08086,0.41904 l -8.59032,-1.51902 q 0.83808,-5.70942 3.19518,-9.952201 2.40948,-4.24278 5.91894,-7.0713 3.56184,-2.82852 8.1189,-4.1904 4.55706,-1.41426 9.79506,-1.41426 z" style="fill:#2c233d;fill-opacity:1;stroke:#2c233d;stroke-opacity:1"/><path id="path1927" d="m 539.06051,65.770537 h 7.857 v 9.11412 q 0,1.20474 -0.83808,2.0952 -0.7857,0.89046 -2.30472,0.89046 h -4.7142 v 17.547301 h -14.1426 V 77.870317 h -30.69468 q -1.51902,0 -2.77614,-0.94284 -1.20474,-0.94284 -1.51902,-2.3571 l -1.67616,-8.01414 35.30412,-47.456281 h 15.50448 z m -14.1426,-19.9044 q 0,-1.8333 0.10476,-3.9285 0.15714,-2.14758 0.41904,-4.39992 l -20.1663,28.23282 h 19.6425 z" style="fill:#2c233d;fill-opacity:1;stroke:#2c233d;stroke-opacity:1"/></g></svg>