<svg xmlns="http://www.w3.org/2000/svg" id="svg12922" width="512" height="512" version="1.1" viewBox="0 0 512 512"><!--! Font Awesome Pro 6.3.0 by @fontawesome - https://fontawesome.com License - https://fontawesome.com/license (Commercial License) Copyright 2023 Fonticons, Inc.--><path id="path12920-3" d="m 121.18839,485.42583 c -9.68,0 -17.6,-7.92 -17.6,-17.6 V 45.425829 c 0,-9.68 7.92,-17.6 17.6,-17.6 h 176 L 400.96746,28.2695 c 19.46983,0.08324 20.25945,17.098912 20.10494,36.5683 l -0.68401,86.18803 v 316.8 c 0,9.68 -7.92,17.6 -17.6,17.6 z m 61.6,-228.8 c -14.63,0 -26.4,11.77 -26.4,26.4 0,14.63 11.77,26.4 26.4,26.4 h 158.4 c 14.63,0 26.4,-11.77 26.4,-26.4 0,-14.63 -11.77,-26.4 -26.4,-26.4 z m 0,105.6 c -14.63,0 -26.4,11.77 -26.4,26.4 0,14.63 11.77,26.4 26.4,26.4 h 158.4 c 14.63,0 26.4,-11.77 26.4,-26.4 0,-14.63 -11.77,-26.4 -26.4,-26.4 z" style="fill:none;stroke:#000;stroke-width:26.4;stroke-dasharray:none;stroke-opacity:1"/></svg>