<svg xmlns="http://www.w3.org/2000/svg" width="391" height="84.667"><path fill="#6c6978" d="M.168 85.542l.157-13.347 22.679-.755s5.102 1.322 6.425 1.322c1.323 0 11.34-.567 11.34-.567l6.614-1.511 8.316.567 5.858 1.133 4.347-1.511 10.205 1.7h5.48l3.592-1.133.756-9.26 3.401-.19.19 8.883 8.126-.378 1.89.567 2.646 1.322 10.583-.566.378-10.962 15.875-1.323.378 12.473 3.969-1.511 4.346 1.7 1.134-2.456 6.993.189 2.268 2.456 2.646.19.756-52.161 6.425-4.158.19-13.418.755-.19.189 13.041 14.174-6.804 2.457.378.567 59.91 8.693-.756 8.505.378.378 2.079 3.213-.756 1.323-.756 7.748-.567.756 2.079 38.554.378-.378-43.279 2.267-.567 8.694-9.638 8.882 10.772.378.756 1.323 41.389 7.56-.567 5.102 1.323 2.835-.19 6.237-.566 5.292-1.512 4.535 1.134 2.646.756L332 70.495l1.701 1.134 2.079.189 5-3.7 12.009 4.644 7.937-.189 6.237.19 11.906-.19 4.347.378h4.536l3.401 1.134.038 10.829"/></svg>