<?xml version="1.0" encoding="UTF-8" standalone="no"?>
<svg
   xmlns:osb="http://www.openswatchbook.org/uri/2009/osb"
   xmlns:dc="http://purl.org/dc/elements/1.1/"
   xmlns:cc="http://creativecommons.org/ns#"
   xmlns:rdf="http://www.w3.org/1999/02/22-rdf-syntax-ns#"
   xmlns:svg="http://www.w3.org/2000/svg"
   xmlns="http://www.w3.org/2000/svg"
   xmlns:xlink="http://www.w3.org/1999/xlink"
   xmlns:sodipodi="http://sodipodi.sourceforge.net/DTD/sodipodi-0.dtd"
   xmlns:inkscape="http://www.inkscape.org/namespaces/inkscape"
   width="48"
   height="48"
   viewBox="0 0 48 48"
   version="1.1"
   id="svg6"
   sodipodi:docname="mxt-icon--social4.svg"
   inkscape:version="0.92.3 (d244b95, 2018-08-02)">
  <metadata
     id="metadata12">
    <rdf:RDF>
      <cc:Work
         rdf:about="">
        <dc:format>image/svg+xml</dc:format>
        <dc:type
           rdf:resource="http://purl.org/dc/dcmitype/StillImage" />
        <dc:title>mxt-icon--social1</dc:title>
      </cc:Work>
    </rdf:RDF>
  </metadata>
  <defs
     id="defs10">
    <linearGradient
       id="linearGradient4544"
       osb:paint="solid">
      <stop
         style="stop-color:#ffffff;stop-opacity:1;"
         offset="0"
         id="stop4542" />
    </linearGradient>
    <linearGradient
       inkscape:collect="always"
       xlink:href="#linearGradient4544"
       id="linearGradient4546"
       x1="19.246693"
       y1="28.436743"
       x2="39.832023"
       y2="28.436743"
       gradientUnits="userSpaceOnUse" />
  </defs>
  <sodipodi:namedview
     pagecolor="#ffffff"
     bordercolor="#666666"
     borderopacity="1"
     objecttolerance="10"
     gridtolerance="10"
     guidetolerance="10"
     inkscape:pageopacity="0"
     inkscape:pageshadow="2"
     inkscape:window-width="1270"
     inkscape:window-height="690"
     id="namedview8"
     showgrid="false"
     inkscape:zoom="4.9166667"
     inkscape:cx="13.12"
     inkscape:cy="40.271186"
     inkscape:window-x="5171"
     inkscape:window-y="559"
     inkscape:window-maximized="0"
     inkscape:current-layer="svg6" />
  <title
     id="title2">mxt-icon--social1</title>
  <path
     d="M 15.515143,38.771058 V 18.576312 H 8.7713633 V 38.771058 Z M 12.143223,15.81906 c 2.351692,0 3.815423,-1.55073 3.815423,-3.488693 -0.04383,-1.981588 -1.463731,-3.4892907 -3.770815,-3.4892907 -2.3068438,0 -3.8151207,1.5077027 -3.8151207,3.4892907 0,1.937963 1.4634284,3.488693 3.7265647,3.488693 h 0.04383 z"
     style="fill:#ffffff;fill-opacity:1;fill-rule:evenodd;stroke:none;stroke-width:0.59898084"
     id="path28"
     inkscape:connector-curvature="0" />
  <path
     d="m 19.246693,38.771058 h 6.743722 V 27.493457 c 0,-0.60356 0.04383,-1.206521 0.2219,-1.637977 0.48751,-1.205924 1.597134,-2.454874 3.460117,-2.454874 2.440249,0 3.416409,1.851912 3.416409,4.566735 v 10.803717 h 6.743182 V 27.191677 c 0,-6.202919 -3.327013,-9.089249 -7.76389,-9.089249 -3.63807,0 -5.235203,2.024017 -6.122567,3.402642 h 0.04503 v -2.928758 h -6.743721 c 0.0885,1.894938 0,20.194746 0,20.194746 z"
     style="fill:url(#linearGradient4546);fill-opacity:1;fill-rule:evenodd;stroke:none;stroke-width:0.59898084"
     id="path30"
     inkscape:connector-curvature="0" />
</svg>
