<svg xmlns="http://www.w3.org/2000/svg" xmlns:svg="http://www.w3.org/2000/svg" id="svg3763" width="101.072" height="50.192" version="1.1"><metadata id="metadata3769"/><rect style="fill:#dcb9b9;fill-opacity:.2;stroke-width:1.15811789" id="rect3775" width="9.29" height="10.03" x="63.912" y="20.061"/><rect style="fill:#dcb9b9;fill-opacity:.2;stroke-width:1.15811789" id="rect3775-3" width="9.29" height="10.03" x="63.912" y="10.031"/><rect style="fill:#dcb9b9;fill-opacity:.2;stroke-width:1.03410971" id="rect3775-3-7" width="8.295" height="8.956" x="8.295" y="41.125"/><rect style="fill:#dcb9b9;fill-opacity:.2;stroke-width:1.15811789" id="rect3775-3-7-5" width="9.29" height="10.03" x="63.912" y="30.093"/><rect style="fill:#dcb9b9;fill-opacity:.2;stroke-width:1.15811789" id="rect3775-3-7-5-3" width="9.29" height="10.03" x="73.202" y="40.123"/><rect style="fill:#dcb9b9;fill-opacity:.2;stroke-width:1.15811789" id="rect3775-3-7-5-3-5" width="9.29" height="10.03" x="82.492" y="40.123"/><rect style="fill:#dcb9b9;fill-opacity:.2;stroke-width:1.15811789" id="rect3775-3-7-5-3-5-6" width="9.29" height="10.03" x="91.782" y="30.093"/><rect style="fill:#dcb9b9;fill-opacity:.2;stroke-width:1.15811789" id="rect3775-3-7-5-3-5-6-2" width="9.29" height="10.03" x="91.782" y="20.06"/><rect style="fill:#dcb9b9;fill-opacity:.2;stroke-width:1.15811789" id="rect3775-3-7-5-3-5-6-2-9" width="9.29" height="10.03" x="91.782" y="10.031"/><rect style="fill:#dcb9b9;fill-opacity:.2;stroke-width:1.15811789" id="rect3775-3-7-5-3-5-6-2-9-1" width="9.29" height="10.03" x="82.492" y=".001"/><rect style="fill:#dcb9b9;fill-opacity:.2;stroke-width:1.15811789" id="rect3775-3-7-5-3-5-6-2-9-1-2" width="9.29" height="10.03" x="73.202" y="0"/><rect style="fill:#dcb9b9;fill-opacity:.2;stroke-width:1.03410971" id="rect3775-3-7-6" width="8.295" height="8.956" x="0" y="32.169"/><rect style="fill:#dcb9b9;fill-opacity:.2;stroke-width:1.03410971" id="rect3775-3-7-6-1" width="8.295" height="8.956" x="8.295" y="32.169"/><rect style="fill:#dcb9b9;fill-opacity:.2;stroke-width:1.03410971" id="rect3775-3-7-6-1-8" width="8.295" height="8.956" x="16.591" y="32.169"/><rect style="fill:#dcb9b9;fill-opacity:.2;stroke-width:1.03410971" id="rect3775-3-7-6-1-8-7" width="8.295" height="8.956" x="24.886" y="32.169"/><rect style="fill:#dcb9b9;fill-opacity:.2;stroke-width:1.03410971" id="rect3775-3-7-6-1-8-7-9" width="8.295" height="8.956" x="33.181" y="32.169"/><rect style="fill:#dcb9b9;fill-opacity:.2;stroke-width:1.03410971" id="rect3775-3-7-6-1-8-7-9-2" width="8.295" height="8.956" x="24.886" y="41.125"/><rect style="fill:#dcb9b9;fill-opacity:.2;stroke-width:1.03410971" id="rect3775-3-7-6-1-8-7-9-2-0" width="8.295" height="8.956" x="24.886" y="23.213"/><rect style="fill:#dcb9b9;fill-opacity:.2;stroke-width:1.03410971" id="rect3775-3-7-6-1-8-7-9-2-0-2" width="8.295" height="8.956" x="24.886" y="14.257"/><rect style="fill:#dcb9b9;fill-opacity:.2;stroke-width:1.03410971" id="rect3775-3-7-6-1-8-7-9-2-0-2-3" width="8.295" height="8.956" x="33.181" y="14.257"/><rect style="fill:#dcb9b9;fill-opacity:.2;stroke-width:1.03410971" id="rect3775-3-7-6-1-8-7-9-2-0-2-3-7" width="8.295" height="8.956" x="16.591" y="14.257"/><rect style="fill:#dcb9b9;fill-opacity:.2;stroke-width:1.03410971" id="rect3775-3-7-6-1-8-7-9-2-0-2-3-7-5" width="8.295" height="8.956" x="8.295" y="14.257"/><rect style="fill:#dcb9b9;fill-opacity:.2;stroke-width:1.03410971" id="rect3775-3-7-6-1-8-7-9-2-0-2-3-7-5-9" width="8.295" height="8.956" x="0" y="14.257"/><rect style="fill:#dcb9b9;fill-opacity:.2;stroke-width:1.03410971" id="rect3775-3-7-6-1-8-7-9-2-0-2-3-7-5-9-2" width="8.295" height="8.956" x="8.295" y="23.213"/><rect style="fill:#dcb9b9;fill-opacity:.2;stroke-width:1.03410971" id="rect3775-3-7-6-1-8-7-9-2-0-2-3-7-5-9-2-2" width="8.295" height="8.956" x="8.295" y="5.301"/><rect style="fill:#dcb9b9;fill-opacity:.2;stroke-width:1.03410971" id="rect3775-3-7-6-1-8-7-9-2-0-2-3-7-5-9-2-2-8" width="8.295" height="8.956" x="24.886" y="5.301"/><rect style="fill:#dcb9b9;fill-opacity:.2;stroke-width:1.15811789" id="rect3775-9" width="9.29" height="10.03" x="48.091" y="30.13"/><rect style="fill:#dcb9b9;fill-opacity:.2;stroke-width:1.15811789" id="rect3775-3-73" width="9.29" height="10.03" x="48.091" y="20.1"/><rect style="fill:#dcb9b9;fill-opacity:.2;stroke-width:1.15811789" id="rect3775-3-7-5-6" width="9.29" height="10.03" x="48.091" y="40.162"/><rect style="fill:#dcb9b9;fill-opacity:.2;stroke-width:1.15811789" id="rect3775-3-73-1" width="9.29" height="10.03" x="48.091" y="10.07"/><rect style="fill:#dcb9b9;fill-opacity:.2;stroke-width:1.15811789" id="rect3775-3-73-1-2" width="9.29" height="10.03" x="48.091" y=".04"/></svg>