<svg width="200" height="150" viewBox="0 0 52.917 39.688" xmlns="http://www.w3.org/2000/svg"><g transform="matrix(.33826 0 0 .33826 -5.395 -20.029)"><ellipse style="fill:none;stroke:#ff8d4e;stroke-width:3.57819;stroke-linecap:round;stroke-linejoin:round;stroke-opacity:1;paint-order:stroke fill markers" cx="91.225" cy="118.424" rx="56.133" ry="55.327"/><ellipse style="fill:#ff8d4e;fill-opacity:1;stroke:#ff8d4e;stroke-width:4.047;stroke-linecap:round;stroke-linejoin:round;stroke-opacity:1;paint-order:stroke fill markers" cx="91.23" cy="118.573" rx="37.014" ry="36.509"/><path style="fill:#fff;fill-opacity:1;stroke:#ff8d4e;stroke-width:3.96875;stroke-linecap:round;stroke-linejoin:round;stroke-dasharray:none;stroke-opacity:1;paint-order:stroke fill markers" transform="rotate(-22.607)" d="M-30.929 125.986H113.18v40.053H-30.929z"/><text xml:space="preserve" style="font-size:22.5778px;line-height:1.15;font-family:Lato;-inkscape-font-specification:Lato;text-align:center;text-anchor:middle;fill:none;stroke:#ff8d4e;stroke-width:1.19062;stroke-linecap:round;stroke-linejoin:round;stroke-dasharray:none;stroke-opacity:1;paint-order:stroke fill markers" x="39.458" y="154.874" transform="rotate(-23.38)"><tspan style="font-style:normal;font-variant:normal;font-weight:900;font-stretch:normal;font-size:22.5778px;font-family:Lato;-inkscape-font-specification:'Lato Heavy';fill:#ff8d4e;fill-opacity:1;stroke:none;stroke-width:1.19062" x="39.458" y="154.874">SOLD OUT</tspan></text><path d="M85.83 70.34a.085.085 0 0 1 .014.039.032.032 0 0 1-.016.026.124.124 0 0 1-.05.016h-.222a.058.058 0 0 1-.03-.016l-.026-.026-.373-.62-.368.628-.016.021a.071.071 0 0 1-.026.016h-.214a.116.116 0 0 1-.048-.013.032.032 0 0 1-.013-.027.087.087 0 0 1 .016-.042l.481-.773-.47-.725a.095.095 0 0 1-.027-.04.03.03 0 0 1 .016-.028.114.114 0 0 1 .063-.014h.217l.026.014a.082.082 0 0 1 .016.02l.365.596.355-.598a.069.069 0 0 1 .016-.018l.024-.016h.2a.116.116 0 0 1 .048 0 .026.026 0 0 1 .014.026.111.111 0 0 1-.016.045l-.45.738zm1.382-2.186a.085.085 0 0 1 .013.04.032.032 0 0 1-.016.026.124.124 0 0 1-.05.016h-.222a.058.058 0 0 1-.03-.016l-.015-.021-.384-.625-.368.627-.016.022a.071.071 0 0 1-.026.015h-.214a.116.116 0 0 1-.048-.013.032.032 0 0 1-.013-.026.087.087 0 0 1 .016-.043l.481-.762-.47-.732a.095.095 0 0 1-.017-.043.03.03 0 0 1 .016-.026.114.114 0 0 1 .05-.016h.22l.027.013a.082.082 0 0 1 .015.021l.366.582.357-.584a.069.069 0 0 1 .016-.019l.023-.016h.202a.116.116 0 0 1 .047 0 .03.03 0 0 1 .013.027.111.111 0 0 1-.015.045l-.453.738Zm2.064-.019a.085.085 0 0 1 .013.04.032.032 0 0 1-.016.026.124.124 0 0 1-.05.016H89a.058.058 0 0 1-.029-.016l-.016-.02-.383-.628-.37.627-.016.021a.077.077 0 0 1-.027.016h-.209a.116.116 0 0 1-.048-.013.032.032 0 0 1-.013-.026.087.087 0 0 1 .016-.043l.479-.76-.471-.735a.095.095 0 0 1-.016-.04.03.03 0 0 1 .016-.028.114.114 0 0 1 .05-.016h.23l.027.013a.082.082 0 0 1 .016.021l.365.582.339-.582a.069.069 0 0 1 .015-.018l.024-.016h.201a.116.116 0 0 1 .048 0 .03.03 0 0 1 .013.026.111.111 0 0 1-.016.045l-.444.736Zm2.145 2.149a.085.085 0 0 1 .014.04.032.032 0 0 1-.016.026.124.124 0 0 1-.05.016h-.223a.058.058 0 0 1-.029-.016l-.016-.021-.383-.622-.37.627-.017.021a.071.071 0 0 1-.026.016h-.21a.116.116 0 0 1-.047-.013.032.032 0 0 1-.013-.027.087.087 0 0 1 .016-.042l.476-.765-.466-.735a.095.095 0 0 1-.015-.04.03.03 0 0 1 .015-.029.114.114 0 0 1 .05-.016h.22l.027.013a.082.082 0 0 1 .016.021l.365.583.357-.59a.069.069 0 0 1 .016-.019l.024-.016h.2a.116.116 0 0 1 .048 0 .026.026 0 0 1 .014.027.111.111 0 0 1-.016.045l-.453.735zm1.882-2.188a.085.085 0 0 1 .013.04.032.032 0 0 1-.016.026.124.124 0 0 1-.05.016h-.223a.058.058 0 0 1-.029-.016l-.016-.021-.38-.628-.371.628-.016.02a.071.071 0 0 1-.026.017h-.21a.116.116 0 0 1-.047-.014.032.032 0 0 1-.013-.026.087.087 0 0 1 .016-.042l.481-.773-.473-.722a.095.095 0 0 1-.016-.04.03.03 0 0 1 .016-.03.114.114 0 0 1 .05-.015h.22l.026.013a.082.082 0 0 1 .016.021l.365.582.357-.582a.069.069 0 0 1 .016-.018l.024-.016h.2a.116.116 0 0 1 .049 0 .03.03 0 0 1 .013.026.111.111 0 0 1-.016.045l-.455.736Zm2.127-.027a.085.085 0 0 1 .013.04.032.032 0 0 1-.016.026.124.124 0 0 1-.05.016h-.222a.058.058 0 0 1-.03-.016l-.015-.02-.381-.623-.37.63-.017.021a.071.071 0 0 1-.026.016h-.21a.116.116 0 0 1-.047-.013.032.032 0 0 1-.013-.027.087.087 0 0 1 .016-.042l.481-.773-.473-.725a.095.095 0 0 1-.016-.04.03.03 0 0 1 .016-.028.114.114 0 0 1 .05-.016h.22l.026.013a.082.082 0 0 1 .016.021l.365.582.357-.582a.069.069 0 0 1 .016-.02l.024-.027h.201a.116.116 0 0 1 .048 0 .03.03 0 0 1 .013.026.111.111 0 0 1-.016.045l-.455.751zm1.923 2.156a.085.085 0 0 1 .014.04.032.032 0 0 1-.016.027.124.124 0 0 1-.05.015h-.21a.058.058 0 0 1-.029-.015l-.016-.022-.394-.613-.37.627-.016.02a.071.071 0 0 1-.027.017h-.209a.116.116 0 0 1-.047-.014.032.032 0 0 1-.013-.026.087.087 0 0 1 .015-.042l.482-.773-.474-.735a.095.095 0 0 1-.015-.04.03.03 0 0 1 .015-.03.114.114 0 0 1 .05-.015h.22l.027.013a.082.082 0 0 1 .016.021l.365.582.357-.59a.069.069 0 0 1 .016-.018l.024-.016h.2a.116.116 0 0 1 .048 0 .026.026 0 0 1 .014.026.111.111 0 0 1-.016.045l-.453.736zm-1.878 2.548a.085.085 0 0 1 .013.04.032.032 0 0 1-.016.027.124.124 0 0 1-.05.015H95.2a.058.058 0 0 1-.03-.015l-.015-.022-.384-.621-.368.635-.016.02a.071.071 0 0 1-.026.017h-.21a.116.116 0 0 1-.047-.014.032.032 0 0 1-.013-.026.087.087 0 0 1 .016-.042l.481-.773-.47-.736a.095.095 0 0 1-.019-.034.03.03 0 0 1 .016-.029.114.114 0 0 1 .05-.016h.22l.026.013a.082.082 0 0 1 .016.022l.365.582.357-.59a.069.069 0 0 1 .016-.019l.024-.016h.201a.116.116 0 0 1 .048 0 .03.03 0 0 1 .013.027.111.111 0 0 1-.016.045l-.452.735zm-2.101 2.532a.085.085 0 0 1 .013.04.032.032 0 0 1-.016.027.124.124 0 0 1-.05.015H93.1a.058.058 0 0 1-.03-.015l-.015-.022-.384-.621-.37.627-.016.02a.071.071 0 0 1-.027.017h-.209a.116.116 0 0 1-.047-.013.032.032 0 0 1-.013-.027.087.087 0 0 1 .015-.042l.482-.773-.474-.727a.095.095 0 0 1-.015-.04.03.03 0 0 1 .015-.03.114.114 0 0 1 .05-.015h.22l.027.013a.082.082 0 0 1 .016.021l.365.582.357-.59a.069.069 0 0 1 .016-.018l.024-.016h.2a.116.116 0 0 1 .048 0 .026.026 0 0 1 .014.026.111.111 0 0 1-.016.045l-.453.736Zm-1.879 2.554a.085.085 0 0 1 .014.04.032.032 0 0 1-.016.026.124.124 0 0 1-.05.016h-.223a.058.058 0 0 1-.029-.016l-.016-.021-.383-.638-.37.627-.017.021a.077.077 0 0 1-.026.016h-.21a.116.116 0 0 1-.047-.013.032.032 0 0 1-.013-.027.087.087 0 0 1 .016-.042l.481-.772-.47-.736a.095.095 0 0 1-.016-.04.03.03 0 0 1 .016-.029.114.114 0 0 1 .05-.016h.22l.026.014a.082.082 0 0 1 .016.02l.365.583.357-.59a.069.069 0 0 1 .016-.019l.024-.016h.2a.116.116 0 0 1 .048 0 .026.026 0 0 1 .014.027.111.111 0 0 1-.016.045l-.455.746Zm-2.15-2.514a.085.085 0 0 1 .013.04.032.032 0 0 1-.016.026.124.124 0 0 1-.05.016h-.223a.058.058 0 0 1-.029-.016l-.016-.02-.38-.628-.371.627-.016.021a.077.077 0 0 1-.026.016h-.21a.116.116 0 0 1-.047-.013.032.032 0 0 1-.013-.027.087.087 0 0 1 .016-.042l.481-.772-.47-.736a.095.095 0 0 1-.017-.04.03.03 0 0 1 .016-.029.114.114 0 0 1 .05-.016h.22l.026.014a.082.082 0 0 1 .016.02l.376.601.357-.59a.069.069 0 0 1 .016-.018l.024-.016h.201a.116.116 0 0 1 .048 0 .026.026 0 0 1 .013.026.111.111 0 0 1-.016.045l-.452.736zm-2.088-2.49a.085.085 0 0 1 .013.04.032.032 0 0 1-.016.027.124.124 0 0 1-.05.015h-.222a.058.058 0 0 1-.03-.015l-.015-.022-.379-.627-.37.627-.016.022a.071.071 0 0 1-.026.015h-.215a.116.116 0 0 1-.047-.013.032.032 0 0 1-.014-.026.087.087 0 0 1 .016-.043l.482-.772-.471-.722a.095.095 0 0 1-.016-.04.03.03 0 0 1 .016-.03.114.114 0 0 1 .05-.015h.22l.026.013a.082.082 0 0 1 .016.021l.365.582.357-.59a.069.069 0 0 1 .016-.018l.024-.016h.201a.116.116 0 0 1 .048 0 .03.03 0 0 1 .013.026.111.111 0 0 1-.016.045l-.455.744zM86.82 162.975a.085.085 0 0 1 .014.04.032.032 0 0 1-.016.026.124.124 0 0 1-.05.016h-.223a.058.058 0 0 1-.029-.016l-.026-.026-.373-.62-.368.628-.016.021a.071.071 0 0 1-.026.016h-.215a.116.116 0 0 1-.047-.013.032.032 0 0 1-.014-.027.087.087 0 0 1 .016-.042l.482-.773-.471-.725a.095.095 0 0 1-.027-.04.03.03 0 0 1 .016-.028.114.114 0 0 1 .064-.014h.217l.026.014a.082.082 0 0 1 .016.02l.365.596.355-.598a.069.069 0 0 1 .016-.018l.023-.016h.202a.116.116 0 0 1 .047 0 .026.026 0 0 1 .013.026.111.111 0 0 1-.015.045l-.45.738zm1.382-2.185a.085.085 0 0 1 .013.04.032.032 0 0 1-.016.026.124.124 0 0 1-.05.016h-.223a.058.058 0 0 1-.029-.016l-.015-.021-.384-.625-.368.627-.016.022a.071.071 0 0 1-.026.015h-.215a.116.116 0 0 1-.047-.013.032.032 0 0 1-.013-.026.087.087 0 0 1 .015-.043l.482-.762-.471-.732a.095.095 0 0 1-.016-.043.03.03 0 0 1 .016-.026.114.114 0 0 1 .05-.016h.22l.026.013a.082.082 0 0 1 .016.021l.365.582.358-.584a.069.069 0 0 1 .015-.019l.024-.016h.201a.116.116 0 0 1 .048 0 .03.03 0 0 1 .013.027.111.111 0 0 1-.016.045l-.452.738Zm2.063-.019a.085.085 0 0 1 .014.04.032.032 0 0 1-.016.026.124.124 0 0 1-.05.016h-.223a.058.058 0 0 1-.029-.016l-.016-.02-.383-.628-.37.627-.017.021a.077.077 0 0 1-.026.016h-.21a.116.116 0 0 1-.047-.013.032.032 0 0 1-.013-.026.087.087 0 0 1 .016-.043l.479-.76-.471-.735a.095.095 0 0 1-.016-.04.03.03 0 0 1 .016-.028.114.114 0 0 1 .05-.016h.23l.027.013a.082.082 0 0 1 .016.021l.365.582.338-.582a.069.069 0 0 1 .016-.018l.024-.016h.201a.116.116 0 0 1 .048 0 .03.03 0 0 1 .013.026.111.111 0 0 1-.016.045l-.444.736Zm2.146 2.149a.085.085 0 0 1 .013.04.032.032 0 0 1-.015.026.124.124 0 0 1-.05.016h-.223a.058.058 0 0 1-.03-.016l-.015-.021-.384-.622-.37.627-.016.021a.071.071 0 0 1-.026.016h-.21a.116.116 0 0 1-.047-.013.032.032 0 0 1-.013-.027.087.087 0 0 1 .016-.042l.476-.765-.466-.735a.095.095 0 0 1-.016-.04.03.03 0 0 1 .016-.029.114.114 0 0 1 .05-.016h.22l.027.013a.082.082 0 0 1 .015.022l.366.582.357-.59a.069.069 0 0 1 .016-.019l.023-.016h.202a.116.116 0 0 1 .047 0 .026.026 0 0 1 .013.027.111.111 0 0 1-.016.045l-.452.735zm1.881-2.188a.085.085 0 0 1 .014.04.032.032 0 0 1-.016.026.124.124 0 0 1-.05.016h-.223a.058.058 0 0 1-.029-.016l-.016-.021-.38-.627-.371.627-.016.02a.071.071 0 0 1-.027.017h-.209a.116.116 0 0 1-.047-.014.032.032 0 0 1-.013-.026.087.087 0 0 1 .015-.042l.482-.773-.474-.722a.095.095 0 0 1-.015-.04.03.03 0 0 1 .015-.03.114.114 0 0 1 .05-.015h.22l.027.013a.082.082 0 0 1 .016.021l.365.583.357-.583a.069.069 0 0 1 .016-.018l.024-.016h.2a.116.116 0 0 1 .048 0 .03.03 0 0 1 .014.026.111.111 0 0 1-.016.045l-.455.736Zm2.128-.027a.085.085 0 0 1 .013.04.032.032 0 0 1-.016.026.124.124 0 0 1-.05.016h-.223a.058.058 0 0 1-.029-.016l-.016-.02-.38-.623-.371.63-.016.021a.071.071 0 0 1-.026.016h-.21a.116.116 0 0 1-.047-.013.032.032 0 0 1-.013-.027.087.087 0 0 1 .016-.042l.481-.773-.473-.724a.095.095 0 0 1-.016-.04.03.03 0 0 1 .016-.03.114.114 0 0 1 .05-.015h.22l.026.013a.082.082 0 0 1 .016.021l.365.582.357-.582a.069.069 0 0 1 .016-.02l.024-.027h.2a.116.116 0 0 1 .049 0 .03.03 0 0 1 .013.026.111.111 0 0 1-.016.045l-.455.751zm1.923 2.156a.085.085 0 0 1 .013.04.032.032 0 0 1-.016.027.124.124 0 0 1-.05.016h-.209a.058.058 0 0 1-.029-.016l-.016-.022-.394-.613-.37.627-.016.02a.071.071 0 0 1-.027.017h-.209a.116.116 0 0 1-.047-.013.032.032 0 0 1-.014-.027.087.087 0 0 1 .016-.042l.482-.773-.474-.735a.095.095 0 0 1-.016-.04.03.03 0 0 1 .016-.03.114.114 0 0 1 .05-.015h.22l.027.013a.082.082 0 0 1 .015.021l.366.582.357-.59a.069.069 0 0 1 .016-.018l.023-.016h.201a.116.116 0 0 1 .048 0 .026.026 0 0 1 .013.026.111.111 0 0 1-.016.045l-.452.736zm-1.878 2.548a.085.085 0 0 1 .013.04.032.032 0 0 1-.016.027.124.124 0 0 1-.05.015h-.223a.058.058 0 0 1-.029-.015l-.016-.022-.383-.621-.368.635-.016.02a.071.071 0 0 1-.026.017h-.21a.116.116 0 0 1-.047-.014.032.032 0 0 1-.013-.026.087.087 0 0 1 .016-.042l.481-.773-.47-.735a.095.095 0 0 1-.02-.035.03.03 0 0 1 .017-.029.114.114 0 0 1 .05-.016h.22l.026.013a.082.082 0 0 1 .016.022l.365.582.357-.59a.069.069 0 0 1 .016-.019l.024-.016h.2a.116.116 0 0 1 .049 0 .03.03 0 0 1 .013.027.111.111 0 0 1-.016.045l-.453.735zm-2.101 2.532a.085.085 0 0 1 .013.04.032.032 0 0 1-.016.027.124.124 0 0 1-.05.016h-.222a.058.058 0 0 1-.03-.016l-.015-.022-.384-.621-.37.627-.016.02a.071.071 0 0 1-.027.017h-.209a.116.116 0 0 1-.047-.013.032.032 0 0 1-.014-.027.087.087 0 0 1 .016-.042l.482-.773-.474-.727a.095.095 0 0 1-.016-.04.03.03 0 0 1 .016-.03.114.114 0 0 1 .05-.015h.22l.027.013a.082.082 0 0 1 .015.021l.366.582.357-.59a.069.069 0 0 1 .016-.018l.023-.016h.201a.116.116 0 0 1 .048 0 .026.026 0 0 1 .013.026.111.111 0 0 1-.016.045l-.452.736Zm-1.879 2.554a.085.085 0 0 1 .013.04.032.032 0 0 1-.015.026.124.124 0 0 1-.05.016h-.223a.058.058 0 0 1-.029-.016l-.016-.021-.384-.638-.37.627-.016.021a.077.077 0 0 1-.026.016h-.21a.116.116 0 0 1-.047-.013.032.032 0 0 1-.013-.027.087.087 0 0 1 .016-.042l.481-.772-.47-.736a.095.095 0 0 1-.017-.04.03.03 0 0 1 .016-.029.114.114 0 0 1 .05-.016h.22l.027.014a.082.082 0 0 1 .016.02l.365.583.357-.59a.069.069 0 0 1 .016-.019l.024-.016h.2a.116.116 0 0 1 .048 0 .026.026 0 0 1 .013.027.111.111 0 0 1-.015.045l-.456.746Zm-2.15-2.514a.085.085 0 0 1 .012.04.032.032 0 0 1-.015.026.124.124 0 0 1-.05.016h-.223a.058.058 0 0 1-.03-.016l-.015-.02-.381-.628-.37.627-.016.021a.077.077 0 0 1-.027.016h-.209a.116.116 0 0 1-.047-.013.032.032 0 0 1-.014-.026.087.087 0 0 1 .016-.043l.482-.772-.471-.736a.095.095 0 0 1-.016-.04.03.03 0 0 1 .016-.029.114.114 0 0 1 .05-.016h.22l.026.014a.082.082 0 0 1 .016.02l.376.601.357-.59a.069.069 0 0 1 .016-.018l.024-.016h.2a.116.116 0 0 1 .048 0 .026.026 0 0 1 .014.026.111.111 0 0 1-.016.045l-.453.736zm-2.088-2.49a.085.085 0 0 1 .013.04.032.032 0 0 1-.016.027.124.124 0 0 1-.05.015h-.223a.058.058 0 0 1-.029-.015l-.016-.022-.378-.627-.37.627-.016.022a.071.071 0 0 1-.027.015h-.214a.116.116 0 0 1-.048-.013.032.032 0 0 1-.013-.026.087.087 0 0 1 .016-.043l.482-.772-.471-.722a.095.095 0 0 1-.016-.04.03.03 0 0 1 .016-.03.114.114 0 0 1 .05-.015h.22l.026.013a.082.082 0 0 1 .016.021l.365.582.357-.59a.069.069 0 0 1 .016-.018l.024-.016h.201a.116.116 0 0 1 .048 0 .03.03 0 0 1 .013.026.111.111 0 0 1-.016.045l-.455.744zM110.137 156.612a.085.085 0 0 1 .014.04.032.032 0 0 1-.016.026.124.124 0 0 1-.05.016h-.223a.058.058 0 0 1-.029-.016l-.026-.026-.373-.62-.368.628-.016.021a.071.071 0 0 1-.026.016h-.215a.116.116 0 0 1-.047-.013.032.032 0 0 1-.014-.027.087.087 0 0 1 .016-.042l.482-.773-.471-.725a.095.095 0 0 1-.027-.04.03.03 0 0 1 .016-.028.114.114 0 0 1 .064-.014h.217l.026.014a.082.082 0 0 1 .016.02l.365.596.355-.598a.069.069 0 0 1 .016-.018l.023-.016h.202a.116.116 0 0 1 .047 0 .026.026 0 0 1 .013.026.111.111 0 0 1-.016.045l-.45.738zm1.382-2.185a.085.085 0 0 1 .013.04.032.032 0 0 1-.016.026.124.124 0 0 1-.05.016h-.223a.058.058 0 0 1-.029-.016l-.016-.021-.383-.625-.368.627-.016.022a.071.071 0 0 1-.026.015h-.215a.116.116 0 0 1-.047-.013.032.032 0 0 1-.013-.026.087.087 0 0 1 .015-.043l.482-.762-.471-.732a.095.095 0 0 1-.016-.043.03.03 0 0 1 .016-.026.114.114 0 0 1 .05-.016h.22l.026.013a.082.082 0 0 1 .016.021l.365.582.358-.584a.069.069 0 0 1 .015-.019l.024-.016h.201a.116.116 0 0 1 .048 0 .03.03 0 0 1 .013.027.111.111 0 0 1-.016.045l-.452.738Zm2.063-.019a.085.085 0 0 1 .014.04.032.032 0 0 1-.016.026.124.124 0 0 1-.05.016h-.223a.058.058 0 0 1-.029-.016l-.016-.02-.383-.628-.37.627-.017.021a.077.077 0 0 1-.026.016h-.21a.116.116 0 0 1-.047-.013.032.032 0 0 1-.013-.026.087.087 0 0 1 .016-.043l.479-.76-.471-.735a.095.095 0 0 1-.016-.04.03.03 0 0 1 .016-.028.114.114 0 0 1 .05-.016h.23l.027.013a.082.082 0 0 1 .016.021l.365.582.338-.582a.069.069 0 0 1 .016-.018l.024-.016h.201a.116.116 0 0 1 .048 0 .03.03 0 0 1 .013.026.111.111 0 0 1-.016.045l-.444.736Zm2.146 2.149a.085.085 0 0 1 .013.04.032.032 0 0 1-.016.026.124.124 0 0 1-.05.016h-.222a.058.058 0 0 1-.03-.016l-.015-.021-.384-.622-.37.627-.016.021a.071.071 0 0 1-.026.016h-.21a.116.116 0 0 1-.047-.013.032.032 0 0 1-.013-.027.087.087 0 0 1 .016-.042l.476-.765-.466-.735a.095.095 0 0 1-.016-.04.03.03 0 0 1 .016-.029.114.114 0 0 1 .05-.016h.22l.026.013a.082.082 0 0 1 .016.021l.365.583.358-.59a.069.069 0 0 1 .016-.019l.023-.016h.201a.116.116 0 0 1 .048 0 .026.026 0 0 1 .013.027.111.111 0 0 1-.016.045l-.452.735zm1.881-2.188a.085.085 0 0 1 .014.04.032.032 0 0 1-.016.026.124.124 0 0 1-.05.016h-.223a.058.058 0 0 1-.029-.016l-.016-.021-.38-.628-.371.628-.016.02a.071.071 0 0 1-.027.017h-.209a.116.116 0 0 1-.047-.014.032.032 0 0 1-.013-.026.087.087 0 0 1 .015-.042l.482-.773-.474-.722a.095.095 0 0 1-.016-.04.03.03 0 0 1 .016-.03.114.114 0 0 1 .05-.015h.22l.027.013a.082.082 0 0 1 .016.021l.365.582.357-.582a.069.069 0 0 1 .016-.018l.024-.016h.2a.116.116 0 0 1 .048 0 .03.03 0 0 1 .013.026.111.111 0 0 1-.015.045l-.455.736Zm2.128-.027a.085.085 0 0 1 .013.04.032.032 0 0 1-.016.026.124.124 0 0 1-.05.016h-.223a.058.058 0 0 1-.029-.016l-.016-.02-.38-.623-.371.63-.016.021a.071.071 0 0 1-.026.016h-.21a.116.116 0 0 1-.047-.013.032.032 0 0 1-.013-.027.087.087 0 0 1 .016-.042l.481-.773-.473-.725a.095.095 0 0 1-.016-.04.03.03 0 0 1 .016-.028.114.114 0 0 1 .05-.016h.22l.026.013a.082.082 0 0 1 .016.021l.365.582.357-.582a.069.069 0 0 1 .016-.021l.024-.026h.2a.116.116 0 0 1 .049 0 .03.03 0 0 1 .013.026.111.111 0 0 1-.016.045l-.455.751zm1.923 2.156a.085.085 0 0 1 .013.04.032.032 0 0 1-.016.027.124.124 0 0 1-.05.015h-.209a.058.058 0 0 1-.029-.015l-.016-.022-.394-.613-.37.627-.016.02a.071.071 0 0 1-.027.017h-.209a.116.116 0 0 1-.047-.014.032.032 0 0 1-.014-.026.087.087 0 0 1 .016-.042l.482-.773-.474-.735a.095.095 0 0 1-.016-.04.03.03 0 0 1 .016-.03.114.114 0 0 1 .05-.015h.22l.026.013a.082.082 0 0 1 .016.021l.365.582.358-.59a.069.069 0 0 1 .016-.018l.023-.016h.201a.116.116 0 0 1 .048 0 .026.026 0 0 1 .013.026.111.111 0 0 1-.016.045l-.452.736zm-1.878 2.548a.085.085 0 0 1 .013.04.032.032 0 0 1-.016.027.124.124 0 0 1-.05.015h-.223a.058.058 0 0 1-.029-.015l-.016-.022-.383-.621-.368.635-.016.02a.071.071 0 0 1-.026.017h-.21a.116.116 0 0 1-.047-.014.032.032 0 0 1-.013-.026.087.087 0 0 1 .016-.042l.481-.773-.47-.736a.095.095 0 0 1-.02-.034.03.03 0 0 1 .017-.029.114.114 0 0 1 .05-.016h.22l.026.013a.082.082 0 0 1 .016.022l.365.582.357-.59a.069.069 0 0 1 .016-.019l.024-.016h.2a.116.116 0 0 1 .048 0 .03.03 0 0 1 .014.027.111.111 0 0 1-.016.045l-.453.735zm-2.101 2.532a.085.085 0 0 1 .013.04.032.032 0 0 1-.016.027.124.124 0 0 1-.05.015h-.222a.058.058 0 0 1-.03-.015l-.015-.022-.384-.621-.37.627-.016.02a.071.071 0 0 1-.027.017h-.209a.116.116 0 0 1-.047-.013.032.032 0 0 1-.014-.027.087.087 0 0 1 .016-.042l.482-.773-.474-.727a.095.095 0 0 1-.016-.04.03.03 0 0 1 .016-.03.114.114 0 0 1 .05-.015h.22l.026.013a.082.082 0 0 1 .016.021l.365.582.358-.59a.069.069 0 0 1 .016-.018l.023-.016h.201a.116.116 0 0 1 .048 0 .026.026 0 0 1 .013.026.111.111 0 0 1-.016.045l-.452.736Zm-1.879 2.554a.085.085 0 0 1 .013.04.032.032 0 0 1-.015.026.124.124 0 0 1-.05.016h-.223a.058.058 0 0 1-.03-.016l-.015-.021-.384-.638-.37.627-.016.021a.077.077 0 0 1-.026.016h-.21a.116.116 0 0 1-.047-.013.032.032 0 0 1-.013-.027.087.087 0 0 1 .016-.042l.481-.772-.47-.736a.095.095 0 0 1-.017-.04.03.03 0 0 1 .016-.029.114.114 0 0 1 .05-.016h.22l.027.014a.082.082 0 0 1 .015.02l.366.583.357-.59a.069.069 0 0 1 .016-.019l.023-.016h.202a.116.116 0 0 1 .047 0 .026.026 0 0 1 .013.027.111.111 0 0 1-.015.045l-.456.746Zm-2.15-2.514a.085.085 0 0 1 .012.04.032.032 0 0 1-.016.026.124.124 0 0 1-.05.016h-.222a.058.058 0 0 1-.03-.016l-.015-.02-.381-.628-.37.627-.016.021a.077.077 0 0 1-.027.016h-.209a.116.116 0 0 1-.047-.013.032.032 0 0 1-.014-.027.087.087 0 0 1 .016-.042l.482-.772-.471-.736a.095.095 0 0 1-.016-.04.03.03 0 0 1 .016-.029.114.114 0 0 1 .05-.016h.22l.026.014a.082.082 0 0 1 .016.02l.376.601.357-.59a.069.069 0 0 1 .016-.018l.024-.016h.2a.116.116 0 0 1 .048 0 .026.026 0 0 1 .014.026.111.111 0 0 1-.016.045l-.453.736zm-2.088-2.49a.085.085 0 0 1 .013.04.032.032 0 0 1-.016.027.124.124 0 0 1-.05.015h-.223a.058.058 0 0 1-.029-.015l-.016-.022-.378-.627-.37.627-.016.022a.071.071 0 0 1-.027.015h-.214a.116.116 0 0 1-.048-.013.032.032 0 0 1-.013-.026.087.087 0 0 1 .016-.043l.482-.772-.471-.722a.095.095 0 0 1-.016-.04.03.03 0 0 1 .016-.03.114.114 0 0 1 .05-.015h.22l.026.013a.082.082 0 0 1 .016.021l.365.582.357-.59a.069.069 0 0 1 .016-.018l.024-.016h.2a.116.116 0 0 1 .049 0 .03.03 0 0 1 .013.026.111.111 0 0 1-.016.045l-.455.744zM128.728 135.326a.085.085 0 0 1 .014.04.032.032 0 0 1-.016.026.124.124 0 0 1-.05.016h-.223a.058.058 0 0 1-.029-.016l-.026-.026-.373-.62-.368.628-.016.02a.071.071 0 0 1-.026.017h-.215a.116.116 0 0 1-.047-.014.032.032 0 0 1-.014-.026.087.087 0 0 1 .016-.042l.482-.773-.471-.725a.095.095 0 0 1-.027-.04.03.03 0 0 1 .016-.029.114.114 0 0 1 .064-.013h.217l.026.013a.082.082 0 0 1 .016.021l.365.596.355-.598a.069.069 0 0 1 .016-.019l.023-.016h.202a.116.116 0 0 1 .047 0 .026.026 0 0 1 .013.027.111.111 0 0 1-.016.045l-.45.738zm1.382-2.186a.085.085 0 0 1 .013.04.032.032 0 0 1-.016.027.124.124 0 0 1-.05.015h-.223a.058.058 0 0 1-.029-.015l-.016-.022-.383-.624-.368.627-.016.021a.071.071 0 0 1-.026.016h-.215a.116.116 0 0 1-.047-.013.032.032 0 0 1-.013-.027.087.087 0 0 1 .015-.042l.482-.762-.471-.733a.095.095 0 0 1-.016-.042.03.03 0 0 1 .016-.027.114.114 0 0 1 .05-.015h.22l.026.013a.082.082 0 0 1 .016.02l.365.583.358-.585a.069.069 0 0 1 .015-.018l.024-.016h.201a.116.116 0 0 1 .048 0 .03.03 0 0 1 .013.026.111.111 0 0 1-.016.045l-.452.739Zm2.063-.018a.085.085 0 0 1 .014.04.032.032 0 0 1-.016.026.124.124 0 0 1-.05.016h-.223a.058.058 0 0 1-.029-.016l-.016-.021-.383-.627-.37.627-.017.021a.077.077 0 0 1-.026.016h-.21a.116.116 0 0 1-.047-.013.032.032 0 0 1-.013-.027.087.087 0 0 1 .016-.042l.479-.76-.471-.735a.095.095 0 0 1-.016-.04.03.03 0 0 1 .016-.029.114.114 0 0 1 .05-.016h.23l.027.014a.082.082 0 0 1 .016.02l.365.583.338-.582a.069.069 0 0 1 .016-.019l.024-.016h.201a.116.116 0 0 1 .048 0 .03.03 0 0 1 .013.027.111.111 0 0 1-.016.045l-.444.735Zm2.146 2.148a.085.085 0 0 1 .013.04.032.032 0 0 1-.016.026.124.124 0 0 1-.05.016h-.222a.058.058 0 0 1-.03-.016l-.015-.02-.384-.622-.37.627-.016.02a.071.071 0 0 1-.026.017h-.21a.116.116 0 0 1-.047-.014.032.032 0 0 1-.013-.026.087.087 0 0 1 .016-.042l.476-.765-.466-.736a.095.095 0 0 1-.016-.04.03.03 0 0 1 .016-.028.114.114 0 0 1 .05-.016h.22l.026.013a.082.082 0 0 1 .016.021l.365.582.358-.59a.069.069 0 0 1 .016-.018l.023-.016h.201a.116.116 0 0 1 .048 0 .026.026 0 0 1 .013.026.111.111 0 0 1-.016.045l-.452.736zm1.881-2.188a.085.085 0 0 1 .014.04.032.032 0 0 1-.016.026.124.124 0 0 1-.05.016h-.223a.058.058 0 0 1-.029-.016l-.016-.02-.38-.628-.371.627-.016.021a.071.071 0 0 1-.027.016h-.209a.116.116 0 0 1-.047-.013.032.032 0 0 1-.013-.026.087.087 0 0 1 .015-.043l.482-.772-.474-.723a.095.095 0 0 1-.016-.04.03.03 0 0 1 .016-.028.114.114 0 0 1 .05-.016h.22l.027.013a.082.082 0 0 1 .016.021l.365.582.357-.582a.069.069 0 0 1 .016-.018l.024-.016h.2a.116.116 0 0 1 .048 0 .03.03 0 0 1 .013.026.111.111 0 0 1-.015.045l-.455.736Zm2.128-.026a.085.085 0 0 1 .013.04.032.032 0 0 1-.016.026.124.124 0 0 1-.05.016h-.223a.058.058 0 0 1-.029-.016l-.016-.021-.38-.622-.371.63-.016.02a.071.071 0 0 1-.026.017h-.21a.116.116 0 0 1-.047-.013.032.032 0 0 1-.013-.027.087.087 0 0 1 .016-.042l.481-.773-.473-.725a.095.095 0 0 1-.016-.04.03.03 0 0 1 .016-.029.114.114 0 0 1 .05-.015h.22l.026.013a.082.082 0 0 1 .016.02l.365.583.357-.582a.069.069 0 0 1 .016-.021l.024-.027h.2a.116.116 0 0 1 .049 0 .03.03 0 0 1 .013.027.111.111 0 0 1-.016.045l-.455.751zm1.923 2.156a.085.085 0 0 1 .013.04.032.032 0 0 1-.016.026.124.124 0 0 1-.05.016h-.209a.058.058 0 0 1-.029-.016l-.016-.02-.394-.615-.37.627-.016.022a.071.071 0 0 1-.027.015h-.209a.116.116 0 0 1-.047-.013.032.032 0 0 1-.014-.026.087.087 0 0 1 .016-.043l.482-.772-.474-.736a.095.095 0 0 1-.016-.04.03.03 0 0 1 .016-.029.114.114 0 0 1 .05-.015h.22l.026.013a.082.082 0 0 1 .016.021l.365.582.358-.59a.069.069 0 0 1 .016-.018l.023-.016h.201a.116.116 0 0 1 .048 0 .026.026 0 0 1 .013.026.111.111 0 0 1-.016.045l-.452.736zm-1.878 2.548a.085.085 0 0 1 .013.04.032.032 0 0 1-.016.026.124.124 0 0 1-.05.016h-.223a.058.058 0 0 1-.029-.016l-.016-.02-.383-.623-.368.635-.016.021a.071.071 0 0 1-.026.016h-.21a.116.116 0 0 1-.047-.013.032.032 0 0 1-.013-.026.087.087 0 0 1 .016-.043l.481-.772-.47-.736a.095.095 0 0 1-.02-.034.03.03 0 0 1 .017-.03.114.114 0 0 1 .05-.015h.22l.026.013a.082.082 0 0 1 .016.021l.365.582.357-.59a.069.069 0 0 1 .016-.018l.024-.016h.2a.116.116 0 0 1 .048 0 .03.03 0 0 1 .014.026.111.111 0 0 1-.016.045l-.453.736zm-2.101 2.532a.085.085 0 0 1 .013.04.032.032 0 0 1-.016.026.124.124 0 0 1-.05.016h-.222a.058.058 0 0 1-.03-.016l-.015-.02-.384-.623-.37.627-.016.022a.071.071 0 0 1-.027.015h-.209a.116.116 0 0 1-.047-.013.032.032 0 0 1-.014-.026.087.087 0 0 1 .016-.043l.482-.772-.474-.728a.095.095 0 0 1-.016-.04.03.03 0 0 1 .016-.029.114.114 0 0 1 .05-.015h.22l.026.013a.082.082 0 0 1 .016.021l.365.582.358-.59a.069.069 0 0 1 .016-.018l.023-.016h.201a.116.116 0 0 1 .048 0 .026.026 0 0 1 .013.026.111.111 0 0 1-.016.045l-.452.736Zm-1.879 2.553a.085.085 0 0 1 .013.04.032.032 0 0 1-.015.027.124.124 0 0 1-.05.015h-.223a.058.058 0 0 1-.03-.015l-.015-.022-.384-.637-.37.627-.016.02a.077.077 0 0 1-.026.017h-.21a.116.116 0 0 1-.047-.013.032.032 0 0 1-.013-.027.087.087 0 0 1 .016-.042l.481-.773-.47-.735a.095.095 0 0 1-.017-.04.03.03 0 0 1 .016-.03.114.114 0 0 1 .05-.015h.22l.027.013a.082.082 0 0 1 .015.021l.366.582.357-.59a.069.069 0 0 1 .016-.018l.023-.016h.202a.116.116 0 0 1 .047 0 .026.026 0 0 1 .013.027.111.111 0 0 1-.015.044l-.456.747Zm-2.15-2.513a.085.085 0 0 1 .012.04.032.032 0 0 1-.016.026.124.124 0 0 1-.05.016h-.222a.058.058 0 0 1-.03-.016l-.015-.021-.381-.627-.37.627-.016.021a.077.077 0 0 1-.027.016h-.209a.116.116 0 0 1-.047-.013.032.032 0 0 1-.014-.027.087.087 0 0 1 .016-.042l.482-.773-.471-.735a.095.095 0 0 1-.016-.04.03.03 0 0 1 .016-.03.114.114 0 0 1 .05-.015h.22l.026.013a.082.082 0 0 1 .016.021l.376.601.357-.59a.069.069 0 0 1 .016-.019l.024-.015h.2a.116.116 0 0 1 .048 0 .026.026 0 0 1 .014.026.111.111 0 0 1-.016.045l-.453.736zm-2.088-2.49a.085.085 0 0 1 .013.04.032.032 0 0 1-.016.026.124.124 0 0 1-.05.016h-.223a.058.058 0 0 1-.029-.016l-.016-.02-.378-.628-.37.627-.016.021a.071.071 0 0 1-.027.016h-.214a.116.116 0 0 1-.048-.013.032.032 0 0 1-.013-.027.087.087 0 0 1 .016-.042l.482-.772-.471-.723a.095.095 0 0 1-.016-.04.03.03 0 0 1 .016-.029.114.114 0 0 1 .05-.015h.22l.026.013a.082.082 0 0 1 .016.02l.365.583.357-.59a.069.069 0 0 1 .016-.019l.024-.015h.2a.116.116 0 0 1 .049 0 .03.03 0 0 1 .013.026.111.111 0 0 1-.016.045l-.455.744zM61.138 78.365a.085.085 0 0 1 .013.04.032.032 0 0 1-.016.027.124.124 0 0 1-.05.015h-.222a.058.058 0 0 1-.03-.015l-.026-.027-.373-.619-.368.627-.015.021a.071.071 0 0 1-.027.016h-.214a.116.116 0 0 1-.048-.013.032.032 0 0 1-.013-.027.087.087 0 0 1 .016-.042l.481-.773-.47-.724a.095.095 0 0 1-.027-.04.03.03 0 0 1 .016-.03.114.114 0 0 1 .063-.013h.217l.027.014a.082.082 0 0 1 .016.02l.365.596.354-.598a.069.069 0 0 1 .016-.018l.024-.016h.201a.116.116 0 0 1 .048 0 .026.026 0 0 1 .013.026.111.111 0 0 1-.016.045l-.45.738zm1.381-2.185a.085.085 0 0 1 .013.04.032.032 0 0 1-.016.026.124.124 0 0 1-.05.016h-.222a.058.058 0 0 1-.03-.016l-.015-.021-.384-.624-.367.627-.016.02a.071.071 0 0 1-.027.017h-.214a.116.116 0 0 1-.048-.014.032.032 0 0 1-.013-.026.087.087 0 0 1 .016-.042l.481-.762-.47-.733a.095.095 0 0 1-.016-.043.03.03 0 0 1 .016-.026.114.114 0 0 1 .05-.016h.22l.026.013a.082.082 0 0 1 .016.021l.365.583.357-.585a.069.069 0 0 1 .016-.019l.024-.016h.2a.116.116 0 0 1 .048 0 .03.03 0 0 1 .014.027.111.111 0 0 1-.016.045l-.453.738Zm2.064-.019a.085.085 0 0 1 .013.04.032.032 0 0 1-.016.027.124.124 0 0 1-.05.015h-.222a.058.058 0 0 1-.03-.015l-.015-.022-.384-.627-.37.627-.016.022a.077.077 0 0 1-.027.015h-.209a.116.116 0 0 1-.047-.013.032.032 0 0 1-.014-.026.087.087 0 0 1 .016-.043l.48-.759-.472-.735a.095.095 0 0 1-.016-.04.03.03 0 0 1 .016-.03.114.114 0 0 1 .05-.015h.23l.027.013a.082.082 0 0 1 .016.021l.365.582.339-.582a.069.069 0 0 1 .016-.018l.024-.016h.2a.116.116 0 0 1 .048 0 .03.03 0 0 1 .013.026.111.111 0 0 1-.015.045l-.445.736Zm2.146 2.149a.085.085 0 0 1 .013.04.032.032 0 0 1-.016.026.124.124 0 0 1-.05.016h-.223a.058.058 0 0 1-.029-.016l-.016-.021-.383-.622-.37.627-.016.021a.071.071 0 0 1-.027.016h-.209a.116.116 0 0 1-.048-.013.032.032 0 0 1-.013-.027.087.087 0 0 1 .016-.042l.476-.765-.465-.735a.095.095 0 0 1-.016-.04.03.03 0 0 1 .016-.029.114.114 0 0 1 .05-.016h.22l.026.014a.082.082 0 0 1 .016.02l.365.583.357-.59a.069.069 0 0 1 .016-.019l.024-.016h.201a.116.116 0 0 1 .048 0 .026.026 0 0 1 .013.027.111.111 0 0 1-.016.045l-.452.735zm1.88-2.188a.085.085 0 0 1 .014.04.032.032 0 0 1-.016.026.124.124 0 0 1-.05.016h-.222a.058.058 0 0 1-.03-.016l-.015-.021-.381-.627-.37.627-.017.02a.071.071 0 0 1-.026.017h-.21a.116.116 0 0 1-.047-.013.032.032 0 0 1-.013-.027.087.087 0 0 1 .016-.042l.481-.773-.473-.722a.095.095 0 0 1-.016-.04.03.03 0 0 1 .016-.029.114.114 0 0 1 .05-.016h.22l.026.013a.082.082 0 0 1 .016.022l.365.582.357-.582a.069.069 0 0 1 .016-.019l.024-.016h.201a.116.116 0 0 1 .048 0 .03.03 0 0 1 .013.027.111.111 0 0 1-.016.045l-.455.735Zm2.128-.027a.085.085 0 0 1 .013.04.032.032 0 0 1-.016.026.124.124 0 0 1-.05.016h-.222a.058.058 0 0 1-.03-.016l-.015-.02-.381-.623-.37.63-.016.021a.071.071 0 0 1-.027.016h-.209a.116.116 0 0 1-.047-.013.032.032 0 0 1-.014-.026.087.087 0 0 1 .016-.043l.482-.772-.474-.725a.095.095 0 0 1-.016-.04.03.03 0 0 1 .016-.03.114.114 0 0 1 .05-.015h.22l.026.013a.082.082 0 0 1 .016.021l.365.582.358-.582a.069.069 0 0 1 .016-.02l.023-.027h.201a.116.116 0 0 1 .048 0 .03.03 0 0 1 .013.026.111.111 0 0 1-.016.045l-.455.752zm1.924 2.157a.085.085 0 0 1 .013.04.032.032 0 0 1-.016.026.124.124 0 0 1-.05.016h-.21a.058.058 0 0 1-.028-.016l-.016-.021-.395-.614-.37.627-.016.021a.071.071 0 0 1-.026.016h-.21a.116.116 0 0 1-.047-.013.032.032 0 0 1-.013-.027.087.087 0 0 1 .016-.042l.481-.773-.473-.735a.095.095 0 0 1-.016-.04.03.03 0 0 1 .016-.029.114.114 0 0 1 .05-.016h.22l.026.013a.082.082 0 0 1 .016.021l.365.583.357-.59a.069.069 0 0 1 .016-.019l.024-.016h.2a.116.116 0 0 1 .049 0 .026.026 0 0 1 .013.027.111.111 0 0 1-.016.045l-.453.735zM70.782 80.8a.085.085 0 0 1 .013.04.032.032 0 0 1-.016.026.124.124 0 0 1-.05.016h-.222a.058.058 0 0 1-.03-.016l-.015-.021-.384-.622-.368.635-.015.021a.071.071 0 0 1-.027.016h-.209a.116.116 0 0 1-.047-.013.032.032 0 0 1-.014-.027.087.087 0 0 1 .016-.042l.482-.773-.471-.735a.095.095 0 0 1-.019-.035.03.03 0 0 1 .016-.029.114.114 0 0 1 .05-.016h.22l.026.014a.082.082 0 0 1 .016.02l.365.583.358-.59a.069.069 0 0 1 .015-.019l.024-.016h.201a.116.116 0 0 1 .048 0 .03.03 0 0 1 .013.027.111.111 0 0 1-.016.045l-.452.735zm-2.1 2.532a.085.085 0 0 1 .012.04.032.032 0 0 1-.015.026.124.124 0 0 1-.05.016h-.223a.058.058 0 0 1-.029-.016l-.016-.021-.384-.622-.37.627-.016.021a.071.071 0 0 1-.026.016h-.21a.116.116 0 0 1-.047-.013.032.032 0 0 1-.013-.027.087.087 0 0 1 .016-.042l.481-.773-.473-.727a.095.095 0 0 1-.016-.04.03.03 0 0 1 .016-.029.114.114 0 0 1 .05-.016h.22l.026.013a.082.082 0 0 1 .016.021l.365.583.357-.59a.069.069 0 0 1 .016-.019l.024-.016h.201a.116.116 0 0 1 .048 0 .026.026 0 0 1 .013.027.111.111 0 0 1-.016.045l-.453.735Zm-1.88 2.553a.085.085 0 0 1 .014.04.032.032 0 0 1-.016.026.124.124 0 0 1-.05.016h-.222a.058.058 0 0 1-.03-.016l-.015-.021-.384-.638-.37.627-.016.021a.077.077 0 0 1-.027.016h-.209a.116.116 0 0 1-.047-.013.032.032 0 0 1-.014-.026.087.087 0 0 1 .016-.043l.482-.772-.471-.736a.095.095 0 0 1-.016-.04.03.03 0 0 1 .016-.029.114.114 0 0 1 .05-.016h.22l.026.014a.082.082 0 0 1 .016.02l.365.583.357-.59a.069.069 0 0 1 .016-.019l.024-.015h.201a.116.116 0 0 1 .048 0 .026.026 0 0 1 .013.026.111.111 0 0 1-.016.045l-.455.746Zm-2.15-2.514a.085.085 0 0 1 .013.04.032.032 0 0 1-.016.026.124.124 0 0 1-.05.016h-.223a.058.058 0 0 1-.029-.016l-.015-.02-.381-.628-.37.627-.017.021a.077.077 0 0 1-.026.016h-.21a.116.116 0 0 1-.047-.013.032.032 0 0 1-.013-.026.087.087 0 0 1 .016-.043l.481-.772-.47-.736a.095.095 0 0 1-.017-.04.03.03 0 0 1 .016-.029.114.114 0 0 1 .05-.015h.22l.027.013a.082.082 0 0 1 .016.02l.375.602.357-.59a.069.069 0 0 1 .016-.019l.024-.016h.201a.116.116 0 0 1 .048 0 .026.026 0 0 1 .013.027.111.111 0 0 1-.016.045l-.452.735zm-2.088-2.49a.085.085 0 0 1 .013.04.032.032 0 0 1-.016.027.124.124 0 0 1-.05.016h-.222a.058.058 0 0 1-.03-.016l-.015-.021-.378-.627-.37.627-.017.02a.071.071 0 0 1-.026.017h-.214a.116.116 0 0 1-.048-.014.032.032 0 0 1-.013-.026.087.087 0 0 1 .016-.042l.481-.773-.47-.722a.095.095 0 0 1-.017-.04.03.03 0 0 1 .016-.03.114.114 0 0 1 .05-.015h.22l.026.013a.082.082 0 0 1 .016.021l.365.583.358-.59a.069.069 0 0 1 .016-.019l.023-.016h.201a.116.116 0 0 1 .048 0 .03.03 0 0 1 .013.027.111.111 0 0 1-.016.045l-.455.743zM110.512 78.005a.085.085 0 0 1 .013.04.032.032 0 0 1-.015.026.124.124 0 0 1-.05.016h-.223a.058.058 0 0 1-.029-.016l-.026-.027-.374-.619-.367.627-.016.022a.071.071 0 0 1-.027.015h-.214a.116.116 0 0 1-.048-.013.032.032 0 0 1-.013-.026.087.087 0 0 1 .016-.043l.482-.772-.471-.725a.095.095 0 0 1-.027-.04.03.03 0 0 1 .016-.029.114.114 0 0 1 .064-.013h.217l.026.013a.082.082 0 0 1 .016.021l.365.596.355-.598a.069.069 0 0 1 .015-.019l.024-.016h.201a.116.116 0 0 1 .048 0 .026.026 0 0 1 .013.027.111.111 0 0 1-.016.045l-.45.738zm1.381-2.186a.085.085 0 0 1 .014.04.032.032 0 0 1-.016.026.124.124 0 0 1-.05.016h-.223a.058.058 0 0 1-.029-.016l-.016-.02-.383-.625-.368.627-.016.021a.071.071 0 0 1-.027.016h-.214a.116.116 0 0 1-.047-.013.032.032 0 0 1-.014-.027.087.087 0 0 1 .016-.042l.482-.762-.471-.733a.095.095 0 0 1-.016-.042.03.03 0 0 1 .016-.027.114.114 0 0 1 .05-.016h.22l.026.014a.082.082 0 0 1 .016.02l.365.583.357-.585a.069.069 0 0 1 .016-.018l.024-.016h.201a.116.116 0 0 1 .048 0 .03.03 0 0 1 .013.026.111.111 0 0 1-.016.045l-.452.738Zm2.064-.018a.085.085 0 0 1 .013.04.032.032 0 0 1-.016.026.124.124 0 0 1-.05.016h-.222a.058.058 0 0 1-.03-.016l-.015-.021-.384-.627-.37.627-.016.021a.077.077 0 0 1-.026.016h-.21a.116.116 0 0 1-.047-.013.032.032 0 0 1-.013-.027.087.087 0 0 1 .016-.042l.478-.76-.47-.735a.095.095 0 0 1-.016-.04.03.03 0 0 1 .016-.029.114.114 0 0 1 .05-.016h.23l.026.013a.082.082 0 0 1 .016.022l.365.582.34-.582a.069.069 0 0 1 .015-.019l.024-.016h.2a.116.116 0 0 1 .048 0 .03.03 0 0 1 .014.027.111.111 0 0 1-.016.045l-.445.735Zm2.146 2.148a.085.085 0 0 1 .013.04.032.032 0 0 1-.016.026.124.124 0 0 1-.05.016h-.222a.058.058 0 0 1-.03-.016l-.015-.02-.384-.623-.37.628-.016.02a.071.071 0 0 1-.027.017h-.209a.116.116 0 0 1-.047-.014.032.032 0 0 1-.014-.026.087.087 0 0 1 .016-.042l.477-.765-.466-.736a.095.095 0 0 1-.016-.04.03.03 0 0 1 .016-.028.114.114 0 0 1 .05-.016h.22l.026.013a.082.082 0 0 1 .016.021l.365.582.357-.59a.069.069 0 0 1 .016-.018l.024-.016h.201a.116.116 0 0 1 .048 0 .026.026 0 0 1 .013.026.111.111 0 0 1-.016.045l-.452.736zm1.881-2.188a.085.085 0 0 1 .013.04.032.032 0 0 1-.016.026.124.124 0 0 1-.05.016h-.222a.058.058 0 0 1-.03-.016l-.015-.02-.381-.628-.37.627-.016.021a.071.071 0 0 1-.027.016h-.209a.116.116 0 0 1-.047-.013.032.032 0 0 1-.014-.027.087.087 0 0 1 .016-.042l.482-.772-.474-.723a.095.095 0 0 1-.016-.04.03.03 0 0 1 .016-.029.114.114 0 0 1 .05-.015h.22l.026.013a.082.082 0 0 1 .016.021l.365.582.358-.582a.069.069 0 0 1 .016-.019l.023-.015h.201a.116.116 0 0 1 .048 0 .03.03 0 0 1 .013.026.111.111 0 0 1-.016.045l-.455.736Zm2.127-.026a.085.085 0 0 1 .014.04.032.032 0 0 1-.016.026.124.124 0 0 1-.05.016h-.223a.058.058 0 0 1-.029-.016l-.016-.021-.38-.622-.371.63-.016.02a.071.071 0 0 1-.027.017h-.209a.116.116 0 0 1-.047-.014.032.032 0 0 1-.013-.026.087.087 0 0 1 .015-.042l.482-.773-.474-.725a.095.095 0 0 1-.016-.04.03.03 0 0 1 .016-.029.114.114 0 0 1 .05-.016h.22l.027.014a.082.082 0 0 1 .016.02l.365.583.357-.582a.069.069 0 0 1 .016-.021l.024-.027h.2a.116.116 0 0 1 .048 0 .03.03 0 0 1 .014.027.111.111 0 0 1-.016.045l-.455.751zm1.924 2.156a.085.085 0 0 1 .013.04.032.032 0 0 1-.016.026.124.124 0 0 1-.05.016h-.21a.058.058 0 0 1-.028-.016l-.016-.021-.394-.614-.37.627-.017.021a.071.071 0 0 1-.026.016h-.21a.116.116 0 0 1-.047-.013.032.032 0 0 1-.013-.026.087.087 0 0 1 .016-.043l.481-.772-.473-.736a.095.095 0 0 1-.016-.04.03.03 0 0 1 .016-.029.114.114 0 0 1 .05-.016h.22l.026.014a.082.082 0 0 1 .016.02l.365.583.357-.59a.069.069 0 0 1 .016-.019l.024-.015h.201a.116.116 0 0 1 .048 0 .026.026 0 0 1 .013.026.111.111 0 0 1-.016.045l-.452.736zm-1.879 2.548a.085.085 0 0 1 .014.04.032.032 0 0 1-.016.026.124.124 0 0 1-.05.016h-.223a.058.058 0 0 1-.029-.016l-.016-.021-.383-.622-.368.635-.016.021a.071.071 0 0 1-.027.016h-.209a.116.116 0 0 1-.047-.013.032.032 0 0 1-.013-.026.087.087 0 0 1 .015-.043l.482-.772-.471-.736a.095.095 0 0 1-.019-.034.03.03 0 0 1 .016-.03.114.114 0 0 1 .05-.015h.22l.027.013a.082.082 0 0 1 .016.021l.365.582.357-.59a.069.069 0 0 1 .016-.018l.024-.016h.2a.116.116 0 0 1 .048 0 .03.03 0 0 1 .013.026.111.111 0 0 1-.015.045l-.453.736zm-2.1 2.532a.085.085 0 0 1 .013.04.032.032 0 0 1-.016.026.124.124 0 0 1-.05.016h-.223a.058.058 0 0 1-.029-.016l-.016-.021-.383-.622-.37.627-.017.021a.071.071 0 0 1-.026.016h-.209a.116.116 0 0 1-.048-.013.032.032 0 0 1-.013-.026.087.087 0 0 1 .016-.043l.482-.772-.474-.728a.095.095 0 0 1-.016-.04.03.03 0 0 1 .016-.029.114.114 0 0 1 .05-.016h.22l.026.014a.082.082 0 0 1 .016.02l.365.583.357-.59a.069.069 0 0 1 .016-.019l.024-.015h.201a.116.116 0 0 1 .048 0 .026.026 0 0 1 .013.026.111.111 0 0 1-.016.045l-.452.736Zm-1.879 2.553a.085.085 0 0 1 .013.04.032.032 0 0 1-.016.026.124.124 0 0 1-.05.016h-.222a.058.058 0 0 1-.03-.016l-.015-.02-.384-.638-.37.627-.016.02a.077.077 0 0 1-.027.017h-.209a.116.116 0 0 1-.047-.014.032.032 0 0 1-.013-.026.087.087 0 0 1 .015-.042l.482-.773-.471-.735a.095.095 0 0 1-.016-.04.03.03 0 0 1 .016-.03.114.114 0 0 1 .05-.015h.22l.026.013a.082.082 0 0 1 .016.021l.365.582.358-.59a.069.069 0 0 1 .015-.018l.024-.016h.201a.116.116 0 0 1 .048 0 .026.026 0 0 1 .013.026.111.111 0 0 1-.016.045l-.455.747Zm-2.151-2.513a.085.085 0 0 1 .013.04.032.032 0 0 1-.016.026.124.124 0 0 1-.05.016h-.222a.058.058 0 0 1-.03-.016l-.015-.021-.381-.627-.37.627-.017.02a.077.077 0 0 1-.026.017h-.209a.116.116 0 0 1-.048-.013.032.032 0 0 1-.013-.027.087.087 0 0 1 .016-.042l.482-.773-.471-.735a.095.095 0 0 1-.016-.04.03.03 0 0 1 .016-.03.114.114 0 0 1 .05-.015h.22l.026.013a.082.082 0 0 1 .016.021l.376.6.357-.59a.069.069 0 0 1 .016-.018l.023-.015h.201a.116.116 0 0 1 .048 0 .026.026 0 0 1 .013.026.111.111 0 0 1-.016.045l-.452.735zm-2.088-2.49a.085.085 0 0 1 .014.04.032.032 0 0 1-.016.026.124.124 0 0 1-.05.016h-.223a.058.058 0 0 1-.029-.016l-.016-.021-.378-.627-.37.627-.016.021a.071.071 0 0 1-.027.016h-.214a.116.116 0 0 1-.048-.013.032.032 0 0 1-.013-.027.087.087 0 0 1 .016-.042l.481-.773-.47-.722a.095.095 0 0 1-.016-.04.03.03 0 0 1 .015-.029.114.114 0 0 1 .05-.016h.22l.027.014a.082.082 0 0 1 .016.02l.365.583.357-.59a.069.069 0 0 1 .016-.019l.024-.016h.2a.116.116 0 0 1 .048 0 .03.03 0 0 1 .014.027.111.111 0 0 1-.016.045l-.455.743zM43.858 96.332a.085.085 0 0 1 .013.04.032.032 0 0 1-.016.026.124.124 0 0 1-.05.016h-.222a.058.058 0 0 1-.03-.016l-.026-.026-.373-.62-.367.628-.016.021a.071.071 0 0 1-.027.016h-.214a.116.116 0 0 1-.048-.013.032.032 0 0 1-.013-.027.087.087 0 0 1 .016-.042l.481-.773-.47-.725a.095.095 0 0 1-.027-.04.03.03 0 0 1 .016-.028.114.114 0 0 1 .063-.014h.217l.027.014a.082.082 0 0 1 .016.02l.365.596.354-.598a.069.069 0 0 1 .016-.018l.024-.016h.201a.116.116 0 0 1 .048 0 .026.026 0 0 1 .013.026.111.111 0 0 1-.016.045l-.45.738zm1.381-2.185a.085.085 0 0 1 .013.04.032.032 0 0 1-.015.026.124.124 0 0 1-.05.016h-.223a.058.058 0 0 1-.029-.016l-.016-.021-.384-.625-.367.627-.016.022a.071.071 0 0 1-.027.016h-.214a.116.116 0 0 1-.048-.014.032.032 0 0 1-.013-.026.087.087 0 0 1 .016-.042l.482-.762-.471-.733a.095.095 0 0 1-.016-.043.03.03 0 0 1 .016-.026.114.114 0 0 1 .05-.016h.22l.026.013a.082.082 0 0 1 .016.021l.365.582.357-.584a.069.069 0 0 1 .016-.019l.024-.016h.2a.116.116 0 0 1 .049 0 .03.03 0 0 1 .013.027.111.111 0 0 1-.016.045l-.453.738Zm2.064-.019a.085.085 0 0 1 .013.04.032.032 0 0 1-.016.026.124.124 0 0 1-.05.016h-.222a.058.058 0 0 1-.03-.016l-.015-.02-.384-.628-.37.627-.016.021a.077.077 0 0 1-.027.016h-.209a.116.116 0 0 1-.047-.013.032.032 0 0 1-.013-.026.087.087 0 0 1 .015-.043l.48-.759-.472-.736a.095.095 0 0 1-.015-.04.03.03 0 0 1 .015-.028.114.114 0 0 1 .05-.016h.23l.027.013a.082.082 0 0 1 .016.021l.365.582.339-.582a.069.069 0 0 1 .016-.018l.024-.016h.2a.116.116 0 0 1 .048 0 .03.03 0 0 1 .014.026.111.111 0 0 1-.016.045l-.445.736Zm2.146 2.149a.085.085 0 0 1 .013.04.032.032 0 0 1-.016.026.124.124 0 0 1-.05.016h-.222a.058.058 0 0 1-.03-.016l-.015-.021-.384-.622-.37.627-.016.021a.071.071 0 0 1-.027.016h-.209a.116.116 0 0 1-.047-.013.032.032 0 0 1-.014-.027.087.087 0 0 1 .016-.042l.476-.765-.465-.735a.095.095 0 0 1-.016-.04.03.03 0 0 1 .016-.029.114.114 0 0 1 .05-.016h.22l.026.013a.082.082 0 0 1 .016.022l.365.582.357-.59a.069.069 0 0 1 .016-.019l.024-.016h.201a.116.116 0 0 1 .048 0 .026.026 0 0 1 .013.027.111.111 0 0 1-.016.045l-.452.735zm1.88-2.188a.085.085 0 0 1 .014.04.032.032 0 0 1-.016.026.124.124 0 0 1-.05.016h-.222a.058.058 0 0 1-.03-.016l-.015-.021-.381-.627-.37.627-.016.02a.071.071 0 0 1-.027.017h-.209a.116.116 0 0 1-.048-.014.032.032 0 0 1-.013-.026.087.087 0 0 1 .016-.042l.482-.773-.474-.722a.095.095 0 0 1-.016-.04.03.03 0 0 1 .016-.029.114.114 0 0 1 .05-.016h.22l.026.013a.082.082 0 0 1 .016.021l.365.583.358-.583a.069.069 0 0 1 .015-.018l.024-.016h.201a.116.116 0 0 1 .048 0 .03.03 0 0 1 .013.027.111.111 0 0 1-.016.045l-.455.735Zm2.128-.027a.085.085 0 0 1 .013.04.032.032 0 0 1-.015.026.124.124 0 0 1-.05.016h-.223a.058.058 0 0 1-.03-.016l-.015-.02-.381-.623-.37.63-.016.021a.071.071 0 0 1-.027.016h-.209a.116.116 0 0 1-.047-.013.032.032 0 0 1-.014-.027.087.087 0 0 1 .016-.042l.482-.772-.474-.725a.095.095 0 0 1-.016-.04.03.03 0 0 1 .016-.03.114.114 0 0 1 .05-.015h.22l.027.013a.082.082 0 0 1 .015.021l.366.582.357-.582a.069.069 0 0 1 .016-.02l.023-.027h.202a.116.116 0 0 1 .047 0 .03.03 0 0 1 .013.026.111.111 0 0 1-.015.045l-.456.752zm1.924 2.157a.085.085 0 0 1 .013.04.032.032 0 0 1-.016.026.124.124 0 0 1-.05.016h-.21a.058.058 0 0 1-.028-.016l-.016-.021-.394-.614-.37.627-.017.02a.071.071 0 0 1-.026.017h-.21a.116.116 0 0 1-.047-.013.032.032 0 0 1-.013-.027.087.087 0 0 1 .016-.042l.481-.773-.473-.735a.095.095 0 0 1-.016-.04.03.03 0 0 1 .016-.03.114.114 0 0 1 .05-.015h.22l.026.013a.082.082 0 0 1 .016.021l.365.582.357-.59a.069.069 0 0 1 .016-.018l.024-.016h.201a.116.116 0 0 1 .048 0 .026.026 0 0 1 .013.027.111.111 0 0 1-.016.044l-.452.736zm-1.879 2.547a.085.085 0 0 1 .013.04.032.032 0 0 1-.015.027.124.124 0 0 1-.05.016h-.223a.058.058 0 0 1-.03-.016l-.015-.022-.384-.621-.367.635-.016.02a.071.071 0 0 1-.027.017h-.209a.116.116 0 0 1-.047-.013.032.032 0 0 1-.014-.027.087.087 0 0 1 .016-.042l.482-.773-.471-.735a.095.095 0 0 1-.019-.035.03.03 0 0 1 .016-.029.114.114 0 0 1 .05-.016h.22l.027.013a.082.082 0 0 1 .015.022l.366.582.357-.59a.069.069 0 0 1 .016-.019l.023-.016h.202a.116.116 0 0 1 .047 0 .03.03 0 0 1 .013.027.111.111 0 0 1-.016.045l-.452.735zm-2.1 2.533a.085.085 0 0 1 .013.04.032.032 0 0 1-.016.026.124.124 0 0 1-.05.016h-.223a.058.058 0 0 1-.029-.016l-.016-.021-.383-.622-.37.627-.017.021a.071.071 0 0 1-.026.016h-.21a.116.116 0 0 1-.047-.013.032.032 0 0 1-.013-.027.087.087 0 0 1 .016-.042l.481-.773-.473-.727a.095.095 0 0 1-.016-.04.03.03 0 0 1 .016-.03.114.114 0 0 1 .05-.015h.22l.026.013a.082.082 0 0 1 .016.021l.365.582.357-.59a.069.069 0 0 1 .016-.018l.024-.016h.201a.116.116 0 0 1 .048 0 .026.026 0 0 1 .013.027.111.111 0 0 1-.016.044l-.452.736Zm-1.88 2.553a.085.085 0 0 1 .014.04.032.032 0 0 1-.016.026.124.124 0 0 1-.05.016h-.222a.058.058 0 0 1-.03-.016l-.015-.021-.384-.638-.37.627-.016.021a.077.077 0 0 1-.027.016h-.209a.116.116 0 0 1-.047-.013.032.032 0 0 1-.014-.026.087.087 0 0 1 .016-.043l.482-.772-.471-.736a.095.095 0 0 1-.016-.04.03.03 0 0 1 .016-.029.114.114 0 0 1 .05-.016h.22l.026.014a.082.082 0 0 1 .016.02l.365.583.357-.59a.069.069 0 0 1 .016-.019l.024-.016h.201a.116.116 0 0 1 .048 0 .026.026 0 0 1 .013.027.111.111 0 0 1-.016.045l-.455.746Zm-2.15-2.514a.085.085 0 0 1 .013.04.032.032 0 0 1-.016.026.124.124 0 0 1-.05.016h-.222a.058.058 0 0 1-.03-.016l-.015-.02-.381-.628-.37.627-.017.021a.077.077 0 0 1-.026.016h-.21a.116.116 0 0 1-.047-.013.032.032 0 0 1-.013-.026.087.087 0 0 1 .016-.043l.481-.772-.47-.736a.095.095 0 0 1-.016-.04.03.03 0 0 1 .015-.029.114.114 0 0 1 .05-.016h.22l.027.014a.082.082 0 0 1 .016.02l.375.601.358-.59a.069.069 0 0 1 .015-.018l.024-.016h.201a.116.116 0 0 1 .048 0 .026.026 0 0 1 .013.026.111.111 0 0 1-.016.045l-.452.736zm-2.088-2.49a.085.085 0 0 1 .013.04.032.032 0 0 1-.015.027.124.124 0 0 1-.05.016h-.223a.058.058 0 0 1-.03-.016l-.015-.022-.378-.627-.37.627-.017.022a.071.071 0 0 1-.026.016h-.214a.116.116 0 0 1-.048-.014.032.032 0 0 1-.013-.026.087.087 0 0 1 .016-.042l.481-.773-.47-.722a.095.095 0 0 1-.017-.04.03.03 0 0 1 .016-.03.114.114 0 0 1 .05-.015h.22l.027.013a.082.082 0 0 1 .015.021l.366.582.357-.59a.069.069 0 0 1 .016-.018l.023-.016h.202a.116.116 0 0 1 .047 0 .03.03 0 0 1 .013.026.111.111 0 0 1-.015.045l-.456.744zM61.41 158.289a.085.085 0 0 1 .014.04.032.032 0 0 1-.016.026.124.124 0 0 1-.05.016h-.222a.058.058 0 0 1-.03-.016l-.026-.027-.373-.619-.368.627-.016.022a.071.071 0 0 1-.026.015h-.214a.116.116 0 0 1-.048-.013.032.032 0 0 1-.013-.026.087.087 0 0 1 .016-.043l.481-.772-.47-.725a.095.095 0 0 1-.027-.04.03.03 0 0 1 .016-.029.114.114 0 0 1 .063-.013h.217l.027.013a.082.082 0 0 1 .015.021l.366.596.354-.598a.069.069 0 0 1 .016-.019l.024-.016h.2a.116.116 0 0 1 .048 0 .026.026 0 0 1 .014.027.111.111 0 0 1-.016.045l-.45.738zm1.382-2.186a.085.085 0 0 1 .013.04.032.032 0 0 1-.016.026.124.124 0 0 1-.05.016h-.222a.058.058 0 0 1-.03-.016l-.015-.02-.384-.625-.368.627-.016.021a.071.071 0 0 1-.026.016h-.214a.116.116 0 0 1-.048-.013.032.032 0 0 1-.013-.027.087.087 0 0 1 .016-.042l.481-.762-.47-.733a.095.095 0 0 1-.017-.042.03.03 0 0 1 .016-.027.114.114 0 0 1 .05-.016h.22l.027.014a.082.082 0 0 1 .016.02l.365.583.357-.585a.069.069 0 0 1 .016-.018l.024-.016h.2a.116.116 0 0 1 .048 0 .03.03 0 0 1 .013.026.111.111 0 0 1-.015.045l-.453.738Zm2.064-.018a.085.085 0 0 1 .013.04.032.032 0 0 1-.016.026.124.124 0 0 1-.05.016h-.223a.058.058 0 0 1-.029-.016l-.015-.021-.384-.627-.37.627-.016.02a.077.077 0 0 1-.027.017h-.209a.116.116 0 0 1-.048-.013.032.032 0 0 1-.013-.027.087.087 0 0 1 .016-.042l.479-.76-.47-.735a.095.095 0 0 1-.017-.04.03.03 0 0 1 .016-.029.114.114 0 0 1 .05-.016h.23l.027.013a.082.082 0 0 1 .016.022l.365.582.339-.582a.069.069 0 0 1 .016-.019l.023-.016h.201a.116.116 0 0 1 .048 0 .03.03 0 0 1 .013.027.111.111 0 0 1-.016.045l-.444.735ZM67 158.233a.085.085 0 0 1 .014.04.032.032 0 0 1-.016.026.124.124 0 0 1-.05.016h-.223a.058.058 0 0 1-.029-.016l-.016-.02-.383-.623-.37.627-.017.022a.071.071 0 0 1-.026.016h-.21a.116.116 0 0 1-.047-.014.032.032 0 0 1-.013-.026.087.087 0 0 1 .016-.043l.476-.764-.466-.736a.095.095 0 0 1-.015-.04.03.03 0 0 1 .015-.028.114.114 0 0 1 .05-.016h.22l.027.013a.082.082 0 0 1 .016.021l.365.582.357-.59a.069.069 0 0 1 .016-.018l.024-.016h.2a.116.116 0 0 1 .048 0 .026.026 0 0 1 .014.026.111.111 0 0 1-.016.045l-.453.736zm1.882-2.188a.085.085 0 0 1 .013.04.032.032 0 0 1-.016.026.124.124 0 0 1-.05.016h-.223a.058.058 0 0 1-.029-.016l-.016-.02-.38-.628-.37.627-.017.021a.071.071 0 0 1-.026.016h-.21a.116.116 0 0 1-.047-.013.032.032 0 0 1-.013-.027.087.087 0 0 1 .016-.042l.481-.772-.473-.723a.095.095 0 0 1-.016-.04.03.03 0 0 1 .016-.029.114.114 0 0 1 .05-.015h.22l.026.013a.082.082 0 0 1 .016.02l.365.583.357-.582a.069.069 0 0 1 .016-.019l.024-.015h.201a.116.116 0 0 1 .048 0 .03.03 0 0 1 .013.026.111.111 0 0 1-.016.045l-.455.736Zm2.127-.026a.085.085 0 0 1 .013.04.032.032 0 0 1-.016.026.124.124 0 0 1-.05.016h-.222a.058.058 0 0 1-.03-.016l-.015-.021-.381-.622-.37.63-.017.02a.071.071 0 0 1-.026.017h-.209a.116.116 0 0 1-.048-.014.032.032 0 0 1-.013-.026.087.087 0 0 1 .016-.042l.482-.773-.474-.725a.095.095 0 0 1-.016-.04.03.03 0 0 1 .016-.029.114.114 0 0 1 .05-.016h.22l.026.014a.082.082 0 0 1 .016.02l.365.583.357-.582a.069.069 0 0 1 .016-.021l.024-.027h.201a.116.116 0 0 1 .048 0 .03.03 0 0 1 .013.027.111.111 0 0 1-.016.045l-.455.751zm1.923 2.156a.085.085 0 0 1 .014.04.032.032 0 0 1-.016.026.124.124 0 0 1-.05.016h-.21a.058.058 0 0 1-.029-.016l-.016-.021-.394-.614-.37.627-.016.021a.071.071 0 0 1-.027.016h-.209a.116.116 0 0 1-.047-.013.032.032 0 0 1-.013-.026.087.087 0 0 1 .015-.043l.482-.772-.474-.736a.095.095 0 0 1-.015-.04.03.03 0 0 1 .015-.029.114.114 0 0 1 .05-.016h.22l.027.014a.082.082 0 0 1 .016.02l.365.583.357-.59a.069.069 0 0 1 .016-.019l.024-.016h.2a.116.116 0 0 1 .048 0 .026.026 0 0 1 .014.027.111.111 0 0 1-.016.045l-.453.735zm-1.878 2.548a.085.085 0 0 1 .013.04.032.032 0 0 1-.016.026.124.124 0 0 1-.05.016h-.222a.058.058 0 0 1-.03-.016l-.015-.021-.384-.622-.368.635-.016.021a.071.071 0 0 1-.026.016h-.21a.116.116 0 0 1-.047-.013.032.032 0 0 1-.013-.027.087.087 0 0 1 .016-.042l.481-.772-.47-.736a.095.095 0 0 1-.019-.034.03.03 0 0 1 .016-.03.114.114 0 0 1 .05-.015h.22l.026.013a.082.082 0 0 1 .016.021l.365.582.357-.59a.069.069 0 0 1 .016-.018l.024-.016h.201a.116.116 0 0 1 .048 0 .03.03 0 0 1 .013.026.111.111 0 0 1-.016.045l-.452.736zm-2.1 2.532a.085.085 0 0 1 .012.04.032.032 0 0 1-.016.026.124.124 0 0 1-.05.016h-.222a.058.058 0 0 1-.03-.016l-.015-.021-.384-.622-.37.627-.016.021a.071.071 0 0 1-.026.016h-.21a.116.116 0 0 1-.047-.013.032.032 0 0 1-.013-.026.087.087 0 0 1 .016-.043l.481-.772-.474-.728a.095.095 0 0 1-.015-.04.03.03 0 0 1 .015-.029.114.114 0 0 1 .05-.016h.22l.027.014a.082.082 0 0 1 .016.02l.365.583.357-.59a.069.069 0 0 1 .016-.019l.024-.016h.2a.116.116 0 0 1 .048 0 .026.026 0 0 1 .014.027.111.111 0 0 1-.016.045l-.453.735Zm-1.88 2.553a.085.085 0 0 1 .014.04.032.032 0 0 1-.016.026.124.124 0 0 1-.05.016H66.8a.058.058 0 0 1-.029-.016l-.016-.02-.383-.638-.37.627-.017.02a.077.077 0 0 1-.026.017h-.209a.116.116 0 0 1-.048-.014.032.032 0 0 1-.013-.026.087.087 0 0 1 .016-.042l.482-.773-.471-.735a.095.095 0 0 1-.016-.04.03.03 0 0 1 .016-.03.114.114 0 0 1 .05-.015h.22l.026.013a.082.082 0 0 1 .016.021l.365.582.357-.59a.069.069 0 0 1 .016-.018l.024-.016h.2a.116.116 0 0 1 .048 0 .026.026 0 0 1 .014.026.111.111 0 0 1-.016.045l-.455.746Zm-2.15-2.513a.085.085 0 0 1 .013.04.032.032 0 0 1-.016.026.124.124 0 0 1-.05.016h-.223a.058.058 0 0 1-.029-.016l-.016-.021-.38-.627-.371.627-.016.02a.077.077 0 0 1-.026.017h-.21a.116.116 0 0 1-.047-.014.032.032 0 0 1-.013-.026.087.087 0 0 1 .016-.042l.481-.773-.47-.735a.095.095 0 0 1-.017-.04.03.03 0 0 1 .016-.03.114.114 0 0 1 .05-.015h.22l.026.013a.082.082 0 0 1 .016.021l.376.6.357-.59a.069.069 0 0 1 .016-.018l.024-.016h.201a.116.116 0 0 1 .048 0 .026.026 0 0 1 .013.027.111.111 0 0 1-.016.045l-.452.735zm-2.088-2.49a.085.085 0 0 1 .013.04.032.032 0 0 1-.016.026.124.124 0 0 1-.05.016h-.222a.058.058 0 0 1-.03-.016l-.015-.021-.379-.627-.37.627-.016.021a.071.071 0 0 1-.026.016h-.215a.116.116 0 0 1-.047-.013.032.032 0 0 1-.014-.027.087.087 0 0 1 .016-.042l.482-.773-.471-.722a.095.095 0 0 1-.016-.04.03.03 0 0 1 .016-.029.114.114 0 0 1 .05-.016h.22l.026.014a.082.082 0 0 1 .016.02l.365.583.357-.59a.069.069 0 0 1 .016-.019l.024-.016h.201a.116.116 0 0 1 .048 0 .03.03 0 0 1 .013.027.111.111 0 0 1-.016.045l-.455.743z" fill="#ff8d4e" data-name="Layer 1"/></g></svg>