<svg xmlns="http://www.w3.org/2000/svg" xmlns:svg="http://www.w3.org/2000/svg" id="svg18" width="580" height="120" version="1.1" viewBox="0 0 580 120"><metadata id="metadata24"/><path id="path2" fill="#ff8d4e" d="M322.41 99.656H298l-12.373-18.378 12.167-18.188z"/><path id="path4" fill="#92929a" d="M322.31 19.97H297.9l-12.088 16.42 12.263 16.78z"/><path id="path6" fill="#2c233d" d="M294.425 58.234l-27.97-38.142h-24.41l27.872 38.142-27.97 41.544h24.41zM148.717 49.404l32.468-29.626h9.474V99.7h-21.082V58.675l-20.86 19.075-20.975-18.97V99.7h-21.077V19.78h9.475zM206.057 19.777h20.972V99.7h-20.973z" style="fill:#fff;fill-opacity:1"/><path id="path8" fill="#ff8d4e" d="M337.91 19.777h20.97V99.7h-20.97zM371.835 19.778h62.832v20.86H413.51V99.7h-20.944V40.638h-20.73z"/><path style="--font-specification:'Lato Heavy'" id="path10" fill="#ff8a4b" stroke-width=".75" d="M73.27 78.58l-3.966 22.385h-8.16q-1.19 0-2.266-.567-1.02-.567-1.757-1.53-.68-.963-.962-2.21-.284-1.247 0-2.663l2.72-15.414h-9.35L46.75 94.846q-.282 1.643-1.076 2.833-.736 1.133-1.813 1.87-1.02.737-2.322 1.077-1.247.34-2.607.34h-7.82L35.08 78.58H30.09q-2.662 0-3.796-1.53-1.133-1.585-.51-5.325l.907-5.44h10.03L39.1 52.91H27.825l1.36-7.14q.51-2.605 2.21-3.852 1.757-1.247 5.497-1.247h3.854L43.69 24.07q.51-2.663 2.55-4.137 2.098-1.53 4.818-1.53h8.046l-3.966 22.27h9.406L68.51 18.4h7.82q1.36 0 2.438.455 1.133.453 1.87 1.246.793.738 1.133 1.815.34 1.02.114 2.266l-2.946 16.49H89.93l-1.36 7.14q-.51 2.665-2.266 3.91-1.7 1.19-5.44 1.19h-3.57l-2.38 13.375h6.177q2.664 0 3.798 1.586 1.133 1.53.51 5.27l-.907 5.44zM51.115 66.286h9.407L62.9 52.91h-9.406z" font-family="Lato" font-size="85" font-weight="900" letter-spacing="0" word-spacing="0"/><g style="line-height:1.25;fill:#fff;fill-opacity:1;stroke:none;stroke-opacity:1" id="g16" fill="#2b233c" stroke-width=".839" font-family="sans-serif" font-size="80.506" font-weight="900" letter-spacing="0" transform="matrix(1.0870209,0,0,1.0589932,-48.00202,1.280265)" word-spacing="0"><g style="font-style:normal;font-weight:400;font-size:106.369px;line-height:1.25;font-family:sans-serif;letter-spacing:0;word-spacing:0;fill:#fff;fill-opacity:1;stroke:none;stroke-width:2.2311;stroke-opacity:1" id="text4539" aria-label="19" transform="scale(0.98223549,1.0180858)"><text style="font-style:normal;font-variant:normal;font-weight:400;font-stretch:normal;font-size:104px;line-height:1.25;font-family:'Eurostile Extended';-inkscape-font-specification:'Eurostile Extended';letter-spacing:0;word-spacing:0;fill:#fff;fill-opacity:1;stroke:none;stroke-width:2.96097;stroke-opacity:1" id="text897" x="465.627" y="90.692" transform="scale(0.97165139,1.0291757)" xml:space="preserve"><tspan id="tspan895" x="465.627" y="90.692" style="font-style:normal;font-variant:normal;font-weight:700;font-stretch:normal;font-size:104px;font-family:'Tintin Majuscules';-inkscape-font-specification:'Tintin Majuscules Bold';fill:#fff;fill-opacity:1;stroke:none;stroke-width:2.96097;stroke-opacity:1">21</tspan></text></g></g></svg>