<svg xmlns="http://www.w3.org/2000/svg" id="svg150" width="512" height="512" version="1.1" viewBox="0 0 512 512"><!--! Font Awesome Pro 6.3.0 by @fontawesome - https://fontawesome.com License - https://fontawesome.com/license (Commercial License) Copyright 2023 Fonticons, Inc.--><path id="path148" d="m 173.11515,80.697007 c 5.8755,0 10.77174,4.259684 12.57959,9.864528 9.26523,28.920995 36.60891,49.920495 68.92419,49.920495 32.31528,0 59.65896,-20.9995 68.9242,-49.920495 1.80784,-5.604844 6.70408,-9.864528 12.57958,-9.864528 h 9.49121 c 16.94858,0 33.29453,5.903772 46.32609,16.665073 l 95.06266,78.54257 c 4.97155,4.11021 8.05997,10.08873 8.58725,16.51562 0.5273,6.42687 -1.58186,12.77904 -5.87549,17.63657 l -42.1831,47.82802 c -8.58729,9.78977 -23.50202,10.91075 -33.59584,2.61558 L 375.1421,228.44073 v 187.05236 c 0,26.38013 -21.61883,47.82801 -48.20927,47.82801 H 182.30502 c -26.59043,0 -48.20926,-21.44788 -48.20926,-47.82801 V 228.44073 l -38.793384,32.05971 c -10.018499,8.29517 -24.93323,7.17419 -33.595837,-2.61558 L 19.523431,210.05684 c -4.293639,-4.85753 -6.402794,-11.2097 -5.875506,-17.63657 0.527289,-6.42689 3.615695,-12.40541 8.587277,-16.51562 L 117.29784,97.36208 c 13.03157,-10.761301 29.37752,-16.665073 46.3261,-16.665073 z" style="fill:none;stroke:#fff;stroke-width:24;stroke-dasharray:none;stroke-opacity:1"/></svg>