<svg xmlns="http://www.w3.org/2000/svg" width="512" height="512" version="1.1" viewBox="0 0 512 512"><!--! Font Awesome Pro 6.3.0 by @fontawesome - https://fontawesome.com License - https://fontawesome.com/license (Commercial License) Copyright 2023 Fonticons, Inc.--><path style="stroke:#fff" fill="none" stroke="#000" stroke-width="28" d="m25.271 151.18c0-28.593 23.247-51.84 51.84-51.84h362.88c28.593 0 51.84 23.247 51.84 51.84v51.84c0 7.128-5.994 12.717-12.717 15.066-15.228 5.265-26.163 19.764-26.163 36.774s10.935 31.509 26.163 36.774c6.723 2.349 12.717 7.938 12.717 15.066v51.84c0 28.593-23.247 51.84-51.84 51.84h-362.88c-28.593 0-51.84-23.247-51.84-51.84v-51.84c0-7.128 5.994-12.717 12.717-15.066 15.228-5.265 26.163-19.764 26.163-36.774s-10.935-31.509-26.163-36.774c-6.723-2.349-12.717-7.938-12.717-15.066z"/></svg>