<svg xmlns="http://www.w3.org/2000/svg" width="48" height="48" viewBox="0 0 48 48"><title>mxt-icon--network</title><g id="Layer_2" data-name="Layer 2"><g id="Layer_1-2" data-name="Layer 1"><path d="M11.67,15.95a5.1,5.1,0,0,1,1.51.23,41.29,41.29,0,0,1,6-5.48,5,5,0,0,1,.12-2.8A37.44,37.44,0,0,0,11.4,3.57,24.11,24.11,0,0,0,4.66,9.79a37.75,37.75,0,0,0,4.79,6.67A5.07,5.07,0,0,1,11.67,15.95ZM6.56,21.05A5.09,5.09,0,0,1,7,19a41.15,41.15,0,0,1-4.42-5.81,24,24,0,0,0,.82,23.05A40.67,40.67,0,0,1,7.61,24.14,5.07,5.07,0,0,1,6.56,21.05ZM24.09,4.4a5.08,5.08,0,0,1,3.48,1.38A40.68,40.68,0,0,1,36,3.2,24,24,0,0,0,15.56,1.53,41.14,41.14,0,0,1,21.5,5.12,5.07,5.07,0,0,1,24.09,4.4Zm7.64,24.05a5.1,5.1,0,0,1,1.33-1.71,37.36,37.36,0,0,0-7-12.53,5.1,5.1,0,0,1-5-.55A37.56,37.56,0,0,0,16,18.37a5.09,5.09,0,0,1,.54,4.22A37.13,37.13,0,0,0,31.73,28.45Zm6.62,6.89q.11,1.45.11,2.93a41.38,41.38,0,0,1-.32,5.12,24,24,0,0,0,8.73-12.1,40.78,40.78,0,0,1-5.69,1A5.12,5.12,0,0,1,38.35,35.35Zm-7.82-3.46a40.72,40.72,0,0,1-16.2-6.48,5.08,5.08,0,0,1-2.66.76,5.13,5.13,0,0,1-1-.11A37.12,37.12,0,0,0,6.45,40.36a24,24,0,0,0,8.21,5.75A40.84,40.84,0,0,1,30.53,31.89ZM40.11,6.21A37.1,37.1,0,0,0,29.17,9a4.74,4.74,0,0,1,0,.51,5.08,5.08,0,0,1-.52,2.24,40.93,40.93,0,0,1,7.75,13.8A5.11,5.11,0,0,1,41,28.67a37.08,37.08,0,0,0,6.73-1.31A24.25,24.25,0,0,0,48,24,23.94,23.94,0,0,0,40.11,6.21Zm-7,28.4A37.28,37.28,0,0,0,18.17,47.28a24,24,0,0,0,16-1.53,37.33,37.33,0,0,0,.76-7.48c0-.93,0-1.84-.11-2.75A5.11,5.11,0,0,1,33.1,34.61Z" style="fill:#fff"/></g></g></svg>