<svg xmlns="http://www.w3.org/2000/svg" width="100" height="100" version="1.1" viewBox="0 0 26.458 26.458"><g fill="none"><g stroke="#fff" stroke-width="1.058"><ellipse cx="6.436" cy="8.336" stroke-linecap="round" stroke-linejoin="round" rx="4.157" ry="4.175"/><ellipse cx="16.146" cy="7.715" stroke-linecap="round" stroke-linejoin="round" rx="4.586" ry="4.68"/><path d="m3.0747 20.667 0.057459-6.4962c0.33895-1.0668 1.0512-1.6134 2.0387-1.7764l11.504-0.02342c1.5972 0.14133 2.0232 0.73532 2.1129 1.4593l-0.11752 7.7919c-0.0154 1.1123-0.59896 1.3974-1.3357 1.4596l-12.648-0.13499c-1.3903-0.22074-1.7941-1.0651-1.612-2.2797z"/><path d="m18.626 15.517 4.9881-3.3431c0.47302 0.25768 0.84077 0.59492 0.84399 1.2076l0.03096 8.4968c-0.12448 0.6469-0.50545 0.97567-0.95718 1.2167l-4.9091-4.2916"/></g></g></svg>