<svg xmlns="http://www.w3.org/2000/svg" width="50" height="50" viewBox="0 0 50 50"><title>mxt-icon--cat4</title><g data-name="Layer 1"><path fill="#5ab79c" d="M0 0h50v50H0z"/><path fill="#242539" d="M15.64 13.9H33v21.02H15.64z"/><path d="M13.78 41.33V8.67h17.33v5.11h5.11v7.12h-5.11V24h5.11v12.22h-5.11v5.11zm15.33-7.11V26h-8.22v8.22zm0-15.33v-3.11h-8.22v3.12z" fill="#5ab79c"/><path d="M30.11 9.67v5.11H19.89v5.12h10.22V25H19.89v10.22h10.22v5.11H14.78V9.67h15.33m5.11 5.11v5.12h-5.11v-5.12h5.11m0 10.23v10.21h-5.11V25h5.11M32.11 7.67H12.78v34.66h19.33v-5.11h5.11V23h-5.11v-1.11h5.11v-9.11h-5.11V7.67zm-10.22 9.11h6.22v1.12h-6.22v-1.12zm0 10.23h6.22v6.22h-6.22V27z" fill="#242539"/></g></svg>