<svg xmlns="http://www.w3.org/2000/svg" width="100" height="100" version="1.1" viewBox="0 0 26.458 26.458"><g fill="none" stroke="#fff"><path stroke-width="1.058" d="m5.854 9.4837-2.5275 0.10155c-0.50116 0.19596-0.85338 0.51142-0.86974 1.0964l0.18002 11.521c0.38121 0.88901 0.86528 1.6478 1.9756 1.6137l17.792-0.08617c1.2329-0.10246 1.7149-0.86143 2.1221-1.6859l-0.17747-11.41c0.0067-0.80201-0.70664-1.0013-1.3949-1.2216l-3.0269-0.08643"/><path stroke-width="1.058" d="m2.6195 11.57 9.3373 4.4241c1.0056 0.31745 2.0177 0.49591 3.0609 0.01166l9.4216-4.4544-0.0859 0.04416"/><g stroke-linecap="round"><path stroke-linejoin="round" stroke-width="1.058" d="m16.984 1.8791c-2.8712 1.0786-5.7964 1.9331-8.9771 1.7271-0.60905 0.31188-1.262 0.60114-1.4787 1.1154-0.28511 0.766-0.22624 1.3529-0.012678 1.8593 0.34585 0.70855 0.97013 1.0343 1.5393 1.4357 3.1373 0.049089 6.1261 0.43074 8.7669 1.5915l0.07876 0.09799z"/><path stroke-width=".8" d="m11.622 8.2914 1.0822 2.8258"/><g stroke-linejoin="round" stroke-width="1.058"><path d="m18.706 3.4216 2.4927-1.3154"/><path d="m18.861 6.862 2.5635 1.1248"/><path d="m18.841 5.2205 2.3382 0.053036"/></g></g></g></svg>