<svg xmlns="http://www.w3.org/2000/svg" width="50" height="51" version="1.1" viewBox="0 0 50 51"><rect width="50" height="51" x=".153" y=".153" fill="#ff8d4e"/><g fill="#242539" stroke-width="0"><rect width="2.019" height="17.299" x="6.162" y="-31.744" transform="rotate(90)" style="paint-order:markers fill stroke"/><rect width="2.019" height="5.737" x="12.696" y="6.153" style="paint-order:markers fill stroke"/><rect width="2.019" height="29.297" x="9.159" y="10.612" style="paint-order:markers fill stroke"/><rect width="20.093" height="19.327" x="14.691" y="15.607" style="paint-order:markers fill stroke"/><rect width="2.019" height="5.553" x="9.871" y="-14.716" transform="rotate(90)" style="paint-order:markers fill stroke"/><rect width="2.019" height="5.553" x="15.599" y="-20.287" transform="rotate(90)" style="paint-order:markers fill stroke"/><rect width="2.019" height="5.553" x="38.661" y="-14.713" transform="rotate(90)" style="paint-order:markers fill stroke"/><rect width="2.019" height="5.502" x="12.712" y="39.425" style="paint-order:markers fill stroke"/><rect width="2.019" height="19.56" x="42.953" y="-32.268" transform="rotate(90)" style="paint-order:markers fill stroke"/><rect width="2.019" height="17.299" x="6.162" y="17.886" transform="matrix(0,1,1,0,0,0)" style="paint-order:markers fill stroke"/><rect width="26.697" height="13.092" x="11.997" y="18.284" transform="matrix(0,1,1,0,0,0)" style="paint-order:markers fill stroke"/><rect width="2.019" height="13.092" x="36.649" y="18.232" transform="matrix(0,1,1,0,0,0)" style="paint-order:markers fill stroke"/><rect width="2.019" height="5.737" x="-36.934" y="6.153" transform="scale(-1,1)" style="paint-order:markers fill stroke"/><rect width="2.019" height="29.297" x="-40.471" y="10.612" transform="scale(-1,1)" style="paint-order:markers fill stroke"/><rect width="2.019" height="5.553" x="9.871" y="34.915" transform="matrix(0,1,1,0,0,0)" style="paint-order:markers fill stroke"/><rect width="2.019" height="5.553" x="38.661" y="34.917" transform="matrix(0,1,1,0,0,0)" style="paint-order:markers fill stroke"/><rect width="2.019" height="5.502" x="-36.919" y="39.424" transform="scale(-1,1)" style="paint-order:markers fill stroke"/><rect width="2.019" height="19.56" x="42.952" y="17.362" transform="matrix(0,1,1,0,0,0)" style="paint-order:markers fill stroke"/></g></svg>