<svg viewBox="0 0 80.072 50.192" xmlns="http://www.w3.org/2000/svg"><g fill="#dcb9b9" fill-opacity=".2"><g stroke-width="1.034"><path d="M10.295 41.125h8.295v8.956h-8.295zM2 32.169h8.295v8.956H2zM10.295 32.169h8.295v8.956h-8.295zM18.591 32.169h8.295v8.956h-8.295z"/><path d="M26.886 32.169h8.295v8.956h-8.295zM35.181 32.169h8.295v8.956h-8.295zM26.886 41.125h8.295v8.956h-8.295zM26.886 23.213h8.295v8.956h-8.295zM26.886 14.257h8.295v8.956h-8.295zM35.181 14.257h8.295v8.956h-8.295z"/><path d="M18.591 14.257h8.295v8.956h-8.295zM10.295 14.257h8.295v8.956h-8.295zM2 14.257h8.295v8.956H2zM10.295 23.213h8.295v8.956h-8.295zM10.295 5.301h8.295v8.956h-8.295zM26.886 5.301h8.295v8.956h-8.295z"/></g><g stroke-width="1.158"><path d="M50.091 30.13h9.29v10.03h-9.29z"/><path d="M50.091 20.1h9.29v10.03h-9.29zM50.091 40.162h9.29v10.03h-9.29zM50.091 10.07h9.29V20.1h-9.29zM50.091.04h9.29v10.03h-9.29zM68.055 30.302h9.29v10.03h-9.29zM68.055 20.272h9.29v10.03h-9.29zM68.055 40.334h9.29v10.03h-9.29zM68.055 10.242h9.29v10.03h-9.29zM68.055.212h9.29v10.03h-9.29z"/></g></g></svg>