<svg xmlns="http://www.w3.org/2000/svg" xmlns:svg="http://www.w3.org/2000/svg" id="svg8" width="210mm" height="297mm" opacity=".4" version="1.1" viewBox="0 0 210 297"><metadata id="metadata5"/><g id="layer1"><path style="fill:#2c233d;fill-opacity:1;stroke:#dbb9b8;stroke-width:2;stroke-linecap:butt;stroke-linejoin:round;stroke-opacity:1;stroke-miterlimit:4;stroke-dasharray:none" id="path1006" d="m 85.012434,214.77755 -3.590771,0.37798 -4.724704,2.36235 -3.401785,4.81919 -2.362351,6.52009 -0.472472,7.74852 1.984375,11.15029 3.118305,7.9375 6.614583,5.48066 4.630209,2.17336 7.181547,1.51191 7.9375,-2.45685 4.53572,-3.87426 1.79538,-3.59077 1.88988,-5.38616 -0.28348,-5.66964 -3.68527,-6.33111 -5.95312,-12.00074 -3.68527,-3.77976 -5.48065,-7.08705"/><path style="fill:#2c233d;fill-opacity:1;stroke:#dbb9b8;stroke-width:2;stroke-linecap:butt;stroke-linejoin:round;stroke-opacity:1;stroke-miterlimit:4;stroke-dasharray:none" id="path1008" d="m 127.72374,214.77755 -4.15773,2.26786 -3.68527,6.42559 -0.75595,6.70908 7.65401,11.43378 19.0878,9.26042 10.29985,1.6064 10.86682,-2.92932 4.91369,-4.7247 2.83482,-6.3311 -0.56697,-6.99256 -5.48065,-6.80357 -15.49702,-7.37054 -7.84301,-2.36235 -8.88244,-2.07887"/><path style="fill:#2c233d;fill-opacity:1;stroke:#dbb9b8;stroke-width:2;stroke-linecap:butt;stroke-linejoin:round;stroke-opacity:1;stroke-miterlimit:4;stroke-dasharray:none" id="path882" d="m 77.98156,191.01529 17.23888,7.34991 11.09169,3.60814 19.77794,-1.06908 15.90254,-4.27631 9.2208,-7.61718 6.5481,-8.28536 2.00452,-5.61266 -5.87993,-11.49259 -10.42351,-19.10977 -6.68174,-8.01808 -3.0736,-18.97614 -5.21175,-13.36348 -5.7463,-6.013555 -32.60688,7.216275 -6.5481,19.37704 -9.08717,37.95227 2.6727,5.87994 3.74177,8.55261 -0.93544,7.61718 z"/><path style="fill:#2c233d;fill-opacity:1;stroke:#dbb9b8;stroke-width:2;stroke-linecap:butt;stroke-linejoin:round;stroke-opacity:1;stroke-miterlimit:4;stroke-dasharray:none" id="path832" d="m 90.14232,105.3554 6.41447,-4.54358 6.1472,-4.543585 14.83347,0.80181 5.21175,1.06908 1.2027,1.46998 0.80182,2.939965 -0.26728,2.40542 -3.8754,3.47452 -5.61265,2.00452 -4.81085,0.93544 -5.61267,0.26726 -7.08264,-0.8018 -3.0736,0.13363 -2.00454,-2.93996 z"/><path style="fill:#2c233d;fill-opacity:1;stroke:#dbb9b8;stroke-width:2;stroke-linecap:butt;stroke-linejoin:round;stroke-opacity:1;stroke-miterlimit:4;stroke-dasharray:none" id="path830" d="m 102.16946,96.000975 v 7.617165 l 4.81085,1.06909 h 4.40994 l 3.20724,-1.20272 0.13363,-8.285355 -5.87992,1.46999 -6.14721,-0.40091 v 0 0"/><path style="fill:#2c233d;fill-opacity:1;stroke:#dbb9b8;stroke-width:2;stroke-linecap:butt;stroke-linejoin:round;stroke-opacity:1;stroke-miterlimit:4;stroke-dasharray:none" id="path849" d="m 122.74921,98.139125 1.2027,1.46998 4.5436,4.543585 2.20496,5.67948 3.00678,7.684 2.40544,-6.1472 0.13363,-11.35897 -2.40542,-4.276305 -2.2718,-1.20271 h -4.27632 z"/><path style="fill:#2c233d;fill-opacity:1;stroke:#dbb9b8;stroke-width:2;stroke-linecap:butt;stroke-linejoin:round;stroke-opacity:1;stroke-miterlimit:4;stroke-dasharray:none" id="path851" d="m 64.75172,52.168765 4.27631,-11.09168 6.949,-7.88446 10.42352,-5.61266 11.22531,-3.0736 8.68628,-0.4009 5.87993,0.26727 3.8754,1.60362 3.20723,4.54358 5.61266,10.69078 8.419,16.03617 1.33633,6.41447 -0.40089,11.62622 -2.27179,7.08265 -4.81085,6.28083 -8.28536,4.81085 -4.14268,1.73725 -5.87992,1.46999 -6.14721,-0.40091 -0.53453,-0.26727 -11.8935,-3.0736 -6.94901,-3.60813 -3.60814,-3.60814 -3.34087,-6.1472 -4.40994,-13.22985 -3.87541,-6.949 z"/><path style="fill:#2c233d;fill-opacity:1;stroke:#dbb9b8;stroke-width:2;stroke-linecap:butt;stroke-linejoin:round;stroke-opacity:1;stroke-miterlimit:4;stroke-dasharray:none" id="path853" d="m 79.45154,116.98162 v 6.01357 l -0.26727,10.55714 -2.93996,9.35444 -4.14268,11.09168 -4.40995,9.88897 4.14268,0.93545 5.34539,3.74177 7.61718,-17.23889 2.00453,-7.21627 3.07359,-10.15624 1.20272,-5.21176 -2.80633,-15.90253 -1.87089,-0.80182"/><path style="fill:#2c233d;fill-opacity:1;stroke:#dbb9b8;stroke-width:2;stroke-linecap:butt;stroke-linejoin:round;stroke-opacity:1;stroke-miterlimit:4;stroke-dasharray:none" id="path828" d="m 90.14232,105.3554 h -5.47903 l -3.4745,1.46998 -4.14267,3.07361 -1.87089,2.67268 -0.53454,3.60815 0.66818,2.13815 1.06907,2.00452 3.0736,2.6727 v -6.01357 l 2.53906,-0.13364 4.67722,4.27632 4.40995,7.61718 2.93996,-2.00452 1.46999,-8.55262 -1.06908,-7.21628 -2.00454,-2.93996 z"/><path style="fill:none;stroke:#dbb9b8;stroke-width:2;stroke-linecap:butt;stroke-linejoin:round;stroke-opacity:1;stroke-miterlimit:4;stroke-dasharray:none" id="path878" d="m 79.18427,133.55233 3.07359,-0.26727 4.14269,1.06908 2.40543,3.74177"/><path style="fill:none;stroke:#dbb9b8;stroke-width:2;stroke-linecap:butt;stroke-linejoin:round;stroke-opacity:1;stroke-miterlimit:4;stroke-dasharray:none" id="path880" d="m 73.70525,150.79122 3.87541,-0.53454 2.13815,0.93544 2.27179,2.00452 1.06908,2.80633"/><path style="fill:none;fill-opacity:1;stroke:#dbb9b8;stroke-width:2;stroke-linecap:butt;stroke-linejoin:round;stroke-opacity:1;stroke-miterlimit:4;stroke-dasharray:none" id="path943" d="m 88.06553,141.80499 10.28987,4.00904 11.35896,0.26727 10.82442,-0.13364 8.28535,-3.34087 4.40995,-2.53905 3.54677,-3.57543 v 0 0"/><path style="fill:#2c233d;fill-opacity:1;stroke:#dbb9b8;stroke-width:2;stroke-linecap:butt;stroke-linejoin:round;stroke-opacity:1;stroke-miterlimit:4;stroke-dasharray:none" id="path947" d="m 65.88216,194.85799 0.66817,3.74177 3.20724,0.53454 4.40994,-3.34087 3.81405,-4.77814 2.73405,-8.85261 0.20591,-5.04541 -7.15491,-0.56724 -3.47451,6.81537 -3.34086,5.21175"/><path style="fill:#2c233d;fill-opacity:1;stroke:#dbb9b8;stroke-width:2;stroke-linecap:butt;stroke-linejoin:round;stroke-opacity:1;stroke-miterlimit:4;stroke-dasharray:none" id="path945" d="m 67.69168,163.88742 -5.81857,1.83819 -5.87993,3.60814 -2.27179,4.14267 -2.67269,3.60814 -3.0736,8.01809 -1.20271,6.81537 -0.13364,4.94449 1.20271,4.94448 3.60814,2.00453 4.94449,-0.93545 5.34539,-3.20723 4.14268,-4.81085 1.06908,-6.28084 3.34086,-5.21175 6.01357,-3.34087 4.61585,-2.90726 -3.74177,-8.55263 -2.34406,-1.50268 -3.00134,-2.23909 z"/><path style="fill:#2c233d;fill-opacity:1;stroke:#dbb9b8;stroke-width:2;stroke-linecap:butt;stroke-linejoin:round;stroke-opacity:1;stroke-miterlimit:4;stroke-dasharray:none" id="path964" d="m 136.11269,111.36897 4.60494,16.00346 4.14267,10.42351 4.00905,6.81538 7.08264,1.60361 6.1472,3.0736 6.5481,4.14268 4.00904,4.94449 2.00452,5.61266 v 3.8754 l -1.87088,2.13816 -4.27631,-1.33635 -3.20724,1.33635 -6.81537,-0.13363 -1.33635,-0.26727 -7.75081,-13.63075 -5.9413,-11.45988 -6.68174,-8.01808 -3.0736,-18.97614 z"/><path style="fill:none;stroke:#dbb9b8;stroke-width:2;stroke-linecap:butt;stroke-linejoin:round;stroke-opacity:1;stroke-miterlimit:4;stroke-dasharray:none" id="path976" d="m 135.6395,128.57515 h 1.67044 l 1.46998,-0.46773 1.26953,-2.00452"/><path style="fill:none;stroke:#dbb9b8;stroke-width:2;stroke-linecap:butt;stroke-linejoin:round;stroke-opacity:1;stroke-miterlimit:4;stroke-dasharray:none" id="path978" d="m 140.38354,140.60227 1.80407,-0.53453 1.13589,-1.26954 0.93545,-2.40542"/><path style="fill:none;stroke:#dbb9b8;stroke-width:2;stroke-linecap:butt;stroke-linejoin:round;stroke-opacity:1;stroke-miterlimit:4;stroke-dasharray:none" id="path980" d="m 146.26347,149.22172 2.13816,-1.20272 0.93544,-1.9377 -0.46772,-1.46998"/><path style="fill:none;stroke:#dbb9b8;stroke-width:2;stroke-linecap:butt;stroke-linejoin:round;stroke-opacity:1;stroke-miterlimit:4;stroke-dasharray:none" id="path982" d="m 150.20569,157.03935 4.47677,-0.40091 4.14268,1.67044 3.60813,3.0736 2.87315,3.40769 3.20724,3.8754"/><path style="fill:#2c233d;fill-opacity:1;stroke:#dbb9b8;stroke-width:2;stroke-linecap:butt;stroke-linejoin:round;stroke-opacity:1;stroke-miterlimit:4;stroke-dasharray:none" id="path984" d="m 87.56377,195.68975 0.28349,5.66965 -1.7009,7.46503 -3.02381,9.26041 -1.5119,4.06325 0.85045,4.34672 4.44122,2.07887 3.59077,0.28348 2.74033,-0.85044 3.30729,-6.23661 1.22842,-7.18155 0.85045,-6.04762 0.66146,-5.10268 0.28348,-3.68526 -12.09524,-4.8192"/><path style="fill:none;stroke:#dbb9b8;stroke-width:2;stroke-linecap:butt;stroke-linejoin:round;stroke-opacity:1;stroke-miterlimit:4;stroke-dasharray:none" id="path994" d="m 87.84726,201.3594 1.98437,4.44121 3.3073,1.13393 3.30728,-0.28348 2.74033,-1.32291"/><path style="fill:none;stroke:#dbb9b8;stroke-width:2;stroke-linecap:butt;stroke-linejoin:round;stroke-opacity:1;stroke-miterlimit:4;stroke-dasharray:none" id="path996" d="m 86.14636,208.82443 v 0"/><path style="fill:none;stroke:#dbb9b8;stroke-width:2;stroke-linecap:butt;stroke-linejoin:round;stroke-opacity:1;stroke-miterlimit:4;stroke-dasharray:none" id="path998" d="m 86.14636,208.82443 1.41741,2.64583 2.45685,1.5119 3.2128,0.28349 2.07887,-0.18899 2.92931,-1.32292"/><path style="fill:#2c233d;fill-opacity:1;stroke:#dbb9b8;stroke-width:2;stroke-linecap:butt;stroke-linejoin:round;stroke-opacity:1;stroke-miterlimit:4;stroke-dasharray:none" id="path1000" d="m 128.57419,201.07591 0.0945,10.11087 0.37797,10.96131 2.17337,2.55134 3.96875,0.66145 4.81919,-0.75595 2.07887,-2.55134 0.28348,-3.68527 -1.41741,-15.02455 1.0397,-6.71582 -13.89089,3.881"/><path style="fill:none;stroke:#dbb9b8;stroke-width:2;stroke-linecap:butt;stroke-linejoin:round;stroke-opacity:1;stroke-miterlimit:4;stroke-dasharray:none" id="path1002" d="m 129.04666,204.85568 2.55134,1.98437 3.40179,-0.0945 3.40178,-0.56697 2.55134,-2.83482"/><path style="fill:none;stroke:#dbb9b8;stroke-width:2;stroke-linecap:butt;stroke-linejoin:round;stroke-opacity:1;stroke-miterlimit:4;stroke-dasharray:none" id="path1004" d="m 129.80262,210.99779 2.64583,1.5119 4.06324,0.37798 2.36235,-1.13393 2.55134,-2.26786"/><ellipse style="fill:#2c233d;fill-opacity:1;stroke:#dbb9b8;stroke-width:1.96006048;stroke-linejoin:round;stroke-miterlimit:4;stroke-dasharray:none;stroke-opacity:1" id="path1102" cx="11.944" cy="108.117" rx="13.651" ry="14.333" transform="matrix(0.4661958,-0.88468157,0.77442226,0.63266908,0,0)"/><ellipse style="fill:#2c233d;fill-opacity:1;stroke:#dbb9b8;stroke-width:1.98665631;stroke-linejoin:round;stroke-miterlimit:4;stroke-dasharray:none;stroke-opacity:1" id="path1102-3" cx="25.376" cy="133.414" rx="13.366" ry="12.969" transform="matrix(0.24931975,-0.96842122,0.83721544,0.5468732,0,0)"/><ellipse style="fill:#dbb9b8;fill-opacity:1;stroke:#dbb9b8;stroke-width:2.11061139;stroke-opacity:1;stroke-miterlimit:4;stroke-dasharray:none;stroke-linejoin:round" id="path1102-6" cx="6.674" cy="109.281" rx="3.866" ry="3.659" transform="matrix(0.18408899,-0.98290958,0.80156207,0.59791157,0,0)"/><ellipse style="fill:#dbb9b8;fill-opacity:1;stroke:#dbb9b8;stroke-width:2.11061139;stroke-opacity:1;stroke-miterlimit:4;stroke-dasharray:none;stroke-linejoin:round" id="path1102-6-5" cx="36.045" cy="140.496" rx="3.866" ry="3.659" transform="matrix(0.18408899,-0.98290958,0.80156206,0.59791158,0,0)"/><path style="fill:#dbb9b8;fill-opacity:1;stroke:#dbb9b8;stroke-width:2;stroke-linecap:butt;stroke-linejoin:round;stroke-opacity:1;stroke-miterlimit:4;stroke-dasharray:none" id="path1188" d="m 102.43155,83.821427 4.7247,3.401785 6.89807,0.566965 5.10267,-1.700893 3.2128,-2.456844 1.22843,-2.929316 0.37797,-3.401787 -4.06324,2.267857 -4.63021,2.456847 -6.4256,1.700892 z"/><path style="fill:#dbb9b8;stroke:#dbb9b8;stroke-width:2;stroke-linecap:butt;stroke-linejoin:round;stroke-opacity:1;fill-opacity:1;stroke-miterlimit:4;stroke-dasharray:none" id="path1190" d="m 69.028029,41.077083 3.354411,-8.376936 3.874257,-4.441219 5.764135,-3.307292 6.898066,-2.456845 7.748511,-1.039435 4.630211,0.377977 7.55952,2.267857 -11.231281,0.405175 -11.22531,3.0736 -10.42352,5.612659 z"/><path style="fill:#dbb9b8;stroke:#dbb9b8;stroke-width:2;stroke-linecap:butt;stroke-linejoin:round;stroke-opacity:1;fill-opacity:1;stroke-miterlimit:4;stroke-dasharray:none" id="path1192" d="m 68.092589,59.385043 -0.434851,3.553201 0.755952,6.80357 2.267857,4.063246 4.630209,2.834819 -0.188989,-5.197173 -2.55134,-7.748511 z"/><path style="fill:#dbb9b8;stroke:#dbb9b8;stroke-width:2;stroke-linecap:butt;stroke-linejoin:round;stroke-opacity:1;fill-opacity:1;stroke-miterlimit:4;stroke-dasharray:none" id="path1194" d="m 125.20461,37.519345 3.59078,2.267857 2.74032,6.520088 0.66146,4.630208 -0.94494,1.606399 -0.85045,-0.944941 -1.32291,-7.559524 -1.51191,-3.307291 z"/></g></svg>